<?xml version="1.0" encoding="UTF-8" standalone="no"?><svg xmlns="http://www.w3.org/2000/svg" xmlns:xlink="http://www.w3.org/1999/xlink" clip-rule="evenodd" stroke-miterlimit="4.00" viewBox="0 0 1024 768"><desc>SVG generated by Keynote</desc><defs></defs><g transform="matrix(1.00, 0.00, -0.00, -1.00, 0.0, 768.0)"><path d="M 0.0 768.0 L 1024.0 768.0 L 1024.0 0.0 L 0.0 0.0 Z M 0.0 768.0 " fill="#FEFFFF"></path><g><clipPath id="clip-39162"><path d="M 169.5 469.4 C 189.0 461.2 189.0 448.0 169.5 439.9 C 150.0 431.8 118.3 431.8 98.8 439.9 C 79.3 448.0 79.3 461.2 98.8 469.4 C 118.3 477.5 150.0 477.5 169.5 469.4 Z M 169.5 469.4 "></path></clipPath><g clip-path="url(#clip-39162)"><g><clipPath id="clip-39163"><path d="M 83.1 432.8 L 185.1 432.8 L 185.1 476.5 L 83.1 476.5 Z M 83.1 432.8 "></path></clipPath><g clip-path="url(#clip-39163)"><image xlink:href="../../E032F876-E8E9-4C42-AF2C-93ED8E896D6C/assets/AFF4D1F361AD28AA82012E14045EB299.jpeg" width="128.00" height="128.00" transform="matrix(1.00, 0.00, -0.00, -1.00, 84.1, 475.5)"></image><path d="M 84.1 475.5 L 184.1 475.5 L 184.1 433.8 L 84.1 433.8 Z M 84.1 475.5 " fill="#1093A4" fill-opacity="0.85"></path></g></g></g></g><g><clipPath id="clip-39164"><path d="M 84.1 552.6 L 184.1 552.6 L 184.1 452.6 L 84.1 452.6 Z M 84.1 552.6 "></path></clipPath><g clip-path="url(#clip-39164)"><g><clipPath id="clip-39165"><path d="M 83.1 451.6 L 185.1 451.6 L 185.1 553.6 L 83.1 553.6 Z M 83.1 451.6 "></path></clipPath><g clip-path="url(#clip-39165)"><image xlink:href="../../E032F876-E8E9-4C42-AF2C-93ED8E896D6C/assets/AFF4D1F361AD28AA82012E14045EB299.jpeg" width="128.00" height="128.00" transform="matrix(1.00, 0.00, -0.00, -1.00, 84.1, 552.6)"></image><path d="M 84.1 552.6 L 184.1 552.6 L 184.1 452.6 L 84.1 452.6 Z M 84.1 552.6 " fill="#1093A4" fill-opacity="0.85"></path></g></g></g></g><g><clipPath id="clip-39166"><path d="M 169.5 563.0 C 189.0 554.8 189.0 541.6 169.5 533.5 C 150.0 525.3 118.3 525.3 98.8 533.5 C 79.3 541.6 79.3 554.8 98.8 563.0 C 118.3 571.1 150.0 571.1 169.5 563.0 Z M 169.5 563.0 "></path></clipPath><g clip-path="url(#clip-39166)"><g><clipPath id="clip-39167"><path d="M 82.6 525.9 L 185.6 525.9 L 185.6 570.6 L 82.6 570.6 Z M 82.6 525.9 "></path></clipPath><g clip-path="url(#clip-39167)"><image xlink:href="../../E032F876-E8E9-4C42-AF2C-93ED8E896D6C/assets/AFF4D1F361AD28AA82012E14045EB299.jpeg" width="128.00" height="128.00" transform="matrix(1.00, 0.00, -0.00, -1.00, 84.1, 569.1)"></image><path d="M 84.1 569.1 L 184.1 569.1 L 184.1 527.4 L 84.1 527.4 Z M 84.1 569.1 " fill="#1093A4" fill-opacity="0.85"></path></g></g></g></g><g><clipPath id="clip-39168"><path d="M 82.6 525.9 L 185.6 525.9 L 185.6 570.6 L 82.6 570.6 Z M 82.6 525.9 "></path></clipPath><g clip-path="url(#clip-39168)"><path d="M 85.4 6.1 C 104.9 14.2 104.9 27.4 85.4 35.6 C 65.8 43.7 34.2 43.7 14.6 35.6 C -4.9 27.4 -4.9 14.2 14.6 6.1 C 34.2 -2.0 65.8 -2.0 85.4 6.1 Z M 85.4 6.1 " fill="none" stroke="#A6AAA8" stroke-width="1.00" transform="matrix(1.00, 0.00, 0.00, -1.00, 84.1, 569.1)"></path></g></g><g><clipPath id="clip-39169"><path d="M 78.2 446.5 L 188.3 446.5 L 188.3 568.8 L 78.2 568.8 Z M 78.2 446.5 "></path></clipPath><g clip-path="url(#clip-39169)"><image xlink:href="../../E032F876-E8E9-4C42-AF2C-93ED8E896D6C/assets/18EBC3A74E6F7292DBD243080D117D0A.png" width="110.00" height="123.00" transform="matrix(1.00, 0.00, -0.00, -1.00, 78.0, 569.0)"></image></g></g><g><clipPath id="clip-39170"><path d="M 280.0 568.0 L 397.0 568.0 L 397.0 415.0 L 280.0 415.0 Z M 280.0 568.0 "></path></clipPath><g clip-path="url(#clip-39170)"><g><clipPath id="clip-39171"><path d="M 288.5 415.0 L 289.5 415.0 L 289.5 568.0 L 288.5 568.0 Z M 288.5 415.0 "></path></clipPath><g clip-path="url(#clip-39171)"><path d="M 10.0 1.0 L 10.0 154.0 " fill="none" stroke="#52575F" stroke-width="1.00" stroke-dasharray="2.0, 2.0" transform="matrix(1.00, 0.00, 0.00, -1.00, 279.0, 569.0)"></path></g></g></g></g><g><clipPath id="clip-39172"><path d="M 280.0 568.0 L 397.0 568.0 L 397.0 415.0 L 280.0 415.0 Z M 280.0 568.0 "></path></clipPath><g clip-path="url(#clip-39172)"><g><clipPath id="clip-39173"><path d="M 297.5 415.0 L 298.5 415.0 L 298.5 568.0 L 297.5 568.0 Z M 297.5 415.0 "></path></clipPath><g clip-path="url(#clip-39173)"><path d="M 19.0 1.0 L 19.0 154.0 " fill="none" stroke="#52575F" stroke-width="1.00" stroke-dasharray="2.0, 2.0" transform="matrix(1.00, 0.00, 0.00, -1.00, 279.0, 569.0)"></path></g></g></g></g><g><clipPath id="clip-39174"><path d="M 280.0 568.0 L 397.0 568.0 L 397.0 415.0 L 280.0 415.0 Z M 280.0 568.0 "></path></clipPath><g clip-path="url(#clip-39174)"><g><clipPath id="clip-39175"><path d="M 306.5 415.0 L 307.5 415.0 L 307.5 568.0 L 306.5 568.0 Z M 306.5 415.0 "></path></clipPath><g clip-path="url(#clip-39175)"><path d="M 28.0 1.0 L 28.0 154.0 " fill="none" stroke="#52575F" stroke-width="1.00" stroke-dasharray="2.0, 2.0" transform="matrix(1.00, 0.00, 0.00, -1.00, 279.0, 569.0)"></path></g></g></g></g><g><clipPath id="clip-39176"><path d="M 280.0 568.0 L 397.0 568.0 L 397.0 415.0 L 280.0 415.0 Z M 280.0 568.0 "></path></clipPath><g clip-path="url(#clip-39176)"><g><clipPath id="clip-39177"><path d="M 315.5 415.0 L 316.5 415.0 L 316.5 568.0 L 315.5 568.0 Z M 315.5 415.0 "></path></clipPath><g clip-path="url(#clip-39177)"><path d="M 37.0 1.0 L 37.0 154.0 " fill="none" stroke="#52575F" stroke-width="1.00" stroke-dasharray="2.0, 2.0" transform="matrix(1.00, 0.00, 0.00, -1.00, 279.0, 569.0)"></path></g></g></g></g><g><clipPath id="clip-39178"><path d="M 280.0 568.0 L 397.0 568.0 L 397.0 415.0 L 280.0 415.0 Z M 280.0 568.0 "></path></clipPath><g clip-path="url(#clip-39178)"><g><clipPath id="clip-39179"><path d="M 324.5 415.0 L 325.5 415.0 L 325.5 568.0 L 324.5 568.0 Z M 324.5 415.0 "></path></clipPath><g clip-path="url(#clip-39179)"><path d="M 46.0 1.0 L 46.0 154.0 " fill="none" stroke="#52575F" stroke-width="1.00" stroke-dasharray="2.0, 2.0" transform="matrix(1.00, 0.00, 0.00, -1.00, 279.0, 569.0)"></path></g></g></g></g><g><clipPath id="clip-39180"><path d="M 280.0 568.0 L 397.0 568.0 L 397.0 415.0 L 280.0 415.0 Z M 280.0 568.0 "></path></clipPath><g clip-path="url(#clip-39180)"><g><clipPath id="clip-39181"><path d="M 333.5 415.0 L 334.5 415.0 L 334.5 568.0 L 333.5 568.0 Z M 333.5 415.0 "></path></clipPath><g clip-path="url(#clip-39181)"><path d="M 55.0 1.0 L 55.0 154.0 " fill="none" stroke="#52575F" stroke-width="1.00" stroke-dasharray="2.0, 2.0" transform="matrix(1.00, 0.00, 0.00, -1.00, 279.0, 569.0)"></path></g></g></g></g><g><clipPath id="clip-39182"><path d="M 280.0 568.0 L 397.0 568.0 L 397.0 415.0 L 280.0 415.0 Z M 280.0 568.0 "></path></clipPath><g clip-path="url(#clip-39182)"><g><clipPath id="clip-39183"><path d="M 342.5 415.0 L 343.5 415.0 L 343.5 568.0 L 342.5 568.0 Z M 342.5 415.0 "></path></clipPath><g clip-path="url(#clip-39183)"><path d="M 64.0 1.0 L 64.0 154.0 " fill="none" stroke="#52575F" stroke-width="1.00" stroke-dasharray="2.0, 2.0" transform="matrix(1.00, 0.00, 0.00, -1.00, 279.0, 569.0)"></path></g></g></g></g><g><clipPath id="clip-39184"><path d="M 280.0 568.0 L 397.0 568.0 L 397.0 415.0 L 280.0 415.0 Z M 280.0 568.0 "></path></clipPath><g clip-path="url(#clip-39184)"><g><clipPath id="clip-39185"><path d="M 351.5 415.0 L 352.5 415.0 L 352.5 568.0 L 351.5 568.0 Z M 351.5 415.0 "></path></clipPath><g clip-path="url(#clip-39185)"><path d="M 73.0 1.0 L 73.0 154.0 " fill="none" stroke="#52575F" stroke-width="1.00" stroke-dasharray="2.0, 2.0" transform="matrix(1.00, 0.00, 0.00, -1.00, 279.0, 569.0)"></path></g></g></g></g><g><clipPath id="clip-39186"><path d="M 280.0 568.0 L 397.0 568.0 L 397.0 415.0 L 280.0 415.0 Z M 280.0 568.0 "></path></clipPath><g clip-path="url(#clip-39186)"><g><clipPath id="clip-39187"><path d="M 360.5 415.0 L 361.5 415.0 L 361.5 568.0 L 360.5 568.0 Z M 360.5 415.0 "></path></clipPath><g clip-path="url(#clip-39187)"><path d="M 82.0 1.0 L 82.0 154.0 " fill="none" stroke="#52575F" stroke-width="1.00" stroke-dasharray="2.0, 2.0" transform="matrix(1.00, 0.00, 0.00, -1.00, 279.0, 569.0)"></path></g></g></g></g><g><clipPath id="clip-39188"><path d="M 280.0 568.0 L 397.0 568.0 L 397.0 415.0 L 280.0 415.0 Z M 280.0 568.0 "></path></clipPath><g clip-path="url(#clip-39188)"><g><clipPath id="clip-39189"><path d="M 369.5 415.0 L 370.5 415.0 L 370.5 568.0 L 369.5 568.0 Z M 369.5 415.0 "></path></clipPath><g clip-path="url(#clip-39189)"><path d="M 91.0 1.0 L 91.0 154.0 " fill="none" stroke="#52575F" stroke-width="1.00" stroke-dasharray="2.0, 2.0" transform="matrix(1.00, 0.00, 0.00, -1.00, 279.0, 569.0)"></path></g></g></g></g><g><clipPath id="clip-39190"><path d="M 280.0 568.0 L 397.0 568.0 L 397.0 415.0 L 280.0 415.0 Z M 280.0 568.0 "></path></clipPath><g clip-path="url(#clip-39190)"><g><clipPath id="clip-39191"><path d="M 378.5 415.0 L 379.5 415.0 L 379.5 568.0 L 378.5 568.0 Z M 378.5 415.0 "></path></clipPath><g clip-path="url(#clip-39191)"><path d="M 100.0 1.0 L 100.0 154.0 " fill="none" stroke="#52575F" stroke-width="1.00" stroke-dasharray="2.0, 2.0" transform="matrix(1.00, 0.00, 0.00, -1.00, 279.0, 569.0)"></path></g></g></g></g><g><clipPath id="clip-39192"><path d="M 280.0 568.0 L 397.0 568.0 L 397.0 415.0 L 280.0 415.0 Z M 280.0 568.0 "></path></clipPath><g clip-path="url(#clip-39192)"><g><clipPath id="clip-39193"><path d="M 387.5 415.0 L 388.5 415.0 L 388.5 568.0 L 387.5 568.0 Z M 387.5 415.0 "></path></clipPath><g clip-path="url(#clip-39193)"><path d="M 109.0 1.0 L 109.0 154.0 " fill="none" stroke="#52575F" stroke-width="1.00" stroke-dasharray="2.0, 2.0" transform="matrix(1.00, 0.00, 0.00, -1.00, 279.0, 569.0)"></path></g></g></g></g><g><clipPath id="clip-39194"><path d="M 280.0 568.0 L 397.0 568.0 L 397.0 415.0 L 280.0 415.0 Z M 280.0 568.0 "></path></clipPath><g clip-path="url(#clip-39194)"><g><clipPath id="clip-39195"><path d="M 280.0 558.5 L 397.0 558.5 L 397.0 559.5 L 280.0 559.5 Z M 280.0 558.5 "></path></clipPath><g clip-path="url(#clip-39195)"><path d="M 1.0 10.0 L 118.0 10.0 " fill="none" stroke="#52575F" stroke-width="1.00" stroke-dasharray="2.0, 2.0" transform="matrix(1.00, 0.00, 0.00, -1.00, 279.0, 569.0)"></path></g></g></g></g><g><clipPath id="clip-39196"><path d="M 280.0 568.0 L 397.0 568.0 L 397.0 415.0 L 280.0 415.0 Z M 280.0 568.0 "></path></clipPath><g clip-path="url(#clip-39196)"><g><clipPath id="clip-39197"><path d="M 280.0 549.5 L 397.0 549.5 L 397.0 550.5 L 280.0 550.5 Z M 280.0 549.5 "></path></clipPath><g clip-path="url(#clip-39197)"><path d="M 1.0 19.0 L 118.0 19.0 " fill="none" stroke="#52575F" stroke-width="1.00" stroke-dasharray="2.0, 2.0" transform="matrix(1.00, 0.00, 0.00, -1.00, 279.0, 569.0)"></path></g></g></g></g><g><clipPath id="clip-39198"><path d="M 280.0 568.0 L 397.0 568.0 L 397.0 415.0 L 280.0 415.0 Z M 280.0 568.0 "></path></clipPath><g clip-path="url(#clip-39198)"><g><clipPath id="clip-39199"><path d="M 280.0 540.5 L 397.0 540.5 L 397.0 541.5 L 280.0 541.5 Z M 280.0 540.5 "></path></clipPath><g clip-path="url(#clip-39199)"><path d="M 1.0 28.0 L 118.0 28.0 " fill="none" stroke="#52575F" stroke-width="1.00" stroke-dasharray="2.0, 2.0" transform="matrix(1.00, 0.00, 0.00, -1.00, 279.0, 569.0)"></path></g></g></g></g><g><clipPath id="clip-39200"><path d="M 280.0 568.0 L 397.0 568.0 L 397.0 415.0 L 280.0 415.0 Z M 280.0 568.0 "></path></clipPath><g clip-path="url(#clip-39200)"><g><clipPath id="clip-39201"><path d="M 280.0 531.5 L 397.0 531.5 L 397.0 532.5 L 280.0 532.5 Z M 280.0 531.5 "></path></clipPath><g clip-path="url(#clip-39201)"><path d="M 1.0 37.0 L 118.0 37.0 " fill="none" stroke="#52575F" stroke-width="1.00" stroke-dasharray="2.0, 2.0" transform="matrix(1.00, 0.00, 0.00, -1.00, 279.0, 569.0)"></path></g></g></g></g><g><clipPath id="clip-39202"><path d="M 280.0 568.0 L 397.0 568.0 L 397.0 415.0 L 280.0 415.0 Z M 280.0 568.0 "></path></clipPath><g clip-path="url(#clip-39202)"><g><clipPath id="clip-39203"><path d="M 280.0 522.5 L 397.0 522.5 L 397.0 523.5 L 280.0 523.5 Z M 280.0 522.5 "></path></clipPath><g clip-path="url(#clip-39203)"><path d="M 1.0 46.0 L 118.0 46.0 " fill="none" stroke="#52575F" stroke-width="1.00" stroke-dasharray="2.0, 2.0" transform="matrix(1.00, 0.00, 0.00, -1.00, 279.0, 569.0)"></path></g></g></g></g><g><clipPath id="clip-39204"><path d="M 280.0 568.0 L 397.0 568.0 L 397.0 415.0 L 280.0 415.0 Z M 280.0 568.0 "></path></clipPath><g clip-path="url(#clip-39204)"><g><clipPath id="clip-39205"><path d="M 280.0 513.5 L 397.0 513.5 L 397.0 514.5 L 280.0 514.5 Z M 280.0 513.5 "></path></clipPath><g clip-path="url(#clip-39205)"><path d="M 1.0 55.0 L 118.0 55.0 " fill="none" stroke="#52575F" stroke-width="1.00" stroke-dasharray="2.0, 2.0" transform="matrix(1.00, 0.00, 0.00, -1.00, 279.0, 569.0)"></path></g></g></g></g><g><clipPath id="clip-39206"><path d="M 280.0 568.0 L 397.0 568.0 L 397.0 415.0 L 280.0 415.0 Z M 280.0 568.0 "></path></clipPath><g clip-path="url(#clip-39206)"><g><clipPath id="clip-39207"><path d="M 280.0 504.5 L 397.0 504.5 L 397.0 505.5 L 280.0 505.5 Z M 280.0 504.5 "></path></clipPath><g clip-path="url(#clip-39207)"><path d="M 1.0 64.0 L 118.0 64.0 " fill="none" stroke="#52575F" stroke-width="1.00" stroke-dasharray="2.0, 2.0" transform="matrix(1.00, 0.00, 0.00, -1.00, 279.0, 569.0)"></path></g></g></g></g><g><clipPath id="clip-39208"><path d="M 280.0 568.0 L 397.0 568.0 L 397.0 415.0 L 280.0 415.0 Z M 280.0 568.0 "></path></clipPath><g clip-path="url(#clip-39208)"><g><clipPath id="clip-39209"><path d="M 280.0 495.5 L 397.0 495.5 L 397.0 496.5 L 280.0 496.5 Z M 280.0 495.5 "></path></clipPath><g clip-path="url(#clip-39209)"><path d="M 1.0 73.0 L 118.0 73.0 " fill="none" stroke="#52575F" stroke-width="1.00" stroke-dasharray="2.0, 2.0" transform="matrix(1.00, 0.00, 0.00, -1.00, 279.0, 569.0)"></path></g></g></g></g><g><clipPath id="clip-39210"><path d="M 280.0 568.0 L 397.0 568.0 L 397.0 415.0 L 280.0 415.0 Z M 280.0 568.0 "></path></clipPath><g clip-path="url(#clip-39210)"><g><clipPath id="clip-39211"><path d="M 280.0 486.5 L 397.0 486.5 L 397.0 487.5 L 280.0 487.5 Z M 280.0 486.5 "></path></clipPath><g clip-path="url(#clip-39211)"><path d="M 1.0 82.0 L 118.0 82.0 " fill="none" stroke="#52575F" stroke-width="1.00" stroke-dasharray="2.0, 2.0" transform="matrix(1.00, 0.00, 0.00, -1.00, 279.0, 569.0)"></path></g></g></g></g><g><clipPath id="clip-39212"><path d="M 280.0 568.0 L 397.0 568.0 L 397.0 415.0 L 280.0 415.0 Z M 280.0 568.0 "></path></clipPath><g clip-path="url(#clip-39212)"><g><clipPath id="clip-39213"><path d="M 280.0 477.5 L 397.0 477.5 L 397.0 478.5 L 280.0 478.5 Z M 280.0 477.5 "></path></clipPath><g clip-path="url(#clip-39213)"><path d="M 1.0 91.0 L 118.0 91.0 " fill="none" stroke="#52575F" stroke-width="1.00" stroke-dasharray="2.0, 2.0" transform="matrix(1.00, 0.00, 0.00, -1.00, 279.0, 569.0)"></path></g></g></g></g><g><clipPath id="clip-39214"><path d="M 280.0 568.0 L 397.0 568.0 L 397.0 415.0 L 280.0 415.0 Z M 280.0 568.0 "></path></clipPath><g clip-path="url(#clip-39214)"><g><clipPath id="clip-39215"><path d="M 280.0 468.5 L 397.0 468.5 L 397.0 469.5 L 280.0 469.5 Z M 280.0 468.5 "></path></clipPath><g clip-path="url(#clip-39215)"><path d="M 1.0 100.0 L 118.0 100.0 " fill="none" stroke="#52575F" stroke-width="1.00" stroke-dasharray="2.0, 2.0" transform="matrix(1.00, 0.00, 0.00, -1.00, 279.0, 569.0)"></path></g></g></g></g><g><clipPath id="clip-39216"><path d="M 280.0 568.0 L 397.0 568.0 L 397.0 415.0 L 280.0 415.0 Z M 280.0 568.0 "></path></clipPath><g clip-path="url(#clip-39216)"><g><clipPath id="clip-39217"><path d="M 280.0 459.5 L 397.0 459.5 L 397.0 460.5 L 280.0 460.5 Z M 280.0 459.5 "></path></clipPath><g clip-path="url(#clip-39217)"><path d="M 1.0 109.0 L 118.0 109.0 " fill="none" stroke="#52575F" stroke-width="1.00" stroke-dasharray="2.0, 2.0" transform="matrix(1.00, 0.00, 0.00, -1.00, 279.0, 569.0)"></path></g></g></g></g><g><clipPath id="clip-39218"><path d="M 280.0 568.0 L 397.0 568.0 L 397.0 415.0 L 280.0 415.0 Z M 280.0 568.0 "></path></clipPath><g clip-path="url(#clip-39218)"><g><clipPath id="clip-39219"><path d="M 280.0 450.5 L 397.0 450.5 L 397.0 451.5 L 280.0 451.5 Z M 280.0 450.5 "></path></clipPath><g clip-path="url(#clip-39219)"><path d="M 1.0 118.0 L 118.0 118.0 " fill="none" stroke="#52575F" stroke-width="1.00" stroke-dasharray="2.0, 2.0" transform="matrix(1.00, 0.00, 0.00, -1.00, 279.0, 569.0)"></path></g></g></g></g><g><clipPath id="clip-39220"><path d="M 280.0 568.0 L 397.0 568.0 L 397.0 415.0 L 280.0 415.0 Z M 280.0 568.0 "></path></clipPath><g clip-path="url(#clip-39220)"><g><clipPath id="clip-39221"><path d="M 280.0 441.5 L 397.0 441.5 L 397.0 442.5 L 280.0 442.5 Z M 280.0 441.5 "></path></clipPath><g clip-path="url(#clip-39221)"><path d="M 1.0 127.0 L 118.0 127.0 " fill="none" stroke="#52575F" stroke-width="1.00" stroke-dasharray="2.0, 2.0" transform="matrix(1.00, 0.00, 0.00, -1.00, 279.0, 569.0)"></path></g></g></g></g><g><clipPath id="clip-39222"><path d="M 280.0 568.0 L 397.0 568.0 L 397.0 415.0 L 280.0 415.0 Z M 280.0 568.0 "></path></clipPath><g clip-path="url(#clip-39222)"><g><clipPath id="clip-39223"><path d="M 280.0 432.5 L 397.0 432.5 L 397.0 433.5 L 280.0 433.5 Z M 280.0 432.5 "></path></clipPath><g clip-path="url(#clip-39223)"><path d="M 1.0 136.0 L 118.0 136.0 " fill="none" stroke="#52575F" stroke-width="1.00" stroke-dasharray="2.0, 2.0" transform="matrix(1.00, 0.00, 0.00, -1.00, 279.0, 569.0)"></path></g></g></g></g><g><clipPath id="clip-39224"><path d="M 280.0 568.0 L 397.0 568.0 L 397.0 415.0 L 280.0 415.0 Z M 280.0 568.0 "></path></clipPath><g clip-path="url(#clip-39224)"><g><clipPath id="clip-39225"><path d="M 280.0 423.5 L 397.0 423.5 L 397.0 424.5 L 280.0 424.5 Z M 280.0 423.5 "></path></clipPath><g clip-path="url(#clip-39225)"><path d="M 1.0 145.0 L 118.0 145.0 " fill="none" stroke="#52575F" stroke-width="1.00" stroke-dasharray="2.0, 2.0" transform="matrix(1.00, 0.00, 0.00, -1.00, 279.0, 569.0)"></path></g></g></g></g><image xlink:href="../../E032F876-E8E9-4C42-AF2C-93ED8E896D6C/assets/15EE3C20513621AFF0785F295453E611.png" width="12.00" height="11.00" transform="matrix(1.00, 0.00, -0.00, -1.00, 313.0, 469.0)"></image><image xlink:href="../../E032F876-E8E9-4C42-AF2C-93ED8E896D6C/assets/D59024D7C3C0809BAD52C011AF8FF8AD.png" width="12.00" height="10.00" transform="matrix(1.00, 0.00, -0.00, -1.10, 313.0, 479.0)"></image><image xlink:href="../../E032F876-E8E9-4C42-AF2C-93ED8E896D6C/assets/7BF868126371516F35EE24CF67107A29.png" width="12.00" height="11.00" transform="matrix(0.92, 0.00, -0.00, -1.00, 324.0, 479.0)"></image><image xlink:href="../../E032F876-E8E9-4C42-AF2C-93ED8E896D6C/assets/7BF868126371516F35EE24CF67107A29.png" width="12.00" height="11.00" transform="matrix(1.00, 0.00, -0.00, -1.00, 313.0, 489.0)"></image><image xlink:href="../../E032F876-E8E9-4C42-AF2C-93ED8E896D6C/assets/D59024D7C3C0809BAD52C011AF8FF8AD.png" width="12.00" height="10.00" transform="matrix(1.00, 0.00, -0.00, -1.10, 323.0, 469.0)"></image><image xlink:href="../../E032F876-E8E9-4C42-AF2C-93ED8E896D6C/assets/D59024D7C3C0809BAD52C011AF8FF8AD.png" width="12.00" height="10.00" transform="matrix(1.00, 0.00, -0.00, -1.10, 358.0, 448.0)"></image><image xlink:href="../../E032F876-E8E9-4C42-AF2C-93ED8E896D6C/assets/7BF868126371516F35EE24CF67107A29.png" width="12.00" height="11.00" transform="matrix(0.92, 0.00, -0.00, -1.00, 286.0, 448.0)"></image><image xlink:href="../../E032F876-E8E9-4C42-AF2C-93ED8E896D6C/assets/7BF868126371516F35EE24CF67107A29.png" width="12.00" height="11.00" transform="matrix(0.92, 0.00, -0.00, -1.00, 297.0, 448.0)"></image><g><clipPath id="clip-39226"><path d="M 365.7 148.4 C 385.2 140.3 385.2 127.1 365.7 118.9 C 346.1 110.8 314.5 110.8 295.0 118.9 C 275.4 127.1 275.4 140.3 295.0 148.4 C 314.5 156.5 346.1 156.5 365.7 148.4 Z M 365.7 148.4 "></path></clipPath><g clip-path="url(#clip-39226)"><g><clipPath id="clip-39227"><path d="M 279.3 111.8 L 381.3 111.8 L 381.3 155.5 L 279.3 155.5 Z M 279.3 111.8 "></path></clipPath><g clip-path="url(#clip-39227)"><image xlink:href="../../E032F876-E8E9-4C42-AF2C-93ED8E896D6C/assets/AFF4D1F361AD28AA82012E14045EB299.jpeg" width="128.00" height="128.00" transform="matrix(1.00, 0.00, -0.00, -1.00, 280.3, 154.5)"></image><path d="M 280.3 154.5 L 380.3 154.5 L 380.3 112.8 L 280.3 112.8 Z M 280.3 154.5 " fill="#1093A4" fill-opacity="0.85"></path></g></g></g></g><g><clipPath id="clip-39228"><path d="M 280.3 231.7 L 380.3 231.7 L 380.3 131.7 L 280.3 131.7 Z M 280.3 231.7 "></path></clipPath><g clip-path="url(#clip-39228)"><g><clipPath id="clip-39229"><path d="M 279.3 130.7 L 381.3 130.7 L 381.3 232.7 L 279.3 232.7 Z M 279.3 130.7 "></path></clipPath><g clip-path="url(#clip-39229)"><image xlink:href="../../E032F876-E8E9-4C42-AF2C-93ED8E896D6C/assets/AFF4D1F361AD28AA82012E14045EB299.jpeg" width="128.00" height="128.00" transform="matrix(1.00, 0.00, -0.00, -1.00, 280.3, 231.7)"></image><path d="M 280.3 231.7 L 380.3 231.7 L 380.3 131.7 L 280.3 131.7 Z M 280.3 231.7 " fill="#1093A4" fill-opacity="0.85"></path></g></g></g></g><g><clipPath id="clip-39230"><path d="M 365.7 242.0 C 385.2 233.9 385.2 220.7 365.7 212.5 C 346.1 204.4 314.5 204.4 295.0 212.5 C 275.4 220.7 275.4 233.9 295.0 242.0 C 314.5 250.1 346.1 250.1 365.7 242.0 Z M 365.7 242.0 "></path></clipPath><g clip-path="url(#clip-39230)"><g><clipPath id="clip-39231"><path d="M 278.8 204.9 L 381.8 204.9 L 381.8 249.6 L 278.8 249.6 Z M 278.8 204.9 "></path></clipPath><g clip-path="url(#clip-39231)"><image xlink:href="../../E032F876-E8E9-4C42-AF2C-93ED8E896D6C/assets/AFF4D1F361AD28AA82012E14045EB299.jpeg" width="128.00" height="128.00" transform="matrix(1.00, 0.00, -0.00, -1.00, 280.3, 248.1)"></image><path d="M 280.3 248.1 L 380.3 248.1 L 380.3 206.4 L 280.3 206.4 Z M 280.3 248.1 " fill="#1093A4" fill-opacity="0.85"></path></g></g></g></g><g><clipPath id="clip-39232"><path d="M 278.8 204.9 L 381.8 204.9 L 381.8 249.6 L 278.8 249.6 Z M 278.8 204.9 "></path></clipPath><g clip-path="url(#clip-39232)"><path d="M 85.4 6.1 C 104.9 14.2 104.9 27.4 85.4 35.6 C 65.8 43.7 34.2 43.7 14.6 35.6 C -4.9 27.4 -4.9 14.2 14.6 6.1 C 34.2 -2.0 65.8 -2.0 85.4 6.1 Z M 85.4 6.1 " fill="none" stroke="#A6AAA8" stroke-width="1.00" transform="matrix(1.00, 0.00, 0.00, -1.00, 280.3, 248.1)"></path></g></g><g><clipPath id="clip-39233"><path d="M 274.4 125.5 L 384.5 125.5 L 384.5 247.8 L 274.4 247.8 Z M 274.4 125.5 "></path></clipPath><g clip-path="url(#clip-39233)"><image xlink:href="../../E032F876-E8E9-4C42-AF2C-93ED8E896D6C/assets/18EBC3A74E6F7292DBD243080D117D0A.png" width="110.00" height="123.00" transform="matrix(1.01, 0.00, -0.00, -1.00, 274.0, 248.0)"></image></g></g><g><clipPath id="clip-39234"><path d="M 768.8 148.4 C 788.3 140.3 788.3 127.1 768.8 118.9 C 749.3 110.8 717.6 110.8 698.1 118.9 C 678.6 127.1 678.6 140.3 698.1 148.4 C 717.6 156.5 749.3 156.5 768.8 148.4 Z M 768.8 148.4 "></path></clipPath><g clip-path="url(#clip-39234)"><g><clipPath id="clip-39235"><path d="M 682.4 111.8 L 784.4 111.8 L 784.4 155.5 L 682.4 155.5 Z M 682.4 111.8 "></path></clipPath><g clip-path="url(#clip-39235)"><image xlink:href="../../E032F876-E8E9-4C42-AF2C-93ED8E896D6C/assets/AFF4D1F361AD28AA82012E14045EB299.jpeg" width="128.00" height="128.00" transform="matrix(1.00, 0.00, -0.00, -1.00, 683.4, 154.5)"></image><path d="M 683.4 154.5 L 783.4 154.5 L 783.4 112.8 L 683.4 112.8 Z M 683.4 154.5 " fill="#1093A4" fill-opacity="0.85"></path></g></g></g></g><g><clipPath id="clip-39236"><path d="M 683.4 231.7 L 783.4 231.7 L 783.4 131.7 L 683.4 131.7 Z M 683.4 231.7 "></path></clipPath><g clip-path="url(#clip-39236)"><g><clipPath id="clip-39237"><path d="M 682.4 130.7 L 784.4 130.7 L 784.4 232.7 L 682.4 232.7 Z M 682.4 130.7 "></path></clipPath><g clip-path="url(#clip-39237)"><image xlink:href="../../E032F876-E8E9-4C42-AF2C-93ED8E896D6C/assets/AFF4D1F361AD28AA82012E14045EB299.jpeg" width="128.00" height="128.00" transform="matrix(1.00, 0.00, -0.00, -1.00, 683.4, 231.7)"></image><path d="M 683.4 231.7 L 783.4 231.7 L 783.4 131.7 L 683.4 131.7 Z M 683.4 231.7 " fill="#1093A4" fill-opacity="0.85"></path></g></g></g></g><g><clipPath id="clip-39238"><path d="M 768.8 242.0 C 788.3 233.9 788.3 220.7 768.8 212.5 C 749.3 204.4 717.6 204.4 698.1 212.5 C 678.6 220.7 678.6 233.9 698.1 242.0 C 717.6 250.1 749.3 250.1 768.8 242.0 Z M 768.8 242.0 "></path></clipPath><g clip-path="url(#clip-39238)"><g><clipPath id="clip-39239"><path d="M 681.9 204.9 L 784.9 204.9 L 784.9 249.6 L 681.9 249.6 Z M 681.9 204.9 "></path></clipPath><g clip-path="url(#clip-39239)"><image xlink:href="../../E032F876-E8E9-4C42-AF2C-93ED8E896D6C/assets/AFF4D1F361AD28AA82012E14045EB299.jpeg" width="128.00" height="128.00" transform="matrix(1.00, 0.00, -0.00, -1.00, 683.4, 248.1)"></image><path d="M 683.4 248.1 L 783.4 248.1 L 783.4 206.4 L 683.4 206.4 Z M 683.4 248.1 " fill="#1093A4" fill-opacity="0.85"></path></g></g></g></g><g><clipPath id="clip-39240"><path d="M 681.9 204.9 L 784.9 204.9 L 784.9 249.6 L 681.9 249.6 Z M 681.9 204.9 "></path></clipPath><g clip-path="url(#clip-39240)"><path d="M 85.4 6.1 C 104.9 14.2 104.9 27.4 85.4 35.6 C 65.8 43.7 34.2 43.7 14.6 35.6 C -4.9 27.4 -4.9 14.2 14.6 6.1 C 34.2 -2.0 65.8 -2.0 85.4 6.1 Z M 85.4 6.1 " fill="none" stroke="#A6AAA8" stroke-width="1.00" transform="matrix(1.00, 0.00, 0.00, -1.00, 683.4, 248.1)"></path></g></g><g><clipPath id="clip-39241"><path d="M 677.5 125.5 L 787.6 125.5 L 787.6 247.8 L 677.5 247.8 Z M 677.5 125.5 "></path></clipPath><g clip-path="url(#clip-39241)"><image xlink:href="../../E032F876-E8E9-4C42-AF2C-93ED8E896D6C/assets/18EBC3A74E6F7292DBD243080D117D0A.png" width="110.00" height="123.00" transform="matrix(1.00, 0.00, -0.00, -1.00, 678.0, 248.0)"></image></g></g><path d="M 0.0 11.4 C 31.0 -1.6 61.5 -3.5 91.5 5.8 L 92.4 6.1 " fill="none" stroke="#000000" stroke-width="2.00" transform="matrix(1.00, 0.00, 0.00, -1.00, 178.2, 539.1)"></path><path d="M 268.1 528.8 L 278.8 530.2 L 271.3 537.8 Z M 268.1 528.8 " fill="#000000"></path><text xml:space="preserve" font-family="Helvetica-Bold" font-weight="bold" font-size="36.0" fill="#000000" transform="matrix(1.00, 0.00, -0.00, -1.00, 371.0, 697.0)">R</text><text xml:space="preserve" font-family="Helvetica-Bold" font-weight="bold" font-size="36.0" fill="#000000" transform="matrix(1.00, 0.00, -0.00, -1.00, 397.0, 697.0)">e</text><text xml:space="preserve" font-family="Helvetica-Bold" font-weight="bold" font-size="36.0" fill="#000000" transform="matrix(1.00, 0.00, -0.00, -1.00, 417.0, 697.0)">p</text><text xml:space="preserve" font-family="Helvetica-Bold" font-weight="bold" font-size="36.0" fill="#000000" transform="matrix(1.00, 0.00, -0.00, -1.00, 439.0, 697.0)">l</text><text xml:space="preserve" font-family="Helvetica-Bold" font-weight="bold" font-size="36.0" fill="#000000" transform="matrix(1.00, 0.00, -0.00, -1.00, 449.0, 697.0)">i</text><text xml:space="preserve" font-family="Helvetica-Bold" font-weight="bold" font-size="36.0" fill="#000000" transform="matrix(1.00, 0.00, -0.00, -1.00, 459.0, 697.0)">c</text><text xml:space="preserve" font-family="Helvetica-Bold" font-weight="bold" font-size="36.0" fill="#000000" transform="matrix(1.00, 0.00, -0.00, -1.00, 479.0, 697.0)">a</text><text xml:space="preserve" font-family="Helvetica-Bold" font-weight="bold" font-size="36.0" fill="#000000" transform="matrix(1.00, 0.00, -0.00, -1.00, 499.1, 697.0)">t</text><text xml:space="preserve" font-family="Helvetica-Bold" font-weight="bold" font-size="36.0" fill="#000000" transform="matrix(1.00, 0.00, -0.00, -1.00, 511.1, 697.0)">i</text><text xml:space="preserve" font-family="Helvetica-Bold" font-weight="bold" font-size="36.0" fill="#000000" transform="matrix(1.00, 0.00, -0.00, -1.00, 521.0, 697.0)">n</text><text xml:space="preserve" font-family="Helvetica-Bold" font-weight="bold" font-size="36.0" fill="#000000" transform="matrix(1.00, 0.00, -0.00, -1.00, 543.0, 697.0)">g</text><text xml:space="preserve" font-family="Helvetica-Bold" font-weight="bold" font-size="36.0" fill="#000000" transform="matrix(1.00, 0.00, -0.00, -1.00, 565.0, 697.0)"> </text><text xml:space="preserve" font-family="Helvetica-Bold" font-weight="bold" font-size="36.0" fill="#000000" transform="matrix(1.00, 0.00, -0.00, -1.00, 575.0, 697.0)">D</text><text xml:space="preserve" font-family="Helvetica-Bold" font-weight="bold" font-size="36.0" fill="#000000" transform="matrix(1.00, 0.00, -0.00, -1.00, 601.0, 697.0)">a</text><text xml:space="preserve" font-family="Helvetica-Bold" font-weight="bold" font-size="36.0" fill="#000000" transform="matrix(1.00, 0.00, -0.00, -1.00, 621.1, 697.0)">t</text><text xml:space="preserve" font-family="Helvetica-Bold" font-weight="bold" font-size="36.0" fill="#000000" transform="matrix(1.00, 0.00, -0.00, -1.00, 633.1, 697.0)">a</text><text xml:space="preserve" font-family="Helvetica-Light" font-size="36.0" fill="#000000" transform="matrix(1.00, 0.00, -0.00, -1.00, 191.0, 643.0)">D</text><text xml:space="preserve" font-family="Helvetica-Light" font-size="36.0" fill="#000000" transform="matrix(1.00, 0.00, -0.00, -1.00, 217.0, 643.0)">a</text><text xml:space="preserve" font-family="Helvetica-Light" font-size="36.0" fill="#000000" transform="matrix(1.00, 0.00, -0.00, -1.00, 237.0, 643.0)">t</text><text xml:space="preserve" font-family="Helvetica-Light" font-size="36.0" fill="#000000" transform="matrix(1.00, 0.00, -0.00, -1.00, 247.0, 643.0)">a</text><text xml:space="preserve" font-family="Helvetica-Light" font-size="36.0" fill="#000000" transform="matrix(1.00, 0.00, -0.00, -1.00, 267.0, 643.0)">b</text><text xml:space="preserve" font-family="Helvetica-Light" font-size="36.0" fill="#000000" transform="matrix(1.00, 0.00, -0.00, -1.00, 289.0, 643.0)">a</text><text xml:space="preserve" font-family="Helvetica-Light" font-size="36.0" fill="#000000" transform="matrix(1.00, 0.00, -0.00, -1.00, 309.0, 643.0)">s</text><text xml:space="preserve" font-family="Helvetica-Light" font-size="36.0" fill="#000000" transform="matrix(1.00, 0.00, -0.00, -1.00, 327.0, 643.0)">e</text><text xml:space="preserve" font-family="Helvetica-Light" font-size="36.0" fill="#000000" transform="matrix(1.00, 0.00, -0.00, -1.00, 347.1, 643.0)"> </text><text xml:space="preserve" font-family="Helvetica-Light" font-size="36.0" fill="#000000" transform="matrix(1.00, 0.00, -0.00, -1.00, 357.1, 643.0)">R</text><text xml:space="preserve" font-family="Helvetica-Light" font-size="36.0" fill="#000000" transform="matrix(1.00, 0.00, -0.00, -1.00, 381.1, 643.0)">e</text><text xml:space="preserve" font-family="Helvetica-Light" font-size="36.0" fill="#000000" transform="matrix(1.00, 0.00, -0.00, -1.00, 401.1, 643.0)">p</text><text xml:space="preserve" font-family="Helvetica-Light" font-size="36.0" fill="#000000" transform="matrix(1.00, 0.00, -0.00, -1.00, 423.1, 643.0)">l</text><text xml:space="preserve" font-family="Helvetica-Light" font-size="36.0" fill="#000000" transform="matrix(1.00, 0.00, -0.00, -1.00, 431.1, 643.0)">i</text><text xml:space="preserve" font-family="Helvetica-Light" font-size="36.0" fill="#000000" transform="matrix(1.00, 0.00, -0.00, -1.00, 439.1, 643.0)">c</text><text xml:space="preserve" font-family="Helvetica-Light" font-size="36.0" fill="#000000" transform="matrix(1.00, 0.00, -0.00, -1.00, 459.1, 643.0)">a</text><text xml:space="preserve" font-family="Helvetica-Light" font-size="36.0" fill="#000000" transform="matrix(1.00, 0.00, -0.00, -1.00, 479.1, 643.0)">t</text><text xml:space="preserve" font-family="Helvetica-Light" font-size="36.0" fill="#000000" transform="matrix(1.00, 0.00, -0.00, -1.00, 489.1, 643.0)">i</text><text xml:space="preserve" font-family="Helvetica-Light" font-size="36.0" fill="#000000" transform="matrix(1.00, 0.00, -0.00, -1.00, 497.1, 643.0)">o</text><text xml:space="preserve" font-family="Helvetica-Light" font-size="36.0" fill="#000000" transform="matrix(1.00, 0.00, -0.00, -1.00, 517.1, 643.0)">n</text><text xml:space="preserve" font-family="Helvetica-Light" font-size="36.0" fill="#000000" transform="matrix(1.00, 0.00, -0.00, -1.00, 537.1, 643.0)"> </text><text xml:space="preserve" font-family="Helvetica-Light" font-size="36.0" fill="#000000" transform="matrix(1.00, 0.00, -0.00, -1.00, 547.1, 643.0)">g</text><text xml:space="preserve" font-family="Helvetica-Light" font-size="36.0" fill="#000000" transform="matrix(1.00, 0.00, -0.00, -1.00, 569.1, 643.0)">e</text><text xml:space="preserve" font-family="Helvetica-Light" font-size="36.0" fill="#000000" transform="matrix(1.00, 0.00, -0.00, -1.00, 589.2, 643.0)">t</text><text xml:space="preserve" font-family="Helvetica-Light" font-size="36.0" fill="#000000" transform="matrix(1.00, 0.00, -0.00, -1.00, 599.2, 643.0)">s</text><text xml:space="preserve" font-family="Helvetica-Light" font-size="36.0" fill="#000000" transform="matrix(1.00, 0.00, -0.00, -1.00, 617.2, 643.0)"> </text><text xml:space="preserve" font-family="Helvetica-Light" font-size="36.0" fill="#000000" transform="matrix(1.00, 0.00, -0.00, -1.00, 627.2, 643.0)">C</text><text xml:space="preserve" font-family="Helvetica-Light" font-size="36.0" fill="#000000" transform="matrix(1.00, 0.00, -0.00, -1.00, 653.2, 643.0)">o</text><text xml:space="preserve" font-family="Helvetica-Light" font-size="36.0" fill="#000000" transform="matrix(1.00, 0.00, -0.00, -1.00, 673.2, 643.0)">m</text><text xml:space="preserve" font-family="Helvetica-Light" font-size="36.0" fill="#000000" transform="matrix(1.00, 0.00, -0.00, -1.00, 703.2, 643.0)">p</text><text xml:space="preserve" font-family="Helvetica-Light" font-size="36.0" fill="#000000" transform="matrix(1.00, 0.00, -0.00, -1.00, 725.2, 643.0)">l</text><text xml:space="preserve" font-family="Helvetica-Light" font-size="36.0" fill="#000000" transform="matrix(1.00, 0.00, -0.00, -1.00, 733.2, 643.0)">i</text><text xml:space="preserve" font-family="Helvetica-Light" font-size="36.0" fill="#000000" transform="matrix(1.00, 0.00, -0.00, -1.00, 741.2, 643.0)">c</text><text xml:space="preserve" font-family="Helvetica-Light" font-size="36.0" fill="#000000" transform="matrix(1.00, 0.00, -0.00, -1.00, 761.2, 643.0)">a</text><text xml:space="preserve" font-family="Helvetica-Light" font-size="36.0" fill="#000000" transform="matrix(1.00, 0.00, -0.00, -1.00, 781.2, 643.0)">t</text><text xml:space="preserve" font-family="Helvetica-Light" font-size="36.0" fill="#000000" transform="matrix(1.00, 0.00, -0.00, -1.00, 791.2, 643.0)">e</text><text xml:space="preserve" font-family="Helvetica-Light" font-size="36.0" fill="#000000" transform="matrix(1.00, 0.00, -0.00, -1.00, 811.2, 643.0)">d</text><g><clipPath id="clip-39242"><path d="M 567.2 148.4 C 586.8 140.3 586.8 127.1 567.2 118.9 C 547.7 110.8 516.0 110.8 496.5 118.9 C 477.0 127.1 477.0 140.3 496.5 148.4 C 516.0 156.5 547.7 156.5 567.2 148.4 Z M 567.2 148.4 "></path></clipPath><g clip-path="url(#clip-39242)"><g><clipPath id="clip-39243"><path d="M 480.9 111.8 L 582.9 111.8 L 582.9 155.5 L 480.9 155.5 Z M 480.9 111.8 "></path></clipPath><g clip-path="url(#clip-39243)"><image xlink:href="../../E032F876-E8E9-4C42-AF2C-93ED8E896D6C/assets/AFF4D1F361AD28AA82012E14045EB299.jpeg" width="128.00" height="128.00" transform="matrix(1.00, 0.00, -0.00, -1.00, 481.9, 154.5)"></image><path d="M 481.9 154.5 L 581.9 154.5 L 581.9 112.8 L 481.9 112.8 Z M 481.9 154.5 " fill="#1093A4" fill-opacity="0.85"></path></g></g></g></g><g><clipPath id="clip-39244"><path d="M 481.9 231.7 L 581.9 231.7 L 581.9 131.7 L 481.9 131.7 Z M 481.9 231.7 "></path></clipPath><g clip-path="url(#clip-39244)"><g><clipPath id="clip-39245"><path d="M 480.9 130.7 L 582.9 130.7 L 582.9 232.7 L 480.9 232.7 Z M 480.9 130.7 "></path></clipPath><g clip-path="url(#clip-39245)"><image xlink:href="../../E032F876-E8E9-4C42-AF2C-93ED8E896D6C/assets/AFF4D1F361AD28AA82012E14045EB299.jpeg" width="128.00" height="128.00" transform="matrix(1.00, 0.00, -0.00, -1.00, 481.9, 231.7)"></image><path d="M 481.9 231.7 L 581.9 231.7 L 581.9 131.7 L 481.9 131.7 Z M 481.9 231.7 " fill="#1093A4" fill-opacity="0.85"></path></g></g></g></g><g><clipPath id="clip-39246"><path d="M 567.2 242.0 C 586.8 233.9 586.8 220.7 567.2 212.5 C 547.7 204.4 516.0 204.4 496.5 212.5 C 477.0 220.7 477.0 233.9 496.5 242.0 C 516.0 250.1 547.7 250.1 567.2 242.0 Z M 567.2 242.0 "></path></clipPath><g clip-path="url(#clip-39246)"><g><clipPath id="clip-39247"><path d="M 480.4 204.9 L 583.4 204.9 L 583.4 249.6 L 480.4 249.6 Z M 480.4 204.9 "></path></clipPath><g clip-path="url(#clip-39247)"><image xlink:href="../../E032F876-E8E9-4C42-AF2C-93ED8E896D6C/assets/AFF4D1F361AD28AA82012E14045EB299.jpeg" width="128.00" height="128.00" transform="matrix(1.00, 0.00, -0.00, -1.00, 481.9, 248.1)"></image><path d="M 481.9 248.1 L 581.9 248.1 L 581.9 206.4 L 481.9 206.4 Z M 481.9 248.1 " fill="#1093A4" fill-opacity="0.85"></path></g></g></g></g><g><clipPath id="clip-39248"><path d="M 480.4 204.9 L 583.4 204.9 L 583.4 249.6 L 480.4 249.6 Z M 480.4 204.9 "></path></clipPath><g clip-path="url(#clip-39248)"><path d="M 85.4 6.1 C 104.9 14.2 104.9 27.4 85.4 35.6 C 65.8 43.7 34.2 43.7 14.6 35.6 C -4.9 27.4 -4.9 14.2 14.6 6.1 C 34.2 -2.0 65.8 -2.0 85.4 6.1 Z M 85.4 6.1 " fill="none" stroke="#A6AAA8" stroke-width="1.00" transform="matrix(1.00, 0.00, 0.00, -1.00, 481.9, 248.1)"></path></g></g><g><clipPath id="clip-39249"><path d="M 476.0 125.5 L 586.1 125.5 L 586.1 247.8 L 476.0 247.8 Z M 476.0 125.5 "></path></clipPath><g clip-path="url(#clip-39249)"><image xlink:href="../../E032F876-E8E9-4C42-AF2C-93ED8E896D6C/assets/18EBC3A74E6F7292DBD243080D117D0A.png" width="110.00" height="123.00" transform="matrix(1.00, 0.00, -0.00, -1.00, 476.0, 248.0)"></image></g></g><path d="M 8.8 156.3 L 8.5 154.9 C -4.1 102.9 -2.7 51.2 12.8 0.0 " fill="none" stroke="#000000" stroke-width="3.00" stroke-linecap="round" stroke-dasharray="0.0, 9.0" transform="matrix(1.00, 0.00, 0.00, -1.00, 291.3, 414.3)"></path><path d="M 293.4 257.7 L 303.2 246.6 L 306.2 261.1 Z M 293.4 257.7 " fill="#000000"></path><path d="M 0.0 0.0 C 56.0 51.0 94.8 112.6 116.6 184.7 L 117.0 186.2 " fill="none" stroke="#000000" stroke-width="3.00" stroke-linecap="round" stroke-dasharray="0.0, 9.0" transform="matrix(1.00, 0.00, 0.00, -1.00, 397.8, 445.8)"></path><path d="M 508.0 259.2 L 518.0 248.3 L 520.7 262.8 Z M 508.0 259.2 " fill="#000000"></path><path d="M 0.0 0.0 C 112.0 49.8 206.4 122.0 283.1 216.5 L 284.1 217.7 " fill="none" stroke="#000000" stroke-width="3.00" stroke-linecap="round" stroke-dasharray="0.0, 9.0" transform="matrix(1.00, 0.00, 0.00, -1.00, 397.8, 468.0)"></path><path d="M 675.8 247.4 L 689.2 241.2 L 686.1 255.6 Z M 675.8 247.4 " fill="#000000"></path><g><clipPath id="clip-39250"><path d="M 487.5 593.5 L 605.5 593.5 L 605.5 439.5 L 487.5 439.5 Z M 487.5 593.5 "></path></clipPath><g clip-path="url(#clip-39250)"><g><clipPath id="clip-39251"><path d="M 496.5 439.5 L 497.5 439.5 L 497.5 593.5 L 496.5 593.5 Z M 496.5 439.5 "></path></clipPath><g clip-path="url(#clip-39251)"><path d="M 11.0 1.5 L 11.0 155.5 " fill="none" stroke="#52575F" stroke-width="1.00" stroke-dasharray="2.0, 2.0" transform="matrix(1.00, 0.00, 0.00, -1.00, 486.0, 595.0)"></path></g></g></g></g><g><clipPath id="clip-39252"><path d="M 487.5 593.5 L 605.5 593.5 L 605.5 439.5 L 487.5 439.5 Z M 487.5 593.5 "></path></clipPath><g clip-path="url(#clip-39252)"><g><clipPath id="clip-39253"><path d="M 505.5 439.5 L 506.5 439.5 L 506.5 593.5 L 505.5 593.5 Z M 505.5 439.5 "></path></clipPath><g clip-path="url(#clip-39253)"><path d="M 20.0 1.5 L 20.0 155.5 " fill="none" stroke="#52575F" stroke-width="1.00" stroke-dasharray="2.0, 2.0" transform="matrix(1.00, 0.00, 0.00, -1.00, 486.0, 595.0)"></path></g></g></g></g><g><clipPath id="clip-39254"><path d="M 487.5 593.5 L 605.5 593.5 L 605.5 439.5 L 487.5 439.5 Z M 487.5 593.5 "></path></clipPath><g clip-path="url(#clip-39254)"><g><clipPath id="clip-39255"><path d="M 514.5 439.5 L 515.5 439.5 L 515.5 593.5 L 514.5 593.5 Z M 514.5 439.5 "></path></clipPath><g clip-path="url(#clip-39255)"><path d="M 29.0 1.5 L 29.0 155.5 " fill="none" stroke="#52575F" stroke-width="1.00" stroke-dasharray="2.0, 2.0" transform="matrix(1.00, 0.00, 0.00, -1.00, 486.0, 595.0)"></path></g></g></g></g><g><clipPath id="clip-39256"><path d="M 487.5 593.5 L 605.5 593.5 L 605.5 439.5 L 487.5 439.5 Z M 487.5 593.5 "></path></clipPath><g clip-path="url(#clip-39256)"><g><clipPath id="clip-39257"><path d="M 523.5 439.5 L 524.5 439.5 L 524.5 593.5 L 523.5 593.5 Z M 523.5 439.5 "></path></clipPath><g clip-path="url(#clip-39257)"><path d="M 38.0 1.5 L 38.0 155.5 " fill="none" stroke="#52575F" stroke-width="1.00" stroke-dasharray="2.0, 2.0" transform="matrix(1.00, 0.00, 0.00, -1.00, 486.0, 595.0)"></path></g></g></g></g><g><clipPath id="clip-39258"><path d="M 487.5 593.5 L 605.5 593.5 L 605.5 439.5 L 487.5 439.5 Z M 487.5 593.5 "></path></clipPath><g clip-path="url(#clip-39258)"><g><clipPath id="clip-39259"><path d="M 532.5 439.5 L 533.5 439.5 L 533.5 593.5 L 532.5 593.5 Z M 532.5 439.5 "></path></clipPath><g clip-path="url(#clip-39259)"><path d="M 47.0 1.5 L 47.0 155.5 " fill="none" stroke="#52575F" stroke-width="1.00" stroke-dasharray="2.0, 2.0" transform="matrix(1.00, 0.00, 0.00, -1.00, 486.0, 595.0)"></path></g></g></g></g><g><clipPath id="clip-39260"><path d="M 487.5 593.5 L 605.5 593.5 L 605.5 439.5 L 487.5 439.5 Z M 487.5 593.5 "></path></clipPath><g clip-path="url(#clip-39260)"><g><clipPath id="clip-39261"><path d="M 541.5 439.5 L 542.5 439.5 L 542.5 593.5 L 541.5 593.5 Z M 541.5 439.5 "></path></clipPath><g clip-path="url(#clip-39261)"><path d="M 56.0 1.5 L 56.0 155.5 " fill="none" stroke="#52575F" stroke-width="1.00" stroke-dasharray="2.0, 2.0" transform="matrix(1.00, 0.00, 0.00, -1.00, 486.0, 595.0)"></path></g></g></g></g><g><clipPath id="clip-39262"><path d="M 487.5 593.5 L 605.5 593.5 L 605.5 439.5 L 487.5 439.5 Z M 487.5 593.5 "></path></clipPath><g clip-path="url(#clip-39262)"><g><clipPath id="clip-39263"><path d="M 550.5 439.5 L 551.5 439.5 L 551.5 593.5 L 550.5 593.5 Z M 550.5 439.5 "></path></clipPath><g clip-path="url(#clip-39263)"><path d="M 65.0 1.5 L 65.0 155.5 " fill="none" stroke="#52575F" stroke-width="1.00" stroke-dasharray="2.0, 2.0" transform="matrix(1.00, 0.00, 0.00, -1.00, 486.0, 595.0)"></path></g></g></g></g><g><clipPath id="clip-39264"><path d="M 487.5 593.5 L 605.5 593.5 L 605.5 439.5 L 487.5 439.5 Z M 487.5 593.5 "></path></clipPath><g clip-path="url(#clip-39264)"><g><clipPath id="clip-39265"><path d="M 559.5 439.5 L 560.5 439.5 L 560.5 593.5 L 559.5 593.5 Z M 559.5 439.5 "></path></clipPath><g clip-path="url(#clip-39265)"><path d="M 74.0 1.5 L 74.0 155.5 " fill="none" stroke="#52575F" stroke-width="1.00" stroke-dasharray="2.0, 2.0" transform="matrix(1.00, 0.00, 0.00, -1.00, 486.0, 595.0)"></path></g></g></g></g><g><clipPath id="clip-39266"><path d="M 487.5 593.5 L 605.5 593.5 L 605.5 439.5 L 487.5 439.5 Z M 487.5 593.5 "></path></clipPath><g clip-path="url(#clip-39266)"><g><clipPath id="clip-39267"><path d="M 568.5 439.5 L 569.5 439.5 L 569.5 593.5 L 568.5 593.5 Z M 568.5 439.5 "></path></clipPath><g clip-path="url(#clip-39267)"><path d="M 83.0 1.5 L 83.0 155.5 " fill="none" stroke="#52575F" stroke-width="1.00" stroke-dasharray="2.0, 2.0" transform="matrix(1.00, 0.00, 0.00, -1.00, 486.0, 595.0)"></path></g></g></g></g><g><clipPath id="clip-39268"><path d="M 487.5 593.5 L 605.5 593.5 L 605.5 439.5 L 487.5 439.5 Z M 487.5 593.5 "></path></clipPath><g clip-path="url(#clip-39268)"><g><clipPath id="clip-39269"><path d="M 577.5 439.5 L 578.5 439.5 L 578.5 593.5 L 577.5 593.5 Z M 577.5 439.5 "></path></clipPath><g clip-path="url(#clip-39269)"><path d="M 92.0 1.5 L 92.0 155.5 " fill="none" stroke="#52575F" stroke-width="1.00" stroke-dasharray="2.0, 2.0" transform="matrix(1.00, 0.00, 0.00, -1.00, 486.0, 595.0)"></path></g></g></g></g><g><clipPath id="clip-39270"><path d="M 487.5 593.5 L 605.5 593.5 L 605.5 439.5 L 487.5 439.5 Z M 487.5 593.5 "></path></clipPath><g clip-path="url(#clip-39270)"><g><clipPath id="clip-39271"><path d="M 586.5 439.5 L 587.5 439.5 L 587.5 593.5 L 586.5 593.5 Z M 586.5 439.5 "></path></clipPath><g clip-path="url(#clip-39271)"><path d="M 101.0 1.5 L 101.0 155.5 " fill="none" stroke="#52575F" stroke-width="1.00" stroke-dasharray="2.0, 2.0" transform="matrix(1.00, 0.00, 0.00, -1.00, 486.0, 595.0)"></path></g></g></g></g><g><clipPath id="clip-39272"><path d="M 487.5 593.5 L 605.5 593.5 L 605.5 439.5 L 487.5 439.5 Z M 487.5 593.5 "></path></clipPath><g clip-path="url(#clip-39272)"><g><clipPath id="clip-39273"><path d="M 595.5 439.5 L 596.5 439.5 L 596.5 593.5 L 595.5 593.5 Z M 595.5 439.5 "></path></clipPath><g clip-path="url(#clip-39273)"><path d="M 110.0 1.5 L 110.0 155.5 " fill="none" stroke="#52575F" stroke-width="1.00" stroke-dasharray="2.0, 2.0" transform="matrix(1.00, 0.00, 0.00, -1.00, 486.0, 595.0)"></path></g></g></g></g><g><clipPath id="clip-39274"><path d="M 487.5 593.5 L 605.5 593.5 L 605.5 439.5 L 487.5 439.5 Z M 487.5 593.5 "></path></clipPath><g clip-path="url(#clip-39274)"><g><clipPath id="clip-39275"><path d="M 487.5 583.5 L 605.5 583.5 L 605.5 584.5 L 487.5 584.5 Z M 487.5 583.5 "></path></clipPath><g clip-path="url(#clip-39275)"><path d="M 1.5 11.0 L 119.5 11.0 " fill="none" stroke="#52575F" stroke-width="1.00" stroke-dasharray="2.0, 2.0" transform="matrix(1.00, 0.00, 0.00, -1.00, 486.0, 595.0)"></path></g></g></g></g><g><clipPath id="clip-39276"><path d="M 487.5 593.5 L 605.5 593.5 L 605.5 439.5 L 487.5 439.5 Z M 487.5 593.5 "></path></clipPath><g clip-path="url(#clip-39276)"><g><clipPath id="clip-39277"><path d="M 487.5 574.5 L 605.5 574.5 L 605.5 575.5 L 487.5 575.5 Z M 487.5 574.5 "></path></clipPath><g clip-path="url(#clip-39277)"><path d="M 1.5 20.0 L 119.5 20.0 " fill="none" stroke="#52575F" stroke-width="1.00" stroke-dasharray="2.0, 2.0" transform="matrix(1.00, 0.00, 0.00, -1.00, 486.0, 595.0)"></path></g></g></g></g><g><clipPath id="clip-39278"><path d="M 487.5 593.5 L 605.5 593.5 L 605.5 439.5 L 487.5 439.5 Z M 487.5 593.5 "></path></clipPath><g clip-path="url(#clip-39278)"><g><clipPath id="clip-39279"><path d="M 487.5 565.5 L 605.5 565.5 L 605.5 566.5 L 487.5 566.5 Z M 487.5 565.5 "></path></clipPath><g clip-path="url(#clip-39279)"><path d="M 1.5 29.0 L 119.5 29.0 " fill="none" stroke="#52575F" stroke-width="1.00" stroke-dasharray="2.0, 2.0" transform="matrix(1.00, 0.00, 0.00, -1.00, 486.0, 595.0)"></path></g></g></g></g><g><clipPath id="clip-39280"><path d="M 487.5 593.5 L 605.5 593.5 L 605.5 439.5 L 487.5 439.5 Z M 487.5 593.5 "></path></clipPath><g clip-path="url(#clip-39280)"><g><clipPath id="clip-39281"><path d="M 487.5 556.5 L 605.5 556.5 L 605.5 557.5 L 487.5 557.5 Z M 487.5 556.5 "></path></clipPath><g clip-path="url(#clip-39281)"><path d="M 1.5 38.0 L 119.5 38.0 " fill="none" stroke="#52575F" stroke-width="1.00" stroke-dasharray="2.0, 2.0" transform="matrix(1.00, 0.00, 0.00, -1.00, 486.0, 595.0)"></path></g></g></g></g><g><clipPath id="clip-39282"><path d="M 487.5 593.5 L 605.5 593.5 L 605.5 439.5 L 487.5 439.5 Z M 487.5 593.5 "></path></clipPath><g clip-path="url(#clip-39282)"><g><clipPath id="clip-39283"><path d="M 487.5 547.5 L 605.5 547.5 L 605.5 548.5 L 487.5 548.5 Z M 487.5 547.5 "></path></clipPath><g clip-path="url(#clip-39283)"><path d="M 1.5 47.0 L 119.5 47.0 " fill="none" stroke="#52575F" stroke-width="1.00" stroke-dasharray="2.0, 2.0" transform="matrix(1.00, 0.00, 0.00, -1.00, 486.0, 595.0)"></path></g></g></g></g><g><clipPath id="clip-39284"><path d="M 487.5 593.5 L 605.5 593.5 L 605.5 439.5 L 487.5 439.5 Z M 487.5 593.5 "></path></clipPath><g clip-path="url(#clip-39284)"><g><clipPath id="clip-39285"><path d="M 487.5 538.5 L 605.5 538.5 L 605.5 539.5 L 487.5 539.5 Z M 487.5 538.5 "></path></clipPath><g clip-path="url(#clip-39285)"><path d="M 1.5 56.0 L 119.5 56.0 " fill="none" stroke="#52575F" stroke-width="1.00" stroke-dasharray="2.0, 2.0" transform="matrix(1.00, 0.00, 0.00, -1.00, 486.0, 595.0)"></path></g></g></g></g><g><clipPath id="clip-39286"><path d="M 487.5 593.5 L 605.5 593.5 L 605.5 439.5 L 487.5 439.5 Z M 487.5 593.5 "></path></clipPath><g clip-path="url(#clip-39286)"><g><clipPath id="clip-39287"><path d="M 487.5 529.5 L 605.5 529.5 L 605.5 530.5 L 487.5 530.5 Z M 487.5 529.5 "></path></clipPath><g clip-path="url(#clip-39287)"><path d="M 1.5 65.0 L 119.5 65.0 " fill="none" stroke="#52575F" stroke-width="1.00" stroke-dasharray="2.0, 2.0" transform="matrix(1.00, 0.00, 0.00, -1.00, 486.0, 595.0)"></path></g></g></g></g><g><clipPath id="clip-39288"><path d="M 487.5 593.5 L 605.5 593.5 L 605.5 439.5 L 487.5 439.5 Z M 487.5 593.5 "></path></clipPath><g clip-path="url(#clip-39288)"><g><clipPath id="clip-39289"><path d="M 487.5 520.5 L 605.5 520.5 L 605.5 521.5 L 487.5 521.5 Z M 487.5 520.5 "></path></clipPath><g clip-path="url(#clip-39289)"><path d="M 1.5 74.0 L 119.5 74.0 " fill="none" stroke="#52575F" stroke-width="1.00" stroke-dasharray="2.0, 2.0" transform="matrix(1.00, 0.00, 0.00, -1.00, 486.0, 595.0)"></path></g></g></g></g><g><clipPath id="clip-39290"><path d="M 487.5 593.5 L 605.5 593.5 L 605.5 439.5 L 487.5 439.5 Z M 487.5 593.5 "></path></clipPath><g clip-path="url(#clip-39290)"><g><clipPath id="clip-39291"><path d="M 487.5 511.5 L 605.5 511.5 L 605.5 512.5 L 487.5 512.5 Z M 487.5 511.5 "></path></clipPath><g clip-path="url(#clip-39291)"><path d="M 1.5 83.0 L 119.5 83.0 " fill="none" stroke="#52575F" stroke-width="1.00" stroke-dasharray="2.0, 2.0" transform="matrix(1.00, 0.00, 0.00, -1.00, 486.0, 595.0)"></path></g></g></g></g><g><clipPath id="clip-39292"><path d="M 487.5 593.5 L 605.5 593.5 L 605.5 439.5 L 487.5 439.5 Z M 487.5 593.5 "></path></clipPath><g clip-path="url(#clip-39292)"><g><clipPath id="clip-39293"><path d="M 487.5 502.5 L 605.5 502.5 L 605.5 503.5 L 487.5 503.5 Z M 487.5 502.5 "></path></clipPath><g clip-path="url(#clip-39293)"><path d="M 1.5 92.0 L 119.5 92.0 " fill="none" stroke="#52575F" stroke-width="1.00" stroke-dasharray="2.0, 2.0" transform="matrix(1.00, 0.00, 0.00, -1.00, 486.0, 595.0)"></path></g></g></g></g><g><clipPath id="clip-39294"><path d="M 487.5 593.5 L 605.5 593.5 L 605.5 439.5 L 487.5 439.5 Z M 487.5 593.5 "></path></clipPath><g clip-path="url(#clip-39294)"><g><clipPath id="clip-39295"><path d="M 487.5 493.5 L 605.5 493.5 L 605.5 494.5 L 487.5 494.5 Z M 487.5 493.5 "></path></clipPath><g clip-path="url(#clip-39295)"><path d="M 1.5 101.0 L 119.5 101.0 " fill="none" stroke="#52575F" stroke-width="1.00" stroke-dasharray="2.0, 2.0" transform="matrix(1.00, 0.00, 0.00, -1.00, 486.0, 595.0)"></path></g></g></g></g><g><clipPath id="clip-39296"><path d="M 487.5 593.5 L 605.5 593.5 L 605.5 439.5 L 487.5 439.5 Z M 487.5 593.5 "></path></clipPath><g clip-path="url(#clip-39296)"><g><clipPath id="clip-39297"><path d="M 487.5 484.5 L 605.5 484.5 L 605.5 485.5 L 487.5 485.5 Z M 487.5 484.5 "></path></clipPath><g clip-path="url(#clip-39297)"><path d="M 1.5 110.0 L 119.5 110.0 " fill="none" stroke="#52575F" stroke-width="1.00" stroke-dasharray="2.0, 2.0" transform="matrix(1.00, 0.00, 0.00, -1.00, 486.0, 595.0)"></path></g></g></g></g><g><clipPath id="clip-39298"><path d="M 487.5 593.5 L 605.5 593.5 L 605.5 439.5 L 487.5 439.5 Z M 487.5 593.5 "></path></clipPath><g clip-path="url(#clip-39298)"><g><clipPath id="clip-39299"><path d="M 487.5 475.5 L 605.5 475.5 L 605.5 476.5 L 487.5 476.5 Z M 487.5 475.5 "></path></clipPath><g clip-path="url(#clip-39299)"><path d="M 1.5 119.0 L 119.5 119.0 " fill="none" stroke="#52575F" stroke-width="1.00" stroke-dasharray="2.0, 2.0" transform="matrix(1.00, 0.00, 0.00, -1.00, 486.0, 595.0)"></path></g></g></g></g><g><clipPath id="clip-39300"><path d="M 487.5 593.5 L 605.5 593.5 L 605.5 439.5 L 487.5 439.5 Z M 487.5 593.5 "></path></clipPath><g clip-path="url(#clip-39300)"><g><clipPath id="clip-39301"><path d="M 487.5 466.5 L 605.5 466.5 L 605.5 467.5 L 487.5 467.5 Z M 487.5 466.5 "></path></clipPath><g clip-path="url(#clip-39301)"><path d="M 1.5 128.0 L 119.5 128.0 " fill="none" stroke="#52575F" stroke-width="1.00" stroke-dasharray="2.0, 2.0" transform="matrix(1.00, 0.00, 0.00, -1.00, 486.0, 595.0)"></path></g></g></g></g><g><clipPath id="clip-39302"><path d="M 487.5 593.5 L 605.5 593.5 L 605.5 439.5 L 487.5 439.5 Z M 487.5 593.5 "></path></clipPath><g clip-path="url(#clip-39302)"><g><clipPath id="clip-39303"><path d="M 487.5 457.5 L 605.5 457.5 L 605.5 458.5 L 487.5 458.5 Z M 487.5 457.5 "></path></clipPath><g clip-path="url(#clip-39303)"><path d="M 1.5 137.0 L 119.5 137.0 " fill="none" stroke="#52575F" stroke-width="1.00" stroke-dasharray="2.0, 2.0" transform="matrix(1.00, 0.00, 0.00, -1.00, 486.0, 595.0)"></path></g></g></g></g><g><clipPath id="clip-39304"><path d="M 487.5 593.5 L 605.5 593.5 L 605.5 439.5 L 487.5 439.5 Z M 487.5 593.5 "></path></clipPath><g clip-path="url(#clip-39304)"><g><clipPath id="clip-39305"><path d="M 487.5 448.5 L 605.5 448.5 L 605.5 449.5 L 487.5 449.5 Z M 487.5 448.5 "></path></clipPath><g clip-path="url(#clip-39305)"><path d="M 1.5 146.0 L 119.5 146.0 " fill="none" stroke="#52575F" stroke-width="1.00" stroke-dasharray="2.0, 2.0" transform="matrix(1.00, 0.00, 0.00, -1.00, 486.0, 595.0)"></path></g></g></g></g><g><clipPath id="clip-39306"><path d="M 487.5 593.5 L 605.5 593.5 L 605.5 439.5 L 487.5 439.5 Z M 487.5 593.5 "></path></clipPath><g clip-path="url(#clip-39306)"><path d="M 2.0 1.5 L 2.0 155.5 " fill="none" stroke="#FEFFFE" stroke-width="1.00" transform="matrix(1.00, 0.00, 0.00, -1.00, 486.0, 595.0)"></path><path d="M 119.0 1.5 L 119.0 155.5 " fill="none" stroke="#FEFFFF" stroke-width="1.00" transform="matrix(1.00, 0.00, 0.00, -1.00, 486.0, 595.0)"></path><path d="M 1.5 2.0 L 119.5 2.0 " fill="none" stroke="#FEFFFE" stroke-width="1.00" transform="matrix(1.00, 0.00, 0.00, -1.00, 486.0, 595.0)"></path><path d="M 1.5 155.0 L 119.5 155.0 " fill="none" stroke="#FEFFFE" stroke-width="1.00" transform="matrix(1.00, 0.00, 0.00, -1.00, 486.0, 595.0)"></path></g></g><path d="M 22.7 184.8 L 22.1 183.4 C -6.9 117.1 -7.4 56.0 20.8 0.0 " fill="none" stroke="#000000" stroke-width="3.00" stroke-linecap="round" stroke-dasharray="0.0, 9.0" transform="matrix(1.00, 0.00, 0.00, -1.00, 465.5, 438.9)"></path><path d="M 481.6 252.7 L 493.1 243.5 L 493.6 258.2 Z M 481.6 252.7 " fill="#000000"></path><path d="M 2.0 210.8 L 2.3 209.3 C 16.1 144.6 69.8 74.8 163.5 0.0 " fill="none" stroke="#000000" stroke-width="3.00" stroke-linecap="round" stroke-dasharray="0.0, 9.0" transform="matrix(1.00, 0.00, 0.00, -1.00, 322.8, 470.9)"></path><path d="M 318.5 262.7 L 322.8 248.6 L 331.5 260.5 Z M 318.5 262.7 " fill="#000000"></path><path d="M 0.0 56.2 C 98.8 -9.7 198.6 -17.6 299.5 32.4 L 300.4 32.8 " fill="none" stroke="#000000" stroke-width="2.00" transform="matrix(1.00, 0.00, 0.00, -1.00, 178.2, 591.7)"></path><path d="M 475.5 555.0 L 486.3 554.9 L 479.9 563.5 Z M 475.5 555.0 " fill="#000000"></path><image xlink:href="../../E032F876-E8E9-4C42-AF2C-93ED8E896D6C/assets/15EE3C20513621AFF0785F295453E611.png" width="12.00" height="11.00" transform="matrix(1.00, 0.00, -0.00, -0.91, 563.0, 464.0)"></image><image xlink:href="../../E032F876-E8E9-4C42-AF2C-93ED8E896D6C/assets/7BF868126371516F35EE24CF67107A29.png" width="12.00" height="11.00" transform="matrix(1.00, 0.00, -0.00, -1.00, 522.0, 495.0)"></image><image xlink:href="../../E032F876-E8E9-4C42-AF2C-93ED8E896D6C/assets/D59024D7C3C0809BAD52C011AF8FF8AD.png" width="12.00" height="10.00" transform="matrix(1.00, 0.00, -0.00, -1.00, 506.0, 464.0)"></image><image xlink:href="../../E032F876-E8E9-4C42-AF2C-93ED8E896D6C/assets/D59024D7C3C0809BAD52C011AF8FF8AD.png" width="12.00" height="10.00" transform="matrix(0.92, 0.00, -0.00, -1.00, 515.0, 464.0)"></image><image xlink:href="../../E032F876-E8E9-4C42-AF2C-93ED8E896D6C/assets/D59024D7C3C0809BAD52C011AF8FF8AD.png" width="12.00" height="10.00" transform="matrix(1.00, 0.00, -0.00, -1.10, 522.0, 515.0)"></image><image xlink:href="../../E032F876-E8E9-4C42-AF2C-93ED8E896D6C/assets/D59024D7C3C0809BAD52C011AF8FF8AD.png" width="12.00" height="10.00" transform="matrix(1.00, 0.00, -0.00, -1.10, 532.0, 505.0)"></image><image xlink:href="../../E032F876-E8E9-4C42-AF2C-93ED8E896D6C/assets/15EE3C20513621AFF0785F295453E611.png" width="12.00" height="11.00" transform="matrix(1.00, 0.00, -0.00, -1.00, 522.0, 505.0)"></image><image xlink:href="../../E032F876-E8E9-4C42-AF2C-93ED8E896D6C/assets/15EE3C20513621AFF0785F295453E611.png" width="12.00" height="11.00" transform="matrix(1.00, 0.00, -0.00, -1.00, 532.0, 495.0)"></image><text xml:space="preserve" font-family="Helvetica-Bold" font-weight="bold" font-size="36.0" fill="#C82505" transform="matrix(1.00, 0.00, -0.00, -1.00, 301.0, 278.0)">?</text><text xml:space="preserve" font-family="Helvetica-Bold" font-weight="bold" font-size="36.0" fill="#C82505" transform="matrix(1.00, 0.00, -0.00, -1.00, 486.0, 262.0)">?</text><text xml:space="preserve" font-family="Helvetica-Bold" font-weight="bold" font-size="36.0" fill="#C82505" transform="matrix(1.00, 0.00, -0.00, -1.00, 688.0, 262.0)">?</text></g></svg>