<?xml version="1.0" encoding="UTF-8" standalone="no"?><svg xmlns="http://www.w3.org/2000/svg" xmlns:xlink="http://www.w3.org/1999/xlink" clip-rule="evenodd" stroke-miterlimit="4.00" viewBox="0 0 1024 768"><desc>SVG generated by Keynote</desc><defs></defs><g transform="matrix(1.00, 0.00, -0.00, -1.00, 0.0, 768.0)"><path d="M 0.0 768.0 L 1024.0 768.0 L 1024.0 0.0 L 0.0 0.0 Z M 0.0 768.0 " fill="#FEFFFF"></path><text xml:space="preserve" font-family="Helvetica-Bold" font-weight="bold" font-size="36.0" fill="#000000" transform="matrix(1.00, 0.00, -0.00, -1.00, 283.0, 689.0)">B</text><text xml:space="preserve" font-family="Helvetica-Bold" font-weight="bold" font-size="36.0" fill="#000000" transform="matrix(1.00, 0.00, -0.00, -1.00, 309.0, 689.0)">e</text><text xml:space="preserve" font-family="Helvetica-Bold" font-weight="bold" font-size="36.0" fill="#000000" transform="matrix(1.00, 0.00, -0.00, -1.00, 329.0, 689.0)">n</text><text xml:space="preserve" font-family="Helvetica-Bold" font-weight="bold" font-size="36.0" fill="#000000" transform="matrix(1.00, 0.00, -0.00, -1.00, 351.0, 689.0)">e</text><text xml:space="preserve" font-family="Helvetica-Bold" font-weight="bold" font-size="36.0" fill="#000000" transform="matrix(1.00, 0.00, -0.00, -1.00, 371.0, 689.0)">ﬁ</text><text xml:space="preserve" font-family="Helvetica-Bold" font-weight="bold" font-size="36.0" fill="#000000" transform="matrix(1.00, 0.00, -0.00, -1.00, 393.0, 689.0)">t</text><text xml:space="preserve" font-family="Helvetica-Bold" font-weight="bold" font-size="36.0" fill="#000000" transform="matrix(1.00, 0.00, -0.00, -1.00, 405.0, 689.0)">:</text><text xml:space="preserve" font-family="Helvetica-Bold" font-weight="bold" font-size="36.0" fill="#000000" transform="matrix(1.00, 0.00, -0.00, -1.00, 417.0, 689.0)"> </text><text xml:space="preserve" font-family="Helvetica-Bold" font-weight="bold" font-size="36.0" fill="#000000" transform="matrix(1.00, 0.00, -0.00, -1.00, 427.0, 689.0)">“</text><text xml:space="preserve" font-family="Helvetica-Bold" font-weight="bold" font-size="36.0" fill="#000000" transform="matrix(1.00, 0.00, -0.00, -1.00, 445.0, 689.0)">D</text><text xml:space="preserve" font-family="Helvetica-Bold" font-weight="bold" font-size="36.0" fill="#000000" transform="matrix(1.00, 0.00, -0.00, -1.00, 471.0, 689.0)">i</text><text xml:space="preserve" font-family="Helvetica-Bold" font-weight="bold" font-size="36.0" fill="#000000" transform="matrix(1.00, 0.00, -0.00, -1.00, 481.0, 689.0)">f</text><text xml:space="preserve" font-family="Helvetica-Bold" font-weight="bold" font-size="36.0" fill="#000000" transform="matrix(1.00, 0.00, -0.00, -1.00, 493.0, 689.0)">ﬁ</text><text xml:space="preserve" font-family="Helvetica-Bold" font-weight="bold" font-size="36.0" fill="#000000" transform="matrix(1.00, 0.00, -0.00, -1.00, 515.0, 689.0)">n</text><text xml:space="preserve" font-family="Helvetica-Bold" font-weight="bold" font-size="36.0" fill="#000000" transform="matrix(1.00, 0.00, -0.00, -1.00, 537.0, 689.0)">g</text><text xml:space="preserve" font-family="Helvetica-Bold" font-weight="bold" font-size="36.0" fill="#000000" transform="matrix(1.00, 0.00, -0.00, -1.00, 558.9, 689.0)">”</text><text xml:space="preserve" font-family="Helvetica-Bold" font-weight="bold" font-size="36.0" fill="#000000" transform="matrix(1.00, 0.00, -0.00, -1.00, 576.9, 689.0)"> </text><text xml:space="preserve" font-family="Helvetica-Bold" font-weight="bold" font-size="36.0" fill="#000000" transform="matrix(1.00, 0.00, -0.00, -1.00, 586.9, 689.0)">C</text><text xml:space="preserve" font-family="Helvetica-Bold" font-weight="bold" font-size="36.0" fill="#000000" transform="matrix(1.00, 0.00, -0.00, -1.00, 612.9, 689.0)">o</text><text xml:space="preserve" font-family="Helvetica-Bold" font-weight="bold" font-size="36.0" fill="#000000" transform="matrix(1.00, 0.00, -0.00, -1.00, 634.9, 689.0)">m</text><text xml:space="preserve" font-family="Helvetica-Bold" font-weight="bold" font-size="36.0" fill="#000000" transform="matrix(1.00, 0.00, -0.00, -1.00, 666.9, 689.0)">m</text><text xml:space="preserve" font-family="Helvetica-Bold" font-weight="bold" font-size="36.0" fill="#000000" transform="matrix(1.00, 0.00, -0.00, -1.00, 699.0, 689.0)">i</text><text xml:space="preserve" font-family="Helvetica-Bold" font-weight="bold" font-size="36.0" fill="#000000" transform="matrix(1.00, 0.00, -0.00, -1.00, 708.9, 689.0)">t</text><text xml:space="preserve" font-family="Helvetica-Bold" font-weight="bold" font-size="36.0" fill="#000000" transform="matrix(1.00, 0.00, -0.00, -1.00, 720.9, 689.0)">s</text><g><clipPath id="clip-483"><path d="M 218.0 438.0 L 481.9 438.0 L 481.9 250.2 L 218.0 250.2 Z M 218.0 438.0 "></path></clipPath><g clip-path="url(#clip-483)"><path d="M 218.0 438.0 L 293.7 438.0 L 293.7 391.1 L 218.0 391.1 Z M 218.0 438.0 " fill="#FEFFFF"></path><path d="M 293.7 438.0 L 481.9 438.0 L 481.9 391.1 L 293.7 391.1 Z M 293.7 438.0 " fill="#FEFFFF"></path><path d="M 218.0 344.1 L 293.7 344.1 L 293.7 297.2 L 218.0 297.2 Z M 218.0 344.1 " fill="#FEFFFF"></path><path d="M 293.7 344.1 L 481.9 344.1 L 481.9 297.2 L 293.7 297.2 Z M 293.7 344.1 " fill="#FEFFFF"></path></g></g><g><clipPath id="clip-484"><path d="M 218.0 438.0 L 481.9 438.0 L 481.9 250.2 L 218.0 250.2 Z M 218.0 438.0 "></path></clipPath><g clip-path="url(#clip-484)"><g><clipPath id="clip-485"><path d="M 218.0 391.6 L 293.7 391.6 L 293.7 438.0 L 218.0 438.0 Z M 218.0 391.6 "></path></clipPath><g clip-path="url(#clip-485)"><text xml:space="preserve" font-family="Helvetica-Light" font-size="26.0" fill="#000000" transform="matrix(1.00, 0.00, -0.00, -1.00, 238.0, 405.0)">i</text><text xml:space="preserve" font-family="Helvetica-Light" font-size="26.0" fill="#000000" transform="matrix(1.00, 0.00, -0.00, -1.00, 243.8, 405.0)">d</text><text xml:space="preserve" font-family="Helvetica-Light" font-size="26.0" fill="#000000" transform="matrix(1.00, 0.00, -0.00, -1.00, 259.7, 405.0)">1</text></g></g></g></g><g><clipPath id="clip-486"><path d="M 218.0 438.0 L 481.9 438.0 L 481.9 250.2 L 218.0 250.2 Z M 218.0 438.0 "></path></clipPath><g clip-path="url(#clip-486)"><g><clipPath id="clip-487"><path d="M 293.7 391.6 L 481.9 391.6 L 481.9 438.0 L 293.7 438.0 Z M 293.7 391.6 "></path></clipPath><g clip-path="url(#clip-487)"><text xml:space="preserve" font-family="Helvetica-Light" font-size="26.0" fill="#000000" transform="matrix(1.00, 0.00, -0.00, -1.00, 328.0, 405.0)">a</text><text xml:space="preserve" font-family="Helvetica-Light" font-size="26.0" fill="#000000" transform="matrix(1.00, 0.00, -0.00, -1.00, 342.5, 405.0)">4</text><text xml:space="preserve" font-family="Helvetica-Light" font-size="26.0" fill="#000000" transform="matrix(1.00, 0.00, -0.00, -1.00, 356.9, 405.0)">c</text><text xml:space="preserve" font-family="Helvetica-Light" font-size="26.0" fill="#000000" transform="matrix(1.00, 0.00, -0.00, -1.00, 371.4, 405.0)">f</text><text xml:space="preserve" font-family="Helvetica-Light" font-size="26.0" fill="#000000" transform="matrix(1.00, 0.00, -0.00, -1.00, 378.6, 405.0)">3</text><text xml:space="preserve" font-family="Helvetica-Light" font-size="26.0" fill="#000000" transform="matrix(1.00, 0.00, -0.00, -1.00, 393.1, 405.0)">3</text><text xml:space="preserve" font-family="Helvetica-Light" font-size="26.0" fill="#000000" transform="matrix(1.00, 0.00, -0.00, -1.00, 407.5, 405.0)">c</text><text xml:space="preserve" font-family="Helvetica-Light" font-size="26.0" fill="#000000" transform="matrix(1.00, 0.00, -0.00, -1.00, 422.0, 405.0)">…</text></g></g></g></g><g><clipPath id="clip-488"><path d="M 218.0 438.0 L 481.9 438.0 L 481.9 250.2 L 218.0 250.2 Z M 218.0 438.0 "></path></clipPath><g clip-path="url(#clip-488)"><g><clipPath id="clip-489"><path d="M 218.0 344.6 L 293.7 344.6 L 293.7 390.6 L 218.0 390.6 Z M 218.0 344.6 "></path></clipPath><g clip-path="url(#clip-489)"><text xml:space="preserve" font-family="Helvetica-Light" font-size="26.0" fill="#000000" transform="matrix(1.00, 0.00, -0.00, -1.00, 238.0, 358.0)">i</text><text xml:space="preserve" font-family="Helvetica-Light" font-size="26.0" fill="#000000" transform="matrix(1.00, 0.00, -0.00, -1.00, 243.8, 358.0)">d</text><text xml:space="preserve" font-family="Helvetica-Light" font-size="26.0" fill="#000000" transform="matrix(1.00, 0.00, -0.00, -1.00, 259.7, 358.0)">2</text></g></g></g></g><g><clipPath id="clip-490"><path d="M 218.0 438.0 L 481.9 438.0 L 481.9 250.2 L 218.0 250.2 Z M 218.0 438.0 "></path></clipPath><g clip-path="url(#clip-490)"><g><clipPath id="clip-491"><path d="M 293.7 344.6 L 481.9 344.6 L 481.9 390.6 L 293.7 390.6 Z M 293.7 344.6 "></path></clipPath><g clip-path="url(#clip-491)"><text xml:space="preserve" font-family="Helvetica-Light" font-size="26.0" fill="#000000" transform="matrix(1.00, 0.00, -0.00, -1.00, 324.0, 358.0)">9</text><text xml:space="preserve" font-family="Helvetica-Light" font-size="26.0" fill="#000000" transform="matrix(1.00, 0.00, -0.00, -1.00, 338.5, 358.0)">5</text><text xml:space="preserve" font-family="Helvetica-Light" font-size="26.0" fill="#000000" transform="matrix(1.00, 0.00, -0.00, -1.00, 352.9, 358.0)">8</text><text xml:space="preserve" font-family="Helvetica-Light" font-size="26.0" fill="#000000" transform="matrix(1.00, 0.00, -0.00, -1.00, 367.4, 358.0)">2</text><text xml:space="preserve" font-family="Helvetica-Light" font-size="26.0" fill="#000000" transform="matrix(1.00, 0.00, -0.00, -1.00, 381.8, 358.0)">d</text><text xml:space="preserve" font-family="Helvetica-Light" font-size="26.0" fill="#000000" transform="matrix(1.00, 0.00, -0.00, -1.00, 397.7, 358.0)">7</text><text xml:space="preserve" font-family="Helvetica-Light" font-size="26.0" fill="#000000" transform="matrix(1.00, 0.00, -0.00, -1.00, 412.2, 358.0)">6</text><text xml:space="preserve" font-family="Helvetica-Light" font-size="26.0" fill="#000000" transform="matrix(1.00, 0.00, -0.00, -1.00, 426.6, 358.0)">…</text></g></g></g></g><g><clipPath id="clip-492"><path d="M 218.0 438.0 L 481.9 438.0 L 481.9 250.2 L 218.0 250.2 Z M 218.0 438.0 "></path></clipPath><g clip-path="url(#clip-492)"><g><clipPath id="clip-493"><path d="M 218.0 297.7 L 293.7 297.7 L 293.7 343.6 L 218.0 343.6 Z M 218.0 297.7 "></path></clipPath><g clip-path="url(#clip-493)"><text xml:space="preserve" font-family="Helvetica-Light" font-size="26.0" fill="#000000" transform="matrix(1.00, 0.00, -0.00, -1.00, 238.0, 311.0)">i</text><text xml:space="preserve" font-family="Helvetica-Light" font-size="26.0" fill="#000000" transform="matrix(1.00, 0.00, -0.00, -1.00, 243.8, 311.0)">d</text><text xml:space="preserve" font-family="Helvetica-Light" font-size="26.0" fill="#000000" transform="matrix(1.00, 0.00, -0.00, -1.00, 259.7, 311.0)">3</text></g></g></g></g><g><clipPath id="clip-494"><path d="M 218.0 438.0 L 481.9 438.0 L 481.9 250.2 L 218.0 250.2 Z M 218.0 438.0 "></path></clipPath><g clip-path="url(#clip-494)"><g><clipPath id="clip-495"><path d="M 293.7 297.7 L 481.9 297.7 L 481.9 343.6 L 293.7 343.6 Z M 293.7 297.7 "></path></clipPath><g clip-path="url(#clip-495)"><text xml:space="preserve" font-family="Helvetica-Light" font-size="26.0" fill="#000000" transform="matrix(1.00, 0.00, -0.00, -1.00, 328.0, 311.0)">a</text><text xml:space="preserve" font-family="Helvetica-Light" font-size="26.0" fill="#000000" transform="matrix(1.00, 0.00, -0.00, -1.00, 342.5, 311.0)">4</text><text xml:space="preserve" font-family="Helvetica-Light" font-size="26.0" fill="#000000" transform="matrix(1.00, 0.00, -0.00, -1.00, 356.9, 311.0)">c</text><text xml:space="preserve" font-family="Helvetica-Light" font-size="26.0" fill="#000000" transform="matrix(1.00, 0.00, -0.00, -1.00, 371.4, 311.0)">f</text><text xml:space="preserve" font-family="Helvetica-Light" font-size="26.0" fill="#000000" transform="matrix(1.00, 0.00, -0.00, -1.00, 378.6, 311.0)">3</text><text xml:space="preserve" font-family="Helvetica-Light" font-size="26.0" fill="#000000" transform="matrix(1.00, 0.00, -0.00, -1.00, 393.1, 311.0)">3</text><text xml:space="preserve" font-family="Helvetica-Light" font-size="26.0" fill="#000000" transform="matrix(1.00, 0.00, -0.00, -1.00, 407.5, 311.0)">c</text><text xml:space="preserve" font-family="Helvetica-Light" font-size="26.0" fill="#000000" transform="matrix(1.00, 0.00, -0.00, -1.00, 422.0, 311.0)">…</text></g></g></g></g><g><clipPath id="clip-496"><path d="M 218.0 438.0 L 481.9 438.0 L 481.9 250.2 L 218.0 250.2 Z M 218.0 438.0 "></path></clipPath><g clip-path="url(#clip-496)"><g><clipPath id="clip-497"><path d="M 218.0 250.2 L 293.7 250.2 L 293.7 296.7 L 218.0 296.7 Z M 218.0 250.2 "></path></clipPath><g clip-path="url(#clip-497)"><text xml:space="preserve" font-family="Helvetica-Light" font-size="26.0" fill="#000000" transform="matrix(1.00, 0.00, -0.00, -1.00, 238.0, 264.0)">i</text><text xml:space="preserve" font-family="Helvetica-Light" font-size="26.0" fill="#000000" transform="matrix(1.00, 0.00, -0.00, -1.00, 243.8, 264.0)">d</text><text xml:space="preserve" font-family="Helvetica-Light" font-size="26.0" fill="#000000" transform="matrix(1.00, 0.00, -0.00, -1.00, 259.7, 264.0)">4</text></g></g></g></g><g><clipPath id="clip-498"><path d="M 218.0 438.0 L 481.9 438.0 L 481.9 250.2 L 218.0 250.2 Z M 218.0 438.0 "></path></clipPath><g clip-path="url(#clip-498)"><g><clipPath id="clip-499"><path d="M 293.7 250.2 L 481.9 250.2 L 481.9 296.7 L 293.7 296.7 Z M 293.7 250.2 "></path></clipPath><g clip-path="url(#clip-499)"><text xml:space="preserve" font-family="Helvetica-Light" font-size="26.0" fill="#000000" transform="matrix(1.00, 0.00, -0.00, -1.00, 324.0, 264.0)">9</text><text xml:space="preserve" font-family="Helvetica-Light" font-size="26.0" fill="#000000" transform="matrix(1.00, 0.00, -0.00, -1.00, 338.5, 264.0)">5</text><text xml:space="preserve" font-family="Helvetica-Light" font-size="26.0" fill="#000000" transform="matrix(1.00, 0.00, -0.00, -1.00, 352.9, 264.0)">8</text><text xml:space="preserve" font-family="Helvetica-Light" font-size="26.0" fill="#000000" transform="matrix(1.00, 0.00, -0.00, -1.00, 367.4, 264.0)">2</text><text xml:space="preserve" font-family="Helvetica-Light" font-size="26.0" fill="#000000" transform="matrix(1.00, 0.00, -0.00, -1.00, 381.8, 264.0)">d</text><text xml:space="preserve" font-family="Helvetica-Light" font-size="26.0" fill="#000000" transform="matrix(1.00, 0.00, -0.00, -1.00, 397.7, 264.0)">7</text><text xml:space="preserve" font-family="Helvetica-Light" font-size="26.0" fill="#000000" transform="matrix(1.00, 0.00, -0.00, -1.00, 412.2, 264.0)">6</text><text xml:space="preserve" font-family="Helvetica-Light" font-size="26.0" fill="#000000" transform="matrix(1.00, 0.00, -0.00, -1.00, 426.6, 264.0)">…</text></g></g></g></g><g><clipPath id="clip-500"><path d="M 218.0 438.0 L 481.9 438.0 L 481.9 250.2 L 218.0 250.2 Z M 218.0 438.0 "></path></clipPath><g clip-path="url(#clip-500)"><g><clipPath id="clip-501"><path d="M 218.0 390.6 L 481.9 390.6 L 481.9 391.6 L 218.0 391.6 Z M 218.0 390.6 "></path></clipPath><g clip-path="url(#clip-501)"><path d="M 1.0 47.9 L 264.9 47.9 " fill="none" stroke="#000000" stroke-width="1.00" stroke-dasharray="1.0, 1.0" transform="matrix(1.00, 0.00, 0.00, -1.00, 217.0, 439.0)"></path></g></g></g></g><g><clipPath id="clip-502"><path d="M 218.0 438.0 L 481.9 438.0 L 481.9 250.2 L 218.0 250.2 Z M 218.0 438.0 "></path></clipPath><g clip-path="url(#clip-502)"><g><clipPath id="clip-503"><path d="M 218.0 343.6 L 481.9 343.6 L 481.9 344.6 L 218.0 344.6 Z M 218.0 343.6 "></path></clipPath><g clip-path="url(#clip-503)"><path d="M 1.0 94.9 L 264.9 94.9 " fill="none" stroke="#000000" stroke-width="1.00" stroke-dasharray="1.0, 1.0" transform="matrix(1.00, 0.00, 0.00, -1.00, 217.0, 439.0)"></path></g></g></g></g><g><clipPath id="clip-504"><path d="M 218.0 438.0 L 481.9 438.0 L 481.9 250.2 L 218.0 250.2 Z M 218.0 438.0 "></path></clipPath><g clip-path="url(#clip-504)"><g><clipPath id="clip-505"><path d="M 218.0 296.7 L 481.9 296.7 L 481.9 297.7 L 218.0 297.7 Z M 218.0 296.7 "></path></clipPath><g clip-path="url(#clip-505)"><path d="M 1.0 141.8 L 264.9 141.8 " fill="none" stroke="#000000" stroke-width="1.00" stroke-dasharray="1.0, 1.0" transform="matrix(1.00, 0.00, 0.00, -1.00, 217.0, 439.0)"></path></g></g></g></g><text xml:space="preserve" font-family="Helvetica-Light" font-size="36.0" fill="#00872A" transform="matrix(1.00, 0.00, -0.00, -1.00, 494.0, 223.0)">+</text><text xml:space="preserve" font-family="Helvetica-Light" font-size="36.0" fill="#F5D327" transform="matrix(1.00, 0.00, -0.00, -1.00, 500.0, 399.0)">!</text><g><clipPath id="clip-506"><path d="M 794.4 258.7 L 793.9 258.7 L 793.9 301.9 L 794.4 347.1 L 793.9 390.3 L 794.4 435.5 L 529.5 435.5 L 529.5 390.3 L 530.0 347.1 L 529.5 301.9 L 530.0 258.7 L 529.5 258.7 L 529.5 213.5 L 794.4 213.5 Z M 794.4 258.7 "></path></clipPath><g clip-path="url(#clip-506)"><path d="M 530.0 435.0 L 605.7 435.0 L 605.7 390.8 L 530.0 390.8 Z M 530.0 435.0 " fill="#FEFFFF"></path><path d="M 605.7 435.0 L 793.9 435.0 L 793.9 390.8 L 605.7 390.8 Z M 605.7 435.0 " fill="#FEFFFF"></path><path d="M 530.0 346.6 L 605.7 346.6 L 605.7 302.4 L 530.0 302.4 Z M 530.0 346.6 " fill="#FEFFFF"></path><path d="M 605.7 346.6 L 793.9 346.6 L 793.9 302.4 L 605.7 302.4 Z M 605.7 346.6 " fill="#FEFFFF"></path></g></g><g><clipPath id="clip-507"><path d="M 794.4 258.7 L 793.9 258.7 L 793.9 301.9 L 794.4 347.1 L 793.9 390.3 L 794.4 435.5 L 529.5 435.5 L 529.5 390.3 L 530.0 347.1 L 529.5 301.9 L 530.0 258.7 L 529.5 258.7 L 529.5 213.5 L 794.4 213.5 Z M 794.4 258.7 "></path></clipPath><g clip-path="url(#clip-507)"><g><clipPath id="clip-508"><path d="M 530.5 391.3 L 605.7 391.3 L 605.7 434.5 L 530.5 434.5 Z M 530.5 391.3 "></path></clipPath><g clip-path="url(#clip-508)"><text xml:space="preserve" font-family="Helvetica-Light" font-size="26.0" fill="#000000" transform="matrix(1.00, 0.00, -0.00, -1.00, 550.0, 403.0)">i</text><text xml:space="preserve" font-family="Helvetica-Light" font-size="26.0" fill="#000000" transform="matrix(1.00, 0.00, -0.00, -1.00, 555.8, 403.0)">d</text><text xml:space="preserve" font-family="Helvetica-Light" font-size="26.0" fill="#000000" transform="matrix(1.00, 0.00, -0.00, -1.00, 571.7, 403.0)">1</text></g></g></g></g><g><clipPath id="clip-509"><path d="M 794.4 258.7 L 793.9 258.7 L 793.9 301.9 L 794.4 347.1 L 793.9 390.3 L 794.4 435.5 L 529.5 435.5 L 529.5 390.3 L 530.0 347.1 L 529.5 301.9 L 530.0 258.7 L 529.5 258.7 L 529.5 213.5 L 794.4 213.5 Z M 794.4 258.7 "></path></clipPath><g clip-path="url(#clip-509)"><g><clipPath id="clip-510"><path d="M 605.7 391.3 L 793.4 391.3 L 793.4 434.5 L 605.7 434.5 Z M 605.7 391.3 "></path></clipPath><g clip-path="url(#clip-510)"><text xml:space="preserve" font-family="Helvetica-Light" font-size="26.0" fill="#000000" transform="matrix(1.00, 0.00, -0.00, -1.00, 635.0, 403.0)">0</text><text xml:space="preserve" font-family="Helvetica-Light" font-size="26.0" fill="#000000" transform="matrix(1.00, 0.00, -0.00, -1.00, 649.5, 403.0)">a</text><text xml:space="preserve" font-family="Helvetica-Light" font-size="26.0" fill="#000000" transform="matrix(1.00, 0.00, -0.00, -1.00, 663.9, 403.0)">a</text><text xml:space="preserve" font-family="Helvetica-Light" font-size="26.0" fill="#000000" transform="matrix(1.00, 0.00, -0.00, -1.00, 678.4, 403.0)">0</text><text xml:space="preserve" font-family="Helvetica-Light" font-size="26.0" fill="#000000" transform="matrix(1.00, 0.00, -0.00, -1.00, 692.8, 403.0)">d</text><text xml:space="preserve" font-family="Helvetica-Light" font-size="26.0" fill="#000000" transform="matrix(1.00, 0.00, -0.00, -1.00, 708.7, 403.0)">2</text><text xml:space="preserve" font-family="Helvetica-Light" font-size="26.0" fill="#000000" transform="matrix(1.00, 0.00, -0.00, -1.00, 723.2, 403.0)">7</text><text xml:space="preserve" font-family="Helvetica-Light" font-size="26.0" fill="#000000" transform="matrix(1.00, 0.00, -0.00, -1.00, 737.6, 403.0)">…</text></g></g></g></g><g><clipPath id="clip-511"><path d="M 794.4 258.7 L 793.9 258.7 L 793.9 301.9 L 794.4 347.1 L 793.9 390.3 L 794.4 435.5 L 529.5 435.5 L 529.5 390.3 L 530.0 347.1 L 529.5 301.9 L 530.0 258.7 L 529.5 258.7 L 529.5 213.5 L 794.4 213.5 Z M 794.4 258.7 "></path></clipPath><g clip-path="url(#clip-511)"><g><clipPath id="clip-512"><path d="M 530.0 347.1 L 605.7 347.1 L 605.7 390.3 L 530.0 390.3 Z M 530.0 347.1 "></path></clipPath><g clip-path="url(#clip-512)"><text xml:space="preserve" font-family="Helvetica-Light" font-size="26.0" fill="#000000" transform="matrix(1.00, 0.00, -0.00, -1.00, 550.0, 359.0)">i</text><text xml:space="preserve" font-family="Helvetica-Light" font-size="26.0" fill="#000000" transform="matrix(1.00, 0.00, -0.00, -1.00, 555.8, 359.0)">d</text><text xml:space="preserve" font-family="Helvetica-Light" font-size="26.0" fill="#000000" transform="matrix(1.00, 0.00, -0.00, -1.00, 571.7, 359.0)">2</text></g></g></g></g><g><clipPath id="clip-513"><path d="M 794.4 258.7 L 793.9 258.7 L 793.9 301.9 L 794.4 347.1 L 793.9 390.3 L 794.4 435.5 L 529.5 435.5 L 529.5 390.3 L 530.0 347.1 L 529.5 301.9 L 530.0 258.7 L 529.5 258.7 L 529.5 213.5 L 794.4 213.5 Z M 794.4 258.7 "></path></clipPath><g clip-path="url(#clip-513)"><g><clipPath id="clip-514"><path d="M 605.7 347.1 L 793.9 347.1 L 793.9 390.3 L 605.7 390.3 Z M 605.7 347.1 "></path></clipPath><g clip-path="url(#clip-514)"><text xml:space="preserve" font-family="Helvetica-Light" font-size="26.0" fill="#000000" transform="matrix(1.00, 0.00, -0.00, -1.00, 636.0, 359.0)">9</text><text xml:space="preserve" font-family="Helvetica-Light" font-size="26.0" fill="#000000" transform="matrix(1.00, 0.00, -0.00, -1.00, 650.5, 359.0)">5</text><text xml:space="preserve" font-family="Helvetica-Light" font-size="26.0" fill="#000000" transform="matrix(1.00, 0.00, -0.00, -1.00, 664.9, 359.0)">8</text><text xml:space="preserve" font-family="Helvetica-Light" font-size="26.0" fill="#000000" transform="matrix(1.00, 0.00, -0.00, -1.00, 679.4, 359.0)">2</text><text xml:space="preserve" font-family="Helvetica-Light" font-size="26.0" fill="#000000" transform="matrix(1.00, 0.00, -0.00, -1.00, 693.8, 359.0)">d</text><text xml:space="preserve" font-family="Helvetica-Light" font-size="26.0" fill="#000000" transform="matrix(1.00, 0.00, -0.00, -1.00, 709.7, 359.0)">7</text><text xml:space="preserve" font-family="Helvetica-Light" font-size="26.0" fill="#000000" transform="matrix(1.00, 0.00, -0.00, -1.00, 724.2, 359.0)">6</text><text xml:space="preserve" font-family="Helvetica-Light" font-size="26.0" fill="#000000" transform="matrix(1.00, 0.00, -0.00, -1.00, 738.6, 359.0)">…</text></g></g></g></g><g><clipPath id="clip-515"><path d="M 794.4 258.7 L 793.9 258.7 L 793.9 301.9 L 794.4 347.1 L 793.9 390.3 L 794.4 435.5 L 529.5 435.5 L 529.5 390.3 L 530.0 347.1 L 529.5 301.9 L 530.0 258.7 L 529.5 258.7 L 529.5 213.5 L 794.4 213.5 Z M 794.4 258.7 "></path></clipPath><g clip-path="url(#clip-515)"><g><clipPath id="clip-516"><path d="M 530.0 258.7 L 605.7 258.7 L 605.7 301.9 L 530.0 301.9 Z M 530.0 258.7 "></path></clipPath><g clip-path="url(#clip-516)"><text xml:space="preserve" font-family="Helvetica-Light" font-size="26.0" fill="#000000" transform="matrix(1.00, 0.00, -0.00, -1.00, 550.0, 271.0)">i</text><text xml:space="preserve" font-family="Helvetica-Light" font-size="26.0" fill="#000000" transform="matrix(1.00, 0.00, -0.00, -1.00, 555.8, 271.0)">d</text><text xml:space="preserve" font-family="Helvetica-Light" font-size="26.0" fill="#000000" transform="matrix(1.00, 0.00, -0.00, -1.00, 571.7, 271.0)">4</text></g></g></g></g><g><clipPath id="clip-517"><path d="M 794.4 258.7 L 793.9 258.7 L 793.9 301.9 L 794.4 347.1 L 793.9 390.3 L 794.4 435.5 L 529.5 435.5 L 529.5 390.3 L 530.0 347.1 L 529.5 301.9 L 530.0 258.7 L 529.5 258.7 L 529.5 213.5 L 794.4 213.5 Z M 794.4 258.7 "></path></clipPath><g clip-path="url(#clip-517)"><g><clipPath id="clip-518"><path d="M 605.7 258.7 L 793.9 258.7 L 793.9 301.9 L 605.7 301.9 Z M 605.7 258.7 "></path></clipPath><g clip-path="url(#clip-518)"><text xml:space="preserve" font-family="Helvetica-Light" font-size="26.0" fill="#000000" transform="matrix(1.00, 0.00, -0.00, -1.00, 636.0, 271.0)">9</text><text xml:space="preserve" font-family="Helvetica-Light" font-size="26.0" fill="#000000" transform="matrix(1.00, 0.00, -0.00, -1.00, 650.5, 271.0)">5</text><text xml:space="preserve" font-family="Helvetica-Light" font-size="26.0" fill="#000000" transform="matrix(1.00, 0.00, -0.00, -1.00, 664.9, 271.0)">8</text><text xml:space="preserve" font-family="Helvetica-Light" font-size="26.0" fill="#000000" transform="matrix(1.00, 0.00, -0.00, -1.00, 679.4, 271.0)">2</text><text xml:space="preserve" font-family="Helvetica-Light" font-size="26.0" fill="#000000" transform="matrix(1.00, 0.00, -0.00, -1.00, 693.8, 271.0)">d</text><text xml:space="preserve" font-family="Helvetica-Light" font-size="26.0" fill="#000000" transform="matrix(1.00, 0.00, -0.00, -1.00, 709.7, 271.0)">7</text><text xml:space="preserve" font-family="Helvetica-Light" font-size="26.0" fill="#000000" transform="matrix(1.00, 0.00, -0.00, -1.00, 724.2, 271.0)">6</text><text xml:space="preserve" font-family="Helvetica-Light" font-size="26.0" fill="#000000" transform="matrix(1.00, 0.00, -0.00, -1.00, 738.6, 271.0)">…</text></g></g></g></g><g><clipPath id="clip-519"><path d="M 794.4 258.7 L 793.9 258.7 L 793.9 301.9 L 794.4 347.1 L 793.9 390.3 L 794.4 435.5 L 529.5 435.5 L 529.5 390.3 L 530.0 347.1 L 529.5 301.9 L 530.0 258.7 L 529.5 258.7 L 529.5 213.5 L 794.4 213.5 Z M 794.4 258.7 "></path></clipPath><g clip-path="url(#clip-519)"><g><clipPath id="clip-520"><path d="M 530.5 214.5 L 605.7 214.5 L 605.7 257.7 L 530.5 257.7 Z M 530.5 214.5 "></path></clipPath><g clip-path="url(#clip-520)"><text xml:space="preserve" font-family="Helvetica-Light" font-size="26.0" fill="#000000" transform="matrix(1.00, 0.00, -0.00, -1.00, 550.0, 227.0)">i</text><text xml:space="preserve" font-family="Helvetica-Light" font-size="26.0" fill="#000000" transform="matrix(1.00, 0.00, -0.00, -1.00, 555.8, 227.0)">d</text><text xml:space="preserve" font-family="Helvetica-Light" font-size="26.0" fill="#000000" transform="matrix(1.00, 0.00, -0.00, -1.00, 571.7, 227.0)">5</text></g></g></g></g><g><clipPath id="clip-521"><path d="M 794.4 258.7 L 793.9 258.7 L 793.9 301.9 L 794.4 347.1 L 793.9 390.3 L 794.4 435.5 L 529.5 435.5 L 529.5 390.3 L 530.0 347.1 L 529.5 301.9 L 530.0 258.7 L 529.5 258.7 L 529.5 213.5 L 794.4 213.5 Z M 794.4 258.7 "></path></clipPath><g clip-path="url(#clip-521)"><g><clipPath id="clip-522"><path d="M 605.7 214.5 L 793.4 214.5 L 793.4 257.7 L 605.7 257.7 Z M 605.7 214.5 "></path></clipPath><g clip-path="url(#clip-522)"><text xml:space="preserve" font-family="Helvetica-Light" font-size="26.0" fill="#000000" transform="matrix(1.00, 0.00, -0.00, -1.00, 639.0, 227.0)">8</text><text xml:space="preserve" font-family="Helvetica-Light" font-size="26.0" fill="#000000" transform="matrix(1.00, 0.00, -0.00, -1.00, 653.5, 227.0)">d</text><text xml:space="preserve" font-family="Helvetica-Light" font-size="26.0" fill="#000000" transform="matrix(1.00, 0.00, -0.00, -1.00, 669.3, 227.0)">4</text><text xml:space="preserve" font-family="Helvetica-Light" font-size="26.0" fill="#000000" transform="matrix(1.00, 0.00, -0.00, -1.00, 683.8, 227.0)">9</text><text xml:space="preserve" font-family="Helvetica-Light" font-size="26.0" fill="#000000" transform="matrix(1.00, 0.00, -0.00, -1.00, 698.3, 227.0)">f</text><text xml:space="preserve" font-family="Helvetica-Light" font-size="26.0" fill="#000000" transform="matrix(1.00, 0.00, -0.00, -1.00, 705.5, 227.0)">3</text><text xml:space="preserve" font-family="Helvetica-Light" font-size="26.0" fill="#000000" transform="matrix(1.00, 0.00, -0.00, -1.00, 719.9, 227.0)">c</text><text xml:space="preserve" font-family="Helvetica-Light" font-size="26.0" fill="#000000" transform="matrix(1.00, 0.00, -0.00, -1.00, 734.4, 227.0)">…</text></g></g></g></g><g><clipPath id="clip-523"><path d="M 794.4 258.7 L 793.9 258.7 L 793.9 301.9 L 794.4 347.1 L 793.9 390.3 L 794.4 435.5 L 529.5 435.5 L 529.5 390.3 L 530.0 347.1 L 529.5 301.9 L 530.0 258.7 L 529.5 258.7 L 529.5 213.5 L 794.4 213.5 Z M 794.4 258.7 "></path></clipPath><g clip-path="url(#clip-523)"><path d="M 1.5 46.2 L 266.4 46.2 " fill="none" stroke="#F5D327" stroke-width="1.00" transform="matrix(1.00, 0.00, 0.00, -1.00, 528.0, 437.0)"></path><path d="M 1.5 90.4 L 266.4 90.4 " fill="none" stroke="#C82505" stroke-width="1.00" transform="matrix(1.00, 0.00, 0.00, -1.00, 528.0, 437.0)"></path><path d="M 1.5 134.6 L 266.4 134.6 " fill="none" stroke="#C82505" stroke-width="1.00" transform="matrix(1.00, 0.00, 0.00, -1.00, 528.0, 437.0)"></path><path d="M 1.5 178.8 L 266.4 178.8 " fill="none" stroke="#6FBF40" stroke-width="1.00" transform="matrix(1.00, 0.00, 0.00, -1.00, 528.0, 437.0)"></path><path d="M 2.0 1.5 L 2.0 46.7 " fill="none" stroke="#F5D327" stroke-width="1.00" transform="matrix(1.00, 0.00, 0.00, -1.00, 528.0, 437.0)"></path><path d="M 2.0 89.9 L 2.0 135.1 " fill="none" stroke="#C82505" stroke-width="1.00" transform="matrix(1.00, 0.00, 0.00, -1.00, 528.0, 437.0)"></path><path d="M 2.0 178.3 L 2.0 223.5 " fill="none" stroke="#6FBF40" stroke-width="1.00" transform="matrix(1.00, 0.00, 0.00, -1.00, 528.0, 437.0)"></path><path d="M 265.9 1.5 L 265.9 46.7 " fill="none" stroke="#F5D327" stroke-width="1.00" transform="matrix(1.00, 0.00, 0.00, -1.00, 528.0, 437.0)"></path><path d="M 265.9 89.9 L 265.9 135.1 " fill="none" stroke="#C82505" stroke-width="1.00" transform="matrix(1.00, 0.00, 0.00, -1.00, 528.0, 437.0)"></path><path d="M 265.9 178.3 L 265.9 223.5 " fill="none" stroke="#6FBF40" stroke-width="1.00" transform="matrix(1.00, 0.00, 0.00, -1.00, 528.0, 437.0)"></path><path d="M 1.5 2.0 L 266.4 2.0 " fill="none" stroke="#F5D327" stroke-width="1.00" transform="matrix(1.00, 0.00, 0.00, -1.00, 528.0, 437.0)"></path><path d="M 1.5 223.0 L 266.4 223.0 " fill="none" stroke="#6FBF40" stroke-width="1.00" transform="matrix(1.00, 0.00, 0.00, -1.00, 528.0, 437.0)"></path></g></g><text xml:space="preserve" font-family="Helvetica-Light" font-size="36.0" fill="#C82505" transform="matrix(1.00, 0.00, -0.00, -1.00, 500.0, 311.0)">-</text><text xml:space="preserve" font-family="Helvetica-Light" font-size="36.0" fill="#52575F" transform="matrix(1.00, 0.00, -0.00, -1.00, 274.0, 496.0)">c</text><text xml:space="preserve" font-family="Helvetica-Light" font-size="36.0" fill="#52575F" transform="matrix(1.00, 0.00, -0.00, -1.00, 294.0, 496.0)">o</text><text xml:space="preserve" font-family="Helvetica-Light" font-size="36.0" fill="#52575F" transform="matrix(1.00, 0.00, -0.00, -1.00, 314.0, 496.0)">m</text><text xml:space="preserve" font-family="Helvetica-Light" font-size="36.0" fill="#52575F" transform="matrix(1.00, 0.00, -0.00, -1.00, 344.0, 496.0)">m</text><text xml:space="preserve" font-family="Helvetica-Light" font-size="36.0" fill="#52575F" transform="matrix(1.00, 0.00, -0.00, -1.00, 374.0, 496.0)">i</text><text xml:space="preserve" font-family="Helvetica-Light" font-size="36.0" fill="#52575F" transform="matrix(1.00, 0.00, -0.00, -1.00, 382.0, 496.0)">t</text><text xml:space="preserve" font-family="Helvetica-Light" font-size="36.0" fill="#52575F" transform="matrix(1.00, 0.00, -0.00, -1.00, 392.0, 496.0)"> </text><text xml:space="preserve" font-family="Helvetica-Light" font-size="36.0" fill="#52575F" transform="matrix(1.00, 0.00, -0.00, -1.00, 402.0, 496.0)">A</text><text xml:space="preserve" font-family="Helvetica-Light" font-size="36.0" fill="#52575F" transform="matrix(1.00, 0.00, -0.00, -1.00, 586.0, 496.0)">c</text><text xml:space="preserve" font-family="Helvetica-Light" font-size="36.0" fill="#52575F" transform="matrix(1.00, 0.00, -0.00, -1.00, 606.0, 496.0)">o</text><text xml:space="preserve" font-family="Helvetica-Light" font-size="36.0" fill="#52575F" transform="matrix(1.00, 0.00, -0.00, -1.00, 626.0, 496.0)">m</text><text xml:space="preserve" font-family="Helvetica-Light" font-size="36.0" fill="#52575F" transform="matrix(1.00, 0.00, -0.00, -1.00, 656.0, 496.0)">m</text><text xml:space="preserve" font-family="Helvetica-Light" font-size="36.0" fill="#52575F" transform="matrix(1.00, 0.00, -0.00, -1.00, 686.0, 496.0)">i</text><text xml:space="preserve" font-family="Helvetica-Light" font-size="36.0" fill="#52575F" transform="matrix(1.00, 0.00, -0.00, -1.00, 694.0, 496.0)">t</text><text xml:space="preserve" font-family="Helvetica-Light" font-size="36.0" fill="#52575F" transform="matrix(1.00, 0.00, -0.00, -1.00, 704.0, 496.0)"> </text><text xml:space="preserve" font-family="Helvetica-Light" font-size="36.0" fill="#52575F" transform="matrix(1.00, 0.00, -0.00, -1.00, 714.0, 496.0)">B</text><g><clipPath id="clip-524"><path d="M 498.2 356.7 L 523.6 380.3 L 527.6 375.9 L 502.3 352.3 Z M 498.2 356.7 "></path></clipPath><g clip-path="url(#clip-524)"><path d="M 521.0 375.0 C 521.0 375.0 521.2 375.2 521.2 375.2 C 521.2 375.1 521.0 375.0 521.0 375.0 C 521.0 375.0 521.0 375.0 521.0 375.0 Z M 520.6 374.6 C 520.7 374.7 520.8 374.9 520.9 374.9 C 520.8 374.8 520.7 374.6 520.6 374.6 C 520.6 374.6 520.6 374.6 520.6 374.6 Z M 521.3 375.1 C 521.4 375.1 521.6 375.3 521.6 375.4 C 521.5 375.3 521.4 375.1 521.3 375.1 C 521.3 375.1 521.3 375.1 521.3 375.1 Z M 515.4 370.9 C 515.5 370.9 515.6 371.1 515.7 371.1 C 515.6 371.0 515.5 370.8 515.4 370.9 C 515.4 370.9 515.4 370.9 515.4 370.9 Z M 516.6 371.7 C 516.6 371.8 516.8 371.9 516.8 372.0 C 516.7 371.9 516.6 371.7 516.6 371.7 C 516.6 371.7 516.6 371.7 516.6 371.7 Z M 517.1 372.3 C 517.3 372.4 517.4 372.6 517.4 372.5 C 517.4 372.5 517.2 372.3 517.1 372.3 C 517.1 372.3 517.1 372.3 517.1 372.3 Z M 522.6 373.4 C 522.5 373.2 522.4 373.1 522.3 373.0 C 521.8 372.6 522.5 373.3 522.6 373.4 C 522.6 373.4 522.6 373.4 522.6 373.4 Z M 518.3 373.2 C 518.2 373.1 518.1 373.0 518.1 373.0 C 518.2 373.1 518.3 373.2 518.3 373.2 C 518.3 373.2 518.3 373.2 518.3 373.2 Z M 519.2 373.9 C 519.2 374.0 519.8 374.4 520.1 374.7 C 519.8 374.4 519.2 373.9 519.2 373.9 C 519.2 373.9 519.2 373.9 519.2 373.9 Z M 521.4 372.2 C 521.1 371.9 520.6 371.4 520.3 371.2 C 520.0 371.0 520.7 371.7 521.3 372.2 C 521.9 372.8 521.5 372.3 521.8 372.5 C 522.0 372.7 521.6 372.2 521.3 372.0 C 521.0 371.8 521.4 372.2 521.4 372.2 C 521.4 372.2 521.4 372.2 521.4 372.2 Z M 521.6 372.1 C 521.7 372.2 521.8 372.3 521.9 372.3 C 521.8 372.2 521.7 372.1 521.6 372.1 C 521.6 372.1 521.6 372.1 521.6 372.1 Z M 502.7 356.4 C 502.4 356.9 502.4 357.5 502.5 358.0 C 502.5 358.1 502.6 358.2 502.6 358.4 C 503.0 359.1 503.5 359.7 504.1 360.3 C 504.2 360.4 504.3 360.5 504.4 360.7 C 504.8 361.0 505.1 361.4 505.5 361.7 C 505.6 361.8 505.7 361.9 505.8 362.1 C 506.2 362.5 506.7 362.9 507.1 363.3 C 507.3 363.5 507.5 363.7 507.7 363.9 C 507.8 364.1 508.3 364.5 508.5 364.6 C 508.2 364.6 509.1 365.3 509.0 365.2 C 509.1 365.3 509.2 365.4 509.3 365.4 C 509.4 365.5 509.3 365.4 509.2 365.3 C 509.4 365.3 509.5 365.4 509.6 365.5 C 509.7 365.6 509.8 365.7 509.9 365.8 C 510.2 366.2 510.7 366.6 511.0 366.8 C 512.0 367.7 514.6 370.1 514.1 369.6 C 513.6 369.1 513.9 369.3 514.1 369.5 C 514.1 369.5 514.2 369.6 514.4 369.7 C 514.4 369.7 514.3 369.8 514.3 369.7 C 514.5 370.0 514.8 370.3 515.2 370.6 C 515.1 370.5 515.1 370.4 515.0 370.4 C 515.2 370.6 515.1 370.4 515.2 370.5 C 515.5 370.7 515.7 370.9 515.3 370.5 C 515.7 370.8 516.0 370.9 516.3 371.2 C 516.4 371.3 516.4 371.2 516.3 371.2 C 516.5 371.4 517.0 371.9 517.0 371.9 C 517.1 372.0 515.7 370.7 515.9 371.0 C 516.0 371.1 516.2 371.3 516.3 371.3 C 516.1 371.2 515.9 371.0 515.8 370.9 C 515.9 371.0 516.1 371.2 516.1 371.3 C 516.0 371.2 515.9 371.1 515.9 371.1 C 516.1 371.2 516.2 371.4 516.4 371.6 C 516.5 371.6 516.3 371.4 516.5 371.6 C 516.6 371.6 516.4 371.5 516.4 371.5 C 516.6 371.6 516.9 371.9 517.0 372.0 C 517.1 372.0 516.8 371.8 516.8 371.8 C 517.4 372.3 518.1 372.9 518.3 373.1 C 518.5 373.3 518.3 373.1 518.2 373.0 C 518.5 373.2 518.7 373.4 519.0 373.6 C 519.1 373.8 519.1 373.7 519.0 373.7 C 519.1 373.7 519.1 373.7 519.2 373.8 C 519.2 373.8 519.2 373.8 519.3 373.8 C 519.2 373.7 519.0 373.6 518.9 373.5 C 519.1 373.6 519.4 374.0 519.6 374.1 C 519.4 373.8 519.2 373.6 518.9 373.4 C 519.4 373.8 519.9 374.4 520.3 374.7 C 520.3 374.6 520.3 374.6 520.2 374.5 C 520.4 374.7 520.6 374.9 520.7 375.0 C 520.8 375.0 521.0 375.2 521.1 375.3 C 520.9 375.0 520.7 374.9 520.5 374.7 C 520.5 374.7 520.6 374.7 520.6 374.7 C 520.2 374.3 519.9 374.2 519.6 373.9 C 519.6 373.9 519.5 373.9 519.5 373.9 C 519.5 373.7 519.8 374.1 519.8 374.1 C 519.4 373.6 518.9 373.2 518.7 373.0 C 519.3 373.5 519.7 373.9 520.1 374.2 C 520.1 374.1 519.7 373.8 519.5 373.6 C 520.4 374.3 520.5 374.4 520.5 374.4 C 520.5 374.4 520.4 374.3 520.4 374.3 C 520.4 374.3 520.4 374.3 520.4 374.3 C 520.8 374.6 521.2 375.0 521.2 375.0 C 521.2 375.0 520.9 374.6 520.5 374.3 C 520.6 374.3 520.6 374.3 520.7 374.4 C 521.1 374.7 521.7 375.1 522.1 375.5 C 522.0 375.4 522.1 375.5 522.2 375.5 C 522.1 375.4 521.9 375.2 521.7 375.1 C 521.8 375.1 521.9 375.2 521.9 375.2 C 521.9 375.1 521.8 375.0 521.7 375.0 C 522.0 375.1 522.2 375.3 522.4 375.5 C 522.5 375.5 522.3 375.4 522.3 375.4 C 522.6 375.6 522.8 375.9 523.0 376.0 C 522.9 375.8 522.5 375.5 522.4 375.4 C 522.5 375.4 522.6 375.5 522.7 375.5 C 522.8 375.6 522.9 375.7 522.7 375.5 C 522.7 375.5 522.7 375.5 522.7 375.5 C 522.8 375.5 523.1 375.8 523.2 375.8 C 523.1 375.7 522.8 375.4 522.7 375.3 C 522.8 375.3 522.9 375.5 523.0 375.5 C 522.6 375.1 522.7 375.1 522.5 375.1 C 522.6 375.1 522.7 375.2 522.7 375.2 C 522.4 375.0 522.2 374.8 522.0 374.6 C 522.0 374.6 522.0 374.6 522.0 374.6 C 522.0 374.6 522.0 374.6 522.0 374.6 C 522.0 374.6 522.0 374.6 522.0 374.6 C 522.0 374.6 522.1 374.6 522.1 374.5 C 522.2 374.6 522.3 374.7 522.4 374.9 C 522.4 374.8 522.3 374.6 522.1 374.5 C 522.1 374.5 522.1 374.5 522.1 374.5 C 522.4 374.7 522.8 375.0 523.0 375.2 C 522.9 375.1 522.5 374.7 522.2 374.5 C 522.2 374.5 522.3 374.5 522.3 374.5 C 521.9 374.1 521.5 373.7 521.1 373.3 C 521.3 373.4 521.5 373.7 521.8 373.9 C 521.9 374.0 522.0 374.1 522.2 374.2 C 522.5 374.5 523.4 375.4 523.6 375.5 C 523.7 375.6 522.7 374.7 522.8 374.7 C 522.8 374.6 523.2 375.0 523.0 374.9 C 522.9 374.7 522.7 374.5 522.5 374.4 C 522.5 374.3 522.5 374.3 522.5 374.3 C 522.7 374.4 522.9 374.6 522.8 374.6 C 522.9 374.7 523.1 374.9 523.1 374.9 C 523.1 374.8 523.1 374.8 523.1 374.8 C 523.1 374.8 523.2 374.9 523.2 374.9 C 523.0 374.7 522.8 374.4 522.5 374.2 C 522.5 374.2 522.5 374.2 522.5 374.1 C 522.5 374.1 522.7 374.3 522.9 374.4 C 523.0 374.5 522.7 374.2 522.5 374.0 C 522.5 374.0 522.4 373.9 522.4 373.8 C 522.5 373.9 522.6 374.0 522.7 374.1 C 522.9 374.2 522.9 374.2 523.0 374.3 C 522.8 374.1 522.5 373.8 522.3 373.6 C 522.2 373.5 522.1 373.4 522.1 373.2 C 522.3 373.4 522.5 373.6 522.6 373.6 C 522.7 373.7 522.8 373.8 522.8 373.8 C 522.8 373.7 523.0 373.9 523.0 373.8 C 522.8 373.8 522.6 373.5 522.5 373.5 C 522.3 373.4 522.1 373.2 522.0 373.0 C 521.9 373.0 521.9 373.0 521.9 372.9 C 522.1 373.1 522.2 373.2 522.4 373.3 C 522.3 373.2 521.9 372.8 521.6 372.5 C 521.0 371.9 520.1 371.5 519.5 370.9 C 519.5 370.9 519.4 370.9 519.4 370.8 C 519.4 370.8 519.3 370.7 519.3 370.6 C 519.4 370.8 519.6 370.9 519.7 371.0 C 519.3 370.5 520.4 371.6 520.5 371.6 C 519.8 370.8 518.4 369.6 517.6 368.8 C 517.8 369.0 517.9 369.0 517.7 368.8 C 517.6 368.8 517.6 368.7 517.5 368.6 C 518.4 369.4 519.2 370.3 520.0 370.9 C 519.6 370.5 518.9 369.9 518.8 369.7 C 518.9 369.8 519.1 370.0 519.1 370.0 C 519.0 369.8 518.2 369.2 518.0 368.9 C 519.1 369.9 520.4 371.2 521.2 371.8 C 520.1 370.8 518.6 369.3 517.6 368.5 C 517.8 368.6 517.7 368.7 517.6 368.6 C 517.3 368.3 517.0 368.1 516.7 367.8 C 516.7 367.7 516.7 367.7 516.8 367.9 C 517.0 368.0 517.0 368.0 517.1 368.0 C 517.0 368.0 516.1 367.1 516.8 367.8 C 517.6 368.5 518.9 369.6 518.2 368.9 C 517.4 368.2 517.2 367.9 517.6 368.3 C 518.0 368.6 519.4 369.8 518.9 369.4 C 518.5 369.0 517.6 368.1 517.1 367.6 C 516.5 367.1 517.3 368.1 516.5 367.4 C 515.8 366.6 516.4 367.2 516.3 367.1 C 516.1 366.8 515.6 366.4 515.2 366.1 C 514.9 365.8 514.6 365.4 514.4 365.3 C 514.4 365.2 515.3 366.1 515.0 365.7 C 514.1 364.9 513.2 364.1 513.5 364.5 C 513.0 364.0 512.6 363.6 512.3 363.3 C 511.8 362.8 511.2 362.3 511.2 362.2 C 511.1 362.1 509.6 360.9 509.2 360.3 C 509.2 360.2 508.2 359.4 508.1 359.4 C 507.3 358.5 507.4 358.6 506.5 357.8 C 505.8 357.1 505.5 356.9 505.4 356.8 C 504.6 356.1 504.7 356.1 504.1 355.9 C 503.9 355.9 503.8 355.7 503.6 355.8 C 503.3 355.9 503.0 356.1 502.7 356.4 C 502.7 356.4 502.7 356.4 502.7 356.4 Z M 521.8 374.6 C 521.9 374.7 522.2 374.9 522.3 375.1 C 522.1 375.0 521.9 374.8 521.7 374.6 C 521.8 374.6 521.8 374.6 521.8 374.6 C 521.8 374.6 521.8 374.6 521.8 374.6 Z M 521.3 373.0 C 521.4 373.1 521.5 373.2 521.6 373.3 C 521.7 373.4 521.8 373.5 522.0 373.6 C 522.0 373.6 521.8 373.3 521.6 373.1 C 521.6 373.1 521.6 373.1 521.6 373.1 C 521.7 373.2 521.8 373.3 522.0 373.4 C 522.0 373.4 522.0 373.5 522.1 373.5 C 522.1 373.5 522.0 373.5 522.0 373.5 C 522.0 373.5 522.1 373.6 522.2 373.8 C 522.2 373.8 522.2 373.8 522.2 373.9 C 522.2 373.9 522.1 373.8 522.2 373.9 C 522.1 373.9 521.9 373.7 521.8 373.5 C 522.0 373.6 521.4 373.1 521.2 372.9 C 521.3 372.9 521.3 373.0 521.3 373.0 Z M 518.9 373.3 C 518.8 373.3 518.7 373.2 518.6 373.1 C 518.8 373.2 518.9 373.3 518.9 373.4 C 518.9 373.4 518.9 373.3 518.9 373.3 Z M 511.9 367.4 C 512.4 367.8 513.4 368.8 513.5 368.8 C 513.6 368.9 513.7 369.0 513.8 369.1 C 513.1 368.5 512.4 367.8 511.9 367.4 C 511.9 367.4 511.9 367.4 511.9 367.4 Z M 515.7 366.8 C 515.7 366.8 515.7 366.8 515.6 366.7 C 515.0 366.2 514.7 366.0 515.0 366.3 C 515.3 366.6 515.9 367.1 515.7 367.0 C 515.5 366.8 515.2 366.6 515.0 366.3 C 514.8 366.1 514.6 365.9 514.5 365.7 C 514.9 366.1 515.3 366.4 515.7 366.8 C 515.7 366.8 515.7 366.8 515.7 366.8 Z M 514.3 365.4 C 514.5 365.6 514.6 365.7 514.8 365.9 C 514.7 365.8 514.5 365.6 514.3 365.5 C 514.3 365.5 514.3 365.5 514.3 365.4 Z M 514.2 365.2 C 514.5 365.5 514.8 365.8 514.5 365.5 C 514.4 365.5 514.3 365.4 514.2 365.3 C 514.2 365.3 514.2 365.3 514.2 365.2 Z M 514.0 365.0 C 514.0 365.0 514.0 365.1 514.1 365.2 C 513.9 365.0 513.5 364.6 513.6 364.6 C 513.7 364.8 513.9 364.9 514.0 365.0 C 514.0 365.0 514.0 365.0 514.0 365.0 Z M 511.5 367.2 C 511.6 367.3 511.7 367.4 511.5 367.2 C 511.4 367.1 511.3 367.1 511.2 367.0 C 511.3 367.0 511.4 367.1 511.5 367.2 Z M 520.5 371.2 C 520.4 371.2 520.2 371.0 520.1 370.9 C 519.9 371.0 520.5 371.4 520.5 371.2 C 520.5 371.2 520.5 371.2 520.5 371.2 Z M 521.3 371.9 C 521.2 371.9 521.0 371.7 520.9 371.6 C 520.8 371.7 521.3 372.1 521.3 371.9 C 521.3 371.9 521.3 371.9 521.3 371.9 Z M 509.2 360.3 C 509.2 360.3 509.2 360.3 509.2 360.3 C 509.2 360.3 509.2 360.3 509.2 360.3 C 509.2 360.3 509.2 360.3 509.2 360.3 Z M 509.2 360.3 " fill="#A6AAA8"></path></g></g><g><clipPath id="clip-525"><path d="M 503.4 352.3 L 490.2 366.0 L 494.6 370.1 L 507.7 356.5 Z M 503.4 352.3 "></path></clipPath><g clip-path="url(#clip-525)"><path d="M 494.7 364.5 C 494.6 364.5 494.5 364.6 494.6 364.6 C 494.6 364.6 494.7 364.5 494.7 364.5 C 494.7 364.5 494.7 364.5 494.7 364.5 Z M 494.8 364.3 C 494.7 364.3 494.7 364.4 494.7 364.4 C 494.7 364.4 494.8 364.4 494.8 364.3 C 494.8 364.3 494.8 364.3 494.8 364.3 Z M 494.7 364.7 C 494.6 364.7 494.5 364.8 494.5 364.8 C 494.6 364.8 494.7 364.7 494.7 364.7 C 494.7 364.7 494.7 364.7 494.7 364.7 Z M 496.3 361.7 C 496.2 361.7 496.1 361.8 496.2 361.8 C 496.2 361.8 496.3 361.8 496.3 361.7 C 496.3 361.7 496.3 361.7 496.3 361.7 Z M 495.9 362.3 C 495.8 362.3 495.8 362.4 495.8 362.4 C 495.8 362.4 495.9 362.3 495.9 362.3 C 495.9 362.3 495.9 362.3 495.9 362.3 Z M 495.6 362.5 C 495.6 362.6 495.5 362.7 495.6 362.7 C 495.5 362.6 495.7 362.6 495.6 362.5 C 495.6 362.5 495.6 362.5 495.6 362.5 Z M 496.3 366.1 C 496.3 366.0 496.4 366.0 496.4 366.0 C 496.6 365.7 496.2 366.0 496.3 366.1 C 496.3 366.1 496.3 366.1 496.3 366.1 Z M 495.3 363.1 C 495.3 363.1 495.4 363.0 495.4 363.0 C 495.3 363.0 495.3 363.1 495.3 363.1 C 495.3 363.1 495.3 363.1 495.3 363.1 Z M 495.0 363.5 C 494.9 363.5 494.7 363.8 494.6 363.9 C 494.7 363.8 495.0 363.5 495.0 363.5 C 495.0 363.5 495.0 363.5 495.0 363.5 Z M 496.8 365.6 C 496.9 365.4 497.2 365.2 497.2 365.1 C 497.3 364.9 497.0 365.2 496.8 365.5 C 496.5 365.8 496.8 365.6 496.7 365.8 C 496.6 365.9 496.8 365.7 496.9 365.6 C 497.0 365.4 496.8 365.6 496.8 365.6 C 496.8 365.6 496.8 365.6 496.8 365.6 Z M 496.9 365.7 C 496.9 365.8 496.8 365.8 496.8 365.9 C 496.9 365.9 497.0 365.8 496.9 365.7 C 496.9 365.7 496.9 365.7 496.9 365.7 Z M 503.6 356.8 C 503.2 356.5 502.8 356.3 502.4 356.2 C 502.4 356.2 502.3 356.2 502.2 356.2 C 501.8 356.3 501.4 356.4 501.1 356.7 C 501.1 356.7 501.0 356.8 501.0 356.8 C 500.8 356.9 500.6 357.1 500.4 357.2 C 500.4 357.3 500.3 357.3 500.3 357.4 C 500.0 357.5 499.9 357.8 499.7 358.0 C 499.6 358.1 499.5 358.1 499.4 358.2 C 499.3 358.2 499.1 358.4 499.1 358.5 C 499.0 358.4 498.7 358.8 498.8 358.8 C 498.7 358.8 498.7 358.9 498.7 358.9 C 498.7 359.0 498.7 358.9 498.8 358.9 C 498.8 359.0 498.7 359.0 498.7 359.1 C 498.6 359.1 498.6 359.2 498.5 359.2 C 498.3 359.3 498.2 359.5 498.1 359.7 C 497.7 360.1 496.6 361.3 496.8 361.1 C 497.1 360.9 497.0 361.1 496.9 361.1 C 496.9 361.2 496.9 361.2 496.8 361.3 C 496.8 361.3 496.8 361.3 496.8 361.2 C 496.7 361.3 496.5 361.4 496.4 361.6 C 496.4 361.6 496.5 361.6 496.5 361.6 C 496.4 361.6 496.5 361.6 496.5 361.7 C 496.4 361.8 496.3 361.9 496.5 361.7 C 496.4 361.9 496.3 362.1 496.3 362.3 C 496.2 362.3 496.2 362.3 496.2 362.3 C 496.1 362.3 495.9 362.5 495.9 362.5 C 495.8 362.5 496.4 362.0 496.3 362.0 C 496.2 362.1 496.2 362.2 496.1 362.2 C 496.2 362.1 496.3 362.0 496.3 361.9 C 496.2 362.0 496.2 362.1 496.1 362.1 C 496.2 362.0 496.2 362.0 496.2 362.0 C 496.1 362.1 496.1 362.1 496.0 362.2 C 496.0 362.2 496.1 362.2 496.0 362.3 C 496.0 362.3 496.0 362.2 496.0 362.2 C 496.0 362.3 495.9 362.5 495.8 362.5 C 495.8 362.5 495.9 362.4 495.9 362.4 C 495.7 362.7 495.4 363.0 495.3 363.1 C 495.3 363.2 495.3 363.1 495.4 363.1 C 495.3 363.2 495.2 363.3 495.1 363.4 C 495.0 363.5 495.1 363.5 495.1 363.5 C 495.1 363.5 495.1 363.5 495.1 363.5 C 495.1 363.5 495.0 363.6 495.0 363.6 C 495.1 363.6 495.2 363.5 495.2 363.4 C 495.2 363.5 495.0 363.7 495.0 363.8 C 495.1 363.7 495.2 363.6 495.3 363.5 C 495.1 363.7 494.8 363.9 494.7 364.1 C 494.7 364.1 494.8 364.1 494.8 364.1 C 494.7 364.1 494.6 364.2 494.6 364.3 C 494.5 364.4 494.5 364.4 494.4 364.5 C 494.6 364.4 494.7 364.3 494.7 364.2 C 494.7 364.2 494.7 364.3 494.7 364.3 C 494.9 364.1 494.9 363.9 495.1 363.8 C 495.1 363.8 495.1 363.8 495.1 363.8 C 495.2 363.8 495.0 363.9 495.0 363.9 C 495.2 363.8 495.4 363.5 495.5 363.5 C 495.3 363.7 495.1 363.9 495.0 364.1 C 495.1 364.1 495.2 363.9 495.3 363.8 C 495.0 364.2 494.9 364.3 494.9 364.3 C 495.0 364.3 495.0 364.3 495.0 364.3 C 495.0 364.3 495.0 364.3 495.0 364.3 C 494.9 364.5 494.7 364.7 494.7 364.7 C 494.7 364.7 494.9 364.5 495.0 364.4 C 495.0 364.4 495.0 364.4 495.0 364.5 C 494.9 364.7 494.7 364.9 494.5 365.1 C 494.6 365.1 494.6 365.1 494.5 365.2 C 494.6 365.1 494.7 365.0 494.8 365.0 C 494.8 365.0 494.7 365.1 494.7 365.1 C 494.8 365.1 494.8 365.0 494.9 365.0 C 494.8 365.1 494.7 365.2 494.6 365.3 C 494.6 365.4 494.7 365.3 494.7 365.3 C 494.6 365.4 494.5 365.5 494.4 365.6 C 494.5 365.6 494.7 365.4 494.7 365.4 C 494.7 365.4 494.7 365.5 494.7 365.5 C 494.6 365.6 494.6 365.6 494.7 365.6 C 494.7 365.5 494.7 365.5 494.7 365.6 C 494.7 365.6 494.6 365.8 494.6 365.8 C 494.6 365.8 494.8 365.6 494.9 365.6 C 494.9 365.7 494.8 365.7 494.8 365.8 C 494.9 365.6 495.0 365.6 495.0 365.6 C 494.9 365.6 494.9 365.6 494.9 365.6 C 495.0 365.5 495.1 365.4 495.2 365.3 C 495.2 365.3 495.2 365.3 495.2 365.3 C 495.2 365.3 495.2 365.3 495.2 365.3 C 495.2 365.3 495.2 365.3 495.2 365.3 C 495.2 365.3 495.2 365.4 495.3 365.4 C 495.2 365.4 495.2 365.5 495.1 365.6 C 495.2 365.6 495.2 365.5 495.3 365.4 C 495.3 365.4 495.3 365.4 495.3 365.4 C 495.2 365.6 495.1 365.7 495.0 365.9 C 495.0 365.8 495.2 365.6 495.3 365.5 C 495.3 365.5 495.4 365.5 495.4 365.5 C 495.5 365.4 495.7 365.2 495.9 365.0 C 495.9 365.2 495.7 365.2 495.6 365.4 C 495.6 365.4 495.6 365.5 495.5 365.6 C 495.4 365.7 495.0 366.1 494.9 366.2 C 494.9 366.3 495.3 365.8 495.3 365.8 C 495.4 365.8 495.2 366.1 495.3 366.0 C 495.3 365.9 495.4 365.8 495.5 365.7 C 495.5 365.7 495.5 365.8 495.6 365.8 C 495.5 365.9 495.5 366.0 495.4 365.9 C 495.4 366.0 495.3 366.0 495.3 366.0 C 495.3 366.0 495.3 366.0 495.3 366.0 C 495.3 366.0 495.3 366.1 495.3 366.1 C 495.4 366.0 495.5 365.9 495.6 365.8 C 495.6 365.8 495.6 365.8 495.7 365.8 C 495.7 365.8 495.6 365.9 495.6 366.0 C 495.5 366.1 495.7 365.9 495.8 365.8 C 495.8 365.8 495.8 365.8 495.9 365.8 C 495.8 365.9 495.8 365.9 495.7 366.0 C 495.7 366.0 495.7 366.1 495.7 366.1 C 495.8 366.0 495.9 365.9 496.0 365.8 C 496.1 365.8 496.1 365.8 496.2 365.8 C 496.1 365.9 496.1 366.0 496.1 366.0 C 496.0 366.1 496.0 366.1 496.0 366.1 C 496.0 366.1 496.0 366.2 496.0 366.2 C 496.0 366.2 496.1 366.1 496.1 366.0 C 496.2 365.9 496.3 365.8 496.4 365.7 C 496.4 365.7 496.4 365.7 496.4 365.7 C 496.3 365.8 496.3 365.9 496.2 365.9 C 496.3 366.0 496.5 365.8 496.6 365.6 C 496.9 365.4 497.0 364.9 497.3 364.6 C 497.3 364.6 497.3 364.6 497.3 364.5 C 497.3 364.5 497.4 364.5 497.4 364.5 C 497.4 364.6 497.3 364.7 497.3 364.7 C 497.5 364.6 497.0 365.0 497.0 365.1 C 497.4 364.8 497.9 364.2 498.4 363.8 C 498.3 363.9 498.2 364.0 498.4 363.9 C 498.4 363.9 498.4 363.8 498.4 363.8 C 498.1 364.2 497.6 364.6 497.4 364.9 C 497.6 364.8 497.8 364.5 498.0 364.4 C 497.9 364.5 497.8 364.6 497.8 364.6 C 498.0 364.5 498.2 364.2 498.4 364.1 C 497.9 364.6 497.3 365.2 497.1 365.6 C 497.5 365.0 498.2 364.4 498.6 363.9 C 498.5 364.0 498.5 364.0 498.5 363.9 C 498.6 363.8 498.7 363.6 498.9 363.5 C 498.9 363.5 498.9 363.5 498.8 363.6 C 498.8 363.6 498.8 363.7 498.8 363.7 C 498.8 363.7 499.2 363.2 498.9 363.6 C 498.6 363.9 498.1 364.5 498.4 364.2 C 498.7 363.9 498.9 363.8 498.7 364.0 C 498.6 364.2 498.1 364.8 498.3 364.6 C 498.4 364.4 498.9 364.1 499.1 363.8 C 499.3 363.6 498.8 363.8 499.1 363.5 C 499.5 363.1 499.2 363.5 499.3 363.4 C 499.4 363.3 499.6 363.1 499.8 362.9 C 499.9 362.8 500.0 362.6 500.1 362.6 C 500.2 362.6 499.8 363.0 499.9 362.9 C 500.3 362.5 500.7 362.1 500.5 362.2 C 500.7 362.0 500.9 361.8 501.0 361.6 C 501.3 361.5 501.5 361.2 501.6 361.2 C 501.6 361.1 502.1 360.4 502.5 360.3 C 502.5 360.3 502.9 359.9 502.9 359.8 C 503.3 359.4 503.3 359.5 503.6 359.1 C 503.9 358.8 504.0 358.7 504.0 358.6 C 504.4 358.2 504.4 358.3 504.4 357.9 C 504.4 357.8 504.4 357.7 504.4 357.6 C 504.2 357.4 504.0 357.1 503.6 356.8 C 503.6 356.8 503.6 356.8 503.6 356.8 Z M 495.2 365.2 C 495.1 365.2 495.0 365.4 494.9 365.4 C 494.9 365.3 495.0 365.2 495.1 365.1 C 495.1 365.2 495.2 365.2 495.2 365.2 C 495.2 365.2 495.2 365.2 495.2 365.2 Z M 496.2 365.3 C 496.2 365.4 496.1 365.4 496.1 365.4 C 496.0 365.5 496.0 365.5 495.9 365.6 C 496.0 365.6 496.1 365.5 496.2 365.4 C 496.2 365.4 496.2 365.5 496.2 365.5 C 496.2 365.5 496.1 365.6 496.1 365.6 C 496.1 365.7 496.0 365.7 496.0 365.7 C 496.0 365.7 496.0 365.6 496.0 365.6 C 496.0 365.6 495.9 365.6 495.8 365.7 C 495.8 365.7 495.8 365.7 495.8 365.7 C 495.8 365.7 495.8 365.6 495.7 365.7 C 495.7 365.6 495.9 365.5 495.9 365.5 C 495.9 365.6 496.1 365.3 496.2 365.3 C 496.2 365.3 496.2 365.3 496.2 365.3 Z M 495.3 363.5 C 495.4 363.4 495.4 363.4 495.4 363.4 C 495.4 363.4 495.3 363.5 495.3 363.5 C 495.3 363.5 495.3 363.5 495.3 363.5 Z M 497.9 360.2 C 497.8 360.5 497.2 360.8 497.3 360.9 C 497.2 361.0 497.2 361.0 497.1 361.0 C 497.4 360.7 497.7 360.4 497.9 360.2 C 497.9 360.2 497.9 360.2 497.9 360.2 Z M 499.4 363.1 C 499.3 363.1 499.3 363.1 499.4 363.0 C 499.6 362.7 499.7 362.6 499.5 362.7 C 499.4 362.9 499.1 363.1 499.2 363.0 C 499.3 362.9 499.4 362.8 499.5 362.7 C 499.6 362.6 499.7 362.6 499.8 362.5 C 499.7 362.7 499.5 362.9 499.4 363.1 C 499.4 363.1 499.4 363.1 499.4 363.1 Z M 500.0 362.5 C 499.9 362.5 499.8 362.6 499.8 362.7 C 499.8 362.6 499.9 362.5 500.0 362.5 C 500.0 362.5 500.0 362.5 500.0 362.5 Z M 500.1 362.4 C 500.0 362.6 499.9 362.7 500.0 362.6 C 500.0 362.5 500.0 362.5 500.0 362.5 C 500.1 362.4 500.1 362.4 500.1 362.4 Z M 500.2 362.4 C 500.2 362.4 500.2 362.4 500.1 362.4 C 500.2 362.3 500.4 362.1 500.4 362.2 C 500.3 362.2 500.3 362.3 500.2 362.4 C 500.2 362.4 500.2 362.4 500.2 362.4 Z M 498.0 360.0 C 497.9 360.0 497.9 360.1 497.9 360.0 C 498.0 359.9 498.0 359.9 498.0 359.8 C 498.0 359.9 498.0 359.9 498.0 360.0 Z M 497.3 365.2 C 497.3 365.2 497.4 365.1 497.4 365.0 C 497.3 364.9 497.2 365.2 497.3 365.2 C 497.3 365.2 497.3 365.2 497.3 365.2 Z M 497.0 365.6 C 497.0 365.6 497.1 365.5 497.1 365.4 C 497.0 365.3 496.9 365.6 497.0 365.6 C 497.0 365.6 497.0 365.6 497.0 365.6 Z M 502.5 360.3 C 502.5 360.3 502.5 360.3 502.5 360.3 C 502.5 360.3 502.5 360.3 502.5 360.3 C 502.5 360.3 502.5 360.3 502.5 360.3 Z M 502.5 360.3 " fill="#A6AAA8"></path></g></g><g><clipPath id="clip-526"><path d="M 498.2 272.9 L 523.6 296.4 L 527.6 292.0 L 502.3 268.5 Z M 498.2 272.9 "></path></clipPath><g clip-path="url(#clip-526)"><path d="M 521.0 291.1 C 521.0 291.2 521.2 291.3 521.2 291.3 C 521.2 291.2 521.0 291.1 521.0 291.1 C 521.0 291.1 521.0 291.1 521.0 291.1 Z M 520.6 290.8 C 520.7 290.9 520.8 291.0 520.9 291.0 C 520.8 290.9 520.7 290.8 520.6 290.8 C 520.6 290.8 520.6 290.8 520.6 290.8 Z M 521.3 291.2 C 521.4 291.3 521.6 291.5 521.6 291.5 C 521.5 291.4 521.4 291.2 521.3 291.2 C 521.3 291.2 521.3 291.2 521.3 291.2 Z M 515.4 287.0 C 515.5 287.0 515.6 287.2 515.7 287.2 C 515.6 287.1 515.5 287.0 515.4 287.0 C 515.4 287.0 515.4 287.0 515.4 287.0 Z M 516.6 287.9 C 516.6 287.9 516.8 288.1 516.8 288.1 C 516.7 288.0 516.6 287.8 516.6 287.9 C 516.6 287.9 516.6 287.9 516.6 287.9 Z M 517.1 288.4 C 517.3 288.6 517.4 288.7 517.4 288.6 C 517.4 288.6 517.2 288.4 517.1 288.4 C 517.1 288.4 517.1 288.4 517.1 288.4 Z M 522.6 289.5 C 522.5 289.4 522.4 289.2 522.3 289.1 C 521.8 288.7 522.5 289.5 522.6 289.5 C 522.6 289.5 522.6 289.5 522.6 289.5 Z M 518.3 289.3 C 518.2 289.2 518.1 289.1 518.1 289.1 C 518.2 289.2 518.3 289.3 518.3 289.3 C 518.3 289.3 518.3 289.3 518.3 289.3 Z M 519.2 290.1 C 519.2 290.1 519.8 290.6 520.1 290.8 C 519.8 290.6 519.2 290.0 519.2 290.1 C 519.2 290.1 519.2 290.1 519.2 290.1 Z M 521.4 288.3 C 521.1 288.1 520.6 287.6 520.3 287.4 C 520.0 287.1 520.7 287.8 521.3 288.4 C 521.9 288.9 521.5 288.4 521.8 288.6 C 522.0 288.8 521.6 288.3 521.3 288.1 C 521.0 287.9 521.4 288.3 521.4 288.3 C 521.4 288.3 521.4 288.3 521.4 288.3 Z M 521.6 288.2 C 521.7 288.3 521.8 288.4 521.9 288.5 C 521.8 288.3 521.7 288.2 521.6 288.2 C 521.6 288.2 521.6 288.2 521.6 288.2 Z M 502.7 272.6 C 502.4 273.0 502.4 273.6 502.5 274.1 C 502.5 274.2 502.6 274.4 502.6 274.5 C 503.0 275.2 503.5 275.8 504.1 276.4 C 504.2 276.5 504.3 276.7 504.4 276.8 C 504.8 277.1 505.1 277.5 505.5 277.8 C 505.6 278.0 505.7 278.1 505.8 278.2 C 506.2 278.6 506.7 279.0 507.1 279.4 C 507.3 279.6 507.5 279.8 507.7 280.1 C 507.8 280.2 508.3 280.6 508.5 280.8 C 508.2 280.7 509.1 281.4 509.0 281.4 C 509.1 281.4 509.2 281.5 509.3 281.6 C 509.4 281.6 509.3 281.5 509.2 281.4 C 509.4 281.5 509.5 281.6 509.6 281.7 C 509.7 281.8 509.8 281.9 509.9 282.0 C 510.2 282.3 510.7 282.7 511.0 283.0 C 512.0 283.8 514.6 286.2 514.1 285.7 C 513.6 285.2 513.9 285.4 514.1 285.6 C 514.1 285.6 514.2 285.7 514.4 285.9 C 514.4 285.9 514.3 285.9 514.3 285.9 C 514.5 286.1 514.8 286.4 515.2 286.7 C 515.1 286.6 515.1 286.6 515.0 286.5 C 515.2 286.7 515.1 286.5 515.2 286.6 C 515.5 286.9 515.7 287.0 515.3 286.7 C 515.7 286.9 516.0 287.1 516.3 287.3 C 516.4 287.4 516.4 287.3 516.3 287.3 C 516.5 287.5 517.0 288.0 517.0 288.0 C 517.1 288.1 515.7 286.8 515.9 287.1 C 516.0 287.2 516.2 287.4 516.3 287.5 C 516.1 287.3 515.9 287.1 515.8 287.0 C 515.9 287.2 516.1 287.3 516.1 287.4 C 516.0 287.3 515.9 287.2 515.9 287.2 C 516.1 287.4 516.2 287.5 516.4 287.7 C 516.5 287.7 516.3 287.6 516.5 287.7 C 516.6 287.8 516.4 287.6 516.4 287.6 C 516.6 287.7 516.9 288.0 517.0 288.1 C 517.1 288.1 516.8 287.9 516.8 287.9 C 517.4 288.4 518.1 289.0 518.3 289.2 C 518.5 289.4 518.3 289.2 518.2 289.1 C 518.5 289.3 518.7 289.5 519.0 289.8 C 519.1 289.9 519.1 289.9 519.0 289.8 C 519.1 289.8 519.1 289.9 519.2 289.9 C 519.2 289.9 519.2 289.9 519.3 290.0 C 519.2 289.9 519.0 289.7 518.9 289.6 C 519.1 289.7 519.4 290.1 519.6 290.2 C 519.4 290.0 519.2 289.7 518.9 289.5 C 519.4 289.9 519.9 290.5 520.3 290.8 C 520.3 290.7 520.3 290.7 520.2 290.6 C 520.4 290.8 520.6 291.0 520.7 291.1 C 520.8 291.2 521.0 291.3 521.1 291.4 C 520.9 291.2 520.7 291.0 520.5 290.8 C 520.5 290.8 520.6 290.8 520.6 290.9 C 520.2 290.4 519.9 290.3 519.6 290.1 C 519.6 290.0 519.5 290.0 519.5 290.0 C 519.5 289.9 519.8 290.2 519.8 290.2 C 519.4 289.8 518.9 289.4 518.7 289.1 C 519.3 289.6 519.7 290.0 520.1 290.4 C 520.1 290.2 519.7 289.9 519.5 289.7 C 520.4 290.4 520.5 290.5 520.5 290.6 C 520.5 290.5 520.4 290.4 520.4 290.4 C 520.4 290.4 520.4 290.4 520.4 290.4 C 520.8 290.7 521.2 291.1 521.2 291.1 C 521.2 291.1 520.9 290.8 520.5 290.4 C 520.6 290.4 520.6 290.5 520.7 290.5 C 521.1 290.9 521.7 291.2 522.1 291.7 C 522.0 291.6 522.1 291.6 522.2 291.7 C 522.1 291.5 521.9 291.3 521.7 291.2 C 521.8 291.2 521.9 291.3 521.9 291.3 C 521.9 291.2 521.8 291.1 521.7 291.1 C 522.0 291.3 522.2 291.4 522.4 291.6 C 522.5 291.6 522.3 291.5 522.3 291.5 C 522.6 291.7 522.8 292.0 523.0 292.1 C 522.9 291.9 522.5 291.6 522.4 291.5 C 522.5 291.5 522.6 291.6 522.7 291.6 C 522.8 291.8 522.9 291.8 522.7 291.7 C 522.7 291.6 522.7 291.6 522.7 291.6 C 522.8 291.7 523.1 292.0 523.2 291.9 C 523.1 291.8 522.8 291.5 522.7 291.4 C 522.8 291.4 522.9 291.6 523.0 291.6 C 522.6 291.3 522.7 291.3 522.5 291.2 C 522.6 291.2 522.7 291.3 522.7 291.4 C 522.4 291.1 522.2 290.9 522.0 290.7 C 522.0 290.7 522.0 290.7 522.0 290.7 C 522.0 290.7 522.0 290.7 522.0 290.7 C 522.0 290.7 522.0 290.7 522.0 290.7 C 522.0 290.7 522.1 290.7 522.1 290.6 C 522.2 290.7 522.3 290.8 522.4 291.0 C 522.4 290.9 522.3 290.7 522.1 290.6 C 522.1 290.6 522.1 290.6 522.1 290.6 C 522.4 290.8 522.8 291.2 523.0 291.4 C 522.9 291.2 522.5 290.9 522.2 290.6 C 522.2 290.6 522.3 290.6 522.3 290.6 C 521.9 290.3 521.5 289.8 521.1 289.4 C 521.3 289.6 521.5 289.8 521.8 290.1 C 521.9 290.2 522.0 290.2 522.2 290.3 C 522.5 290.6 523.4 291.5 523.6 291.6 C 523.7 291.7 522.7 290.8 522.8 290.8 C 522.8 290.8 523.2 291.2 523.0 291.0 C 522.9 290.9 522.7 290.6 522.5 290.5 C 522.5 290.5 522.5 290.4 522.5 290.4 C 522.7 290.5 522.9 290.7 522.8 290.7 C 522.9 290.8 523.1 291.0 523.1 291.0 C 523.1 290.9 523.1 290.9 523.1 290.9 C 523.1 290.9 523.2 291.0 523.2 291.0 C 523.0 290.8 522.8 290.5 522.5 290.4 C 522.5 290.3 522.5 290.3 522.5 290.3 C 522.5 290.3 522.7 290.4 522.9 290.5 C 523.0 290.6 522.7 290.3 522.5 290.1 C 522.5 290.1 522.4 290.0 522.4 290.0 C 522.5 290.0 522.6 290.1 522.7 290.2 C 522.9 290.3 522.9 290.3 523.0 290.4 C 522.8 290.2 522.5 289.9 522.3 289.7 C 522.2 289.6 522.1 289.5 522.1 289.4 C 522.3 289.5 522.5 289.7 522.6 289.8 C 522.7 289.8 522.8 289.9 522.8 289.9 C 522.8 289.8 523.0 290.0 523.0 290.0 C 522.8 289.9 522.6 289.7 522.5 289.6 C 522.3 289.5 522.1 289.3 522.0 289.1 C 521.9 289.1 521.9 289.1 521.9 289.1 C 522.1 289.2 522.2 289.3 522.4 289.4 C 522.3 289.3 521.9 288.9 521.6 288.7 C 521.0 288.0 520.1 287.6 519.5 287.0 C 519.5 287.0 519.4 287.0 519.4 286.9 C 519.4 286.9 519.3 286.8 519.3 286.8 C 519.4 286.9 519.6 287.0 519.7 287.1 C 519.3 286.7 520.4 287.7 520.5 287.7 C 519.8 287.0 518.4 285.7 517.6 284.9 C 517.8 285.1 517.9 285.1 517.7 284.9 C 517.6 284.9 517.6 284.8 517.5 284.8 C 518.4 285.5 519.2 286.4 520.0 287.0 C 519.6 286.6 518.9 286.1 518.8 285.9 C 518.9 286.0 519.1 286.1 519.1 286.1 C 519.0 285.9 518.2 285.3 518.0 285.1 C 519.1 286.0 520.4 287.3 521.2 287.9 C 520.1 286.9 518.6 285.4 517.6 284.6 C 517.8 284.8 517.7 284.8 517.6 284.7 C 517.3 284.4 517.0 284.2 516.7 283.9 C 516.7 283.8 516.7 283.9 516.8 284.0 C 517.0 284.1 517.0 284.1 517.1 284.2 C 517.0 284.1 516.1 283.2 516.8 283.9 C 517.6 284.6 518.9 285.8 518.2 285.0 C 517.4 284.3 517.2 284.0 517.6 284.4 C 518.0 284.8 519.4 285.9 518.9 285.5 C 518.5 285.1 517.6 284.2 517.1 283.7 C 516.5 283.2 517.3 284.2 516.5 283.5 C 515.8 282.8 516.4 283.3 516.3 283.2 C 516.1 283.0 515.6 282.6 515.2 282.2 C 514.9 281.9 514.6 281.6 514.4 281.4 C 514.4 281.4 515.3 282.2 515.0 281.8 C 514.1 281.1 513.2 280.2 513.5 280.6 C 513.0 280.1 512.6 279.7 512.3 279.4 C 511.8 278.9 511.2 278.4 511.2 278.3 C 511.1 278.2 509.6 277.0 509.2 276.4 C 509.2 276.4 508.2 275.5 508.1 275.5 C 507.3 274.6 507.4 274.7 506.5 273.9 C 505.8 273.2 505.5 273.1 505.4 273.0 C 504.6 272.3 504.7 272.2 504.1 272.1 C 503.9 272.0 503.8 271.9 503.6 271.9 C 503.3 272.0 503.0 272.2 502.7 272.6 C 502.7 272.6 502.7 272.6 502.7 272.6 Z M 521.8 290.7 C 521.9 290.8 522.2 291.1 522.3 291.2 C 522.1 291.1 521.9 290.9 521.7 290.7 C 521.8 290.7 521.8 290.7 521.8 290.7 C 521.8 290.7 521.8 290.7 521.8 290.7 Z M 521.3 289.1 C 521.4 289.2 521.5 289.3 521.6 289.4 C 521.7 289.5 521.8 289.6 522.0 289.7 C 522.0 289.7 521.8 289.4 521.6 289.3 C 521.6 289.3 521.6 289.2 521.6 289.2 C 521.7 289.3 521.8 289.4 522.0 289.5 C 522.0 289.6 522.0 289.6 522.1 289.6 C 522.1 289.7 522.0 289.6 522.0 289.6 C 522.0 289.7 522.1 289.8 522.2 289.9 C 522.2 289.9 522.2 290.0 522.2 290.0 C 522.2 290.0 522.1 289.9 522.2 290.1 C 522.1 290.0 521.9 289.8 521.8 289.6 C 522.0 289.7 521.4 289.2 521.2 289.0 C 521.3 289.1 521.3 289.1 521.3 289.1 Z M 518.9 289.5 C 518.8 289.4 518.7 289.3 518.6 289.2 C 518.8 289.3 518.9 289.4 518.9 289.5 C 518.9 289.5 518.9 289.5 518.9 289.5 Z M 511.9 283.5 C 512.4 283.9 513.4 284.9 513.5 284.9 C 513.6 285.0 513.7 285.1 513.8 285.2 C 513.1 284.6 512.4 284.0 511.9 283.5 C 511.9 283.5 511.9 283.5 511.9 283.5 Z M 515.7 282.9 C 515.7 282.9 515.7 282.9 515.6 282.8 C 515.0 282.4 514.7 282.1 515.0 282.4 C 515.3 282.7 515.9 283.3 515.7 283.1 C 515.5 282.9 515.2 282.7 515.0 282.4 C 514.8 282.3 514.6 282.1 514.5 281.8 C 514.9 282.2 515.3 282.6 515.7 282.9 C 515.7 282.9 515.7 282.9 515.7 282.9 Z M 514.3 281.6 C 514.5 281.7 514.6 281.9 514.8 282.0 C 514.7 281.9 514.5 281.8 514.3 281.6 C 514.3 281.6 514.3 281.6 514.3 281.6 Z M 514.2 281.3 C 514.5 281.6 514.8 281.9 514.5 281.6 C 514.4 281.6 514.3 281.5 514.2 281.4 C 514.2 281.4 514.2 281.4 514.2 281.3 Z M 514.0 281.1 C 514.0 281.2 514.0 281.2 514.1 281.3 C 513.9 281.1 513.5 280.8 513.6 280.8 C 513.7 280.9 513.9 281.0 514.0 281.1 C 514.0 281.1 514.0 281.1 514.0 281.1 Z M 511.5 283.3 C 511.6 283.4 511.7 283.5 511.5 283.3 C 511.4 283.3 511.3 283.2 511.2 283.1 C 511.3 283.2 511.4 283.2 511.5 283.3 Z M 520.5 287.4 C 520.4 287.3 520.2 287.1 520.1 287.0 C 519.9 287.1 520.5 287.5 520.5 287.4 C 520.5 287.4 520.5 287.4 520.5 287.4 Z M 521.3 288.1 C 521.2 288.0 521.0 287.8 520.9 287.7 C 520.8 287.8 521.3 288.2 521.3 288.1 C 521.3 288.1 521.3 288.1 521.3 288.1 Z M 509.2 276.4 C 509.2 276.4 509.2 276.4 509.2 276.4 C 509.2 276.4 509.2 276.4 509.2 276.4 C 509.2 276.4 509.2 276.4 509.2 276.4 Z M 509.2 276.4 " fill="#A6AAA8"></path></g></g><g><clipPath id="clip-527"><path d="M 503.4 268.5 L 490.2 282.1 L 494.6 286.3 L 507.7 272.6 Z M 503.4 268.5 "></path></clipPath><g clip-path="url(#clip-527)"><path d="M 494.7 280.6 C 494.6 280.6 494.5 280.7 494.6 280.7 C 494.6 280.7 494.7 280.7 494.7 280.6 C 494.7 280.6 494.7 280.6 494.7 280.6 Z M 494.8 280.4 C 494.7 280.4 494.7 280.5 494.7 280.6 C 494.7 280.5 494.8 280.5 494.8 280.4 C 494.8 280.4 494.8 280.4 494.8 280.4 Z M 494.7 280.8 C 494.6 280.9 494.5 280.9 494.5 281.0 C 494.6 280.9 494.7 280.9 494.7 280.8 C 494.7 280.8 494.7 280.8 494.7 280.8 Z M 496.3 277.8 C 496.2 277.8 496.1 277.9 496.2 278.0 C 496.2 277.9 496.3 277.9 496.3 277.8 C 496.3 277.8 496.3 277.8 496.3 277.8 Z M 495.9 278.4 C 495.8 278.4 495.8 278.5 495.8 278.5 C 495.8 278.5 495.9 278.4 495.9 278.4 C 495.9 278.4 495.9 278.4 495.9 278.4 Z M 495.6 278.6 C 495.6 278.7 495.5 278.8 495.6 278.8 C 495.5 278.7 495.7 278.7 495.6 278.6 C 495.6 278.6 495.6 278.6 495.6 278.6 Z M 496.3 282.2 C 496.3 282.2 496.4 282.1 496.4 282.1 C 496.6 281.9 496.2 282.1 496.3 282.2 C 496.3 282.2 496.3 282.2 496.3 282.2 Z M 495.3 279.2 C 495.3 279.2 495.4 279.1 495.4 279.1 C 495.3 279.1 495.3 279.2 495.3 279.2 C 495.3 279.2 495.3 279.2 495.3 279.2 Z M 495.0 279.7 C 494.9 279.6 494.7 279.9 494.6 280.0 C 494.7 279.9 495.0 279.7 495.0 279.7 C 495.0 279.7 495.0 279.7 495.0 279.7 Z M 496.8 281.7 C 496.9 281.5 497.2 281.3 497.2 281.2 C 497.3 281.1 497.0 281.3 496.8 281.6 C 496.5 281.9 496.8 281.8 496.7 281.9 C 496.6 282.0 496.8 281.8 496.9 281.7 C 497.0 281.5 496.8 281.7 496.8 281.7 C 496.8 281.7 496.8 281.7 496.8 281.7 Z M 496.9 281.9 C 496.9 281.9 496.8 282.0 496.8 282.0 C 496.9 282.0 497.0 281.9 496.9 281.9 C 496.9 281.9 496.9 281.9 496.9 281.9 Z M 503.6 272.9 C 503.2 272.6 502.8 272.4 502.4 272.3 C 502.4 272.3 502.3 272.3 502.2 272.3 C 501.8 272.4 501.4 272.6 501.1 272.8 C 501.1 272.8 501.0 272.9 501.0 272.9 C 500.8 273.1 500.6 273.2 500.4 273.4 C 500.4 273.4 500.3 273.5 500.3 273.5 C 500.0 273.7 499.9 273.9 499.7 274.1 C 499.6 274.2 499.5 274.3 499.4 274.3 C 499.3 274.3 499.1 274.6 499.1 274.7 C 499.0 274.5 498.7 274.9 498.8 274.9 C 498.7 275.0 498.7 275.0 498.7 275.1 C 498.7 275.1 498.7 275.1 498.8 275.0 C 498.8 275.1 498.7 275.1 498.7 275.2 C 498.6 275.2 498.6 275.3 498.5 275.3 C 498.3 275.5 498.2 275.7 498.1 275.9 C 497.7 276.3 496.6 277.4 496.8 277.3 C 497.1 277.0 497.0 277.2 496.9 277.3 C 496.9 277.3 496.9 277.3 496.8 277.4 C 496.8 277.4 496.8 277.4 496.8 277.4 C 496.7 277.5 496.5 277.6 496.4 277.7 C 496.4 277.7 496.5 277.7 496.5 277.7 C 496.4 277.8 496.5 277.7 496.5 277.8 C 496.4 277.9 496.3 278.0 496.5 277.9 C 496.4 278.0 496.3 278.2 496.3 278.4 C 496.2 278.4 496.2 278.4 496.2 278.4 C 496.1 278.4 495.9 278.7 495.9 278.7 C 495.8 278.7 496.4 278.1 496.3 278.2 C 496.2 278.2 496.2 278.3 496.1 278.3 C 496.2 278.2 496.3 278.1 496.3 278.1 C 496.2 278.1 496.2 278.2 496.1 278.2 C 496.2 278.2 496.2 278.1 496.2 278.1 C 496.1 278.2 496.1 278.2 496.0 278.3 C 496.0 278.4 496.1 278.3 496.0 278.4 C 496.0 278.4 496.0 278.3 496.0 278.4 C 496.0 278.4 495.9 278.6 495.8 278.6 C 495.8 278.7 495.9 278.5 495.9 278.6 C 495.7 278.8 495.4 279.1 495.3 279.2 C 495.3 279.3 495.3 279.2 495.4 279.2 C 495.3 279.3 495.2 279.4 495.1 279.6 C 495.0 279.6 495.1 279.6 495.1 279.6 C 495.1 279.6 495.1 279.6 495.1 279.7 C 495.1 279.7 495.0 279.7 495.0 279.7 C 495.1 279.7 495.2 279.6 495.2 279.5 C 495.2 279.6 495.0 279.8 495.0 279.9 C 495.1 279.8 495.2 279.7 495.3 279.6 C 495.1 279.8 494.8 280.0 494.7 280.2 C 494.7 280.2 494.8 280.2 494.8 280.2 C 494.7 280.3 494.6 280.3 494.6 280.4 C 494.5 280.5 494.5 280.6 494.4 280.6 C 494.6 280.5 494.7 280.5 494.7 280.4 C 494.7 280.4 494.7 280.4 494.7 280.4 C 494.9 280.3 494.9 280.1 495.1 279.9 C 495.1 279.9 495.1 279.9 495.1 279.9 C 495.2 279.9 495.0 280.0 495.0 280.1 C 495.2 279.9 495.4 279.6 495.5 279.6 C 495.3 279.8 495.1 280.0 495.0 280.2 C 495.1 280.2 495.2 280.0 495.3 280.0 C 495.0 280.4 494.9 280.4 494.9 280.4 C 495.0 280.4 495.0 280.4 495.0 280.4 C 495.0 280.4 495.0 280.4 495.0 280.4 C 494.9 280.6 494.7 280.8 494.7 280.8 C 494.7 280.8 494.9 280.6 495.0 280.5 C 495.0 280.5 495.0 280.5 495.0 280.6 C 494.9 280.8 494.7 281.1 494.5 281.2 C 494.6 281.2 494.6 281.2 494.5 281.3 C 494.6 281.3 494.7 281.2 494.8 281.1 C 494.8 281.2 494.7 281.2 494.7 281.2 C 494.8 281.2 494.8 281.1 494.9 281.2 C 494.8 281.3 494.7 281.4 494.6 281.5 C 494.6 281.5 494.7 281.4 494.7 281.5 C 494.6 281.6 494.5 281.7 494.4 281.8 C 494.5 281.7 494.7 281.5 494.7 281.5 C 494.7 281.6 494.7 281.6 494.7 281.6 C 494.6 281.7 494.6 281.7 494.7 281.7 C 494.7 281.7 494.7 281.7 494.7 281.7 C 494.7 281.7 494.6 281.9 494.6 281.9 C 494.6 281.9 494.8 281.7 494.9 281.7 C 494.9 281.8 494.8 281.9 494.8 281.9 C 494.9 281.7 495.0 281.7 495.0 281.7 C 494.9 281.7 494.9 281.8 494.9 281.7 C 495.0 281.6 495.1 281.5 495.2 281.4 C 495.2 281.4 495.2 281.4 495.2 281.4 C 495.2 281.4 495.2 281.4 495.2 281.4 C 495.2 281.4 495.2 281.4 495.2 281.4 C 495.2 281.5 495.2 281.5 495.3 281.5 C 495.2 281.5 495.2 281.6 495.1 281.7 C 495.2 281.7 495.2 281.6 495.3 281.5 C 495.3 281.5 495.3 281.6 495.3 281.6 C 495.2 281.7 495.1 281.9 495.0 282.0 C 495.0 282.0 495.2 281.8 495.3 281.6 C 495.3 281.6 495.4 281.7 495.4 281.7 C 495.5 281.5 495.7 281.4 495.9 281.1 C 495.9 281.3 495.7 281.3 495.6 281.5 C 495.6 281.5 495.6 281.6 495.5 281.7 C 495.4 281.8 495.0 282.2 494.9 282.3 C 494.9 282.4 495.3 281.9 495.3 282.0 C 495.4 282.0 495.2 282.2 495.3 282.1 C 495.3 282.0 495.4 281.9 495.5 281.8 C 495.5 281.9 495.5 281.9 495.6 281.9 C 495.5 282.0 495.5 282.1 495.4 282.0 C 495.4 282.1 495.3 282.1 495.3 282.2 C 495.3 282.2 495.3 282.1 495.3 282.1 C 495.3 282.2 495.3 282.2 495.3 282.2 C 495.4 282.1 495.5 282.0 495.6 281.9 C 495.6 281.9 495.6 281.9 495.7 282.0 C 495.7 282.0 495.6 282.0 495.6 282.1 C 495.5 282.2 495.7 282.1 495.8 282.0 C 495.8 282.0 495.8 282.0 495.9 281.9 C 495.8 282.0 495.8 282.0 495.7 282.1 C 495.7 282.2 495.7 282.2 495.7 282.3 C 495.8 282.2 495.9 282.0 496.0 281.9 C 496.1 281.9 496.1 281.9 496.2 281.9 C 496.1 282.0 496.1 282.1 496.1 282.2 C 496.0 282.2 496.0 282.2 496.0 282.3 C 496.0 282.2 496.0 282.3 496.0 282.4 C 496.0 282.3 496.1 282.2 496.1 282.1 C 496.2 282.0 496.3 281.9 496.4 281.9 C 496.4 281.9 496.4 281.9 496.4 281.8 C 496.3 281.9 496.3 282.0 496.2 282.1 C 496.3 282.1 496.5 281.9 496.6 281.7 C 496.9 281.5 497.0 281.0 497.3 280.7 C 497.3 280.7 497.3 280.7 497.3 280.7 C 497.3 280.7 497.4 280.6 497.4 280.6 C 497.4 280.7 497.3 280.8 497.3 280.8 C 497.5 280.7 497.0 281.2 497.0 281.2 C 497.4 281.0 497.9 280.3 498.4 280.0 C 498.3 280.1 498.2 280.1 498.4 280.0 C 498.4 280.0 498.4 280.0 498.4 279.9 C 498.1 280.4 497.6 280.7 497.4 281.1 C 497.6 280.9 497.8 280.6 498.0 280.6 C 497.9 280.6 497.8 280.7 497.8 280.7 C 498.0 280.7 498.2 280.3 498.4 280.2 C 497.9 280.7 497.3 281.3 497.1 281.7 C 497.5 281.2 498.2 280.5 498.6 280.1 C 498.5 280.1 498.5 280.1 498.5 280.0 C 498.6 279.9 498.7 279.8 498.9 279.6 C 498.9 279.6 498.9 279.6 498.8 279.7 C 498.8 279.8 498.8 279.8 498.8 279.8 C 498.8 279.8 499.2 279.4 498.9 279.7 C 498.6 280.1 498.1 280.7 498.4 280.3 C 498.7 280.0 498.9 279.9 498.7 280.1 C 498.6 280.3 498.1 280.9 498.3 280.7 C 498.4 280.6 498.9 280.2 499.1 279.9 C 499.3 279.7 498.8 280.0 499.1 279.6 C 499.5 279.3 499.2 279.6 499.3 279.5 C 499.4 279.4 499.6 279.2 499.8 279.1 C 499.9 278.9 500.0 278.8 500.1 278.7 C 500.2 278.7 499.8 279.1 499.9 279.0 C 500.3 278.6 500.7 278.2 500.5 278.3 C 500.7 278.1 500.9 277.9 501.0 277.8 C 501.3 277.6 501.5 277.3 501.6 277.3 C 501.6 277.3 502.1 276.5 502.5 276.5 C 502.5 276.4 502.9 276.0 502.9 275.9 C 503.3 275.6 503.3 275.6 503.6 275.2 C 503.9 274.9 504.0 274.8 504.0 274.7 C 504.4 274.3 504.4 274.4 504.4 274.0 C 504.4 273.9 504.4 273.9 504.4 273.7 C 504.2 273.5 504.0 273.2 503.6 272.9 C 503.6 272.9 503.6 272.9 503.6 272.9 Z M 495.2 281.3 C 495.1 281.4 495.0 281.5 494.9 281.5 C 494.9 281.4 495.0 281.3 495.1 281.3 C 495.1 281.3 495.2 281.3 495.2 281.3 C 495.2 281.3 495.2 281.3 495.2 281.3 Z M 496.2 281.4 C 496.2 281.5 496.1 281.5 496.1 281.5 C 496.0 281.6 496.0 281.6 495.9 281.7 C 496.0 281.7 496.1 281.6 496.2 281.6 C 496.2 281.6 496.2 281.6 496.2 281.6 C 496.2 281.6 496.1 281.7 496.1 281.8 C 496.1 281.8 496.0 281.8 496.0 281.8 C 496.0 281.8 496.0 281.7 496.0 281.7 C 496.0 281.7 495.9 281.8 495.8 281.8 C 495.8 281.8 495.8 281.8 495.8 281.8 C 495.8 281.8 495.8 281.7 495.7 281.8 C 495.7 281.7 495.9 281.7 495.9 281.6 C 495.9 281.7 496.1 281.4 496.2 281.4 C 496.2 281.4 496.2 281.4 496.2 281.4 Z M 495.3 279.6 C 495.4 279.5 495.4 279.5 495.4 279.5 C 495.4 279.5 495.3 279.6 495.3 279.6 C 495.3 279.6 495.3 279.6 495.3 279.6 Z M 497.9 276.3 C 497.8 276.6 497.2 277.0 497.3 277.0 C 497.2 277.1 497.2 277.1 497.1 277.2 C 497.4 276.9 497.7 276.5 497.9 276.3 C 497.9 276.3 497.9 276.3 497.9 276.3 Z M 499.4 279.2 C 499.3 279.2 499.3 279.2 499.4 279.1 C 499.6 278.9 499.7 278.7 499.5 278.8 C 499.4 279.0 499.1 279.2 499.2 279.1 C 499.3 279.0 499.4 278.9 499.5 278.8 C 499.6 278.7 499.7 278.7 499.8 278.6 C 499.7 278.8 499.5 279.0 499.4 279.2 C 499.4 279.2 499.4 279.2 499.4 279.2 Z M 500.0 278.6 C 499.9 278.7 499.8 278.7 499.8 278.8 C 499.8 278.7 499.9 278.7 500.0 278.6 C 500.0 278.6 500.0 278.6 500.0 278.6 Z M 500.1 278.6 C 500.0 278.7 499.9 278.8 500.0 278.7 C 500.0 278.6 500.0 278.6 500.0 278.6 C 500.1 278.6 500.1 278.6 500.1 278.6 Z M 500.2 278.5 C 500.2 278.5 500.2 278.5 500.1 278.5 C 500.2 278.4 500.4 278.3 500.4 278.3 C 500.3 278.4 500.3 278.4 500.2 278.5 C 500.2 278.5 500.2 278.5 500.2 278.5 Z M 498.0 276.1 C 497.9 276.1 497.9 276.2 497.9 276.1 C 498.0 276.0 498.0 276.0 498.0 276.0 C 498.0 276.0 498.0 276.0 498.0 276.1 Z M 497.3 281.3 C 497.3 281.3 497.4 281.2 497.4 281.1 C 497.3 281.0 497.2 281.3 497.3 281.3 C 497.3 281.3 497.3 281.3 497.3 281.3 Z M 497.0 281.7 C 497.0 281.7 497.1 281.6 497.1 281.5 C 497.0 281.4 496.9 281.7 497.0 281.7 C 497.0 281.7 497.0 281.7 497.0 281.7 Z M 502.5 276.5 C 502.5 276.5 502.5 276.5 502.5 276.5 C 502.5 276.5 502.5 276.5 502.5 276.5 C 502.5 276.5 502.5 276.5 502.5 276.5 Z M 502.5 276.5 " fill="#A6AAA8"></path></g></g><text xml:space="preserve" font-family="Helvetica-Light" font-size="36.0" fill="#000000" transform="matrix(1.00, 0.00, -0.00, -1.00, 157.0, 637.0)">D</text><text xml:space="preserve" font-family="Helvetica-Light" font-size="36.0" fill="#000000" transform="matrix(1.00, 0.00, -0.00, -1.00, 183.0, 637.0)">e</text><text xml:space="preserve" font-family="Helvetica-Light" font-size="36.0" fill="#000000" transform="matrix(1.00, 0.00, -0.00, -1.00, 203.0, 637.0)">t</text><text xml:space="preserve" font-family="Helvetica-Light" font-size="36.0" fill="#000000" transform="matrix(1.00, 0.00, -0.00, -1.00, 213.0, 637.0)">e</text><text xml:space="preserve" font-family="Helvetica-Light" font-size="36.0" fill="#000000" transform="matrix(1.00, 0.00, -0.00, -1.00, 233.0, 637.0)">c</text><text xml:space="preserve" font-family="Helvetica-Light" font-size="36.0" fill="#000000" transform="matrix(1.00, 0.00, -0.00, -1.00, 253.0, 637.0)">t</text><text xml:space="preserve" font-family="Helvetica-Light" font-size="36.0" fill="#000000" transform="matrix(1.00, 0.00, -0.00, -1.00, 263.1, 637.0)"> </text><text xml:space="preserve" font-family="Helvetica-Light" font-size="36.0" fill="#000000" transform="matrix(1.00, 0.00, -0.00, -1.00, 273.1, 637.0)">w</text><text xml:space="preserve" font-family="Helvetica-Light" font-size="36.0" fill="#000000" transform="matrix(1.00, 0.00, -0.00, -1.00, 299.1, 637.0)">h</text><text xml:space="preserve" font-family="Helvetica-Light" font-size="36.0" fill="#000000" transform="matrix(1.00, 0.00, -0.00, -1.00, 319.1, 637.0)">i</text><text xml:space="preserve" font-family="Helvetica-Light" font-size="36.0" fill="#000000" transform="matrix(1.00, 0.00, -0.00, -1.00, 327.1, 637.0)">c</text><text xml:space="preserve" font-family="Helvetica-Light" font-size="36.0" fill="#000000" transform="matrix(1.00, 0.00, -0.00, -1.00, 347.1, 637.0)">h</text><text xml:space="preserve" font-family="Helvetica-Light" font-size="36.0" fill="#000000" transform="matrix(1.00, 0.00, -0.00, -1.00, 367.1, 637.0)"> </text><text xml:space="preserve" font-family="Helvetica-Light" font-size="36.0" fill="#000000" transform="matrix(1.00, 0.00, -0.00, -1.00, 377.1, 637.0)">r</text><text xml:space="preserve" font-family="Helvetica-Light" font-size="36.0" fill="#000000" transform="matrix(1.00, 0.00, -0.00, -1.00, 388.4, 637.0)">o</text><text xml:space="preserve" font-family="Helvetica-Light" font-size="36.0" fill="#000000" transform="matrix(1.00, 0.00, -0.00, -1.00, 408.5, 637.0)">w</text><text xml:space="preserve" font-family="Helvetica-Light" font-size="36.0" fill="#000000" transform="matrix(1.00, 0.00, -0.00, -1.00, 434.5, 637.0)">s</text><text xml:space="preserve" font-family="Helvetica-Light" font-size="36.0" fill="#000000" transform="matrix(1.00, 0.00, -0.00, -1.00, 452.5, 637.0)"> </text><text xml:space="preserve" font-family="Helvetica-Light" font-size="36.0" fill="#000000" transform="matrix(1.00, 0.00, -0.00, -1.00, 462.5, 637.0)">w</text><text xml:space="preserve" font-family="Helvetica-Light" font-size="36.0" fill="#000000" transform="matrix(1.00, 0.00, -0.00, -1.00, 488.5, 637.0)">e</text><text xml:space="preserve" font-family="Helvetica-Light" font-size="36.0" fill="#000000" transform="matrix(1.00, 0.00, -0.00, -1.00, 508.5, 637.0)">r</text><text xml:space="preserve" font-family="Helvetica-Light" font-size="36.0" fill="#000000" transform="matrix(1.00, 0.00, -0.00, -1.00, 519.8, 637.0)">e</text><text xml:space="preserve" font-family="Helvetica-Light" font-size="36.0" fill="#000000" transform="matrix(1.00, 0.00, -0.00, -1.00, 539.8, 637.0)"> </text><text xml:space="preserve" font-family="Helvetica-Light" font-size="36.0" fill="#000000" transform="matrix(1.00, 0.00, -0.00, -1.00, 549.8, 637.0)">a</text><text xml:space="preserve" font-family="Helvetica-Light" font-size="36.0" fill="#000000" transform="matrix(1.00, 0.00, -0.00, -1.00, 569.8, 637.0)">d</text><text xml:space="preserve" font-family="Helvetica-Light" font-size="36.0" fill="#000000" transform="matrix(1.00, 0.00, -0.00, -1.00, 591.8, 637.0)">d</text><text xml:space="preserve" font-family="Helvetica-Light" font-size="36.0" fill="#000000" transform="matrix(1.00, 0.00, -0.00, -1.00, 613.8, 637.0)">e</text><text xml:space="preserve" font-family="Helvetica-Light" font-size="36.0" fill="#000000" transform="matrix(1.00, 0.00, -0.00, -1.00, 633.9, 637.0)">d</text><text xml:space="preserve" font-family="Helvetica-Light" font-size="36.0" fill="#000000" transform="matrix(1.00, 0.00, -0.00, -1.00, 655.9, 637.0)">,</text><text xml:space="preserve" font-family="Helvetica-Light" font-size="36.0" fill="#000000" transform="matrix(1.00, 0.00, -0.00, -1.00, 665.9, 637.0)"> </text><text xml:space="preserve" font-family="Helvetica-Light" font-size="36.0" fill="#000000" transform="matrix(1.00, 0.00, -0.00, -1.00, 675.9, 637.0)">u</text><text xml:space="preserve" font-family="Helvetica-Light" font-size="36.0" fill="#000000" transform="matrix(1.00, 0.00, -0.00, -1.00, 695.9, 637.0)">p</text><text xml:space="preserve" font-family="Helvetica-Light" font-size="36.0" fill="#000000" transform="matrix(1.00, 0.00, -0.00, -1.00, 717.9, 637.0)">d</text><text xml:space="preserve" font-family="Helvetica-Light" font-size="36.0" fill="#000000" transform="matrix(1.00, 0.00, -0.00, -1.00, 739.9, 637.0)">a</text><text xml:space="preserve" font-family="Helvetica-Light" font-size="36.0" fill="#000000" transform="matrix(1.00, 0.00, -0.00, -1.00, 759.9, 637.0)">t</text><text xml:space="preserve" font-family="Helvetica-Light" font-size="36.0" fill="#000000" transform="matrix(1.00, 0.00, -0.00, -1.00, 769.9, 637.0)">e</text><text xml:space="preserve" font-family="Helvetica-Light" font-size="36.0" fill="#000000" transform="matrix(1.00, 0.00, -0.00, -1.00, 789.9, 637.0)">d</text><text xml:space="preserve" font-family="Helvetica-Light" font-size="36.0" fill="#000000" transform="matrix(1.00, 0.00, -0.00, -1.00, 811.9, 637.0)"> </text><text xml:space="preserve" font-family="Helvetica-Light" font-size="36.0" fill="#000000" transform="matrix(1.00, 0.00, -0.00, -1.00, 821.9, 637.0)">o</text><text xml:space="preserve" font-family="Helvetica-Light" font-size="36.0" fill="#000000" transform="matrix(1.00, 0.00, -0.00, -1.00, 841.9, 637.0)">r</text><text xml:space="preserve" font-family="Helvetica-Light" font-size="36.0" fill="#000000" transform="matrix(1.00, 0.00, -0.00, -1.00, 853.9, 637.0)"> </text><text xml:space="preserve" font-family="Helvetica-Light" font-size="36.0" fill="#000000" transform="matrix(1.00, 0.00, -0.00, -1.00, 265.0, 594.0)">d</text><text xml:space="preserve" font-family="Helvetica-Light" font-size="36.0" fill="#000000" transform="matrix(1.00, 0.00, -0.00, -1.00, 287.0, 594.0)">e</text><text xml:space="preserve" font-family="Helvetica-Light" font-size="36.0" fill="#000000" transform="matrix(1.00, 0.00, -0.00, -1.00, 307.0, 594.0)">l</text><text xml:space="preserve" font-family="Helvetica-Light" font-size="36.0" fill="#000000" transform="matrix(1.00, 0.00, -0.00, -1.00, 315.0, 594.0)">e</text><text xml:space="preserve" font-family="Helvetica-Light" font-size="36.0" fill="#000000" transform="matrix(1.00, 0.00, -0.00, -1.00, 335.0, 594.0)">t</text><text xml:space="preserve" font-family="Helvetica-Light" font-size="36.0" fill="#000000" transform="matrix(1.00, 0.00, -0.00, -1.00, 345.0, 594.0)">e</text><text xml:space="preserve" font-family="Helvetica-Light" font-size="36.0" fill="#000000" transform="matrix(1.00, 0.00, -0.00, -1.00, 365.0, 594.0)">d</text><text xml:space="preserve" font-family="Helvetica-Light" font-size="36.0" fill="#000000" transform="matrix(1.00, 0.00, -0.00, -1.00, 387.0, 594.0)"> </text><text xml:space="preserve" font-family="Helvetica-Light" font-size="36.0" fill="#000000" transform="matrix(1.00, 0.00, -0.00, -1.00, 397.0, 594.0)">b</text><text xml:space="preserve" font-family="Helvetica-Light" font-size="36.0" fill="#000000" transform="matrix(1.00, 0.00, -0.00, -1.00, 419.0, 594.0)">y</text><text xml:space="preserve" font-family="Helvetica-Light" font-size="36.0" fill="#000000" transform="matrix(1.00, 0.00, -0.00, -1.00, 437.0, 594.0)"> </text><text xml:space="preserve" font-family="Helvetica-Light" font-size="36.0" fill="#000000" transform="matrix(1.00, 0.00, -0.00, -1.00, 447.1, 594.0)">c</text><text xml:space="preserve" font-family="Helvetica-Light" font-size="36.0" fill="#000000" transform="matrix(1.00, 0.00, -0.00, -1.00, 467.1, 594.0)">o</text><text xml:space="preserve" font-family="Helvetica-Light" font-size="36.0" fill="#000000" transform="matrix(1.00, 0.00, -0.00, -1.00, 487.1, 594.0)">m</text><text xml:space="preserve" font-family="Helvetica-Light" font-size="36.0" fill="#000000" transform="matrix(1.00, 0.00, -0.00, -1.00, 517.1, 594.0)">p</text><text xml:space="preserve" font-family="Helvetica-Light" font-size="36.0" fill="#000000" transform="matrix(1.00, 0.00, -0.00, -1.00, 539.1, 594.0)">a</text><text xml:space="preserve" font-family="Helvetica-Light" font-size="36.0" fill="#000000" transform="matrix(1.00, 0.00, -0.00, -1.00, 559.1, 594.0)">r</text><text xml:space="preserve" font-family="Helvetica-Light" font-size="36.0" fill="#000000" transform="matrix(1.00, 0.00, -0.00, -1.00, 571.1, 594.0)">i</text><text xml:space="preserve" font-family="Helvetica-Light" font-size="36.0" fill="#000000" transform="matrix(1.00, 0.00, -0.00, -1.00, 579.1, 594.0)">n</text><text xml:space="preserve" font-family="Helvetica-Light" font-size="36.0" fill="#000000" transform="matrix(1.00, 0.00, -0.00, -1.00, 599.1, 594.0)">g</text><text xml:space="preserve" font-family="Helvetica-Light" font-size="36.0" fill="#000000" transform="matrix(1.00, 0.00, -0.00, -1.00, 621.1, 594.0)"> </text><text xml:space="preserve" font-family="Helvetica-Light" font-size="36.0" fill="#000000" transform="matrix(1.00, 0.00, -0.00, -1.00, 631.1, 594.0)">h</text><text xml:space="preserve" font-family="Helvetica-Light" font-size="36.0" fill="#000000" transform="matrix(1.00, 0.00, -0.00, -1.00, 651.1, 594.0)">a</text><text xml:space="preserve" font-family="Helvetica-Light" font-size="36.0" fill="#000000" transform="matrix(1.00, 0.00, -0.00, -1.00, 671.1, 594.0)">s</text><text xml:space="preserve" font-family="Helvetica-Light" font-size="36.0" fill="#000000" transform="matrix(1.00, 0.00, -0.00, -1.00, 689.1, 594.0)">h</text><text xml:space="preserve" font-family="Helvetica-Light" font-size="36.0" fill="#000000" transform="matrix(1.00, 0.00, -0.00, -1.00, 709.1, 594.0)">e</text><text xml:space="preserve" font-family="Helvetica-Light" font-size="36.0" fill="#000000" transform="matrix(1.00, 0.00, -0.00, -1.00, 729.1, 594.0)">s</text></g></svg>