<?xml version="1.0" encoding="UTF-8" standalone="no"?><svg xmlns="http://www.w3.org/2000/svg" xmlns:xlink="http://www.w3.org/1999/xlink" clip-rule="evenodd" stroke-miterlimit="4.00" viewBox="0 0 1024 768"><desc>SVG generated by Keynote</desc><defs></defs><g transform="matrix(1.00, 0.00, -0.00, -1.00, 0.0, 768.0)"><path d="M 0.0 768.0 L 1024.0 768.0 L 1024.0 0.0 L 0.0 0.0 Z M 0.0 768.0 " fill="#FEFFFF"></path><g><clipPath id="clip-38357"><path d="M 385.3 502.6 C 404.9 494.5 404.9 481.3 385.3 473.2 C 365.8 465.0 334.1 465.0 314.6 473.2 C 295.1 481.3 295.1 494.5 314.6 502.6 C 334.1 510.8 365.8 510.8 385.3 502.6 Z M 385.3 502.6 "></path></clipPath><g clip-path="url(#clip-38357)"><image xlink:href="AFF4D1F361AD28AA82012E14045EB299.jpeg" width="128.00" height="128.00" transform="matrix(1.00, 0.00, -0.00, -1.00, 300.0, 508.8)"></image><path d="M 300.0 508.8 L 400.0 508.8 L 400.0 467.1 L 300.0 467.1 Z M 300.0 508.8 " fill="#1093A4" fill-opacity="0.85"></path></g></g><path d="M 85.4 6.1 C 104.9 14.2 104.9 27.4 85.4 35.6 C 65.8 43.7 34.2 43.7 14.6 35.6 C -4.9 27.4 -4.9 14.2 14.6 6.1 C 34.2 -2.0 65.8 -2.0 85.4 6.1 Z M 85.4 6.1 " fill="none" stroke="#A6AAA8" stroke-width="1.00" transform="matrix(1.00, 0.00, 0.00, -1.00, 300.0, 508.8)"></path><g><clipPath id="clip-38358"><path d="M 385.3 512.6 C 404.9 504.5 404.9 491.3 385.3 483.2 C 365.8 475.0 334.1 475.0 314.6 483.2 C 295.1 491.3 295.1 504.5 314.6 512.6 C 334.1 520.8 365.8 520.8 385.3 512.6 Z M 385.3 512.6 "></path></clipPath><g clip-path="url(#clip-38358)"><image xlink:href="../../C54084A0-2837-43B4-9DB6-DE53C7117ED0/assets/AFF4D1F361AD28AA82012E14045EB299.jpeg" width="128.00" height="128.00" transform="matrix(1.00, 0.00, -0.00, -1.00, 300.0, 518.8)"></image><path d="M 300.0 518.8 L 400.0 518.8 L 400.0 477.1 L 300.0 477.1 Z M 300.0 518.8 " fill="#1093A4" fill-opacity="0.85"></path></g></g><path d="M 85.4 6.1 C 104.9 14.2 104.9 27.4 85.4 35.6 C 65.8 43.7 34.2 43.7 14.6 35.6 C -4.9 27.4 -4.9 14.2 14.6 6.1 C 34.2 -2.0 65.8 -2.0 85.4 6.1 Z M 85.4 6.1 " fill="none" stroke="#A6AAA8" stroke-width="1.00" transform="matrix(1.00, 0.00, 0.00, -1.00, 300.0, 518.8)"></path><g><clipPath id="clip-38359"><path d="M 385.3 522.6 C 404.9 514.5 404.9 501.3 385.3 493.2 C 365.8 485.0 334.1 485.0 314.6 493.2 C 295.1 501.3 295.1 514.5 314.6 522.6 C 334.1 530.8 365.8 530.8 385.3 522.6 Z M 385.3 522.6 "></path></clipPath><g clip-path="url(#clip-38359)"><image xlink:href="../../C54084A0-2837-43B4-9DB6-DE53C7117ED0/assets/AFF4D1F361AD28AA82012E14045EB299.jpeg" width="128.00" height="128.00" transform="matrix(1.00, 0.00, -0.00, -1.00, 300.0, 528.8)"></image><path d="M 300.0 528.8 L 400.0 528.8 L 400.0 487.1 L 300.0 487.1 Z M 300.0 528.8 " fill="#1093A4" fill-opacity="0.85"></path></g></g><path d="M 85.4 6.1 C 104.9 14.2 104.9 27.4 85.4 35.6 C 65.8 43.7 34.2 43.7 14.6 35.6 C -4.9 27.4 -4.9 14.2 14.6 6.1 C 34.2 -2.0 65.8 -2.0 85.4 6.1 Z M 85.4 6.1 " fill="none" stroke="#A6AAA8" stroke-width="1.00" transform="matrix(1.00, 0.00, 0.00, -1.00, 300.0, 528.8)"></path><g><clipPath id="clip-38360"><path d="M 385.3 532.6 C 404.9 524.5 404.9 511.3 385.3 503.2 C 365.8 495.0 334.1 495.0 314.6 503.2 C 295.1 511.3 295.1 524.5 314.6 532.6 C 334.1 540.8 365.8 540.8 385.3 532.6 Z M 385.3 532.6 "></path></clipPath><g clip-path="url(#clip-38360)"><image xlink:href="../../C54084A0-2837-43B4-9DB6-DE53C7117ED0/assets/AFF4D1F361AD28AA82012E14045EB299.jpeg" width="128.00" height="128.00" transform="matrix(1.00, 0.00, -0.00, -1.00, 300.0, 538.8)"></image><path d="M 300.0 538.8 L 400.0 538.8 L 400.0 497.1 L 300.0 497.1 Z M 300.0 538.8 " fill="#1093A4" fill-opacity="0.85"></path></g></g><path d="M 85.4 6.1 C 104.9 14.2 104.9 27.4 85.4 35.6 C 65.8 43.7 34.2 43.7 14.6 35.6 C -4.9 27.4 -4.9 14.2 14.6 6.1 C 34.2 -2.0 65.8 -2.0 85.4 6.1 Z M 85.4 6.1 " fill="none" stroke="#A6AAA8" stroke-width="1.00" transform="matrix(1.00, 0.00, 0.00, -1.00, 300.0, 538.8)"></path><g><clipPath id="clip-38361"><path d="M 385.3 542.6 C 404.9 534.5 404.9 521.3 385.3 513.2 C 365.8 505.0 334.1 505.0 314.6 513.2 C 295.1 521.3 295.1 534.5 314.6 542.6 C 334.1 550.8 365.8 550.8 385.3 542.6 Z M 385.3 542.6 "></path></clipPath><g clip-path="url(#clip-38361)"><image xlink:href="../../C54084A0-2837-43B4-9DB6-DE53C7117ED0/assets/AFF4D1F361AD28AA82012E14045EB299.jpeg" width="128.00" height="128.00" transform="matrix(1.00, 0.00, -0.00, -1.00, 300.0, 548.8)"></image><path d="M 300.0 548.8 L 400.0 548.8 L 400.0 507.1 L 300.0 507.1 Z M 300.0 548.8 " fill="#1093A4" fill-opacity="0.85"></path></g></g><path d="M 85.4 6.1 C 104.9 14.2 104.9 27.4 85.4 35.6 C 65.8 43.7 34.2 43.7 14.6 35.6 C -4.9 27.4 -4.9 14.2 14.6 6.1 C 34.2 -2.0 65.8 -2.0 85.4 6.1 Z M 85.4 6.1 " fill="none" stroke="#A6AAA8" stroke-width="1.00" transform="matrix(1.00, 0.00, 0.00, -1.00, 300.0, 548.8)"></path><g><clipPath id="clip-38362"><path d="M 385.3 552.6 C 404.9 544.5 404.9 531.3 385.3 523.2 C 365.8 515.0 334.1 515.0 314.6 523.2 C 295.1 531.3 295.1 544.5 314.6 552.6 C 334.1 560.8 365.8 560.8 385.3 552.6 Z M 385.3 552.6 "></path></clipPath><g clip-path="url(#clip-38362)"><image xlink:href="../../C54084A0-2837-43B4-9DB6-DE53C7117ED0/assets/AFF4D1F361AD28AA82012E14045EB299.jpeg" width="128.00" height="128.00" transform="matrix(1.00, 0.00, -0.00, -1.00, 300.0, 558.8)"></image><path d="M 300.0 558.8 L 400.0 558.8 L 400.0 517.1 L 300.0 517.1 Z M 300.0 558.8 " fill="#1093A4" fill-opacity="0.85"></path></g></g><path d="M 85.4 6.1 C 104.9 14.2 104.9 27.4 85.4 35.6 C 65.8 43.7 34.2 43.7 14.6 35.6 C -4.9 27.4 -4.9 14.2 14.6 6.1 C 34.2 -2.0 65.8 -2.0 85.4 6.1 Z M 85.4 6.1 " fill="none" stroke="#A6AAA8" stroke-width="1.00" transform="matrix(1.00, 0.00, 0.00, -1.00, 300.0, 558.8)"></path><g><clipPath id="clip-38363"><path d="M 385.3 562.6 C 404.9 554.5 404.9 541.3 385.3 533.2 C 365.8 525.0 334.1 525.0 314.6 533.2 C 295.1 541.3 295.1 554.5 314.6 562.6 C 334.1 570.8 365.8 570.8 385.3 562.6 Z M 385.3 562.6 "></path></clipPath><g clip-path="url(#clip-38363)"><image xlink:href="../../C54084A0-2837-43B4-9DB6-DE53C7117ED0/assets/AFF4D1F361AD28AA82012E14045EB299.jpeg" width="128.00" height="128.00" transform="matrix(1.00, 0.00, -0.00, -1.00, 300.0, 568.8)"></image><path d="M 300.0 568.8 L 400.0 568.8 L 400.0 527.1 L 300.0 527.1 Z M 300.0 568.8 " fill="#1093A4" fill-opacity="0.85"></path></g></g><path d="M 85.4 6.1 C 104.9 14.2 104.9 27.4 85.4 35.6 C 65.8 43.7 34.2 43.7 14.6 35.6 C -4.9 27.4 -4.9 14.2 14.6 6.1 C 34.2 -2.0 65.8 -2.0 85.4 6.1 Z M 85.4 6.1 " fill="none" stroke="#A6AAA8" stroke-width="1.00" transform="matrix(1.00, 0.00, 0.00, -1.00, 300.0, 568.8)"></path><g><clipPath id="clip-38364"><path d="M 563.0 435.0 L 681.0 435.0 L 681.0 381.0 L 563.0 381.0 Z M 563.0 435.0 "></path></clipPath><g clip-path="url(#clip-38364)"><path d="M 563.0 426.5 L 572.1 426.5 L 572.1 417.5 L 563.0 417.5 Z M 563.0 426.5 " fill="#6FBF40"></path><path d="M 572.1 426.5 L 581.2 426.5 L 581.2 417.5 L 572.1 417.5 Z M 572.1 426.5 " fill="#6FBF40"></path><path d="M 581.2 426.5 L 590.2 426.5 L 590.2 417.5 L 581.2 417.5 Z M 581.2 426.5 " fill="#6FBF40"></path><path d="M 590.2 426.5 L 599.3 426.5 L 599.3 417.5 L 590.2 417.5 Z M 590.2 426.5 " fill="#6FBF40"></path><path d="M 599.3 426.5 L 608.4 426.5 L 608.4 417.5 L 599.3 417.5 Z M 599.3 426.5 " fill="#6FBF40"></path><path d="M 608.4 426.5 L 617.5 426.5 L 617.5 417.5 L 608.4 417.5 Z M 608.4 426.5 " fill="#6FBF40"></path><path d="M 617.5 426.5 L 626.5 426.5 L 626.5 417.5 L 617.5 417.5 Z M 617.5 426.5 " fill="#6FBF40"></path><path d="M 626.5 426.5 L 635.6 426.5 L 635.6 417.5 L 626.5 417.5 Z M 626.5 426.5 " fill="#6FBF40"></path><path d="M 635.6 426.5 L 644.7 426.5 L 644.7 417.5 L 635.6 417.5 Z M 635.6 426.5 " fill="#6FBF40"></path><path d="M 644.7 426.5 L 653.8 426.5 L 653.8 417.5 L 644.7 417.5 Z M 644.7 426.5 " fill="#6FBF40"></path><path d="M 653.8 426.5 L 662.8 426.5 L 662.8 417.5 L 653.8 417.5 Z M 653.8 426.5 " fill="#6FBF40"></path><path d="M 662.8 426.5 L 671.9 426.5 L 671.9 417.5 L 662.8 417.5 Z M 662.8 426.5 " fill="#6FBF40"></path><path d="M 671.9 426.5 L 681.0 426.5 L 681.0 417.5 L 671.9 417.5 Z M 671.9 426.5 " fill="#6FBF40"></path><path d="M 563.0 417.5 L 572.1 417.5 L 572.1 408.5 L 563.0 408.5 Z M 563.0 417.5 " fill="#6FBF40"></path><path d="M 572.1 417.5 L 581.2 417.5 L 581.2 408.5 L 572.1 408.5 Z M 572.1 417.5 " fill="#6FBF40"></path><path d="M 581.2 417.5 L 590.2 417.5 L 590.2 408.5 L 581.2 408.5 Z M 581.2 417.5 " fill="#6FBF40"></path><path d="M 590.2 417.5 L 599.3 417.5 L 599.3 408.5 L 590.2 408.5 Z M 590.2 417.5 " fill="#6FBF40"></path><path d="M 599.3 417.5 L 608.4 417.5 L 608.4 408.5 L 599.3 408.5 Z M 599.3 417.5 " fill="#6FBF40"></path><path d="M 608.4 417.5 L 617.5 417.5 L 617.5 408.5 L 608.4 408.5 Z M 608.4 417.5 " fill="#6FBF40"></path><path d="M 617.5 417.5 L 626.5 417.5 L 626.5 408.5 L 617.5 408.5 Z M 617.5 417.5 " fill="#6FBF40"></path><path d="M 626.5 417.5 L 635.6 417.5 L 635.6 408.5 L 626.5 408.5 Z M 626.5 417.5 " fill="#6FBF40"></path><path d="M 635.6 417.5 L 644.7 417.5 L 644.7 408.5 L 635.6 408.5 Z M 635.6 417.5 " fill="#6FBF40"></path><path d="M 644.7 417.5 L 653.8 417.5 L 653.8 408.5 L 644.7 408.5 Z M 644.7 417.5 " fill="#6FBF40"></path><path d="M 653.8 417.5 L 662.8 417.5 L 662.8 408.5 L 653.8 408.5 Z M 653.8 417.5 " fill="#6FBF40"></path><path d="M 662.8 417.5 L 671.9 417.5 L 671.9 408.5 L 662.8 408.5 Z M 662.8 417.5 " fill="#6FBF40"></path><path d="M 671.9 417.5 L 681.0 417.5 L 681.0 408.5 L 671.9 408.5 Z M 671.9 417.5 " fill="#6FBF40"></path><path d="M 563.0 408.5 L 572.1 408.5 L 572.1 399.5 L 563.0 399.5 Z M 563.0 408.5 " fill="#F5D327"></path><path d="M 572.1 408.5 L 581.2 408.5 L 581.2 399.5 L 572.1 399.5 Z M 572.1 408.5 " fill="#F5D327"></path><path d="M 581.2 408.5 L 590.2 408.5 L 590.2 399.5 L 581.2 399.5 Z M 581.2 408.5 " fill="#F5D327"></path><path d="M 590.2 408.5 L 599.3 408.5 L 599.3 399.5 L 590.2 399.5 Z M 590.2 408.5 " fill="#F5D327"></path><path d="M 599.3 408.5 L 608.4 408.5 L 608.4 399.5 L 599.3 399.5 Z M 599.3 408.5 " fill="#F5D327"></path><path d="M 608.4 408.5 L 617.5 408.5 L 617.5 399.5 L 608.4 399.5 Z M 608.4 408.5 " fill="#F5D327"></path><path d="M 617.5 408.5 L 626.5 408.5 L 626.5 399.5 L 617.5 399.5 Z M 617.5 408.5 " fill="#F5D327"></path><path d="M 626.5 408.5 L 635.6 408.5 L 635.6 399.5 L 626.5 399.5 Z M 626.5 408.5 " fill="#F5D327"></path><path d="M 635.6 408.5 L 644.7 408.5 L 644.7 399.5 L 635.6 399.5 Z M 635.6 408.5 " fill="#F5D327"></path><path d="M 644.7 408.5 L 653.8 408.5 L 653.8 399.5 L 644.7 399.5 Z M 644.7 408.5 " fill="#F5D327"></path><path d="M 653.8 408.5 L 662.8 408.5 L 662.8 399.5 L 653.8 399.5 Z M 653.8 408.5 " fill="#F5D327"></path><path d="M 662.8 408.5 L 671.9 408.5 L 671.9 399.5 L 662.8 399.5 Z M 662.8 408.5 " fill="#F5D327"></path><path d="M 671.9 408.5 L 681.0 408.5 L 681.0 399.5 L 671.9 399.5 Z M 671.9 408.5 " fill="#F5D327"></path><path d="M 563.0 399.5 L 572.1 399.5 L 572.1 390.5 L 563.0 390.5 Z M 563.0 399.5 " fill="#C82505"></path><path d="M 572.1 399.5 L 581.2 399.5 L 581.2 390.5 L 572.1 390.5 Z M 572.1 399.5 " fill="#C82505"></path><path d="M 581.2 399.5 L 590.2 399.5 L 590.2 390.5 L 581.2 390.5 Z M 581.2 399.5 " fill="#C82505"></path><path d="M 590.2 399.5 L 599.3 399.5 L 599.3 390.5 L 590.2 390.5 Z M 590.2 399.5 " fill="#C82505"></path><path d="M 599.3 399.5 L 608.4 399.5 L 608.4 390.5 L 599.3 390.5 Z M 599.3 399.5 " fill="#C82505"></path><path d="M 608.4 399.5 L 617.5 399.5 L 617.5 390.5 L 608.4 390.5 Z M 608.4 399.5 " fill="#C82505"></path><path d="M 617.5 399.5 L 626.5 399.5 L 626.5 390.5 L 617.5 390.5 Z M 617.5 399.5 " fill="#C82505"></path><path d="M 626.5 399.5 L 635.6 399.5 L 635.6 390.5 L 626.5 390.5 Z M 626.5 399.5 " fill="#C82505"></path><path d="M 635.6 399.5 L 644.7 399.5 L 644.7 390.5 L 635.6 390.5 Z M 635.6 399.5 " fill="#C82505"></path><path d="M 644.7 399.5 L 653.8 399.5 L 653.8 390.5 L 644.7 390.5 Z M 644.7 399.5 " fill="#C82505"></path><path d="M 653.8 399.5 L 662.8 399.5 L 662.8 390.5 L 653.8 390.5 Z M 653.8 399.5 " fill="#C82505"></path><path d="M 662.8 399.5 L 671.9 399.5 L 671.9 390.5 L 662.8 390.5 Z M 662.8 399.5 " fill="#C82505"></path><path d="M 671.9 399.5 L 681.0 399.5 L 681.0 390.5 L 671.9 390.5 Z M 671.9 399.5 " fill="#C82505"></path><path d="M 563.0 390.5 L 572.1 390.5 L 572.1 381.5 L 563.0 381.5 Z M 563.0 390.5 " fill="#6FBF40"></path><path d="M 572.1 390.5 L 581.2 390.5 L 581.2 381.5 L 572.1 381.5 Z M 572.1 390.5 " fill="#6FBF40"></path><path d="M 581.2 390.5 L 590.2 390.5 L 590.2 381.5 L 581.2 381.5 Z M 581.2 390.5 " fill="#6FBF40"></path><path d="M 590.2 390.5 L 599.3 390.5 L 599.3 381.5 L 590.2 381.5 Z M 590.2 390.5 " fill="#6FBF40"></path><path d="M 599.3 390.5 L 608.4 390.5 L 608.4 381.5 L 599.3 381.5 Z M 599.3 390.5 " fill="#6FBF40"></path><path d="M 608.4 390.5 L 617.5 390.5 L 617.5 381.5 L 608.4 381.5 Z M 608.4 390.5 " fill="#6FBF40"></path><path d="M 617.5 390.5 L 626.5 390.5 L 626.5 381.5 L 617.5 381.5 Z M 617.5 390.5 " fill="#6FBF40"></path><path d="M 626.5 390.5 L 635.6 390.5 L 635.6 381.5 L 626.5 381.5 Z M 626.5 390.5 " fill="#6FBF40"></path><path d="M 635.6 390.5 L 644.7 390.5 L 644.7 381.5 L 635.6 381.5 Z M 635.6 390.5 " fill="#6FBF40"></path><path d="M 644.7 390.5 L 653.8 390.5 L 653.8 381.5 L 644.7 381.5 Z M 644.7 390.5 " fill="#6FBF40"></path><path d="M 653.8 390.5 L 662.8 390.5 L 662.8 381.5 L 653.8 381.5 Z M 653.8 390.5 " fill="#6FBF40"></path><path d="M 662.8 390.5 L 671.9 390.5 L 671.9 381.5 L 662.8 381.5 Z M 662.8 390.5 " fill="#6FBF40"></path><path d="M 671.9 390.5 L 681.0 390.5 L 681.0 381.5 L 671.9 381.5 Z M 671.9 390.5 " fill="#6FBF40"></path></g></g><g><clipPath id="clip-38365"><path d="M 563.0 435.0 L 681.0 435.0 L 681.0 381.0 L 563.0 381.0 Z M 563.0 435.0 "></path></clipPath><g clip-path="url(#clip-38365)"><g><clipPath id="clip-38366"><path d="M 571.6 381.0 L 572.6 381.0 L 572.6 435.0 L 571.6 435.0 Z M 571.6 381.0 "></path></clipPath><g clip-path="url(#clip-38366)"><path d="M 10.1 1.0 L 10.1 55.0 " fill="none" stroke="#52575F" stroke-width="1.00" stroke-dasharray="2.0, 2.0" transform="matrix(1.00, 0.00, 0.00, -1.00, 562.0, 436.0)"></path></g></g></g></g><g><clipPath id="clip-38367"><path d="M 563.0 435.0 L 681.0 435.0 L 681.0 381.0 L 563.0 381.0 Z M 563.0 435.0 "></path></clipPath><g clip-path="url(#clip-38367)"><g><clipPath id="clip-38368"><path d="M 580.7 381.0 L 581.7 381.0 L 581.7 435.0 L 580.7 435.0 Z M 580.7 381.0 "></path></clipPath><g clip-path="url(#clip-38368)"><path d="M 19.2 1.0 L 19.2 55.0 " fill="none" stroke="#52575F" stroke-width="1.00" stroke-dasharray="2.0, 2.0" transform="matrix(1.00, 0.00, 0.00, -1.00, 562.0, 436.0)"></path></g></g></g></g><g><clipPath id="clip-38369"><path d="M 563.0 435.0 L 681.0 435.0 L 681.0 381.0 L 563.0 381.0 Z M 563.0 435.0 "></path></clipPath><g clip-path="url(#clip-38369)"><g><clipPath id="clip-38370"><path d="M 589.7 381.0 L 590.7 381.0 L 590.7 435.0 L 589.7 435.0 Z M 589.7 381.0 "></path></clipPath><g clip-path="url(#clip-38370)"><path d="M 28.2 1.0 L 28.2 55.0 " fill="none" stroke="#52575F" stroke-width="1.00" stroke-dasharray="2.0, 2.0" transform="matrix(1.00, 0.00, 0.00, -1.00, 562.0, 436.0)"></path></g></g></g></g><g><clipPath id="clip-38371"><path d="M 563.0 435.0 L 681.0 435.0 L 681.0 381.0 L 563.0 381.0 Z M 563.0 435.0 "></path></clipPath><g clip-path="url(#clip-38371)"><g><clipPath id="clip-38372"><path d="M 598.8 381.0 L 599.8 381.0 L 599.8 435.0 L 598.8 435.0 Z M 598.8 381.0 "></path></clipPath><g clip-path="url(#clip-38372)"><path d="M 37.3 1.0 L 37.3 55.0 " fill="none" stroke="#52575F" stroke-width="1.00" stroke-dasharray="2.0, 2.0" transform="matrix(1.00, 0.00, 0.00, -1.00, 562.0, 436.0)"></path></g></g></g></g><g><clipPath id="clip-38373"><path d="M 563.0 435.0 L 681.0 435.0 L 681.0 381.0 L 563.0 381.0 Z M 563.0 435.0 "></path></clipPath><g clip-path="url(#clip-38373)"><g><clipPath id="clip-38374"><path d="M 607.9 381.0 L 608.9 381.0 L 608.9 435.0 L 607.9 435.0 Z M 607.9 381.0 "></path></clipPath><g clip-path="url(#clip-38374)"><path d="M 46.4 1.0 L 46.4 55.0 " fill="none" stroke="#52575F" stroke-width="1.00" stroke-dasharray="2.0, 2.0" transform="matrix(1.00, 0.00, 0.00, -1.00, 562.0, 436.0)"></path></g></g></g></g><g><clipPath id="clip-38375"><path d="M 563.0 435.0 L 681.0 435.0 L 681.0 381.0 L 563.0 381.0 Z M 563.0 435.0 "></path></clipPath><g clip-path="url(#clip-38375)"><g><clipPath id="clip-38376"><path d="M 617.0 381.0 L 618.0 381.0 L 618.0 435.0 L 617.0 435.0 Z M 617.0 381.0 "></path></clipPath><g clip-path="url(#clip-38376)"><path d="M 55.5 1.0 L 55.5 55.0 " fill="none" stroke="#52575F" stroke-width="1.00" stroke-dasharray="2.0, 2.0" transform="matrix(1.00, 0.00, 0.00, -1.00, 562.0, 436.0)"></path></g></g></g></g><g><clipPath id="clip-38377"><path d="M 563.0 435.0 L 681.0 435.0 L 681.0 381.0 L 563.0 381.0 Z M 563.0 435.0 "></path></clipPath><g clip-path="url(#clip-38377)"><g><clipPath id="clip-38378"><path d="M 626.0 381.0 L 627.0 381.0 L 627.0 435.0 L 626.0 435.0 Z M 626.0 381.0 "></path></clipPath><g clip-path="url(#clip-38378)"><path d="M 64.5 1.0 L 64.5 55.0 " fill="none" stroke="#52575F" stroke-width="1.00" stroke-dasharray="2.0, 2.0" transform="matrix(1.00, 0.00, 0.00, -1.00, 562.0, 436.0)"></path></g></g></g></g><g><clipPath id="clip-38379"><path d="M 563.0 435.0 L 681.0 435.0 L 681.0 381.0 L 563.0 381.0 Z M 563.0 435.0 "></path></clipPath><g clip-path="url(#clip-38379)"><g><clipPath id="clip-38380"><path d="M 635.1 381.0 L 636.1 381.0 L 636.1 435.0 L 635.1 435.0 Z M 635.1 381.0 "></path></clipPath><g clip-path="url(#clip-38380)"><path d="M 73.6 1.0 L 73.6 55.0 " fill="none" stroke="#52575F" stroke-width="1.00" stroke-dasharray="2.0, 2.0" transform="matrix(1.00, 0.00, 0.00, -1.00, 562.0, 436.0)"></path></g></g></g></g><g><clipPath id="clip-38381"><path d="M 563.0 435.0 L 681.0 435.0 L 681.0 381.0 L 563.0 381.0 Z M 563.0 435.0 "></path></clipPath><g clip-path="url(#clip-38381)"><g><clipPath id="clip-38382"><path d="M 644.2 381.0 L 645.2 381.0 L 645.2 435.0 L 644.2 435.0 Z M 644.2 381.0 "></path></clipPath><g clip-path="url(#clip-38382)"><path d="M 82.7 1.0 L 82.7 55.0 " fill="none" stroke="#52575F" stroke-width="1.00" stroke-dasharray="2.0, 2.0" transform="matrix(1.00, 0.00, 0.00, -1.00, 562.0, 436.0)"></path></g></g></g></g><g><clipPath id="clip-38383"><path d="M 563.0 435.0 L 681.0 435.0 L 681.0 381.0 L 563.0 381.0 Z M 563.0 435.0 "></path></clipPath><g clip-path="url(#clip-38383)"><g><clipPath id="clip-38384"><path d="M 653.3 381.0 L 654.3 381.0 L 654.3 435.0 L 653.3 435.0 Z M 653.3 381.0 "></path></clipPath><g clip-path="url(#clip-38384)"><path d="M 91.8 1.0 L 91.8 55.0 " fill="none" stroke="#52575F" stroke-width="1.00" stroke-dasharray="2.0, 2.0" transform="matrix(1.00, 0.00, 0.00, -1.00, 562.0, 436.0)"></path></g></g></g></g><g><clipPath id="clip-38385"><path d="M 563.0 435.0 L 681.0 435.0 L 681.0 381.0 L 563.0 381.0 Z M 563.0 435.0 "></path></clipPath><g clip-path="url(#clip-38385)"><g><clipPath id="clip-38386"><path d="M 662.3 381.0 L 663.3 381.0 L 663.3 435.0 L 662.3 435.0 Z M 662.3 381.0 "></path></clipPath><g clip-path="url(#clip-38386)"><path d="M 100.8 1.0 L 100.8 55.0 " fill="none" stroke="#52575F" stroke-width="1.00" stroke-dasharray="2.0, 2.0" transform="matrix(1.00, 0.00, 0.00, -1.00, 562.0, 436.0)"></path></g></g></g></g><g><clipPath id="clip-38387"><path d="M 563.0 435.0 L 681.0 435.0 L 681.0 381.0 L 563.0 381.0 Z M 563.0 435.0 "></path></clipPath><g clip-path="url(#clip-38387)"><g><clipPath id="clip-38388"><path d="M 671.4 381.0 L 672.4 381.0 L 672.4 435.0 L 671.4 435.0 Z M 671.4 381.0 "></path></clipPath><g clip-path="url(#clip-38388)"><path d="M 109.9 1.0 L 109.9 55.0 " fill="none" stroke="#52575F" stroke-width="1.00" stroke-dasharray="2.0, 2.0" transform="matrix(1.00, 0.00, 0.00, -1.00, 562.0, 436.0)"></path></g></g></g></g><g><clipPath id="clip-38389"><path d="M 563.0 435.0 L 681.0 435.0 L 681.0 381.0 L 563.0 381.0 Z M 563.0 435.0 "></path></clipPath><g clip-path="url(#clip-38389)"><g><clipPath id="clip-38390"><path d="M 563.0 426.0 L 681.0 426.0 L 681.0 427.0 L 563.0 427.0 Z M 563.0 426.0 "></path></clipPath><g clip-path="url(#clip-38390)"><path d="M 1.0 9.5 L 119.0 9.5 " fill="none" stroke="#52575F" stroke-width="1.00" stroke-dasharray="2.0, 2.0" transform="matrix(1.00, 0.00, 0.00, -1.00, 562.0, 436.0)"></path></g></g></g></g><g><clipPath id="clip-38391"><path d="M 563.0 435.0 L 681.0 435.0 L 681.0 381.0 L 563.0 381.0 Z M 563.0 435.0 "></path></clipPath><g clip-path="url(#clip-38391)"><g><clipPath id="clip-38392"><path d="M 563.0 417.0 L 681.0 417.0 L 681.0 418.0 L 563.0 418.0 Z M 563.0 417.0 "></path></clipPath><g clip-path="url(#clip-38392)"><path d="M 1.0 18.5 L 119.0 18.5 " fill="none" stroke="#52575F" stroke-width="1.00" stroke-dasharray="2.0, 2.0" transform="matrix(1.00, 0.00, 0.00, -1.00, 562.0, 436.0)"></path></g></g></g></g><g><clipPath id="clip-38393"><path d="M 563.0 435.0 L 681.0 435.0 L 681.0 381.0 L 563.0 381.0 Z M 563.0 435.0 "></path></clipPath><g clip-path="url(#clip-38393)"><g><clipPath id="clip-38394"><path d="M 563.0 408.0 L 681.0 408.0 L 681.0 409.0 L 563.0 409.0 Z M 563.0 408.0 "></path></clipPath><g clip-path="url(#clip-38394)"><path d="M 1.0 27.5 L 119.0 27.5 " fill="none" stroke="#52575F" stroke-width="1.00" stroke-dasharray="2.0, 2.0" transform="matrix(1.00, 0.00, 0.00, -1.00, 562.0, 436.0)"></path></g></g></g></g><g><clipPath id="clip-38395"><path d="M 563.0 435.0 L 681.0 435.0 L 681.0 381.0 L 563.0 381.0 Z M 563.0 435.0 "></path></clipPath><g clip-path="url(#clip-38395)"><g><clipPath id="clip-38396"><path d="M 563.0 399.0 L 681.0 399.0 L 681.0 400.0 L 563.0 400.0 Z M 563.0 399.0 "></path></clipPath><g clip-path="url(#clip-38396)"><path d="M 1.0 36.5 L 119.0 36.5 " fill="none" stroke="#52575F" stroke-width="1.00" stroke-dasharray="2.0, 2.0" transform="matrix(1.00, 0.00, 0.00, -1.00, 562.0, 436.0)"></path></g></g></g></g><g><clipPath id="clip-38397"><path d="M 563.0 435.0 L 681.0 435.0 L 681.0 381.0 L 563.0 381.0 Z M 563.0 435.0 "></path></clipPath><g clip-path="url(#clip-38397)"><g><clipPath id="clip-38398"><path d="M 563.0 390.0 L 681.0 390.0 L 681.0 391.0 L 563.0 391.0 Z M 563.0 390.0 "></path></clipPath><g clip-path="url(#clip-38398)"><path d="M 1.0 45.5 L 119.0 45.5 " fill="none" stroke="#52575F" stroke-width="1.00" stroke-dasharray="2.0, 2.0" transform="matrix(1.00, 0.00, 0.00, -1.00, 562.0, 436.0)"></path></g></g></g></g><g><clipPath id="clip-38399"><path d="M 563.0 435.0 L 681.0 435.0 L 681.0 381.0 L 563.0 381.0 Z M 563.0 435.0 "></path></clipPath><g clip-path="url(#clip-38399)"><g><clipPath id="clip-38400"><path d="M 563.0 381.0 L 681.0 381.0 L 681.0 382.0 L 563.0 382.0 Z M 563.0 381.0 "></path></clipPath><g clip-path="url(#clip-38400)"><path d="M 1.0 54.5 L 119.0 54.5 " fill="none" stroke="#52575F" stroke-width="1.00" stroke-dasharray="2.0, 2.0" transform="matrix(1.00, 0.00, 0.00, -1.00, 562.0, 436.0)"></path></g></g></g></g><text xml:space="preserve" font-family="Arial-BoldMT" font-weight="bold" font-size="36.0" fill="#000000" transform="matrix(1.00, 0.00, -0.00, -1.00, 195.0, 698.0)">L</text><text xml:space="preserve" font-family="Arial-BoldMT" font-weight="bold" font-size="36.0" fill="#000000" transform="matrix(1.00, 0.00, -0.00, -1.00, 217.0, 698.0)">o</text><text xml:space="preserve" font-family="Arial-BoldMT" font-weight="bold" font-size="36.0" fill="#000000" transform="matrix(1.00, 0.00, -0.00, -1.00, 239.0, 698.0)">g</text><text xml:space="preserve" font-family="Arial-BoldMT" font-weight="bold" font-size="36.0" fill="#000000" transform="matrix(1.00, 0.00, -0.00, -1.00, 260.9, 698.0)">-</text><text xml:space="preserve" font-family="Arial-BoldMT" font-weight="bold" font-size="36.0" fill="#000000" transform="matrix(1.00, 0.00, -0.00, -1.00, 272.9, 698.0)">S</text><text xml:space="preserve" font-family="Arial-BoldMT" font-weight="bold" font-size="36.0" fill="#000000" transform="matrix(1.00, 0.00, -0.00, -1.00, 296.9, 698.0)">t</text><text xml:space="preserve" font-family="Arial-BoldMT" font-weight="bold" font-size="36.0" fill="#000000" transform="matrix(1.00, 0.00, -0.00, -1.00, 308.9, 698.0)">r</text><text xml:space="preserve" font-family="Arial-BoldMT" font-weight="bold" font-size="36.0" fill="#000000" transform="matrix(1.00, 0.00, -0.00, -1.00, 323.0, 698.0)">u</text><text xml:space="preserve" font-family="Arial-BoldMT" font-weight="bold" font-size="36.0" fill="#000000" transform="matrix(1.00, 0.00, -0.00, -1.00, 344.9, 698.0)">c</text><text xml:space="preserve" font-family="Arial-BoldMT" font-weight="bold" font-size="36.0" fill="#000000" transform="matrix(1.00, 0.00, -0.00, -1.00, 365.0, 698.0)">t</text><text xml:space="preserve" font-family="Arial-BoldMT" font-weight="bold" font-size="36.0" fill="#000000" transform="matrix(1.00, 0.00, -0.00, -1.00, 377.0, 698.0)">u</text><text xml:space="preserve" font-family="Arial-BoldMT" font-weight="bold" font-size="36.0" fill="#000000" transform="matrix(1.00, 0.00, -0.00, -1.00, 398.9, 698.0)">r</text><text xml:space="preserve" font-family="Arial-BoldMT" font-weight="bold" font-size="36.0" fill="#000000" transform="matrix(1.00, 0.00, -0.00, -1.00, 413.0, 698.0)">e</text><text xml:space="preserve" font-family="Arial-BoldMT" font-weight="bold" font-size="36.0" fill="#000000" transform="matrix(1.00, 0.00, -0.00, -1.00, 433.0, 698.0)">d</text><text xml:space="preserve" font-family="Arial-BoldMT" font-weight="bold" font-size="36.0" fill="#000000" transform="matrix(1.00, 0.00, -0.00, -1.00, 455.0, 698.0)"> </text><text xml:space="preserve" font-family="Arial-BoldMT" font-weight="bold" font-size="36.0" fill="#000000" transform="matrix(1.00, 0.00, -0.00, -1.00, 465.0, 698.0)">D</text><text xml:space="preserve" font-family="Arial-BoldMT" font-weight="bold" font-size="36.0" fill="#000000" transform="matrix(1.00, 0.00, -0.00, -1.00, 491.0, 698.0)">a</text><text xml:space="preserve" font-family="Arial-BoldMT" font-weight="bold" font-size="36.0" fill="#000000" transform="matrix(1.00, 0.00, -0.00, -1.00, 511.0, 698.0)">t</text><text xml:space="preserve" font-family="Arial-BoldMT" font-weight="bold" font-size="36.0" fill="#000000" transform="matrix(1.00, 0.00, -0.00, -1.00, 523.0, 698.0)">a</text><text xml:space="preserve" font-family="Arial-BoldMT" font-weight="bold" font-size="36.0" fill="#000000" transform="matrix(1.00, 0.00, -0.00, -1.00, 543.0, 698.0)">b</text><text xml:space="preserve" font-family="Arial-BoldMT" font-weight="bold" font-size="36.0" fill="#000000" transform="matrix(1.00, 0.00, -0.00, -1.00, 565.0, 698.0)">a</text><text xml:space="preserve" font-family="Arial-BoldMT" font-weight="bold" font-size="36.0" fill="#000000" transform="matrix(1.00, 0.00, -0.00, -1.00, 585.0, 698.0)">s</text><text xml:space="preserve" font-family="Arial-BoldMT" font-weight="bold" font-size="36.0" fill="#000000" transform="matrix(1.00, 0.00, -0.00, -1.00, 605.1, 698.0)">e</text><text xml:space="preserve" font-family="Arial-BoldMT" font-weight="bold" font-size="36.0" fill="#000000" transform="matrix(1.00, 0.00, -0.00, -1.00, 625.1, 698.0)"> </text><text xml:space="preserve" font-family="Arial-BoldMT" font-weight="bold" font-size="36.0" fill="#000000" transform="matrix(1.00, 0.00, -0.00, -1.00, 635.1, 698.0)">R</text><text xml:space="preserve" font-family="Arial-BoldMT" font-weight="bold" font-size="36.0" fill="#000000" transform="matrix(1.00, 0.00, -0.00, -1.00, 661.1, 698.0)">e</text><text xml:space="preserve" font-family="Arial-BoldMT" font-weight="bold" font-size="36.0" fill="#000000" transform="matrix(1.00, 0.00, -0.00, -1.00, 681.1, 698.0)">p</text><text xml:space="preserve" font-family="Arial-BoldMT" font-weight="bold" font-size="36.0" fill="#000000" transform="matrix(1.00, 0.00, -0.00, -1.00, 703.1, 698.0)">l</text><text xml:space="preserve" font-family="Arial-BoldMT" font-weight="bold" font-size="36.0" fill="#000000" transform="matrix(1.00, 0.00, -0.00, -1.00, 713.1, 698.0)">i</text><text xml:space="preserve" font-family="Arial-BoldMT" font-weight="bold" font-size="36.0" fill="#000000" transform="matrix(1.00, 0.00, -0.00, -1.00, 723.1, 698.0)">c</text><text xml:space="preserve" font-family="Arial-BoldMT" font-weight="bold" font-size="36.0" fill="#000000" transform="matrix(1.00, 0.00, -0.00, -1.00, 743.1, 698.0)">a</text><text xml:space="preserve" font-family="Arial-BoldMT" font-weight="bold" font-size="36.0" fill="#000000" transform="matrix(1.00, 0.00, -0.00, -1.00, 763.1, 698.0)">t</text><text xml:space="preserve" font-family="Arial-BoldMT" font-weight="bold" font-size="36.0" fill="#000000" transform="matrix(1.00, 0.00, -0.00, -1.00, 775.1, 698.0)">i</text><text xml:space="preserve" font-family="Arial-BoldMT" font-weight="bold" font-size="36.0" fill="#000000" transform="matrix(1.00, 0.00, -0.00, -1.00, 785.1, 698.0)">o</text><text xml:space="preserve" font-family="Arial-BoldMT" font-weight="bold" font-size="36.0" fill="#000000" transform="matrix(1.00, 0.00, -0.00, -1.00, 807.1, 698.0)">n</text><g><clipPath id="clip-38401"><path d="M 385.3 572.6 C 404.9 564.5 404.9 551.3 385.3 543.2 C 365.8 535.0 334.1 535.0 314.6 543.2 C 295.1 551.3 295.1 564.5 314.6 572.6 C 334.1 580.8 365.8 580.8 385.3 572.6 Z M 385.3 572.6 "></path></clipPath><g clip-path="url(#clip-38401)"><image xlink:href="../../C54084A0-2837-43B4-9DB6-DE53C7117ED0/assets/AFF4D1F361AD28AA82012E14045EB299.jpeg" width="128.00" height="128.00" transform="matrix(1.00, 0.00, -0.00, -1.00, 300.0, 578.8)"></image><path d="M 300.0 578.8 L 400.0 578.8 L 400.0 537.1 L 300.0 537.1 Z M 300.0 578.8 " fill="#1093A4" fill-opacity="0.85"></path></g></g><path d="M 85.4 6.1 C 104.9 14.2 104.9 27.4 85.4 35.6 C 65.8 43.7 34.2 43.7 14.6 35.6 C -4.9 27.4 -4.9 14.2 14.6 6.1 C 34.2 -2.0 65.8 -2.0 85.4 6.1 Z M 85.4 6.1 " fill="none" stroke="#A6AAA8" stroke-width="1.00" transform="matrix(1.00, 0.00, 0.00, -1.00, 300.0, 578.8)"></path><g><clipPath id="clip-38402"><path d="M 385.3 582.6 C 404.9 574.5 404.9 561.3 385.3 553.2 C 365.8 545.0 334.1 545.0 314.6 553.2 C 295.1 561.3 295.1 574.5 314.6 582.6 C 334.1 590.8 365.8 590.8 385.3 582.6 Z M 385.3 582.6 "></path></clipPath><g clip-path="url(#clip-38402)"><image xlink:href="../../C54084A0-2837-43B4-9DB6-DE53C7117ED0/assets/AFF4D1F361AD28AA82012E14045EB299.jpeg" width="128.00" height="128.00" transform="matrix(1.00, 0.00, -0.00, -1.00, 300.0, 588.8)"></image><path d="M 300.0 588.8 L 400.0 588.8 L 400.0 547.1 L 300.0 547.1 Z M 300.0 588.8 " fill="#1093A4" fill-opacity="0.85"></path></g></g><path d="M 85.4 6.1 C 104.9 14.2 104.9 27.4 85.4 35.6 C 65.8 43.7 34.2 43.7 14.6 35.6 C -4.9 27.4 -4.9 14.2 14.6 6.1 C 34.2 -2.0 65.8 -2.0 85.4 6.1 Z M 85.4 6.1 " fill="none" stroke="#A6AAA8" stroke-width="1.00" transform="matrix(1.00, 0.00, 0.00, -1.00, 300.0, 588.8)"></path><image xlink:href="A03CA8B75C950D25723ABA6697B66117.png" width="101.00" height="67.00" transform="matrix(0.99, 0.00, -0.00, -1.01, 302.0, 567.0)"></image><g><clipPath id="clip-38403"><path d="M 209.4 91.3 C 228.9 83.1 228.9 69.9 209.4 61.8 C 189.9 53.7 158.2 53.7 138.7 61.8 C 119.2 69.9 119.2 83.1 138.7 91.3 C 158.2 99.4 189.9 99.4 209.4 91.3 Z M 209.4 91.3 "></path></clipPath><g clip-path="url(#clip-38403)"><image xlink:href="../../C54084A0-2837-43B4-9DB6-DE53C7117ED0/assets/AFF4D1F361AD28AA82012E14045EB299.jpeg" width="128.00" height="128.00" transform="matrix(1.00, 0.00, -0.00, -1.00, 124.0, 97.4)"></image><path d="M 124.0 97.4 L 224.0 97.4 L 224.0 55.7 L 124.0 55.7 Z M 124.0 97.4 " fill="#1093A4" fill-opacity="0.85"></path></g></g><path d="M 85.4 6.1 C 104.9 14.2 104.9 27.4 85.4 35.6 C 65.8 43.7 34.2 43.7 14.6 35.6 C -4.9 27.4 -4.9 14.2 14.6 6.1 C 34.2 -2.0 65.8 -2.0 85.4 6.1 Z M 85.4 6.1 " fill="none" stroke="#A6AAA8" stroke-width="1.00" transform="matrix(1.00, 0.00, 0.00, -1.00, 124.0, 97.4)"></path><g><clipPath id="clip-38404"><path d="M 209.4 101.3 C 228.9 93.1 228.9 79.9 209.4 71.8 C 189.9 63.7 158.2 63.7 138.7 71.8 C 119.2 79.9 119.2 93.1 138.7 101.3 C 158.2 109.4 189.9 109.4 209.4 101.3 Z M 209.4 101.3 "></path></clipPath><g clip-path="url(#clip-38404)"><image xlink:href="../../C54084A0-2837-43B4-9DB6-DE53C7117ED0/assets/AFF4D1F361AD28AA82012E14045EB299.jpeg" width="128.00" height="128.00" transform="matrix(1.00, 0.00, -0.00, -1.00, 124.0, 107.4)"></image><path d="M 124.0 107.4 L 224.0 107.4 L 224.0 65.7 L 124.0 65.7 Z M 124.0 107.4 " fill="#1093A4" fill-opacity="0.85"></path></g></g><path d="M 85.4 6.1 C 104.9 14.2 104.9 27.4 85.4 35.6 C 65.8 43.7 34.2 43.7 14.6 35.6 C -4.9 27.4 -4.9 14.2 14.6 6.1 C 34.2 -2.0 65.8 -2.0 85.4 6.1 Z M 85.4 6.1 " fill="none" stroke="#A6AAA8" stroke-width="1.00" transform="matrix(1.00, 0.00, 0.00, -1.00, 124.0, 107.4)"></path><g><clipPath id="clip-38405"><path d="M 209.4 111.3 C 228.9 103.1 228.9 89.9 209.4 81.8 C 189.9 73.7 158.2 73.7 138.7 81.8 C 119.2 89.9 119.2 103.1 138.7 111.3 C 158.2 119.4 189.9 119.4 209.4 111.3 Z M 209.4 111.3 "></path></clipPath><g clip-path="url(#clip-38405)"><image xlink:href="../../C54084A0-2837-43B4-9DB6-DE53C7117ED0/assets/AFF4D1F361AD28AA82012E14045EB299.jpeg" width="128.00" height="128.00" transform="matrix(1.00, 0.00, -0.00, -1.00, 124.0, 117.4)"></image><path d="M 124.0 117.4 L 224.0 117.4 L 224.0 75.7 L 124.0 75.7 Z M 124.0 117.4 " fill="#1093A4" fill-opacity="0.85"></path></g></g><path d="M 85.4 6.1 C 104.9 14.2 104.9 27.4 85.4 35.6 C 65.8 43.7 34.2 43.7 14.6 35.6 C -4.9 27.4 -4.9 14.2 14.6 6.1 C 34.2 -2.0 65.8 -2.0 85.4 6.1 Z M 85.4 6.1 " fill="none" stroke="#A6AAA8" stroke-width="1.00" transform="matrix(1.00, 0.00, 0.00, -1.00, 124.0, 117.4)"></path><g><clipPath id="clip-38406"><path d="M 209.4 121.3 C 228.9 113.1 228.9 99.9 209.4 91.8 C 189.9 83.7 158.2 83.7 138.7 91.8 C 119.2 99.9 119.2 113.1 138.7 121.3 C 158.2 129.4 189.9 129.4 209.4 121.3 Z M 209.4 121.3 "></path></clipPath><g clip-path="url(#clip-38406)"><image xlink:href="../../C54084A0-2837-43B4-9DB6-DE53C7117ED0/assets/AFF4D1F361AD28AA82012E14045EB299.jpeg" width="128.00" height="128.00" transform="matrix(1.00, 0.00, -0.00, -1.00, 124.0, 127.4)"></image><path d="M 124.0 127.4 L 224.0 127.4 L 224.0 85.7 L 124.0 85.7 Z M 124.0 127.4 " fill="#1093A4" fill-opacity="0.85"></path></g></g><path d="M 85.4 6.1 C 104.9 14.2 104.9 27.4 85.4 35.6 C 65.8 43.7 34.2 43.7 14.6 35.6 C -4.9 27.4 -4.9 14.2 14.6 6.1 C 34.2 -2.0 65.8 -2.0 85.4 6.1 Z M 85.4 6.1 " fill="none" stroke="#A6AAA8" stroke-width="1.00" transform="matrix(1.00, 0.00, 0.00, -1.00, 124.0, 127.4)"></path><g><clipPath id="clip-38407"><path d="M 209.4 131.3 C 228.9 123.1 228.9 109.9 209.4 101.8 C 189.9 93.7 158.2 93.7 138.7 101.8 C 119.2 109.9 119.2 123.1 138.7 131.3 C 158.2 139.4 189.9 139.4 209.4 131.3 Z M 209.4 131.3 "></path></clipPath><g clip-path="url(#clip-38407)"><image xlink:href="../../C54084A0-2837-43B4-9DB6-DE53C7117ED0/assets/AFF4D1F361AD28AA82012E14045EB299.jpeg" width="128.00" height="128.00" transform="matrix(1.00, 0.00, -0.00, -1.00, 124.0, 137.4)"></image><path d="M 124.0 137.4 L 224.0 137.4 L 224.0 95.7 L 124.0 95.7 Z M 124.0 137.4 " fill="#1093A4" fill-opacity="0.85"></path></g></g><path d="M 85.4 6.1 C 104.9 14.2 104.9 27.4 85.4 35.6 C 65.8 43.7 34.2 43.7 14.6 35.6 C -4.9 27.4 -4.9 14.2 14.6 6.1 C 34.2 -2.0 65.8 -2.0 85.4 6.1 Z M 85.4 6.1 " fill="none" stroke="#A6AAA8" stroke-width="1.00" transform="matrix(1.00, 0.00, 0.00, -1.00, 124.0, 137.4)"></path><g><clipPath id="clip-38408"><path d="M 209.4 141.3 C 228.9 133.1 228.9 119.9 209.4 111.8 C 189.9 103.7 158.2 103.7 138.7 111.8 C 119.2 119.9 119.2 133.1 138.7 141.3 C 158.2 149.4 189.9 149.4 209.4 141.3 Z M 209.4 141.3 "></path></clipPath><g clip-path="url(#clip-38408)"><image xlink:href="../../C54084A0-2837-43B4-9DB6-DE53C7117ED0/assets/AFF4D1F361AD28AA82012E14045EB299.jpeg" width="128.00" height="128.00" transform="matrix(1.00, 0.00, -0.00, -1.00, 124.0, 147.4)"></image><path d="M 124.0 147.4 L 224.0 147.4 L 224.0 105.7 L 124.0 105.7 Z M 124.0 147.4 " fill="#1093A4" fill-opacity="0.85"></path></g></g><path d="M 85.4 6.1 C 104.9 14.2 104.9 27.4 85.4 35.6 C 65.8 43.7 34.2 43.7 14.6 35.6 C -4.9 27.4 -4.9 14.2 14.6 6.1 C 34.2 -2.0 65.8 -2.0 85.4 6.1 Z M 85.4 6.1 " fill="none" stroke="#A6AAA8" stroke-width="1.00" transform="matrix(1.00, 0.00, 0.00, -1.00, 124.0, 147.4)"></path><g><clipPath id="clip-38409"><path d="M 209.4 151.3 C 228.9 143.1 228.9 129.9 209.4 121.8 C 189.9 113.7 158.2 113.7 138.7 121.8 C 119.2 129.9 119.2 143.1 138.7 151.3 C 158.2 159.4 189.9 159.4 209.4 151.3 Z M 209.4 151.3 "></path></clipPath><g clip-path="url(#clip-38409)"><image xlink:href="../../C54084A0-2837-43B4-9DB6-DE53C7117ED0/assets/AFF4D1F361AD28AA82012E14045EB299.jpeg" width="128.00" height="128.00" transform="matrix(1.00, 0.00, -0.00, -1.00, 124.0, 157.4)"></image><path d="M 124.0 157.4 L 224.0 157.4 L 224.0 115.7 L 124.0 115.7 Z M 124.0 157.4 " fill="#1093A4" fill-opacity="0.85"></path></g></g><path d="M 85.4 6.1 C 104.9 14.2 104.9 27.4 85.4 35.6 C 65.8 43.7 34.2 43.7 14.6 35.6 C -4.9 27.4 -4.9 14.2 14.6 6.1 C 34.2 -2.0 65.8 -2.0 85.4 6.1 Z M 85.4 6.1 " fill="none" stroke="#A6AAA8" stroke-width="1.00" transform="matrix(1.00, 0.00, 0.00, -1.00, 124.0, 157.4)"></path><g><clipPath id="clip-38410"><path d="M 209.4 161.3 C 228.9 153.1 228.9 139.9 209.4 131.8 C 189.9 123.7 158.2 123.7 138.7 131.8 C 119.2 139.9 119.2 153.1 138.7 161.3 C 158.2 169.4 189.9 169.4 209.4 161.3 Z M 209.4 161.3 "></path></clipPath><g clip-path="url(#clip-38410)"><image xlink:href="../../C54084A0-2837-43B4-9DB6-DE53C7117ED0/assets/AFF4D1F361AD28AA82012E14045EB299.jpeg" width="128.00" height="128.00" transform="matrix(1.00, 0.00, -0.00, -1.00, 124.0, 167.4)"></image><path d="M 124.0 167.4 L 224.0 167.4 L 224.0 125.7 L 124.0 125.7 Z M 124.0 167.4 " fill="#1093A4" fill-opacity="0.85"></path></g></g><path d="M 85.4 6.1 C 104.9 14.2 104.9 27.4 85.4 35.6 C 65.8 43.7 34.2 43.7 14.6 35.6 C -4.9 27.4 -4.9 14.2 14.6 6.1 C 34.2 -2.0 65.8 -2.0 85.4 6.1 Z M 85.4 6.1 " fill="none" stroke="#A6AAA8" stroke-width="1.00" transform="matrix(1.00, 0.00, 0.00, -1.00, 124.0, 167.4)"></path><g><clipPath id="clip-38411"><path d="M 209.4 171.3 C 228.9 163.1 228.9 149.9 209.4 141.8 C 189.9 133.7 158.2 133.7 138.7 141.8 C 119.2 149.9 119.2 163.1 138.7 171.3 C 158.2 179.4 189.9 179.4 209.4 171.3 Z M 209.4 171.3 "></path></clipPath><g clip-path="url(#clip-38411)"><image xlink:href="../../C54084A0-2837-43B4-9DB6-DE53C7117ED0/assets/AFF4D1F361AD28AA82012E14045EB299.jpeg" width="128.00" height="128.00" transform="matrix(1.00, 0.00, -0.00, -1.00, 124.0, 177.4)"></image><path d="M 124.0 177.4 L 224.0 177.4 L 224.0 135.7 L 124.0 135.7 Z M 124.0 177.4 " fill="#1093A4" fill-opacity="0.85"></path></g></g><path d="M 85.4 6.1 C 104.9 14.2 104.9 27.4 85.4 35.6 C 65.8 43.7 34.2 43.7 14.6 35.6 C -4.9 27.4 -4.9 14.2 14.6 6.1 C 34.2 -2.0 65.8 -2.0 85.4 6.1 Z M 85.4 6.1 " fill="none" stroke="#A6AAA8" stroke-width="1.00" transform="matrix(1.00, 0.00, 0.00, -1.00, 124.0, 177.4)"></path><image xlink:href="../../C54084A0-2837-43B4-9DB6-DE53C7117ED0/assets/A03CA8B75C950D25723ABA6697B66117.png" width="101.00" height="67.00" transform="matrix(0.99, 0.00, -0.00, -1.00, 126.0, 155.0)"></image><g><clipPath id="clip-38412"><path d="M 867.7 240.9 C 887.2 232.7 887.2 219.5 867.7 211.4 C 848.1 203.3 816.5 203.3 796.9 211.4 C 777.4 219.5 777.4 232.7 796.9 240.9 C 816.5 249.0 848.1 249.0 867.7 240.9 Z M 867.7 240.9 "></path></clipPath><g clip-path="url(#clip-38412)"><image xlink:href="../../C54084A0-2837-43B4-9DB6-DE53C7117ED0/assets/AFF4D1F361AD28AA82012E14045EB299.jpeg" width="128.00" height="128.00" transform="matrix(1.00, 0.00, -0.00, -1.00, 782.3, 247.0)"></image><path d="M 782.3 247.0 L 882.3 247.0 L 882.3 205.3 L 782.3 205.3 Z M 782.3 247.0 " fill="#1093A4" fill-opacity="0.85"></path></g></g><path d="M 85.4 6.1 C 104.9 14.2 104.9 27.4 85.4 35.6 C 65.8 43.7 34.2 43.7 14.6 35.6 C -4.9 27.4 -4.9 14.2 14.6 6.1 C 34.2 -2.0 65.8 -2.0 85.4 6.1 Z M 85.4 6.1 " fill="none" stroke="#A6AAA8" stroke-width="1.00" transform="matrix(1.00, 0.00, 0.00, -1.00, 782.3, 247.0)"></path><g><clipPath id="clip-38413"><path d="M 867.7 250.9 C 887.2 242.7 887.2 229.5 867.7 221.4 C 848.1 213.3 816.5 213.3 796.9 221.4 C 777.4 229.5 777.4 242.7 796.9 250.9 C 816.5 259.0 848.1 259.0 867.7 250.9 Z M 867.7 250.9 "></path></clipPath><g clip-path="url(#clip-38413)"><image xlink:href="../../C54084A0-2837-43B4-9DB6-DE53C7117ED0/assets/AFF4D1F361AD28AA82012E14045EB299.jpeg" width="128.00" height="128.00" transform="matrix(1.00, 0.00, -0.00, -1.00, 782.3, 257.0)"></image><path d="M 782.3 257.0 L 882.3 257.0 L 882.3 215.3 L 782.3 215.3 Z M 782.3 257.0 " fill="#1093A4" fill-opacity="0.85"></path></g></g><path d="M 85.4 6.1 C 104.9 14.2 104.9 27.4 85.4 35.6 C 65.8 43.7 34.2 43.7 14.6 35.6 C -4.9 27.4 -4.9 14.2 14.6 6.1 C 34.2 -2.0 65.8 -2.0 85.4 6.1 Z M 85.4 6.1 " fill="none" stroke="#A6AAA8" stroke-width="1.00" transform="matrix(1.00, 0.00, 0.00, -1.00, 782.3, 257.0)"></path><g><clipPath id="clip-38414"><path d="M 867.7 260.9 C 887.2 252.7 887.2 239.5 867.7 231.4 C 848.1 223.3 816.5 223.3 796.9 231.4 C 777.4 239.5 777.4 252.7 796.9 260.9 C 816.5 269.0 848.1 269.0 867.7 260.9 Z M 867.7 260.9 "></path></clipPath><g clip-path="url(#clip-38414)"><image xlink:href="../../C54084A0-2837-43B4-9DB6-DE53C7117ED0/assets/AFF4D1F361AD28AA82012E14045EB299.jpeg" width="128.00" height="128.00" transform="matrix(1.00, 0.00, -0.00, -1.00, 782.3, 267.0)"></image><path d="M 782.3 267.0 L 882.3 267.0 L 882.3 225.3 L 782.3 225.3 Z M 782.3 267.0 " fill="#1093A4" fill-opacity="0.85"></path></g></g><path d="M 85.4 6.1 C 104.9 14.2 104.9 27.4 85.4 35.6 C 65.8 43.7 34.2 43.7 14.6 35.6 C -4.9 27.4 -4.9 14.2 14.6 6.1 C 34.2 -2.0 65.8 -2.0 85.4 6.1 Z M 85.4 6.1 " fill="none" stroke="#A6AAA8" stroke-width="1.00" transform="matrix(1.00, 0.00, 0.00, -1.00, 782.3, 267.0)"></path><g><clipPath id="clip-38415"><path d="M 867.7 270.9 C 887.2 262.7 887.2 249.5 867.7 241.4 C 848.1 233.3 816.5 233.3 796.9 241.4 C 777.4 249.5 777.4 262.7 796.9 270.9 C 816.5 279.0 848.1 279.0 867.7 270.9 Z M 867.7 270.9 "></path></clipPath><g clip-path="url(#clip-38415)"><image xlink:href="../../C54084A0-2837-43B4-9DB6-DE53C7117ED0/assets/AFF4D1F361AD28AA82012E14045EB299.jpeg" width="128.00" height="128.00" transform="matrix(1.00, 0.00, -0.00, -1.00, 782.3, 277.0)"></image><path d="M 782.3 277.0 L 882.3 277.0 L 882.3 235.3 L 782.3 235.3 Z M 782.3 277.0 " fill="#1093A4" fill-opacity="0.85"></path></g></g><path d="M 85.4 6.1 C 104.9 14.2 104.9 27.4 85.4 35.6 C 65.8 43.7 34.2 43.7 14.6 35.6 C -4.9 27.4 -4.9 14.2 14.6 6.1 C 34.2 -2.0 65.8 -2.0 85.4 6.1 Z M 85.4 6.1 " fill="none" stroke="#A6AAA8" stroke-width="1.00" transform="matrix(1.00, 0.00, 0.00, -1.00, 782.3, 277.0)"></path><g><clipPath id="clip-38416"><path d="M 867.7 280.9 C 887.2 272.7 887.2 259.5 867.7 251.4 C 848.1 243.3 816.5 243.3 796.9 251.4 C 777.4 259.5 777.4 272.7 796.9 280.9 C 816.5 289.0 848.1 289.0 867.7 280.9 Z M 867.7 280.9 "></path></clipPath><g clip-path="url(#clip-38416)"><image xlink:href="../../C54084A0-2837-43B4-9DB6-DE53C7117ED0/assets/AFF4D1F361AD28AA82012E14045EB299.jpeg" width="128.00" height="128.00" transform="matrix(1.00, 0.00, -0.00, -1.00, 782.3, 287.0)"></image><path d="M 782.3 287.0 L 882.3 287.0 L 882.3 245.3 L 782.3 245.3 Z M 782.3 287.0 " fill="#1093A4" fill-opacity="0.85"></path></g></g><path d="M 85.4 6.1 C 104.9 14.2 104.9 27.4 85.4 35.6 C 65.8 43.7 34.2 43.7 14.6 35.6 C -4.9 27.4 -4.9 14.2 14.6 6.1 C 34.2 -2.0 65.8 -2.0 85.4 6.1 Z M 85.4 6.1 " fill="none" stroke="#A6AAA8" stroke-width="1.00" transform="matrix(1.00, 0.00, 0.00, -1.00, 782.3, 287.0)"></path><g><clipPath id="clip-38417"><path d="M 867.7 290.9 C 887.2 282.7 887.2 269.5 867.7 261.4 C 848.1 253.3 816.5 253.3 796.9 261.4 C 777.4 269.5 777.4 282.7 796.9 290.9 C 816.5 299.0 848.1 299.0 867.7 290.9 Z M 867.7 290.9 "></path></clipPath><g clip-path="url(#clip-38417)"><image xlink:href="../../C54084A0-2837-43B4-9DB6-DE53C7117ED0/assets/AFF4D1F361AD28AA82012E14045EB299.jpeg" width="128.00" height="128.00" transform="matrix(1.00, 0.00, -0.00, -1.00, 782.3, 297.0)"></image><path d="M 782.3 297.0 L 882.3 297.0 L 882.3 255.3 L 782.3 255.3 Z M 782.3 297.0 " fill="#1093A4" fill-opacity="0.85"></path></g></g><path d="M 85.4 6.1 C 104.9 14.2 104.9 27.4 85.4 35.6 C 65.8 43.7 34.2 43.7 14.6 35.6 C -4.9 27.4 -4.9 14.2 14.6 6.1 C 34.2 -2.0 65.8 -2.0 85.4 6.1 Z M 85.4 6.1 " fill="none" stroke="#A6AAA8" stroke-width="1.00" transform="matrix(1.00, 0.00, 0.00, -1.00, 782.3, 297.0)"></path><g><clipPath id="clip-38418"><path d="M 867.7 300.9 C 887.2 292.7 887.2 279.5 867.7 271.4 C 848.1 263.3 816.5 263.3 796.9 271.4 C 777.4 279.5 777.4 292.7 796.9 300.9 C 816.5 309.0 848.1 309.0 867.7 300.9 Z M 867.7 300.9 "></path></clipPath><g clip-path="url(#clip-38418)"><image xlink:href="../../C54084A0-2837-43B4-9DB6-DE53C7117ED0/assets/AFF4D1F361AD28AA82012E14045EB299.jpeg" width="128.00" height="128.00" transform="matrix(1.00, 0.00, -0.00, -1.00, 782.3, 307.0)"></image><path d="M 782.3 307.0 L 882.3 307.0 L 882.3 265.3 L 782.3 265.3 Z M 782.3 307.0 " fill="#1093A4" fill-opacity="0.85"></path></g></g><path d="M 85.4 6.1 C 104.9 14.2 104.9 27.4 85.4 35.6 C 65.8 43.7 34.2 43.7 14.6 35.6 C -4.9 27.4 -4.9 14.2 14.6 6.1 C 34.2 -2.0 65.8 -2.0 85.4 6.1 Z M 85.4 6.1 " fill="none" stroke="#A6AAA8" stroke-width="1.00" transform="matrix(1.00, 0.00, 0.00, -1.00, 782.3, 307.0)"></path><g><clipPath id="clip-38419"><path d="M 867.7 310.9 C 887.2 302.7 887.2 289.5 867.7 281.4 C 848.1 273.3 816.5 273.3 796.9 281.4 C 777.4 289.5 777.4 302.7 796.9 310.9 C 816.5 319.0 848.1 319.0 867.7 310.9 Z M 867.7 310.9 "></path></clipPath><g clip-path="url(#clip-38419)"><image xlink:href="../../C54084A0-2837-43B4-9DB6-DE53C7117ED0/assets/AFF4D1F361AD28AA82012E14045EB299.jpeg" width="128.00" height="128.00" transform="matrix(1.00, 0.00, -0.00, -1.00, 782.3, 317.0)"></image><path d="M 782.3 317.0 L 882.3 317.0 L 882.3 275.3 L 782.3 275.3 Z M 782.3 317.0 " fill="#1093A4" fill-opacity="0.85"></path></g></g><path d="M 85.4 6.1 C 104.9 14.2 104.9 27.4 85.4 35.6 C 65.8 43.7 34.2 43.7 14.6 35.6 C -4.9 27.4 -4.9 14.2 14.6 6.1 C 34.2 -2.0 65.8 -2.0 85.4 6.1 Z M 85.4 6.1 " fill="none" stroke="#A6AAA8" stroke-width="1.00" transform="matrix(1.00, 0.00, 0.00, -1.00, 782.3, 317.0)"></path><g><clipPath id="clip-38420"><path d="M 867.7 320.9 C 887.2 312.7 887.2 299.5 867.7 291.4 C 848.1 283.3 816.5 283.3 796.9 291.4 C 777.4 299.5 777.4 312.7 796.9 320.9 C 816.5 329.0 848.1 329.0 867.7 320.9 Z M 867.7 320.9 "></path></clipPath><g clip-path="url(#clip-38420)"><image xlink:href="../../C54084A0-2837-43B4-9DB6-DE53C7117ED0/assets/AFF4D1F361AD28AA82012E14045EB299.jpeg" width="128.00" height="128.00" transform="matrix(1.00, 0.00, -0.00, -1.00, 782.3, 327.0)"></image><path d="M 782.3 327.0 L 882.3 327.0 L 882.3 285.3 L 782.3 285.3 Z M 782.3 327.0 " fill="#1093A4" fill-opacity="0.85"></path></g></g><path d="M 85.4 6.1 C 104.9 14.2 104.9 27.4 85.4 35.6 C 65.8 43.7 34.2 43.7 14.6 35.6 C -4.9 27.4 -4.9 14.2 14.6 6.1 C 34.2 -2.0 65.8 -2.0 85.4 6.1 Z M 85.4 6.1 " fill="none" stroke="#A6AAA8" stroke-width="1.00" transform="matrix(1.00, 0.00, 0.00, -1.00, 782.3, 327.0)"></path><image xlink:href="../../C54084A0-2837-43B4-9DB6-DE53C7117ED0/assets/A03CA8B75C950D25723ABA6697B66117.png" width="101.00" height="67.00" transform="matrix(0.99, 0.00, -0.00, -1.00, 784.0, 305.0)"></image><g><clipPath id="clip-38421"><path d="M 369.0 213.0 L 487.0 213.0 L 487.0 181.1 L 369.0 181.1 Z M 369.0 213.0 "></path></clipPath><g clip-path="url(#clip-38421)"><path d="M 369.0 202.5 L 378.1 202.5 L 378.1 192.1 L 369.0 192.1 Z M 369.0 202.5 " fill="#F5D327"></path><path d="M 378.1 202.5 L 387.2 202.5 L 387.2 192.1 L 378.1 192.1 Z M 378.1 202.5 " fill="#F5D327"></path><path d="M 387.2 202.5 L 396.2 202.5 L 396.2 192.1 L 387.2 192.1 Z M 387.2 202.5 " fill="#F5D327"></path><path d="M 396.2 202.5 L 405.3 202.5 L 405.3 192.1 L 396.2 192.1 Z M 396.2 202.5 " fill="#F5D327"></path><path d="M 405.3 202.5 L 414.4 202.5 L 414.4 192.1 L 405.3 192.1 Z M 405.3 202.5 " fill="#F5D327"></path><path d="M 414.4 202.5 L 423.5 202.5 L 423.5 192.1 L 414.4 192.1 Z M 414.4 202.5 " fill="#F5D327"></path><path d="M 423.5 202.5 L 432.5 202.5 L 432.5 192.1 L 423.5 192.1 Z M 423.5 202.5 " fill="#F5D327"></path><path d="M 432.5 202.5 L 441.6 202.5 L 441.6 192.1 L 432.5 192.1 Z M 432.5 202.5 " fill="#F5D327"></path><path d="M 441.6 202.5 L 450.7 202.5 L 450.7 192.1 L 441.6 192.1 Z M 441.6 202.5 " fill="#F5D327"></path><path d="M 450.7 202.5 L 459.8 202.5 L 459.8 192.1 L 450.7 192.1 Z M 450.7 202.5 " fill="#F5D327"></path><path d="M 459.8 202.5 L 468.8 202.5 L 468.8 192.1 L 459.8 192.1 Z M 459.8 202.5 " fill="#F5D327"></path><path d="M 468.8 202.5 L 477.9 202.5 L 477.9 192.1 L 468.8 192.1 Z M 468.8 202.5 " fill="#F5D327"></path><path d="M 477.9 202.5 L 487.0 202.5 L 487.0 192.1 L 477.9 192.1 Z M 477.9 202.5 " fill="#F5D327"></path><path d="M 369.0 192.1 L 378.1 192.1 L 378.1 181.6 L 369.0 181.6 Z M 369.0 192.1 " fill="#F5D327"></path><path d="M 378.1 192.1 L 387.2 192.1 L 387.2 181.6 L 378.1 181.6 Z M 378.1 192.1 " fill="#F5D327"></path><path d="M 387.2 192.1 L 396.2 192.1 L 396.2 181.6 L 387.2 181.6 Z M 387.2 192.1 " fill="#F5D327"></path><path d="M 396.2 192.1 L 405.3 192.1 L 405.3 181.6 L 396.2 181.6 Z M 396.2 192.1 " fill="#F5D327"></path><path d="M 405.3 192.1 L 414.4 192.1 L 414.4 181.6 L 405.3 181.6 Z M 405.3 192.1 " fill="#F5D327"></path><path d="M 414.4 192.1 L 423.5 192.1 L 423.5 181.6 L 414.4 181.6 Z M 414.4 192.1 " fill="#F5D327"></path><path d="M 423.5 192.1 L 432.5 192.1 L 432.5 181.6 L 423.5 181.6 Z M 423.5 192.1 " fill="#F5D327"></path><path d="M 432.5 192.1 L 441.6 192.1 L 441.6 181.6 L 432.5 181.6 Z M 432.5 192.1 " fill="#F5D327"></path><path d="M 441.6 192.1 L 450.7 192.1 L 450.7 181.6 L 441.6 181.6 Z M 441.6 192.1 " fill="#F5D327"></path><path d="M 450.7 192.1 L 459.8 192.1 L 459.8 181.6 L 450.7 181.6 Z M 450.7 192.1 " fill="#F5D327"></path><path d="M 459.8 192.1 L 468.8 192.1 L 468.8 181.6 L 459.8 181.6 Z M 459.8 192.1 " fill="#F5D327"></path><path d="M 468.8 192.1 L 477.9 192.1 L 477.9 181.6 L 468.8 181.6 Z M 468.8 192.1 " fill="#F5D327"></path><path d="M 477.9 192.1 L 487.0 192.1 L 487.0 181.6 L 477.9 181.6 Z M 477.9 192.1 " fill="#F5D327"></path></g></g><g><clipPath id="clip-38422"><path d="M 369.0 213.0 L 487.0 213.0 L 487.0 181.1 L 369.0 181.1 Z M 369.0 213.0 "></path></clipPath><g clip-path="url(#clip-38422)"><g><clipPath id="clip-38423"><path d="M 377.6 181.1 L 378.6 181.1 L 378.6 213.0 L 377.6 213.0 Z M 377.6 181.1 "></path></clipPath><g clip-path="url(#clip-38423)"><path d="M 10.1 1.0 L 10.1 32.9 " fill="none" stroke="#52575F" stroke-width="1.00" stroke-dasharray="2.0, 2.0" transform="matrix(1.00, 0.00, 0.00, -1.00, 368.0, 214.0)"></path></g></g></g></g><g><clipPath id="clip-38424"><path d="M 369.0 213.0 L 487.0 213.0 L 487.0 181.1 L 369.0 181.1 Z M 369.0 213.0 "></path></clipPath><g clip-path="url(#clip-38424)"><g><clipPath id="clip-38425"><path d="M 386.7 181.1 L 387.7 181.1 L 387.7 213.0 L 386.7 213.0 Z M 386.7 181.1 "></path></clipPath><g clip-path="url(#clip-38425)"><path d="M 19.2 1.0 L 19.2 32.9 " fill="none" stroke="#52575F" stroke-width="1.00" stroke-dasharray="2.0, 2.0" transform="matrix(1.00, 0.00, 0.00, -1.00, 368.0, 214.0)"></path></g></g></g></g><g><clipPath id="clip-38426"><path d="M 369.0 213.0 L 487.0 213.0 L 487.0 181.1 L 369.0 181.1 Z M 369.0 213.0 "></path></clipPath><g clip-path="url(#clip-38426)"><g><clipPath id="clip-38427"><path d="M 395.7 181.1 L 396.7 181.1 L 396.7 213.0 L 395.7 213.0 Z M 395.7 181.1 "></path></clipPath><g clip-path="url(#clip-38427)"><path d="M 28.2 1.0 L 28.2 32.9 " fill="none" stroke="#52575F" stroke-width="1.00" stroke-dasharray="2.0, 2.0" transform="matrix(1.00, 0.00, 0.00, -1.00, 368.0, 214.0)"></path></g></g></g></g><g><clipPath id="clip-38428"><path d="M 369.0 213.0 L 487.0 213.0 L 487.0 181.1 L 369.0 181.1 Z M 369.0 213.0 "></path></clipPath><g clip-path="url(#clip-38428)"><g><clipPath id="clip-38429"><path d="M 404.8 181.1 L 405.8 181.1 L 405.8 213.0 L 404.8 213.0 Z M 404.8 181.1 "></path></clipPath><g clip-path="url(#clip-38429)"><path d="M 37.3 1.0 L 37.3 32.9 " fill="none" stroke="#52575F" stroke-width="1.00" stroke-dasharray="2.0, 2.0" transform="matrix(1.00, 0.00, 0.00, -1.00, 368.0, 214.0)"></path></g></g></g></g><g><clipPath id="clip-38430"><path d="M 369.0 213.0 L 487.0 213.0 L 487.0 181.1 L 369.0 181.1 Z M 369.0 213.0 "></path></clipPath><g clip-path="url(#clip-38430)"><g><clipPath id="clip-38431"><path d="M 413.9 181.1 L 414.9 181.1 L 414.9 213.0 L 413.9 213.0 Z M 413.9 181.1 "></path></clipPath><g clip-path="url(#clip-38431)"><path d="M 46.4 1.0 L 46.4 32.9 " fill="none" stroke="#52575F" stroke-width="1.00" stroke-dasharray="2.0, 2.0" transform="matrix(1.00, 0.00, 0.00, -1.00, 368.0, 214.0)"></path></g></g></g></g><g><clipPath id="clip-38432"><path d="M 369.0 213.0 L 487.0 213.0 L 487.0 181.1 L 369.0 181.1 Z M 369.0 213.0 "></path></clipPath><g clip-path="url(#clip-38432)"><g><clipPath id="clip-38433"><path d="M 423.0 181.1 L 424.0 181.1 L 424.0 213.0 L 423.0 213.0 Z M 423.0 181.1 "></path></clipPath><g clip-path="url(#clip-38433)"><path d="M 55.5 1.0 L 55.5 32.9 " fill="none" stroke="#52575F" stroke-width="1.00" stroke-dasharray="2.0, 2.0" transform="matrix(1.00, 0.00, 0.00, -1.00, 368.0, 214.0)"></path></g></g></g></g><g><clipPath id="clip-38434"><path d="M 369.0 213.0 L 487.0 213.0 L 487.0 181.1 L 369.0 181.1 Z M 369.0 213.0 "></path></clipPath><g clip-path="url(#clip-38434)"><g><clipPath id="clip-38435"><path d="M 432.0 181.1 L 433.0 181.1 L 433.0 213.0 L 432.0 213.0 Z M 432.0 181.1 "></path></clipPath><g clip-path="url(#clip-38435)"><path d="M 64.5 1.0 L 64.5 32.9 " fill="none" stroke="#52575F" stroke-width="1.00" stroke-dasharray="2.0, 2.0" transform="matrix(1.00, 0.00, 0.00, -1.00, 368.0, 214.0)"></path></g></g></g></g><g><clipPath id="clip-38436"><path d="M 369.0 213.0 L 487.0 213.0 L 487.0 181.1 L 369.0 181.1 Z M 369.0 213.0 "></path></clipPath><g clip-path="url(#clip-38436)"><g><clipPath id="clip-38437"><path d="M 441.1 181.1 L 442.1 181.1 L 442.1 213.0 L 441.1 213.0 Z M 441.1 181.1 "></path></clipPath><g clip-path="url(#clip-38437)"><path d="M 73.6 1.0 L 73.6 32.9 " fill="none" stroke="#52575F" stroke-width="1.00" stroke-dasharray="2.0, 2.0" transform="matrix(1.00, 0.00, 0.00, -1.00, 368.0, 214.0)"></path></g></g></g></g><g><clipPath id="clip-38438"><path d="M 369.0 213.0 L 487.0 213.0 L 487.0 181.1 L 369.0 181.1 Z M 369.0 213.0 "></path></clipPath><g clip-path="url(#clip-38438)"><g><clipPath id="clip-38439"><path d="M 450.2 181.1 L 451.2 181.1 L 451.2 213.0 L 450.2 213.0 Z M 450.2 181.1 "></path></clipPath><g clip-path="url(#clip-38439)"><path d="M 82.7 1.0 L 82.7 32.9 " fill="none" stroke="#52575F" stroke-width="1.00" stroke-dasharray="2.0, 2.0" transform="matrix(1.00, 0.00, 0.00, -1.00, 368.0, 214.0)"></path></g></g></g></g><g><clipPath id="clip-38440"><path d="M 369.0 213.0 L 487.0 213.0 L 487.0 181.1 L 369.0 181.1 Z M 369.0 213.0 "></path></clipPath><g clip-path="url(#clip-38440)"><g><clipPath id="clip-38441"><path d="M 459.3 181.1 L 460.3 181.1 L 460.3 213.0 L 459.3 213.0 Z M 459.3 181.1 "></path></clipPath><g clip-path="url(#clip-38441)"><path d="M 91.8 1.0 L 91.8 32.9 " fill="none" stroke="#52575F" stroke-width="1.00" stroke-dasharray="2.0, 2.0" transform="matrix(1.00, 0.00, 0.00, -1.00, 368.0, 214.0)"></path></g></g></g></g><g><clipPath id="clip-38442"><path d="M 369.0 213.0 L 487.0 213.0 L 487.0 181.1 L 369.0 181.1 Z M 369.0 213.0 "></path></clipPath><g clip-path="url(#clip-38442)"><g><clipPath id="clip-38443"><path d="M 468.3 181.1 L 469.3 181.1 L 469.3 213.0 L 468.3 213.0 Z M 468.3 181.1 "></path></clipPath><g clip-path="url(#clip-38443)"><path d="M 100.8 1.0 L 100.8 32.9 " fill="none" stroke="#52575F" stroke-width="1.00" stroke-dasharray="2.0, 2.0" transform="matrix(1.00, 0.00, 0.00, -1.00, 368.0, 214.0)"></path></g></g></g></g><g><clipPath id="clip-38444"><path d="M 369.0 213.0 L 487.0 213.0 L 487.0 181.1 L 369.0 181.1 Z M 369.0 213.0 "></path></clipPath><g clip-path="url(#clip-38444)"><g><clipPath id="clip-38445"><path d="M 477.4 181.1 L 478.4 181.1 L 478.4 213.0 L 477.4 213.0 Z M 477.4 181.1 "></path></clipPath><g clip-path="url(#clip-38445)"><path d="M 109.9 1.0 L 109.9 32.9 " fill="none" stroke="#52575F" stroke-width="1.00" stroke-dasharray="2.0, 2.0" transform="matrix(1.00, 0.00, 0.00, -1.00, 368.0, 214.0)"></path></g></g></g></g><g><clipPath id="clip-38446"><path d="M 369.0 213.0 L 487.0 213.0 L 487.0 181.1 L 369.0 181.1 Z M 369.0 213.0 "></path></clipPath><g clip-path="url(#clip-38446)"><g><clipPath id="clip-38447"><path d="M 369.0 202.0 L 487.0 202.0 L 487.0 203.0 L 369.0 203.0 Z M 369.0 202.0 "></path></clipPath><g clip-path="url(#clip-38447)"><path d="M 1.0 11.5 L 119.0 11.5 " fill="none" stroke="#52575F" stroke-width="1.00" stroke-dasharray="2.0, 2.0" transform="matrix(1.00, 0.00, 0.00, -1.00, 368.0, 214.0)"></path></g></g></g></g><g><clipPath id="clip-38448"><path d="M 369.0 213.0 L 487.0 213.0 L 487.0 181.1 L 369.0 181.1 Z M 369.0 213.0 "></path></clipPath><g clip-path="url(#clip-38448)"><g><clipPath id="clip-38449"><path d="M 369.0 191.6 L 487.0 191.6 L 487.0 192.6 L 369.0 192.6 Z M 369.0 191.6 "></path></clipPath><g clip-path="url(#clip-38449)"><path d="M 1.0 21.9 L 119.0 21.9 " fill="none" stroke="#52575F" stroke-width="1.00" stroke-dasharray="2.0, 2.0" transform="matrix(1.00, 0.00, 0.00, -1.00, 368.0, 214.0)"></path></g></g></g></g><g><clipPath id="clip-38450"><path d="M 369.0 213.0 L 487.0 213.0 L 487.0 181.1 L 369.0 181.1 Z M 369.0 213.0 "></path></clipPath><g clip-path="url(#clip-38450)"><g><clipPath id="clip-38451"><path d="M 369.0 181.1 L 487.0 181.1 L 487.0 182.1 L 369.0 182.1 Z M 369.0 181.1 "></path></clipPath><g clip-path="url(#clip-38451)"><path d="M 1.0 32.4 L 119.0 32.4 " fill="none" stroke="#52575F" stroke-width="1.00" stroke-dasharray="2.0, 2.0" transform="matrix(1.00, 0.00, 0.00, -1.00, 368.0, 214.0)"></path></g></g></g></g><g><clipPath id="clip-38452"><path d="M 472.0 322.0 L 590.0 322.0 L 590.0 290.1 L 472.0 290.1 Z M 472.0 322.0 "></path></clipPath><g clip-path="url(#clip-38452)"><path d="M 472.0 311.5 L 481.1 311.5 L 481.1 301.1 L 472.0 301.1 Z M 472.0 311.5 " fill="#6FBF40"></path><path d="M 481.1 311.5 L 490.2 311.5 L 490.2 301.1 L 481.1 301.1 Z M 481.1 311.5 " fill="#6FBF40"></path><path d="M 490.2 311.5 L 499.2 311.5 L 499.2 301.1 L 490.2 301.1 Z M 490.2 311.5 " fill="#6FBF40"></path><path d="M 499.2 311.5 L 508.3 311.5 L 508.3 301.1 L 499.2 301.1 Z M 499.2 311.5 " fill="#6FBF40"></path><path d="M 508.3 311.5 L 517.4 311.5 L 517.4 301.1 L 508.3 301.1 Z M 508.3 311.5 " fill="#6FBF40"></path><path d="M 517.4 311.5 L 526.5 311.5 L 526.5 301.1 L 517.4 301.1 Z M 517.4 311.5 " fill="#6FBF40"></path><path d="M 526.5 311.5 L 535.5 311.5 L 535.5 301.1 L 526.5 301.1 Z M 526.5 311.5 " fill="#6FBF40"></path><path d="M 535.5 311.5 L 544.6 311.5 L 544.6 301.1 L 535.5 301.1 Z M 535.5 311.5 " fill="#6FBF40"></path><path d="M 544.6 311.5 L 553.7 311.5 L 553.7 301.1 L 544.6 301.1 Z M 544.6 311.5 " fill="#6FBF40"></path><path d="M 553.7 311.5 L 562.8 311.5 L 562.8 301.1 L 553.7 301.1 Z M 553.7 311.5 " fill="#6FBF40"></path><path d="M 562.8 311.5 L 571.8 311.5 L 571.8 301.1 L 562.8 301.1 Z M 562.8 311.5 " fill="#6FBF40"></path><path d="M 571.8 311.5 L 580.9 311.5 L 580.9 301.1 L 571.8 301.1 Z M 571.8 311.5 " fill="#6FBF40"></path><path d="M 580.9 311.5 L 590.0 311.5 L 590.0 301.1 L 580.9 301.1 Z M 580.9 311.5 " fill="#6FBF40"></path><path d="M 472.0 301.1 L 481.1 301.1 L 481.1 290.6 L 472.0 290.6 Z M 472.0 301.1 " fill="#F5D327"></path><path d="M 481.1 301.1 L 490.2 301.1 L 490.2 290.6 L 481.1 290.6 Z M 481.1 301.1 " fill="#F5D327"></path><path d="M 490.2 301.1 L 499.2 301.1 L 499.2 290.6 L 490.2 290.6 Z M 490.2 301.1 " fill="#F5D327"></path><path d="M 499.2 301.1 L 508.3 301.1 L 508.3 290.6 L 499.2 290.6 Z M 499.2 301.1 " fill="#F5D327"></path><path d="M 508.3 301.1 L 517.4 301.1 L 517.4 290.6 L 508.3 290.6 Z M 508.3 301.1 " fill="#F5D327"></path><path d="M 517.4 301.1 L 526.5 301.1 L 526.5 290.6 L 517.4 290.6 Z M 517.4 301.1 " fill="#F5D327"></path><path d="M 526.5 301.1 L 535.5 301.1 L 535.5 290.6 L 526.5 290.6 Z M 526.5 301.1 " fill="#F5D327"></path><path d="M 535.5 301.1 L 544.6 301.1 L 544.6 290.6 L 535.5 290.6 Z M 535.5 301.1 " fill="#F5D327"></path><path d="M 544.6 301.1 L 553.7 301.1 L 553.7 290.6 L 544.6 290.6 Z M 544.6 301.1 " fill="#F5D327"></path><path d="M 553.7 301.1 L 562.8 301.1 L 562.8 290.6 L 553.7 290.6 Z M 553.7 301.1 " fill="#F5D327"></path><path d="M 562.8 301.1 L 571.8 301.1 L 571.8 290.6 L 562.8 290.6 Z M 562.8 301.1 " fill="#F5D327"></path><path d="M 571.8 301.1 L 580.9 301.1 L 580.9 290.6 L 571.8 290.6 Z M 571.8 301.1 " fill="#F5D327"></path><path d="M 580.9 301.1 L 590.0 301.1 L 590.0 290.6 L 580.9 290.6 Z M 580.9 301.1 " fill="#F5D327"></path></g></g><g><clipPath id="clip-38453"><path d="M 472.0 322.0 L 590.0 322.0 L 590.0 290.1 L 472.0 290.1 Z M 472.0 322.0 "></path></clipPath><g clip-path="url(#clip-38453)"><g><clipPath id="clip-38454"><path d="M 480.6 290.1 L 481.6 290.1 L 481.6 322.0 L 480.6 322.0 Z M 480.6 290.1 "></path></clipPath><g clip-path="url(#clip-38454)"><path d="M 10.1 1.0 L 10.1 32.9 " fill="none" stroke="#52575F" stroke-width="1.00" stroke-dasharray="2.0, 2.0" transform="matrix(1.00, 0.00, 0.00, -1.00, 471.0, 323.0)"></path></g></g></g></g><g><clipPath id="clip-38455"><path d="M 472.0 322.0 L 590.0 322.0 L 590.0 290.1 L 472.0 290.1 Z M 472.0 322.0 "></path></clipPath><g clip-path="url(#clip-38455)"><g><clipPath id="clip-38456"><path d="M 489.7 290.1 L 490.7 290.1 L 490.7 322.0 L 489.7 322.0 Z M 489.7 290.1 "></path></clipPath><g clip-path="url(#clip-38456)"><path d="M 19.2 1.0 L 19.2 32.9 " fill="none" stroke="#52575F" stroke-width="1.00" stroke-dasharray="2.0, 2.0" transform="matrix(1.00, 0.00, 0.00, -1.00, 471.0, 323.0)"></path></g></g></g></g><g><clipPath id="clip-38457"><path d="M 472.0 322.0 L 590.0 322.0 L 590.0 290.1 L 472.0 290.1 Z M 472.0 322.0 "></path></clipPath><g clip-path="url(#clip-38457)"><g><clipPath id="clip-38458"><path d="M 498.7 290.1 L 499.7 290.1 L 499.7 322.0 L 498.7 322.0 Z M 498.7 290.1 "></path></clipPath><g clip-path="url(#clip-38458)"><path d="M 28.2 1.0 L 28.2 32.9 " fill="none" stroke="#52575F" stroke-width="1.00" stroke-dasharray="2.0, 2.0" transform="matrix(1.00, 0.00, 0.00, -1.00, 471.0, 323.0)"></path></g></g></g></g><g><clipPath id="clip-38459"><path d="M 472.0 322.0 L 590.0 322.0 L 590.0 290.1 L 472.0 290.1 Z M 472.0 322.0 "></path></clipPath><g clip-path="url(#clip-38459)"><g><clipPath id="clip-38460"><path d="M 507.8 290.1 L 508.8 290.1 L 508.8 322.0 L 507.8 322.0 Z M 507.8 290.1 "></path></clipPath><g clip-path="url(#clip-38460)"><path d="M 37.3 1.0 L 37.3 32.9 " fill="none" stroke="#52575F" stroke-width="1.00" stroke-dasharray="2.0, 2.0" transform="matrix(1.00, 0.00, 0.00, -1.00, 471.0, 323.0)"></path></g></g></g></g><g><clipPath id="clip-38461"><path d="M 472.0 322.0 L 590.0 322.0 L 590.0 290.1 L 472.0 290.1 Z M 472.0 322.0 "></path></clipPath><g clip-path="url(#clip-38461)"><g><clipPath id="clip-38462"><path d="M 516.9 290.1 L 517.9 290.1 L 517.9 322.0 L 516.9 322.0 Z M 516.9 290.1 "></path></clipPath><g clip-path="url(#clip-38462)"><path d="M 46.4 1.0 L 46.4 32.9 " fill="none" stroke="#52575F" stroke-width="1.00" stroke-dasharray="2.0, 2.0" transform="matrix(1.00, 0.00, 0.00, -1.00, 471.0, 323.0)"></path></g></g></g></g><g><clipPath id="clip-38463"><path d="M 472.0 322.0 L 590.0 322.0 L 590.0 290.1 L 472.0 290.1 Z M 472.0 322.0 "></path></clipPath><g clip-path="url(#clip-38463)"><g><clipPath id="clip-38464"><path d="M 526.0 290.1 L 527.0 290.1 L 527.0 322.0 L 526.0 322.0 Z M 526.0 290.1 "></path></clipPath><g clip-path="url(#clip-38464)"><path d="M 55.5 1.0 L 55.5 32.9 " fill="none" stroke="#52575F" stroke-width="1.00" stroke-dasharray="2.0, 2.0" transform="matrix(1.00, 0.00, 0.00, -1.00, 471.0, 323.0)"></path></g></g></g></g><g><clipPath id="clip-38465"><path d="M 472.0 322.0 L 590.0 322.0 L 590.0 290.1 L 472.0 290.1 Z M 472.0 322.0 "></path></clipPath><g clip-path="url(#clip-38465)"><g><clipPath id="clip-38466"><path d="M 535.0 290.1 L 536.0 290.1 L 536.0 322.0 L 535.0 322.0 Z M 535.0 290.1 "></path></clipPath><g clip-path="url(#clip-38466)"><path d="M 64.5 1.0 L 64.5 32.9 " fill="none" stroke="#52575F" stroke-width="1.00" stroke-dasharray="2.0, 2.0" transform="matrix(1.00, 0.00, 0.00, -1.00, 471.0, 323.0)"></path></g></g></g></g><g><clipPath id="clip-38467"><path d="M 472.0 322.0 L 590.0 322.0 L 590.0 290.1 L 472.0 290.1 Z M 472.0 322.0 "></path></clipPath><g clip-path="url(#clip-38467)"><g><clipPath id="clip-38468"><path d="M 544.1 290.1 L 545.1 290.1 L 545.1 322.0 L 544.1 322.0 Z M 544.1 290.1 "></path></clipPath><g clip-path="url(#clip-38468)"><path d="M 73.6 1.0 L 73.6 32.9 " fill="none" stroke="#52575F" stroke-width="1.00" stroke-dasharray="2.0, 2.0" transform="matrix(1.00, 0.00, 0.00, -1.00, 471.0, 323.0)"></path></g></g></g></g><g><clipPath id="clip-38469"><path d="M 472.0 322.0 L 590.0 322.0 L 590.0 290.1 L 472.0 290.1 Z M 472.0 322.0 "></path></clipPath><g clip-path="url(#clip-38469)"><g><clipPath id="clip-38470"><path d="M 553.2 290.1 L 554.2 290.1 L 554.2 322.0 L 553.2 322.0 Z M 553.2 290.1 "></path></clipPath><g clip-path="url(#clip-38470)"><path d="M 82.7 1.0 L 82.7 32.9 " fill="none" stroke="#52575F" stroke-width="1.00" stroke-dasharray="2.0, 2.0" transform="matrix(1.00, 0.00, 0.00, -1.00, 471.0, 323.0)"></path></g></g></g></g><g><clipPath id="clip-38471"><path d="M 472.0 322.0 L 590.0 322.0 L 590.0 290.1 L 472.0 290.1 Z M 472.0 322.0 "></path></clipPath><g clip-path="url(#clip-38471)"><g><clipPath id="clip-38472"><path d="M 562.3 290.1 L 563.3 290.1 L 563.3 322.0 L 562.3 322.0 Z M 562.3 290.1 "></path></clipPath><g clip-path="url(#clip-38472)"><path d="M 91.8 1.0 L 91.8 32.9 " fill="none" stroke="#52575F" stroke-width="1.00" stroke-dasharray="2.0, 2.0" transform="matrix(1.00, 0.00, 0.00, -1.00, 471.0, 323.0)"></path></g></g></g></g><g><clipPath id="clip-38473"><path d="M 472.0 322.0 L 590.0 322.0 L 590.0 290.1 L 472.0 290.1 Z M 472.0 322.0 "></path></clipPath><g clip-path="url(#clip-38473)"><g><clipPath id="clip-38474"><path d="M 571.3 290.1 L 572.3 290.1 L 572.3 322.0 L 571.3 322.0 Z M 571.3 290.1 "></path></clipPath><g clip-path="url(#clip-38474)"><path d="M 100.8 1.0 L 100.8 32.9 " fill="none" stroke="#52575F" stroke-width="1.00" stroke-dasharray="2.0, 2.0" transform="matrix(1.00, 0.00, 0.00, -1.00, 471.0, 323.0)"></path></g></g></g></g><g><clipPath id="clip-38475"><path d="M 472.0 322.0 L 590.0 322.0 L 590.0 290.1 L 472.0 290.1 Z M 472.0 322.0 "></path></clipPath><g clip-path="url(#clip-38475)"><g><clipPath id="clip-38476"><path d="M 580.4 290.1 L 581.4 290.1 L 581.4 322.0 L 580.4 322.0 Z M 580.4 290.1 "></path></clipPath><g clip-path="url(#clip-38476)"><path d="M 109.9 1.0 L 109.9 32.9 " fill="none" stroke="#52575F" stroke-width="1.00" stroke-dasharray="2.0, 2.0" transform="matrix(1.00, 0.00, 0.00, -1.00, 471.0, 323.0)"></path></g></g></g></g><g><clipPath id="clip-38477"><path d="M 472.0 322.0 L 590.0 322.0 L 590.0 290.1 L 472.0 290.1 Z M 472.0 322.0 "></path></clipPath><g clip-path="url(#clip-38477)"><g><clipPath id="clip-38478"><path d="M 472.0 311.0 L 590.0 311.0 L 590.0 312.0 L 472.0 312.0 Z M 472.0 311.0 "></path></clipPath><g clip-path="url(#clip-38478)"><path d="M 1.0 11.5 L 119.0 11.5 " fill="none" stroke="#52575F" stroke-width="1.00" stroke-dasharray="2.0, 2.0" transform="matrix(1.00, 0.00, 0.00, -1.00, 471.0, 323.0)"></path></g></g></g></g><g><clipPath id="clip-38479"><path d="M 472.0 322.0 L 590.0 322.0 L 590.0 290.1 L 472.0 290.1 Z M 472.0 322.0 "></path></clipPath><g clip-path="url(#clip-38479)"><g><clipPath id="clip-38480"><path d="M 472.0 300.6 L 590.0 300.6 L 590.0 301.6 L 472.0 301.6 Z M 472.0 300.6 "></path></clipPath><g clip-path="url(#clip-38480)"><path d="M 1.0 21.9 L 119.0 21.9 " fill="none" stroke="#52575F" stroke-width="1.00" stroke-dasharray="2.0, 2.0" transform="matrix(1.00, 0.00, 0.00, -1.00, 471.0, 323.0)"></path></g></g></g></g><g><clipPath id="clip-38481"><path d="M 472.0 322.0 L 590.0 322.0 L 590.0 290.1 L 472.0 290.1 Z M 472.0 322.0 "></path></clipPath><g clip-path="url(#clip-38481)"><g><clipPath id="clip-38482"><path d="M 472.0 290.1 L 590.0 290.1 L 590.0 291.1 L 472.0 291.1 Z M 472.0 290.1 "></path></clipPath><g clip-path="url(#clip-38482)"><path d="M 1.0 32.4 L 119.0 32.4 " fill="none" stroke="#52575F" stroke-width="1.00" stroke-dasharray="2.0, 2.0" transform="matrix(1.00, 0.00, 0.00, -1.00, 471.0, 323.0)"></path></g></g></g></g><path d="M 6.0 211.5 L 6.7 210.7 C 109.1 107.7 229.8 37.4 369.0 0.0 " fill="none" stroke="#000000" stroke-width="2.00" stroke-dasharray="2.0, 2.0" transform="matrix(1.00, 0.00, 0.00, -1.00, 192.7, 394.0)"></path><path d="M 196.0 186.6 L 192.7 176.4 L 202.9 179.9 Z M 196.0 186.6 " fill="#000000"></path><path d="M 0.0 0.0 C 74.4 0.1 138.2 26.4 191.5 78.7 L 192.2 79.4 " fill="none" stroke="#000000" stroke-width="2.00" transform="matrix(1.00, 0.00, 0.00, -1.00, 399.8, 521.5)"></path><path d="M 587.8 439.4 L 598.0 436.0 L 594.7 446.2 Z M 587.8 439.4 " fill="#000000"></path><path d="M 0.0 53.0 C 101.9 3.2 208.0 -11.5 318.3 8.8 L 319.3 9.0 " fill="none" stroke="#000000" stroke-width="2.00" stroke-dasharray="2.0, 2.0" transform="matrix(1.00, 0.00, 0.00, -1.00, 460.7, 267.4)"></path><path d="M 778.1 253.9 L 788.4 256.8 L 779.9 263.3 Z M 778.1 253.9 " fill="#000000"></path><path d="M 126.9 64.0 L 126.2 63.3 C 96.0 34.8 54.0 13.7 0.0 0.0 " fill="none" stroke="#000000" stroke-width="2.00" stroke-dasharray="2.0, 2.0" transform="matrix(1.00, 0.00, 0.00, -1.00, 682.7, 396.4)"></path><path d="M 805.5 329.7 L 815.7 326.3 L 812.3 336.5 Z M 805.5 329.7 " fill="#000000"></path><path d="M 1.1 8.5 L 1.0 9.5 C -7.1 80.3 35.5 127.2 128.7 150.1 " fill="none" stroke="#000000" stroke-width="2.00" stroke-dasharray="2.0, 2.0" transform="matrix(1.00, 0.00, 0.00, -1.00, 342.8, 466.7)"></path><path d="M 348.5 456.5 L 345.1 466.7 L 339.0 457.8 Z M 348.5 456.5 " fill="#000000"></path><path d="M 6.3 121.5 L 7.0 120.8 C 84.5 50.1 174.8 9.8 277.7 0.0 " fill="none" stroke="#000000" stroke-width="2.00" stroke-dasharray="2.0, 2.0" transform="matrix(1.00, 0.00, 0.00, -1.00, 193.8, 303.6)"></path><path d="M 197.6 186.3 L 193.8 176.2 L 204.1 179.2 Z M 197.6 186.3 " fill="#000000"></path><path d="M 5.5 6.6 L 6.1 7.4 C 64.0 79.0 83.3 161.1 64.1 253.5 " fill="none" stroke="#000000" stroke-width="2.00" stroke-dasharray="2.0, 2.0" transform="matrix(1.00, 0.00, 0.00, -1.00, 368.3, 468.0)"></path><path d="M 378.1 463.7 L 368.3 468.0 L 370.7 457.5 Z M 378.1 463.7 " fill="#000000"></path><path d="M 0.0 81.5 C 88.8 53.8 150.9 28.5 186.4 5.4 L 187.3 4.9 " fill="none" stroke="#000000" stroke-width="2.00" transform="matrix(1.00, 0.00, 0.00, -1.00, 215.2, 180.5)"></path><path d="M 404.4 171.1 L 409.6 180.5 L 398.9 179.0 Z M 404.4 171.1 " fill="#000000"></path><path d="M 8.5 1.1 L 9.5 1.3 C 70.2 9.3 130.9 17.3 191.6 25.3 " fill="none" stroke="#000000" stroke-width="2.00" transform="matrix(1.00, 0.00, 0.00, -1.00, 592.5, 297.9)"></path><path d="M 602.6 301.4 L 592.5 297.9 L 601.4 291.8 Z M 602.6 301.4 " fill="#000000"></path><text xml:space="preserve" font-family="Helvetica-Light" font-size="36.0" fill="#000000" transform="matrix(1.00, 0.00, -0.00, -1.00, 111.0, 620.0)">A</text><text xml:space="preserve" font-family="Helvetica-Light" font-size="36.0" fill="#000000" transform="matrix(1.00, 0.00, -0.00, -1.00, 135.0, 620.0)">p</text><text xml:space="preserve" font-family="Helvetica-Light" font-size="36.0" fill="#000000" transform="matrix(1.00, 0.00, -0.00, -1.00, 157.0, 620.0)">a</text><text xml:space="preserve" font-family="Helvetica-Light" font-size="36.0" fill="#000000" transform="matrix(1.00, 0.00, -0.00, -1.00, 177.0, 620.0)">c</text><text xml:space="preserve" font-family="Helvetica-Light" font-size="36.0" fill="#000000" transform="matrix(1.00, 0.00, -0.00, -1.00, 197.0, 620.0)">h</text><text xml:space="preserve" font-family="Helvetica-Light" font-size="36.0" fill="#000000" transform="matrix(1.00, 0.00, -0.00, -1.00, 217.1, 620.0)">e</text><text xml:space="preserve" font-family="Helvetica-Light" font-size="36.0" fill="#000000" transform="matrix(1.00, 0.00, -0.00, -1.00, 237.1, 620.0)"> </text><text xml:space="preserve" font-family="Helvetica-Light" font-size="36.0" fill="#000000" transform="matrix(1.00, 0.00, -0.00, -1.00, 247.1, 620.0)">C</text><text xml:space="preserve" font-family="Helvetica-Light" font-size="36.0" fill="#000000" transform="matrix(1.00, 0.00, -0.00, -1.00, 273.1, 620.0)">a</text><text xml:space="preserve" font-family="Helvetica-Light" font-size="36.0" fill="#000000" transform="matrix(1.00, 0.00, -0.00, -1.00, 293.1, 620.0)">s</text><text xml:space="preserve" font-family="Helvetica-Light" font-size="36.0" fill="#000000" transform="matrix(1.00, 0.00, -0.00, -1.00, 311.1, 620.0)">s</text><text xml:space="preserve" font-family="Helvetica-Light" font-size="36.0" fill="#000000" transform="matrix(1.00, 0.00, -0.00, -1.00, 329.1, 620.0)">a</text><text xml:space="preserve" font-family="Helvetica-Light" font-size="36.0" fill="#000000" transform="matrix(1.00, 0.00, -0.00, -1.00, 349.1, 620.0)">n</text><text xml:space="preserve" font-family="Helvetica-Light" font-size="36.0" fill="#000000" transform="matrix(1.00, 0.00, -0.00, -1.00, 369.1, 620.0)">d</text><text xml:space="preserve" font-family="Helvetica-Light" font-size="36.0" fill="#000000" transform="matrix(1.00, 0.00, -0.00, -1.00, 391.1, 620.0)">r</text><text xml:space="preserve" font-family="Helvetica-Light" font-size="36.0" fill="#000000" transform="matrix(1.00, 0.00, -0.00, -1.00, 403.1, 620.0)">a</text><text xml:space="preserve" font-family="Helvetica-Light" font-size="36.0" fill="#000000" transform="matrix(1.00, 0.00, -0.00, -1.00, 423.1, 620.0)"> </text><text xml:space="preserve" font-family="Helvetica-Light" font-size="36.0" fill="#000000" transform="matrix(1.00, 0.00, -0.00, -1.00, 433.1, 620.0)">u</text><text xml:space="preserve" font-family="Helvetica-Light" font-size="36.0" fill="#000000" transform="matrix(1.00, 0.00, -0.00, -1.00, 453.1, 620.0)">s</text><text xml:space="preserve" font-family="Helvetica-Light" font-size="36.0" fill="#000000" transform="matrix(1.00, 0.00, -0.00, -1.00, 471.1, 620.0)">e</text><text xml:space="preserve" font-family="Helvetica-Light" font-size="36.0" fill="#000000" transform="matrix(1.00, 0.00, -0.00, -1.00, 491.2, 620.0)">s</text><text xml:space="preserve" font-family="Helvetica-Light" font-size="36.0" fill="#000000" transform="matrix(1.00, 0.00, -0.00, -1.00, 509.2, 620.0)"> </text><text xml:space="preserve" font-family="Helvetica-Light" font-size="36.0" fill="#000000" transform="matrix(1.00, 0.00, -0.00, -1.00, 519.2, 620.0)">S</text><text xml:space="preserve" font-family="Helvetica-Light" font-size="36.0" fill="#000000" transform="matrix(1.00, 0.00, -0.00, -1.00, 541.2, 620.0)">S</text><text xml:space="preserve" font-family="Helvetica-Light" font-size="36.0" fill="#000000" transform="matrix(1.00, 0.00, -0.00, -1.00, 563.2, 620.0)">T</text><text xml:space="preserve" font-family="Helvetica-Light" font-size="36.0" fill="#000000" transform="matrix(1.00, 0.00, -0.00, -1.00, 579.2, 620.0)">a</text><text xml:space="preserve" font-family="Helvetica-Light" font-size="36.0" fill="#000000" transform="matrix(1.00, 0.00, -0.00, -1.00, 599.2, 620.0)">b</text><text xml:space="preserve" font-family="Helvetica-Light" font-size="36.0" fill="#000000" transform="matrix(1.00, 0.00, -0.00, -1.00, 621.2, 620.0)">l</text><text xml:space="preserve" font-family="Helvetica-Light" font-size="36.0" fill="#000000" transform="matrix(1.00, 0.00, -0.00, -1.00, 629.2, 620.0)">e</text><text xml:space="preserve" font-family="Helvetica-Light" font-size="36.0" fill="#000000" transform="matrix(1.00, 0.00, -0.00, -1.00, 649.2, 620.0)">s</text><text xml:space="preserve" font-family="Helvetica-Light" font-size="36.0" fill="#000000" transform="matrix(1.00, 0.00, -0.00, -1.00, 667.2, 620.0)"> </text><text xml:space="preserve" font-family="Helvetica-Light" font-size="36.0" fill="#000000" transform="matrix(1.00, 0.00, -0.00, -1.00, 677.2, 620.0)">t</text><text xml:space="preserve" font-family="Helvetica-Light" font-size="36.0" fill="#000000" transform="matrix(1.00, 0.00, -0.00, -1.00, 687.2, 620.0)">o</text><text xml:space="preserve" font-family="Helvetica-Light" font-size="36.0" fill="#000000" transform="matrix(1.00, 0.00, -0.00, -1.00, 707.2, 620.0)"> </text><text xml:space="preserve" font-family="Helvetica-Light" font-size="36.0" fill="#000000" transform="matrix(1.00, 0.00, -0.00, -1.00, 717.2, 620.0)">S</text><text xml:space="preserve" font-family="Helvetica-Light" font-size="36.0" fill="#000000" transform="matrix(1.00, 0.00, -0.00, -1.00, 739.2, 620.0)">y</text><text xml:space="preserve" font-family="Helvetica-Light" font-size="36.0" fill="#000000" transform="matrix(1.00, 0.00, -0.00, -1.00, 757.2, 620.0)">n</text><text xml:space="preserve" font-family="Helvetica-Light" font-size="36.0" fill="#000000" transform="matrix(1.00, 0.00, -0.00, -1.00, 777.3, 620.0)">c</text><text xml:space="preserve" font-family="Helvetica-Light" font-size="36.0" fill="#000000" transform="matrix(1.00, 0.00, -0.00, -1.00, 797.3, 620.0)"> </text><text xml:space="preserve" font-family="Helvetica-Light" font-size="36.0" fill="#000000" transform="matrix(1.00, 0.00, -0.00, -1.00, 807.3, 620.0)">N</text><text xml:space="preserve" font-family="Helvetica-Light" font-size="36.0" fill="#000000" transform="matrix(1.00, 0.00, -0.00, -1.00, 833.3, 620.0)">o</text><text xml:space="preserve" font-family="Helvetica-Light" font-size="36.0" fill="#000000" transform="matrix(1.00, 0.00, -0.00, -1.00, 853.3, 620.0)">d</text><text xml:space="preserve" font-family="Helvetica-Light" font-size="36.0" fill="#000000" transform="matrix(1.00, 0.00, -0.00, -1.00, 875.3, 620.0)">e</text><text xml:space="preserve" font-family="Helvetica-Light" font-size="36.0" fill="#000000" transform="matrix(1.00, 0.00, -0.00, -1.00, 895.3, 620.0)">s</text></g></svg>