<?xml version="1.0" encoding="UTF-8" standalone="no"?><svg xmlns="http://www.w3.org/2000/svg" xmlns:xlink="http://www.w3.org/1999/xlink" clip-rule="evenodd" stroke-miterlimit="4.00" viewBox="0 0 1024 768"><desc>SVG generated by Keynote</desc><defs></defs><g transform="matrix(1.00, 0.00, -0.00, -1.00, 0.0, 768.0)"><path d="M 0.0 768.0 L 1024.0 768.0 L 1024.0 0.0 L 0.0 0.0 Z M 0.0 768.0 " fill="#FEFFFF"></path><g><clipPath id="clip-39830"><path d="M 169.5 469.4 C 189.0 461.2 189.0 448.0 169.5 439.9 C 150.0 431.8 118.3 431.8 98.8 439.9 C 79.3 448.0 79.3 461.2 98.8 469.4 C 118.3 477.5 150.0 477.5 169.5 469.4 Z M 169.5 469.4 "></path></clipPath><g clip-path="url(#clip-39830)"><g><clipPath id="clip-39831"><path d="M 83.1 432.8 L 185.1 432.8 L 185.1 476.5 L 83.1 476.5 Z M 83.1 432.8 "></path></clipPath><g clip-path="url(#clip-39831)"><image xlink:href="../../E032F876-E8E9-4C42-AF2C-93ED8E896D6C/assets/AFF4D1F361AD28AA82012E14045EB299.jpeg" width="128.00" height="128.00" transform="matrix(1.00, 0.00, -0.00, -1.00, 84.1, 475.5)"></image><path d="M 84.1 475.5 L 184.1 475.5 L 184.1 433.8 L 84.1 433.8 Z M 84.1 475.5 " fill="#1093A4" fill-opacity="0.85"></path></g></g></g></g><g><clipPath id="clip-39832"><path d="M 84.1 552.6 L 184.1 552.6 L 184.1 452.6 L 84.1 452.6 Z M 84.1 552.6 "></path></clipPath><g clip-path="url(#clip-39832)"><g><clipPath id="clip-39833"><path d="M 83.1 451.6 L 185.1 451.6 L 185.1 553.6 L 83.1 553.6 Z M 83.1 451.6 "></path></clipPath><g clip-path="url(#clip-39833)"><image xlink:href="../../E032F876-E8E9-4C42-AF2C-93ED8E896D6C/assets/AFF4D1F361AD28AA82012E14045EB299.jpeg" width="128.00" height="128.00" transform="matrix(1.00, 0.00, -0.00, -1.00, 84.1, 552.6)"></image><path d="M 84.1 552.6 L 184.1 552.6 L 184.1 452.6 L 84.1 452.6 Z M 84.1 552.6 " fill="#1093A4" fill-opacity="0.85"></path></g></g></g></g><g><clipPath id="clip-39834"><path d="M 169.5 563.0 C 189.0 554.8 189.0 541.6 169.5 533.5 C 150.0 525.3 118.3 525.3 98.8 533.5 C 79.3 541.6 79.3 554.8 98.8 563.0 C 118.3 571.1 150.0 571.1 169.5 563.0 Z M 169.5 563.0 "></path></clipPath><g clip-path="url(#clip-39834)"><g><clipPath id="clip-39835"><path d="M 82.6 525.9 L 185.6 525.9 L 185.6 570.6 L 82.6 570.6 Z M 82.6 525.9 "></path></clipPath><g clip-path="url(#clip-39835)"><image xlink:href="../../E032F876-E8E9-4C42-AF2C-93ED8E896D6C/assets/AFF4D1F361AD28AA82012E14045EB299.jpeg" width="128.00" height="128.00" transform="matrix(1.00, 0.00, -0.00, -1.00, 84.1, 569.1)"></image><path d="M 84.1 569.1 L 184.1 569.1 L 184.1 527.4 L 84.1 527.4 Z M 84.1 569.1 " fill="#1093A4" fill-opacity="0.85"></path></g></g></g></g><g><clipPath id="clip-39836"><path d="M 82.6 525.9 L 185.6 525.9 L 185.6 570.6 L 82.6 570.6 Z M 82.6 525.9 "></path></clipPath><g clip-path="url(#clip-39836)"><path d="M 85.4 6.1 C 104.9 14.2 104.9 27.4 85.4 35.6 C 65.8 43.7 34.2 43.7 14.6 35.6 C -4.9 27.4 -4.9 14.2 14.6 6.1 C 34.2 -2.0 65.8 -2.0 85.4 6.1 Z M 85.4 6.1 " fill="none" stroke="#A6AAA8" stroke-width="1.00" transform="matrix(1.00, 0.00, 0.00, -1.00, 84.1, 569.1)"></path></g></g><g><clipPath id="clip-39837"><path d="M 78.2 446.5 L 188.3 446.5 L 188.3 568.8 L 78.2 568.8 Z M 78.2 446.5 "></path></clipPath><g clip-path="url(#clip-39837)"><image xlink:href="../../E032F876-E8E9-4C42-AF2C-93ED8E896D6C/assets/18EBC3A74E6F7292DBD243080D117D0A.png" width="110.00" height="123.00" transform="matrix(1.00, 0.00, -0.00, -1.00, 78.0, 569.0)"></image></g></g><g><clipPath id="clip-39838"><path d="M 280.0 568.0 L 397.0 568.0 L 397.0 415.0 L 280.0 415.0 Z M 280.0 568.0 "></path></clipPath><g clip-path="url(#clip-39838)"><g><clipPath id="clip-39839"><path d="M 288.5 415.0 L 289.5 415.0 L 289.5 568.0 L 288.5 568.0 Z M 288.5 415.0 "></path></clipPath><g clip-path="url(#clip-39839)"><path d="M 10.0 1.0 L 10.0 154.0 " fill="none" stroke="#52575F" stroke-width="1.00" stroke-dasharray="2.0, 2.0" transform="matrix(1.00, 0.00, 0.00, -1.00, 279.0, 569.0)"></path></g></g></g></g><g><clipPath id="clip-39840"><path d="M 280.0 568.0 L 397.0 568.0 L 397.0 415.0 L 280.0 415.0 Z M 280.0 568.0 "></path></clipPath><g clip-path="url(#clip-39840)"><g><clipPath id="clip-39841"><path d="M 297.5 415.0 L 298.5 415.0 L 298.5 568.0 L 297.5 568.0 Z M 297.5 415.0 "></path></clipPath><g clip-path="url(#clip-39841)"><path d="M 19.0 1.0 L 19.0 154.0 " fill="none" stroke="#52575F" stroke-width="1.00" stroke-dasharray="2.0, 2.0" transform="matrix(1.00, 0.00, 0.00, -1.00, 279.0, 569.0)"></path></g></g></g></g><g><clipPath id="clip-39842"><path d="M 280.0 568.0 L 397.0 568.0 L 397.0 415.0 L 280.0 415.0 Z M 280.0 568.0 "></path></clipPath><g clip-path="url(#clip-39842)"><g><clipPath id="clip-39843"><path d="M 306.5 415.0 L 307.5 415.0 L 307.5 568.0 L 306.5 568.0 Z M 306.5 415.0 "></path></clipPath><g clip-path="url(#clip-39843)"><path d="M 28.0 1.0 L 28.0 154.0 " fill="none" stroke="#52575F" stroke-width="1.00" stroke-dasharray="2.0, 2.0" transform="matrix(1.00, 0.00, 0.00, -1.00, 279.0, 569.0)"></path></g></g></g></g><g><clipPath id="clip-39844"><path d="M 280.0 568.0 L 397.0 568.0 L 397.0 415.0 L 280.0 415.0 Z M 280.0 568.0 "></path></clipPath><g clip-path="url(#clip-39844)"><g><clipPath id="clip-39845"><path d="M 315.5 415.0 L 316.5 415.0 L 316.5 568.0 L 315.5 568.0 Z M 315.5 415.0 "></path></clipPath><g clip-path="url(#clip-39845)"><path d="M 37.0 1.0 L 37.0 154.0 " fill="none" stroke="#52575F" stroke-width="1.00" stroke-dasharray="2.0, 2.0" transform="matrix(1.00, 0.00, 0.00, -1.00, 279.0, 569.0)"></path></g></g></g></g><g><clipPath id="clip-39846"><path d="M 280.0 568.0 L 397.0 568.0 L 397.0 415.0 L 280.0 415.0 Z M 280.0 568.0 "></path></clipPath><g clip-path="url(#clip-39846)"><g><clipPath id="clip-39847"><path d="M 324.5 415.0 L 325.5 415.0 L 325.5 568.0 L 324.5 568.0 Z M 324.5 415.0 "></path></clipPath><g clip-path="url(#clip-39847)"><path d="M 46.0 1.0 L 46.0 154.0 " fill="none" stroke="#52575F" stroke-width="1.00" stroke-dasharray="2.0, 2.0" transform="matrix(1.00, 0.00, 0.00, -1.00, 279.0, 569.0)"></path></g></g></g></g><g><clipPath id="clip-39848"><path d="M 280.0 568.0 L 397.0 568.0 L 397.0 415.0 L 280.0 415.0 Z M 280.0 568.0 "></path></clipPath><g clip-path="url(#clip-39848)"><g><clipPath id="clip-39849"><path d="M 333.5 415.0 L 334.5 415.0 L 334.5 568.0 L 333.5 568.0 Z M 333.5 415.0 "></path></clipPath><g clip-path="url(#clip-39849)"><path d="M 55.0 1.0 L 55.0 154.0 " fill="none" stroke="#52575F" stroke-width="1.00" stroke-dasharray="2.0, 2.0" transform="matrix(1.00, 0.00, 0.00, -1.00, 279.0, 569.0)"></path></g></g></g></g><g><clipPath id="clip-39850"><path d="M 280.0 568.0 L 397.0 568.0 L 397.0 415.0 L 280.0 415.0 Z M 280.0 568.0 "></path></clipPath><g clip-path="url(#clip-39850)"><g><clipPath id="clip-39851"><path d="M 342.5 415.0 L 343.5 415.0 L 343.5 568.0 L 342.5 568.0 Z M 342.5 415.0 "></path></clipPath><g clip-path="url(#clip-39851)"><path d="M 64.0 1.0 L 64.0 154.0 " fill="none" stroke="#52575F" stroke-width="1.00" stroke-dasharray="2.0, 2.0" transform="matrix(1.00, 0.00, 0.00, -1.00, 279.0, 569.0)"></path></g></g></g></g><g><clipPath id="clip-39852"><path d="M 280.0 568.0 L 397.0 568.0 L 397.0 415.0 L 280.0 415.0 Z M 280.0 568.0 "></path></clipPath><g clip-path="url(#clip-39852)"><g><clipPath id="clip-39853"><path d="M 351.5 415.0 L 352.5 415.0 L 352.5 568.0 L 351.5 568.0 Z M 351.5 415.0 "></path></clipPath><g clip-path="url(#clip-39853)"><path d="M 73.0 1.0 L 73.0 154.0 " fill="none" stroke="#52575F" stroke-width="1.00" stroke-dasharray="2.0, 2.0" transform="matrix(1.00, 0.00, 0.00, -1.00, 279.0, 569.0)"></path></g></g></g></g><g><clipPath id="clip-39854"><path d="M 280.0 568.0 L 397.0 568.0 L 397.0 415.0 L 280.0 415.0 Z M 280.0 568.0 "></path></clipPath><g clip-path="url(#clip-39854)"><g><clipPath id="clip-39855"><path d="M 360.5 415.0 L 361.5 415.0 L 361.5 568.0 L 360.5 568.0 Z M 360.5 415.0 "></path></clipPath><g clip-path="url(#clip-39855)"><path d="M 82.0 1.0 L 82.0 154.0 " fill="none" stroke="#52575F" stroke-width="1.00" stroke-dasharray="2.0, 2.0" transform="matrix(1.00, 0.00, 0.00, -1.00, 279.0, 569.0)"></path></g></g></g></g><g><clipPath id="clip-39856"><path d="M 280.0 568.0 L 397.0 568.0 L 397.0 415.0 L 280.0 415.0 Z M 280.0 568.0 "></path></clipPath><g clip-path="url(#clip-39856)"><g><clipPath id="clip-39857"><path d="M 369.5 415.0 L 370.5 415.0 L 370.5 568.0 L 369.5 568.0 Z M 369.5 415.0 "></path></clipPath><g clip-path="url(#clip-39857)"><path d="M 91.0 1.0 L 91.0 154.0 " fill="none" stroke="#52575F" stroke-width="1.00" stroke-dasharray="2.0, 2.0" transform="matrix(1.00, 0.00, 0.00, -1.00, 279.0, 569.0)"></path></g></g></g></g><g><clipPath id="clip-39858"><path d="M 280.0 568.0 L 397.0 568.0 L 397.0 415.0 L 280.0 415.0 Z M 280.0 568.0 "></path></clipPath><g clip-path="url(#clip-39858)"><g><clipPath id="clip-39859"><path d="M 378.5 415.0 L 379.5 415.0 L 379.5 568.0 L 378.5 568.0 Z M 378.5 415.0 "></path></clipPath><g clip-path="url(#clip-39859)"><path d="M 100.0 1.0 L 100.0 154.0 " fill="none" stroke="#52575F" stroke-width="1.00" stroke-dasharray="2.0, 2.0" transform="matrix(1.00, 0.00, 0.00, -1.00, 279.0, 569.0)"></path></g></g></g></g><g><clipPath id="clip-39860"><path d="M 280.0 568.0 L 397.0 568.0 L 397.0 415.0 L 280.0 415.0 Z M 280.0 568.0 "></path></clipPath><g clip-path="url(#clip-39860)"><g><clipPath id="clip-39861"><path d="M 387.5 415.0 L 388.5 415.0 L 388.5 568.0 L 387.5 568.0 Z M 387.5 415.0 "></path></clipPath><g clip-path="url(#clip-39861)"><path d="M 109.0 1.0 L 109.0 154.0 " fill="none" stroke="#52575F" stroke-width="1.00" stroke-dasharray="2.0, 2.0" transform="matrix(1.00, 0.00, 0.00, -1.00, 279.0, 569.0)"></path></g></g></g></g><g><clipPath id="clip-39862"><path d="M 280.0 568.0 L 397.0 568.0 L 397.0 415.0 L 280.0 415.0 Z M 280.0 568.0 "></path></clipPath><g clip-path="url(#clip-39862)"><g><clipPath id="clip-39863"><path d="M 280.0 558.5 L 397.0 558.5 L 397.0 559.5 L 280.0 559.5 Z M 280.0 558.5 "></path></clipPath><g clip-path="url(#clip-39863)"><path d="M 1.0 10.0 L 118.0 10.0 " fill="none" stroke="#52575F" stroke-width="1.00" stroke-dasharray="2.0, 2.0" transform="matrix(1.00, 0.00, 0.00, -1.00, 279.0, 569.0)"></path></g></g></g></g><g><clipPath id="clip-39864"><path d="M 280.0 568.0 L 397.0 568.0 L 397.0 415.0 L 280.0 415.0 Z M 280.0 568.0 "></path></clipPath><g clip-path="url(#clip-39864)"><g><clipPath id="clip-39865"><path d="M 280.0 549.5 L 397.0 549.5 L 397.0 550.5 L 280.0 550.5 Z M 280.0 549.5 "></path></clipPath><g clip-path="url(#clip-39865)"><path d="M 1.0 19.0 L 118.0 19.0 " fill="none" stroke="#52575F" stroke-width="1.00" stroke-dasharray="2.0, 2.0" transform="matrix(1.00, 0.00, 0.00, -1.00, 279.0, 569.0)"></path></g></g></g></g><g><clipPath id="clip-39866"><path d="M 280.0 568.0 L 397.0 568.0 L 397.0 415.0 L 280.0 415.0 Z M 280.0 568.0 "></path></clipPath><g clip-path="url(#clip-39866)"><g><clipPath id="clip-39867"><path d="M 280.0 540.5 L 397.0 540.5 L 397.0 541.5 L 280.0 541.5 Z M 280.0 540.5 "></path></clipPath><g clip-path="url(#clip-39867)"><path d="M 1.0 28.0 L 118.0 28.0 " fill="none" stroke="#52575F" stroke-width="1.00" stroke-dasharray="2.0, 2.0" transform="matrix(1.00, 0.00, 0.00, -1.00, 279.0, 569.0)"></path></g></g></g></g><g><clipPath id="clip-39868"><path d="M 280.0 568.0 L 397.0 568.0 L 397.0 415.0 L 280.0 415.0 Z M 280.0 568.0 "></path></clipPath><g clip-path="url(#clip-39868)"><g><clipPath id="clip-39869"><path d="M 280.0 531.5 L 397.0 531.5 L 397.0 532.5 L 280.0 532.5 Z M 280.0 531.5 "></path></clipPath><g clip-path="url(#clip-39869)"><path d="M 1.0 37.0 L 118.0 37.0 " fill="none" stroke="#52575F" stroke-width="1.00" stroke-dasharray="2.0, 2.0" transform="matrix(1.00, 0.00, 0.00, -1.00, 279.0, 569.0)"></path></g></g></g></g><g><clipPath id="clip-39870"><path d="M 280.0 568.0 L 397.0 568.0 L 397.0 415.0 L 280.0 415.0 Z M 280.0 568.0 "></path></clipPath><g clip-path="url(#clip-39870)"><g><clipPath id="clip-39871"><path d="M 280.0 522.5 L 397.0 522.5 L 397.0 523.5 L 280.0 523.5 Z M 280.0 522.5 "></path></clipPath><g clip-path="url(#clip-39871)"><path d="M 1.0 46.0 L 118.0 46.0 " fill="none" stroke="#52575F" stroke-width="1.00" stroke-dasharray="2.0, 2.0" transform="matrix(1.00, 0.00, 0.00, -1.00, 279.0, 569.0)"></path></g></g></g></g><g><clipPath id="clip-39872"><path d="M 280.0 568.0 L 397.0 568.0 L 397.0 415.0 L 280.0 415.0 Z M 280.0 568.0 "></path></clipPath><g clip-path="url(#clip-39872)"><g><clipPath id="clip-39873"><path d="M 280.0 513.5 L 397.0 513.5 L 397.0 514.5 L 280.0 514.5 Z M 280.0 513.5 "></path></clipPath><g clip-path="url(#clip-39873)"><path d="M 1.0 55.0 L 118.0 55.0 " fill="none" stroke="#52575F" stroke-width="1.00" stroke-dasharray="2.0, 2.0" transform="matrix(1.00, 0.00, 0.00, -1.00, 279.0, 569.0)"></path></g></g></g></g><g><clipPath id="clip-39874"><path d="M 280.0 568.0 L 397.0 568.0 L 397.0 415.0 L 280.0 415.0 Z M 280.0 568.0 "></path></clipPath><g clip-path="url(#clip-39874)"><g><clipPath id="clip-39875"><path d="M 280.0 504.5 L 397.0 504.5 L 397.0 505.5 L 280.0 505.5 Z M 280.0 504.5 "></path></clipPath><g clip-path="url(#clip-39875)"><path d="M 1.0 64.0 L 118.0 64.0 " fill="none" stroke="#52575F" stroke-width="1.00" stroke-dasharray="2.0, 2.0" transform="matrix(1.00, 0.00, 0.00, -1.00, 279.0, 569.0)"></path></g></g></g></g><g><clipPath id="clip-39876"><path d="M 280.0 568.0 L 397.0 568.0 L 397.0 415.0 L 280.0 415.0 Z M 280.0 568.0 "></path></clipPath><g clip-path="url(#clip-39876)"><g><clipPath id="clip-39877"><path d="M 280.0 495.5 L 397.0 495.5 L 397.0 496.5 L 280.0 496.5 Z M 280.0 495.5 "></path></clipPath><g clip-path="url(#clip-39877)"><path d="M 1.0 73.0 L 118.0 73.0 " fill="none" stroke="#52575F" stroke-width="1.00" stroke-dasharray="2.0, 2.0" transform="matrix(1.00, 0.00, 0.00, -1.00, 279.0, 569.0)"></path></g></g></g></g><g><clipPath id="clip-39878"><path d="M 280.0 568.0 L 397.0 568.0 L 397.0 415.0 L 280.0 415.0 Z M 280.0 568.0 "></path></clipPath><g clip-path="url(#clip-39878)"><g><clipPath id="clip-39879"><path d="M 280.0 486.5 L 397.0 486.5 L 397.0 487.5 L 280.0 487.5 Z M 280.0 486.5 "></path></clipPath><g clip-path="url(#clip-39879)"><path d="M 1.0 82.0 L 118.0 82.0 " fill="none" stroke="#52575F" stroke-width="1.00" stroke-dasharray="2.0, 2.0" transform="matrix(1.00, 0.00, 0.00, -1.00, 279.0, 569.0)"></path></g></g></g></g><g><clipPath id="clip-39880"><path d="M 280.0 568.0 L 397.0 568.0 L 397.0 415.0 L 280.0 415.0 Z M 280.0 568.0 "></path></clipPath><g clip-path="url(#clip-39880)"><g><clipPath id="clip-39881"><path d="M 280.0 477.5 L 397.0 477.5 L 397.0 478.5 L 280.0 478.5 Z M 280.0 477.5 "></path></clipPath><g clip-path="url(#clip-39881)"><path d="M 1.0 91.0 L 118.0 91.0 " fill="none" stroke="#52575F" stroke-width="1.00" stroke-dasharray="2.0, 2.0" transform="matrix(1.00, 0.00, 0.00, -1.00, 279.0, 569.0)"></path></g></g></g></g><g><clipPath id="clip-39882"><path d="M 280.0 568.0 L 397.0 568.0 L 397.0 415.0 L 280.0 415.0 Z M 280.0 568.0 "></path></clipPath><g clip-path="url(#clip-39882)"><g><clipPath id="clip-39883"><path d="M 280.0 468.5 L 397.0 468.5 L 397.0 469.5 L 280.0 469.5 Z M 280.0 468.5 "></path></clipPath><g clip-path="url(#clip-39883)"><path d="M 1.0 100.0 L 118.0 100.0 " fill="none" stroke="#52575F" stroke-width="1.00" stroke-dasharray="2.0, 2.0" transform="matrix(1.00, 0.00, 0.00, -1.00, 279.0, 569.0)"></path></g></g></g></g><g><clipPath id="clip-39884"><path d="M 280.0 568.0 L 397.0 568.0 L 397.0 415.0 L 280.0 415.0 Z M 280.0 568.0 "></path></clipPath><g clip-path="url(#clip-39884)"><g><clipPath id="clip-39885"><path d="M 280.0 459.5 L 397.0 459.5 L 397.0 460.5 L 280.0 460.5 Z M 280.0 459.5 "></path></clipPath><g clip-path="url(#clip-39885)"><path d="M 1.0 109.0 L 118.0 109.0 " fill="none" stroke="#52575F" stroke-width="1.00" stroke-dasharray="2.0, 2.0" transform="matrix(1.00, 0.00, 0.00, -1.00, 279.0, 569.0)"></path></g></g></g></g><g><clipPath id="clip-39886"><path d="M 280.0 568.0 L 397.0 568.0 L 397.0 415.0 L 280.0 415.0 Z M 280.0 568.0 "></path></clipPath><g clip-path="url(#clip-39886)"><g><clipPath id="clip-39887"><path d="M 280.0 450.5 L 397.0 450.5 L 397.0 451.5 L 280.0 451.5 Z M 280.0 450.5 "></path></clipPath><g clip-path="url(#clip-39887)"><path d="M 1.0 118.0 L 118.0 118.0 " fill="none" stroke="#52575F" stroke-width="1.00" stroke-dasharray="2.0, 2.0" transform="matrix(1.00, 0.00, 0.00, -1.00, 279.0, 569.0)"></path></g></g></g></g><g><clipPath id="clip-39888"><path d="M 280.0 568.0 L 397.0 568.0 L 397.0 415.0 L 280.0 415.0 Z M 280.0 568.0 "></path></clipPath><g clip-path="url(#clip-39888)"><g><clipPath id="clip-39889"><path d="M 280.0 441.5 L 397.0 441.5 L 397.0 442.5 L 280.0 442.5 Z M 280.0 441.5 "></path></clipPath><g clip-path="url(#clip-39889)"><path d="M 1.0 127.0 L 118.0 127.0 " fill="none" stroke="#52575F" stroke-width="1.00" stroke-dasharray="2.0, 2.0" transform="matrix(1.00, 0.00, 0.00, -1.00, 279.0, 569.0)"></path></g></g></g></g><g><clipPath id="clip-39890"><path d="M 280.0 568.0 L 397.0 568.0 L 397.0 415.0 L 280.0 415.0 Z M 280.0 568.0 "></path></clipPath><g clip-path="url(#clip-39890)"><g><clipPath id="clip-39891"><path d="M 280.0 432.5 L 397.0 432.5 L 397.0 433.5 L 280.0 433.5 Z M 280.0 432.5 "></path></clipPath><g clip-path="url(#clip-39891)"><path d="M 1.0 136.0 L 118.0 136.0 " fill="none" stroke="#52575F" stroke-width="1.00" stroke-dasharray="2.0, 2.0" transform="matrix(1.00, 0.00, 0.00, -1.00, 279.0, 569.0)"></path></g></g></g></g><g><clipPath id="clip-39892"><path d="M 280.0 568.0 L 397.0 568.0 L 397.0 415.0 L 280.0 415.0 Z M 280.0 568.0 "></path></clipPath><g clip-path="url(#clip-39892)"><g><clipPath id="clip-39893"><path d="M 280.0 423.5 L 397.0 423.5 L 397.0 424.5 L 280.0 424.5 Z M 280.0 423.5 "></path></clipPath><g clip-path="url(#clip-39893)"><path d="M 1.0 145.0 L 118.0 145.0 " fill="none" stroke="#52575F" stroke-width="1.00" stroke-dasharray="2.0, 2.0" transform="matrix(1.00, 0.00, 0.00, -1.00, 279.0, 569.0)"></path></g></g></g></g><image xlink:href="../../E032F876-E8E9-4C42-AF2C-93ED8E896D6C/assets/15EE3C20513621AFF0785F295453E611.png" width="12.00" height="11.00" transform="matrix(1.00, 0.00, -0.00, -1.00, 313.0, 469.0)"></image><image xlink:href="../../E032F876-E8E9-4C42-AF2C-93ED8E896D6C/assets/D59024D7C3C0809BAD52C011AF8FF8AD.png" width="12.00" height="10.00" transform="matrix(1.00, 0.00, -0.00, -1.10, 313.0, 479.0)"></image><image xlink:href="../../E032F876-E8E9-4C42-AF2C-93ED8E896D6C/assets/7BF868126371516F35EE24CF67107A29.png" width="12.00" height="11.00" transform="matrix(0.92, 0.00, -0.00, -1.00, 324.0, 479.0)"></image><image xlink:href="../../E032F876-E8E9-4C42-AF2C-93ED8E896D6C/assets/7BF868126371516F35EE24CF67107A29.png" width="12.00" height="11.00" transform="matrix(1.00, 0.00, -0.00, -1.00, 313.0, 489.0)"></image><image xlink:href="../../E032F876-E8E9-4C42-AF2C-93ED8E896D6C/assets/D59024D7C3C0809BAD52C011AF8FF8AD.png" width="12.00" height="10.00" transform="matrix(1.00, 0.00, -0.00, -1.10, 323.0, 469.0)"></image><image xlink:href="../../E032F876-E8E9-4C42-AF2C-93ED8E896D6C/assets/D59024D7C3C0809BAD52C011AF8FF8AD.png" width="12.00" height="10.00" transform="matrix(1.00, 0.00, -0.00, -1.10, 358.0, 448.0)"></image><image xlink:href="../../E032F876-E8E9-4C42-AF2C-93ED8E896D6C/assets/7BF868126371516F35EE24CF67107A29.png" width="12.00" height="11.00" transform="matrix(0.92, 0.00, -0.00, -1.00, 286.0, 448.0)"></image><image xlink:href="../../E032F876-E8E9-4C42-AF2C-93ED8E896D6C/assets/7BF868126371516F35EE24CF67107A29.png" width="12.00" height="11.00" transform="matrix(0.92, 0.00, -0.00, -1.00, 297.0, 448.0)"></image><g><clipPath id="clip-39894"><path d="M 365.7 148.4 C 385.2 140.3 385.2 127.1 365.7 118.9 C 346.1 110.8 314.5 110.8 295.0 118.9 C 275.4 127.1 275.4 140.3 295.0 148.4 C 314.5 156.5 346.1 156.5 365.7 148.4 Z M 365.7 148.4 "></path></clipPath><g clip-path="url(#clip-39894)"><g><clipPath id="clip-39895"><path d="M 279.3 111.8 L 381.3 111.8 L 381.3 155.5 L 279.3 155.5 Z M 279.3 111.8 "></path></clipPath><g clip-path="url(#clip-39895)"><image xlink:href="../../E032F876-E8E9-4C42-AF2C-93ED8E896D6C/assets/AFF4D1F361AD28AA82012E14045EB299.jpeg" width="128.00" height="128.00" transform="matrix(1.00, 0.00, -0.00, -1.00, 280.3, 154.5)"></image><path d="M 280.3 154.5 L 380.3 154.5 L 380.3 112.8 L 280.3 112.8 Z M 280.3 154.5 " fill="#1093A4" fill-opacity="0.85"></path></g></g></g></g><g><clipPath id="clip-39896"><path d="M 280.3 231.7 L 380.3 231.7 L 380.3 131.7 L 280.3 131.7 Z M 280.3 231.7 "></path></clipPath><g clip-path="url(#clip-39896)"><g><clipPath id="clip-39897"><path d="M 279.3 130.7 L 381.3 130.7 L 381.3 232.7 L 279.3 232.7 Z M 279.3 130.7 "></path></clipPath><g clip-path="url(#clip-39897)"><image xlink:href="../../E032F876-E8E9-4C42-AF2C-93ED8E896D6C/assets/AFF4D1F361AD28AA82012E14045EB299.jpeg" width="128.00" height="128.00" transform="matrix(1.00, 0.00, -0.00, -1.00, 280.3, 231.7)"></image><path d="M 280.3 231.7 L 380.3 231.7 L 380.3 131.7 L 280.3 131.7 Z M 280.3 231.7 " fill="#1093A4" fill-opacity="0.85"></path></g></g></g></g><g><clipPath id="clip-39898"><path d="M 365.7 242.0 C 385.2 233.9 385.2 220.7 365.7 212.5 C 346.1 204.4 314.5 204.4 295.0 212.5 C 275.4 220.7 275.4 233.9 295.0 242.0 C 314.5 250.1 346.1 250.1 365.7 242.0 Z M 365.7 242.0 "></path></clipPath><g clip-path="url(#clip-39898)"><g><clipPath id="clip-39899"><path d="M 278.8 204.9 L 381.8 204.9 L 381.8 249.6 L 278.8 249.6 Z M 278.8 204.9 "></path></clipPath><g clip-path="url(#clip-39899)"><image xlink:href="../../E032F876-E8E9-4C42-AF2C-93ED8E896D6C/assets/AFF4D1F361AD28AA82012E14045EB299.jpeg" width="128.00" height="128.00" transform="matrix(1.00, 0.00, -0.00, -1.00, 280.3, 248.1)"></image><path d="M 280.3 248.1 L 380.3 248.1 L 380.3 206.4 L 280.3 206.4 Z M 280.3 248.1 " fill="#1093A4" fill-opacity="0.85"></path></g></g></g></g><g><clipPath id="clip-39900"><path d="M 278.8 204.9 L 381.8 204.9 L 381.8 249.6 L 278.8 249.6 Z M 278.8 204.9 "></path></clipPath><g clip-path="url(#clip-39900)"><path d="M 85.4 6.1 C 104.9 14.2 104.9 27.4 85.4 35.6 C 65.8 43.7 34.2 43.7 14.6 35.6 C -4.9 27.4 -4.9 14.2 14.6 6.1 C 34.2 -2.0 65.8 -2.0 85.4 6.1 Z M 85.4 6.1 " fill="none" stroke="#A6AAA8" stroke-width="1.00" transform="matrix(1.00, 0.00, 0.00, -1.00, 280.3, 248.1)"></path></g></g><g><clipPath id="clip-39901"><path d="M 274.4 125.5 L 384.5 125.5 L 384.5 247.8 L 274.4 247.8 Z M 274.4 125.5 "></path></clipPath><g clip-path="url(#clip-39901)"><image xlink:href="../../E032F876-E8E9-4C42-AF2C-93ED8E896D6C/assets/18EBC3A74E6F7292DBD243080D117D0A.png" width="110.00" height="123.00" transform="matrix(1.01, 0.00, -0.00, -1.00, 274.0, 248.0)"></image></g></g><g><clipPath id="clip-39902"><path d="M 768.8 148.4 C 788.3 140.3 788.3 127.1 768.8 118.9 C 749.3 110.8 717.6 110.8 698.1 118.9 C 678.6 127.1 678.6 140.3 698.1 148.4 C 717.6 156.5 749.3 156.5 768.8 148.4 Z M 768.8 148.4 "></path></clipPath><g clip-path="url(#clip-39902)"><g><clipPath id="clip-39903"><path d="M 682.4 111.8 L 784.4 111.8 L 784.4 155.5 L 682.4 155.5 Z M 682.4 111.8 "></path></clipPath><g clip-path="url(#clip-39903)"><image xlink:href="../../E032F876-E8E9-4C42-AF2C-93ED8E896D6C/assets/AFF4D1F361AD28AA82012E14045EB299.jpeg" width="128.00" height="128.00" transform="matrix(1.00, 0.00, -0.00, -1.00, 683.4, 154.5)"></image><path d="M 683.4 154.5 L 783.4 154.5 L 783.4 112.8 L 683.4 112.8 Z M 683.4 154.5 " fill="#1093A4" fill-opacity="0.85"></path></g></g></g></g><g><clipPath id="clip-39904"><path d="M 683.4 231.7 L 783.4 231.7 L 783.4 131.7 L 683.4 131.7 Z M 683.4 231.7 "></path></clipPath><g clip-path="url(#clip-39904)"><g><clipPath id="clip-39905"><path d="M 682.4 130.7 L 784.4 130.7 L 784.4 232.7 L 682.4 232.7 Z M 682.4 130.7 "></path></clipPath><g clip-path="url(#clip-39905)"><image xlink:href="../../E032F876-E8E9-4C42-AF2C-93ED8E896D6C/assets/AFF4D1F361AD28AA82012E14045EB299.jpeg" width="128.00" height="128.00" transform="matrix(1.00, 0.00, -0.00, -1.00, 683.4, 231.7)"></image><path d="M 683.4 231.7 L 783.4 231.7 L 783.4 131.7 L 683.4 131.7 Z M 683.4 231.7 " fill="#1093A4" fill-opacity="0.85"></path></g></g></g></g><g><clipPath id="clip-39906"><path d="M 768.8 242.0 C 788.3 233.9 788.3 220.7 768.8 212.5 C 749.3 204.4 717.6 204.4 698.1 212.5 C 678.6 220.7 678.6 233.9 698.1 242.0 C 717.6 250.1 749.3 250.1 768.8 242.0 Z M 768.8 242.0 "></path></clipPath><g clip-path="url(#clip-39906)"><g><clipPath id="clip-39907"><path d="M 681.9 204.9 L 784.9 204.9 L 784.9 249.6 L 681.9 249.6 Z M 681.9 204.9 "></path></clipPath><g clip-path="url(#clip-39907)"><image xlink:href="../../E032F876-E8E9-4C42-AF2C-93ED8E896D6C/assets/AFF4D1F361AD28AA82012E14045EB299.jpeg" width="128.00" height="128.00" transform="matrix(1.00, 0.00, -0.00, -1.00, 683.4, 248.1)"></image><path d="M 683.4 248.1 L 783.4 248.1 L 783.4 206.4 L 683.4 206.4 Z M 683.4 248.1 " fill="#1093A4" fill-opacity="0.85"></path></g></g></g></g><g><clipPath id="clip-39908"><path d="M 681.9 204.9 L 784.9 204.9 L 784.9 249.6 L 681.9 249.6 Z M 681.9 204.9 "></path></clipPath><g clip-path="url(#clip-39908)"><path d="M 85.4 6.1 C 104.9 14.2 104.9 27.4 85.4 35.6 C 65.8 43.7 34.2 43.7 14.6 35.6 C -4.9 27.4 -4.9 14.2 14.6 6.1 C 34.2 -2.0 65.8 -2.0 85.4 6.1 Z M 85.4 6.1 " fill="none" stroke="#A6AAA8" stroke-width="1.00" transform="matrix(1.00, 0.00, 0.00, -1.00, 683.4, 248.1)"></path></g></g><g><clipPath id="clip-39909"><path d="M 677.5 125.5 L 787.6 125.5 L 787.6 247.8 L 677.5 247.8 Z M 677.5 125.5 "></path></clipPath><g clip-path="url(#clip-39909)"><image xlink:href="../../E032F876-E8E9-4C42-AF2C-93ED8E896D6C/assets/18EBC3A74E6F7292DBD243080D117D0A.png" width="110.00" height="123.00" transform="matrix(1.00, 0.00, -0.00, -1.00, 678.0, 248.0)"></image></g></g><path d="M 0.0 11.4 C 31.0 -1.6 61.5 -3.5 91.5 5.8 L 92.4 6.1 " fill="none" stroke="#000000" stroke-width="2.00" transform="matrix(1.00, 0.00, 0.00, -1.00, 178.2, 539.1)"></path><path d="M 268.1 528.8 L 278.8 530.2 L 271.3 537.8 Z M 268.1 528.8 " fill="#000000"></path><text xml:space="preserve" font-family="Helvetica-Bold" font-weight="bold" font-size="36.0" fill="#000000" transform="matrix(1.00, 0.00, -0.00, -1.00, 371.0, 697.0)">R</text><text xml:space="preserve" font-family="Helvetica-Bold" font-weight="bold" font-size="36.0" fill="#000000" transform="matrix(1.00, 0.00, -0.00, -1.00, 397.0, 697.0)">e</text><text xml:space="preserve" font-family="Helvetica-Bold" font-weight="bold" font-size="36.0" fill="#000000" transform="matrix(1.00, 0.00, -0.00, -1.00, 417.0, 697.0)">p</text><text xml:space="preserve" font-family="Helvetica-Bold" font-weight="bold" font-size="36.0" fill="#000000" transform="matrix(1.00, 0.00, -0.00, -1.00, 439.0, 697.0)">l</text><text xml:space="preserve" font-family="Helvetica-Bold" font-weight="bold" font-size="36.0" fill="#000000" transform="matrix(1.00, 0.00, -0.00, -1.00, 449.0, 697.0)">i</text><text xml:space="preserve" font-family="Helvetica-Bold" font-weight="bold" font-size="36.0" fill="#000000" transform="matrix(1.00, 0.00, -0.00, -1.00, 459.0, 697.0)">c</text><text xml:space="preserve" font-family="Helvetica-Bold" font-weight="bold" font-size="36.0" fill="#000000" transform="matrix(1.00, 0.00, -0.00, -1.00, 479.0, 697.0)">a</text><text xml:space="preserve" font-family="Helvetica-Bold" font-weight="bold" font-size="36.0" fill="#000000" transform="matrix(1.00, 0.00, -0.00, -1.00, 499.1, 697.0)">t</text><text xml:space="preserve" font-family="Helvetica-Bold" font-weight="bold" font-size="36.0" fill="#000000" transform="matrix(1.00, 0.00, -0.00, -1.00, 511.1, 697.0)">i</text><text xml:space="preserve" font-family="Helvetica-Bold" font-weight="bold" font-size="36.0" fill="#000000" transform="matrix(1.00, 0.00, -0.00, -1.00, 521.0, 697.0)">n</text><text xml:space="preserve" font-family="Helvetica-Bold" font-weight="bold" font-size="36.0" fill="#000000" transform="matrix(1.00, 0.00, -0.00, -1.00, 543.0, 697.0)">g</text><text xml:space="preserve" font-family="Helvetica-Bold" font-weight="bold" font-size="36.0" fill="#000000" transform="matrix(1.00, 0.00, -0.00, -1.00, 565.0, 697.0)"> </text><text xml:space="preserve" font-family="Helvetica-Bold" font-weight="bold" font-size="36.0" fill="#000000" transform="matrix(1.00, 0.00, -0.00, -1.00, 575.0, 697.0)">D</text><text xml:space="preserve" font-family="Helvetica-Bold" font-weight="bold" font-size="36.0" fill="#000000" transform="matrix(1.00, 0.00, -0.00, -1.00, 601.0, 697.0)">a</text><text xml:space="preserve" font-family="Helvetica-Bold" font-weight="bold" font-size="36.0" fill="#000000" transform="matrix(1.00, 0.00, -0.00, -1.00, 621.1, 697.0)">t</text><text xml:space="preserve" font-family="Helvetica-Bold" font-weight="bold" font-size="36.0" fill="#000000" transform="matrix(1.00, 0.00, -0.00, -1.00, 633.1, 697.0)">a</text><g><clipPath id="clip-39910"><path d="M 567.2 148.4 C 586.8 140.3 586.8 127.1 567.2 118.9 C 547.7 110.8 516.0 110.8 496.5 118.9 C 477.0 127.1 477.0 140.3 496.5 148.4 C 516.0 156.5 547.7 156.5 567.2 148.4 Z M 567.2 148.4 "></path></clipPath><g clip-path="url(#clip-39910)"><g><clipPath id="clip-39911"><path d="M 480.9 111.8 L 582.9 111.8 L 582.9 155.5 L 480.9 155.5 Z M 480.9 111.8 "></path></clipPath><g clip-path="url(#clip-39911)"><image xlink:href="../../E032F876-E8E9-4C42-AF2C-93ED8E896D6C/assets/AFF4D1F361AD28AA82012E14045EB299.jpeg" width="128.00" height="128.00" transform="matrix(1.00, 0.00, -0.00, -1.00, 481.9, 154.5)"></image><path d="M 481.9 154.5 L 581.9 154.5 L 581.9 112.8 L 481.9 112.8 Z M 481.9 154.5 " fill="#1093A4" fill-opacity="0.85"></path></g></g></g></g><g><clipPath id="clip-39912"><path d="M 481.9 231.7 L 581.9 231.7 L 581.9 131.7 L 481.9 131.7 Z M 481.9 231.7 "></path></clipPath><g clip-path="url(#clip-39912)"><g><clipPath id="clip-39913"><path d="M 480.9 130.7 L 582.9 130.7 L 582.9 232.7 L 480.9 232.7 Z M 480.9 130.7 "></path></clipPath><g clip-path="url(#clip-39913)"><image xlink:href="../../E032F876-E8E9-4C42-AF2C-93ED8E896D6C/assets/AFF4D1F361AD28AA82012E14045EB299.jpeg" width="128.00" height="128.00" transform="matrix(1.00, 0.00, -0.00, -1.00, 481.9, 231.7)"></image><path d="M 481.9 231.7 L 581.9 231.7 L 581.9 131.7 L 481.9 131.7 Z M 481.9 231.7 " fill="#1093A4" fill-opacity="0.85"></path></g></g></g></g><g><clipPath id="clip-39914"><path d="M 567.2 242.0 C 586.8 233.9 586.8 220.7 567.2 212.5 C 547.7 204.4 516.0 204.4 496.5 212.5 C 477.0 220.7 477.0 233.9 496.5 242.0 C 516.0 250.1 547.7 250.1 567.2 242.0 Z M 567.2 242.0 "></path></clipPath><g clip-path="url(#clip-39914)"><g><clipPath id="clip-39915"><path d="M 480.4 204.9 L 583.4 204.9 L 583.4 249.6 L 480.4 249.6 Z M 480.4 204.9 "></path></clipPath><g clip-path="url(#clip-39915)"><image xlink:href="../../E032F876-E8E9-4C42-AF2C-93ED8E896D6C/assets/AFF4D1F361AD28AA82012E14045EB299.jpeg" width="128.00" height="128.00" transform="matrix(1.00, 0.00, -0.00, -1.00, 481.9, 248.1)"></image><path d="M 481.9 248.1 L 581.9 248.1 L 581.9 206.4 L 481.9 206.4 Z M 481.9 248.1 " fill="#1093A4" fill-opacity="0.85"></path></g></g></g></g><g><clipPath id="clip-39916"><path d="M 480.4 204.9 L 583.4 204.9 L 583.4 249.6 L 480.4 249.6 Z M 480.4 204.9 "></path></clipPath><g clip-path="url(#clip-39916)"><path d="M 85.4 6.1 C 104.9 14.2 104.9 27.4 85.4 35.6 C 65.8 43.7 34.2 43.7 14.6 35.6 C -4.9 27.4 -4.9 14.2 14.6 6.1 C 34.2 -2.0 65.8 -2.0 85.4 6.1 Z M 85.4 6.1 " fill="none" stroke="#A6AAA8" stroke-width="1.00" transform="matrix(1.00, 0.00, 0.00, -1.00, 481.9, 248.1)"></path></g></g><g><clipPath id="clip-39917"><path d="M 476.0 125.5 L 586.1 125.5 L 586.1 247.8 L 476.0 247.8 Z M 476.0 125.5 "></path></clipPath><g clip-path="url(#clip-39917)"><image xlink:href="../../E032F876-E8E9-4C42-AF2C-93ED8E896D6C/assets/18EBC3A74E6F7292DBD243080D117D0A.png" width="110.00" height="123.00" transform="matrix(1.00, 0.00, -0.00, -1.00, 476.0, 248.0)"></image></g></g><path d="M 8.8 156.3 L 8.5 154.9 C -4.1 102.9 -2.7 51.2 12.8 0.0 " fill="none" stroke="#000000" stroke-width="3.00" stroke-linecap="round" stroke-dasharray="0.0, 9.0" transform="matrix(1.00, 0.00, 0.00, -1.00, 291.3, 414.3)"></path><path d="M 293.4 257.7 L 303.2 246.6 L 306.2 261.1 Z M 293.4 257.7 " fill="#000000"></path><path d="M 0.0 0.0 C 56.0 51.0 94.8 112.6 116.6 184.7 L 117.0 186.2 " fill="none" stroke="#000000" stroke-width="3.00" stroke-linecap="round" stroke-dasharray="0.0, 9.0" transform="matrix(1.00, 0.00, 0.00, -1.00, 397.8, 445.8)"></path><path d="M 508.0 259.2 L 518.0 248.3 L 520.7 262.8 Z M 508.0 259.2 " fill="#000000"></path><path d="M 0.0 0.0 C 112.0 49.8 206.4 122.0 283.1 216.5 L 284.1 217.7 " fill="none" stroke="#000000" stroke-width="3.00" stroke-linecap="round" stroke-dasharray="0.0, 9.0" transform="matrix(1.00, 0.00, 0.00, -1.00, 397.8, 468.0)"></path><path d="M 675.8 247.4 L 689.2 241.2 L 686.1 255.6 Z M 675.8 247.4 " fill="#000000"></path><text xml:space="preserve" font-family="Helvetica-Bold" font-weight="bold" font-size="36.0" fill="#000000" transform="matrix(1.00, 0.00, -0.00, -1.00, 622.0, 515.0)">M</text><text xml:space="preserve" font-family="Helvetica-Bold" font-weight="bold" font-size="36.0" fill="#000000" transform="matrix(1.00, 0.00, -0.00, -1.00, 652.0, 515.0)">a</text><text xml:space="preserve" font-family="Helvetica-Bold" font-weight="bold" font-size="36.0" fill="#000000" transform="matrix(1.00, 0.00, -0.00, -1.00, 672.0, 515.0)">j</text><text xml:space="preserve" font-family="Helvetica-Bold" font-weight="bold" font-size="36.0" fill="#000000" transform="matrix(1.00, 0.00, -0.00, -1.00, 682.0, 515.0)">o</text><text xml:space="preserve" font-family="Helvetica-Bold" font-weight="bold" font-size="36.0" fill="#000000" transform="matrix(1.00, 0.00, -0.00, -1.00, 704.0, 515.0)">r</text><text xml:space="preserve" font-family="Helvetica-Bold" font-weight="bold" font-size="36.0" fill="#000000" transform="matrix(1.00, 0.00, -0.00, -1.00, 718.0, 515.0)"> </text><text xml:space="preserve" font-family="Helvetica-Bold" font-weight="bold" font-size="36.0" fill="#000000" transform="matrix(1.00, 0.00, -0.00, -1.00, 728.0, 515.0)">F</text><text xml:space="preserve" font-family="Helvetica-Bold" font-weight="bold" font-size="36.0" fill="#000000" transform="matrix(1.00, 0.00, -0.00, -1.00, 750.0, 515.0)">a</text><text xml:space="preserve" font-family="Helvetica-Bold" font-weight="bold" font-size="36.0" fill="#000000" transform="matrix(1.00, 0.00, -0.00, -1.00, 770.0, 515.0)">c</text><text xml:space="preserve" font-family="Helvetica-Bold" font-weight="bold" font-size="36.0" fill="#000000" transform="matrix(1.00, 0.00, -0.00, -1.00, 790.0, 515.0)">t</text><text xml:space="preserve" font-family="Helvetica-Bold" font-weight="bold" font-size="36.0" fill="#000000" transform="matrix(1.00, 0.00, -0.00, -1.00, 802.0, 515.0)">o</text><text xml:space="preserve" font-family="Helvetica-Bold" font-weight="bold" font-size="36.0" fill="#000000" transform="matrix(1.00, 0.00, -0.00, -1.00, 824.0, 515.0)">r</text><text xml:space="preserve" font-family="Helvetica-Bold" font-weight="bold" font-size="36.0" fill="#000000" transform="matrix(1.00, 0.00, -0.00, -1.00, 838.0, 515.0)">s</text><text xml:space="preserve" font-family="Helvetica-Light" font-size="36.0" fill="#000000" transform="matrix(1.00, 0.00, -0.00, -1.00, 858.1, 515.0)">:</text><text xml:space="preserve" font-family="Helvetica-Light" font-size="36.0" fill="#000000" transform="matrix(1.00, 0.00, -0.00, -1.00, 868.1, 515.0)"> </text><text xml:space="preserve" font-family="Helvetica-Light" font-size="36.0" fill="#000000" transform="matrix(1.00, 0.00, -0.00, -1.00, 549.0, 472.0)">I</text><text xml:space="preserve" font-family="Helvetica-Light" font-size="36.0" fill="#000000" transform="matrix(1.00, 0.00, -0.00, -1.00, 559.0, 472.0)">n</text><text xml:space="preserve" font-family="Helvetica-Light" font-size="36.0" fill="#000000" transform="matrix(1.00, 0.00, -0.00, -1.00, 579.0, 472.0)">c</text><text xml:space="preserve" font-family="Helvetica-Light" font-size="36.0" fill="#000000" transform="matrix(1.00, 0.00, -0.00, -1.00, 599.0, 472.0)">o</text><text xml:space="preserve" font-family="Helvetica-Light" font-size="36.0" fill="#000000" transform="matrix(1.00, 0.00, -0.00, -1.00, 619.1, 472.0)">m</text><text xml:space="preserve" font-family="Helvetica-Light" font-size="36.0" fill="#000000" transform="matrix(1.00, 0.00, -0.00, -1.00, 649.0, 472.0)">p</text><text xml:space="preserve" font-family="Helvetica-Light" font-size="36.0" fill="#000000" transform="matrix(1.00, 0.00, -0.00, -1.00, 671.0, 472.0)">l</text><text xml:space="preserve" font-family="Helvetica-Light" font-size="36.0" fill="#000000" transform="matrix(1.00, 0.00, -0.00, -1.00, 679.0, 472.0)">e</text><text xml:space="preserve" font-family="Helvetica-Light" font-size="36.0" fill="#000000" transform="matrix(1.00, 0.00, -0.00, -1.00, 699.0, 472.0)">t</text><text xml:space="preserve" font-family="Helvetica-Light" font-size="36.0" fill="#000000" transform="matrix(1.00, 0.00, -0.00, -1.00, 709.1, 472.0)">e</text><text xml:space="preserve" font-family="Helvetica-Light" font-size="36.0" fill="#000000" transform="matrix(1.00, 0.00, -0.00, -1.00, 729.1, 472.0)"> </text><text xml:space="preserve" font-family="Helvetica-Light" font-size="36.0" fill="#000000" transform="matrix(1.00, 0.00, -0.00, -1.00, 739.1, 472.0)">T</text><text xml:space="preserve" font-family="Helvetica-Light" font-size="36.0" fill="#000000" transform="matrix(1.00, 0.00, -0.00, -1.00, 755.8, 472.0)">r</text><text xml:space="preserve" font-family="Helvetica-Light" font-size="36.0" fill="#000000" transform="matrix(1.00, 0.00, -0.00, -1.00, 767.8, 472.0)">a</text><text xml:space="preserve" font-family="Helvetica-Light" font-size="36.0" fill="#000000" transform="matrix(1.00, 0.00, -0.00, -1.00, 787.8, 472.0)">n</text><text xml:space="preserve" font-family="Helvetica-Light" font-size="36.0" fill="#000000" transform="matrix(1.00, 0.00, -0.00, -1.00, 807.8, 472.0)">s</text><text xml:space="preserve" font-family="Helvetica-Light" font-size="36.0" fill="#000000" transform="matrix(1.00, 0.00, -0.00, -1.00, 825.8, 472.0)">a</text><text xml:space="preserve" font-family="Helvetica-Light" font-size="36.0" fill="#000000" transform="matrix(1.00, 0.00, -0.00, -1.00, 845.8, 472.0)">c</text><text xml:space="preserve" font-family="Helvetica-Light" font-size="36.0" fill="#000000" transform="matrix(1.00, 0.00, -0.00, -1.00, 865.8, 472.0)">t</text><text xml:space="preserve" font-family="Helvetica-Light" font-size="36.0" fill="#000000" transform="matrix(1.00, 0.00, -0.00, -1.00, 875.8, 472.0)">i</text><text xml:space="preserve" font-family="Helvetica-Light" font-size="36.0" fill="#000000" transform="matrix(1.00, 0.00, -0.00, -1.00, 883.8, 472.0)">o</text><text xml:space="preserve" font-family="Helvetica-Light" font-size="36.0" fill="#000000" transform="matrix(1.00, 0.00, -0.00, -1.00, 903.9, 472.0)">n</text><text xml:space="preserve" font-family="Helvetica-Light" font-size="36.0" fill="#000000" transform="matrix(1.00, 0.00, -0.00, -1.00, 923.9, 472.0)">s</text><text xml:space="preserve" font-family="Helvetica-Light" font-size="36.0" fill="#000000" transform="matrix(1.00, 0.00, -0.00, -1.00, 941.9, 472.0)"> </text><text xml:space="preserve" font-family="Helvetica-Light" font-size="36.0" fill="#000000" transform="matrix(1.00, 0.00, -0.00, -1.00, 618.0, 429.0)">M</text><text xml:space="preserve" font-family="Helvetica-Light" font-size="36.0" fill="#000000" transform="matrix(1.00, 0.00, -0.00, -1.00, 648.0, 429.0)">e</text><text xml:space="preserve" font-family="Helvetica-Light" font-size="36.0" fill="#000000" transform="matrix(1.00, 0.00, -0.00, -1.00, 668.0, 429.0)">r</text><text xml:space="preserve" font-family="Helvetica-Light" font-size="36.0" fill="#000000" transform="matrix(1.00, 0.00, -0.00, -1.00, 680.0, 429.0)">g</text><text xml:space="preserve" font-family="Helvetica-Light" font-size="36.0" fill="#000000" transform="matrix(1.00, 0.00, -0.00, -1.00, 702.0, 429.0)">e</text><text xml:space="preserve" font-family="Helvetica-Light" font-size="36.0" fill="#000000" transform="matrix(1.00, 0.00, -0.00, -1.00, 722.0, 429.0)"> </text><text xml:space="preserve" font-family="Helvetica-Light" font-size="36.0" fill="#000000" transform="matrix(1.00, 0.00, -0.00, -1.00, 732.0, 429.0)">C</text><text xml:space="preserve" font-family="Helvetica-Light" font-size="36.0" fill="#000000" transform="matrix(1.00, 0.00, -0.00, -1.00, 758.0, 429.0)">o</text><text xml:space="preserve" font-family="Helvetica-Light" font-size="36.0" fill="#000000" transform="matrix(1.00, 0.00, -0.00, -1.00, 778.0, 429.0)">n</text><text xml:space="preserve" font-family="Helvetica-Light" font-size="36.0" fill="#000000" transform="matrix(1.00, 0.00, -0.00, -1.00, 798.0, 429.0)">ﬂ</text><text xml:space="preserve" font-family="Helvetica-Light" font-size="36.0" fill="#000000" transform="matrix(1.00, 0.00, -0.00, -1.00, 816.0, 429.0)">i</text><text xml:space="preserve" font-family="Helvetica-Light" font-size="36.0" fill="#000000" transform="matrix(1.00, 0.00, -0.00, -1.00, 824.0, 429.0)">c</text><text xml:space="preserve" font-family="Helvetica-Light" font-size="36.0" fill="#000000" transform="matrix(1.00, 0.00, -0.00, -1.00, 844.0, 429.0)">t</text><text xml:space="preserve" font-family="Helvetica-Light" font-size="36.0" fill="#000000" transform="matrix(1.00, 0.00, -0.00, -1.00, 854.1, 429.0)">s</text><text xml:space="preserve" font-family="Helvetica-Light" font-size="36.0" fill="#000000" transform="matrix(1.00, 0.00, -0.00, -1.00, 872.1, 429.0)"> </text><text xml:space="preserve" font-family="Helvetica-Light" font-size="36.0" fill="#000000" transform="matrix(1.00, 0.00, -0.00, -1.00, 638.0, 386.0)">C</text><text xml:space="preserve" font-family="Helvetica-Light" font-size="36.0" fill="#000000" transform="matrix(1.00, 0.00, -0.00, -1.00, 664.0, 386.0)">A</text><text xml:space="preserve" font-family="Helvetica-Light" font-size="36.0" fill="#000000" transform="matrix(1.00, 0.00, -0.00, -1.00, 688.0, 386.0)">P</text><text xml:space="preserve" font-family="Helvetica-Light" font-size="36.0" fill="#000000" transform="matrix(1.00, 0.00, -0.00, -1.00, 710.0, 386.0)"> </text><text xml:space="preserve" font-family="Helvetica-Light" font-size="36.0" fill="#000000" transform="matrix(1.00, 0.00, -0.00, -1.00, 720.0, 386.0)">t</text><text xml:space="preserve" font-family="Helvetica-Light" font-size="36.0" fill="#000000" transform="matrix(1.00, 0.00, -0.00, -1.00, 730.0, 386.0)">h</text><text xml:space="preserve" font-family="Helvetica-Light" font-size="36.0" fill="#000000" transform="matrix(1.00, 0.00, -0.00, -1.00, 750.0, 386.0)">e</text><text xml:space="preserve" font-family="Helvetica-Light" font-size="36.0" fill="#000000" transform="matrix(1.00, 0.00, -0.00, -1.00, 770.0, 386.0)">o</text><text xml:space="preserve" font-family="Helvetica-Light" font-size="36.0" fill="#000000" transform="matrix(1.00, 0.00, -0.00, -1.00, 790.1, 386.0)">r</text><text xml:space="preserve" font-family="Helvetica-Light" font-size="36.0" fill="#000000" transform="matrix(1.00, 0.00, -0.00, -1.00, 801.4, 386.0)">e</text><text xml:space="preserve" font-family="Helvetica-Light" font-size="36.0" fill="#000000" transform="matrix(1.00, 0.00, -0.00, -1.00, 821.4, 386.0)">m</text><text xml:space="preserve" font-family="Helvetica-Light" font-size="36.0" fill="#000000" transform="matrix(1.00, 0.00, -0.00, -1.00, 191.0, 643.0)">D</text><text xml:space="preserve" font-family="Helvetica-Light" font-size="36.0" fill="#000000" transform="matrix(1.00, 0.00, -0.00, -1.00, 217.0, 643.0)">a</text><text xml:space="preserve" font-family="Helvetica-Light" font-size="36.0" fill="#000000" transform="matrix(1.00, 0.00, -0.00, -1.00, 237.0, 643.0)">t</text><text xml:space="preserve" font-family="Helvetica-Light" font-size="36.0" fill="#000000" transform="matrix(1.00, 0.00, -0.00, -1.00, 247.0, 643.0)">a</text><text xml:space="preserve" font-family="Helvetica-Light" font-size="36.0" fill="#000000" transform="matrix(1.00, 0.00, -0.00, -1.00, 267.0, 643.0)">b</text><text xml:space="preserve" font-family="Helvetica-Light" font-size="36.0" fill="#000000" transform="matrix(1.00, 0.00, -0.00, -1.00, 289.0, 643.0)">a</text><text xml:space="preserve" font-family="Helvetica-Light" font-size="36.0" fill="#000000" transform="matrix(1.00, 0.00, -0.00, -1.00, 309.0, 643.0)">s</text><text xml:space="preserve" font-family="Helvetica-Light" font-size="36.0" fill="#000000" transform="matrix(1.00, 0.00, -0.00, -1.00, 327.0, 643.0)">e</text><text xml:space="preserve" font-family="Helvetica-Light" font-size="36.0" fill="#000000" transform="matrix(1.00, 0.00, -0.00, -1.00, 347.1, 643.0)"> </text><text xml:space="preserve" font-family="Helvetica-Light" font-size="36.0" fill="#000000" transform="matrix(1.00, 0.00, -0.00, -1.00, 357.1, 643.0)">R</text><text xml:space="preserve" font-family="Helvetica-Light" font-size="36.0" fill="#000000" transform="matrix(1.00, 0.00, -0.00, -1.00, 381.1, 643.0)">e</text><text xml:space="preserve" font-family="Helvetica-Light" font-size="36.0" fill="#000000" transform="matrix(1.00, 0.00, -0.00, -1.00, 401.1, 643.0)">p</text><text xml:space="preserve" font-family="Helvetica-Light" font-size="36.0" fill="#000000" transform="matrix(1.00, 0.00, -0.00, -1.00, 423.1, 643.0)">l</text><text xml:space="preserve" font-family="Helvetica-Light" font-size="36.0" fill="#000000" transform="matrix(1.00, 0.00, -0.00, -1.00, 431.1, 643.0)">i</text><text xml:space="preserve" font-family="Helvetica-Light" font-size="36.0" fill="#000000" transform="matrix(1.00, 0.00, -0.00, -1.00, 439.1, 643.0)">c</text><text xml:space="preserve" font-family="Helvetica-Light" font-size="36.0" fill="#000000" transform="matrix(1.00, 0.00, -0.00, -1.00, 459.1, 643.0)">a</text><text xml:space="preserve" font-family="Helvetica-Light" font-size="36.0" fill="#000000" transform="matrix(1.00, 0.00, -0.00, -1.00, 479.1, 643.0)">t</text><text xml:space="preserve" font-family="Helvetica-Light" font-size="36.0" fill="#000000" transform="matrix(1.00, 0.00, -0.00, -1.00, 489.1, 643.0)">i</text><text xml:space="preserve" font-family="Helvetica-Light" font-size="36.0" fill="#000000" transform="matrix(1.00, 0.00, -0.00, -1.00, 497.1, 643.0)">o</text><text xml:space="preserve" font-family="Helvetica-Light" font-size="36.0" fill="#000000" transform="matrix(1.00, 0.00, -0.00, -1.00, 517.1, 643.0)">n</text><text xml:space="preserve" font-family="Helvetica-Light" font-size="36.0" fill="#000000" transform="matrix(1.00, 0.00, -0.00, -1.00, 537.1, 643.0)"> </text><text xml:space="preserve" font-family="Helvetica-Light" font-size="36.0" fill="#000000" transform="matrix(1.00, 0.00, -0.00, -1.00, 547.1, 643.0)">g</text><text xml:space="preserve" font-family="Helvetica-Light" font-size="36.0" fill="#000000" transform="matrix(1.00, 0.00, -0.00, -1.00, 569.1, 643.0)">e</text><text xml:space="preserve" font-family="Helvetica-Light" font-size="36.0" fill="#000000" transform="matrix(1.00, 0.00, -0.00, -1.00, 589.2, 643.0)">t</text><text xml:space="preserve" font-family="Helvetica-Light" font-size="36.0" fill="#000000" transform="matrix(1.00, 0.00, -0.00, -1.00, 599.2, 643.0)">s</text><text xml:space="preserve" font-family="Helvetica-Light" font-size="36.0" fill="#000000" transform="matrix(1.00, 0.00, -0.00, -1.00, 617.2, 643.0)"> </text><text xml:space="preserve" font-family="Helvetica-Light" font-size="36.0" fill="#000000" transform="matrix(1.00, 0.00, -0.00, -1.00, 627.2, 643.0)">C</text><text xml:space="preserve" font-family="Helvetica-Light" font-size="36.0" fill="#000000" transform="matrix(1.00, 0.00, -0.00, -1.00, 653.2, 643.0)">o</text><text xml:space="preserve" font-family="Helvetica-Light" font-size="36.0" fill="#000000" transform="matrix(1.00, 0.00, -0.00, -1.00, 673.2, 643.0)">m</text><text xml:space="preserve" font-family="Helvetica-Light" font-size="36.0" fill="#000000" transform="matrix(1.00, 0.00, -0.00, -1.00, 703.2, 643.0)">p</text><text xml:space="preserve" font-family="Helvetica-Light" font-size="36.0" fill="#000000" transform="matrix(1.00, 0.00, -0.00, -1.00, 725.2, 643.0)">l</text><text xml:space="preserve" font-family="Helvetica-Light" font-size="36.0" fill="#000000" transform="matrix(1.00, 0.00, -0.00, -1.00, 733.2, 643.0)">i</text><text xml:space="preserve" font-family="Helvetica-Light" font-size="36.0" fill="#000000" transform="matrix(1.00, 0.00, -0.00, -1.00, 741.2, 643.0)">c</text><text xml:space="preserve" font-family="Helvetica-Light" font-size="36.0" fill="#000000" transform="matrix(1.00, 0.00, -0.00, -1.00, 761.2, 643.0)">a</text><text xml:space="preserve" font-family="Helvetica-Light" font-size="36.0" fill="#000000" transform="matrix(1.00, 0.00, -0.00, -1.00, 781.2, 643.0)">t</text><text xml:space="preserve" font-family="Helvetica-Light" font-size="36.0" fill="#000000" transform="matrix(1.00, 0.00, -0.00, -1.00, 791.2, 643.0)">e</text><text xml:space="preserve" font-family="Helvetica-Light" font-size="36.0" fill="#000000" transform="matrix(1.00, 0.00, -0.00, -1.00, 811.2, 643.0)">d</text></g></svg>