<?xml version="1.0" encoding="UTF-8" standalone="no"?><svg xmlns="http://www.w3.org/2000/svg" xmlns:xlink="http://www.w3.org/1999/xlink" clip-rule="evenodd" stroke-miterlimit="4.00" viewBox="0 0 1024 768"><desc>SVG generated by Keynote</desc><defs></defs><g transform="matrix(1.00, 0.00, -0.00, -1.00, 0.0, 768.0)"><path d="M 0.0 768.0 L 1024.0 768.0 L 1024.0 0.0 L 0.0 0.0 Z M 0.0 768.0 " fill="#FEFFFF"></path><g><clipPath id="clip-41032"><path d="M 169.5 469.4 C 189.0 461.2 189.0 448.0 169.5 439.9 C 150.0 431.8 118.3 431.8 98.8 439.9 C 79.3 448.0 79.3 461.2 98.8 469.4 C 118.3 477.5 150.0 477.5 169.5 469.4 Z M 169.5 469.4 "></path></clipPath><g clip-path="url(#clip-41032)"><g><clipPath id="clip-41033"><path d="M 83.1 432.8 L 185.1 432.8 L 185.1 476.5 L 83.1 476.5 Z M 83.1 432.8 "></path></clipPath><g clip-path="url(#clip-41033)"><image xlink:href="../../E032F876-E8E9-4C42-AF2C-93ED8E896D6C/assets/AFF4D1F361AD28AA82012E14045EB299.jpeg" width="128.00" height="128.00" transform="matrix(1.00, 0.00, -0.00, -1.00, 84.1, 475.5)"></image><path d="M 84.1 475.5 L 184.1 475.5 L 184.1 433.8 L 84.1 433.8 Z M 84.1 475.5 " fill="#1093A4" fill-opacity="0.85"></path></g></g></g></g><g><clipPath id="clip-41034"><path d="M 84.1 552.6 L 184.1 552.6 L 184.1 452.6 L 84.1 452.6 Z M 84.1 552.6 "></path></clipPath><g clip-path="url(#clip-41034)"><g><clipPath id="clip-41035"><path d="M 83.1 451.6 L 185.1 451.6 L 185.1 553.6 L 83.1 553.6 Z M 83.1 451.6 "></path></clipPath><g clip-path="url(#clip-41035)"><image xlink:href="../../E032F876-E8E9-4C42-AF2C-93ED8E896D6C/assets/AFF4D1F361AD28AA82012E14045EB299.jpeg" width="128.00" height="128.00" transform="matrix(1.00, 0.00, -0.00, -1.00, 84.1, 552.6)"></image><path d="M 84.1 552.6 L 184.1 552.6 L 184.1 452.6 L 84.1 452.6 Z M 84.1 552.6 " fill="#1093A4" fill-opacity="0.85"></path></g></g></g></g><g><clipPath id="clip-41036"><path d="M 169.5 563.0 C 189.0 554.8 189.0 541.6 169.5 533.5 C 150.0 525.3 118.3 525.3 98.8 533.5 C 79.3 541.6 79.3 554.8 98.8 563.0 C 118.3 571.1 150.0 571.1 169.5 563.0 Z M 169.5 563.0 "></path></clipPath><g clip-path="url(#clip-41036)"><g><clipPath id="clip-41037"><path d="M 82.6 525.9 L 185.6 525.9 L 185.6 570.6 L 82.6 570.6 Z M 82.6 525.9 "></path></clipPath><g clip-path="url(#clip-41037)"><image xlink:href="../../E032F876-E8E9-4C42-AF2C-93ED8E896D6C/assets/AFF4D1F361AD28AA82012E14045EB299.jpeg" width="128.00" height="128.00" transform="matrix(1.00, 0.00, -0.00, -1.00, 84.1, 569.1)"></image><path d="M 84.1 569.1 L 184.1 569.1 L 184.1 527.4 L 84.1 527.4 Z M 84.1 569.1 " fill="#1093A4" fill-opacity="0.85"></path></g></g></g></g><g><clipPath id="clip-41038"><path d="M 82.6 525.9 L 185.6 525.9 L 185.6 570.6 L 82.6 570.6 Z M 82.6 525.9 "></path></clipPath><g clip-path="url(#clip-41038)"><path d="M 85.4 6.1 C 104.9 14.2 104.9 27.4 85.4 35.6 C 65.8 43.7 34.2 43.7 14.6 35.6 C -4.9 27.4 -4.9 14.2 14.6 6.1 C 34.2 -2.0 65.8 -2.0 85.4 6.1 Z M 85.4 6.1 " fill="none" stroke="#A6AAA8" stroke-width="1.00" transform="matrix(1.00, 0.00, 0.00, -1.00, 84.1, 569.1)"></path></g></g><g><clipPath id="clip-41039"><path d="M 78.2 446.5 L 188.3 446.5 L 188.3 568.8 L 78.2 568.8 Z M 78.2 446.5 "></path></clipPath><g clip-path="url(#clip-41039)"><image xlink:href="../../E032F876-E8E9-4C42-AF2C-93ED8E896D6C/assets/18EBC3A74E6F7292DBD243080D117D0A.png" width="110.00" height="123.00" transform="matrix(1.00, 0.00, -0.00, -1.00, 78.0, 569.0)"></image></g></g><g><clipPath id="clip-41040"><path d="M 280.0 568.0 L 397.0 568.0 L 397.0 415.0 L 280.0 415.0 Z M 280.0 568.0 "></path></clipPath><g clip-path="url(#clip-41040)"><g><clipPath id="clip-41041"><path d="M 288.5 415.0 L 289.5 415.0 L 289.5 568.0 L 288.5 568.0 Z M 288.5 415.0 "></path></clipPath><g clip-path="url(#clip-41041)"><path d="M 10.0 1.0 L 10.0 154.0 " fill="none" stroke="#52575F" stroke-width="1.00" stroke-dasharray="2.0, 2.0" transform="matrix(1.00, 0.00, 0.00, -1.00, 279.0, 569.0)"></path></g></g></g></g><g><clipPath id="clip-41042"><path d="M 280.0 568.0 L 397.0 568.0 L 397.0 415.0 L 280.0 415.0 Z M 280.0 568.0 "></path></clipPath><g clip-path="url(#clip-41042)"><g><clipPath id="clip-41043"><path d="M 297.5 415.0 L 298.5 415.0 L 298.5 568.0 L 297.5 568.0 Z M 297.5 415.0 "></path></clipPath><g clip-path="url(#clip-41043)"><path d="M 19.0 1.0 L 19.0 154.0 " fill="none" stroke="#52575F" stroke-width="1.00" stroke-dasharray="2.0, 2.0" transform="matrix(1.00, 0.00, 0.00, -1.00, 279.0, 569.0)"></path></g></g></g></g><g><clipPath id="clip-41044"><path d="M 280.0 568.0 L 397.0 568.0 L 397.0 415.0 L 280.0 415.0 Z M 280.0 568.0 "></path></clipPath><g clip-path="url(#clip-41044)"><g><clipPath id="clip-41045"><path d="M 306.5 415.0 L 307.5 415.0 L 307.5 568.0 L 306.5 568.0 Z M 306.5 415.0 "></path></clipPath><g clip-path="url(#clip-41045)"><path d="M 28.0 1.0 L 28.0 154.0 " fill="none" stroke="#52575F" stroke-width="1.00" stroke-dasharray="2.0, 2.0" transform="matrix(1.00, 0.00, 0.00, -1.00, 279.0, 569.0)"></path></g></g></g></g><g><clipPath id="clip-41046"><path d="M 280.0 568.0 L 397.0 568.0 L 397.0 415.0 L 280.0 415.0 Z M 280.0 568.0 "></path></clipPath><g clip-path="url(#clip-41046)"><g><clipPath id="clip-41047"><path d="M 315.5 415.0 L 316.5 415.0 L 316.5 568.0 L 315.5 568.0 Z M 315.5 415.0 "></path></clipPath><g clip-path="url(#clip-41047)"><path d="M 37.0 1.0 L 37.0 154.0 " fill="none" stroke="#52575F" stroke-width="1.00" stroke-dasharray="2.0, 2.0" transform="matrix(1.00, 0.00, 0.00, -1.00, 279.0, 569.0)"></path></g></g></g></g><g><clipPath id="clip-41048"><path d="M 280.0 568.0 L 397.0 568.0 L 397.0 415.0 L 280.0 415.0 Z M 280.0 568.0 "></path></clipPath><g clip-path="url(#clip-41048)"><g><clipPath id="clip-41049"><path d="M 324.5 415.0 L 325.5 415.0 L 325.5 568.0 L 324.5 568.0 Z M 324.5 415.0 "></path></clipPath><g clip-path="url(#clip-41049)"><path d="M 46.0 1.0 L 46.0 154.0 " fill="none" stroke="#52575F" stroke-width="1.00" stroke-dasharray="2.0, 2.0" transform="matrix(1.00, 0.00, 0.00, -1.00, 279.0, 569.0)"></path></g></g></g></g><g><clipPath id="clip-41050"><path d="M 280.0 568.0 L 397.0 568.0 L 397.0 415.0 L 280.0 415.0 Z M 280.0 568.0 "></path></clipPath><g clip-path="url(#clip-41050)"><g><clipPath id="clip-41051"><path d="M 333.5 415.0 L 334.5 415.0 L 334.5 568.0 L 333.5 568.0 Z M 333.5 415.0 "></path></clipPath><g clip-path="url(#clip-41051)"><path d="M 55.0 1.0 L 55.0 154.0 " fill="none" stroke="#52575F" stroke-width="1.00" stroke-dasharray="2.0, 2.0" transform="matrix(1.00, 0.00, 0.00, -1.00, 279.0, 569.0)"></path></g></g></g></g><g><clipPath id="clip-41052"><path d="M 280.0 568.0 L 397.0 568.0 L 397.0 415.0 L 280.0 415.0 Z M 280.0 568.0 "></path></clipPath><g clip-path="url(#clip-41052)"><g><clipPath id="clip-41053"><path d="M 342.5 415.0 L 343.5 415.0 L 343.5 568.0 L 342.5 568.0 Z M 342.5 415.0 "></path></clipPath><g clip-path="url(#clip-41053)"><path d="M 64.0 1.0 L 64.0 154.0 " fill="none" stroke="#52575F" stroke-width="1.00" stroke-dasharray="2.0, 2.0" transform="matrix(1.00, 0.00, 0.00, -1.00, 279.0, 569.0)"></path></g></g></g></g><g><clipPath id="clip-41054"><path d="M 280.0 568.0 L 397.0 568.0 L 397.0 415.0 L 280.0 415.0 Z M 280.0 568.0 "></path></clipPath><g clip-path="url(#clip-41054)"><g><clipPath id="clip-41055"><path d="M 351.5 415.0 L 352.5 415.0 L 352.5 568.0 L 351.5 568.0 Z M 351.5 415.0 "></path></clipPath><g clip-path="url(#clip-41055)"><path d="M 73.0 1.0 L 73.0 154.0 " fill="none" stroke="#52575F" stroke-width="1.00" stroke-dasharray="2.0, 2.0" transform="matrix(1.00, 0.00, 0.00, -1.00, 279.0, 569.0)"></path></g></g></g></g><g><clipPath id="clip-41056"><path d="M 280.0 568.0 L 397.0 568.0 L 397.0 415.0 L 280.0 415.0 Z M 280.0 568.0 "></path></clipPath><g clip-path="url(#clip-41056)"><g><clipPath id="clip-41057"><path d="M 360.5 415.0 L 361.5 415.0 L 361.5 568.0 L 360.5 568.0 Z M 360.5 415.0 "></path></clipPath><g clip-path="url(#clip-41057)"><path d="M 82.0 1.0 L 82.0 154.0 " fill="none" stroke="#52575F" stroke-width="1.00" stroke-dasharray="2.0, 2.0" transform="matrix(1.00, 0.00, 0.00, -1.00, 279.0, 569.0)"></path></g></g></g></g><g><clipPath id="clip-41058"><path d="M 280.0 568.0 L 397.0 568.0 L 397.0 415.0 L 280.0 415.0 Z M 280.0 568.0 "></path></clipPath><g clip-path="url(#clip-41058)"><g><clipPath id="clip-41059"><path d="M 369.5 415.0 L 370.5 415.0 L 370.5 568.0 L 369.5 568.0 Z M 369.5 415.0 "></path></clipPath><g clip-path="url(#clip-41059)"><path d="M 91.0 1.0 L 91.0 154.0 " fill="none" stroke="#52575F" stroke-width="1.00" stroke-dasharray="2.0, 2.0" transform="matrix(1.00, 0.00, 0.00, -1.00, 279.0, 569.0)"></path></g></g></g></g><g><clipPath id="clip-41060"><path d="M 280.0 568.0 L 397.0 568.0 L 397.0 415.0 L 280.0 415.0 Z M 280.0 568.0 "></path></clipPath><g clip-path="url(#clip-41060)"><g><clipPath id="clip-41061"><path d="M 378.5 415.0 L 379.5 415.0 L 379.5 568.0 L 378.5 568.0 Z M 378.5 415.0 "></path></clipPath><g clip-path="url(#clip-41061)"><path d="M 100.0 1.0 L 100.0 154.0 " fill="none" stroke="#52575F" stroke-width="1.00" stroke-dasharray="2.0, 2.0" transform="matrix(1.00, 0.00, 0.00, -1.00, 279.0, 569.0)"></path></g></g></g></g><g><clipPath id="clip-41062"><path d="M 280.0 568.0 L 397.0 568.0 L 397.0 415.0 L 280.0 415.0 Z M 280.0 568.0 "></path></clipPath><g clip-path="url(#clip-41062)"><g><clipPath id="clip-41063"><path d="M 387.5 415.0 L 388.5 415.0 L 388.5 568.0 L 387.5 568.0 Z M 387.5 415.0 "></path></clipPath><g clip-path="url(#clip-41063)"><path d="M 109.0 1.0 L 109.0 154.0 " fill="none" stroke="#52575F" stroke-width="1.00" stroke-dasharray="2.0, 2.0" transform="matrix(1.00, 0.00, 0.00, -1.00, 279.0, 569.0)"></path></g></g></g></g><g><clipPath id="clip-41064"><path d="M 280.0 568.0 L 397.0 568.0 L 397.0 415.0 L 280.0 415.0 Z M 280.0 568.0 "></path></clipPath><g clip-path="url(#clip-41064)"><g><clipPath id="clip-41065"><path d="M 280.0 558.5 L 397.0 558.5 L 397.0 559.5 L 280.0 559.5 Z M 280.0 558.5 "></path></clipPath><g clip-path="url(#clip-41065)"><path d="M 1.0 10.0 L 118.0 10.0 " fill="none" stroke="#52575F" stroke-width="1.00" stroke-dasharray="2.0, 2.0" transform="matrix(1.00, 0.00, 0.00, -1.00, 279.0, 569.0)"></path></g></g></g></g><g><clipPath id="clip-41066"><path d="M 280.0 568.0 L 397.0 568.0 L 397.0 415.0 L 280.0 415.0 Z M 280.0 568.0 "></path></clipPath><g clip-path="url(#clip-41066)"><g><clipPath id="clip-41067"><path d="M 280.0 549.5 L 397.0 549.5 L 397.0 550.5 L 280.0 550.5 Z M 280.0 549.5 "></path></clipPath><g clip-path="url(#clip-41067)"><path d="M 1.0 19.0 L 118.0 19.0 " fill="none" stroke="#52575F" stroke-width="1.00" stroke-dasharray="2.0, 2.0" transform="matrix(1.00, 0.00, 0.00, -1.00, 279.0, 569.0)"></path></g></g></g></g><g><clipPath id="clip-41068"><path d="M 280.0 568.0 L 397.0 568.0 L 397.0 415.0 L 280.0 415.0 Z M 280.0 568.0 "></path></clipPath><g clip-path="url(#clip-41068)"><g><clipPath id="clip-41069"><path d="M 280.0 540.5 L 397.0 540.5 L 397.0 541.5 L 280.0 541.5 Z M 280.0 540.5 "></path></clipPath><g clip-path="url(#clip-41069)"><path d="M 1.0 28.0 L 118.0 28.0 " fill="none" stroke="#52575F" stroke-width="1.00" stroke-dasharray="2.0, 2.0" transform="matrix(1.00, 0.00, 0.00, -1.00, 279.0, 569.0)"></path></g></g></g></g><g><clipPath id="clip-41070"><path d="M 280.0 568.0 L 397.0 568.0 L 397.0 415.0 L 280.0 415.0 Z M 280.0 568.0 "></path></clipPath><g clip-path="url(#clip-41070)"><g><clipPath id="clip-41071"><path d="M 280.0 531.5 L 397.0 531.5 L 397.0 532.5 L 280.0 532.5 Z M 280.0 531.5 "></path></clipPath><g clip-path="url(#clip-41071)"><path d="M 1.0 37.0 L 118.0 37.0 " fill="none" stroke="#52575F" stroke-width="1.00" stroke-dasharray="2.0, 2.0" transform="matrix(1.00, 0.00, 0.00, -1.00, 279.0, 569.0)"></path></g></g></g></g><g><clipPath id="clip-41072"><path d="M 280.0 568.0 L 397.0 568.0 L 397.0 415.0 L 280.0 415.0 Z M 280.0 568.0 "></path></clipPath><g clip-path="url(#clip-41072)"><g><clipPath id="clip-41073"><path d="M 280.0 522.5 L 397.0 522.5 L 397.0 523.5 L 280.0 523.5 Z M 280.0 522.5 "></path></clipPath><g clip-path="url(#clip-41073)"><path d="M 1.0 46.0 L 118.0 46.0 " fill="none" stroke="#52575F" stroke-width="1.00" stroke-dasharray="2.0, 2.0" transform="matrix(1.00, 0.00, 0.00, -1.00, 279.0, 569.0)"></path></g></g></g></g><g><clipPath id="clip-41074"><path d="M 280.0 568.0 L 397.0 568.0 L 397.0 415.0 L 280.0 415.0 Z M 280.0 568.0 "></path></clipPath><g clip-path="url(#clip-41074)"><g><clipPath id="clip-41075"><path d="M 280.0 513.5 L 397.0 513.5 L 397.0 514.5 L 280.0 514.5 Z M 280.0 513.5 "></path></clipPath><g clip-path="url(#clip-41075)"><path d="M 1.0 55.0 L 118.0 55.0 " fill="none" stroke="#52575F" stroke-width="1.00" stroke-dasharray="2.0, 2.0" transform="matrix(1.00, 0.00, 0.00, -1.00, 279.0, 569.0)"></path></g></g></g></g><g><clipPath id="clip-41076"><path d="M 280.0 568.0 L 397.0 568.0 L 397.0 415.0 L 280.0 415.0 Z M 280.0 568.0 "></path></clipPath><g clip-path="url(#clip-41076)"><g><clipPath id="clip-41077"><path d="M 280.0 504.5 L 397.0 504.5 L 397.0 505.5 L 280.0 505.5 Z M 280.0 504.5 "></path></clipPath><g clip-path="url(#clip-41077)"><path d="M 1.0 64.0 L 118.0 64.0 " fill="none" stroke="#52575F" stroke-width="1.00" stroke-dasharray="2.0, 2.0" transform="matrix(1.00, 0.00, 0.00, -1.00, 279.0, 569.0)"></path></g></g></g></g><g><clipPath id="clip-41078"><path d="M 280.0 568.0 L 397.0 568.0 L 397.0 415.0 L 280.0 415.0 Z M 280.0 568.0 "></path></clipPath><g clip-path="url(#clip-41078)"><g><clipPath id="clip-41079"><path d="M 280.0 495.5 L 397.0 495.5 L 397.0 496.5 L 280.0 496.5 Z M 280.0 495.5 "></path></clipPath><g clip-path="url(#clip-41079)"><path d="M 1.0 73.0 L 118.0 73.0 " fill="none" stroke="#52575F" stroke-width="1.00" stroke-dasharray="2.0, 2.0" transform="matrix(1.00, 0.00, 0.00, -1.00, 279.0, 569.0)"></path></g></g></g></g><g><clipPath id="clip-41080"><path d="M 280.0 568.0 L 397.0 568.0 L 397.0 415.0 L 280.0 415.0 Z M 280.0 568.0 "></path></clipPath><g clip-path="url(#clip-41080)"><g><clipPath id="clip-41081"><path d="M 280.0 486.5 L 397.0 486.5 L 397.0 487.5 L 280.0 487.5 Z M 280.0 486.5 "></path></clipPath><g clip-path="url(#clip-41081)"><path d="M 1.0 82.0 L 118.0 82.0 " fill="none" stroke="#52575F" stroke-width="1.00" stroke-dasharray="2.0, 2.0" transform="matrix(1.00, 0.00, 0.00, -1.00, 279.0, 569.0)"></path></g></g></g></g><g><clipPath id="clip-41082"><path d="M 280.0 568.0 L 397.0 568.0 L 397.0 415.0 L 280.0 415.0 Z M 280.0 568.0 "></path></clipPath><g clip-path="url(#clip-41082)"><g><clipPath id="clip-41083"><path d="M 280.0 477.5 L 397.0 477.5 L 397.0 478.5 L 280.0 478.5 Z M 280.0 477.5 "></path></clipPath><g clip-path="url(#clip-41083)"><path d="M 1.0 91.0 L 118.0 91.0 " fill="none" stroke="#52575F" stroke-width="1.00" stroke-dasharray="2.0, 2.0" transform="matrix(1.00, 0.00, 0.00, -1.00, 279.0, 569.0)"></path></g></g></g></g><g><clipPath id="clip-41084"><path d="M 280.0 568.0 L 397.0 568.0 L 397.0 415.0 L 280.0 415.0 Z M 280.0 568.0 "></path></clipPath><g clip-path="url(#clip-41084)"><g><clipPath id="clip-41085"><path d="M 280.0 468.5 L 397.0 468.5 L 397.0 469.5 L 280.0 469.5 Z M 280.0 468.5 "></path></clipPath><g clip-path="url(#clip-41085)"><path d="M 1.0 100.0 L 118.0 100.0 " fill="none" stroke="#52575F" stroke-width="1.00" stroke-dasharray="2.0, 2.0" transform="matrix(1.00, 0.00, 0.00, -1.00, 279.0, 569.0)"></path></g></g></g></g><g><clipPath id="clip-41086"><path d="M 280.0 568.0 L 397.0 568.0 L 397.0 415.0 L 280.0 415.0 Z M 280.0 568.0 "></path></clipPath><g clip-path="url(#clip-41086)"><g><clipPath id="clip-41087"><path d="M 280.0 459.5 L 397.0 459.5 L 397.0 460.5 L 280.0 460.5 Z M 280.0 459.5 "></path></clipPath><g clip-path="url(#clip-41087)"><path d="M 1.0 109.0 L 118.0 109.0 " fill="none" stroke="#52575F" stroke-width="1.00" stroke-dasharray="2.0, 2.0" transform="matrix(1.00, 0.00, 0.00, -1.00, 279.0, 569.0)"></path></g></g></g></g><g><clipPath id="clip-41088"><path d="M 280.0 568.0 L 397.0 568.0 L 397.0 415.0 L 280.0 415.0 Z M 280.0 568.0 "></path></clipPath><g clip-path="url(#clip-41088)"><g><clipPath id="clip-41089"><path d="M 280.0 450.5 L 397.0 450.5 L 397.0 451.5 L 280.0 451.5 Z M 280.0 450.5 "></path></clipPath><g clip-path="url(#clip-41089)"><path d="M 1.0 118.0 L 118.0 118.0 " fill="none" stroke="#52575F" stroke-width="1.00" stroke-dasharray="2.0, 2.0" transform="matrix(1.00, 0.00, 0.00, -1.00, 279.0, 569.0)"></path></g></g></g></g><g><clipPath id="clip-41090"><path d="M 280.0 568.0 L 397.0 568.0 L 397.0 415.0 L 280.0 415.0 Z M 280.0 568.0 "></path></clipPath><g clip-path="url(#clip-41090)"><g><clipPath id="clip-41091"><path d="M 280.0 441.5 L 397.0 441.5 L 397.0 442.5 L 280.0 442.5 Z M 280.0 441.5 "></path></clipPath><g clip-path="url(#clip-41091)"><path d="M 1.0 127.0 L 118.0 127.0 " fill="none" stroke="#52575F" stroke-width="1.00" stroke-dasharray="2.0, 2.0" transform="matrix(1.00, 0.00, 0.00, -1.00, 279.0, 569.0)"></path></g></g></g></g><g><clipPath id="clip-41092"><path d="M 280.0 568.0 L 397.0 568.0 L 397.0 415.0 L 280.0 415.0 Z M 280.0 568.0 "></path></clipPath><g clip-path="url(#clip-41092)"><g><clipPath id="clip-41093"><path d="M 280.0 432.5 L 397.0 432.5 L 397.0 433.5 L 280.0 433.5 Z M 280.0 432.5 "></path></clipPath><g clip-path="url(#clip-41093)"><path d="M 1.0 136.0 L 118.0 136.0 " fill="none" stroke="#52575F" stroke-width="1.00" stroke-dasharray="2.0, 2.0" transform="matrix(1.00, 0.00, 0.00, -1.00, 279.0, 569.0)"></path></g></g></g></g><g><clipPath id="clip-41094"><path d="M 280.0 568.0 L 397.0 568.0 L 397.0 415.0 L 280.0 415.0 Z M 280.0 568.0 "></path></clipPath><g clip-path="url(#clip-41094)"><g><clipPath id="clip-41095"><path d="M 280.0 423.5 L 397.0 423.5 L 397.0 424.5 L 280.0 424.5 Z M 280.0 423.5 "></path></clipPath><g clip-path="url(#clip-41095)"><path d="M 1.0 145.0 L 118.0 145.0 " fill="none" stroke="#52575F" stroke-width="1.00" stroke-dasharray="2.0, 2.0" transform="matrix(1.00, 0.00, 0.00, -1.00, 279.0, 569.0)"></path></g></g></g></g><image xlink:href="../../E032F876-E8E9-4C42-AF2C-93ED8E896D6C/assets/15EE3C20513621AFF0785F295453E611.png" width="12.00" height="11.00" transform="matrix(1.00, 0.00, -0.00, -1.00, 313.0, 469.0)"></image><image xlink:href="../../E032F876-E8E9-4C42-AF2C-93ED8E896D6C/assets/D59024D7C3C0809BAD52C011AF8FF8AD.png" width="12.00" height="10.00" transform="matrix(1.00, 0.00, -0.00, -1.10, 313.0, 479.0)"></image><image xlink:href="../../E032F876-E8E9-4C42-AF2C-93ED8E896D6C/assets/7BF868126371516F35EE24CF67107A29.png" width="12.00" height="11.00" transform="matrix(0.92, 0.00, -0.00, -1.00, 324.0, 479.0)"></image><image xlink:href="../../E032F876-E8E9-4C42-AF2C-93ED8E896D6C/assets/7BF868126371516F35EE24CF67107A29.png" width="12.00" height="11.00" transform="matrix(1.00, 0.00, -0.00, -1.00, 313.0, 489.0)"></image><image xlink:href="../../E032F876-E8E9-4C42-AF2C-93ED8E896D6C/assets/D59024D7C3C0809BAD52C011AF8FF8AD.png" width="12.00" height="10.00" transform="matrix(1.00, 0.00, -0.00, -1.10, 323.0, 469.0)"></image><image xlink:href="../../E032F876-E8E9-4C42-AF2C-93ED8E896D6C/assets/D59024D7C3C0809BAD52C011AF8FF8AD.png" width="12.00" height="10.00" transform="matrix(1.00, 0.00, -0.00, -1.10, 358.0, 448.0)"></image><image xlink:href="../../E032F876-E8E9-4C42-AF2C-93ED8E896D6C/assets/7BF868126371516F35EE24CF67107A29.png" width="12.00" height="11.00" transform="matrix(0.92, 0.00, -0.00, -1.00, 286.0, 448.0)"></image><image xlink:href="../../E032F876-E8E9-4C42-AF2C-93ED8E896D6C/assets/7BF868126371516F35EE24CF67107A29.png" width="12.00" height="11.00" transform="matrix(0.92, 0.00, -0.00, -1.00, 297.0, 448.0)"></image><g><clipPath id="clip-41096"><path d="M 169.5 154.7 C 189.0 146.5 189.0 133.3 169.5 125.2 C 150.0 117.0 118.3 117.0 98.8 125.2 C 79.3 133.3 79.3 146.5 98.8 154.7 C 118.3 162.8 150.0 162.8 169.5 154.7 Z M 169.5 154.7 "></path></clipPath><g clip-path="url(#clip-41096)"><g><clipPath id="clip-41097"><path d="M 83.1 118.1 L 185.1 118.1 L 185.1 161.8 L 83.1 161.8 Z M 83.1 118.1 "></path></clipPath><g clip-path="url(#clip-41097)"><image xlink:href="../../E032F876-E8E9-4C42-AF2C-93ED8E896D6C/assets/AFF4D1F361AD28AA82012E14045EB299.jpeg" width="128.00" height="128.00" transform="matrix(1.00, 0.00, -0.00, -1.00, 84.1, 160.8)"></image><path d="M 84.1 160.8 L 184.1 160.8 L 184.1 119.1 L 84.1 119.1 Z M 84.1 160.8 " fill="#1093A4" fill-opacity="0.85"></path></g></g></g></g><g><clipPath id="clip-41098"><path d="M 84.1 237.9 L 184.1 237.9 L 184.1 137.9 L 84.1 137.9 Z M 84.1 237.9 "></path></clipPath><g clip-path="url(#clip-41098)"><g><clipPath id="clip-41099"><path d="M 83.1 136.9 L 185.1 136.9 L 185.1 238.9 L 83.1 238.9 Z M 83.1 136.9 "></path></clipPath><g clip-path="url(#clip-41099)"><image xlink:href="../../E032F876-E8E9-4C42-AF2C-93ED8E896D6C/assets/AFF4D1F361AD28AA82012E14045EB299.jpeg" width="128.00" height="128.00" transform="matrix(1.00, 0.00, -0.00, -1.00, 84.1, 237.9)"></image><path d="M 84.1 237.9 L 184.1 237.9 L 184.1 137.9 L 84.1 137.9 Z M 84.1 237.9 " fill="#1093A4" fill-opacity="0.85"></path></g></g></g></g><g><clipPath id="clip-41100"><path d="M 169.5 248.2 C 189.0 240.1 189.0 226.9 169.5 218.8 C 150.0 210.6 118.3 210.6 98.8 218.8 C 79.3 226.9 79.3 240.1 98.8 248.2 C 118.3 256.4 150.0 256.4 169.5 248.2 Z M 169.5 248.2 "></path></clipPath><g clip-path="url(#clip-41100)"><g><clipPath id="clip-41101"><path d="M 82.6 211.2 L 185.6 211.2 L 185.6 255.9 L 82.6 255.9 Z M 82.6 211.2 "></path></clipPath><g clip-path="url(#clip-41101)"><image xlink:href="../../E032F876-E8E9-4C42-AF2C-93ED8E896D6C/assets/AFF4D1F361AD28AA82012E14045EB299.jpeg" width="128.00" height="128.00" transform="matrix(1.00, 0.00, -0.00, -1.00, 84.1, 254.4)"></image><path d="M 84.1 254.4 L 184.1 254.4 L 184.1 212.7 L 84.1 212.7 Z M 84.1 254.4 " fill="#1093A4" fill-opacity="0.85"></path></g></g></g></g><g><clipPath id="clip-41102"><path d="M 82.6 211.2 L 185.6 211.2 L 185.6 255.9 L 82.6 255.9 Z M 82.6 211.2 "></path></clipPath><g clip-path="url(#clip-41102)"><path d="M 85.4 6.1 C 104.9 14.2 104.9 27.4 85.4 35.6 C 65.8 43.7 34.2 43.7 14.6 35.6 C -4.9 27.4 -4.9 14.2 14.6 6.1 C 34.2 -2.0 65.8 -2.0 85.4 6.1 Z M 85.4 6.1 " fill="none" stroke="#A6AAA8" stroke-width="1.00" transform="matrix(1.00, 0.00, 0.00, -1.00, 84.1, 254.4)"></path></g></g><g><clipPath id="clip-41103"><path d="M 78.2 131.7 L 188.3 131.7 L 188.3 254.1 L 78.2 254.1 Z M 78.2 131.7 "></path></clipPath><g clip-path="url(#clip-41103)"><image xlink:href="../../E032F876-E8E9-4C42-AF2C-93ED8E896D6C/assets/18EBC3A74E6F7292DBD243080D117D0A.png" width="110.00" height="123.00" transform="matrix(1.00, 0.00, -0.00, -0.99, 78.0, 254.0)"></image></g></g><g><clipPath id="clip-41104"><path d="M 739.6 366.0 C 759.2 357.8 759.2 344.6 739.6 336.5 C 720.1 328.3 688.4 328.3 668.9 336.5 C 649.4 344.6 649.4 357.8 668.9 366.0 C 688.4 374.1 720.1 374.1 739.6 366.0 Z M 739.6 366.0 "></path></clipPath><g clip-path="url(#clip-41104)"><g><clipPath id="clip-41105"><path d="M 653.3 329.4 L 755.3 329.4 L 755.3 373.1 L 653.3 373.1 Z M 653.3 329.4 "></path></clipPath><g clip-path="url(#clip-41105)"><image xlink:href="../../E032F876-E8E9-4C42-AF2C-93ED8E896D6C/assets/AFF4D1F361AD28AA82012E14045EB299.jpeg" width="128.00" height="128.00" transform="matrix(1.00, 0.00, -0.00, -1.00, 654.3, 372.1)"></image><path d="M 654.3 372.1 L 754.3 372.1 L 754.3 330.4 L 654.3 330.4 Z M 654.3 372.1 " fill="#1093A4" fill-opacity="0.85"></path></g></g></g></g><g><clipPath id="clip-41106"><path d="M 654.3 449.2 L 754.3 449.2 L 754.3 349.2 L 654.3 349.2 Z M 654.3 449.2 "></path></clipPath><g clip-path="url(#clip-41106)"><g><clipPath id="clip-41107"><path d="M 653.3 348.2 L 755.3 348.2 L 755.3 450.2 L 653.3 450.2 Z M 653.3 348.2 "></path></clipPath><g clip-path="url(#clip-41107)"><image xlink:href="../../E032F876-E8E9-4C42-AF2C-93ED8E896D6C/assets/AFF4D1F361AD28AA82012E14045EB299.jpeg" width="128.00" height="128.00" transform="matrix(1.00, 0.00, -0.00, -1.00, 654.3, 449.2)"></image><path d="M 654.3 449.2 L 754.3 449.2 L 754.3 349.2 L 654.3 349.2 Z M 654.3 449.2 " fill="#1093A4" fill-opacity="0.85"></path></g></g></g></g><g><clipPath id="clip-41108"><path d="M 739.6 459.5 C 759.2 451.4 759.2 438.2 739.6 430.1 C 720.1 421.9 688.4 421.9 668.9 430.1 C 649.4 438.2 649.4 451.4 668.9 459.5 C 688.4 467.7 720.1 467.7 739.6 459.5 Z M 739.6 459.5 "></path></clipPath><g clip-path="url(#clip-41108)"><g><clipPath id="clip-41109"><path d="M 652.8 422.5 L 755.8 422.5 L 755.8 467.2 L 652.8 467.2 Z M 652.8 422.5 "></path></clipPath><g clip-path="url(#clip-41109)"><image xlink:href="../../E032F876-E8E9-4C42-AF2C-93ED8E896D6C/assets/AFF4D1F361AD28AA82012E14045EB299.jpeg" width="128.00" height="128.00" transform="matrix(1.00, 0.00, -0.00, -1.00, 654.3, 465.7)"></image><path d="M 654.3 465.7 L 754.3 465.7 L 754.3 424.0 L 654.3 424.0 Z M 654.3 465.7 " fill="#1093A4" fill-opacity="0.85"></path></g></g></g></g><g><clipPath id="clip-41110"><path d="M 652.8 422.5 L 755.8 422.5 L 755.8 467.2 L 652.8 467.2 Z M 652.8 422.5 "></path></clipPath><g clip-path="url(#clip-41110)"><path d="M 85.4 6.1 C 104.9 14.2 104.9 27.4 85.4 35.6 C 65.8 43.7 34.2 43.7 14.6 35.6 C -4.9 27.4 -4.9 14.2 14.6 6.1 C 34.2 -2.0 65.8 -2.0 85.4 6.1 Z M 85.4 6.1 " fill="none" stroke="#A6AAA8" stroke-width="1.00" transform="matrix(1.00, 0.00, 0.00, -1.00, 654.3, 465.7)"></path></g></g><g><clipPath id="clip-41111"><path d="M 648.4 343.0 L 758.5 343.0 L 758.5 465.4 L 648.4 465.4 Z M 648.4 343.0 "></path></clipPath><g clip-path="url(#clip-41111)"><image xlink:href="../../E032F876-E8E9-4C42-AF2C-93ED8E896D6C/assets/18EBC3A74E6F7292DBD243080D117D0A.png" width="110.00" height="123.00" transform="matrix(1.00, 0.00, -0.00, -0.99, 648.0, 465.0)"></image></g></g><path d="M 0.0 11.4 C 31.0 -1.6 61.5 -3.5 91.5 5.8 L 92.4 6.1 " fill="none" stroke="#000000" stroke-width="2.00" transform="matrix(1.00, 0.00, 0.00, -1.00, 178.2, 539.1)"></path><path d="M 268.1 528.8 L 278.8 530.2 L 271.3 537.8 Z M 268.1 528.8 " fill="#000000"></path><g><clipPath id="clip-41112"><path d="M 286.5 346.5 L 404.5 346.5 L 404.5 192.5 L 286.5 192.5 Z M 286.5 346.5 "></path></clipPath><g clip-path="url(#clip-41112)"><g><clipPath id="clip-41113"><path d="M 295.5 192.5 L 296.5 192.5 L 296.5 346.5 L 295.5 346.5 Z M 295.5 192.5 "></path></clipPath><g clip-path="url(#clip-41113)"><path d="M 11.0 1.5 L 11.0 155.5 " fill="none" stroke="#52575F" stroke-width="1.00" stroke-dasharray="2.0, 2.0" transform="matrix(1.00, 0.00, 0.00, -1.00, 285.0, 348.0)"></path></g></g></g></g><g><clipPath id="clip-41114"><path d="M 286.5 346.5 L 404.5 346.5 L 404.5 192.5 L 286.5 192.5 Z M 286.5 346.5 "></path></clipPath><g clip-path="url(#clip-41114)"><g><clipPath id="clip-41115"><path d="M 304.5 192.5 L 305.5 192.5 L 305.5 346.5 L 304.5 346.5 Z M 304.5 192.5 "></path></clipPath><g clip-path="url(#clip-41115)"><path d="M 20.0 1.5 L 20.0 155.5 " fill="none" stroke="#52575F" stroke-width="1.00" stroke-dasharray="2.0, 2.0" transform="matrix(1.00, 0.00, 0.00, -1.00, 285.0, 348.0)"></path></g></g></g></g><g><clipPath id="clip-41116"><path d="M 286.5 346.5 L 404.5 346.5 L 404.5 192.5 L 286.5 192.5 Z M 286.5 346.5 "></path></clipPath><g clip-path="url(#clip-41116)"><g><clipPath id="clip-41117"><path d="M 313.5 192.5 L 314.5 192.5 L 314.5 346.5 L 313.5 346.5 Z M 313.5 192.5 "></path></clipPath><g clip-path="url(#clip-41117)"><path d="M 29.0 1.5 L 29.0 155.5 " fill="none" stroke="#52575F" stroke-width="1.00" stroke-dasharray="2.0, 2.0" transform="matrix(1.00, 0.00, 0.00, -1.00, 285.0, 348.0)"></path></g></g></g></g><g><clipPath id="clip-41118"><path d="M 286.5 346.5 L 404.5 346.5 L 404.5 192.5 L 286.5 192.5 Z M 286.5 346.5 "></path></clipPath><g clip-path="url(#clip-41118)"><g><clipPath id="clip-41119"><path d="M 322.5 192.5 L 323.5 192.5 L 323.5 346.5 L 322.5 346.5 Z M 322.5 192.5 "></path></clipPath><g clip-path="url(#clip-41119)"><path d="M 38.0 1.5 L 38.0 155.5 " fill="none" stroke="#52575F" stroke-width="1.00" stroke-dasharray="2.0, 2.0" transform="matrix(1.00, 0.00, 0.00, -1.00, 285.0, 348.0)"></path></g></g></g></g><g><clipPath id="clip-41120"><path d="M 286.5 346.5 L 404.5 346.5 L 404.5 192.5 L 286.5 192.5 Z M 286.5 346.5 "></path></clipPath><g clip-path="url(#clip-41120)"><g><clipPath id="clip-41121"><path d="M 331.5 192.5 L 332.5 192.5 L 332.5 346.5 L 331.5 346.5 Z M 331.5 192.5 "></path></clipPath><g clip-path="url(#clip-41121)"><path d="M 47.0 1.5 L 47.0 155.5 " fill="none" stroke="#52575F" stroke-width="1.00" stroke-dasharray="2.0, 2.0" transform="matrix(1.00, 0.00, 0.00, -1.00, 285.0, 348.0)"></path></g></g></g></g><g><clipPath id="clip-41122"><path d="M 286.5 346.5 L 404.5 346.5 L 404.5 192.5 L 286.5 192.5 Z M 286.5 346.5 "></path></clipPath><g clip-path="url(#clip-41122)"><g><clipPath id="clip-41123"><path d="M 340.5 192.5 L 341.5 192.5 L 341.5 346.5 L 340.5 346.5 Z M 340.5 192.5 "></path></clipPath><g clip-path="url(#clip-41123)"><path d="M 56.0 1.5 L 56.0 155.5 " fill="none" stroke="#52575F" stroke-width="1.00" stroke-dasharray="2.0, 2.0" transform="matrix(1.00, 0.00, 0.00, -1.00, 285.0, 348.0)"></path></g></g></g></g><g><clipPath id="clip-41124"><path d="M 286.5 346.5 L 404.5 346.5 L 404.5 192.5 L 286.5 192.5 Z M 286.5 346.5 "></path></clipPath><g clip-path="url(#clip-41124)"><g><clipPath id="clip-41125"><path d="M 349.5 192.5 L 350.5 192.5 L 350.5 346.5 L 349.5 346.5 Z M 349.5 192.5 "></path></clipPath><g clip-path="url(#clip-41125)"><path d="M 65.0 1.5 L 65.0 155.5 " fill="none" stroke="#52575F" stroke-width="1.00" stroke-dasharray="2.0, 2.0" transform="matrix(1.00, 0.00, 0.00, -1.00, 285.0, 348.0)"></path></g></g></g></g><g><clipPath id="clip-41126"><path d="M 286.5 346.5 L 404.5 346.5 L 404.5 192.5 L 286.5 192.5 Z M 286.5 346.5 "></path></clipPath><g clip-path="url(#clip-41126)"><g><clipPath id="clip-41127"><path d="M 358.5 192.5 L 359.5 192.5 L 359.5 346.5 L 358.5 346.5 Z M 358.5 192.5 "></path></clipPath><g clip-path="url(#clip-41127)"><path d="M 74.0 1.5 L 74.0 155.5 " fill="none" stroke="#52575F" stroke-width="1.00" stroke-dasharray="2.0, 2.0" transform="matrix(1.00, 0.00, 0.00, -1.00, 285.0, 348.0)"></path></g></g></g></g><g><clipPath id="clip-41128"><path d="M 286.5 346.5 L 404.5 346.5 L 404.5 192.5 L 286.5 192.5 Z M 286.5 346.5 "></path></clipPath><g clip-path="url(#clip-41128)"><g><clipPath id="clip-41129"><path d="M 367.5 192.5 L 368.5 192.5 L 368.5 346.5 L 367.5 346.5 Z M 367.5 192.5 "></path></clipPath><g clip-path="url(#clip-41129)"><path d="M 83.0 1.5 L 83.0 155.5 " fill="none" stroke="#52575F" stroke-width="1.00" stroke-dasharray="2.0, 2.0" transform="matrix(1.00, 0.00, 0.00, -1.00, 285.0, 348.0)"></path></g></g></g></g><g><clipPath id="clip-41130"><path d="M 286.5 346.5 L 404.5 346.5 L 404.5 192.5 L 286.5 192.5 Z M 286.5 346.5 "></path></clipPath><g clip-path="url(#clip-41130)"><g><clipPath id="clip-41131"><path d="M 376.5 192.5 L 377.5 192.5 L 377.5 346.5 L 376.5 346.5 Z M 376.5 192.5 "></path></clipPath><g clip-path="url(#clip-41131)"><path d="M 92.0 1.5 L 92.0 155.5 " fill="none" stroke="#52575F" stroke-width="1.00" stroke-dasharray="2.0, 2.0" transform="matrix(1.00, 0.00, 0.00, -1.00, 285.0, 348.0)"></path></g></g></g></g><g><clipPath id="clip-41132"><path d="M 286.5 346.5 L 404.5 346.5 L 404.5 192.5 L 286.5 192.5 Z M 286.5 346.5 "></path></clipPath><g clip-path="url(#clip-41132)"><g><clipPath id="clip-41133"><path d="M 385.5 192.5 L 386.5 192.5 L 386.5 346.5 L 385.5 346.5 Z M 385.5 192.5 "></path></clipPath><g clip-path="url(#clip-41133)"><path d="M 101.0 1.5 L 101.0 155.5 " fill="none" stroke="#52575F" stroke-width="1.00" stroke-dasharray="2.0, 2.0" transform="matrix(1.00, 0.00, 0.00, -1.00, 285.0, 348.0)"></path></g></g></g></g><g><clipPath id="clip-41134"><path d="M 286.5 346.5 L 404.5 346.5 L 404.5 192.5 L 286.5 192.5 Z M 286.5 346.5 "></path></clipPath><g clip-path="url(#clip-41134)"><g><clipPath id="clip-41135"><path d="M 394.5 192.5 L 395.5 192.5 L 395.5 346.5 L 394.5 346.5 Z M 394.5 192.5 "></path></clipPath><g clip-path="url(#clip-41135)"><path d="M 110.0 1.5 L 110.0 155.5 " fill="none" stroke="#52575F" stroke-width="1.00" stroke-dasharray="2.0, 2.0" transform="matrix(1.00, 0.00, 0.00, -1.00, 285.0, 348.0)"></path></g></g></g></g><g><clipPath id="clip-41136"><path d="M 286.5 346.5 L 404.5 346.5 L 404.5 192.5 L 286.5 192.5 Z M 286.5 346.5 "></path></clipPath><g clip-path="url(#clip-41136)"><g><clipPath id="clip-41137"><path d="M 286.5 336.5 L 404.5 336.5 L 404.5 337.5 L 286.5 337.5 Z M 286.5 336.5 "></path></clipPath><g clip-path="url(#clip-41137)"><path d="M 1.5 11.0 L 119.5 11.0 " fill="none" stroke="#52575F" stroke-width="1.00" stroke-dasharray="2.0, 2.0" transform="matrix(1.00, 0.00, 0.00, -1.00, 285.0, 348.0)"></path></g></g></g></g><g><clipPath id="clip-41138"><path d="M 286.5 346.5 L 404.5 346.5 L 404.5 192.5 L 286.5 192.5 Z M 286.5 346.5 "></path></clipPath><g clip-path="url(#clip-41138)"><g><clipPath id="clip-41139"><path d="M 286.5 327.5 L 404.5 327.5 L 404.5 328.5 L 286.5 328.5 Z M 286.5 327.5 "></path></clipPath><g clip-path="url(#clip-41139)"><path d="M 1.5 20.0 L 119.5 20.0 " fill="none" stroke="#52575F" stroke-width="1.00" stroke-dasharray="2.0, 2.0" transform="matrix(1.00, 0.00, 0.00, -1.00, 285.0, 348.0)"></path></g></g></g></g><g><clipPath id="clip-41140"><path d="M 286.5 346.5 L 404.5 346.5 L 404.5 192.5 L 286.5 192.5 Z M 286.5 346.5 "></path></clipPath><g clip-path="url(#clip-41140)"><g><clipPath id="clip-41141"><path d="M 286.5 318.5 L 404.5 318.5 L 404.5 319.5 L 286.5 319.5 Z M 286.5 318.5 "></path></clipPath><g clip-path="url(#clip-41141)"><path d="M 1.5 29.0 L 119.5 29.0 " fill="none" stroke="#52575F" stroke-width="1.00" stroke-dasharray="2.0, 2.0" transform="matrix(1.00, 0.00, 0.00, -1.00, 285.0, 348.0)"></path></g></g></g></g><g><clipPath id="clip-41142"><path d="M 286.5 346.5 L 404.5 346.5 L 404.5 192.5 L 286.5 192.5 Z M 286.5 346.5 "></path></clipPath><g clip-path="url(#clip-41142)"><g><clipPath id="clip-41143"><path d="M 286.5 309.5 L 404.5 309.5 L 404.5 310.5 L 286.5 310.5 Z M 286.5 309.5 "></path></clipPath><g clip-path="url(#clip-41143)"><path d="M 1.5 38.0 L 119.5 38.0 " fill="none" stroke="#52575F" stroke-width="1.00" stroke-dasharray="2.0, 2.0" transform="matrix(1.00, 0.00, 0.00, -1.00, 285.0, 348.0)"></path></g></g></g></g><g><clipPath id="clip-41144"><path d="M 286.5 346.5 L 404.5 346.5 L 404.5 192.5 L 286.5 192.5 Z M 286.5 346.5 "></path></clipPath><g clip-path="url(#clip-41144)"><g><clipPath id="clip-41145"><path d="M 286.5 300.5 L 404.5 300.5 L 404.5 301.5 L 286.5 301.5 Z M 286.5 300.5 "></path></clipPath><g clip-path="url(#clip-41145)"><path d="M 1.5 47.0 L 119.5 47.0 " fill="none" stroke="#52575F" stroke-width="1.00" stroke-dasharray="2.0, 2.0" transform="matrix(1.00, 0.00, 0.00, -1.00, 285.0, 348.0)"></path></g></g></g></g><g><clipPath id="clip-41146"><path d="M 286.5 346.5 L 404.5 346.5 L 404.5 192.5 L 286.5 192.5 Z M 286.5 346.5 "></path></clipPath><g clip-path="url(#clip-41146)"><g><clipPath id="clip-41147"><path d="M 286.5 291.5 L 404.5 291.5 L 404.5 292.5 L 286.5 292.5 Z M 286.5 291.5 "></path></clipPath><g clip-path="url(#clip-41147)"><path d="M 1.5 56.0 L 119.5 56.0 " fill="none" stroke="#52575F" stroke-width="1.00" stroke-dasharray="2.0, 2.0" transform="matrix(1.00, 0.00, 0.00, -1.00, 285.0, 348.0)"></path></g></g></g></g><g><clipPath id="clip-41148"><path d="M 286.5 346.5 L 404.5 346.5 L 404.5 192.5 L 286.5 192.5 Z M 286.5 346.5 "></path></clipPath><g clip-path="url(#clip-41148)"><g><clipPath id="clip-41149"><path d="M 286.5 282.5 L 404.5 282.5 L 404.5 283.5 L 286.5 283.5 Z M 286.5 282.5 "></path></clipPath><g clip-path="url(#clip-41149)"><path d="M 1.5 65.0 L 119.5 65.0 " fill="none" stroke="#52575F" stroke-width="1.00" stroke-dasharray="2.0, 2.0" transform="matrix(1.00, 0.00, 0.00, -1.00, 285.0, 348.0)"></path></g></g></g></g><g><clipPath id="clip-41150"><path d="M 286.5 346.5 L 404.5 346.5 L 404.5 192.5 L 286.5 192.5 Z M 286.5 346.5 "></path></clipPath><g clip-path="url(#clip-41150)"><g><clipPath id="clip-41151"><path d="M 286.5 273.5 L 404.5 273.5 L 404.5 274.5 L 286.5 274.5 Z M 286.5 273.5 "></path></clipPath><g clip-path="url(#clip-41151)"><path d="M 1.5 74.0 L 119.5 74.0 " fill="none" stroke="#52575F" stroke-width="1.00" stroke-dasharray="2.0, 2.0" transform="matrix(1.00, 0.00, 0.00, -1.00, 285.0, 348.0)"></path></g></g></g></g><g><clipPath id="clip-41152"><path d="M 286.5 346.5 L 404.5 346.5 L 404.5 192.5 L 286.5 192.5 Z M 286.5 346.5 "></path></clipPath><g clip-path="url(#clip-41152)"><g><clipPath id="clip-41153"><path d="M 286.5 264.5 L 404.5 264.5 L 404.5 265.5 L 286.5 265.5 Z M 286.5 264.5 "></path></clipPath><g clip-path="url(#clip-41153)"><path d="M 1.5 83.0 L 119.5 83.0 " fill="none" stroke="#52575F" stroke-width="1.00" stroke-dasharray="2.0, 2.0" transform="matrix(1.00, 0.00, 0.00, -1.00, 285.0, 348.0)"></path></g></g></g></g><g><clipPath id="clip-41154"><path d="M 286.5 346.5 L 404.5 346.5 L 404.5 192.5 L 286.5 192.5 Z M 286.5 346.5 "></path></clipPath><g clip-path="url(#clip-41154)"><g><clipPath id="clip-41155"><path d="M 286.5 255.5 L 404.5 255.5 L 404.5 256.5 L 286.5 256.5 Z M 286.5 255.5 "></path></clipPath><g clip-path="url(#clip-41155)"><path d="M 1.5 92.0 L 119.5 92.0 " fill="none" stroke="#52575F" stroke-width="1.00" stroke-dasharray="2.0, 2.0" transform="matrix(1.00, 0.00, 0.00, -1.00, 285.0, 348.0)"></path></g></g></g></g><g><clipPath id="clip-41156"><path d="M 286.5 346.5 L 404.5 346.5 L 404.5 192.5 L 286.5 192.5 Z M 286.5 346.5 "></path></clipPath><g clip-path="url(#clip-41156)"><g><clipPath id="clip-41157"><path d="M 286.5 246.5 L 404.5 246.5 L 404.5 247.5 L 286.5 247.5 Z M 286.5 246.5 "></path></clipPath><g clip-path="url(#clip-41157)"><path d="M 1.5 101.0 L 119.5 101.0 " fill="none" stroke="#52575F" stroke-width="1.00" stroke-dasharray="2.0, 2.0" transform="matrix(1.00, 0.00, 0.00, -1.00, 285.0, 348.0)"></path></g></g></g></g><g><clipPath id="clip-41158"><path d="M 286.5 346.5 L 404.5 346.5 L 404.5 192.5 L 286.5 192.5 Z M 286.5 346.5 "></path></clipPath><g clip-path="url(#clip-41158)"><g><clipPath id="clip-41159"><path d="M 286.5 237.5 L 404.5 237.5 L 404.5 238.5 L 286.5 238.5 Z M 286.5 237.5 "></path></clipPath><g clip-path="url(#clip-41159)"><path d="M 1.5 110.0 L 119.5 110.0 " fill="none" stroke="#52575F" stroke-width="1.00" stroke-dasharray="2.0, 2.0" transform="matrix(1.00, 0.00, 0.00, -1.00, 285.0, 348.0)"></path></g></g></g></g><g><clipPath id="clip-41160"><path d="M 286.5 346.5 L 404.5 346.5 L 404.5 192.5 L 286.5 192.5 Z M 286.5 346.5 "></path></clipPath><g clip-path="url(#clip-41160)"><g><clipPath id="clip-41161"><path d="M 286.5 228.5 L 404.5 228.5 L 404.5 229.5 L 286.5 229.5 Z M 286.5 228.5 "></path></clipPath><g clip-path="url(#clip-41161)"><path d="M 1.5 119.0 L 119.5 119.0 " fill="none" stroke="#52575F" stroke-width="1.00" stroke-dasharray="2.0, 2.0" transform="matrix(1.00, 0.00, 0.00, -1.00, 285.0, 348.0)"></path></g></g></g></g><g><clipPath id="clip-41162"><path d="M 286.5 346.5 L 404.5 346.5 L 404.5 192.5 L 286.5 192.5 Z M 286.5 346.5 "></path></clipPath><g clip-path="url(#clip-41162)"><g><clipPath id="clip-41163"><path d="M 286.5 219.5 L 404.5 219.5 L 404.5 220.5 L 286.5 220.5 Z M 286.5 219.5 "></path></clipPath><g clip-path="url(#clip-41163)"><path d="M 1.5 128.0 L 119.5 128.0 " fill="none" stroke="#52575F" stroke-width="1.00" stroke-dasharray="2.0, 2.0" transform="matrix(1.00, 0.00, 0.00, -1.00, 285.0, 348.0)"></path></g></g></g></g><g><clipPath id="clip-41164"><path d="M 286.5 346.5 L 404.5 346.5 L 404.5 192.5 L 286.5 192.5 Z M 286.5 346.5 "></path></clipPath><g clip-path="url(#clip-41164)"><g><clipPath id="clip-41165"><path d="M 286.5 210.5 L 404.5 210.5 L 404.5 211.5 L 286.5 211.5 Z M 286.5 210.5 "></path></clipPath><g clip-path="url(#clip-41165)"><path d="M 1.5 137.0 L 119.5 137.0 " fill="none" stroke="#52575F" stroke-width="1.00" stroke-dasharray="2.0, 2.0" transform="matrix(1.00, 0.00, 0.00, -1.00, 285.0, 348.0)"></path></g></g></g></g><g><clipPath id="clip-41166"><path d="M 286.5 346.5 L 404.5 346.5 L 404.5 192.5 L 286.5 192.5 Z M 286.5 346.5 "></path></clipPath><g clip-path="url(#clip-41166)"><g><clipPath id="clip-41167"><path d="M 286.5 201.5 L 404.5 201.5 L 404.5 202.5 L 286.5 202.5 Z M 286.5 201.5 "></path></clipPath><g clip-path="url(#clip-41167)"><path d="M 1.5 146.0 L 119.5 146.0 " fill="none" stroke="#52575F" stroke-width="1.00" stroke-dasharray="2.0, 2.0" transform="matrix(1.00, 0.00, 0.00, -1.00, 285.0, 348.0)"></path></g></g></g></g><g><clipPath id="clip-41168"><path d="M 286.5 346.5 L 404.5 346.5 L 404.5 192.5 L 286.5 192.5 Z M 286.5 346.5 "></path></clipPath><g clip-path="url(#clip-41168)"><path d="M 2.0 1.5 L 2.0 155.5 " fill="none" stroke="#FEFFFE" stroke-width="1.00" transform="matrix(1.00, 0.00, 0.00, -1.00, 285.0, 348.0)"></path><path d="M 119.0 1.5 L 119.0 155.5 " fill="none" stroke="#FEFFFF" stroke-width="1.00" transform="matrix(1.00, 0.00, 0.00, -1.00, 285.0, 348.0)"></path><path d="M 1.5 2.0 L 119.5 2.0 " fill="none" stroke="#FEFFFE" stroke-width="1.00" transform="matrix(1.00, 0.00, 0.00, -1.00, 285.0, 348.0)"></path><path d="M 1.5 155.0 L 119.5 155.0 " fill="none" stroke="#FEFFFE" stroke-width="1.00" transform="matrix(1.00, 0.00, 0.00, -1.00, 285.0, 348.0)"></path></g></g><image xlink:href="../../E032F876-E8E9-4C42-AF2C-93ED8E896D6C/assets/D59024D7C3C0809BAD52C011AF8FF8AD.png" width="12.00" height="10.00" transform="matrix(0.92, 0.00, -0.00, -1.00, 313.0, 257.0)"></image><image xlink:href="../../E032F876-E8E9-4C42-AF2C-93ED8E896D6C/assets/7BF868126371516F35EE24CF67107A29.png" width="12.00" height="11.00" transform="matrix(0.92, 0.00, -0.00, -0.91, 324.0, 257.0)"></image><image xlink:href="../../E032F876-E8E9-4C42-AF2C-93ED8E896D6C/assets/7BF868126371516F35EE24CF67107A29.png" width="12.00" height="11.00" transform="matrix(0.92, 0.00, -0.00, -0.91, 302.0, 257.0)"></image><path d="M 0.0 41.2 C 30.6 34.4 63.4 22.1 98.5 4.4 L 99.4 3.9 " fill="none" stroke="#000000" stroke-width="2.00" transform="matrix(1.00, 0.00, 0.00, -1.00, 178.2, 234.1)"></path><path d="M 278.9 225.4 L 285.3 234.1 L 274.6 234.0 Z M 278.9 225.4 " fill="#000000"></path><text xml:space="preserve" font-family="Helvetica-Light" font-size="36.0" fill="#000000" transform="matrix(1.00, 0.00, -0.00, -1.00, 216.0, 615.0)">W</text><text xml:space="preserve" font-family="Helvetica-Light" font-size="36.0" fill="#000000" transform="matrix(1.00, 0.00, -0.00, -1.00, 248.0, 615.0)">h</text><text xml:space="preserve" font-family="Helvetica-Light" font-size="36.0" fill="#000000" transform="matrix(1.00, 0.00, -0.00, -1.00, 268.0, 615.0)">a</text><text xml:space="preserve" font-family="Helvetica-Light" font-size="36.0" fill="#000000" transform="matrix(1.00, 0.00, -0.00, -1.00, 288.0, 615.0)">t</text><text xml:space="preserve" font-family="Helvetica-Light" font-size="36.0" fill="#000000" transform="matrix(1.00, 0.00, -0.00, -1.00, 298.0, 615.0)"> </text><text xml:space="preserve" font-family="Helvetica-Light" font-size="36.0" fill="#000000" transform="matrix(1.00, 0.00, -0.00, -1.00, 308.1, 615.0)">i</text><text xml:space="preserve" font-family="Helvetica-Light" font-size="36.0" fill="#000000" transform="matrix(1.00, 0.00, -0.00, -1.00, 316.0, 615.0)">f</text><text xml:space="preserve" font-family="Helvetica-Light" font-size="36.0" fill="#000000" transform="matrix(1.00, 0.00, -0.00, -1.00, 326.1, 615.0)"> </text><text xml:space="preserve" font-family="Helvetica-Light" font-size="36.0" fill="#000000" transform="matrix(1.00, 0.00, -0.00, -1.00, 336.1, 615.0)">y</text><text xml:space="preserve" font-family="Helvetica-Light" font-size="36.0" fill="#000000" transform="matrix(1.00, 0.00, -0.00, -1.00, 354.1, 615.0)">o</text><text xml:space="preserve" font-family="Helvetica-Light" font-size="36.0" fill="#000000" transform="matrix(1.00, 0.00, -0.00, -1.00, 374.1, 615.0)">u</text><text xml:space="preserve" font-family="Helvetica-Light" font-size="36.0" fill="#000000" transform="matrix(1.00, 0.00, -0.00, -1.00, 394.1, 615.0)"> </text><text xml:space="preserve" font-family="Helvetica-Light" font-size="36.0" fill="#000000" transform="matrix(1.00, 0.00, -0.00, -1.00, 404.1, 615.0)">h</text><text xml:space="preserve" font-family="Helvetica-Light" font-size="36.0" fill="#000000" transform="matrix(1.00, 0.00, -0.00, -1.00, 424.1, 615.0)">a</text><text xml:space="preserve" font-family="Helvetica-Light" font-size="36.0" fill="#000000" transform="matrix(1.00, 0.00, -0.00, -1.00, 444.1, 615.0)">v</text><text xml:space="preserve" font-family="Helvetica-Light" font-size="36.0" fill="#000000" transform="matrix(1.00, 0.00, -0.00, -1.00, 462.1, 615.0)">e</text><text xml:space="preserve" font-family="Helvetica-Light" font-size="36.0" fill="#000000" transform="matrix(1.00, 0.00, -0.00, -1.00, 482.1, 615.0)"> </text><text xml:space="preserve" font-family="Helvetica-Light" font-size="36.0" fill="#000000" transform="matrix(1.00, 0.00, -0.00, -1.00, 492.2, 615.0)">a</text><text xml:space="preserve" font-family="Helvetica-Light" font-size="36.0" fill="#000000" transform="matrix(1.00, 0.00, -0.00, -1.00, 512.2, 615.0)"> </text><text xml:space="preserve" font-family="Helvetica-Light" font-size="36.0" fill="#000000" transform="matrix(1.00, 0.00, -0.00, -1.00, 522.2, 615.0)">s</text><text xml:space="preserve" font-family="Helvetica-Light" font-size="36.0" fill="#000000" transform="matrix(1.00, 0.00, -0.00, -1.00, 540.2, 615.0)">e</text><text xml:space="preserve" font-family="Helvetica-Light" font-size="36.0" fill="#000000" transform="matrix(1.00, 0.00, -0.00, -1.00, 560.2, 615.0)">c</text><text xml:space="preserve" font-family="Helvetica-Light" font-size="36.0" fill="#000000" transform="matrix(1.00, 0.00, -0.00, -1.00, 580.2, 615.0)">o</text><text xml:space="preserve" font-family="Helvetica-Light" font-size="36.0" fill="#000000" transform="matrix(1.00, 0.00, -0.00, -1.00, 600.2, 615.0)">n</text><text xml:space="preserve" font-family="Helvetica-Light" font-size="36.0" fill="#000000" transform="matrix(1.00, 0.00, -0.00, -1.00, 620.2, 615.0)">d</text><text xml:space="preserve" font-family="Helvetica-Light" font-size="36.0" fill="#000000" transform="matrix(1.00, 0.00, -0.00, -1.00, 642.2, 615.0)">a</text><text xml:space="preserve" font-family="Helvetica-Light" font-size="36.0" fill="#000000" transform="matrix(1.00, 0.00, -0.00, -1.00, 662.3, 615.0)">r</text><text xml:space="preserve" font-family="Helvetica-Light" font-size="36.0" fill="#000000" transform="matrix(1.00, 0.00, -0.00, -1.00, 674.9, 615.0)">y</text><text xml:space="preserve" font-family="Helvetica-Light" font-size="36.0" fill="#000000" transform="matrix(1.00, 0.00, -0.00, -1.00, 692.9, 615.0)"> </text><text xml:space="preserve" font-family="Helvetica-Light" font-size="36.0" fill="#000000" transform="matrix(1.00, 0.00, -0.00, -1.00, 702.9, 615.0)">i</text><text xml:space="preserve" font-family="Helvetica-Light" font-size="36.0" fill="#000000" transform="matrix(1.00, 0.00, -0.00, -1.00, 710.9, 615.0)">n</text><text xml:space="preserve" font-family="Helvetica-Light" font-size="36.0" fill="#000000" transform="matrix(1.00, 0.00, -0.00, -1.00, 730.9, 615.0)">d</text><text xml:space="preserve" font-family="Helvetica-Light" font-size="36.0" fill="#000000" transform="matrix(1.00, 0.00, -0.00, -1.00, 752.9, 615.0)">e</text><text xml:space="preserve" font-family="Helvetica-Light" font-size="36.0" fill="#000000" transform="matrix(1.00, 0.00, -0.00, -1.00, 772.9, 615.0)">x</text><text xml:space="preserve" font-family="Helvetica-Light" font-size="36.0" fill="#000000" transform="matrix(1.00, 0.00, -0.00, -1.00, 790.9, 615.0)">?</text><path d="M 0.0 0.0 L 218.0 0.0 L 219.0 0.0 " fill="none" stroke="#000000" stroke-width="2.00" transform="matrix(-0.94, 0.34, 0.34, 0.94, 633.4, 403.4)"></path><path d="M 430.3 483.0 L 419.7 481.8 L 427.0 473.9 Z M 430.3 483.0 " fill="#000000"></path><path d="M 0.0 0.0 L 234.7 0.0 L 235.7 0.0 " fill="none" stroke="#000000" stroke-width="2.00" transform="matrix(-0.87, -0.49, -0.49, 0.87, 633.2, 386.4)"></path><path d="M 425.7 276.8 L 419.6 267.9 L 430.4 268.4 Z M 425.7 276.8 " fill="#000000"></path><path d="M 24.1 111.3 L 23.4 110.6 C -8.5 74.5 -7.8 39.9 25.5 6.6 L 26.2 5.9 " fill="none" stroke="#164E86" stroke-width="2.00" stroke-dasharray="2.0, 2.0" transform="matrix(1.00, 0.00, 0.00, -1.00, 467.0, 444.8)"></path><path d="M 495.8 434.7 L 499.5 444.8 L 489.2 441.7 Z M 495.8 434.7 " fill="#164E86"></path><path d="M 486.9 330.9 L 497.0 327.2 L 493.9 337.5 Z M 486.9 330.9 " fill="#164E86"></path><g><clipPath id="clip-41169"><path d="M 964.4 365.7 C 983.9 357.6 983.9 344.4 964.4 336.2 C 944.9 328.1 913.2 328.1 893.7 336.2 C 874.2 344.4 874.2 357.6 893.7 365.7 C 913.2 373.8 944.9 373.8 964.4 365.7 Z M 964.4 365.7 "></path></clipPath><g clip-path="url(#clip-41169)"><image xlink:href="../../E032F876-E8E9-4C42-AF2C-93ED8E896D6C/assets/AFF4D1F361AD28AA82012E14045EB299.jpeg" width="128.00" height="128.00" transform="matrix(1.00, 0.00, -0.00, -1.00, 879.1, 371.8)"></image><path d="M 879.1 371.8 L 979.1 371.8 L 979.1 330.1 L 879.1 330.1 Z M 879.1 371.8 " fill="#1093A4" fill-opacity="0.85"></path></g></g><g><clipPath id="clip-41170"><path d="M 879.1 449.0 L 979.1 449.0 L 979.1 349.0 L 879.1 349.0 Z M 879.1 449.0 "></path></clipPath><g clip-path="url(#clip-41170)"><image xlink:href="../../E032F876-E8E9-4C42-AF2C-93ED8E896D6C/assets/AFF4D1F361AD28AA82012E14045EB299.jpeg" width="128.00" height="128.00" transform="matrix(1.00, 0.00, -0.00, -1.00, 879.1, 449.0)"></image><path d="M 879.1 449.0 L 979.1 449.0 L 979.1 349.0 L 879.1 349.0 Z M 879.1 449.0 " fill="#1093A4" fill-opacity="0.85"></path></g></g><g><clipPath id="clip-41171"><path d="M 964.4 459.3 C 983.9 451.2 983.9 438.0 964.4 429.8 C 944.9 421.7 913.2 421.7 893.7 429.8 C 874.2 438.0 874.2 451.2 893.7 459.3 C 913.2 467.4 944.9 467.4 964.4 459.3 Z M 964.4 459.3 "></path></clipPath><g clip-path="url(#clip-41171)"><image xlink:href="../../E032F876-E8E9-4C42-AF2C-93ED8E896D6C/assets/AFF4D1F361AD28AA82012E14045EB299.jpeg" width="128.00" height="128.00" transform="matrix(1.00, 0.00, -0.00, -1.00, 879.1, 465.4)"></image><path d="M 879.1 465.4 L 979.1 465.4 L 979.1 423.7 L 879.1 423.7 Z M 879.1 465.4 " fill="#1093A4" fill-opacity="0.85"></path></g></g><path d="M 85.4 6.1 C 104.9 14.2 104.9 27.4 85.4 35.6 C 65.8 43.7 34.2 43.7 14.6 35.6 C -4.9 27.4 -4.9 14.2 14.6 6.1 C 34.2 -2.0 65.8 -2.0 85.4 6.1 Z M 85.4 6.1 " fill="none" stroke="#A6AAA8" stroke-width="1.00" transform="matrix(1.00, 0.00, 0.00, -1.00, 879.1, 465.4)"></path><image xlink:href="2D90AF040FE978F680BA77B12D7466AB.png" width="47.00" height="47.00" transform="matrix(0.98, 0.00, -0.00, -1.00, 906.0, 421.0)"></image><image xlink:href="BCA1C28B2C90C368BD33849567C32DD8.png" width="73.00" height="27.00" transform="matrix(1.00, 0.00, -0.00, -1.04, 894.0, 375.0)"></image><text xml:space="preserve" font-family="Helvetica-Light" font-size="36.0" fill="#000000" transform="matrix(1.00, 0.00, -0.00, -1.00, 810.0, 384.0)">?</text><path d="M 0.0 0.0 C 15.8 0.1 31.5 0.1 47.3 0.2 L 48.3 0.2 " fill="none" stroke="#000000" stroke-width="2.00" stroke-dasharray="2.0, 2.0" transform="matrix(1.00, 0.00, 0.00, -1.00, 748.4, 397.8)"></path><path d="M 795.6 392.8 L 805.3 397.5 L 795.7 402.4 Z M 795.6 392.8 " fill="#000000"></path><path d="M 0.0 0.6 C 12.4 0.5 24.8 0.3 37.2 0.1 L 38.2 0.1 " fill="none" stroke="#000000" stroke-width="2.00" stroke-dasharray="2.0, 2.0" transform="matrix(1.00, 0.00, 0.00, -1.00, 832.3, 398.3)"></path><path d="M 869.5 393.4 L 879.1 398.3 L 869.4 403.0 Z M 869.5 393.4 " fill="#000000"></path><text xml:space="preserve" font-family="Arial-BoldMT" font-weight="bold" font-size="36.0" fill="#000000" transform="matrix(1.00, 0.00, -0.00, -1.00, 224.0, 719.0)">H</text><text xml:space="preserve" font-family="Arial-BoldMT" font-weight="bold" font-size="36.0" fill="#000000" transform="matrix(1.00, 0.00, -0.00, -1.00, 250.0, 719.0)">y</text><text xml:space="preserve" font-family="Arial-BoldMT" font-weight="bold" font-size="36.0" fill="#000000" transform="matrix(1.00, 0.00, -0.00, -1.00, 270.0, 719.0)">p</text><text xml:space="preserve" font-family="Arial-BoldMT" font-weight="bold" font-size="36.0" fill="#000000" transform="matrix(1.00, 0.00, -0.00, -1.00, 292.0, 719.0)">o</text><text xml:space="preserve" font-family="Arial-BoldMT" font-weight="bold" font-size="36.0" fill="#000000" transform="matrix(1.00, 0.00, -0.00, -1.00, 314.0, 719.0)">t</text><text xml:space="preserve" font-family="Arial-BoldMT" font-weight="bold" font-size="36.0" fill="#000000" transform="matrix(1.00, 0.00, -0.00, -1.00, 326.0, 719.0)">h</text><text xml:space="preserve" font-family="Arial-BoldMT" font-weight="bold" font-size="36.0" fill="#000000" transform="matrix(1.00, 0.00, -0.00, -1.00, 348.0, 719.0)">e</text><text xml:space="preserve" font-family="Arial-BoldMT" font-weight="bold" font-size="36.0" fill="#000000" transform="matrix(1.00, 0.00, -0.00, -1.00, 368.0, 719.0)">t</text><text xml:space="preserve" font-family="Arial-BoldMT" font-weight="bold" font-size="36.0" fill="#000000" transform="matrix(1.00, 0.00, -0.00, -1.00, 380.0, 719.0)">i</text><text xml:space="preserve" font-family="Arial-BoldMT" font-weight="bold" font-size="36.0" fill="#000000" transform="matrix(1.00, 0.00, -0.00, -1.00, 390.0, 719.0)">c</text><text xml:space="preserve" font-family="Arial-BoldMT" font-weight="bold" font-size="36.0" fill="#000000" transform="matrix(1.00, 0.00, -0.00, -1.00, 410.0, 719.0)">a</text><text xml:space="preserve" font-family="Arial-BoldMT" font-weight="bold" font-size="36.0" fill="#000000" transform="matrix(1.00, 0.00, -0.00, -1.00, 430.0, 719.0)">l</text><text xml:space="preserve" font-family="Arial-BoldMT" font-weight="bold" font-size="36.0" fill="#000000" transform="matrix(1.00, 0.00, -0.00, -1.00, 440.0, 719.0)">:</text><text xml:space="preserve" font-family="Arial-BoldMT" font-weight="bold" font-size="36.0" fill="#000000" transform="matrix(1.00, 0.00, -0.00, -1.00, 452.0, 719.0)"> </text><text xml:space="preserve" font-family="Arial-BoldMT" font-weight="bold" font-size="36.0" fill="#000000" transform="matrix(1.00, 0.00, -0.00, -1.00, 462.0, 719.0)">R</text><text xml:space="preserve" font-family="Arial-BoldMT" font-weight="bold" font-size="36.0" fill="#000000" transform="matrix(1.00, 0.00, -0.00, -1.00, 488.0, 719.0)">a</text><text xml:space="preserve" font-family="Arial-BoldMT" font-weight="bold" font-size="36.0" fill="#000000" transform="matrix(1.00, 0.00, -0.00, -1.00, 508.1, 719.0)">w</text><text xml:space="preserve" font-family="Arial-BoldMT" font-weight="bold" font-size="36.0" fill="#000000" transform="matrix(1.00, 0.00, -0.00, -1.00, 536.0, 719.0)"> </text><text xml:space="preserve" font-family="Arial-BoldMT" font-weight="bold" font-size="36.0" fill="#000000" transform="matrix(1.00, 0.00, -0.00, -1.00, 546.0, 719.0)">R</text><text xml:space="preserve" font-family="Arial-BoldMT" font-weight="bold" font-size="36.0" fill="#000000" transform="matrix(1.00, 0.00, -0.00, -1.00, 572.0, 719.0)">D</text><text xml:space="preserve" font-family="Arial-BoldMT" font-weight="bold" font-size="36.0" fill="#000000" transform="matrix(1.00, 0.00, -0.00, -1.00, 598.1, 719.0)">B</text><text xml:space="preserve" font-family="Arial-BoldMT" font-weight="bold" font-size="36.0" fill="#000000" transform="matrix(1.00, 0.00, -0.00, -1.00, 624.1, 719.0)">M</text><text xml:space="preserve" font-family="Arial-BoldMT" font-weight="bold" font-size="36.0" fill="#000000" transform="matrix(1.00, 0.00, -0.00, -1.00, 654.0, 719.0)">S</text><text xml:space="preserve" font-family="Arial-BoldMT" font-weight="bold" font-size="36.0" fill="#000000" transform="matrix(1.00, 0.00, -0.00, -1.00, 678.1, 719.0)"> </text><text xml:space="preserve" font-family="Arial-BoldMT" font-weight="bold" font-size="36.0" fill="#000000" transform="matrix(1.00, 0.00, -0.00, -1.00, 688.1, 719.0)">T</text><text xml:space="preserve" font-family="Arial-BoldMT" font-weight="bold" font-size="36.0" fill="#000000" transform="matrix(1.00, 0.00, -0.00, -1.00, 707.4, 719.0)">a</text><text xml:space="preserve" font-family="Arial-BoldMT" font-weight="bold" font-size="36.0" fill="#000000" transform="matrix(1.00, 0.00, -0.00, -1.00, 727.4, 719.0)">b</text><text xml:space="preserve" font-family="Arial-BoldMT" font-weight="bold" font-size="36.0" fill="#000000" transform="matrix(1.00, 0.00, -0.00, -1.00, 749.4, 719.0)">l</text><text xml:space="preserve" font-family="Arial-BoldMT" font-weight="bold" font-size="36.0" fill="#000000" transform="matrix(1.00, 0.00, -0.00, -1.00, 759.4, 719.0)">e</text><text xml:space="preserve" font-family="Arial-BoldMT" font-weight="bold" font-size="36.0" fill="#000000" transform="matrix(1.00, 0.00, -0.00, -1.00, 779.4, 719.0)">s</text><text xml:space="preserve" font-family="LucidaGrande-Bold" font-weight="bold" font-size="36.0" fill="#000000" transform="matrix(1.00, 0.00, -0.00, -1.00, 799.4, 719.0)"></text><text xml:space="preserve" font-family="Arial-BoldMT" font-weight="bold" font-size="36.0" fill="#000000" transform="matrix(1.00, 0.00, -0.00, -1.00, 399.0, 677.0)">i</text><text xml:space="preserve" font-family="Arial-BoldMT" font-weight="bold" font-size="36.0" fill="#000000" transform="matrix(1.00, 0.00, -0.00, -1.00, 409.0, 677.0)">n</text><text xml:space="preserve" font-family="Arial-BoldMT" font-weight="bold" font-size="36.0" fill="#000000" transform="matrix(1.00, 0.00, -0.00, -1.00, 431.0, 677.0)"> </text><text xml:space="preserve" font-family="Arial-BoldMT" font-weight="bold" font-size="36.0" fill="#000000" transform="matrix(1.00, 0.00, -0.00, -1.00, 441.0, 677.0)">h</text><text xml:space="preserve" font-family="Arial-BoldMT" font-weight="bold" font-size="36.0" fill="#000000" transform="matrix(1.00, 0.00, -0.00, -1.00, 463.0, 677.0)">y</text><text xml:space="preserve" font-family="Arial-BoldMT" font-weight="bold" font-size="36.0" fill="#000000" transform="matrix(1.00, 0.00, -0.00, -1.00, 483.0, 677.0)">p</text><text xml:space="preserve" font-family="Arial-BoldMT" font-weight="bold" font-size="36.0" fill="#000000" transform="matrix(1.00, 0.00, -0.00, -1.00, 505.0, 677.0)">e</text><text xml:space="preserve" font-family="Arial-BoldMT" font-weight="bold" font-size="36.0" fill="#000000" transform="matrix(1.00, 0.00, -0.00, -1.00, 525.0, 677.0)">r</text><text xml:space="preserve" font-family="Arial-BoldMT" font-weight="bold" font-size="36.0" fill="#000000" transform="matrix(1.00, 0.00, -0.00, -1.00, 539.0, 677.0)">d</text><text xml:space="preserve" font-family="Arial-BoldMT" font-weight="bold" font-size="36.0" fill="#000000" transform="matrix(1.00, 0.00, -0.00, -1.00, 561.0, 677.0)">r</text><text xml:space="preserve" font-family="Arial-BoldMT" font-weight="bold" font-size="36.0" fill="#000000" transform="matrix(1.00, 0.00, -0.00, -1.00, 575.0, 677.0)">i</text><text xml:space="preserve" font-family="Arial-BoldMT" font-weight="bold" font-size="36.0" fill="#000000" transform="matrix(1.00, 0.00, -0.00, -1.00, 585.0, 677.0)">v</text><text xml:space="preserve" font-family="Arial-BoldMT" font-weight="bold" font-size="36.0" fill="#000000" transform="matrix(1.00, 0.00, -0.00, -1.00, 605.0, 677.0)">e</text></g></svg>