<?xml version="1.0" encoding="UTF-8" standalone="no"?><svg xmlns="http://www.w3.org/2000/svg" xmlns:xlink="http://www.w3.org/1999/xlink" clip-rule="evenodd" stroke-miterlimit="4.00" viewBox="0 0 1024 768"><desc>SVG generated by Keynote</desc><defs><pattern id="9B8FAE7C-5A16-4A07-95EC-5FE83BDC7A82" patternUnits="userSpaceOnUse" width="327" height="327" viewBox="0 0 327 327" patternTransform="matrix(0.917431, 0.000000, 0.000000, -0.917431, 626.736400, 421.824600)"><image xlink:href="../../5D17066C-F2D4-43E1-B102-79E70149F52B/assets/C64658A6708B486A1AF0D79460CDFD00.jpeg" width="327.00" height="327.00"></image></pattern><pattern id="9B7AEA22-5590-4104-AA57-97644149A426" patternUnits="userSpaceOnUse" width="327" height="327" viewBox="0 0 327 327" patternTransform="matrix(0.917431, 0.000000, 0.000000, -0.917431, 626.736400, 377.518200)"><image xlink:href="../../5D17066C-F2D4-43E1-B102-79E70149F52B/assets/C64658A6708B486A1AF0D79460CDFD00.jpeg" width="327.00" height="327.00"></image></pattern><pattern id="29BB320F-83E9-4C46-A315-D3760C0EEE22" patternUnits="userSpaceOnUse" width="327" height="327" viewBox="0 0 327 327" patternTransform="matrix(0.917431, 0.000000, 0.000000, -0.917431, 626.736400, 332.935000)"><image xlink:href="../../5D17066C-F2D4-43E1-B102-79E70149F52B/assets/C64658A6708B486A1AF0D79460CDFD00.jpeg" width="327.00" height="327.00"></image></pattern></defs><g transform="matrix(1.00, 0.00, -0.00, -1.00, 0.0, 768.0)"><path d="M 0.0 768.0 L 1024.0 768.0 L 1024.0 0.0 L 0.0 0.0 Z M 0.0 768.0 " fill="#FEFFFF"></path><image xlink:href="../../9EE250DD-DF82-4EDA-99D3-D311E4B07C3F/assets/1621812B442A1F07D1509B50AD43F59F.png" width="194.00" height="76.00" transform="matrix(1.00, 0.00, -0.00, -1.00, 68.1, 468.2)" opacity="0.50"></image><g><clipPath id="clip-1380"><path d="M 71.1 467.2 L 259.6 467.2 L 259.6 397.2 L 71.1 397.2 Z M 71.1 467.2 "></path></clipPath><g clip-path="url(#clip-1380)"><image xlink:href="../../5D17066C-F2D4-43E1-B102-79E70149F52B/assets/C64658A6708B486A1AF0D79460CDFD00.jpeg" width="327.00" height="327.00" transform="matrix(0.92, 0.00, -0.00, -0.92, 71.1, 467.2)"></image><path d="M 71.1 467.2 L 259.6 467.2 L 259.6 397.2 L 71.1 397.2 Z M 71.1 467.2 " fill="#CD9E01"></path></g></g><g><clipPath id="clip-1381"><path d="M 69.1 397.2 L 261.6 397.2 L 261.6 467.2 L 69.1 467.2 Z M 69.1 397.2 "></path></clipPath><g clip-path="url(#clip-1381)"><text xml:space="preserve" font-family="Helvetica-Light" font-size="24.0" fill="#FEFFFE" transform="matrix(1.00, 0.00, -0.00, -1.00, 103.0, 423.0)">ﬁ</text><text xml:space="preserve" font-family="Helvetica-Light" font-size="24.0" fill="#FEFFFE" transform="matrix(1.00, 0.00, -0.00, -1.00, 115.0, 423.0)">r</text><text xml:space="preserve" font-family="Helvetica-Light" font-size="24.0" fill="#FEFFFE" transform="matrix(1.00, 0.00, -0.00, -1.00, 123.0, 423.0)">s</text><text xml:space="preserve" font-family="Helvetica-Light" font-size="24.0" fill="#FEFFFE" transform="matrix(1.00, 0.00, -0.00, -1.00, 135.0, 423.0)">t</text><text xml:space="preserve" font-family="Helvetica-Light" font-size="24.0" fill="#FEFFFE" transform="matrix(1.00, 0.00, -0.00, -1.00, 141.7, 423.0)"> </text><text xml:space="preserve" font-family="Helvetica-Light" font-size="24.0" fill="#FEFFFE" transform="matrix(1.00, 0.00, -0.00, -1.00, 148.3, 423.0)">c</text><text xml:space="preserve" font-family="Helvetica-Light" font-size="24.0" fill="#FEFFFE" transform="matrix(1.00, 0.00, -0.00, -1.00, 161.7, 423.0)">o</text><text xml:space="preserve" font-family="Helvetica-Light" font-size="24.0" fill="#FEFFFE" transform="matrix(1.00, 0.00, -0.00, -1.00, 175.0, 423.0)">m</text><text xml:space="preserve" font-family="Helvetica-Light" font-size="24.0" fill="#FEFFFE" transform="matrix(1.00, 0.00, -0.00, -1.00, 195.0, 423.0)">m</text><text xml:space="preserve" font-family="Helvetica-Light" font-size="24.0" fill="#FEFFFE" transform="matrix(1.00, 0.00, -0.00, -1.00, 215.0, 423.0)">i</text><text xml:space="preserve" font-family="Helvetica-Light" font-size="24.0" fill="#FEFFFE" transform="matrix(1.00, 0.00, -0.00, -1.00, 220.3, 423.0)">t</text></g></g><path d="M 0.0 0.0 L 89.2 0.0 L 90.2 0.0 " fill="none" stroke="#85878C" stroke-width="2.00" transform="matrix(1.00, 0.00, 0.00, -1.00, 262.8, 429.6)"></path><path d="M 352.0 424.8 L 361.6 429.6 L 352.0 434.4 Z M 352.0 424.8 " fill="#85878C"></path><text xml:space="preserve" font-family="Helvetica-Bold" font-weight="bold" font-size="36.0" fill="#000000" transform="matrix(1.00, 0.00, -0.00, -1.00, 418.0, 689.0)">T</text><text xml:space="preserve" font-family="Helvetica-Bold" font-weight="bold" font-size="36.0" fill="#000000" transform="matrix(1.00, 0.00, -0.00, -1.00, 440.0, 689.0)">h</text><text xml:space="preserve" font-family="Helvetica-Bold" font-weight="bold" font-size="36.0" fill="#000000" transform="matrix(1.00, 0.00, -0.00, -1.00, 462.0, 689.0)">e</text><text xml:space="preserve" font-family="Helvetica-Bold" font-weight="bold" font-size="36.0" fill="#000000" transform="matrix(1.00, 0.00, -0.00, -1.00, 482.0, 689.0)"> </text><text xml:space="preserve" font-family="Helvetica-Bold" font-weight="bold" font-size="36.0" fill="#000000" transform="matrix(1.00, 0.00, -0.00, -1.00, 492.0, 689.0)">P</text><text xml:space="preserve" font-family="Helvetica-Bold" font-weight="bold" font-size="36.0" fill="#000000" transform="matrix(1.00, 0.00, -0.00, -1.00, 516.0, 689.0)">i</text><text xml:space="preserve" font-family="Helvetica-Bold" font-weight="bold" font-size="36.0" fill="#000000" transform="matrix(1.00, 0.00, -0.00, -1.00, 526.0, 689.0)">e</text><text xml:space="preserve" font-family="Helvetica-Bold" font-weight="bold" font-size="36.0" fill="#000000" transform="matrix(1.00, 0.00, -0.00, -1.00, 546.0, 689.0)">c</text><text xml:space="preserve" font-family="Helvetica-Bold" font-weight="bold" font-size="36.0" fill="#000000" transform="matrix(1.00, 0.00, -0.00, -1.00, 566.1, 689.0)">e</text><text xml:space="preserve" font-family="Helvetica-Bold" font-weight="bold" font-size="36.0" fill="#000000" transform="matrix(1.00, 0.00, -0.00, -1.00, 586.1, 689.0)">s</text><image xlink:href="../../520DCE23-8738-41B8-8C88-1E40DCCD5D31/assets/5CFD9EE5E8C93CD56FFE2938363E0194.png" width="125.00" height="76.00" transform="matrix(1.00, 0.00, -0.00, -1.00, 361.8, 468.5)" opacity="0.50"></image><g><clipPath id="clip-1382"><path d="M 364.8 467.5 L 484.2 467.5 L 484.2 397.5 L 364.8 397.5 Z M 364.8 467.5 "></path></clipPath><g clip-path="url(#clip-1382)"><image xlink:href="../../5D17066C-F2D4-43E1-B102-79E70149F52B/assets/C64658A6708B486A1AF0D79460CDFD00.jpeg" width="327.00" height="327.00" transform="matrix(0.92, 0.00, -0.00, -0.92, 364.8, 467.5)"></image><path d="M 364.8 467.5 L 484.2 467.5 L 484.2 397.5 L 364.8 397.5 Z M 364.8 467.5 " fill="#178996"></path></g></g><g><clipPath id="clip-1383"><path d="M 362.8 397.5 L 486.2 397.5 L 486.2 467.5 L 362.8 467.5 Z M 362.8 397.5 "></path></clipPath><g clip-path="url(#clip-1383)"><text xml:space="preserve" font-family="Helvetica-Light" font-size="24.0" fill="#FEFFFE" transform="matrix(1.00, 0.00, -0.00, -1.00, 398.0, 423.0)">t</text><text xml:space="preserve" font-family="Helvetica-Light" font-size="24.0" fill="#FEFFFE" transform="matrix(1.00, 0.00, -0.00, -1.00, 404.7, 423.0)">a</text><text xml:space="preserve" font-family="Helvetica-Light" font-size="24.0" fill="#FEFFFE" transform="matrix(1.00, 0.00, -0.00, -1.00, 418.0, 423.0)">b</text><text xml:space="preserve" font-family="Helvetica-Light" font-size="24.0" fill="#FEFFFE" transform="matrix(1.00, 0.00, -0.00, -1.00, 432.7, 423.0)">l</text><text xml:space="preserve" font-family="Helvetica-Light" font-size="24.0" fill="#FEFFFE" transform="matrix(1.00, 0.00, -0.00, -1.00, 438.0, 423.0)">e</text></g></g><image xlink:href="../../5D17066C-F2D4-43E1-B102-79E70149F52B/assets/A02F8CE389C8307E65E0E2D0AE0A432A.png" width="332.00" height="43.00" transform="matrix(1.00, 0.00, -0.00, -1.00, 623.7, 422.8)" opacity="0.50"></image><g><clipPath id="clip-1384"><path d="M 626.7 421.8 L 952.9 421.8 L 952.9 384.8 L 626.7 384.8 Z M 626.7 421.8 "></path></clipPath><g clip-path="url(#clip-1384)"><path d="M 626.7 384.8 L 952.9 384.8 L 952.9 421.8 L 626.7 421.8 Z M 626.7 384.8 " fill="url(#9B8FAE7C-5A16-4A07-95EC-5FE83BDC7A82)"></path><path d="M 626.7 421.8 L 952.9 421.8 L 952.9 384.8 L 626.7 384.8 Z M 626.7 421.8 " fill="#E1E0D8"></path></g></g><g><clipPath id="clip-1385"><path d="M 624.7 382.8 L 954.9 382.8 L 954.9 423.8 L 624.7 423.8 Z M 624.7 382.8 "></path></clipPath><g clip-path="url(#clip-1385)"><text xml:space="preserve" font-family="Helvetica-Light" font-size="24.0" fill="#52575F" transform="matrix(1.00, 0.00, -0.00, -1.00, 658.0, 394.0)">{</text><text xml:space="preserve" font-family="Helvetica-Light" font-size="24.0" fill="#52575F" transform="matrix(1.00, 0.00, -0.00, -1.00, 666.0, 394.0)">n</text><text xml:space="preserve" font-family="Helvetica-Light" font-size="24.0" fill="#52575F" transform="matrix(1.00, 0.00, -0.00, -1.00, 679.3, 394.0)">a</text><text xml:space="preserve" font-family="Helvetica-Light" font-size="24.0" fill="#52575F" transform="matrix(1.00, 0.00, -0.00, -1.00, 692.7, 394.0)">m</text><text xml:space="preserve" font-family="Helvetica-Light" font-size="24.0" fill="#52575F" transform="matrix(1.00, 0.00, -0.00, -1.00, 712.7, 394.0)">e</text><text xml:space="preserve" font-family="Helvetica-Light" font-size="24.0" fill="#52575F" transform="matrix(1.00, 0.00, -0.00, -1.00, 726.0, 394.0)">:</text><text xml:space="preserve" font-family="Helvetica-Light" font-size="24.0" fill="#52575F" transform="matrix(1.00, 0.00, -0.00, -1.00, 732.7, 394.0)"> </text><text xml:space="preserve" font-family="Helvetica-Light" font-size="24.0" fill="#52575F" transform="matrix(1.00, 0.00, -0.00, -1.00, 739.4, 394.0)">“</text><text xml:space="preserve" font-family="Helvetica-Light" font-size="24.0" fill="#52575F" transform="matrix(1.00, 0.00, -0.00, -1.00, 748.7, 394.0)">M</text><text xml:space="preserve" font-family="Helvetica-Light" font-size="24.0" fill="#52575F" transform="matrix(1.00, 0.00, -0.00, -1.00, 768.7, 394.0)">a</text><text xml:space="preserve" font-family="Helvetica-Light" font-size="24.0" fill="#52575F" transform="matrix(1.00, 0.00, -0.00, -1.00, 782.0, 394.0)">r</text><text xml:space="preserve" font-family="Helvetica-Light" font-size="24.0" fill="#52575F" transform="matrix(1.00, 0.00, -0.00, -1.00, 790.0, 394.0)">i</text><text xml:space="preserve" font-family="Helvetica-Light" font-size="24.0" fill="#52575F" transform="matrix(1.00, 0.00, -0.00, -1.00, 795.4, 394.0)">a</text><text xml:space="preserve" font-family="Helvetica-Light" font-size="24.0" fill="#52575F" transform="matrix(1.00, 0.00, -0.00, -1.00, 808.7, 394.0)">”</text><text xml:space="preserve" font-family="Helvetica-Light" font-size="24.0" fill="#52575F" transform="matrix(1.00, 0.00, -0.00, -1.00, 818.0, 394.0)">,</text><text xml:space="preserve" font-family="Helvetica-Light" font-size="24.0" fill="#52575F" transform="matrix(1.00, 0.00, -0.00, -1.00, 824.7, 394.0)"> </text><text xml:space="preserve" font-family="Helvetica-Light" font-size="24.0" fill="#52575F" transform="matrix(1.00, 0.00, -0.00, -1.00, 831.4, 394.0)">a</text><text xml:space="preserve" font-family="Helvetica-Light" font-size="24.0" fill="#52575F" transform="matrix(1.00, 0.00, -0.00, -1.00, 844.7, 394.0)">g</text><text xml:space="preserve" font-family="Helvetica-Light" font-size="24.0" fill="#52575F" transform="matrix(1.00, 0.00, -0.00, -1.00, 859.4, 394.0)">e</text><text xml:space="preserve" font-family="Helvetica-Light" font-size="24.0" fill="#52575F" transform="matrix(1.00, 0.00, -0.00, -1.00, 872.7, 394.0)">:</text><text xml:space="preserve" font-family="Helvetica-Light" font-size="24.0" fill="#52575F" transform="matrix(1.00, 0.00, -0.00, -1.00, 879.4, 394.0)"> </text><text xml:space="preserve" font-family="Helvetica-Light" font-size="24.0" fill="#52575F" transform="matrix(1.00, 0.00, -0.00, -1.00, 886.1, 394.0)">2</text><text xml:space="preserve" font-family="Helvetica-Light" font-size="24.0" fill="#52575F" transform="matrix(1.00, 0.00, -0.00, -1.00, 899.4, 394.0)">4</text><text xml:space="preserve" font-family="Helvetica-Light" font-size="24.0" fill="#52575F" transform="matrix(1.00, 0.00, -0.00, -1.00, 912.8, 394.0)">}</text></g></g><image xlink:href="../../5D17066C-F2D4-43E1-B102-79E70149F52B/assets/A02F8CE389C8307E65E0E2D0AE0A432A.png" width="332.00" height="43.00" transform="matrix(1.00, 0.00, -0.00, -1.00, 623.7, 378.5)" opacity="0.50"></image><g><clipPath id="clip-1386"><path d="M 626.7 377.5 L 952.9 377.5 L 952.9 340.5 L 626.7 340.5 Z M 626.7 377.5 "></path></clipPath><g clip-path="url(#clip-1386)"><path d="M 626.7 340.5 L 952.9 340.5 L 952.9 377.5 L 626.7 377.5 Z M 626.7 340.5 " fill="url(#9B7AEA22-5590-4104-AA57-97644149A426)"></path><path d="M 626.7 377.5 L 952.9 377.5 L 952.9 340.5 L 626.7 340.5 Z M 626.7 377.5 " fill="#E1E0D8"></path></g></g><g><clipPath id="clip-1387"><path d="M 624.7 338.5 L 954.9 338.5 L 954.9 379.5 L 624.7 379.5 Z M 624.7 338.5 "></path></clipPath><g clip-path="url(#clip-1387)"><text xml:space="preserve" font-family="Helvetica-Light" font-size="24.0" fill="#52575F" transform="matrix(1.00, 0.00, -0.00, -1.00, 668.0, 350.0)">{</text><text xml:space="preserve" font-family="Helvetica-Light" font-size="24.0" fill="#52575F" transform="matrix(1.00, 0.00, -0.00, -1.00, 676.0, 350.0)">n</text><text xml:space="preserve" font-family="Helvetica-Light" font-size="24.0" fill="#52575F" transform="matrix(1.00, 0.00, -0.00, -1.00, 689.3, 350.0)">a</text><text xml:space="preserve" font-family="Helvetica-Light" font-size="24.0" fill="#52575F" transform="matrix(1.00, 0.00, -0.00, -1.00, 702.7, 350.0)">m</text><text xml:space="preserve" font-family="Helvetica-Light" font-size="24.0" fill="#52575F" transform="matrix(1.00, 0.00, -0.00, -1.00, 722.7, 350.0)">e</text><text xml:space="preserve" font-family="Helvetica-Light" font-size="24.0" fill="#52575F" transform="matrix(1.00, 0.00, -0.00, -1.00, 736.0, 350.0)">:</text><text xml:space="preserve" font-family="Helvetica-Light" font-size="24.0" fill="#52575F" transform="matrix(1.00, 0.00, -0.00, -1.00, 742.7, 350.0)"> </text><text xml:space="preserve" font-family="Helvetica-Light" font-size="24.0" fill="#52575F" transform="matrix(1.00, 0.00, -0.00, -1.00, 749.4, 350.0)">“</text><text xml:space="preserve" font-family="Helvetica-Light" font-size="24.0" fill="#52575F" transform="matrix(1.00, 0.00, -0.00, -1.00, 758.7, 350.0)">A</text><text xml:space="preserve" font-family="Helvetica-Light" font-size="24.0" fill="#52575F" transform="matrix(1.00, 0.00, -0.00, -1.00, 774.7, 350.0)">t</text><text xml:space="preserve" font-family="Helvetica-Light" font-size="24.0" fill="#52575F" transform="matrix(1.00, 0.00, -0.00, -1.00, 781.4, 350.0)">u</text><text xml:space="preserve" font-family="Helvetica-Light" font-size="24.0" fill="#52575F" transform="matrix(1.00, 0.00, -0.00, -1.00, 794.7, 350.0)">l</text><text xml:space="preserve" font-family="Helvetica-Light" font-size="24.0" fill="#52575F" transform="matrix(1.00, 0.00, -0.00, -1.00, 800.0, 350.0)">”</text><text xml:space="preserve" font-family="Helvetica-Light" font-size="24.0" fill="#52575F" transform="matrix(1.00, 0.00, -0.00, -1.00, 809.4, 350.0)">,</text><text xml:space="preserve" font-family="Helvetica-Light" font-size="24.0" fill="#52575F" transform="matrix(1.00, 0.00, -0.00, -1.00, 816.1, 350.0)"> </text><text xml:space="preserve" font-family="Helvetica-Light" font-size="24.0" fill="#52575F" transform="matrix(1.00, 0.00, -0.00, -1.00, 822.7, 350.0)">a</text><text xml:space="preserve" font-family="Helvetica-Light" font-size="24.0" fill="#52575F" transform="matrix(1.00, 0.00, -0.00, -1.00, 836.1, 350.0)">g</text><text xml:space="preserve" font-family="Helvetica-Light" font-size="24.0" fill="#52575F" transform="matrix(1.00, 0.00, -0.00, -1.00, 850.7, 350.0)">e</text><text xml:space="preserve" font-family="Helvetica-Light" font-size="24.0" fill="#52575F" transform="matrix(1.00, 0.00, -0.00, -1.00, 864.1, 350.0)">:</text><text xml:space="preserve" font-family="Helvetica-Light" font-size="24.0" fill="#52575F" transform="matrix(1.00, 0.00, -0.00, -1.00, 870.8, 350.0)"> </text><text xml:space="preserve" font-family="Helvetica-Light" font-size="24.0" fill="#52575F" transform="matrix(1.00, 0.00, -0.00, -1.00, 877.4, 350.0)">4</text><text xml:space="preserve" font-family="Helvetica-Light" font-size="24.0" fill="#52575F" transform="matrix(1.00, 0.00, -0.00, -1.00, 890.8, 350.0)">5</text><text xml:space="preserve" font-family="Helvetica-Light" font-size="24.0" fill="#52575F" transform="matrix(1.00, 0.00, -0.00, -1.00, 904.1, 350.0)">}</text></g></g><image xlink:href="../../5D17066C-F2D4-43E1-B102-79E70149F52B/assets/A02F8CE389C8307E65E0E2D0AE0A432A.png" width="332.00" height="43.00" transform="matrix(1.00, 0.00, -0.00, -1.00, 623.7, 333.9)" opacity="0.50"></image><g><clipPath id="clip-1388"><path d="M 626.7 332.9 L 952.9 332.9 L 952.9 295.9 L 626.7 295.9 Z M 626.7 332.9 "></path></clipPath><g clip-path="url(#clip-1388)"><path d="M 626.7 295.9 L 952.9 295.9 L 952.9 332.9 L 626.7 332.9 Z M 626.7 295.9 " fill="url(#29BB320F-83E9-4C46-A315-D3760C0EEE22)"></path><path d="M 626.7 332.9 L 952.9 332.9 L 952.9 295.9 L 626.7 295.9 Z M 626.7 332.9 " fill="#E1E0D8"></path></g></g><g><clipPath id="clip-1389"><path d="M 624.7 293.9 L 954.9 293.9 L 954.9 334.9 L 624.7 334.9 Z M 624.7 293.9 "></path></clipPath><g clip-path="url(#clip-1389)"><text xml:space="preserve" font-family="Helvetica-Light" font-size="24.0" fill="#52575F" transform="matrix(1.00, 0.00, -0.00, -1.00, 669.0, 305.0)">{</text><text xml:space="preserve" font-family="Helvetica-Light" font-size="24.0" fill="#52575F" transform="matrix(1.00, 0.00, -0.00, -1.00, 677.0, 305.0)">n</text><text xml:space="preserve" font-family="Helvetica-Light" font-size="24.0" fill="#52575F" transform="matrix(1.00, 0.00, -0.00, -1.00, 690.3, 305.0)">a</text><text xml:space="preserve" font-family="Helvetica-Light" font-size="24.0" fill="#52575F" transform="matrix(1.00, 0.00, -0.00, -1.00, 703.7, 305.0)">m</text><text xml:space="preserve" font-family="Helvetica-Light" font-size="24.0" fill="#52575F" transform="matrix(1.00, 0.00, -0.00, -1.00, 723.7, 305.0)">e</text><text xml:space="preserve" font-family="Helvetica-Light" font-size="24.0" fill="#52575F" transform="matrix(1.00, 0.00, -0.00, -1.00, 737.0, 305.0)">:</text><text xml:space="preserve" font-family="Helvetica-Light" font-size="24.0" fill="#52575F" transform="matrix(1.00, 0.00, -0.00, -1.00, 743.7, 305.0)"> </text><text xml:space="preserve" font-family="Helvetica-Light" font-size="24.0" fill="#52575F" transform="matrix(1.00, 0.00, -0.00, -1.00, 750.4, 305.0)">“</text><text xml:space="preserve" font-family="Helvetica-Light" font-size="24.0" fill="#52575F" transform="matrix(1.00, 0.00, -0.00, -1.00, 759.7, 305.0)">E</text><text xml:space="preserve" font-family="Helvetica-Light" font-size="24.0" fill="#52575F" transform="matrix(1.00, 0.00, -0.00, -1.00, 774.4, 305.0)">l</text><text xml:space="preserve" font-family="Helvetica-Light" font-size="24.0" fill="#52575F" transform="matrix(1.00, 0.00, -0.00, -1.00, 779.7, 305.0)">l</text><text xml:space="preserve" font-family="Helvetica-Light" font-size="24.0" fill="#52575F" transform="matrix(1.00, 0.00, -0.00, -1.00, 785.0, 305.0)">a</text><text xml:space="preserve" font-family="Helvetica-Light" font-size="24.0" fill="#52575F" transform="matrix(1.00, 0.00, -0.00, -1.00, 798.4, 305.0)">”</text><text xml:space="preserve" font-family="Helvetica-Light" font-size="24.0" fill="#52575F" transform="matrix(1.00, 0.00, -0.00, -1.00, 807.7, 305.0)">,</text><text xml:space="preserve" font-family="Helvetica-Light" font-size="24.0" fill="#52575F" transform="matrix(1.00, 0.00, -0.00, -1.00, 814.4, 305.0)"> </text><text xml:space="preserve" font-family="Helvetica-Light" font-size="24.0" fill="#52575F" transform="matrix(1.00, 0.00, -0.00, -1.00, 821.0, 305.0)">a</text><text xml:space="preserve" font-family="Helvetica-Light" font-size="24.0" fill="#52575F" transform="matrix(1.00, 0.00, -0.00, -1.00, 834.4, 305.0)">g</text><text xml:space="preserve" font-family="Helvetica-Light" font-size="24.0" fill="#52575F" transform="matrix(1.00, 0.00, -0.00, -1.00, 849.0, 305.0)">e</text><text xml:space="preserve" font-family="Helvetica-Light" font-size="24.0" fill="#52575F" transform="matrix(1.00, 0.00, -0.00, -1.00, 862.4, 305.0)">:</text><text xml:space="preserve" font-family="Helvetica-Light" font-size="24.0" fill="#52575F" transform="matrix(1.00, 0.00, -0.00, -1.00, 869.1, 305.0)"> </text><text xml:space="preserve" font-family="Helvetica-Light" font-size="24.0" fill="#52575F" transform="matrix(1.00, 0.00, -0.00, -1.00, 875.7, 305.0)">3</text><text xml:space="preserve" font-family="Helvetica-Light" font-size="24.0" fill="#52575F" transform="matrix(1.00, 0.00, -0.00, -1.00, 889.1, 305.0)">6</text><text xml:space="preserve" font-family="Helvetica-Light" font-size="24.0" fill="#52575F" transform="matrix(1.00, 0.00, -0.00, -1.00, 902.4, 305.0)">}</text></g></g><image xlink:href="../../F2F9526D-AD39-42AC-B60A-237E5C105763/assets/5F56E1511AB1945DF0F0C0CE28A6563B.png" width="157.00" height="43.00" transform="matrix(1.00, 0.00, -0.00, -1.00, 623.7, 467.3)" opacity="0.50"></image><path d="M 626.7 466.3 L 777.3 466.3 L 777.3 429.3 L 626.7 429.3 Z M 626.7 466.3 " fill="#3B1E4D"></path><g><clipPath id="clip-1390"><path d="M 624.7 427.3 L 779.3 427.3 L 779.3 468.3 L 624.7 468.3 Z M 624.7 427.3 "></path></clipPath><g clip-path="url(#clip-1390)"><text xml:space="preserve" font-family="Helvetica-Light" font-size="24.0" fill="#FEFFFE" transform="matrix(1.00, 0.00, -0.00, -1.00, 671.0, 439.0)">J</text><text xml:space="preserve" font-family="Helvetica-Light" font-size="24.0" fill="#FEFFFE" transform="matrix(1.00, 0.00, -0.00, -1.00, 683.0, 439.0)">S</text><text xml:space="preserve" font-family="Helvetica-Light" font-size="24.0" fill="#FEFFFE" transform="matrix(1.00, 0.00, -0.00, -1.00, 697.7, 439.0)">O</text><text xml:space="preserve" font-family="Helvetica-Light" font-size="24.0" fill="#FEFFFE" transform="matrix(1.00, 0.00, -0.00, -1.00, 716.3, 439.0)">N</text></g></g><path d="M 0.0 0.0 L 131.1 0.0 L 132.1 0.0 " fill="none" stroke="#85878C" stroke-width="2.00" transform="matrix(1.00, 0.00, 0.00, -1.00, 485.1, 451.6)"></path><path d="M 616.2 446.8 L 625.8 451.6 L 616.2 456.4 Z M 616.2 446.8 " fill="#85878C"></path><path d="M 504.7 472.1 L 599.1 472.1 L 599.1 435.1 L 504.7 435.1 Z M 504.7 472.1 " fill="#FEFFFF"></path><g><clipPath id="clip-1391"><path d="M 502.7 433.1 L 601.1 433.1 L 601.1 474.1 L 502.7 474.1 Z M 502.7 433.1 "></path></clipPath><g clip-path="url(#clip-1391)"><text xml:space="preserve" font-family="Helvetica-Light" font-size="24.0" fill="#52575F" transform="matrix(1.00, 0.00, -0.00, -1.00, 509.0, 445.0)">s</text><text xml:space="preserve" font-family="Helvetica-Light" font-size="24.0" fill="#52575F" transform="matrix(1.00, 0.00, -0.00, -1.00, 521.0, 445.0)">c</text><text xml:space="preserve" font-family="Helvetica-Light" font-size="24.0" fill="#52575F" transform="matrix(1.00, 0.00, -0.00, -1.00, 534.3, 445.0)">h</text><text xml:space="preserve" font-family="Helvetica-Light" font-size="24.0" fill="#52575F" transform="matrix(1.00, 0.00, -0.00, -1.00, 547.7, 445.0)">e</text><text xml:space="preserve" font-family="Helvetica-Light" font-size="24.0" fill="#52575F" transform="matrix(1.00, 0.00, -0.00, -1.00, 561.0, 445.0)">m</text><text xml:space="preserve" font-family="Helvetica-Light" font-size="24.0" fill="#52575F" transform="matrix(1.00, 0.00, -0.00, -1.00, 581.0, 445.0)">a</text></g></g><path d="M 0.0 0.0 L 135.4 0.0 L 136.4 0.0 " fill="none" stroke="#85878C" stroke-width="2.00" transform="matrix(0.97, -0.23, -0.23, -0.97, 485.1, 441.6)"></path><path d="M 615.6 405.1 L 626.1 407.5 L 617.9 414.4 Z M 615.6 405.1 " fill="#85878C"></path><path d="M 541.7 442.3 L 564.1 442.3 L 564.1 405.3 L 541.7 405.3 Z M 541.7 442.3 " fill="#FEFFFF"></path><g><clipPath id="clip-1392"><path d="M 539.7 403.3 L 566.1 403.3 L 566.1 444.3 L 539.7 444.3 Z M 539.7 403.3 "></path></clipPath><g clip-path="url(#clip-1392)"><text xml:space="preserve" font-family="Helvetica-Light" font-size="24.0" fill="#52575F" transform="matrix(1.00, 0.00, -0.00, -1.00, 546.0, 415.0)">1</text></g></g><path d="M 0.0 0.0 L 147.5 0.0 L 148.5 0.0 " fill="none" stroke="#85878C" stroke-width="2.00" transform="matrix(0.90, -0.44, -0.44, -0.90, 485.1, 431.6)"></path><path d="M 615.5 362.5 L 626.2 362.6 L 619.7 371.1 Z M 615.5 362.5 " fill="#85878C"></path><path d="M 541.7 412.7 L 564.1 412.7 L 564.1 375.7 L 541.7 375.7 Z M 541.7 412.7 " fill="#FEFFFF"></path><g><clipPath id="clip-1393"><path d="M 539.7 373.7 L 566.1 373.7 L 566.1 414.7 L 539.7 414.7 Z M 539.7 373.7 "></path></clipPath><g clip-path="url(#clip-1393)"><text xml:space="preserve" font-family="Helvetica-Light" font-size="24.0" fill="#52575F" transform="matrix(1.00, 0.00, -0.00, -1.00, 546.0, 385.0)">2</text></g></g><path d="M 0.0 0.0 L 168.4 0.0 L 169.4 0.0 " fill="none" stroke="#85878C" stroke-width="2.00" transform="matrix(0.79, -0.61, -0.61, -0.79, 485.1, 421.6)"></path><path d="M 615.9 315.3 L 626.4 313.3 L 621.7 322.9 Z M 615.9 315.3 " fill="#85878C"></path><path d="M 541.7 385.3 L 564.1 385.3 L 564.1 348.3 L 541.7 348.3 Z M 541.7 385.3 " fill="#FEFFFF"></path><g><clipPath id="clip-1394"><path d="M 539.7 346.3 L 566.1 346.3 L 566.1 387.3 L 539.7 387.3 Z M 539.7 346.3 "></path></clipPath><g clip-path="url(#clip-1394)"><text xml:space="preserve" font-family="Helvetica-Light" font-size="24.0" fill="#52575F" transform="matrix(1.00, 0.00, -0.00, -1.00, 546.0, 358.0)">3</text></g></g><text xml:space="preserve" font-family="Helvetica-Light" font-size="36.0" fill="#000000" transform="matrix(1.00, 0.00, -0.00, -1.00, 64.0, 633.0)">W</text><text xml:space="preserve" font-family="Helvetica-Light" font-size="36.0" fill="#000000" transform="matrix(1.00, 0.00, -0.00, -1.00, 96.0, 633.0)">h</text><text xml:space="preserve" font-family="Helvetica-Light" font-size="36.0" fill="#000000" transform="matrix(1.00, 0.00, -0.00, -1.00, 116.0, 633.0)">e</text><text xml:space="preserve" font-family="Helvetica-Light" font-size="36.0" fill="#000000" transform="matrix(1.00, 0.00, -0.00, -1.00, 136.0, 633.0)">r</text><text xml:space="preserve" font-family="Helvetica-Light" font-size="36.0" fill="#000000" transform="matrix(1.00, 0.00, -0.00, -1.00, 147.4, 633.0)">e</text><text xml:space="preserve" font-family="Helvetica-Light" font-size="36.0" fill="#000000" transform="matrix(1.00, 0.00, -0.00, -1.00, 167.4, 633.0)"> </text><text xml:space="preserve" font-family="Helvetica-Light" font-size="36.0" fill="#000000" transform="matrix(1.00, 0.00, -0.00, -1.00, 177.4, 633.0)">g</text><text xml:space="preserve" font-family="Helvetica-Light" font-size="36.0" fill="#000000" transform="matrix(1.00, 0.00, -0.00, -1.00, 199.4, 633.0)">i</text><text xml:space="preserve" font-family="Helvetica-Light" font-size="36.0" fill="#000000" transform="matrix(1.00, 0.00, -0.00, -1.00, 207.4, 633.0)">t</text><text xml:space="preserve" font-family="Helvetica-Light" font-size="36.0" fill="#000000" transform="matrix(1.00, 0.00, -0.00, -1.00, 217.4, 633.0)"> </text><text xml:space="preserve" font-family="Helvetica-Light" font-size="36.0" fill="#000000" transform="matrix(1.00, 0.00, -0.00, -1.00, 227.4, 633.0)">h</text><text xml:space="preserve" font-family="Helvetica-Light" font-size="36.0" fill="#000000" transform="matrix(1.00, 0.00, -0.00, -1.00, 247.4, 633.0)">a</text><text xml:space="preserve" font-family="Helvetica-Light" font-size="36.0" fill="#000000" transform="matrix(1.00, 0.00, -0.00, -1.00, 267.4, 633.0)">s</text><text xml:space="preserve" font-family="Helvetica-Light" font-size="36.0" fill="#000000" transform="matrix(1.00, 0.00, -0.00, -1.00, 285.4, 633.0)"> </text><text xml:space="preserve" font-family="Helvetica-Light" font-size="36.0" fill="#000000" transform="matrix(1.00, 0.00, -0.00, -1.00, 295.4, 633.0)">3</text><text xml:space="preserve" font-family="Helvetica-Light" font-size="36.0" fill="#000000" transform="matrix(1.00, 0.00, -0.00, -1.00, 315.5, 633.0)"> </text><text xml:space="preserve" font-family="Helvetica-Light" font-size="36.0" fill="#000000" transform="matrix(1.00, 0.00, -0.00, -1.00, 325.5, 633.0)">t</text><text xml:space="preserve" font-family="Helvetica-Light" font-size="36.0" fill="#000000" transform="matrix(1.00, 0.00, -0.00, -1.00, 335.5, 633.0)">y</text><text xml:space="preserve" font-family="Helvetica-Light" font-size="36.0" fill="#000000" transform="matrix(1.00, 0.00, -0.00, -1.00, 353.5, 633.0)">p</text><text xml:space="preserve" font-family="Helvetica-Light" font-size="36.0" fill="#000000" transform="matrix(1.00, 0.00, -0.00, -1.00, 375.5, 633.0)">e</text><text xml:space="preserve" font-family="Helvetica-Light" font-size="36.0" fill="#000000" transform="matrix(1.00, 0.00, -0.00, -1.00, 395.5, 633.0)">s</text><text xml:space="preserve" font-family="Helvetica-Light" font-size="36.0" fill="#000000" transform="matrix(1.00, 0.00, -0.00, -1.00, 413.5, 633.0)"> </text><text xml:space="preserve" font-family="Helvetica-Light" font-size="36.0" fill="#000000" transform="matrix(1.00, 0.00, -0.00, -1.00, 423.5, 633.0)">o</text><text xml:space="preserve" font-family="Helvetica-Light" font-size="36.0" fill="#000000" transform="matrix(1.00, 0.00, -0.00, -1.00, 443.5, 633.0)">f</text><text xml:space="preserve" font-family="Helvetica-Light" font-size="36.0" fill="#000000" transform="matrix(1.00, 0.00, -0.00, -1.00, 453.5, 633.0)"> </text><text xml:space="preserve" font-family="Helvetica-Light" font-size="36.0" fill="#000000" transform="matrix(1.00, 0.00, -0.00, -1.00, 463.5, 633.0)">o</text><text xml:space="preserve" font-family="Helvetica-Light" font-size="36.0" fill="#000000" transform="matrix(1.00, 0.00, -0.00, -1.00, 483.5, 633.0)">b</text><text xml:space="preserve" font-family="Helvetica-Light" font-size="36.0" fill="#000000" transform="matrix(1.00, 0.00, -0.00, -1.00, 505.5, 633.0)">j</text><text xml:space="preserve" font-family="Helvetica-Light" font-size="36.0" fill="#000000" transform="matrix(1.00, 0.00, -0.00, -1.00, 513.5, 633.0)">e</text><text xml:space="preserve" font-family="Helvetica-Light" font-size="36.0" fill="#000000" transform="matrix(1.00, 0.00, -0.00, -1.00, 533.5, 633.0)">c</text><text xml:space="preserve" font-family="Helvetica-Light" font-size="36.0" fill="#000000" transform="matrix(1.00, 0.00, -0.00, -1.00, 553.6, 633.0)">t</text><text xml:space="preserve" font-family="Helvetica-Light" font-size="36.0" fill="#000000" transform="matrix(1.00, 0.00, -0.00, -1.00, 563.6, 633.0)">s</text><text xml:space="preserve" font-family="Helvetica-Light" font-size="36.0" fill="#000000" transform="matrix(1.00, 0.00, -0.00, -1.00, 581.6, 633.0)"> </text><text xml:space="preserve" font-family="Helvetica-Light" font-size="36.0" fill="#000000" transform="matrix(1.00, 0.00, -0.00, -1.00, 591.6, 633.0)">(</text><text xml:space="preserve" font-family="Helvetica-Light" font-size="36.0" fill="#000000" transform="matrix(1.00, 0.00, -0.00, -1.00, 603.6, 633.0)">b</text><text xml:space="preserve" font-family="Helvetica-Light" font-size="36.0" fill="#000000" transform="matrix(1.00, 0.00, -0.00, -1.00, 625.6, 633.0)">l</text><text xml:space="preserve" font-family="Helvetica-Light" font-size="36.0" fill="#000000" transform="matrix(1.00, 0.00, -0.00, -1.00, 633.6, 633.0)">o</text><text xml:space="preserve" font-family="Helvetica-Light" font-size="36.0" fill="#000000" transform="matrix(1.00, 0.00, -0.00, -1.00, 653.6, 633.0)">b</text><text xml:space="preserve" font-family="Helvetica-Light" font-size="36.0" fill="#000000" transform="matrix(1.00, 0.00, -0.00, -1.00, 675.6, 633.0)">s</text><text xml:space="preserve" font-family="Helvetica-Light" font-size="36.0" fill="#000000" transform="matrix(1.00, 0.00, -0.00, -1.00, 693.6, 633.0)">,</text><text xml:space="preserve" font-family="Helvetica-Light" font-size="36.0" fill="#000000" transform="matrix(1.00, 0.00, -0.00, -1.00, 703.6, 633.0)"> </text><text xml:space="preserve" font-family="Helvetica-Light" font-size="36.0" fill="#000000" transform="matrix(1.00, 0.00, -0.00, -1.00, 713.6, 633.0)">t</text><text xml:space="preserve" font-family="Helvetica-Light" font-size="36.0" fill="#000000" transform="matrix(1.00, 0.00, -0.00, -1.00, 723.6, 633.0)">r</text><text xml:space="preserve" font-family="Helvetica-Light" font-size="36.0" fill="#000000" transform="matrix(1.00, 0.00, -0.00, -1.00, 734.9, 633.0)">e</text><text xml:space="preserve" font-family="Helvetica-Light" font-size="36.0" fill="#000000" transform="matrix(1.00, 0.00, -0.00, -1.00, 754.9, 633.0)">e</text><text xml:space="preserve" font-family="Helvetica-Light" font-size="36.0" fill="#000000" transform="matrix(1.00, 0.00, -0.00, -1.00, 775.0, 633.0)">s</text><text xml:space="preserve" font-family="Helvetica-Light" font-size="36.0" fill="#000000" transform="matrix(1.00, 0.00, -0.00, -1.00, 793.0, 633.0)">,</text><text xml:space="preserve" font-family="Helvetica-Light" font-size="36.0" fill="#000000" transform="matrix(1.00, 0.00, -0.00, -1.00, 803.0, 633.0)"> </text><text xml:space="preserve" font-family="Helvetica-Light" font-size="36.0" fill="#000000" transform="matrix(1.00, 0.00, -0.00, -1.00, 813.0, 633.0)">c</text><text xml:space="preserve" font-family="Helvetica-Light" font-size="36.0" fill="#000000" transform="matrix(1.00, 0.00, -0.00, -1.00, 833.0, 633.0)">o</text><text xml:space="preserve" font-family="Helvetica-Light" font-size="36.0" fill="#000000" transform="matrix(1.00, 0.00, -0.00, -1.00, 853.0, 633.0)">m</text><text xml:space="preserve" font-family="Helvetica-Light" font-size="36.0" fill="#000000" transform="matrix(1.00, 0.00, -0.00, -1.00, 883.0, 633.0)">m</text><text xml:space="preserve" font-family="Helvetica-Light" font-size="36.0" fill="#000000" transform="matrix(1.00, 0.00, -0.00, -1.00, 913.0, 633.0)">i</text><text xml:space="preserve" font-family="Helvetica-Light" font-size="36.0" fill="#000000" transform="matrix(1.00, 0.00, -0.00, -1.00, 921.0, 633.0)">t</text><text xml:space="preserve" font-family="Helvetica-Light" font-size="36.0" fill="#000000" transform="matrix(1.00, 0.00, -0.00, -1.00, 931.0, 633.0)">s</text><text xml:space="preserve" font-family="Helvetica-Light" font-size="36.0" fill="#000000" transform="matrix(1.00, 0.00, -0.00, -1.00, 949.0, 633.0)">)</text><text xml:space="preserve" font-family="Helvetica-Light" font-size="36.0" fill="#000000" transform="matrix(1.00, 0.00, -0.00, -1.00, 961.0, 633.0)"> </text><text xml:space="preserve" font-family="Helvetica-Light" font-size="36.0" fill="#000000" transform="matrix(1.00, 0.00, -0.00, -1.00, 223.0, 590.0)">W</text><text xml:space="preserve" font-family="Helvetica-Light" font-size="36.0" fill="#000000" transform="matrix(1.00, 0.00, -0.00, -1.00, 254.4, 590.0)">e</text><text xml:space="preserve" font-family="Helvetica-Light" font-size="36.0" fill="#000000" transform="matrix(1.00, 0.00, -0.00, -1.00, 274.4, 590.0)"> </text><text xml:space="preserve" font-family="Helvetica-Light" font-size="36.0" fill="#000000" transform="matrix(1.00, 0.00, -0.00, -1.00, 284.4, 590.0)">c</text><text xml:space="preserve" font-family="Helvetica-Light" font-size="36.0" fill="#000000" transform="matrix(1.00, 0.00, -0.00, -1.00, 304.4, 590.0)">o</text><text xml:space="preserve" font-family="Helvetica-Light" font-size="36.0" fill="#000000" transform="matrix(1.00, 0.00, -0.00, -1.00, 324.4, 590.0)">u</text><text xml:space="preserve" font-family="Helvetica-Light" font-size="36.0" fill="#000000" transform="matrix(1.00, 0.00, -0.00, -1.00, 344.4, 590.0)">l</text><text xml:space="preserve" font-family="Helvetica-Light" font-size="36.0" fill="#000000" transform="matrix(1.00, 0.00, -0.00, -1.00, 352.4, 590.0)">d</text><text xml:space="preserve" font-family="Helvetica-Light" font-size="36.0" fill="#000000" transform="matrix(1.00, 0.00, -0.00, -1.00, 374.4, 590.0)"> </text><text xml:space="preserve" font-family="Helvetica-Light" font-size="36.0" fill="#000000" transform="matrix(1.00, 0.00, -0.00, -1.00, 384.4, 590.0)">h</text><text xml:space="preserve" font-family="Helvetica-Light" font-size="36.0" fill="#000000" transform="matrix(1.00, 0.00, -0.00, -1.00, 404.4, 590.0)">a</text><text xml:space="preserve" font-family="Helvetica-Light" font-size="36.0" fill="#000000" transform="matrix(1.00, 0.00, -0.00, -1.00, 424.5, 590.0)">v</text><text xml:space="preserve" font-family="Helvetica-Light" font-size="36.0" fill="#000000" transform="matrix(1.00, 0.00, -0.00, -1.00, 442.5, 590.0)">e</text><text xml:space="preserve" font-family="Helvetica-Light" font-size="36.0" fill="#000000" transform="matrix(1.00, 0.00, -0.00, -1.00, 462.5, 590.0)"> </text><text xml:space="preserve" font-family="Helvetica-Light" font-size="36.0" fill="#000000" transform="matrix(1.00, 0.00, -0.00, -1.00, 472.5, 590.0)">t</text><text xml:space="preserve" font-family="Helvetica-Light" font-size="36.0" fill="#000000" transform="matrix(1.00, 0.00, -0.00, -1.00, 482.5, 590.0)">h</text><text xml:space="preserve" font-family="Helvetica-Light" font-size="36.0" fill="#000000" transform="matrix(1.00, 0.00, -0.00, -1.00, 502.5, 590.0)">r</text><text xml:space="preserve" font-family="Helvetica-Light" font-size="36.0" fill="#000000" transform="matrix(1.00, 0.00, -0.00, -1.00, 513.8, 590.0)">e</text><text xml:space="preserve" font-family="Helvetica-Light" font-size="36.0" fill="#000000" transform="matrix(1.00, 0.00, -0.00, -1.00, 533.9, 590.0)">e</text><text xml:space="preserve" font-family="Helvetica-Light" font-size="36.0" fill="#000000" transform="matrix(1.00, 0.00, -0.00, -1.00, 553.9, 590.0)"> </text><text xml:space="preserve" font-family="Helvetica-Light" font-size="36.0" fill="#000000" transform="matrix(1.00, 0.00, -0.00, -1.00, 563.9, 590.0)">t</text><text xml:space="preserve" font-family="Helvetica-Light" font-size="36.0" fill="#000000" transform="matrix(1.00, 0.00, -0.00, -1.00, 573.9, 590.0)">y</text><text xml:space="preserve" font-family="Helvetica-Light" font-size="36.0" fill="#000000" transform="matrix(1.00, 0.00, -0.00, -1.00, 591.9, 590.0)">p</text><text xml:space="preserve" font-family="Helvetica-Light" font-size="36.0" fill="#000000" transform="matrix(1.00, 0.00, -0.00, -1.00, 613.9, 590.0)">e</text><text xml:space="preserve" font-family="Helvetica-Light" font-size="36.0" fill="#000000" transform="matrix(1.00, 0.00, -0.00, -1.00, 633.9, 590.0)">s</text><text xml:space="preserve" font-family="Helvetica-Light" font-size="36.0" fill="#000000" transform="matrix(1.00, 0.00, -0.00, -1.00, 651.9, 590.0)"> </text><text xml:space="preserve" font-family="Helvetica-Light" font-size="36.0" fill="#000000" transform="matrix(1.00, 0.00, -0.00, -1.00, 661.9, 590.0)">o</text><text xml:space="preserve" font-family="Helvetica-Light" font-size="36.0" fill="#000000" transform="matrix(1.00, 0.00, -0.00, -1.00, 681.9, 590.0)">f</text><text xml:space="preserve" font-family="Helvetica-Light" font-size="36.0" fill="#000000" transform="matrix(1.00, 0.00, -0.00, -1.00, 691.9, 590.0)"> </text><text xml:space="preserve" font-family="Helvetica-Light" font-size="36.0" fill="#000000" transform="matrix(1.00, 0.00, -0.00, -1.00, 701.9, 590.0)">f</text><text xml:space="preserve" font-family="Helvetica-Light" font-size="36.0" fill="#000000" transform="matrix(1.00, 0.00, -0.00, -1.00, 712.0, 590.0)">e</text><text xml:space="preserve" font-family="Helvetica-Light" font-size="36.0" fill="#000000" transform="matrix(1.00, 0.00, -0.00, -1.00, 732.0, 590.0)">e</text><text xml:space="preserve" font-family="Helvetica-Light" font-size="36.0" fill="#000000" transform="matrix(1.00, 0.00, -0.00, -1.00, 752.0, 590.0)">d</text><text xml:space="preserve" font-family="Helvetica-Light" font-size="36.0" fill="#000000" transform="matrix(1.00, 0.00, -0.00, -1.00, 774.0, 590.0)">s</text><text xml:space="preserve" font-family="Helvetica-Light" font-size="36.0" fill="#000000" transform="matrix(1.00, 0.00, -0.00, -1.00, 792.0, 590.0)">.</text></g></svg>