<?xml version="1.0" encoding="UTF-8" standalone="no"?><svg xmlns="http://www.w3.org/2000/svg" xmlns:xlink="http://www.w3.org/1999/xlink" clip-rule="evenodd" stroke-miterlimit="4.00" viewBox="0 0 1024 768"><desc>SVG generated by Keynote</desc><defs></defs><g transform="matrix(1.00, 0.00, -0.00, -1.00, 0.0, 768.0)"><path d="M 0.0 768.0 L 1024.0 768.0 L 1024.0 0.0 L 0.0 0.0 Z M 0.0 768.0 " fill="#FEFFFF"></path><text xml:space="preserve" font-family="Helvetica-Light" font-size="70.3" fill="#000000" transform="matrix(1.00, 0.00, -0.00, -1.00, 104.0, 483.0)">P</text><text xml:space="preserve" font-family="Helvetica-Light" font-size="70.3" fill="#000000" transform="matrix(1.00, 0.00, -0.00, -1.00, 147.0, 483.0)">r</text><text xml:space="preserve" font-family="Helvetica-Light" font-size="70.3" fill="#000000" transform="matrix(1.00, 0.00, -0.00, -1.00, 169.1, 483.0)">o</text><text xml:space="preserve" font-family="Helvetica-Light" font-size="70.3" fill="#000000" transform="matrix(1.00, 0.00, -0.00, -1.00, 208.2, 483.0)">b</text><text xml:space="preserve" font-family="Helvetica-Light" font-size="70.3" fill="#000000" transform="matrix(1.00, 0.00, -0.00, -1.00, 251.1, 483.0)">l</text><text xml:space="preserve" font-family="Helvetica-Light" font-size="70.3" fill="#000000" transform="matrix(1.00, 0.00, -0.00, -1.00, 266.7, 483.0)">e</text><text xml:space="preserve" font-family="Helvetica-Light" font-size="70.3" fill="#000000" transform="matrix(1.00, 0.00, -0.00, -1.00, 305.8, 483.0)">m</text><text xml:space="preserve" font-family="Helvetica-Light" font-size="70.3" fill="#000000" transform="matrix(1.00, 0.00, -0.00, -1.00, 364.4, 483.0)">s</text><text xml:space="preserve" font-family="Helvetica-Light" font-size="70.3" fill="#000000" transform="matrix(1.00, 0.00, -0.00, -1.00, 399.5, 483.0)"> </text><text xml:space="preserve" font-family="Helvetica-Light" font-size="70.3" fill="#000000" transform="matrix(1.00, 0.00, -0.00, -1.00, 419.1, 483.0)">w</text><text xml:space="preserve" font-family="Helvetica-Light" font-size="70.3" fill="#000000" transform="matrix(1.00, 0.00, -0.00, -1.00, 469.8, 483.0)">i</text><text xml:space="preserve" font-family="Helvetica-Light" font-size="70.3" fill="#000000" transform="matrix(1.00, 0.00, -0.00, -1.00, 485.4, 483.0)">t</text><text xml:space="preserve" font-family="Helvetica-Light" font-size="70.3" fill="#000000" transform="matrix(1.00, 0.00, -0.00, -1.00, 505.0, 483.0)">h</text><text xml:space="preserve" font-family="Helvetica-Light" font-size="70.3" fill="#000000" transform="matrix(1.00, 0.00, -0.00, -1.00, 544.1, 483.0)"> </text><text xml:space="preserve" font-family="Helvetica-Light" font-size="70.3" fill="#000000" transform="matrix(1.00, 0.00, -0.00, -1.00, 563.6, 483.0)">R</text><text xml:space="preserve" font-family="Helvetica-Light" font-size="70.3" fill="#000000" transform="matrix(1.00, 0.00, -0.00, -1.00, 610.5, 483.0)">e</text><text xml:space="preserve" font-family="Helvetica-Light" font-size="70.3" fill="#000000" transform="matrix(1.00, 0.00, -0.00, -1.00, 649.6, 483.0)">p</text><text xml:space="preserve" font-family="Helvetica-Light" font-size="70.3" fill="#000000" transform="matrix(1.00, 0.00, -0.00, -1.00, 692.6, 483.0)">l</text><text xml:space="preserve" font-family="Helvetica-Light" font-size="70.3" fill="#000000" transform="matrix(1.00, 0.00, -0.00, -1.00, 708.2, 483.0)">i</text><text xml:space="preserve" font-family="Helvetica-Light" font-size="70.3" fill="#000000" transform="matrix(1.00, 0.00, -0.00, -1.00, 723.8, 483.0)">c</text><text xml:space="preserve" font-family="Helvetica-Light" font-size="70.3" fill="#000000" transform="matrix(1.00, 0.00, -0.00, -1.00, 762.9, 483.0)">a</text><text xml:space="preserve" font-family="Helvetica-Light" font-size="70.3" fill="#000000" transform="matrix(1.00, 0.00, -0.00, -1.00, 801.9, 483.0)">t</text><text xml:space="preserve" font-family="Helvetica-Light" font-size="70.3" fill="#000000" transform="matrix(1.00, 0.00, -0.00, -1.00, 821.5, 483.0)">i</text><text xml:space="preserve" font-family="Helvetica-Light" font-size="70.3" fill="#000000" transform="matrix(1.00, 0.00, -0.00, -1.00, 837.1, 483.0)">n</text><text xml:space="preserve" font-family="Helvetica-Light" font-size="70.3" fill="#000000" transform="matrix(1.00, 0.00, -0.00, -1.00, 876.2, 483.0)">g</text><text xml:space="preserve" font-family="Helvetica-Light" font-size="70.3" fill="#000000" transform="matrix(1.00, 0.00, -0.00, -1.00, 919.1, 483.0)"> </text><text xml:space="preserve" font-family="Helvetica-Light" font-size="70.3" fill="#000000" transform="matrix(1.00, 0.00, -0.00, -1.00, 274.0, 399.0)">R</text><text xml:space="preserve" font-family="Helvetica-Light" font-size="70.3" fill="#000000" transform="matrix(1.00, 0.00, -0.00, -1.00, 320.9, 399.0)">a</text><text xml:space="preserve" font-family="Helvetica-Light" font-size="70.3" fill="#000000" transform="matrix(1.00, 0.00, -0.00, -1.00, 360.0, 399.0)">w</text><text xml:space="preserve" font-family="Helvetica-Light" font-size="70.3" fill="#000000" transform="matrix(1.00, 0.00, -0.00, -1.00, 410.7, 399.0)"> </text><text xml:space="preserve" font-family="Helvetica-Light" font-size="70.3" fill="#000000" transform="matrix(1.00, 0.00, -0.00, -1.00, 430.3, 399.0)">D</text><text xml:space="preserve" font-family="Helvetica-Light" font-size="70.3" fill="#000000" transform="matrix(1.00, 0.00, -0.00, -1.00, 481.0, 399.0)">B</text><text xml:space="preserve" font-family="Helvetica-Light" font-size="70.3" fill="#000000" transform="matrix(1.00, 0.00, -0.00, -1.00, 527.9, 399.0)"> </text><text xml:space="preserve" font-family="Helvetica-Light" font-size="70.3" fill="#000000" transform="matrix(1.00, 0.00, -0.00, -1.00, 547.5, 399.0)">T</text><text xml:space="preserve" font-family="Helvetica-Light" font-size="70.3" fill="#000000" transform="matrix(1.00, 0.00, -0.00, -1.00, 578.8, 399.0)">a</text><text xml:space="preserve" font-family="Helvetica-Light" font-size="70.3" fill="#000000" transform="matrix(1.00, 0.00, -0.00, -1.00, 617.8, 399.0)">b</text><text xml:space="preserve" font-family="Helvetica-Light" font-size="70.3" fill="#000000" transform="matrix(1.00, 0.00, -0.00, -1.00, 660.8, 399.0)">l</text><text xml:space="preserve" font-family="Helvetica-Light" font-size="70.3" fill="#000000" transform="matrix(1.00, 0.00, -0.00, -1.00, 676.4, 399.0)">e</text><text xml:space="preserve" font-family="Helvetica-Light" font-size="70.3" fill="#000000" transform="matrix(1.00, 0.00, -0.00, -1.00, 715.5, 399.0)">s</text><text xml:space="preserve" font-family="Helvetica-Light" font-size="20.0" fill="#52575F" transform="matrix(1.00, 0.00, -0.00, -1.00, 235.0, 63.0)">P</text><text xml:space="preserve" font-family="Helvetica-Light" font-size="20.0" fill="#52575F" transform="matrix(1.00, 0.00, -0.00, -1.00, 247.2, 63.0)">r</text><text xml:space="preserve" font-family="Helvetica-Light" font-size="20.0" fill="#52575F" transform="matrix(1.00, 0.00, -0.00, -1.00, 253.5, 63.0)">e</text><text xml:space="preserve" font-family="Helvetica-Light" font-size="20.0" fill="#52575F" transform="matrix(1.00, 0.00, -0.00, -1.00, 264.6, 63.0)">p</text><text xml:space="preserve" font-family="Helvetica-Light" font-size="20.0" fill="#52575F" transform="matrix(1.00, 0.00, -0.00, -1.00, 276.9, 63.0)">a</text><text xml:space="preserve" font-family="Helvetica-Light" font-size="20.0" fill="#52575F" transform="matrix(1.00, 0.00, -0.00, -1.00, 288.0, 63.0)">r</text><text xml:space="preserve" font-family="Helvetica-Light" font-size="20.0" fill="#52575F" transform="matrix(1.00, 0.00, -0.00, -1.00, 294.3, 63.0)">e</text><text xml:space="preserve" font-family="Helvetica-Light" font-size="20.0" fill="#52575F" transform="matrix(1.00, 0.00, -0.00, -1.00, 305.4, 63.0)">d</text><text xml:space="preserve" font-family="Helvetica-Light" font-size="20.0" fill="#52575F" transform="matrix(1.00, 0.00, -0.00, -1.00, 317.6, 63.0)"> </text><text xml:space="preserve" font-family="Helvetica-Light" font-size="20.0" fill="#52575F" transform="matrix(1.00, 0.00, -0.00, -1.00, 323.2, 63.0)">b</text><text xml:space="preserve" font-family="Helvetica-Light" font-size="20.0" fill="#52575F" transform="matrix(1.00, 0.00, -0.00, -1.00, 335.4, 63.0)">y</text><text xml:space="preserve" font-family="Helvetica-Light" font-size="20.0" fill="#52575F" transform="matrix(1.00, 0.00, -0.00, -1.00, 345.4, 63.0)"> </text><text xml:space="preserve" font-family="Helvetica-Light" font-size="20.0" fill="#52575F" transform="matrix(1.00, 0.00, -0.00, -1.00, 351.0, 63.0)">M</text><text xml:space="preserve" font-family="Helvetica-Light" font-size="20.0" fill="#52575F" transform="matrix(1.00, 0.00, -0.00, -1.00, 367.6, 63.0)">a</text><text xml:space="preserve" font-family="Helvetica-Light" font-size="20.0" fill="#52575F" transform="matrix(1.00, 0.00, -0.00, -1.00, 378.7, 63.0)">t</text><text xml:space="preserve" font-family="Helvetica-Light" font-size="20.0" fill="#52575F" transform="matrix(1.00, 0.00, -0.00, -1.00, 384.3, 63.0)">t</text><text xml:space="preserve" font-family="Helvetica-Light" font-size="20.0" fill="#52575F" transform="matrix(1.00, 0.00, -0.00, -1.00, 389.9, 63.0)"> </text><text xml:space="preserve" font-family="Helvetica-Light" font-size="20.0" fill="#52575F" transform="matrix(1.00, 0.00, -0.00, -1.00, 395.4, 63.0)">Z</text><text xml:space="preserve" font-family="Helvetica-Light" font-size="20.0" fill="#52575F" transform="matrix(1.00, 0.00, -0.00, -1.00, 407.6, 63.0)">u</text><text xml:space="preserve" font-family="Helvetica-Light" font-size="20.0" fill="#52575F" transform="matrix(1.00, 0.00, -0.00, -1.00, 418.8, 63.0)">m</text><text xml:space="preserve" font-family="Helvetica-Light" font-size="20.0" fill="#52575F" transform="matrix(1.00, 0.00, -0.00, -1.00, 435.4, 63.0)">w</text><text xml:space="preserve" font-family="Helvetica-Light" font-size="20.0" fill="#52575F" transform="matrix(1.00, 0.00, -0.00, -1.00, 449.9, 63.0)">a</text><text xml:space="preserve" font-family="Helvetica-Light" font-size="20.0" fill="#52575F" transform="matrix(1.00, 0.00, -0.00, -1.00, 461.0, 63.0)">l</text><text xml:space="preserve" font-family="Helvetica-Light" font-size="20.0" fill="#52575F" transform="matrix(1.00, 0.00, -0.00, -1.00, 465.4, 63.0)">t</text><text xml:space="preserve" font-family="Helvetica-Light" font-size="20.0" fill="#52575F" transform="matrix(1.00, 0.00, -0.00, -1.00, 471.0, 63.0)"> </text><text xml:space="preserve" font-family="Helvetica-Light" font-size="20.0" fill="#52575F" transform="matrix(1.00, 0.00, -0.00, -1.00, 476.5, 63.0)">f</text><text xml:space="preserve" font-family="Helvetica-Light" font-size="20.0" fill="#52575F" transform="matrix(1.00, 0.00, -0.00, -1.00, 482.1, 63.0)">o</text><text xml:space="preserve" font-family="Helvetica-Light" font-size="20.0" fill="#52575F" transform="matrix(1.00, 0.00, -0.00, -1.00, 493.2, 63.0)">r</text><text xml:space="preserve" font-family="Helvetica-Light" font-size="20.0" fill="#52575F" transform="matrix(1.00, 0.00, -0.00, -1.00, 499.9, 63.0)"> </text><text xml:space="preserve" font-family="Helvetica-Light" font-size="20.0" fill="#52575F" transform="matrix(1.00, 0.00, -0.00, -1.00, 505.4, 63.0)">t</text><text xml:space="preserve" font-family="Helvetica-Light" font-size="20.0" fill="#52575F" transform="matrix(1.00, 0.00, -0.00, -1.00, 511.0, 63.0)">h</text><text xml:space="preserve" font-family="Helvetica-Light" font-size="20.0" fill="#52575F" transform="matrix(1.00, 0.00, -0.00, -1.00, 522.1, 63.0)">e</text><text xml:space="preserve" font-family="Helvetica-Light" font-size="20.0" fill="#52575F" transform="matrix(1.00, 0.00, -0.00, -1.00, 533.2, 63.0)"> </text><text xml:space="preserve" font-family="Helvetica-Light" font-size="20.0" fill="#52575F" transform="matrix(1.00, 0.00, -0.00, -1.00, 538.8, 63.0)">d</text><text xml:space="preserve" font-family="Helvetica-Light" font-size="20.0" fill="#52575F" transform="matrix(1.00, 0.00, -0.00, -1.00, 551.0, 63.0)">a</text><text xml:space="preserve" font-family="Helvetica-Light" font-size="20.0" fill="#52575F" transform="matrix(1.00, 0.00, -0.00, -1.00, 562.1, 63.0)">t</text><text xml:space="preserve" font-family="Helvetica-Light" font-size="20.0" fill="#52575F" transform="matrix(1.00, 0.00, -0.00, -1.00, 567.7, 63.0)"> </text><text xml:space="preserve" font-family="Helvetica-Light" font-size="20.0" fill="#52575F" transform="matrix(1.00, 0.00, -0.00, -1.00, 573.3, 63.0)">j</text><text xml:space="preserve" font-family="Helvetica-Light" font-size="20.0" fill="#52575F" transform="matrix(1.00, 0.00, -0.00, -1.00, 577.7, 63.0)">a</text><text xml:space="preserve" font-family="Helvetica-Light" font-size="20.0" fill="#52575F" transform="matrix(1.00, 0.00, -0.00, -1.00, 588.8, 63.0)">w</text><text xml:space="preserve" font-family="Helvetica-Light" font-size="20.0" fill="#52575F" transform="matrix(1.00, 0.00, -0.00, -1.00, 603.3, 63.0)">n</text><text xml:space="preserve" font-family="Helvetica-Light" font-size="20.0" fill="#52575F" transform="matrix(1.00, 0.00, -0.00, -1.00, 614.4, 63.0)"> </text><text xml:space="preserve" font-family="Helvetica-Light" font-size="20.0" fill="#52575F" transform="matrix(1.00, 0.00, -0.00, -1.00, 619.9, 63.0)">t</text><text xml:space="preserve" font-family="Helvetica-Light" font-size="20.0" fill="#52575F" transform="matrix(1.00, 0.00, -0.00, -1.00, 625.5, 63.0)">e</text><text xml:space="preserve" font-family="Helvetica-Light" font-size="20.0" fill="#52575F" transform="matrix(1.00, 0.00, -0.00, -1.00, 636.6, 63.0)">a</text><text xml:space="preserve" font-family="Helvetica-Light" font-size="20.0" fill="#52575F" transform="matrix(1.00, 0.00, -0.00, -1.00, 647.7, 63.0)">m</text><text xml:space="preserve" font-family="Helvetica-Light" font-size="20.0" fill="#52575F" transform="matrix(1.00, 0.00, -0.00, -1.00, 664.4, 63.0)"> </text><text xml:space="preserve" font-family="Helvetica-Light" font-size="20.0" fill="#52575F" transform="matrix(1.00, 0.00, -0.00, -1.00, 670.0, 63.0)">2</text><text xml:space="preserve" font-family="Helvetica-Light" font-size="20.0" fill="#52575F" transform="matrix(1.00, 0.00, -0.00, -1.00, 681.1, 63.0)">0</text><text xml:space="preserve" font-family="Helvetica-Light" font-size="20.0" fill="#52575F" transform="matrix(1.00, 0.00, -0.00, -1.00, 692.2, 63.0)"> </text><text xml:space="preserve" font-family="Helvetica-Light" font-size="20.0" fill="#52575F" transform="matrix(1.00, 0.00, -0.00, -1.00, 697.8, 63.0)">A</text><text xml:space="preserve" font-family="Helvetica-Light" font-size="20.0" fill="#52575F" transform="matrix(1.00, 0.00, -0.00, -1.00, 711.1, 63.0)">p</text><text xml:space="preserve" font-family="Helvetica-Light" font-size="20.0" fill="#52575F" transform="matrix(1.00, 0.00, -0.00, -1.00, 723.3, 63.0)">r</text><text xml:space="preserve" font-family="Helvetica-Light" font-size="20.0" fill="#52575F" transform="matrix(1.00, 0.00, -0.00, -1.00, 730.0, 63.0)">i</text><text xml:space="preserve" font-family="Helvetica-Light" font-size="20.0" fill="#52575F" transform="matrix(1.00, 0.00, -0.00, -1.00, 734.4, 63.0)">l</text><text xml:space="preserve" font-family="Helvetica-Light" font-size="20.0" fill="#52575F" transform="matrix(1.00, 0.00, -0.00, -1.00, 738.9, 63.0)"> </text><text xml:space="preserve" font-family="Helvetica-Light" font-size="20.0" fill="#52575F" transform="matrix(1.00, 0.00, -0.00, -1.00, 744.4, 63.0)">2</text><text xml:space="preserve" font-family="Helvetica-Light" font-size="20.0" fill="#52575F" transform="matrix(1.00, 0.00, -0.00, -1.00, 755.5, 63.0)">0</text><text xml:space="preserve" font-family="Helvetica-Light" font-size="20.0" fill="#52575F" transform="matrix(1.00, 0.00, -0.00, -1.00, 766.7, 63.0)">1</text><text xml:space="preserve" font-family="Helvetica-Light" font-size="20.0" fill="#52575F" transform="matrix(1.00, 0.00, -0.00, -1.00, 777.8, 63.0)">6</text><g><clipPath id="clip-38985"><path d="M 537.9 60.3 L 614.4 60.3 L 614.4 63.3 L 537.9 63.3 Z M 537.9 60.3 "></path></clipPath><g clip-path="url(#clip-38985)"><path d="M 308.3 24.9 L 383.9 24.9 " fill="none" stroke="#52575F" stroke-width="1.00" stroke-miterlimit="0.00" transform="matrix(1.00, 0.00, 0.00, -1.00, 230.6, 86.7)"></path></g></g></g></svg>