<?xml version="1.0" encoding="UTF-8" standalone="no"?><svg xmlns="http://www.w3.org/2000/svg" xmlns:xlink="http://www.w3.org/1999/xlink" clip-rule="evenodd" stroke-miterlimit="4.00" viewBox="0 0 1024 768"><desc>SVG generated by Keynote</desc><defs></defs><g transform="matrix(1.00, 0.00, -0.00, -1.00, 0.0, 768.0)"><path d="M 0.0 768.0 L 1024.0 768.0 L 1024.0 0.0 L 0.0 0.0 Z M 0.0 768.0 " fill="#FEFFFF"></path><g><clipPath id="clip-3189"><path d="M 638.5 228.5 L 745.8 228.5 L 745.8 76.6 L 638.5 76.6 Z M 638.5 228.5 "></path></clipPath><g clip-path="url(#clip-3189)"><g><clipPath id="clip-3190"><path d="M 659.8 76.6 L 660.8 76.6 L 660.8 228.5 L 659.8 228.5 Z M 659.8 76.6 "></path></clipPath><g clip-path="url(#clip-3190)"><path d="M 23.3 1.5 L 23.3 153.4 " fill="none" stroke="#52575F" stroke-width="1.00" stroke-dasharray="2.0, 2.0" transform="matrix(1.00, 0.00, 0.00, -1.00, 637.0, 230.0)"></path></g></g></g></g><g><clipPath id="clip-3191"><path d="M 638.5 228.5 L 745.8 228.5 L 745.8 76.6 L 638.5 76.6 Z M 638.5 228.5 "></path></clipPath><g clip-path="url(#clip-3191)"><g><clipPath id="clip-3192"><path d="M 681.0 76.6 L 682.0 76.6 L 682.0 228.5 L 681.0 228.5 Z M 681.0 76.6 "></path></clipPath><g clip-path="url(#clip-3192)"><path d="M 44.5 1.5 L 44.5 153.4 " fill="none" stroke="#52575F" stroke-width="1.00" stroke-dasharray="2.0, 2.0" transform="matrix(1.00, 0.00, 0.00, -1.00, 637.0, 230.0)"></path></g></g></g></g><g><clipPath id="clip-3193"><path d="M 638.5 228.5 L 745.8 228.5 L 745.8 76.6 L 638.5 76.6 Z M 638.5 228.5 "></path></clipPath><g clip-path="url(#clip-3193)"><g><clipPath id="clip-3194"><path d="M 702.3 76.6 L 703.3 76.6 L 703.3 228.5 L 702.3 228.5 Z M 702.3 76.6 "></path></clipPath><g clip-path="url(#clip-3194)"><path d="M 65.8 1.5 L 65.8 153.4 " fill="none" stroke="#52575F" stroke-width="1.00" stroke-dasharray="2.0, 2.0" transform="matrix(1.00, 0.00, 0.00, -1.00, 637.0, 230.0)"></path></g></g></g></g><g><clipPath id="clip-3195"><path d="M 638.5 228.5 L 745.8 228.5 L 745.8 76.6 L 638.5 76.6 Z M 638.5 228.5 "></path></clipPath><g clip-path="url(#clip-3195)"><g><clipPath id="clip-3196"><path d="M 723.6 76.6 L 724.6 76.6 L 724.6 228.5 L 723.6 228.5 Z M 723.6 76.6 "></path></clipPath><g clip-path="url(#clip-3196)"><path d="M 87.1 1.5 L 87.1 153.4 " fill="none" stroke="#52575F" stroke-width="1.00" stroke-dasharray="2.0, 2.0" transform="matrix(1.00, 0.00, 0.00, -1.00, 637.0, 230.0)"></path></g></g></g></g><g><clipPath id="clip-3197"><path d="M 638.5 228.5 L 745.8 228.5 L 745.8 76.6 L 638.5 76.6 Z M 638.5 228.5 "></path></clipPath><g clip-path="url(#clip-3197)"><g><clipPath id="clip-3198"><path d="M 638.5 208.6 L 745.8 208.6 L 745.8 209.6 L 638.5 209.6 Z M 638.5 208.6 "></path></clipPath><g clip-path="url(#clip-3198)"><path d="M 1.5 20.9 L 108.8 20.9 " fill="none" stroke="#52575F" stroke-width="1.00" stroke-dasharray="2.0, 2.0" transform="matrix(1.00, 0.00, 0.00, -1.00, 637.0, 230.0)"></path></g></g></g></g><g><clipPath id="clip-3199"><path d="M 638.5 228.5 L 745.8 228.5 L 745.8 76.6 L 638.5 76.6 Z M 638.5 228.5 "></path></clipPath><g clip-path="url(#clip-3199)"><g><clipPath id="clip-3200"><path d="M 638.5 189.8 L 745.8 189.8 L 745.8 190.8 L 638.5 190.8 Z M 638.5 189.8 "></path></clipPath><g clip-path="url(#clip-3200)"><path d="M 1.5 39.7 L 108.8 39.7 " fill="none" stroke="#52575F" stroke-width="1.00" stroke-dasharray="2.0, 2.0" transform="matrix(1.00, 0.00, 0.00, -1.00, 637.0, 230.0)"></path></g></g></g></g><g><clipPath id="clip-3201"><path d="M 638.5 228.5 L 745.8 228.5 L 745.8 76.6 L 638.5 76.6 Z M 638.5 228.5 "></path></clipPath><g clip-path="url(#clip-3201)"><g><clipPath id="clip-3202"><path d="M 638.5 170.9 L 745.8 170.9 L 745.8 171.9 L 638.5 171.9 Z M 638.5 170.9 "></path></clipPath><g clip-path="url(#clip-3202)"><path d="M 1.5 58.6 L 108.8 58.6 " fill="none" stroke="#52575F" stroke-width="1.00" stroke-dasharray="2.0, 2.0" transform="matrix(1.00, 0.00, 0.00, -1.00, 637.0, 230.0)"></path></g></g></g></g><g><clipPath id="clip-3203"><path d="M 638.5 228.5 L 745.8 228.5 L 745.8 76.6 L 638.5 76.6 Z M 638.5 228.5 "></path></clipPath><g clip-path="url(#clip-3203)"><g><clipPath id="clip-3204"><path d="M 638.5 152.1 L 745.8 152.1 L 745.8 153.1 L 638.5 153.1 Z M 638.5 152.1 "></path></clipPath><g clip-path="url(#clip-3204)"><path d="M 1.5 77.4 L 108.8 77.4 " fill="none" stroke="#52575F" stroke-width="1.00" stroke-dasharray="2.0, 2.0" transform="matrix(1.00, 0.00, 0.00, -1.00, 637.0, 230.0)"></path></g></g></g></g><g><clipPath id="clip-3205"><path d="M 638.5 228.5 L 745.8 228.5 L 745.8 76.6 L 638.5 76.6 Z M 638.5 228.5 "></path></clipPath><g clip-path="url(#clip-3205)"><g><clipPath id="clip-3206"><path d="M 638.5 133.2 L 745.8 133.2 L 745.8 134.2 L 638.5 134.2 Z M 638.5 133.2 "></path></clipPath><g clip-path="url(#clip-3206)"><path d="M 1.5 96.3 L 108.8 96.3 " fill="none" stroke="#52575F" stroke-width="1.00" stroke-dasharray="2.0, 2.0" transform="matrix(1.00, 0.00, 0.00, -1.00, 637.0, 230.0)"></path></g></g></g></g><g><clipPath id="clip-3207"><path d="M 638.5 228.5 L 745.8 228.5 L 745.8 76.6 L 638.5 76.6 Z M 638.5 228.5 "></path></clipPath><g clip-path="url(#clip-3207)"><g><clipPath id="clip-3208"><path d="M 638.5 114.3 L 745.8 114.3 L 745.8 115.3 L 638.5 115.3 Z M 638.5 114.3 "></path></clipPath><g clip-path="url(#clip-3208)"><path d="M 1.5 115.2 L 108.8 115.2 " fill="none" stroke="#52575F" stroke-width="1.00" stroke-dasharray="2.0, 2.0" transform="matrix(1.00, 0.00, 0.00, -1.00, 637.0, 230.0)"></path></g></g></g></g><g><clipPath id="clip-3209"><path d="M 638.5 228.5 L 745.8 228.5 L 745.8 76.6 L 638.5 76.6 Z M 638.5 228.5 "></path></clipPath><g clip-path="url(#clip-3209)"><g><clipPath id="clip-3210"><path d="M 638.5 95.5 L 745.8 95.5 L 745.8 96.5 L 638.5 96.5 Z M 638.5 95.5 "></path></clipPath><g clip-path="url(#clip-3210)"><path d="M 1.5 134.0 L 108.8 134.0 " fill="none" stroke="#52575F" stroke-width="1.00" stroke-dasharray="2.0, 2.0" transform="matrix(1.00, 0.00, 0.00, -1.00, 637.0, 230.0)"></path></g></g></g></g><g><clipPath id="clip-3211"><path d="M 638.5 228.5 L 745.8 228.5 L 745.8 76.6 L 638.5 76.6 Z M 638.5 228.5 "></path></clipPath><g clip-path="url(#clip-3211)"><path d="M 2.0 1.5 L 2.0 153.4 " fill="none" stroke="#FEFFFE" stroke-width="1.00" transform="matrix(1.00, 0.00, 0.00, -1.00, 637.0, 230.0)"></path><path d="M 108.3 1.5 L 108.3 153.4 " fill="none" stroke="#FEFFFF" stroke-width="1.00" transform="matrix(1.00, 0.00, 0.00, -1.00, 637.0, 230.0)"></path><path d="M 1.5 2.0 L 108.8 2.0 " fill="none" stroke="#FEFFFE" stroke-width="1.00" transform="matrix(1.00, 0.00, 0.00, -1.00, 637.0, 230.0)"></path><path d="M 1.5 152.9 L 108.8 152.9 " fill="none" stroke="#FEFFFE" stroke-width="1.00" transform="matrix(1.00, 0.00, 0.00, -1.00, 637.0, 230.0)"></path></g></g><g><clipPath id="clip-3212"><path d="M 757.5 310.5 L 864.8 310.5 L 864.8 158.6 L 757.5 158.6 Z M 757.5 310.5 "></path></clipPath><g clip-path="url(#clip-3212)"><g><clipPath id="clip-3213"><path d="M 778.8 158.6 L 779.8 158.6 L 779.8 310.5 L 778.8 310.5 Z M 778.8 158.6 "></path></clipPath><g clip-path="url(#clip-3213)"><path d="M 23.3 1.5 L 23.3 153.4 " fill="none" stroke="#52575F" stroke-width="1.00" stroke-dasharray="2.0, 2.0" transform="matrix(1.00, 0.00, 0.00, -1.00, 756.0, 312.0)"></path></g></g></g></g><g><clipPath id="clip-3214"><path d="M 757.5 310.5 L 864.8 310.5 L 864.8 158.6 L 757.5 158.6 Z M 757.5 310.5 "></path></clipPath><g clip-path="url(#clip-3214)"><g><clipPath id="clip-3215"><path d="M 800.0 158.6 L 801.0 158.6 L 801.0 310.5 L 800.0 310.5 Z M 800.0 158.6 "></path></clipPath><g clip-path="url(#clip-3215)"><path d="M 44.5 1.5 L 44.5 153.4 " fill="none" stroke="#52575F" stroke-width="1.00" stroke-dasharray="2.0, 2.0" transform="matrix(1.00, 0.00, 0.00, -1.00, 756.0, 312.0)"></path></g></g></g></g><g><clipPath id="clip-3216"><path d="M 757.5 310.5 L 864.8 310.5 L 864.8 158.6 L 757.5 158.6 Z M 757.5 310.5 "></path></clipPath><g clip-path="url(#clip-3216)"><g><clipPath id="clip-3217"><path d="M 821.3 158.6 L 822.3 158.6 L 822.3 310.5 L 821.3 310.5 Z M 821.3 158.6 "></path></clipPath><g clip-path="url(#clip-3217)"><path d="M 65.8 1.5 L 65.8 153.4 " fill="none" stroke="#52575F" stroke-width="1.00" stroke-dasharray="2.0, 2.0" transform="matrix(1.00, 0.00, 0.00, -1.00, 756.0, 312.0)"></path></g></g></g></g><g><clipPath id="clip-3218"><path d="M 757.5 310.5 L 864.8 310.5 L 864.8 158.6 L 757.5 158.6 Z M 757.5 310.5 "></path></clipPath><g clip-path="url(#clip-3218)"><g><clipPath id="clip-3219"><path d="M 842.6 158.6 L 843.6 158.6 L 843.6 310.5 L 842.6 310.5 Z M 842.6 158.6 "></path></clipPath><g clip-path="url(#clip-3219)"><path d="M 87.1 1.5 L 87.1 153.4 " fill="none" stroke="#52575F" stroke-width="1.00" stroke-dasharray="2.0, 2.0" transform="matrix(1.00, 0.00, 0.00, -1.00, 756.0, 312.0)"></path></g></g></g></g><g><clipPath id="clip-3220"><path d="M 757.5 310.5 L 864.8 310.5 L 864.8 158.6 L 757.5 158.6 Z M 757.5 310.5 "></path></clipPath><g clip-path="url(#clip-3220)"><g><clipPath id="clip-3221"><path d="M 757.5 290.6 L 864.8 290.6 L 864.8 291.6 L 757.5 291.6 Z M 757.5 290.6 "></path></clipPath><g clip-path="url(#clip-3221)"><path d="M 1.5 20.9 L 108.8 20.9 " fill="none" stroke="#52575F" stroke-width="1.00" stroke-dasharray="2.0, 2.0" transform="matrix(1.00, 0.00, 0.00, -1.00, 756.0, 312.0)"></path></g></g></g></g><g><clipPath id="clip-3222"><path d="M 757.5 310.5 L 864.8 310.5 L 864.8 158.6 L 757.5 158.6 Z M 757.5 310.5 "></path></clipPath><g clip-path="url(#clip-3222)"><g><clipPath id="clip-3223"><path d="M 757.5 271.8 L 864.8 271.8 L 864.8 272.8 L 757.5 272.8 Z M 757.5 271.8 "></path></clipPath><g clip-path="url(#clip-3223)"><path d="M 1.5 39.7 L 108.8 39.7 " fill="none" stroke="#52575F" stroke-width="1.00" stroke-dasharray="2.0, 2.0" transform="matrix(1.00, 0.00, 0.00, -1.00, 756.0, 312.0)"></path></g></g></g></g><g><clipPath id="clip-3224"><path d="M 757.5 310.5 L 864.8 310.5 L 864.8 158.6 L 757.5 158.6 Z M 757.5 310.5 "></path></clipPath><g clip-path="url(#clip-3224)"><g><clipPath id="clip-3225"><path d="M 757.5 252.9 L 864.8 252.9 L 864.8 253.9 L 757.5 253.9 Z M 757.5 252.9 "></path></clipPath><g clip-path="url(#clip-3225)"><path d="M 1.5 58.6 L 108.8 58.6 " fill="none" stroke="#52575F" stroke-width="1.00" stroke-dasharray="2.0, 2.0" transform="matrix(1.00, 0.00, 0.00, -1.00, 756.0, 312.0)"></path></g></g></g></g><g><clipPath id="clip-3226"><path d="M 757.5 310.5 L 864.8 310.5 L 864.8 158.6 L 757.5 158.6 Z M 757.5 310.5 "></path></clipPath><g clip-path="url(#clip-3226)"><g><clipPath id="clip-3227"><path d="M 757.5 234.1 L 864.8 234.1 L 864.8 235.1 L 757.5 235.1 Z M 757.5 234.1 "></path></clipPath><g clip-path="url(#clip-3227)"><path d="M 1.5 77.4 L 108.8 77.4 " fill="none" stroke="#52575F" stroke-width="1.00" stroke-dasharray="2.0, 2.0" transform="matrix(1.00, 0.00, 0.00, -1.00, 756.0, 312.0)"></path></g></g></g></g><g><clipPath id="clip-3228"><path d="M 757.5 310.5 L 864.8 310.5 L 864.8 158.6 L 757.5 158.6 Z M 757.5 310.5 "></path></clipPath><g clip-path="url(#clip-3228)"><g><clipPath id="clip-3229"><path d="M 757.5 215.2 L 864.8 215.2 L 864.8 216.2 L 757.5 216.2 Z M 757.5 215.2 "></path></clipPath><g clip-path="url(#clip-3229)"><path d="M 1.5 96.3 L 108.8 96.3 " fill="none" stroke="#52575F" stroke-width="1.00" stroke-dasharray="2.0, 2.0" transform="matrix(1.00, 0.00, 0.00, -1.00, 756.0, 312.0)"></path></g></g></g></g><g><clipPath id="clip-3230"><path d="M 757.5 310.5 L 864.8 310.5 L 864.8 158.6 L 757.5 158.6 Z M 757.5 310.5 "></path></clipPath><g clip-path="url(#clip-3230)"><g><clipPath id="clip-3231"><path d="M 757.5 196.3 L 864.8 196.3 L 864.8 197.3 L 757.5 197.3 Z M 757.5 196.3 "></path></clipPath><g clip-path="url(#clip-3231)"><path d="M 1.5 115.2 L 108.8 115.2 " fill="none" stroke="#52575F" stroke-width="1.00" stroke-dasharray="2.0, 2.0" transform="matrix(1.00, 0.00, 0.00, -1.00, 756.0, 312.0)"></path></g></g></g></g><g><clipPath id="clip-3232"><path d="M 757.5 310.5 L 864.8 310.5 L 864.8 158.6 L 757.5 158.6 Z M 757.5 310.5 "></path></clipPath><g clip-path="url(#clip-3232)"><g><clipPath id="clip-3233"><path d="M 757.5 177.5 L 864.8 177.5 L 864.8 178.5 L 757.5 178.5 Z M 757.5 177.5 "></path></clipPath><g clip-path="url(#clip-3233)"><path d="M 1.5 134.0 L 108.8 134.0 " fill="none" stroke="#52575F" stroke-width="1.00" stroke-dasharray="2.0, 2.0" transform="matrix(1.00, 0.00, 0.00, -1.00, 756.0, 312.0)"></path></g></g></g></g><g><clipPath id="clip-3234"><path d="M 757.5 310.5 L 864.8 310.5 L 864.8 158.6 L 757.5 158.6 Z M 757.5 310.5 "></path></clipPath><g clip-path="url(#clip-3234)"><path d="M 2.0 1.5 L 2.0 153.4 " fill="none" stroke="#FEFFFE" stroke-width="1.00" transform="matrix(1.00, 0.00, 0.00, -1.00, 756.0, 312.0)"></path><path d="M 108.3 1.5 L 108.3 153.4 " fill="none" stroke="#FEFFFF" stroke-width="1.00" transform="matrix(1.00, 0.00, 0.00, -1.00, 756.0, 312.0)"></path><path d="M 1.5 2.0 L 108.8 2.0 " fill="none" stroke="#FEFFFE" stroke-width="1.00" transform="matrix(1.00, 0.00, 0.00, -1.00, 756.0, 312.0)"></path><path d="M 1.5 152.9 L 108.8 152.9 " fill="none" stroke="#FEFFFE" stroke-width="1.00" transform="matrix(1.00, 0.00, 0.00, -1.00, 756.0, 312.0)"></path></g></g><g><clipPath id="clip-3235"><path d="M 521.5 232.5 L 628.8 232.5 L 628.8 80.6 L 521.5 80.6 Z M 521.5 232.5 "></path></clipPath><g clip-path="url(#clip-3235)"><g><clipPath id="clip-3236"><path d="M 542.8 80.6 L 543.8 80.6 L 543.8 232.5 L 542.8 232.5 Z M 542.8 80.6 "></path></clipPath><g clip-path="url(#clip-3236)"><path d="M 23.3 1.5 L 23.3 153.4 " fill="none" stroke="#52575F" stroke-width="1.00" stroke-dasharray="2.0, 2.0" transform="matrix(1.00, 0.00, 0.00, -1.00, 520.0, 234.0)"></path></g></g></g></g><g><clipPath id="clip-3237"><path d="M 521.5 232.5 L 628.8 232.5 L 628.8 80.6 L 521.5 80.6 Z M 521.5 232.5 "></path></clipPath><g clip-path="url(#clip-3237)"><g><clipPath id="clip-3238"><path d="M 564.0 80.6 L 565.0 80.6 L 565.0 232.5 L 564.0 232.5 Z M 564.0 80.6 "></path></clipPath><g clip-path="url(#clip-3238)"><path d="M 44.5 1.5 L 44.5 153.4 " fill="none" stroke="#52575F" stroke-width="1.00" stroke-dasharray="2.0, 2.0" transform="matrix(1.00, 0.00, 0.00, -1.00, 520.0, 234.0)"></path></g></g></g></g><g><clipPath id="clip-3239"><path d="M 521.5 232.5 L 628.8 232.5 L 628.8 80.6 L 521.5 80.6 Z M 521.5 232.5 "></path></clipPath><g clip-path="url(#clip-3239)"><g><clipPath id="clip-3240"><path d="M 585.3 80.6 L 586.3 80.6 L 586.3 232.5 L 585.3 232.5 Z M 585.3 80.6 "></path></clipPath><g clip-path="url(#clip-3240)"><path d="M 65.8 1.5 L 65.8 153.4 " fill="none" stroke="#52575F" stroke-width="1.00" stroke-dasharray="2.0, 2.0" transform="matrix(1.00, 0.00, 0.00, -1.00, 520.0, 234.0)"></path></g></g></g></g><g><clipPath id="clip-3241"><path d="M 521.5 232.5 L 628.8 232.5 L 628.8 80.6 L 521.5 80.6 Z M 521.5 232.5 "></path></clipPath><g clip-path="url(#clip-3241)"><g><clipPath id="clip-3242"><path d="M 606.6 80.6 L 607.6 80.6 L 607.6 232.5 L 606.6 232.5 Z M 606.6 80.6 "></path></clipPath><g clip-path="url(#clip-3242)"><path d="M 87.1 1.5 L 87.1 153.4 " fill="none" stroke="#52575F" stroke-width="1.00" stroke-dasharray="2.0, 2.0" transform="matrix(1.00, 0.00, 0.00, -1.00, 520.0, 234.0)"></path></g></g></g></g><g><clipPath id="clip-3243"><path d="M 521.5 232.5 L 628.8 232.5 L 628.8 80.6 L 521.5 80.6 Z M 521.5 232.5 "></path></clipPath><g clip-path="url(#clip-3243)"><g><clipPath id="clip-3244"><path d="M 521.5 212.6 L 628.8 212.6 L 628.8 213.6 L 521.5 213.6 Z M 521.5 212.6 "></path></clipPath><g clip-path="url(#clip-3244)"><path d="M 1.5 20.9 L 108.8 20.9 " fill="none" stroke="#52575F" stroke-width="1.00" stroke-dasharray="2.0, 2.0" transform="matrix(1.00, 0.00, 0.00, -1.00, 520.0, 234.0)"></path></g></g></g></g><g><clipPath id="clip-3245"><path d="M 521.5 232.5 L 628.8 232.5 L 628.8 80.6 L 521.5 80.6 Z M 521.5 232.5 "></path></clipPath><g clip-path="url(#clip-3245)"><g><clipPath id="clip-3246"><path d="M 521.5 193.8 L 628.8 193.8 L 628.8 194.8 L 521.5 194.8 Z M 521.5 193.8 "></path></clipPath><g clip-path="url(#clip-3246)"><path d="M 1.5 39.7 L 108.8 39.7 " fill="none" stroke="#52575F" stroke-width="1.00" stroke-dasharray="2.0, 2.0" transform="matrix(1.00, 0.00, 0.00, -1.00, 520.0, 234.0)"></path></g></g></g></g><g><clipPath id="clip-3247"><path d="M 521.5 232.5 L 628.8 232.5 L 628.8 80.6 L 521.5 80.6 Z M 521.5 232.5 "></path></clipPath><g clip-path="url(#clip-3247)"><g><clipPath id="clip-3248"><path d="M 521.5 174.9 L 628.8 174.9 L 628.8 175.9 L 521.5 175.9 Z M 521.5 174.9 "></path></clipPath><g clip-path="url(#clip-3248)"><path d="M 1.5 58.6 L 108.8 58.6 " fill="none" stroke="#52575F" stroke-width="1.00" stroke-dasharray="2.0, 2.0" transform="matrix(1.00, 0.00, 0.00, -1.00, 520.0, 234.0)"></path></g></g></g></g><g><clipPath id="clip-3249"><path d="M 521.5 232.5 L 628.8 232.5 L 628.8 80.6 L 521.5 80.6 Z M 521.5 232.5 "></path></clipPath><g clip-path="url(#clip-3249)"><g><clipPath id="clip-3250"><path d="M 521.5 156.1 L 628.8 156.1 L 628.8 157.1 L 521.5 157.1 Z M 521.5 156.1 "></path></clipPath><g clip-path="url(#clip-3250)"><path d="M 1.5 77.4 L 108.8 77.4 " fill="none" stroke="#52575F" stroke-width="1.00" stroke-dasharray="2.0, 2.0" transform="matrix(1.00, 0.00, 0.00, -1.00, 520.0, 234.0)"></path></g></g></g></g><g><clipPath id="clip-3251"><path d="M 521.5 232.5 L 628.8 232.5 L 628.8 80.6 L 521.5 80.6 Z M 521.5 232.5 "></path></clipPath><g clip-path="url(#clip-3251)"><g><clipPath id="clip-3252"><path d="M 521.5 137.2 L 628.8 137.2 L 628.8 138.2 L 521.5 138.2 Z M 521.5 137.2 "></path></clipPath><g clip-path="url(#clip-3252)"><path d="M 1.5 96.3 L 108.8 96.3 " fill="none" stroke="#52575F" stroke-width="1.00" stroke-dasharray="2.0, 2.0" transform="matrix(1.00, 0.00, 0.00, -1.00, 520.0, 234.0)"></path></g></g></g></g><g><clipPath id="clip-3253"><path d="M 521.5 232.5 L 628.8 232.5 L 628.8 80.6 L 521.5 80.6 Z M 521.5 232.5 "></path></clipPath><g clip-path="url(#clip-3253)"><g><clipPath id="clip-3254"><path d="M 521.5 118.3 L 628.8 118.3 L 628.8 119.3 L 521.5 119.3 Z M 521.5 118.3 "></path></clipPath><g clip-path="url(#clip-3254)"><path d="M 1.5 115.2 L 108.8 115.2 " fill="none" stroke="#52575F" stroke-width="1.00" stroke-dasharray="2.0, 2.0" transform="matrix(1.00, 0.00, 0.00, -1.00, 520.0, 234.0)"></path></g></g></g></g><g><clipPath id="clip-3255"><path d="M 521.5 232.5 L 628.8 232.5 L 628.8 80.6 L 521.5 80.6 Z M 521.5 232.5 "></path></clipPath><g clip-path="url(#clip-3255)"><g><clipPath id="clip-3256"><path d="M 521.5 99.5 L 628.8 99.5 L 628.8 100.5 L 521.5 100.5 Z M 521.5 99.5 "></path></clipPath><g clip-path="url(#clip-3256)"><path d="M 1.5 134.0 L 108.8 134.0 " fill="none" stroke="#52575F" stroke-width="1.00" stroke-dasharray="2.0, 2.0" transform="matrix(1.00, 0.00, 0.00, -1.00, 520.0, 234.0)"></path></g></g></g></g><g><clipPath id="clip-3257"><path d="M 521.5 232.5 L 628.8 232.5 L 628.8 80.6 L 521.5 80.6 Z M 521.5 232.5 "></path></clipPath><g clip-path="url(#clip-3257)"><path d="M 2.0 1.5 L 2.0 153.4 " fill="none" stroke="#FEFFFE" stroke-width="1.00" transform="matrix(1.00, 0.00, 0.00, -1.00, 520.0, 234.0)"></path><path d="M 108.3 1.5 L 108.3 153.4 " fill="none" stroke="#FEFFFF" stroke-width="1.00" transform="matrix(1.00, 0.00, 0.00, -1.00, 520.0, 234.0)"></path><path d="M 1.5 2.0 L 108.8 2.0 " fill="none" stroke="#FEFFFE" stroke-width="1.00" transform="matrix(1.00, 0.00, 0.00, -1.00, 520.0, 234.0)"></path><path d="M 1.5 152.9 L 108.8 152.9 " fill="none" stroke="#FEFFFE" stroke-width="1.00" transform="matrix(1.00, 0.00, 0.00, -1.00, 520.0, 234.0)"></path></g></g><image xlink:href="../../8E396BF4-52CA-4E1F-94AD-BC5C08515456/assets/DE599FB648E859053D93BEE811B8135A.png" width="106.00" height="142.00" transform="matrix(1.01, 0.00, -0.00, -0.99, 318.0, 595.0)"></image><image xlink:href="../../8E396BF4-52CA-4E1F-94AD-BC5C08515456/assets/6DDDFD7471AE2F61D9519FA871F099FC.png" width="110.00" height="143.00" transform="matrix(1.00, 0.00, -0.00, -0.99, 199.0, 518.0)"></image><image xlink:href="../../8E396BF4-52CA-4E1F-94AD-BC5C08515456/assets/C25E84DBDF47A5CBDC766300E8243A38.png" width="114.00" height="143.00" transform="matrix(1.00, 0.00, -0.00, -1.00, 197.0, 673.0)"></image><image xlink:href="../../8E396BF4-52CA-4E1F-94AD-BC5C08515456/assets/E9A5801B89102159FF8070049E7B703D.png" width="110.00" height="143.00" transform="matrix(1.00, 0.00, -0.00, -1.00, 85.0, 673.0)"></image><g><clipPath id="clip-3258"><path d="M 89.5 677.5 L 196.8 677.5 L 196.8 525.6 L 89.5 525.6 Z M 89.5 677.5 "></path></clipPath><g clip-path="url(#clip-3258)"><g><clipPath id="clip-3259"><path d="M 110.8 525.6 L 111.8 525.6 L 111.8 677.5 L 110.8 677.5 Z M 110.8 525.6 "></path></clipPath><g clip-path="url(#clip-3259)"><path d="M 23.3 1.5 L 23.3 153.4 " fill="none" stroke="#DCDDE0" stroke-width="1.00" stroke-dasharray="2.0, 2.0" transform="matrix(1.00, 0.00, 0.00, -1.00, 88.0, 679.0)"></path></g></g></g></g><g><clipPath id="clip-3260"><path d="M 89.5 677.5 L 196.8 677.5 L 196.8 525.6 L 89.5 525.6 Z M 89.5 677.5 "></path></clipPath><g clip-path="url(#clip-3260)"><g><clipPath id="clip-3261"><path d="M 132.0 525.6 L 133.0 525.6 L 133.0 677.5 L 132.0 677.5 Z M 132.0 525.6 "></path></clipPath><g clip-path="url(#clip-3261)"><path d="M 44.5 1.5 L 44.5 153.4 " fill="none" stroke="#DCDDE0" stroke-width="1.00" stroke-dasharray="2.0, 2.0" transform="matrix(1.00, 0.00, 0.00, -1.00, 88.0, 679.0)"></path></g></g></g></g><g><clipPath id="clip-3262"><path d="M 89.5 677.5 L 196.8 677.5 L 196.8 525.6 L 89.5 525.6 Z M 89.5 677.5 "></path></clipPath><g clip-path="url(#clip-3262)"><g><clipPath id="clip-3263"><path d="M 153.3 525.6 L 154.3 525.6 L 154.3 677.5 L 153.3 677.5 Z M 153.3 525.6 "></path></clipPath><g clip-path="url(#clip-3263)"><path d="M 65.8 1.5 L 65.8 153.4 " fill="none" stroke="#DCDDE0" stroke-width="1.00" stroke-dasharray="2.0, 2.0" transform="matrix(1.00, 0.00, 0.00, -1.00, 88.0, 679.0)"></path></g></g></g></g><g><clipPath id="clip-3264"><path d="M 89.5 677.5 L 196.8 677.5 L 196.8 525.6 L 89.5 525.6 Z M 89.5 677.5 "></path></clipPath><g clip-path="url(#clip-3264)"><g><clipPath id="clip-3265"><path d="M 174.6 525.6 L 175.6 525.6 L 175.6 677.5 L 174.6 677.5 Z M 174.6 525.6 "></path></clipPath><g clip-path="url(#clip-3265)"><path d="M 87.1 1.5 L 87.1 153.4 " fill="none" stroke="#DCDDE0" stroke-width="1.00" stroke-dasharray="2.0, 2.0" transform="matrix(1.00, 0.00, 0.00, -1.00, 88.0, 679.0)"></path></g></g></g></g><g><clipPath id="clip-3266"><path d="M 89.5 677.5 L 196.8 677.5 L 196.8 525.6 L 89.5 525.6 Z M 89.5 677.5 "></path></clipPath><g clip-path="url(#clip-3266)"><g><clipPath id="clip-3267"><path d="M 89.5 657.6 L 196.8 657.6 L 196.8 658.6 L 89.5 658.6 Z M 89.5 657.6 "></path></clipPath><g clip-path="url(#clip-3267)"><path d="M 1.5 20.9 L 108.8 20.9 " fill="none" stroke="#DCDDE0" stroke-width="1.00" stroke-dasharray="2.0, 2.0" transform="matrix(1.00, 0.00, 0.00, -1.00, 88.0, 679.0)"></path></g></g></g></g><g><clipPath id="clip-3268"><path d="M 89.5 677.5 L 196.8 677.5 L 196.8 525.6 L 89.5 525.6 Z M 89.5 677.5 "></path></clipPath><g clip-path="url(#clip-3268)"><g><clipPath id="clip-3269"><path d="M 89.5 638.8 L 196.8 638.8 L 196.8 639.8 L 89.5 639.8 Z M 89.5 638.8 "></path></clipPath><g clip-path="url(#clip-3269)"><path d="M 1.5 39.7 L 108.8 39.7 " fill="none" stroke="#DCDDE0" stroke-width="1.00" stroke-dasharray="2.0, 2.0" transform="matrix(1.00, 0.00, 0.00, -1.00, 88.0, 679.0)"></path></g></g></g></g><g><clipPath id="clip-3270"><path d="M 89.5 677.5 L 196.8 677.5 L 196.8 525.6 L 89.5 525.6 Z M 89.5 677.5 "></path></clipPath><g clip-path="url(#clip-3270)"><g><clipPath id="clip-3271"><path d="M 89.5 619.9 L 196.8 619.9 L 196.8 620.9 L 89.5 620.9 Z M 89.5 619.9 "></path></clipPath><g clip-path="url(#clip-3271)"><path d="M 1.5 58.6 L 108.8 58.6 " fill="none" stroke="#DCDDE0" stroke-width="1.00" stroke-dasharray="2.0, 2.0" transform="matrix(1.00, 0.00, 0.00, -1.00, 88.0, 679.0)"></path></g></g></g></g><g><clipPath id="clip-3272"><path d="M 89.5 677.5 L 196.8 677.5 L 196.8 525.6 L 89.5 525.6 Z M 89.5 677.5 "></path></clipPath><g clip-path="url(#clip-3272)"><g><clipPath id="clip-3273"><path d="M 89.5 601.1 L 196.8 601.1 L 196.8 602.1 L 89.5 602.1 Z M 89.5 601.1 "></path></clipPath><g clip-path="url(#clip-3273)"><path d="M 1.5 77.4 L 108.8 77.4 " fill="none" stroke="#DCDDE0" stroke-width="1.00" stroke-dasharray="2.0, 2.0" transform="matrix(1.00, 0.00, 0.00, -1.00, 88.0, 679.0)"></path></g></g></g></g><g><clipPath id="clip-3274"><path d="M 89.5 677.5 L 196.8 677.5 L 196.8 525.6 L 89.5 525.6 Z M 89.5 677.5 "></path></clipPath><g clip-path="url(#clip-3274)"><g><clipPath id="clip-3275"><path d="M 89.5 582.2 L 196.8 582.2 L 196.8 583.2 L 89.5 583.2 Z M 89.5 582.2 "></path></clipPath><g clip-path="url(#clip-3275)"><path d="M 1.5 96.3 L 108.8 96.3 " fill="none" stroke="#DCDDE0" stroke-width="1.00" stroke-dasharray="2.0, 2.0" transform="matrix(1.00, 0.00, 0.00, -1.00, 88.0, 679.0)"></path></g></g></g></g><g><clipPath id="clip-3276"><path d="M 89.5 677.5 L 196.8 677.5 L 196.8 525.6 L 89.5 525.6 Z M 89.5 677.5 "></path></clipPath><g clip-path="url(#clip-3276)"><g><clipPath id="clip-3277"><path d="M 89.5 563.3 L 196.8 563.3 L 196.8 564.3 L 89.5 564.3 Z M 89.5 563.3 "></path></clipPath><g clip-path="url(#clip-3277)"><path d="M 1.5 115.2 L 108.8 115.2 " fill="none" stroke="#DCDDE0" stroke-width="1.00" stroke-dasharray="2.0, 2.0" transform="matrix(1.00, 0.00, 0.00, -1.00, 88.0, 679.0)"></path></g></g></g></g><g><clipPath id="clip-3278"><path d="M 89.5 677.5 L 196.8 677.5 L 196.8 525.6 L 89.5 525.6 Z M 89.5 677.5 "></path></clipPath><g clip-path="url(#clip-3278)"><g><clipPath id="clip-3279"><path d="M 89.5 544.5 L 196.8 544.5 L 196.8 545.5 L 89.5 545.5 Z M 89.5 544.5 "></path></clipPath><g clip-path="url(#clip-3279)"><path d="M 1.5 134.0 L 108.8 134.0 " fill="none" stroke="#DCDDE0" stroke-width="1.00" stroke-dasharray="2.0, 2.0" transform="matrix(1.00, 0.00, 0.00, -1.00, 88.0, 679.0)"></path></g></g></g></g><g><clipPath id="clip-3280"><path d="M 89.5 677.5 L 196.8 677.5 L 196.8 525.6 L 89.5 525.6 Z M 89.5 677.5 "></path></clipPath><g clip-path="url(#clip-3280)"><path d="M 2.0 1.5 L 2.0 153.4 " fill="none" stroke="#FEFFFE" stroke-width="1.00" transform="matrix(1.00, 0.00, 0.00, -1.00, 88.0, 679.0)"></path><path d="M 108.3 1.5 L 108.3 153.4 " fill="none" stroke="#FEFFFF" stroke-width="1.00" transform="matrix(1.00, 0.00, 0.00, -1.00, 88.0, 679.0)"></path><path d="M 1.5 2.0 L 108.8 2.0 " fill="none" stroke="#FEFFFE" stroke-width="1.00" transform="matrix(1.00, 0.00, 0.00, -1.00, 88.0, 679.0)"></path><path d="M 1.5 152.9 L 108.8 152.9 " fill="none" stroke="#FEFFFE" stroke-width="1.00" transform="matrix(1.00, 0.00, 0.00, -1.00, 88.0, 679.0)"></path></g></g><g><clipPath id="clip-3281"><path d="M 203.5 677.5 L 310.8 677.5 L 310.8 525.6 L 203.5 525.6 Z M 203.5 677.5 "></path></clipPath><g clip-path="url(#clip-3281)"><g><clipPath id="clip-3282"><path d="M 224.8 525.6 L 225.8 525.6 L 225.8 677.5 L 224.8 677.5 Z M 224.8 525.6 "></path></clipPath><g clip-path="url(#clip-3282)"><path d="M 23.3 1.5 L 23.3 153.4 " fill="none" stroke="#DCDDE0" stroke-width="1.00" stroke-dasharray="2.0, 2.0" transform="matrix(1.00, 0.00, 0.00, -1.00, 202.0, 679.0)"></path></g></g></g></g><g><clipPath id="clip-3283"><path d="M 203.5 677.5 L 310.8 677.5 L 310.8 525.6 L 203.5 525.6 Z M 203.5 677.5 "></path></clipPath><g clip-path="url(#clip-3283)"><g><clipPath id="clip-3284"><path d="M 246.0 525.6 L 247.0 525.6 L 247.0 677.5 L 246.0 677.5 Z M 246.0 525.6 "></path></clipPath><g clip-path="url(#clip-3284)"><path d="M 44.5 1.5 L 44.5 153.4 " fill="none" stroke="#DCDDE0" stroke-width="1.00" stroke-dasharray="2.0, 2.0" transform="matrix(1.00, 0.00, 0.00, -1.00, 202.0, 679.0)"></path></g></g></g></g><g><clipPath id="clip-3285"><path d="M 203.5 677.5 L 310.8 677.5 L 310.8 525.6 L 203.5 525.6 Z M 203.5 677.5 "></path></clipPath><g clip-path="url(#clip-3285)"><g><clipPath id="clip-3286"><path d="M 267.3 525.6 L 268.3 525.6 L 268.3 677.5 L 267.3 677.5 Z M 267.3 525.6 "></path></clipPath><g clip-path="url(#clip-3286)"><path d="M 65.8 1.5 L 65.8 153.4 " fill="none" stroke="#DCDDE0" stroke-width="1.00" stroke-dasharray="2.0, 2.0" transform="matrix(1.00, 0.00, 0.00, -1.00, 202.0, 679.0)"></path></g></g></g></g><g><clipPath id="clip-3287"><path d="M 203.5 677.5 L 310.8 677.5 L 310.8 525.6 L 203.5 525.6 Z M 203.5 677.5 "></path></clipPath><g clip-path="url(#clip-3287)"><g><clipPath id="clip-3288"><path d="M 288.6 525.6 L 289.6 525.6 L 289.6 677.5 L 288.6 677.5 Z M 288.6 525.6 "></path></clipPath><g clip-path="url(#clip-3288)"><path d="M 87.1 1.5 L 87.1 153.4 " fill="none" stroke="#DCDDE0" stroke-width="1.00" stroke-dasharray="2.0, 2.0" transform="matrix(1.00, 0.00, 0.00, -1.00, 202.0, 679.0)"></path></g></g></g></g><g><clipPath id="clip-3289"><path d="M 203.5 677.5 L 310.8 677.5 L 310.8 525.6 L 203.5 525.6 Z M 203.5 677.5 "></path></clipPath><g clip-path="url(#clip-3289)"><g><clipPath id="clip-3290"><path d="M 203.5 657.6 L 310.8 657.6 L 310.8 658.6 L 203.5 658.6 Z M 203.5 657.6 "></path></clipPath><g clip-path="url(#clip-3290)"><path d="M 1.5 20.9 L 108.8 20.9 " fill="none" stroke="#DCDDE0" stroke-width="1.00" stroke-dasharray="2.0, 2.0" transform="matrix(1.00, 0.00, 0.00, -1.00, 202.0, 679.0)"></path></g></g></g></g><g><clipPath id="clip-3291"><path d="M 203.5 677.5 L 310.8 677.5 L 310.8 525.6 L 203.5 525.6 Z M 203.5 677.5 "></path></clipPath><g clip-path="url(#clip-3291)"><g><clipPath id="clip-3292"><path d="M 203.5 638.8 L 310.8 638.8 L 310.8 639.8 L 203.5 639.8 Z M 203.5 638.8 "></path></clipPath><g clip-path="url(#clip-3292)"><path d="M 1.5 39.7 L 108.8 39.7 " fill="none" stroke="#DCDDE0" stroke-width="1.00" stroke-dasharray="2.0, 2.0" transform="matrix(1.00, 0.00, 0.00, -1.00, 202.0, 679.0)"></path></g></g></g></g><g><clipPath id="clip-3293"><path d="M 203.5 677.5 L 310.8 677.5 L 310.8 525.6 L 203.5 525.6 Z M 203.5 677.5 "></path></clipPath><g clip-path="url(#clip-3293)"><g><clipPath id="clip-3294"><path d="M 203.5 619.9 L 310.8 619.9 L 310.8 620.9 L 203.5 620.9 Z M 203.5 619.9 "></path></clipPath><g clip-path="url(#clip-3294)"><path d="M 1.5 58.6 L 108.8 58.6 " fill="none" stroke="#DCDDE0" stroke-width="1.00" stroke-dasharray="2.0, 2.0" transform="matrix(1.00, 0.00, 0.00, -1.00, 202.0, 679.0)"></path></g></g></g></g><g><clipPath id="clip-3295"><path d="M 203.5 677.5 L 310.8 677.5 L 310.8 525.6 L 203.5 525.6 Z M 203.5 677.5 "></path></clipPath><g clip-path="url(#clip-3295)"><g><clipPath id="clip-3296"><path d="M 203.5 601.1 L 310.8 601.1 L 310.8 602.1 L 203.5 602.1 Z M 203.5 601.1 "></path></clipPath><g clip-path="url(#clip-3296)"><path d="M 1.5 77.4 L 108.8 77.4 " fill="none" stroke="#DCDDE0" stroke-width="1.00" stroke-dasharray="2.0, 2.0" transform="matrix(1.00, 0.00, 0.00, -1.00, 202.0, 679.0)"></path></g></g></g></g><g><clipPath id="clip-3297"><path d="M 203.5 677.5 L 310.8 677.5 L 310.8 525.6 L 203.5 525.6 Z M 203.5 677.5 "></path></clipPath><g clip-path="url(#clip-3297)"><g><clipPath id="clip-3298"><path d="M 203.5 582.2 L 310.8 582.2 L 310.8 583.2 L 203.5 583.2 Z M 203.5 582.2 "></path></clipPath><g clip-path="url(#clip-3298)"><path d="M 1.5 96.3 L 108.8 96.3 " fill="none" stroke="#DCDDE0" stroke-width="1.00" stroke-dasharray="2.0, 2.0" transform="matrix(1.00, 0.00, 0.00, -1.00, 202.0, 679.0)"></path></g></g></g></g><g><clipPath id="clip-3299"><path d="M 203.5 677.5 L 310.8 677.5 L 310.8 525.6 L 203.5 525.6 Z M 203.5 677.5 "></path></clipPath><g clip-path="url(#clip-3299)"><g><clipPath id="clip-3300"><path d="M 203.5 563.3 L 310.8 563.3 L 310.8 564.3 L 203.5 564.3 Z M 203.5 563.3 "></path></clipPath><g clip-path="url(#clip-3300)"><path d="M 1.5 115.2 L 108.8 115.2 " fill="none" stroke="#DCDDE0" stroke-width="1.00" stroke-dasharray="2.0, 2.0" transform="matrix(1.00, 0.00, 0.00, -1.00, 202.0, 679.0)"></path></g></g></g></g><g><clipPath id="clip-3301"><path d="M 203.5 677.5 L 310.8 677.5 L 310.8 525.6 L 203.5 525.6 Z M 203.5 677.5 "></path></clipPath><g clip-path="url(#clip-3301)"><g><clipPath id="clip-3302"><path d="M 203.5 544.5 L 310.8 544.5 L 310.8 545.5 L 203.5 545.5 Z M 203.5 544.5 "></path></clipPath><g clip-path="url(#clip-3302)"><path d="M 1.5 134.0 L 108.8 134.0 " fill="none" stroke="#DCDDE0" stroke-width="1.00" stroke-dasharray="2.0, 2.0" transform="matrix(1.00, 0.00, 0.00, -1.00, 202.0, 679.0)"></path></g></g></g></g><g><clipPath id="clip-3303"><path d="M 203.5 677.5 L 310.8 677.5 L 310.8 525.6 L 203.5 525.6 Z M 203.5 677.5 "></path></clipPath><g clip-path="url(#clip-3303)"><path d="M 2.0 1.5 L 2.0 153.4 " fill="none" stroke="#FEFFFE" stroke-width="1.00" transform="matrix(1.00, 0.00, 0.00, -1.00, 202.0, 679.0)"></path><path d="M 108.3 1.5 L 108.3 153.4 " fill="none" stroke="#FEFFFF" stroke-width="1.00" transform="matrix(1.00, 0.00, 0.00, -1.00, 202.0, 679.0)"></path><path d="M 1.5 2.0 L 108.8 2.0 " fill="none" stroke="#FEFFFE" stroke-width="1.00" transform="matrix(1.00, 0.00, 0.00, -1.00, 202.0, 679.0)"></path><path d="M 1.5 152.9 L 108.8 152.9 " fill="none" stroke="#FEFFFE" stroke-width="1.00" transform="matrix(1.00, 0.00, 0.00, -1.00, 202.0, 679.0)"></path></g></g><g><clipPath id="clip-3304"><path d="M 200.5 518.5 L 307.8 518.5 L 307.8 366.6 L 200.5 366.6 Z M 200.5 518.5 "></path></clipPath><g clip-path="url(#clip-3304)"><g><clipPath id="clip-3305"><path d="M 221.8 366.6 L 222.8 366.6 L 222.8 518.5 L 221.8 518.5 Z M 221.8 366.6 "></path></clipPath><g clip-path="url(#clip-3305)"><path d="M 23.3 1.5 L 23.3 153.4 " fill="none" stroke="#DCDDE0" stroke-width="1.00" stroke-dasharray="2.0, 2.0" transform="matrix(1.00, 0.00, 0.00, -1.00, 199.0, 520.0)"></path></g></g></g></g><g><clipPath id="clip-3306"><path d="M 200.5 518.5 L 307.8 518.5 L 307.8 366.6 L 200.5 366.6 Z M 200.5 518.5 "></path></clipPath><g clip-path="url(#clip-3306)"><g><clipPath id="clip-3307"><path d="M 243.0 366.6 L 244.0 366.6 L 244.0 518.5 L 243.0 518.5 Z M 243.0 366.6 "></path></clipPath><g clip-path="url(#clip-3307)"><path d="M 44.5 1.5 L 44.5 153.4 " fill="none" stroke="#DCDDE0" stroke-width="1.00" stroke-dasharray="2.0, 2.0" transform="matrix(1.00, 0.00, 0.00, -1.00, 199.0, 520.0)"></path></g></g></g></g><g><clipPath id="clip-3308"><path d="M 200.5 518.5 L 307.8 518.5 L 307.8 366.6 L 200.5 366.6 Z M 200.5 518.5 "></path></clipPath><g clip-path="url(#clip-3308)"><g><clipPath id="clip-3309"><path d="M 264.3 366.6 L 265.3 366.6 L 265.3 518.5 L 264.3 518.5 Z M 264.3 366.6 "></path></clipPath><g clip-path="url(#clip-3309)"><path d="M 65.8 1.5 L 65.8 153.4 " fill="none" stroke="#DCDDE0" stroke-width="1.00" stroke-dasharray="2.0, 2.0" transform="matrix(1.00, 0.00, 0.00, -1.00, 199.0, 520.0)"></path></g></g></g></g><g><clipPath id="clip-3310"><path d="M 200.5 518.5 L 307.8 518.5 L 307.8 366.6 L 200.5 366.6 Z M 200.5 518.5 "></path></clipPath><g clip-path="url(#clip-3310)"><g><clipPath id="clip-3311"><path d="M 285.6 366.6 L 286.6 366.6 L 286.6 518.5 L 285.6 518.5 Z M 285.6 366.6 "></path></clipPath><g clip-path="url(#clip-3311)"><path d="M 87.1 1.5 L 87.1 153.4 " fill="none" stroke="#DCDDE0" stroke-width="1.00" stroke-dasharray="2.0, 2.0" transform="matrix(1.00, 0.00, 0.00, -1.00, 199.0, 520.0)"></path></g></g></g></g><g><clipPath id="clip-3312"><path d="M 200.5 518.5 L 307.8 518.5 L 307.8 366.6 L 200.5 366.6 Z M 200.5 518.5 "></path></clipPath><g clip-path="url(#clip-3312)"><g><clipPath id="clip-3313"><path d="M 200.5 498.6 L 307.8 498.6 L 307.8 499.6 L 200.5 499.6 Z M 200.5 498.6 "></path></clipPath><g clip-path="url(#clip-3313)"><path d="M 1.5 20.9 L 108.8 20.9 " fill="none" stroke="#DCDDE0" stroke-width="1.00" stroke-dasharray="2.0, 2.0" transform="matrix(1.00, 0.00, 0.00, -1.00, 199.0, 520.0)"></path></g></g></g></g><g><clipPath id="clip-3314"><path d="M 200.5 518.5 L 307.8 518.5 L 307.8 366.6 L 200.5 366.6 Z M 200.5 518.5 "></path></clipPath><g clip-path="url(#clip-3314)"><g><clipPath id="clip-3315"><path d="M 200.5 479.8 L 307.8 479.8 L 307.8 480.8 L 200.5 480.8 Z M 200.5 479.8 "></path></clipPath><g clip-path="url(#clip-3315)"><path d="M 1.5 39.7 L 108.8 39.7 " fill="none" stroke="#DCDDE0" stroke-width="1.00" stroke-dasharray="2.0, 2.0" transform="matrix(1.00, 0.00, 0.00, -1.00, 199.0, 520.0)"></path></g></g></g></g><g><clipPath id="clip-3316"><path d="M 200.5 518.5 L 307.8 518.5 L 307.8 366.6 L 200.5 366.6 Z M 200.5 518.5 "></path></clipPath><g clip-path="url(#clip-3316)"><g><clipPath id="clip-3317"><path d="M 200.5 460.9 L 307.8 460.9 L 307.8 461.9 L 200.5 461.9 Z M 200.5 460.9 "></path></clipPath><g clip-path="url(#clip-3317)"><path d="M 1.5 58.6 L 108.8 58.6 " fill="none" stroke="#DCDDE0" stroke-width="1.00" stroke-dasharray="2.0, 2.0" transform="matrix(1.00, 0.00, 0.00, -1.00, 199.0, 520.0)"></path></g></g></g></g><g><clipPath id="clip-3318"><path d="M 200.5 518.5 L 307.8 518.5 L 307.8 366.6 L 200.5 366.6 Z M 200.5 518.5 "></path></clipPath><g clip-path="url(#clip-3318)"><g><clipPath id="clip-3319"><path d="M 200.5 442.1 L 307.8 442.1 L 307.8 443.1 L 200.5 443.1 Z M 200.5 442.1 "></path></clipPath><g clip-path="url(#clip-3319)"><path d="M 1.5 77.4 L 108.8 77.4 " fill="none" stroke="#DCDDE0" stroke-width="1.00" stroke-dasharray="2.0, 2.0" transform="matrix(1.00, 0.00, 0.00, -1.00, 199.0, 520.0)"></path></g></g></g></g><g><clipPath id="clip-3320"><path d="M 200.5 518.5 L 307.8 518.5 L 307.8 366.6 L 200.5 366.6 Z M 200.5 518.5 "></path></clipPath><g clip-path="url(#clip-3320)"><g><clipPath id="clip-3321"><path d="M 200.5 423.2 L 307.8 423.2 L 307.8 424.2 L 200.5 424.2 Z M 200.5 423.2 "></path></clipPath><g clip-path="url(#clip-3321)"><path d="M 1.5 96.3 L 108.8 96.3 " fill="none" stroke="#DCDDE0" stroke-width="1.00" stroke-dasharray="2.0, 2.0" transform="matrix(1.00, 0.00, 0.00, -1.00, 199.0, 520.0)"></path></g></g></g></g><g><clipPath id="clip-3322"><path d="M 200.5 518.5 L 307.8 518.5 L 307.8 366.6 L 200.5 366.6 Z M 200.5 518.5 "></path></clipPath><g clip-path="url(#clip-3322)"><g><clipPath id="clip-3323"><path d="M 200.5 404.3 L 307.8 404.3 L 307.8 405.3 L 200.5 405.3 Z M 200.5 404.3 "></path></clipPath><g clip-path="url(#clip-3323)"><path d="M 1.5 115.2 L 108.8 115.2 " fill="none" stroke="#DCDDE0" stroke-width="1.00" stroke-dasharray="2.0, 2.0" transform="matrix(1.00, 0.00, 0.00, -1.00, 199.0, 520.0)"></path></g></g></g></g><g><clipPath id="clip-3324"><path d="M 200.5 518.5 L 307.8 518.5 L 307.8 366.6 L 200.5 366.6 Z M 200.5 518.5 "></path></clipPath><g clip-path="url(#clip-3324)"><g><clipPath id="clip-3325"><path d="M 200.5 385.5 L 307.8 385.5 L 307.8 386.5 L 200.5 386.5 Z M 200.5 385.5 "></path></clipPath><g clip-path="url(#clip-3325)"><path d="M 1.5 134.0 L 108.8 134.0 " fill="none" stroke="#DCDDE0" stroke-width="1.00" stroke-dasharray="2.0, 2.0" transform="matrix(1.00, 0.00, 0.00, -1.00, 199.0, 520.0)"></path></g></g></g></g><g><clipPath id="clip-3326"><path d="M 200.5 518.5 L 307.8 518.5 L 307.8 366.6 L 200.5 366.6 Z M 200.5 518.5 "></path></clipPath><g clip-path="url(#clip-3326)"><path d="M 2.0 1.5 L 2.0 153.4 " fill="none" stroke="#FEFFFE" stroke-width="1.00" transform="matrix(1.00, 0.00, 0.00, -1.00, 199.0, 520.0)"></path><path d="M 108.3 1.5 L 108.3 153.4 " fill="none" stroke="#FEFFFF" stroke-width="1.00" transform="matrix(1.00, 0.00, 0.00, -1.00, 199.0, 520.0)"></path><path d="M 1.5 2.0 L 108.8 2.0 " fill="none" stroke="#FEFFFE" stroke-width="1.00" transform="matrix(1.00, 0.00, 0.00, -1.00, 199.0, 520.0)"></path><path d="M 1.5 152.9 L 108.8 152.9 " fill="none" stroke="#FEFFFE" stroke-width="1.00" transform="matrix(1.00, 0.00, 0.00, -1.00, 199.0, 520.0)"></path></g></g><image xlink:href="../../AB3AFD53-C152-41CE-96CC-74DF7F93BC83/assets/4158F4E43C4E589B4CBAEDB5968551CE.png" width="23.00" height="20.00" transform="matrix(0.96, 0.00, -0.00, -1.00, 548.0, 351.0)"></image><image xlink:href="../../AB3AFD53-C152-41CE-96CC-74DF7F93BC83/assets/4158F4E43C4E589B4CBAEDB5968551CE.png" width="23.00" height="20.00" transform="matrix(1.00, 0.00, -0.00, -1.00, 591.0, 313.0)"></image><image xlink:href="../../AB3AFD53-C152-41CE-96CC-74DF7F93BC83/assets/4158F4E43C4E589B4CBAEDB5968551CE.png" width="23.00" height="20.00" transform="matrix(1.00, 0.00, -0.00, -1.00, 591.0, 369.0)"></image><image xlink:href="../../7FF1498D-CB27-4344-AB65-99EE17602934/assets/56135C9205F52C56B96E6D5B6B5C977A.png" width="22.00" height="20.00" transform="matrix(1.00, 0.00, -0.00, -1.00, 585.0, 157.0)"></image><image xlink:href="../../7FF1498D-CB27-4344-AB65-99EE17602934/assets/56135C9205F52C56B96E6D5B6B5C977A.png" width="22.00" height="20.00" transform="matrix(1.00, 0.00, -0.00, -1.00, 521.0, 195.0)"></image><image xlink:href="../../AB3AFD53-C152-41CE-96CC-74DF7F93BC83/assets/A9B2B295301E81DCD910CFCFDF15B6A9.png" width="19.00" height="20.00" transform="matrix(1.00, 0.00, -0.00, -1.00, 803.0, 274.0)"></image><image xlink:href="../../AB3AFD53-C152-41CE-96CC-74DF7F93BC83/assets/0C2F4F5269EB88961B2CEC2057E67994.png" width="21.00" height="19.00" transform="matrix(0.95, 0.00, -0.00, -0.95, 683.0, 172.0)"></image><image xlink:href="../../AB3AFD53-C152-41CE-96CC-74DF7F93BC83/assets/5747C4F14C218A82D3E42CE2EE191090.png" width="22.00" height="20.00" transform="matrix(0.95, 0.00, -0.00, -1.00, 685.0, 331.0)"></image><image xlink:href="../../AB3AFD53-C152-41CE-96CC-74DF7F93BC83/assets/A9B2B295301E81DCD910CFCFDF15B6A9.png" width="19.00" height="20.00" transform="matrix(1.00, 0.00, -0.00, -1.00, 823.0, 236.0)"></image><image xlink:href="../../AB3AFD53-C152-41CE-96CC-74DF7F93BC83/assets/A9B2B295301E81DCD910CFCFDF15B6A9.png" width="19.00" height="20.00" transform="matrix(1.00, 0.00, -0.00, -1.00, 760.0, 293.0)"></image><image xlink:href="../../AB3AFD53-C152-41CE-96CC-74DF7F93BC83/assets/5747C4F14C218A82D3E42CE2EE191090.png" width="22.00" height="20.00" transform="matrix(0.95, 0.00, -0.00, -1.00, 705.0, 350.0)"></image><image xlink:href="../../AB3AFD53-C152-41CE-96CC-74DF7F93BC83/assets/0C2F4F5269EB88961B2CEC2057E67994.png" width="21.00" height="19.00" transform="matrix(0.95, 0.00, -0.00, -1.00, 682.0, 116.0)"></image><image xlink:href="../../AB3AFD53-C152-41CE-96CC-74DF7F93BC83/assets/0C2F4F5269EB88961B2CEC2057E67994.png" width="21.00" height="19.00" transform="matrix(0.95, 0.00, -0.00, -0.95, 660.0, 153.0)"></image><g><clipPath id="clip-3327"><path d="M 319.5 600.5 L 426.8 600.5 L 426.8 448.6 L 319.5 448.6 Z M 319.5 600.5 "></path></clipPath><g clip-path="url(#clip-3327)"><g><clipPath id="clip-3328"><path d="M 340.8 448.6 L 341.8 448.6 L 341.8 600.5 L 340.8 600.5 Z M 340.8 448.6 "></path></clipPath><g clip-path="url(#clip-3328)"><path d="M 23.3 1.5 L 23.3 153.4 " fill="none" stroke="#DCDDE0" stroke-width="1.00" stroke-dasharray="2.0, 2.0" transform="matrix(1.00, 0.00, 0.00, -1.00, 318.0, 602.0)"></path></g></g></g></g><g><clipPath id="clip-3329"><path d="M 319.5 600.5 L 426.8 600.5 L 426.8 448.6 L 319.5 448.6 Z M 319.5 600.5 "></path></clipPath><g clip-path="url(#clip-3329)"><g><clipPath id="clip-3330"><path d="M 362.0 448.6 L 363.0 448.6 L 363.0 600.5 L 362.0 600.5 Z M 362.0 448.6 "></path></clipPath><g clip-path="url(#clip-3330)"><path d="M 44.5 1.5 L 44.5 153.4 " fill="none" stroke="#DCDDE0" stroke-width="1.00" stroke-dasharray="2.0, 2.0" transform="matrix(1.00, 0.00, 0.00, -1.00, 318.0, 602.0)"></path></g></g></g></g><g><clipPath id="clip-3331"><path d="M 319.5 600.5 L 426.8 600.5 L 426.8 448.6 L 319.5 448.6 Z M 319.5 600.5 "></path></clipPath><g clip-path="url(#clip-3331)"><g><clipPath id="clip-3332"><path d="M 383.3 448.6 L 384.3 448.6 L 384.3 600.5 L 383.3 600.5 Z M 383.3 448.6 "></path></clipPath><g clip-path="url(#clip-3332)"><path d="M 65.8 1.5 L 65.8 153.4 " fill="none" stroke="#DCDDE0" stroke-width="1.00" stroke-dasharray="2.0, 2.0" transform="matrix(1.00, 0.00, 0.00, -1.00, 318.0, 602.0)"></path></g></g></g></g><g><clipPath id="clip-3333"><path d="M 319.5 600.5 L 426.8 600.5 L 426.8 448.6 L 319.5 448.6 Z M 319.5 600.5 "></path></clipPath><g clip-path="url(#clip-3333)"><g><clipPath id="clip-3334"><path d="M 404.6 448.6 L 405.6 448.6 L 405.6 600.5 L 404.6 600.5 Z M 404.6 448.6 "></path></clipPath><g clip-path="url(#clip-3334)"><path d="M 87.1 1.5 L 87.1 153.4 " fill="none" stroke="#DCDDE0" stroke-width="1.00" stroke-dasharray="2.0, 2.0" transform="matrix(1.00, 0.00, 0.00, -1.00, 318.0, 602.0)"></path></g></g></g></g><g><clipPath id="clip-3335"><path d="M 319.5 600.5 L 426.8 600.5 L 426.8 448.6 L 319.5 448.6 Z M 319.5 600.5 "></path></clipPath><g clip-path="url(#clip-3335)"><g><clipPath id="clip-3336"><path d="M 319.5 580.6 L 426.8 580.6 L 426.8 581.6 L 319.5 581.6 Z M 319.5 580.6 "></path></clipPath><g clip-path="url(#clip-3336)"><path d="M 1.5 20.9 L 108.8 20.9 " fill="none" stroke="#DCDDE0" stroke-width="1.00" stroke-dasharray="2.0, 2.0" transform="matrix(1.00, 0.00, 0.00, -1.00, 318.0, 602.0)"></path></g></g></g></g><g><clipPath id="clip-3337"><path d="M 319.5 600.5 L 426.8 600.5 L 426.8 448.6 L 319.5 448.6 Z M 319.5 600.5 "></path></clipPath><g clip-path="url(#clip-3337)"><g><clipPath id="clip-3338"><path d="M 319.5 561.8 L 426.8 561.8 L 426.8 562.8 L 319.5 562.8 Z M 319.5 561.8 "></path></clipPath><g clip-path="url(#clip-3338)"><path d="M 1.5 39.7 L 108.8 39.7 " fill="none" stroke="#DCDDE0" stroke-width="1.00" stroke-dasharray="2.0, 2.0" transform="matrix(1.00, 0.00, 0.00, -1.00, 318.0, 602.0)"></path></g></g></g></g><g><clipPath id="clip-3339"><path d="M 319.5 600.5 L 426.8 600.5 L 426.8 448.6 L 319.5 448.6 Z M 319.5 600.5 "></path></clipPath><g clip-path="url(#clip-3339)"><g><clipPath id="clip-3340"><path d="M 319.5 542.9 L 426.8 542.9 L 426.8 543.9 L 319.5 543.9 Z M 319.5 542.9 "></path></clipPath><g clip-path="url(#clip-3340)"><path d="M 1.5 58.6 L 108.8 58.6 " fill="none" stroke="#DCDDE0" stroke-width="1.00" stroke-dasharray="2.0, 2.0" transform="matrix(1.00, 0.00, 0.00, -1.00, 318.0, 602.0)"></path></g></g></g></g><g><clipPath id="clip-3341"><path d="M 319.5 600.5 L 426.8 600.5 L 426.8 448.6 L 319.5 448.6 Z M 319.5 600.5 "></path></clipPath><g clip-path="url(#clip-3341)"><g><clipPath id="clip-3342"><path d="M 319.5 524.1 L 426.8 524.1 L 426.8 525.1 L 319.5 525.1 Z M 319.5 524.1 "></path></clipPath><g clip-path="url(#clip-3342)"><path d="M 1.5 77.4 L 108.8 77.4 " fill="none" stroke="#DCDDE0" stroke-width="1.00" stroke-dasharray="2.0, 2.0" transform="matrix(1.00, 0.00, 0.00, -1.00, 318.0, 602.0)"></path></g></g></g></g><g><clipPath id="clip-3343"><path d="M 319.5 600.5 L 426.8 600.5 L 426.8 448.6 L 319.5 448.6 Z M 319.5 600.5 "></path></clipPath><g clip-path="url(#clip-3343)"><g><clipPath id="clip-3344"><path d="M 319.5 505.2 L 426.8 505.2 L 426.8 506.2 L 319.5 506.2 Z M 319.5 505.2 "></path></clipPath><g clip-path="url(#clip-3344)"><path d="M 1.5 96.3 L 108.8 96.3 " fill="none" stroke="#DCDDE0" stroke-width="1.00" stroke-dasharray="2.0, 2.0" transform="matrix(1.00, 0.00, 0.00, -1.00, 318.0, 602.0)"></path></g></g></g></g><g><clipPath id="clip-3345"><path d="M 319.5 600.5 L 426.8 600.5 L 426.8 448.6 L 319.5 448.6 Z M 319.5 600.5 "></path></clipPath><g clip-path="url(#clip-3345)"><g><clipPath id="clip-3346"><path d="M 319.5 486.3 L 426.8 486.3 L 426.8 487.3 L 319.5 487.3 Z M 319.5 486.3 "></path></clipPath><g clip-path="url(#clip-3346)"><path d="M 1.5 115.2 L 108.8 115.2 " fill="none" stroke="#DCDDE0" stroke-width="1.00" stroke-dasharray="2.0, 2.0" transform="matrix(1.00, 0.00, 0.00, -1.00, 318.0, 602.0)"></path></g></g></g></g><g><clipPath id="clip-3347"><path d="M 319.5 600.5 L 426.8 600.5 L 426.8 448.6 L 319.5 448.6 Z M 319.5 600.5 "></path></clipPath><g clip-path="url(#clip-3347)"><g><clipPath id="clip-3348"><path d="M 319.5 467.5 L 426.8 467.5 L 426.8 468.5 L 319.5 468.5 Z M 319.5 467.5 "></path></clipPath><g clip-path="url(#clip-3348)"><path d="M 1.5 134.0 L 108.8 134.0 " fill="none" stroke="#DCDDE0" stroke-width="1.00" stroke-dasharray="2.0, 2.0" transform="matrix(1.00, 0.00, 0.00, -1.00, 318.0, 602.0)"></path></g></g></g></g><g><clipPath id="clip-3349"><path d="M 319.5 600.5 L 426.8 600.5 L 426.8 448.6 L 319.5 448.6 Z M 319.5 600.5 "></path></clipPath><g clip-path="url(#clip-3349)"><path d="M 2.0 1.5 L 2.0 153.4 " fill="none" stroke="#FEFFFE" stroke-width="1.00" transform="matrix(1.00, 0.00, 0.00, -1.00, 318.0, 602.0)"></path><path d="M 108.3 1.5 L 108.3 153.4 " fill="none" stroke="#FEFFFF" stroke-width="1.00" transform="matrix(1.00, 0.00, 0.00, -1.00, 318.0, 602.0)"></path><path d="M 1.5 2.0 L 108.8 2.0 " fill="none" stroke="#FEFFFE" stroke-width="1.00" transform="matrix(1.00, 0.00, 0.00, -1.00, 318.0, 602.0)"></path><path d="M 1.5 152.9 L 108.8 152.9 " fill="none" stroke="#FEFFFE" stroke-width="1.00" transform="matrix(1.00, 0.00, 0.00, -1.00, 318.0, 602.0)"></path></g></g><g><clipPath id="clip-3350"><path d="M 641.5 387.5 L 748.8 387.5 L 748.8 235.6 L 641.5 235.6 Z M 641.5 387.5 "></path></clipPath><g clip-path="url(#clip-3350)"><g><clipPath id="clip-3351"><path d="M 662.8 235.6 L 663.8 235.6 L 663.8 387.5 L 662.8 387.5 Z M 662.8 235.6 "></path></clipPath><g clip-path="url(#clip-3351)"><path d="M 23.3 1.5 L 23.3 153.4 " fill="none" stroke="#52575F" stroke-width="1.00" stroke-dasharray="2.0, 2.0" transform="matrix(1.00, 0.00, 0.00, -1.00, 640.0, 389.0)"></path></g></g></g></g><g><clipPath id="clip-3352"><path d="M 641.5 387.5 L 748.8 387.5 L 748.8 235.6 L 641.5 235.6 Z M 641.5 387.5 "></path></clipPath><g clip-path="url(#clip-3352)"><g><clipPath id="clip-3353"><path d="M 684.0 235.6 L 685.0 235.6 L 685.0 387.5 L 684.0 387.5 Z M 684.0 235.6 "></path></clipPath><g clip-path="url(#clip-3353)"><path d="M 44.5 1.5 L 44.5 153.4 " fill="none" stroke="#52575F" stroke-width="1.00" stroke-dasharray="2.0, 2.0" transform="matrix(1.00, 0.00, 0.00, -1.00, 640.0, 389.0)"></path></g></g></g></g><g><clipPath id="clip-3354"><path d="M 641.5 387.5 L 748.8 387.5 L 748.8 235.6 L 641.5 235.6 Z M 641.5 387.5 "></path></clipPath><g clip-path="url(#clip-3354)"><g><clipPath id="clip-3355"><path d="M 705.3 235.6 L 706.3 235.6 L 706.3 387.5 L 705.3 387.5 Z M 705.3 235.6 "></path></clipPath><g clip-path="url(#clip-3355)"><path d="M 65.8 1.5 L 65.8 153.4 " fill="none" stroke="#52575F" stroke-width="1.00" stroke-dasharray="2.0, 2.0" transform="matrix(1.00, 0.00, 0.00, -1.00, 640.0, 389.0)"></path></g></g></g></g><g><clipPath id="clip-3356"><path d="M 641.5 387.5 L 748.8 387.5 L 748.8 235.6 L 641.5 235.6 Z M 641.5 387.5 "></path></clipPath><g clip-path="url(#clip-3356)"><g><clipPath id="clip-3357"><path d="M 726.6 235.6 L 727.6 235.6 L 727.6 387.5 L 726.6 387.5 Z M 726.6 235.6 "></path></clipPath><g clip-path="url(#clip-3357)"><path d="M 87.1 1.5 L 87.1 153.4 " fill="none" stroke="#52575F" stroke-width="1.00" stroke-dasharray="2.0, 2.0" transform="matrix(1.00, 0.00, 0.00, -1.00, 640.0, 389.0)"></path></g></g></g></g><g><clipPath id="clip-3358"><path d="M 641.5 387.5 L 748.8 387.5 L 748.8 235.6 L 641.5 235.6 Z M 641.5 387.5 "></path></clipPath><g clip-path="url(#clip-3358)"><g><clipPath id="clip-3359"><path d="M 641.5 367.6 L 748.8 367.6 L 748.8 368.6 L 641.5 368.6 Z M 641.5 367.6 "></path></clipPath><g clip-path="url(#clip-3359)"><path d="M 1.5 20.9 L 108.8 20.9 " fill="none" stroke="#52575F" stroke-width="1.00" stroke-dasharray="2.0, 2.0" transform="matrix(1.00, 0.00, 0.00, -1.00, 640.0, 389.0)"></path></g></g></g></g><g><clipPath id="clip-3360"><path d="M 641.5 387.5 L 748.8 387.5 L 748.8 235.6 L 641.5 235.6 Z M 641.5 387.5 "></path></clipPath><g clip-path="url(#clip-3360)"><g><clipPath id="clip-3361"><path d="M 641.5 348.8 L 748.8 348.8 L 748.8 349.8 L 641.5 349.8 Z M 641.5 348.8 "></path></clipPath><g clip-path="url(#clip-3361)"><path d="M 1.5 39.7 L 108.8 39.7 " fill="none" stroke="#52575F" stroke-width="1.00" stroke-dasharray="2.0, 2.0" transform="matrix(1.00, 0.00, 0.00, -1.00, 640.0, 389.0)"></path></g></g></g></g><g><clipPath id="clip-3362"><path d="M 641.5 387.5 L 748.8 387.5 L 748.8 235.6 L 641.5 235.6 Z M 641.5 387.5 "></path></clipPath><g clip-path="url(#clip-3362)"><g><clipPath id="clip-3363"><path d="M 641.5 329.9 L 748.8 329.9 L 748.8 330.9 L 641.5 330.9 Z M 641.5 329.9 "></path></clipPath><g clip-path="url(#clip-3363)"><path d="M 1.5 58.6 L 108.8 58.6 " fill="none" stroke="#52575F" stroke-width="1.00" stroke-dasharray="2.0, 2.0" transform="matrix(1.00, 0.00, 0.00, -1.00, 640.0, 389.0)"></path></g></g></g></g><g><clipPath id="clip-3364"><path d="M 641.5 387.5 L 748.8 387.5 L 748.8 235.6 L 641.5 235.6 Z M 641.5 387.5 "></path></clipPath><g clip-path="url(#clip-3364)"><g><clipPath id="clip-3365"><path d="M 641.5 311.1 L 748.8 311.1 L 748.8 312.1 L 641.5 312.1 Z M 641.5 311.1 "></path></clipPath><g clip-path="url(#clip-3365)"><path d="M 1.5 77.4 L 108.8 77.4 " fill="none" stroke="#52575F" stroke-width="1.00" stroke-dasharray="2.0, 2.0" transform="matrix(1.00, 0.00, 0.00, -1.00, 640.0, 389.0)"></path></g></g></g></g><g><clipPath id="clip-3366"><path d="M 641.5 387.5 L 748.8 387.5 L 748.8 235.6 L 641.5 235.6 Z M 641.5 387.5 "></path></clipPath><g clip-path="url(#clip-3366)"><g><clipPath id="clip-3367"><path d="M 641.5 292.2 L 748.8 292.2 L 748.8 293.2 L 641.5 293.2 Z M 641.5 292.2 "></path></clipPath><g clip-path="url(#clip-3367)"><path d="M 1.5 96.3 L 108.8 96.3 " fill="none" stroke="#52575F" stroke-width="1.00" stroke-dasharray="2.0, 2.0" transform="matrix(1.00, 0.00, 0.00, -1.00, 640.0, 389.0)"></path></g></g></g></g><g><clipPath id="clip-3368"><path d="M 641.5 387.5 L 748.8 387.5 L 748.8 235.6 L 641.5 235.6 Z M 641.5 387.5 "></path></clipPath><g clip-path="url(#clip-3368)"><g><clipPath id="clip-3369"><path d="M 641.5 273.3 L 748.8 273.3 L 748.8 274.3 L 641.5 274.3 Z M 641.5 273.3 "></path></clipPath><g clip-path="url(#clip-3369)"><path d="M 1.5 115.2 L 108.8 115.2 " fill="none" stroke="#52575F" stroke-width="1.00" stroke-dasharray="2.0, 2.0" transform="matrix(1.00, 0.00, 0.00, -1.00, 640.0, 389.0)"></path></g></g></g></g><g><clipPath id="clip-3370"><path d="M 641.5 387.5 L 748.8 387.5 L 748.8 235.6 L 641.5 235.6 Z M 641.5 387.5 "></path></clipPath><g clip-path="url(#clip-3370)"><g><clipPath id="clip-3371"><path d="M 641.5 254.5 L 748.8 254.5 L 748.8 255.5 L 641.5 255.5 Z M 641.5 254.5 "></path></clipPath><g clip-path="url(#clip-3371)"><path d="M 1.5 134.0 L 108.8 134.0 " fill="none" stroke="#52575F" stroke-width="1.00" stroke-dasharray="2.0, 2.0" transform="matrix(1.00, 0.00, 0.00, -1.00, 640.0, 389.0)"></path></g></g></g></g><g><clipPath id="clip-3372"><path d="M 641.5 387.5 L 748.8 387.5 L 748.8 235.6 L 641.5 235.6 Z M 641.5 387.5 "></path></clipPath><g clip-path="url(#clip-3372)"><path d="M 2.0 1.5 L 2.0 153.4 " fill="none" stroke="#FEFFFE" stroke-width="1.00" transform="matrix(1.00, 0.00, 0.00, -1.00, 640.0, 389.0)"></path><path d="M 108.3 1.5 L 108.3 153.4 " fill="none" stroke="#FEFFFF" stroke-width="1.00" transform="matrix(1.00, 0.00, 0.00, -1.00, 640.0, 389.0)"></path><path d="M 1.5 2.0 L 108.8 2.0 " fill="none" stroke="#FEFFFE" stroke-width="1.00" transform="matrix(1.00, 0.00, 0.00, -1.00, 640.0, 389.0)"></path><path d="M 1.5 152.9 L 108.8 152.9 " fill="none" stroke="#FEFFFE" stroke-width="1.00" transform="matrix(1.00, 0.00, 0.00, -1.00, 640.0, 389.0)"></path></g></g><path d="M 0.0 22.3 C 183.9 -33.2 275.7 14.9 275.5 166.7 L 275.4 167.7 " fill="none" stroke="#000000" stroke-width="2.00" transform="matrix(1.00, 0.00, 0.00, -1.00, 428.1, 565.3)"></path><path d="M 698.8 398.7 L 703.4 389.0 L 708.4 398.5 Z M 698.8 398.7 " fill="#000000"></path><image xlink:href="../../95A99818-43CC-4338-A2DB-6C5BB45DAE27/assets/2DB46BB52E56BEC32DB1E38355FA3BAE.png" width="117.00" height="154.00" transform="matrix(1.00, 0.00, -0.00, -0.99, 81.0, 523.0)"></image><g><clipPath id="clip-3373"><path d="M 83.5 522.5 L 190.8 522.5 L 190.8 370.6 L 83.5 370.6 Z M 83.5 522.5 "></path></clipPath><g clip-path="url(#clip-3373)"><g><clipPath id="clip-3374"><path d="M 104.8 370.6 L 105.8 370.6 L 105.8 522.5 L 104.8 522.5 Z M 104.8 370.6 "></path></clipPath><g clip-path="url(#clip-3374)"><path d="M 23.3 1.5 L 23.3 153.4 " fill="none" stroke="#DCDDE0" stroke-width="1.00" stroke-dasharray="2.0, 2.0" transform="matrix(1.00, 0.00, 0.00, -1.00, 82.0, 524.0)"></path></g></g></g></g><g><clipPath id="clip-3375"><path d="M 83.5 522.5 L 190.8 522.5 L 190.8 370.6 L 83.5 370.6 Z M 83.5 522.5 "></path></clipPath><g clip-path="url(#clip-3375)"><g><clipPath id="clip-3376"><path d="M 126.0 370.6 L 127.0 370.6 L 127.0 522.5 L 126.0 522.5 Z M 126.0 370.6 "></path></clipPath><g clip-path="url(#clip-3376)"><path d="M 44.5 1.5 L 44.5 153.4 " fill="none" stroke="#DCDDE0" stroke-width="1.00" stroke-dasharray="2.0, 2.0" transform="matrix(1.00, 0.00, 0.00, -1.00, 82.0, 524.0)"></path></g></g></g></g><g><clipPath id="clip-3377"><path d="M 83.5 522.5 L 190.8 522.5 L 190.8 370.6 L 83.5 370.6 Z M 83.5 522.5 "></path></clipPath><g clip-path="url(#clip-3377)"><g><clipPath id="clip-3378"><path d="M 147.3 370.6 L 148.3 370.6 L 148.3 522.5 L 147.3 522.5 Z M 147.3 370.6 "></path></clipPath><g clip-path="url(#clip-3378)"><path d="M 65.8 1.5 L 65.8 153.4 " fill="none" stroke="#DCDDE0" stroke-width="1.00" stroke-dasharray="2.0, 2.0" transform="matrix(1.00, 0.00, 0.00, -1.00, 82.0, 524.0)"></path></g></g></g></g><g><clipPath id="clip-3379"><path d="M 83.5 522.5 L 190.8 522.5 L 190.8 370.6 L 83.5 370.6 Z M 83.5 522.5 "></path></clipPath><g clip-path="url(#clip-3379)"><g><clipPath id="clip-3380"><path d="M 168.6 370.6 L 169.6 370.6 L 169.6 522.5 L 168.6 522.5 Z M 168.6 370.6 "></path></clipPath><g clip-path="url(#clip-3380)"><path d="M 87.1 1.5 L 87.1 153.4 " fill="none" stroke="#DCDDE0" stroke-width="1.00" stroke-dasharray="2.0, 2.0" transform="matrix(1.00, 0.00, 0.00, -1.00, 82.0, 524.0)"></path></g></g></g></g><g><clipPath id="clip-3381"><path d="M 83.5 522.5 L 190.8 522.5 L 190.8 370.6 L 83.5 370.6 Z M 83.5 522.5 "></path></clipPath><g clip-path="url(#clip-3381)"><g><clipPath id="clip-3382"><path d="M 83.5 502.6 L 190.8 502.6 L 190.8 503.6 L 83.5 503.6 Z M 83.5 502.6 "></path></clipPath><g clip-path="url(#clip-3382)"><path d="M 1.5 20.9 L 108.8 20.9 " fill="none" stroke="#DCDDE0" stroke-width="1.00" stroke-dasharray="2.0, 2.0" transform="matrix(1.00, 0.00, 0.00, -1.00, 82.0, 524.0)"></path></g></g></g></g><g><clipPath id="clip-3383"><path d="M 83.5 522.5 L 190.8 522.5 L 190.8 370.6 L 83.5 370.6 Z M 83.5 522.5 "></path></clipPath><g clip-path="url(#clip-3383)"><g><clipPath id="clip-3384"><path d="M 83.5 483.8 L 190.8 483.8 L 190.8 484.8 L 83.5 484.8 Z M 83.5 483.8 "></path></clipPath><g clip-path="url(#clip-3384)"><path d="M 1.5 39.7 L 108.8 39.7 " fill="none" stroke="#DCDDE0" stroke-width="1.00" stroke-dasharray="2.0, 2.0" transform="matrix(1.00, 0.00, 0.00, -1.00, 82.0, 524.0)"></path></g></g></g></g><g><clipPath id="clip-3385"><path d="M 83.5 522.5 L 190.8 522.5 L 190.8 370.6 L 83.5 370.6 Z M 83.5 522.5 "></path></clipPath><g clip-path="url(#clip-3385)"><g><clipPath id="clip-3386"><path d="M 83.5 464.9 L 190.8 464.9 L 190.8 465.9 L 83.5 465.9 Z M 83.5 464.9 "></path></clipPath><g clip-path="url(#clip-3386)"><path d="M 1.5 58.6 L 108.8 58.6 " fill="none" stroke="#DCDDE0" stroke-width="1.00" stroke-dasharray="2.0, 2.0" transform="matrix(1.00, 0.00, 0.00, -1.00, 82.0, 524.0)"></path></g></g></g></g><g><clipPath id="clip-3387"><path d="M 83.5 522.5 L 190.8 522.5 L 190.8 370.6 L 83.5 370.6 Z M 83.5 522.5 "></path></clipPath><g clip-path="url(#clip-3387)"><g><clipPath id="clip-3388"><path d="M 83.5 446.1 L 190.8 446.1 L 190.8 447.1 L 83.5 447.1 Z M 83.5 446.1 "></path></clipPath><g clip-path="url(#clip-3388)"><path d="M 1.5 77.4 L 108.8 77.4 " fill="none" stroke="#DCDDE0" stroke-width="1.00" stroke-dasharray="2.0, 2.0" transform="matrix(1.00, 0.00, 0.00, -1.00, 82.0, 524.0)"></path></g></g></g></g><g><clipPath id="clip-3389"><path d="M 83.5 522.5 L 190.8 522.5 L 190.8 370.6 L 83.5 370.6 Z M 83.5 522.5 "></path></clipPath><g clip-path="url(#clip-3389)"><g><clipPath id="clip-3390"><path d="M 83.5 427.2 L 190.8 427.2 L 190.8 428.2 L 83.5 428.2 Z M 83.5 427.2 "></path></clipPath><g clip-path="url(#clip-3390)"><path d="M 1.5 96.3 L 108.8 96.3 " fill="none" stroke="#DCDDE0" stroke-width="1.00" stroke-dasharray="2.0, 2.0" transform="matrix(1.00, 0.00, 0.00, -1.00, 82.0, 524.0)"></path></g></g></g></g><g><clipPath id="clip-3391"><path d="M 83.5 522.5 L 190.8 522.5 L 190.8 370.6 L 83.5 370.6 Z M 83.5 522.5 "></path></clipPath><g clip-path="url(#clip-3391)"><g><clipPath id="clip-3392"><path d="M 83.5 408.3 L 190.8 408.3 L 190.8 409.3 L 83.5 409.3 Z M 83.5 408.3 "></path></clipPath><g clip-path="url(#clip-3392)"><path d="M 1.5 115.2 L 108.8 115.2 " fill="none" stroke="#DCDDE0" stroke-width="1.00" stroke-dasharray="2.0, 2.0" transform="matrix(1.00, 0.00, 0.00, -1.00, 82.0, 524.0)"></path></g></g></g></g><g><clipPath id="clip-3393"><path d="M 83.5 522.5 L 190.8 522.5 L 190.8 370.6 L 83.5 370.6 Z M 83.5 522.5 "></path></clipPath><g clip-path="url(#clip-3393)"><g><clipPath id="clip-3394"><path d="M 83.5 389.5 L 190.8 389.5 L 190.8 390.5 L 83.5 390.5 Z M 83.5 389.5 "></path></clipPath><g clip-path="url(#clip-3394)"><path d="M 1.5 134.0 L 108.8 134.0 " fill="none" stroke="#DCDDE0" stroke-width="1.00" stroke-dasharray="2.0, 2.0" transform="matrix(1.00, 0.00, 0.00, -1.00, 82.0, 524.0)"></path></g></g></g></g><g><clipPath id="clip-3395"><path d="M 83.5 522.5 L 190.8 522.5 L 190.8 370.6 L 83.5 370.6 Z M 83.5 522.5 "></path></clipPath><g clip-path="url(#clip-3395)"><path d="M 2.0 1.5 L 2.0 153.4 " fill="none" stroke="#FEFFFE" stroke-width="1.00" transform="matrix(1.00, 0.00, 0.00, -1.00, 82.0, 524.0)"></path><path d="M 108.3 1.5 L 108.3 153.4 " fill="none" stroke="#FEFFFF" stroke-width="1.00" transform="matrix(1.00, 0.00, 0.00, -1.00, 82.0, 524.0)"></path><path d="M 1.5 2.0 L 108.8 2.0 " fill="none" stroke="#FEFFFE" stroke-width="1.00" transform="matrix(1.00, 0.00, 0.00, -1.00, 82.0, 524.0)"></path><path d="M 1.5 152.9 L 108.8 152.9 " fill="none" stroke="#FEFFFE" stroke-width="1.00" transform="matrix(1.00, 0.00, 0.00, -1.00, 82.0, 524.0)"></path></g></g><g><clipPath id="clip-3396"><path d="M 527.5 387.5 L 634.8 387.5 L 634.8 235.6 L 527.5 235.6 Z M 527.5 387.5 "></path></clipPath><g clip-path="url(#clip-3396)"><g><clipPath id="clip-3397"><path d="M 548.8 235.6 L 549.8 235.6 L 549.8 387.5 L 548.8 387.5 Z M 548.8 235.6 "></path></clipPath><g clip-path="url(#clip-3397)"><path d="M 23.3 1.5 L 23.3 153.4 " fill="none" stroke="#52575F" stroke-width="1.00" stroke-dasharray="2.0, 2.0" transform="matrix(1.00, 0.00, 0.00, -1.00, 526.0, 389.0)"></path></g></g></g></g><g><clipPath id="clip-3398"><path d="M 527.5 387.5 L 634.8 387.5 L 634.8 235.6 L 527.5 235.6 Z M 527.5 387.5 "></path></clipPath><g clip-path="url(#clip-3398)"><g><clipPath id="clip-3399"><path d="M 570.0 235.6 L 571.0 235.6 L 571.0 387.5 L 570.0 387.5 Z M 570.0 235.6 "></path></clipPath><g clip-path="url(#clip-3399)"><path d="M 44.5 1.5 L 44.5 153.4 " fill="none" stroke="#52575F" stroke-width="1.00" stroke-dasharray="2.0, 2.0" transform="matrix(1.00, 0.00, 0.00, -1.00, 526.0, 389.0)"></path></g></g></g></g><g><clipPath id="clip-3400"><path d="M 527.5 387.5 L 634.8 387.5 L 634.8 235.6 L 527.5 235.6 Z M 527.5 387.5 "></path></clipPath><g clip-path="url(#clip-3400)"><g><clipPath id="clip-3401"><path d="M 591.3 235.6 L 592.3 235.6 L 592.3 387.5 L 591.3 387.5 Z M 591.3 235.6 "></path></clipPath><g clip-path="url(#clip-3401)"><path d="M 65.8 1.5 L 65.8 153.4 " fill="none" stroke="#52575F" stroke-width="1.00" stroke-dasharray="2.0, 2.0" transform="matrix(1.00, 0.00, 0.00, -1.00, 526.0, 389.0)"></path></g></g></g></g><g><clipPath id="clip-3402"><path d="M 527.5 387.5 L 634.8 387.5 L 634.8 235.6 L 527.5 235.6 Z M 527.5 387.5 "></path></clipPath><g clip-path="url(#clip-3402)"><g><clipPath id="clip-3403"><path d="M 612.6 235.6 L 613.6 235.6 L 613.6 387.5 L 612.6 387.5 Z M 612.6 235.6 "></path></clipPath><g clip-path="url(#clip-3403)"><path d="M 87.1 1.5 L 87.1 153.4 " fill="none" stroke="#52575F" stroke-width="1.00" stroke-dasharray="2.0, 2.0" transform="matrix(1.00, 0.00, 0.00, -1.00, 526.0, 389.0)"></path></g></g></g></g><g><clipPath id="clip-3404"><path d="M 527.5 387.5 L 634.8 387.5 L 634.8 235.6 L 527.5 235.6 Z M 527.5 387.5 "></path></clipPath><g clip-path="url(#clip-3404)"><g><clipPath id="clip-3405"><path d="M 527.5 367.6 L 634.8 367.6 L 634.8 368.6 L 527.5 368.6 Z M 527.5 367.6 "></path></clipPath><g clip-path="url(#clip-3405)"><path d="M 1.5 20.9 L 108.8 20.9 " fill="none" stroke="#52575F" stroke-width="1.00" stroke-dasharray="2.0, 2.0" transform="matrix(1.00, 0.00, 0.00, -1.00, 526.0, 389.0)"></path></g></g></g></g><g><clipPath id="clip-3406"><path d="M 527.5 387.5 L 634.8 387.5 L 634.8 235.6 L 527.5 235.6 Z M 527.5 387.5 "></path></clipPath><g clip-path="url(#clip-3406)"><g><clipPath id="clip-3407"><path d="M 527.5 348.8 L 634.8 348.8 L 634.8 349.8 L 527.5 349.8 Z M 527.5 348.8 "></path></clipPath><g clip-path="url(#clip-3407)"><path d="M 1.5 39.7 L 108.8 39.7 " fill="none" stroke="#52575F" stroke-width="1.00" stroke-dasharray="2.0, 2.0" transform="matrix(1.00, 0.00, 0.00, -1.00, 526.0, 389.0)"></path></g></g></g></g><g><clipPath id="clip-3408"><path d="M 527.5 387.5 L 634.8 387.5 L 634.8 235.6 L 527.5 235.6 Z M 527.5 387.5 "></path></clipPath><g clip-path="url(#clip-3408)"><g><clipPath id="clip-3409"><path d="M 527.5 329.9 L 634.8 329.9 L 634.8 330.9 L 527.5 330.9 Z M 527.5 329.9 "></path></clipPath><g clip-path="url(#clip-3409)"><path d="M 1.5 58.6 L 108.8 58.6 " fill="none" stroke="#52575F" stroke-width="1.00" stroke-dasharray="2.0, 2.0" transform="matrix(1.00, 0.00, 0.00, -1.00, 526.0, 389.0)"></path></g></g></g></g><g><clipPath id="clip-3410"><path d="M 527.5 387.5 L 634.8 387.5 L 634.8 235.6 L 527.5 235.6 Z M 527.5 387.5 "></path></clipPath><g clip-path="url(#clip-3410)"><g><clipPath id="clip-3411"><path d="M 527.5 311.1 L 634.8 311.1 L 634.8 312.1 L 527.5 312.1 Z M 527.5 311.1 "></path></clipPath><g clip-path="url(#clip-3411)"><path d="M 1.5 77.4 L 108.8 77.4 " fill="none" stroke="#52575F" stroke-width="1.00" stroke-dasharray="2.0, 2.0" transform="matrix(1.00, 0.00, 0.00, -1.00, 526.0, 389.0)"></path></g></g></g></g><g><clipPath id="clip-3412"><path d="M 527.5 387.5 L 634.8 387.5 L 634.8 235.6 L 527.5 235.6 Z M 527.5 387.5 "></path></clipPath><g clip-path="url(#clip-3412)"><g><clipPath id="clip-3413"><path d="M 527.5 292.2 L 634.8 292.2 L 634.8 293.2 L 527.5 293.2 Z M 527.5 292.2 "></path></clipPath><g clip-path="url(#clip-3413)"><path d="M 1.5 96.3 L 108.8 96.3 " fill="none" stroke="#52575F" stroke-width="1.00" stroke-dasharray="2.0, 2.0" transform="matrix(1.00, 0.00, 0.00, -1.00, 526.0, 389.0)"></path></g></g></g></g><g><clipPath id="clip-3414"><path d="M 527.5 387.5 L 634.8 387.5 L 634.8 235.6 L 527.5 235.6 Z M 527.5 387.5 "></path></clipPath><g clip-path="url(#clip-3414)"><g><clipPath id="clip-3415"><path d="M 527.5 273.3 L 634.8 273.3 L 634.8 274.3 L 527.5 274.3 Z M 527.5 273.3 "></path></clipPath><g clip-path="url(#clip-3415)"><path d="M 1.5 115.2 L 108.8 115.2 " fill="none" stroke="#52575F" stroke-width="1.00" stroke-dasharray="2.0, 2.0" transform="matrix(1.00, 0.00, 0.00, -1.00, 526.0, 389.0)"></path></g></g></g></g><g><clipPath id="clip-3416"><path d="M 527.5 387.5 L 634.8 387.5 L 634.8 235.6 L 527.5 235.6 Z M 527.5 387.5 "></path></clipPath><g clip-path="url(#clip-3416)"><g><clipPath id="clip-3417"><path d="M 527.5 254.5 L 634.8 254.5 L 634.8 255.5 L 527.5 255.5 Z M 527.5 254.5 "></path></clipPath><g clip-path="url(#clip-3417)"><path d="M 1.5 134.0 L 108.8 134.0 " fill="none" stroke="#52575F" stroke-width="1.00" stroke-dasharray="2.0, 2.0" transform="matrix(1.00, 0.00, 0.00, -1.00, 526.0, 389.0)"></path></g></g></g></g><g><clipPath id="clip-3418"><path d="M 527.5 387.5 L 634.8 387.5 L 634.8 235.6 L 527.5 235.6 Z M 527.5 387.5 "></path></clipPath><g clip-path="url(#clip-3418)"><path d="M 2.0 1.5 L 2.0 153.4 " fill="none" stroke="#FEFFFE" stroke-width="1.00" transform="matrix(1.00, 0.00, 0.00, -1.00, 526.0, 389.0)"></path><path d="M 108.3 1.5 L 108.3 153.4 " fill="none" stroke="#FEFFFF" stroke-width="1.00" transform="matrix(1.00, 0.00, 0.00, -1.00, 526.0, 389.0)"></path><path d="M 1.5 2.0 L 108.8 2.0 " fill="none" stroke="#FEFFFE" stroke-width="1.00" transform="matrix(1.00, 0.00, 0.00, -1.00, 526.0, 389.0)"></path><path d="M 1.5 152.9 L 108.8 152.9 " fill="none" stroke="#FEFFFE" stroke-width="1.00" transform="matrix(1.00, 0.00, 0.00, -1.00, 526.0, 389.0)"></path></g></g><text xml:space="preserve" font-family="Helvetica-Bold" font-weight="bold" font-size="36.0" fill="#000000" transform="matrix(1.00, 0.00, -0.00, -1.00, 369.0, 720.0)">R</text><text xml:space="preserve" font-family="Helvetica-Bold" font-weight="bold" font-size="36.0" fill="#000000" transform="matrix(1.00, 0.00, -0.00, -1.00, 395.0, 720.0)">e</text><text xml:space="preserve" font-family="Helvetica-Bold" font-weight="bold" font-size="36.0" fill="#000000" transform="matrix(1.00, 0.00, -0.00, -1.00, 415.0, 720.0)">p</text><text xml:space="preserve" font-family="Helvetica-Bold" font-weight="bold" font-size="36.0" fill="#000000" transform="matrix(1.00, 0.00, -0.00, -1.00, 437.0, 720.0)">l</text><text xml:space="preserve" font-family="Helvetica-Bold" font-weight="bold" font-size="36.0" fill="#000000" transform="matrix(1.00, 0.00, -0.00, -1.00, 447.0, 720.0)">i</text><text xml:space="preserve" font-family="Helvetica-Bold" font-weight="bold" font-size="36.0" fill="#000000" transform="matrix(1.00, 0.00, -0.00, -1.00, 457.0, 720.0)">c</text><text xml:space="preserve" font-family="Helvetica-Bold" font-weight="bold" font-size="36.0" fill="#000000" transform="matrix(1.00, 0.00, -0.00, -1.00, 477.0, 720.0)">a</text><text xml:space="preserve" font-family="Helvetica-Bold" font-weight="bold" font-size="36.0" fill="#000000" transform="matrix(1.00, 0.00, -0.00, -1.00, 497.1, 720.0)">t</text><text xml:space="preserve" font-family="Helvetica-Bold" font-weight="bold" font-size="36.0" fill="#000000" transform="matrix(1.00, 0.00, -0.00, -1.00, 509.1, 720.0)">i</text><text xml:space="preserve" font-family="Helvetica-Bold" font-weight="bold" font-size="36.0" fill="#000000" transform="matrix(1.00, 0.00, -0.00, -1.00, 519.0, 720.0)">n</text><text xml:space="preserve" font-family="Helvetica-Bold" font-weight="bold" font-size="36.0" fill="#000000" transform="matrix(1.00, 0.00, -0.00, -1.00, 541.0, 720.0)">g</text><text xml:space="preserve" font-family="Helvetica-Bold" font-weight="bold" font-size="36.0" fill="#000000" transform="matrix(1.00, 0.00, -0.00, -1.00, 563.0, 720.0)"> </text><text xml:space="preserve" font-family="Helvetica-Bold" font-weight="bold" font-size="36.0" fill="#000000" transform="matrix(1.00, 0.00, -0.00, -1.00, 573.0, 720.0)">F</text><text xml:space="preserve" font-family="Helvetica-Bold" font-weight="bold" font-size="36.0" fill="#000000" transform="matrix(1.00, 0.00, -0.00, -1.00, 595.0, 720.0)">i</text><text xml:space="preserve" font-family="Helvetica-Bold" font-weight="bold" font-size="36.0" fill="#000000" transform="matrix(1.00, 0.00, -0.00, -1.00, 605.0, 720.0)">l</text><text xml:space="preserve" font-family="Helvetica-Bold" font-weight="bold" font-size="36.0" fill="#000000" transform="matrix(1.00, 0.00, -0.00, -1.00, 615.0, 720.0)">e</text><text xml:space="preserve" font-family="Helvetica-Bold" font-weight="bold" font-size="36.0" fill="#000000" transform="matrix(1.00, 0.00, -0.00, -1.00, 635.0, 720.0)">s</text><text xml:space="preserve" font-family="Helvetica-Bold" font-weight="bold" font-size="36.0" fill="#000000" transform="matrix(1.00, 0.00, -0.00, -1.00, 386.0, 677.0)">w</text><text xml:space="preserve" font-family="Helvetica-Bold" font-weight="bold" font-size="36.0" fill="#000000" transform="matrix(1.00, 0.00, -0.00, -1.00, 414.0, 677.0)">i</text><text xml:space="preserve" font-family="Helvetica-Bold" font-weight="bold" font-size="36.0" fill="#000000" transform="matrix(1.00, 0.00, -0.00, -1.00, 424.0, 677.0)">t</text><text xml:space="preserve" font-family="Helvetica-Bold" font-weight="bold" font-size="36.0" fill="#000000" transform="matrix(1.00, 0.00, -0.00, -1.00, 436.0, 677.0)">h</text><text xml:space="preserve" font-family="Helvetica-Bold" font-weight="bold" font-size="36.0" fill="#000000" transform="matrix(1.00, 0.00, -0.00, -1.00, 458.0, 677.0)"> </text><text xml:space="preserve" font-family="Helvetica-Bold" font-weight="bold" font-size="36.0" fill="#000000" transform="matrix(1.00, 0.00, -0.00, -1.00, 468.0, 677.0)">b</text><text xml:space="preserve" font-family="Helvetica-Bold" font-weight="bold" font-size="36.0" fill="#000000" transform="matrix(1.00, 0.00, -0.00, -1.00, 489.9, 677.0)">i</text><text xml:space="preserve" font-family="Helvetica-Bold" font-weight="bold" font-size="36.0" fill="#000000" transform="matrix(1.00, 0.00, -0.00, -1.00, 499.9, 677.0)">t</text><text xml:space="preserve" font-family="Helvetica-Bold" font-weight="bold" font-size="36.0" fill="#000000" transform="matrix(1.00, 0.00, -0.00, -1.00, 511.9, 677.0)"> </text><text xml:space="preserve" font-family="Helvetica-Bold" font-weight="bold" font-size="36.0" fill="#000000" transform="matrix(1.00, 0.00, -0.00, -1.00, 521.9, 677.0)">t</text><text xml:space="preserve" font-family="Helvetica-Bold" font-weight="bold" font-size="36.0" fill="#000000" transform="matrix(1.00, 0.00, -0.00, -1.00, 533.9, 677.0)">o</text><text xml:space="preserve" font-family="Helvetica-Bold" font-weight="bold" font-size="36.0" fill="#000000" transform="matrix(1.00, 0.00, -0.00, -1.00, 555.9, 677.0)">r</text><text xml:space="preserve" font-family="Helvetica-Bold" font-weight="bold" font-size="36.0" fill="#000000" transform="matrix(1.00, 0.00, -0.00, -1.00, 569.9, 677.0)">r</text><text xml:space="preserve" font-family="Helvetica-Bold" font-weight="bold" font-size="36.0" fill="#000000" transform="matrix(1.00, 0.00, -0.00, -1.00, 583.9, 677.0)">e</text><text xml:space="preserve" font-family="Helvetica-Bold" font-weight="bold" font-size="36.0" fill="#000000" transform="matrix(1.00, 0.00, -0.00, -1.00, 604.0, 677.0)">n</text><text xml:space="preserve" font-family="Helvetica-Bold" font-weight="bold" font-size="36.0" fill="#000000" transform="matrix(1.00, 0.00, -0.00, -1.00, 625.9, 677.0)">t</text></g></svg>