<?xml version="1.0" encoding="UTF-8" standalone="no"?><svg xmlns="http://www.w3.org/2000/svg" xmlns:xlink="http://www.w3.org/1999/xlink" clip-rule="evenodd" stroke-miterlimit="4.00" viewBox="0 0 1024 768"><desc>SVG generated by Keynote</desc><defs></defs><g transform="matrix(1.00, 0.00, -0.00, -1.00, 0.0, 768.0)"><path d="M 0.0 768.0 L 1024.0 768.0 L 1024.0 0.0 L 0.0 0.0 Z M 0.0 768.0 " fill="#FEFFFF"></path><g><clipPath id="clip-4339"><path d="M 745.2 158.7 L 851.6 158.7 L 851.6 300.1 L 745.2 300.1 Z M 745.2 158.7 "></path></clipPath><g clip-path="url(#clip-4339)"><image xlink:href="../../8E396BF4-52CA-4E1F-94AD-BC5C08515456/assets/DE599FB648E859053D93BEE811B8135A.png" width="106.00" height="142.00" transform="matrix(1.01, 0.00, -0.00, -0.99, 745.0, 300.0)"></image></g></g><g><clipPath id="clip-4340"><path d="M 626.2 80.7 L 736.3 80.7 L 736.3 223.2 L 626.2 223.2 Z M 626.2 80.7 "></path></clipPath><g clip-path="url(#clip-4340)"><image xlink:href="../../8E396BF4-52CA-4E1F-94AD-BC5C08515456/assets/6DDDFD7471AE2F61D9519FA871F099FC.png" width="110.00" height="143.00" transform="matrix(1.00, 0.00, -0.00, -0.99, 626.0, 223.0)"></image></g></g><g><clipPath id="clip-4341"><path d="M 624.0 235.4 L 738.5 235.4 L 738.5 377.9 L 624.0 377.9 Z M 624.0 235.4 "></path></clipPath><g clip-path="url(#clip-4341)"><image xlink:href="../../8E396BF4-52CA-4E1F-94AD-BC5C08515456/assets/C25E84DBDF47A5CBDC766300E8243A38.png" width="114.00" height="143.00" transform="matrix(1.00, 0.00, -0.00, -1.00, 624.0, 378.0)"></image></g></g><g><clipPath id="clip-4342"><path d="M 511.5 80.5 L 622.1 80.5 L 622.1 223.0 L 511.5 223.0 Z M 511.5 80.5 "></path></clipPath><g clip-path="url(#clip-4342)"><image xlink:href="../../8E396BF4-52CA-4E1F-94AD-BC5C08515456/assets/59A8EE0BAA3ED35E8A5C4EB851036F88.png" width="111.00" height="143.00" transform="matrix(1.00, 0.00, -0.00, -1.00, 511.0, 223.0)"></image></g></g><g><clipPath id="clip-4343"><path d="M 512.0 235.4 L 621.6 235.4 L 621.6 377.9 L 512.0 377.9 Z M 512.0 235.4 "></path></clipPath><g clip-path="url(#clip-4343)"><image xlink:href="../../8E396BF4-52CA-4E1F-94AD-BC5C08515456/assets/E9A5801B89102159FF8070049E7B703D.png" width="110.00" height="143.00" transform="matrix(1.00, 0.00, -0.00, -1.00, 512.0, 378.0)"></image></g></g><g><clipPath id="clip-4344"><path d="M 516.5 384.5 L 623.8 384.5 L 623.8 232.6 L 516.5 232.6 Z M 516.5 384.5 "></path></clipPath><g clip-path="url(#clip-4344)"><g><clipPath id="clip-4345"><path d="M 537.8 232.6 L 538.8 232.6 L 538.8 384.5 L 537.8 384.5 Z M 537.8 232.6 "></path></clipPath><g clip-path="url(#clip-4345)"><path d="M 23.3 1.5 L 23.3 153.4 " fill="none" stroke="#DCDDE0" stroke-width="1.00" stroke-dasharray="2.0, 2.0" transform="matrix(1.00, 0.00, 0.00, -1.00, 515.0, 386.0)"></path></g></g></g></g><g><clipPath id="clip-4346"><path d="M 516.5 384.5 L 623.8 384.5 L 623.8 232.6 L 516.5 232.6 Z M 516.5 384.5 "></path></clipPath><g clip-path="url(#clip-4346)"><g><clipPath id="clip-4347"><path d="M 559.0 232.6 L 560.0 232.6 L 560.0 384.5 L 559.0 384.5 Z M 559.0 232.6 "></path></clipPath><g clip-path="url(#clip-4347)"><path d="M 44.5 1.5 L 44.5 153.4 " fill="none" stroke="#DCDDE0" stroke-width="1.00" stroke-dasharray="2.0, 2.0" transform="matrix(1.00, 0.00, 0.00, -1.00, 515.0, 386.0)"></path></g></g></g></g><g><clipPath id="clip-4348"><path d="M 516.5 384.5 L 623.8 384.5 L 623.8 232.6 L 516.5 232.6 Z M 516.5 384.5 "></path></clipPath><g clip-path="url(#clip-4348)"><g><clipPath id="clip-4349"><path d="M 580.3 232.6 L 581.3 232.6 L 581.3 384.5 L 580.3 384.5 Z M 580.3 232.6 "></path></clipPath><g clip-path="url(#clip-4349)"><path d="M 65.8 1.5 L 65.8 153.4 " fill="none" stroke="#DCDDE0" stroke-width="1.00" stroke-dasharray="2.0, 2.0" transform="matrix(1.00, 0.00, 0.00, -1.00, 515.0, 386.0)"></path></g></g></g></g><g><clipPath id="clip-4350"><path d="M 516.5 384.5 L 623.8 384.5 L 623.8 232.6 L 516.5 232.6 Z M 516.5 384.5 "></path></clipPath><g clip-path="url(#clip-4350)"><g><clipPath id="clip-4351"><path d="M 601.6 232.6 L 602.6 232.6 L 602.6 384.5 L 601.6 384.5 Z M 601.6 232.6 "></path></clipPath><g clip-path="url(#clip-4351)"><path d="M 87.1 1.5 L 87.1 153.4 " fill="none" stroke="#DCDDE0" stroke-width="1.00" stroke-dasharray="2.0, 2.0" transform="matrix(1.00, 0.00, 0.00, -1.00, 515.0, 386.0)"></path></g></g></g></g><g><clipPath id="clip-4352"><path d="M 516.5 384.5 L 623.8 384.5 L 623.8 232.6 L 516.5 232.6 Z M 516.5 384.5 "></path></clipPath><g clip-path="url(#clip-4352)"><g><clipPath id="clip-4353"><path d="M 516.5 364.6 L 623.8 364.6 L 623.8 365.6 L 516.5 365.6 Z M 516.5 364.6 "></path></clipPath><g clip-path="url(#clip-4353)"><path d="M 1.5 20.9 L 108.8 20.9 " fill="none" stroke="#DCDDE0" stroke-width="1.00" stroke-dasharray="2.0, 2.0" transform="matrix(1.00, 0.00, 0.00, -1.00, 515.0, 386.0)"></path></g></g></g></g><g><clipPath id="clip-4354"><path d="M 516.5 384.5 L 623.8 384.5 L 623.8 232.6 L 516.5 232.6 Z M 516.5 384.5 "></path></clipPath><g clip-path="url(#clip-4354)"><g><clipPath id="clip-4355"><path d="M 516.5 345.8 L 623.8 345.8 L 623.8 346.8 L 516.5 346.8 Z M 516.5 345.8 "></path></clipPath><g clip-path="url(#clip-4355)"><path d="M 1.5 39.7 L 108.8 39.7 " fill="none" stroke="#DCDDE0" stroke-width="1.00" stroke-dasharray="2.0, 2.0" transform="matrix(1.00, 0.00, 0.00, -1.00, 515.0, 386.0)"></path></g></g></g></g><g><clipPath id="clip-4356"><path d="M 516.5 384.5 L 623.8 384.5 L 623.8 232.6 L 516.5 232.6 Z M 516.5 384.5 "></path></clipPath><g clip-path="url(#clip-4356)"><g><clipPath id="clip-4357"><path d="M 516.5 326.9 L 623.8 326.9 L 623.8 327.9 L 516.5 327.9 Z M 516.5 326.9 "></path></clipPath><g clip-path="url(#clip-4357)"><path d="M 1.5 58.6 L 108.8 58.6 " fill="none" stroke="#DCDDE0" stroke-width="1.00" stroke-dasharray="2.0, 2.0" transform="matrix(1.00, 0.00, 0.00, -1.00, 515.0, 386.0)"></path></g></g></g></g><g><clipPath id="clip-4358"><path d="M 516.5 384.5 L 623.8 384.5 L 623.8 232.6 L 516.5 232.6 Z M 516.5 384.5 "></path></clipPath><g clip-path="url(#clip-4358)"><g><clipPath id="clip-4359"><path d="M 516.5 308.1 L 623.8 308.1 L 623.8 309.1 L 516.5 309.1 Z M 516.5 308.1 "></path></clipPath><g clip-path="url(#clip-4359)"><path d="M 1.5 77.4 L 108.8 77.4 " fill="none" stroke="#DCDDE0" stroke-width="1.00" stroke-dasharray="2.0, 2.0" transform="matrix(1.00, 0.00, 0.00, -1.00, 515.0, 386.0)"></path></g></g></g></g><g><clipPath id="clip-4360"><path d="M 516.5 384.5 L 623.8 384.5 L 623.8 232.6 L 516.5 232.6 Z M 516.5 384.5 "></path></clipPath><g clip-path="url(#clip-4360)"><g><clipPath id="clip-4361"><path d="M 516.5 289.2 L 623.8 289.2 L 623.8 290.2 L 516.5 290.2 Z M 516.5 289.2 "></path></clipPath><g clip-path="url(#clip-4361)"><path d="M 1.5 96.3 L 108.8 96.3 " fill="none" stroke="#DCDDE0" stroke-width="1.00" stroke-dasharray="2.0, 2.0" transform="matrix(1.00, 0.00, 0.00, -1.00, 515.0, 386.0)"></path></g></g></g></g><g><clipPath id="clip-4362"><path d="M 516.5 384.5 L 623.8 384.5 L 623.8 232.6 L 516.5 232.6 Z M 516.5 384.5 "></path></clipPath><g clip-path="url(#clip-4362)"><g><clipPath id="clip-4363"><path d="M 516.5 270.3 L 623.8 270.3 L 623.8 271.3 L 516.5 271.3 Z M 516.5 270.3 "></path></clipPath><g clip-path="url(#clip-4363)"><path d="M 1.5 115.2 L 108.8 115.2 " fill="none" stroke="#DCDDE0" stroke-width="1.00" stroke-dasharray="2.0, 2.0" transform="matrix(1.00, 0.00, 0.00, -1.00, 515.0, 386.0)"></path></g></g></g></g><g><clipPath id="clip-4364"><path d="M 516.5 384.5 L 623.8 384.5 L 623.8 232.6 L 516.5 232.6 Z M 516.5 384.5 "></path></clipPath><g clip-path="url(#clip-4364)"><g><clipPath id="clip-4365"><path d="M 516.5 251.5 L 623.8 251.5 L 623.8 252.5 L 516.5 252.5 Z M 516.5 251.5 "></path></clipPath><g clip-path="url(#clip-4365)"><path d="M 1.5 134.0 L 108.8 134.0 " fill="none" stroke="#DCDDE0" stroke-width="1.00" stroke-dasharray="2.0, 2.0" transform="matrix(1.00, 0.00, 0.00, -1.00, 515.0, 386.0)"></path></g></g></g></g><g><clipPath id="clip-4366"><path d="M 516.5 384.5 L 623.8 384.5 L 623.8 232.6 L 516.5 232.6 Z M 516.5 384.5 "></path></clipPath><g clip-path="url(#clip-4366)"><path d="M 2.0 1.5 L 2.0 153.4 " fill="none" stroke="#FEFFFE" stroke-width="1.00" transform="matrix(1.00, 0.00, 0.00, -1.00, 515.0, 386.0)"></path><path d="M 108.3 1.5 L 108.3 153.4 " fill="none" stroke="#FEFFFF" stroke-width="1.00" transform="matrix(1.00, 0.00, 0.00, -1.00, 515.0, 386.0)"></path><path d="M 1.5 2.0 L 108.8 2.0 " fill="none" stroke="#FEFFFE" stroke-width="1.00" transform="matrix(1.00, 0.00, 0.00, -1.00, 515.0, 386.0)"></path><path d="M 1.5 152.9 L 108.8 152.9 " fill="none" stroke="#FEFFFE" stroke-width="1.00" transform="matrix(1.00, 0.00, 0.00, -1.00, 515.0, 386.0)"></path></g></g><g><clipPath id="clip-4367"><path d="M 630.5 384.5 L 737.8 384.5 L 737.8 232.6 L 630.5 232.6 Z M 630.5 384.5 "></path></clipPath><g clip-path="url(#clip-4367)"><g><clipPath id="clip-4368"><path d="M 651.8 232.6 L 652.8 232.6 L 652.8 384.5 L 651.8 384.5 Z M 651.8 232.6 "></path></clipPath><g clip-path="url(#clip-4368)"><path d="M 23.3 1.5 L 23.3 153.4 " fill="none" stroke="#DCDDE0" stroke-width="1.00" stroke-dasharray="2.0, 2.0" transform="matrix(1.00, 0.00, 0.00, -1.00, 629.0, 386.0)"></path></g></g></g></g><g><clipPath id="clip-4369"><path d="M 630.5 384.5 L 737.8 384.5 L 737.8 232.6 L 630.5 232.6 Z M 630.5 384.5 "></path></clipPath><g clip-path="url(#clip-4369)"><g><clipPath id="clip-4370"><path d="M 673.0 232.6 L 674.0 232.6 L 674.0 384.5 L 673.0 384.5 Z M 673.0 232.6 "></path></clipPath><g clip-path="url(#clip-4370)"><path d="M 44.5 1.5 L 44.5 153.4 " fill="none" stroke="#DCDDE0" stroke-width="1.00" stroke-dasharray="2.0, 2.0" transform="matrix(1.00, 0.00, 0.00, -1.00, 629.0, 386.0)"></path></g></g></g></g><g><clipPath id="clip-4371"><path d="M 630.5 384.5 L 737.8 384.5 L 737.8 232.6 L 630.5 232.6 Z M 630.5 384.5 "></path></clipPath><g clip-path="url(#clip-4371)"><g><clipPath id="clip-4372"><path d="M 694.3 232.6 L 695.3 232.6 L 695.3 384.5 L 694.3 384.5 Z M 694.3 232.6 "></path></clipPath><g clip-path="url(#clip-4372)"><path d="M 65.8 1.5 L 65.8 153.4 " fill="none" stroke="#DCDDE0" stroke-width="1.00" stroke-dasharray="2.0, 2.0" transform="matrix(1.00, 0.00, 0.00, -1.00, 629.0, 386.0)"></path></g></g></g></g><g><clipPath id="clip-4373"><path d="M 630.5 384.5 L 737.8 384.5 L 737.8 232.6 L 630.5 232.6 Z M 630.5 384.5 "></path></clipPath><g clip-path="url(#clip-4373)"><g><clipPath id="clip-4374"><path d="M 715.6 232.6 L 716.6 232.6 L 716.6 384.5 L 715.6 384.5 Z M 715.6 232.6 "></path></clipPath><g clip-path="url(#clip-4374)"><path d="M 87.1 1.5 L 87.1 153.4 " fill="none" stroke="#DCDDE0" stroke-width="1.00" stroke-dasharray="2.0, 2.0" transform="matrix(1.00, 0.00, 0.00, -1.00, 629.0, 386.0)"></path></g></g></g></g><g><clipPath id="clip-4375"><path d="M 630.5 384.5 L 737.8 384.5 L 737.8 232.6 L 630.5 232.6 Z M 630.5 384.5 "></path></clipPath><g clip-path="url(#clip-4375)"><g><clipPath id="clip-4376"><path d="M 630.5 364.6 L 737.8 364.6 L 737.8 365.6 L 630.5 365.6 Z M 630.5 364.6 "></path></clipPath><g clip-path="url(#clip-4376)"><path d="M 1.5 20.9 L 108.8 20.9 " fill="none" stroke="#DCDDE0" stroke-width="1.00" stroke-dasharray="2.0, 2.0" transform="matrix(1.00, 0.00, 0.00, -1.00, 629.0, 386.0)"></path></g></g></g></g><g><clipPath id="clip-4377"><path d="M 630.5 384.5 L 737.8 384.5 L 737.8 232.6 L 630.5 232.6 Z M 630.5 384.5 "></path></clipPath><g clip-path="url(#clip-4377)"><g><clipPath id="clip-4378"><path d="M 630.5 345.8 L 737.8 345.8 L 737.8 346.8 L 630.5 346.8 Z M 630.5 345.8 "></path></clipPath><g clip-path="url(#clip-4378)"><path d="M 1.5 39.7 L 108.8 39.7 " fill="none" stroke="#DCDDE0" stroke-width="1.00" stroke-dasharray="2.0, 2.0" transform="matrix(1.00, 0.00, 0.00, -1.00, 629.0, 386.0)"></path></g></g></g></g><g><clipPath id="clip-4379"><path d="M 630.5 384.5 L 737.8 384.5 L 737.8 232.6 L 630.5 232.6 Z M 630.5 384.5 "></path></clipPath><g clip-path="url(#clip-4379)"><g><clipPath id="clip-4380"><path d="M 630.5 326.9 L 737.8 326.9 L 737.8 327.9 L 630.5 327.9 Z M 630.5 326.9 "></path></clipPath><g clip-path="url(#clip-4380)"><path d="M 1.5 58.6 L 108.8 58.6 " fill="none" stroke="#DCDDE0" stroke-width="1.00" stroke-dasharray="2.0, 2.0" transform="matrix(1.00, 0.00, 0.00, -1.00, 629.0, 386.0)"></path></g></g></g></g><g><clipPath id="clip-4381"><path d="M 630.5 384.5 L 737.8 384.5 L 737.8 232.6 L 630.5 232.6 Z M 630.5 384.5 "></path></clipPath><g clip-path="url(#clip-4381)"><g><clipPath id="clip-4382"><path d="M 630.5 308.1 L 737.8 308.1 L 737.8 309.1 L 630.5 309.1 Z M 630.5 308.1 "></path></clipPath><g clip-path="url(#clip-4382)"><path d="M 1.5 77.4 L 108.8 77.4 " fill="none" stroke="#DCDDE0" stroke-width="1.00" stroke-dasharray="2.0, 2.0" transform="matrix(1.00, 0.00, 0.00, -1.00, 629.0, 386.0)"></path></g></g></g></g><g><clipPath id="clip-4383"><path d="M 630.5 384.5 L 737.8 384.5 L 737.8 232.6 L 630.5 232.6 Z M 630.5 384.5 "></path></clipPath><g clip-path="url(#clip-4383)"><g><clipPath id="clip-4384"><path d="M 630.5 289.2 L 737.8 289.2 L 737.8 290.2 L 630.5 290.2 Z M 630.5 289.2 "></path></clipPath><g clip-path="url(#clip-4384)"><path d="M 1.5 96.3 L 108.8 96.3 " fill="none" stroke="#DCDDE0" stroke-width="1.00" stroke-dasharray="2.0, 2.0" transform="matrix(1.00, 0.00, 0.00, -1.00, 629.0, 386.0)"></path></g></g></g></g><g><clipPath id="clip-4385"><path d="M 630.5 384.5 L 737.8 384.5 L 737.8 232.6 L 630.5 232.6 Z M 630.5 384.5 "></path></clipPath><g clip-path="url(#clip-4385)"><g><clipPath id="clip-4386"><path d="M 630.5 270.3 L 737.8 270.3 L 737.8 271.3 L 630.5 271.3 Z M 630.5 270.3 "></path></clipPath><g clip-path="url(#clip-4386)"><path d="M 1.5 115.2 L 108.8 115.2 " fill="none" stroke="#DCDDE0" stroke-width="1.00" stroke-dasharray="2.0, 2.0" transform="matrix(1.00, 0.00, 0.00, -1.00, 629.0, 386.0)"></path></g></g></g></g><g><clipPath id="clip-4387"><path d="M 630.5 384.5 L 737.8 384.5 L 737.8 232.6 L 630.5 232.6 Z M 630.5 384.5 "></path></clipPath><g clip-path="url(#clip-4387)"><g><clipPath id="clip-4388"><path d="M 630.5 251.5 L 737.8 251.5 L 737.8 252.5 L 630.5 252.5 Z M 630.5 251.5 "></path></clipPath><g clip-path="url(#clip-4388)"><path d="M 1.5 134.0 L 108.8 134.0 " fill="none" stroke="#DCDDE0" stroke-width="1.00" stroke-dasharray="2.0, 2.0" transform="matrix(1.00, 0.00, 0.00, -1.00, 629.0, 386.0)"></path></g></g></g></g><g><clipPath id="clip-4389"><path d="M 630.5 384.5 L 737.8 384.5 L 737.8 232.6 L 630.5 232.6 Z M 630.5 384.5 "></path></clipPath><g clip-path="url(#clip-4389)"><path d="M 2.0 1.5 L 2.0 153.4 " fill="none" stroke="#FEFFFE" stroke-width="1.00" transform="matrix(1.00, 0.00, 0.00, -1.00, 629.0, 386.0)"></path><path d="M 108.3 1.5 L 108.3 153.4 " fill="none" stroke="#FEFFFF" stroke-width="1.00" transform="matrix(1.00, 0.00, 0.00, -1.00, 629.0, 386.0)"></path><path d="M 1.5 2.0 L 108.8 2.0 " fill="none" stroke="#FEFFFE" stroke-width="1.00" transform="matrix(1.00, 0.00, 0.00, -1.00, 629.0, 386.0)"></path><path d="M 1.5 152.9 L 108.8 152.9 " fill="none" stroke="#FEFFFE" stroke-width="1.00" transform="matrix(1.00, 0.00, 0.00, -1.00, 629.0, 386.0)"></path></g></g><g><clipPath id="clip-4390"><path d="M 627.5 225.5 L 734.8 225.5 L 734.8 73.6 L 627.5 73.6 Z M 627.5 225.5 "></path></clipPath><g clip-path="url(#clip-4390)"><g><clipPath id="clip-4391"><path d="M 648.8 73.6 L 649.8 73.6 L 649.8 225.5 L 648.8 225.5 Z M 648.8 73.6 "></path></clipPath><g clip-path="url(#clip-4391)"><path d="M 23.3 1.5 L 23.3 153.4 " fill="none" stroke="#DCDDE0" stroke-width="1.00" stroke-dasharray="2.0, 2.0" transform="matrix(1.00, 0.00, 0.00, -1.00, 626.0, 227.0)"></path></g></g></g></g><g><clipPath id="clip-4392"><path d="M 627.5 225.5 L 734.8 225.5 L 734.8 73.6 L 627.5 73.6 Z M 627.5 225.5 "></path></clipPath><g clip-path="url(#clip-4392)"><g><clipPath id="clip-4393"><path d="M 670.0 73.6 L 671.0 73.6 L 671.0 225.5 L 670.0 225.5 Z M 670.0 73.6 "></path></clipPath><g clip-path="url(#clip-4393)"><path d="M 44.5 1.5 L 44.5 153.4 " fill="none" stroke="#DCDDE0" stroke-width="1.00" stroke-dasharray="2.0, 2.0" transform="matrix(1.00, 0.00, 0.00, -1.00, 626.0, 227.0)"></path></g></g></g></g><g><clipPath id="clip-4394"><path d="M 627.5 225.5 L 734.8 225.5 L 734.8 73.6 L 627.5 73.6 Z M 627.5 225.5 "></path></clipPath><g clip-path="url(#clip-4394)"><g><clipPath id="clip-4395"><path d="M 691.3 73.6 L 692.3 73.6 L 692.3 225.5 L 691.3 225.5 Z M 691.3 73.6 "></path></clipPath><g clip-path="url(#clip-4395)"><path d="M 65.8 1.5 L 65.8 153.4 " fill="none" stroke="#DCDDE0" stroke-width="1.00" stroke-dasharray="2.0, 2.0" transform="matrix(1.00, 0.00, 0.00, -1.00, 626.0, 227.0)"></path></g></g></g></g><g><clipPath id="clip-4396"><path d="M 627.5 225.5 L 734.8 225.5 L 734.8 73.6 L 627.5 73.6 Z M 627.5 225.5 "></path></clipPath><g clip-path="url(#clip-4396)"><g><clipPath id="clip-4397"><path d="M 712.6 73.6 L 713.6 73.6 L 713.6 225.5 L 712.6 225.5 Z M 712.6 73.6 "></path></clipPath><g clip-path="url(#clip-4397)"><path d="M 87.1 1.5 L 87.1 153.4 " fill="none" stroke="#DCDDE0" stroke-width="1.00" stroke-dasharray="2.0, 2.0" transform="matrix(1.00, 0.00, 0.00, -1.00, 626.0, 227.0)"></path></g></g></g></g><g><clipPath id="clip-4398"><path d="M 627.5 225.5 L 734.8 225.5 L 734.8 73.6 L 627.5 73.6 Z M 627.5 225.5 "></path></clipPath><g clip-path="url(#clip-4398)"><g><clipPath id="clip-4399"><path d="M 627.5 205.6 L 734.8 205.6 L 734.8 206.6 L 627.5 206.6 Z M 627.5 205.6 "></path></clipPath><g clip-path="url(#clip-4399)"><path d="M 1.5 20.9 L 108.8 20.9 " fill="none" stroke="#DCDDE0" stroke-width="1.00" stroke-dasharray="2.0, 2.0" transform="matrix(1.00, 0.00, 0.00, -1.00, 626.0, 227.0)"></path></g></g></g></g><g><clipPath id="clip-4400"><path d="M 627.5 225.5 L 734.8 225.5 L 734.8 73.6 L 627.5 73.6 Z M 627.5 225.5 "></path></clipPath><g clip-path="url(#clip-4400)"><g><clipPath id="clip-4401"><path d="M 627.5 186.8 L 734.8 186.8 L 734.8 187.8 L 627.5 187.8 Z M 627.5 186.8 "></path></clipPath><g clip-path="url(#clip-4401)"><path d="M 1.5 39.7 L 108.8 39.7 " fill="none" stroke="#DCDDE0" stroke-width="1.00" stroke-dasharray="2.0, 2.0" transform="matrix(1.00, 0.00, 0.00, -1.00, 626.0, 227.0)"></path></g></g></g></g><g><clipPath id="clip-4402"><path d="M 627.5 225.5 L 734.8 225.5 L 734.8 73.6 L 627.5 73.6 Z M 627.5 225.5 "></path></clipPath><g clip-path="url(#clip-4402)"><g><clipPath id="clip-4403"><path d="M 627.5 167.9 L 734.8 167.9 L 734.8 168.9 L 627.5 168.9 Z M 627.5 167.9 "></path></clipPath><g clip-path="url(#clip-4403)"><path d="M 1.5 58.6 L 108.8 58.6 " fill="none" stroke="#DCDDE0" stroke-width="1.00" stroke-dasharray="2.0, 2.0" transform="matrix(1.00, 0.00, 0.00, -1.00, 626.0, 227.0)"></path></g></g></g></g><g><clipPath id="clip-4404"><path d="M 627.5 225.5 L 734.8 225.5 L 734.8 73.6 L 627.5 73.6 Z M 627.5 225.5 "></path></clipPath><g clip-path="url(#clip-4404)"><g><clipPath id="clip-4405"><path d="M 627.5 149.1 L 734.8 149.1 L 734.8 150.1 L 627.5 150.1 Z M 627.5 149.1 "></path></clipPath><g clip-path="url(#clip-4405)"><path d="M 1.5 77.4 L 108.8 77.4 " fill="none" stroke="#DCDDE0" stroke-width="1.00" stroke-dasharray="2.0, 2.0" transform="matrix(1.00, 0.00, 0.00, -1.00, 626.0, 227.0)"></path></g></g></g></g><g><clipPath id="clip-4406"><path d="M 627.5 225.5 L 734.8 225.5 L 734.8 73.6 L 627.5 73.6 Z M 627.5 225.5 "></path></clipPath><g clip-path="url(#clip-4406)"><g><clipPath id="clip-4407"><path d="M 627.5 130.2 L 734.8 130.2 L 734.8 131.2 L 627.5 131.2 Z M 627.5 130.2 "></path></clipPath><g clip-path="url(#clip-4407)"><path d="M 1.5 96.3 L 108.8 96.3 " fill="none" stroke="#DCDDE0" stroke-width="1.00" stroke-dasharray="2.0, 2.0" transform="matrix(1.00, 0.00, 0.00, -1.00, 626.0, 227.0)"></path></g></g></g></g><g><clipPath id="clip-4408"><path d="M 627.5 225.5 L 734.8 225.5 L 734.8 73.6 L 627.5 73.6 Z M 627.5 225.5 "></path></clipPath><g clip-path="url(#clip-4408)"><g><clipPath id="clip-4409"><path d="M 627.5 111.3 L 734.8 111.3 L 734.8 112.3 L 627.5 112.3 Z M 627.5 111.3 "></path></clipPath><g clip-path="url(#clip-4409)"><path d="M 1.5 115.2 L 108.8 115.2 " fill="none" stroke="#DCDDE0" stroke-width="1.00" stroke-dasharray="2.0, 2.0" transform="matrix(1.00, 0.00, 0.00, -1.00, 626.0, 227.0)"></path></g></g></g></g><g><clipPath id="clip-4410"><path d="M 627.5 225.5 L 734.8 225.5 L 734.8 73.6 L 627.5 73.6 Z M 627.5 225.5 "></path></clipPath><g clip-path="url(#clip-4410)"><g><clipPath id="clip-4411"><path d="M 627.5 92.5 L 734.8 92.5 L 734.8 93.5 L 627.5 93.5 Z M 627.5 92.5 "></path></clipPath><g clip-path="url(#clip-4411)"><path d="M 1.5 134.0 L 108.8 134.0 " fill="none" stroke="#DCDDE0" stroke-width="1.00" stroke-dasharray="2.0, 2.0" transform="matrix(1.00, 0.00, 0.00, -1.00, 626.0, 227.0)"></path></g></g></g></g><g><clipPath id="clip-4412"><path d="M 627.5 225.5 L 734.8 225.5 L 734.8 73.6 L 627.5 73.6 Z M 627.5 225.5 "></path></clipPath><g clip-path="url(#clip-4412)"><path d="M 2.0 1.5 L 2.0 153.4 " fill="none" stroke="#FEFFFE" stroke-width="1.00" transform="matrix(1.00, 0.00, 0.00, -1.00, 626.0, 227.0)"></path><path d="M 108.3 1.5 L 108.3 153.4 " fill="none" stroke="#FEFFFF" stroke-width="1.00" transform="matrix(1.00, 0.00, 0.00, -1.00, 626.0, 227.0)"></path><path d="M 1.5 2.0 L 108.8 2.0 " fill="none" stroke="#FEFFFE" stroke-width="1.00" transform="matrix(1.00, 0.00, 0.00, -1.00, 626.0, 227.0)"></path><path d="M 1.5 152.9 L 108.8 152.9 " fill="none" stroke="#FEFFFE" stroke-width="1.00" transform="matrix(1.00, 0.00, 0.00, -1.00, 626.0, 227.0)"></path></g></g><g><clipPath id="clip-4413"><path d="M 746.5 307.5 L 853.8 307.5 L 853.8 155.6 L 746.5 155.6 Z M 746.5 307.5 "></path></clipPath><g clip-path="url(#clip-4413)"><g><clipPath id="clip-4414"><path d="M 767.8 155.6 L 768.8 155.6 L 768.8 307.5 L 767.8 307.5 Z M 767.8 155.6 "></path></clipPath><g clip-path="url(#clip-4414)"><path d="M 23.3 1.5 L 23.3 153.4 " fill="none" stroke="#DCDDE0" stroke-width="1.00" stroke-dasharray="2.0, 2.0" transform="matrix(1.00, 0.00, 0.00, -1.00, 745.0, 309.0)"></path></g></g></g></g><g><clipPath id="clip-4415"><path d="M 746.5 307.5 L 853.8 307.5 L 853.8 155.6 L 746.5 155.6 Z M 746.5 307.5 "></path></clipPath><g clip-path="url(#clip-4415)"><g><clipPath id="clip-4416"><path d="M 789.0 155.6 L 790.0 155.6 L 790.0 307.5 L 789.0 307.5 Z M 789.0 155.6 "></path></clipPath><g clip-path="url(#clip-4416)"><path d="M 44.5 1.5 L 44.5 153.4 " fill="none" stroke="#DCDDE0" stroke-width="1.00" stroke-dasharray="2.0, 2.0" transform="matrix(1.00, 0.00, 0.00, -1.00, 745.0, 309.0)"></path></g></g></g></g><g><clipPath id="clip-4417"><path d="M 746.5 307.5 L 853.8 307.5 L 853.8 155.6 L 746.5 155.6 Z M 746.5 307.5 "></path></clipPath><g clip-path="url(#clip-4417)"><g><clipPath id="clip-4418"><path d="M 810.3 155.6 L 811.3 155.6 L 811.3 307.5 L 810.3 307.5 Z M 810.3 155.6 "></path></clipPath><g clip-path="url(#clip-4418)"><path d="M 65.8 1.5 L 65.8 153.4 " fill="none" stroke="#DCDDE0" stroke-width="1.00" stroke-dasharray="2.0, 2.0" transform="matrix(1.00, 0.00, 0.00, -1.00, 745.0, 309.0)"></path></g></g></g></g><g><clipPath id="clip-4419"><path d="M 746.5 307.5 L 853.8 307.5 L 853.8 155.6 L 746.5 155.6 Z M 746.5 307.5 "></path></clipPath><g clip-path="url(#clip-4419)"><g><clipPath id="clip-4420"><path d="M 831.6 155.6 L 832.6 155.6 L 832.6 307.5 L 831.6 307.5 Z M 831.6 155.6 "></path></clipPath><g clip-path="url(#clip-4420)"><path d="M 87.1 1.5 L 87.1 153.4 " fill="none" stroke="#DCDDE0" stroke-width="1.00" stroke-dasharray="2.0, 2.0" transform="matrix(1.00, 0.00, 0.00, -1.00, 745.0, 309.0)"></path></g></g></g></g><g><clipPath id="clip-4421"><path d="M 746.5 307.5 L 853.8 307.5 L 853.8 155.6 L 746.5 155.6 Z M 746.5 307.5 "></path></clipPath><g clip-path="url(#clip-4421)"><g><clipPath id="clip-4422"><path d="M 746.5 287.6 L 853.8 287.6 L 853.8 288.6 L 746.5 288.6 Z M 746.5 287.6 "></path></clipPath><g clip-path="url(#clip-4422)"><path d="M 1.5 20.9 L 108.8 20.9 " fill="none" stroke="#DCDDE0" stroke-width="1.00" stroke-dasharray="2.0, 2.0" transform="matrix(1.00, 0.00, 0.00, -1.00, 745.0, 309.0)"></path></g></g></g></g><g><clipPath id="clip-4423"><path d="M 746.5 307.5 L 853.8 307.5 L 853.8 155.6 L 746.5 155.6 Z M 746.5 307.5 "></path></clipPath><g clip-path="url(#clip-4423)"><g><clipPath id="clip-4424"><path d="M 746.5 268.8 L 853.8 268.8 L 853.8 269.8 L 746.5 269.8 Z M 746.5 268.8 "></path></clipPath><g clip-path="url(#clip-4424)"><path d="M 1.5 39.7 L 108.8 39.7 " fill="none" stroke="#DCDDE0" stroke-width="1.00" stroke-dasharray="2.0, 2.0" transform="matrix(1.00, 0.00, 0.00, -1.00, 745.0, 309.0)"></path></g></g></g></g><g><clipPath id="clip-4425"><path d="M 746.5 307.5 L 853.8 307.5 L 853.8 155.6 L 746.5 155.6 Z M 746.5 307.5 "></path></clipPath><g clip-path="url(#clip-4425)"><g><clipPath id="clip-4426"><path d="M 746.5 249.9 L 853.8 249.9 L 853.8 250.9 L 746.5 250.9 Z M 746.5 249.9 "></path></clipPath><g clip-path="url(#clip-4426)"><path d="M 1.5 58.6 L 108.8 58.6 " fill="none" stroke="#DCDDE0" stroke-width="1.00" stroke-dasharray="2.0, 2.0" transform="matrix(1.00, 0.00, 0.00, -1.00, 745.0, 309.0)"></path></g></g></g></g><g><clipPath id="clip-4427"><path d="M 746.5 307.5 L 853.8 307.5 L 853.8 155.6 L 746.5 155.6 Z M 746.5 307.5 "></path></clipPath><g clip-path="url(#clip-4427)"><g><clipPath id="clip-4428"><path d="M 746.5 231.1 L 853.8 231.1 L 853.8 232.1 L 746.5 232.1 Z M 746.5 231.1 "></path></clipPath><g clip-path="url(#clip-4428)"><path d="M 1.5 77.4 L 108.8 77.4 " fill="none" stroke="#DCDDE0" stroke-width="1.00" stroke-dasharray="2.0, 2.0" transform="matrix(1.00, 0.00, 0.00, -1.00, 745.0, 309.0)"></path></g></g></g></g><g><clipPath id="clip-4429"><path d="M 746.5 307.5 L 853.8 307.5 L 853.8 155.6 L 746.5 155.6 Z M 746.5 307.5 "></path></clipPath><g clip-path="url(#clip-4429)"><g><clipPath id="clip-4430"><path d="M 746.5 212.2 L 853.8 212.2 L 853.8 213.2 L 746.5 213.2 Z M 746.5 212.2 "></path></clipPath><g clip-path="url(#clip-4430)"><path d="M 1.5 96.3 L 108.8 96.3 " fill="none" stroke="#DCDDE0" stroke-width="1.00" stroke-dasharray="2.0, 2.0" transform="matrix(1.00, 0.00, 0.00, -1.00, 745.0, 309.0)"></path></g></g></g></g><g><clipPath id="clip-4431"><path d="M 746.5 307.5 L 853.8 307.5 L 853.8 155.6 L 746.5 155.6 Z M 746.5 307.5 "></path></clipPath><g clip-path="url(#clip-4431)"><g><clipPath id="clip-4432"><path d="M 746.5 193.3 L 853.8 193.3 L 853.8 194.3 L 746.5 194.3 Z M 746.5 193.3 "></path></clipPath><g clip-path="url(#clip-4432)"><path d="M 1.5 115.2 L 108.8 115.2 " fill="none" stroke="#DCDDE0" stroke-width="1.00" stroke-dasharray="2.0, 2.0" transform="matrix(1.00, 0.00, 0.00, -1.00, 745.0, 309.0)"></path></g></g></g></g><g><clipPath id="clip-4433"><path d="M 746.5 307.5 L 853.8 307.5 L 853.8 155.6 L 746.5 155.6 Z M 746.5 307.5 "></path></clipPath><g clip-path="url(#clip-4433)"><g><clipPath id="clip-4434"><path d="M 746.5 174.5 L 853.8 174.5 L 853.8 175.5 L 746.5 175.5 Z M 746.5 174.5 "></path></clipPath><g clip-path="url(#clip-4434)"><path d="M 1.5 134.0 L 108.8 134.0 " fill="none" stroke="#DCDDE0" stroke-width="1.00" stroke-dasharray="2.0, 2.0" transform="matrix(1.00, 0.00, 0.00, -1.00, 745.0, 309.0)"></path></g></g></g></g><g><clipPath id="clip-4435"><path d="M 746.5 307.5 L 853.8 307.5 L 853.8 155.6 L 746.5 155.6 Z M 746.5 307.5 "></path></clipPath><g clip-path="url(#clip-4435)"><path d="M 2.0 1.5 L 2.0 153.4 " fill="none" stroke="#FEFFFE" stroke-width="1.00" transform="matrix(1.00, 0.00, 0.00, -1.00, 745.0, 309.0)"></path><path d="M 108.3 1.5 L 108.3 153.4 " fill="none" stroke="#FEFFFF" stroke-width="1.00" transform="matrix(1.00, 0.00, 0.00, -1.00, 745.0, 309.0)"></path><path d="M 1.5 2.0 L 108.8 2.0 " fill="none" stroke="#FEFFFE" stroke-width="1.00" transform="matrix(1.00, 0.00, 0.00, -1.00, 745.0, 309.0)"></path><path d="M 1.5 152.9 L 108.8 152.9 " fill="none" stroke="#FEFFFE" stroke-width="1.00" transform="matrix(1.00, 0.00, 0.00, -1.00, 745.0, 309.0)"></path></g></g><image xlink:href="../../8E396BF4-52CA-4E1F-94AD-BC5C08515456/assets/DE599FB648E859053D93BEE811B8135A.png" width="106.00" height="142.00" transform="matrix(1.01, 0.00, -0.00, -0.99, 318.0, 595.0)"></image><image xlink:href="../../8E396BF4-52CA-4E1F-94AD-BC5C08515456/assets/6DDDFD7471AE2F61D9519FA871F099FC.png" width="110.00" height="143.00" transform="matrix(1.00, 0.00, -0.00, -0.99, 199.0, 518.0)"></image><image xlink:href="../../8E396BF4-52CA-4E1F-94AD-BC5C08515456/assets/C25E84DBDF47A5CBDC766300E8243A38.png" width="114.00" height="143.00" transform="matrix(1.00, 0.00, -0.00, -1.00, 197.0, 673.0)"></image><image xlink:href="../../8E396BF4-52CA-4E1F-94AD-BC5C08515456/assets/E9A5801B89102159FF8070049E7B703D.png" width="110.00" height="143.00" transform="matrix(1.00, 0.00, -0.00, -1.00, 85.0, 673.0)"></image><g><clipPath id="clip-4436"><path d="M 89.5 677.5 L 196.8 677.5 L 196.8 525.6 L 89.5 525.6 Z M 89.5 677.5 "></path></clipPath><g clip-path="url(#clip-4436)"><g><clipPath id="clip-4437"><path d="M 110.8 525.6 L 111.8 525.6 L 111.8 677.5 L 110.8 677.5 Z M 110.8 525.6 "></path></clipPath><g clip-path="url(#clip-4437)"><path d="M 23.3 1.5 L 23.3 153.4 " fill="none" stroke="#DCDDE0" stroke-width="1.00" stroke-dasharray="2.0, 2.0" transform="matrix(1.00, 0.00, 0.00, -1.00, 88.0, 679.0)"></path></g></g></g></g><g><clipPath id="clip-4438"><path d="M 89.5 677.5 L 196.8 677.5 L 196.8 525.6 L 89.5 525.6 Z M 89.5 677.5 "></path></clipPath><g clip-path="url(#clip-4438)"><g><clipPath id="clip-4439"><path d="M 132.0 525.6 L 133.0 525.6 L 133.0 677.5 L 132.0 677.5 Z M 132.0 525.6 "></path></clipPath><g clip-path="url(#clip-4439)"><path d="M 44.5 1.5 L 44.5 153.4 " fill="none" stroke="#DCDDE0" stroke-width="1.00" stroke-dasharray="2.0, 2.0" transform="matrix(1.00, 0.00, 0.00, -1.00, 88.0, 679.0)"></path></g></g></g></g><g><clipPath id="clip-4440"><path d="M 89.5 677.5 L 196.8 677.5 L 196.8 525.6 L 89.5 525.6 Z M 89.5 677.5 "></path></clipPath><g clip-path="url(#clip-4440)"><g><clipPath id="clip-4441"><path d="M 153.3 525.6 L 154.3 525.6 L 154.3 677.5 L 153.3 677.5 Z M 153.3 525.6 "></path></clipPath><g clip-path="url(#clip-4441)"><path d="M 65.8 1.5 L 65.8 153.4 " fill="none" stroke="#DCDDE0" stroke-width="1.00" stroke-dasharray="2.0, 2.0" transform="matrix(1.00, 0.00, 0.00, -1.00, 88.0, 679.0)"></path></g></g></g></g><g><clipPath id="clip-4442"><path d="M 89.5 677.5 L 196.8 677.5 L 196.8 525.6 L 89.5 525.6 Z M 89.5 677.5 "></path></clipPath><g clip-path="url(#clip-4442)"><g><clipPath id="clip-4443"><path d="M 174.6 525.6 L 175.6 525.6 L 175.6 677.5 L 174.6 677.5 Z M 174.6 525.6 "></path></clipPath><g clip-path="url(#clip-4443)"><path d="M 87.1 1.5 L 87.1 153.4 " fill="none" stroke="#DCDDE0" stroke-width="1.00" stroke-dasharray="2.0, 2.0" transform="matrix(1.00, 0.00, 0.00, -1.00, 88.0, 679.0)"></path></g></g></g></g><g><clipPath id="clip-4444"><path d="M 89.5 677.5 L 196.8 677.5 L 196.8 525.6 L 89.5 525.6 Z M 89.5 677.5 "></path></clipPath><g clip-path="url(#clip-4444)"><g><clipPath id="clip-4445"><path d="M 89.5 657.6 L 196.8 657.6 L 196.8 658.6 L 89.5 658.6 Z M 89.5 657.6 "></path></clipPath><g clip-path="url(#clip-4445)"><path d="M 1.5 20.9 L 108.8 20.9 " fill="none" stroke="#DCDDE0" stroke-width="1.00" stroke-dasharray="2.0, 2.0" transform="matrix(1.00, 0.00, 0.00, -1.00, 88.0, 679.0)"></path></g></g></g></g><g><clipPath id="clip-4446"><path d="M 89.5 677.5 L 196.8 677.5 L 196.8 525.6 L 89.5 525.6 Z M 89.5 677.5 "></path></clipPath><g clip-path="url(#clip-4446)"><g><clipPath id="clip-4447"><path d="M 89.5 638.8 L 196.8 638.8 L 196.8 639.8 L 89.5 639.8 Z M 89.5 638.8 "></path></clipPath><g clip-path="url(#clip-4447)"><path d="M 1.5 39.7 L 108.8 39.7 " fill="none" stroke="#DCDDE0" stroke-width="1.00" stroke-dasharray="2.0, 2.0" transform="matrix(1.00, 0.00, 0.00, -1.00, 88.0, 679.0)"></path></g></g></g></g><g><clipPath id="clip-4448"><path d="M 89.5 677.5 L 196.8 677.5 L 196.8 525.6 L 89.5 525.6 Z M 89.5 677.5 "></path></clipPath><g clip-path="url(#clip-4448)"><g><clipPath id="clip-4449"><path d="M 89.5 619.9 L 196.8 619.9 L 196.8 620.9 L 89.5 620.9 Z M 89.5 619.9 "></path></clipPath><g clip-path="url(#clip-4449)"><path d="M 1.5 58.6 L 108.8 58.6 " fill="none" stroke="#DCDDE0" stroke-width="1.00" stroke-dasharray="2.0, 2.0" transform="matrix(1.00, 0.00, 0.00, -1.00, 88.0, 679.0)"></path></g></g></g></g><g><clipPath id="clip-4450"><path d="M 89.5 677.5 L 196.8 677.5 L 196.8 525.6 L 89.5 525.6 Z M 89.5 677.5 "></path></clipPath><g clip-path="url(#clip-4450)"><g><clipPath id="clip-4451"><path d="M 89.5 601.1 L 196.8 601.1 L 196.8 602.1 L 89.5 602.1 Z M 89.5 601.1 "></path></clipPath><g clip-path="url(#clip-4451)"><path d="M 1.5 77.4 L 108.8 77.4 " fill="none" stroke="#DCDDE0" stroke-width="1.00" stroke-dasharray="2.0, 2.0" transform="matrix(1.00, 0.00, 0.00, -1.00, 88.0, 679.0)"></path></g></g></g></g><g><clipPath id="clip-4452"><path d="M 89.5 677.5 L 196.8 677.5 L 196.8 525.6 L 89.5 525.6 Z M 89.5 677.5 "></path></clipPath><g clip-path="url(#clip-4452)"><g><clipPath id="clip-4453"><path d="M 89.5 582.2 L 196.8 582.2 L 196.8 583.2 L 89.5 583.2 Z M 89.5 582.2 "></path></clipPath><g clip-path="url(#clip-4453)"><path d="M 1.5 96.3 L 108.8 96.3 " fill="none" stroke="#DCDDE0" stroke-width="1.00" stroke-dasharray="2.0, 2.0" transform="matrix(1.00, 0.00, 0.00, -1.00, 88.0, 679.0)"></path></g></g></g></g><g><clipPath id="clip-4454"><path d="M 89.5 677.5 L 196.8 677.5 L 196.8 525.6 L 89.5 525.6 Z M 89.5 677.5 "></path></clipPath><g clip-path="url(#clip-4454)"><g><clipPath id="clip-4455"><path d="M 89.5 563.3 L 196.8 563.3 L 196.8 564.3 L 89.5 564.3 Z M 89.5 563.3 "></path></clipPath><g clip-path="url(#clip-4455)"><path d="M 1.5 115.2 L 108.8 115.2 " fill="none" stroke="#DCDDE0" stroke-width="1.00" stroke-dasharray="2.0, 2.0" transform="matrix(1.00, 0.00, 0.00, -1.00, 88.0, 679.0)"></path></g></g></g></g><g><clipPath id="clip-4456"><path d="M 89.5 677.5 L 196.8 677.5 L 196.8 525.6 L 89.5 525.6 Z M 89.5 677.5 "></path></clipPath><g clip-path="url(#clip-4456)"><g><clipPath id="clip-4457"><path d="M 89.5 544.5 L 196.8 544.5 L 196.8 545.5 L 89.5 545.5 Z M 89.5 544.5 "></path></clipPath><g clip-path="url(#clip-4457)"><path d="M 1.5 134.0 L 108.8 134.0 " fill="none" stroke="#DCDDE0" stroke-width="1.00" stroke-dasharray="2.0, 2.0" transform="matrix(1.00, 0.00, 0.00, -1.00, 88.0, 679.0)"></path></g></g></g></g><g><clipPath id="clip-4458"><path d="M 89.5 677.5 L 196.8 677.5 L 196.8 525.6 L 89.5 525.6 Z M 89.5 677.5 "></path></clipPath><g clip-path="url(#clip-4458)"><path d="M 2.0 1.5 L 2.0 153.4 " fill="none" stroke="#FEFFFE" stroke-width="1.00" transform="matrix(1.00, 0.00, 0.00, -1.00, 88.0, 679.0)"></path><path d="M 108.3 1.5 L 108.3 153.4 " fill="none" stroke="#FEFFFF" stroke-width="1.00" transform="matrix(1.00, 0.00, 0.00, -1.00, 88.0, 679.0)"></path><path d="M 1.5 2.0 L 108.8 2.0 " fill="none" stroke="#FEFFFE" stroke-width="1.00" transform="matrix(1.00, 0.00, 0.00, -1.00, 88.0, 679.0)"></path><path d="M 1.5 152.9 L 108.8 152.9 " fill="none" stroke="#FEFFFE" stroke-width="1.00" transform="matrix(1.00, 0.00, 0.00, -1.00, 88.0, 679.0)"></path></g></g><g><clipPath id="clip-4459"><path d="M 203.5 677.5 L 310.8 677.5 L 310.8 525.6 L 203.5 525.6 Z M 203.5 677.5 "></path></clipPath><g clip-path="url(#clip-4459)"><g><clipPath id="clip-4460"><path d="M 224.8 525.6 L 225.8 525.6 L 225.8 677.5 L 224.8 677.5 Z M 224.8 525.6 "></path></clipPath><g clip-path="url(#clip-4460)"><path d="M 23.3 1.5 L 23.3 153.4 " fill="none" stroke="#DCDDE0" stroke-width="1.00" stroke-dasharray="2.0, 2.0" transform="matrix(1.00, 0.00, 0.00, -1.00, 202.0, 679.0)"></path></g></g></g></g><g><clipPath id="clip-4461"><path d="M 203.5 677.5 L 310.8 677.5 L 310.8 525.6 L 203.5 525.6 Z M 203.5 677.5 "></path></clipPath><g clip-path="url(#clip-4461)"><g><clipPath id="clip-4462"><path d="M 246.0 525.6 L 247.0 525.6 L 247.0 677.5 L 246.0 677.5 Z M 246.0 525.6 "></path></clipPath><g clip-path="url(#clip-4462)"><path d="M 44.5 1.5 L 44.5 153.4 " fill="none" stroke="#DCDDE0" stroke-width="1.00" stroke-dasharray="2.0, 2.0" transform="matrix(1.00, 0.00, 0.00, -1.00, 202.0, 679.0)"></path></g></g></g></g><g><clipPath id="clip-4463"><path d="M 203.5 677.5 L 310.8 677.5 L 310.8 525.6 L 203.5 525.6 Z M 203.5 677.5 "></path></clipPath><g clip-path="url(#clip-4463)"><g><clipPath id="clip-4464"><path d="M 267.3 525.6 L 268.3 525.6 L 268.3 677.5 L 267.3 677.5 Z M 267.3 525.6 "></path></clipPath><g clip-path="url(#clip-4464)"><path d="M 65.8 1.5 L 65.8 153.4 " fill="none" stroke="#DCDDE0" stroke-width="1.00" stroke-dasharray="2.0, 2.0" transform="matrix(1.00, 0.00, 0.00, -1.00, 202.0, 679.0)"></path></g></g></g></g><g><clipPath id="clip-4465"><path d="M 203.5 677.5 L 310.8 677.5 L 310.8 525.6 L 203.5 525.6 Z M 203.5 677.5 "></path></clipPath><g clip-path="url(#clip-4465)"><g><clipPath id="clip-4466"><path d="M 288.6 525.6 L 289.6 525.6 L 289.6 677.5 L 288.6 677.5 Z M 288.6 525.6 "></path></clipPath><g clip-path="url(#clip-4466)"><path d="M 87.1 1.5 L 87.1 153.4 " fill="none" stroke="#DCDDE0" stroke-width="1.00" stroke-dasharray="2.0, 2.0" transform="matrix(1.00, 0.00, 0.00, -1.00, 202.0, 679.0)"></path></g></g></g></g><g><clipPath id="clip-4467"><path d="M 203.5 677.5 L 310.8 677.5 L 310.8 525.6 L 203.5 525.6 Z M 203.5 677.5 "></path></clipPath><g clip-path="url(#clip-4467)"><g><clipPath id="clip-4468"><path d="M 203.5 657.6 L 310.8 657.6 L 310.8 658.6 L 203.5 658.6 Z M 203.5 657.6 "></path></clipPath><g clip-path="url(#clip-4468)"><path d="M 1.5 20.9 L 108.8 20.9 " fill="none" stroke="#DCDDE0" stroke-width="1.00" stroke-dasharray="2.0, 2.0" transform="matrix(1.00, 0.00, 0.00, -1.00, 202.0, 679.0)"></path></g></g></g></g><g><clipPath id="clip-4469"><path d="M 203.5 677.5 L 310.8 677.5 L 310.8 525.6 L 203.5 525.6 Z M 203.5 677.5 "></path></clipPath><g clip-path="url(#clip-4469)"><g><clipPath id="clip-4470"><path d="M 203.5 638.8 L 310.8 638.8 L 310.8 639.8 L 203.5 639.8 Z M 203.5 638.8 "></path></clipPath><g clip-path="url(#clip-4470)"><path d="M 1.5 39.7 L 108.8 39.7 " fill="none" stroke="#DCDDE0" stroke-width="1.00" stroke-dasharray="2.0, 2.0" transform="matrix(1.00, 0.00, 0.00, -1.00, 202.0, 679.0)"></path></g></g></g></g><g><clipPath id="clip-4471"><path d="M 203.5 677.5 L 310.8 677.5 L 310.8 525.6 L 203.5 525.6 Z M 203.5 677.5 "></path></clipPath><g clip-path="url(#clip-4471)"><g><clipPath id="clip-4472"><path d="M 203.5 619.9 L 310.8 619.9 L 310.8 620.9 L 203.5 620.9 Z M 203.5 619.9 "></path></clipPath><g clip-path="url(#clip-4472)"><path d="M 1.5 58.6 L 108.8 58.6 " fill="none" stroke="#DCDDE0" stroke-width="1.00" stroke-dasharray="2.0, 2.0" transform="matrix(1.00, 0.00, 0.00, -1.00, 202.0, 679.0)"></path></g></g></g></g><g><clipPath id="clip-4473"><path d="M 203.5 677.5 L 310.8 677.5 L 310.8 525.6 L 203.5 525.6 Z M 203.5 677.5 "></path></clipPath><g clip-path="url(#clip-4473)"><g><clipPath id="clip-4474"><path d="M 203.5 601.1 L 310.8 601.1 L 310.8 602.1 L 203.5 602.1 Z M 203.5 601.1 "></path></clipPath><g clip-path="url(#clip-4474)"><path d="M 1.5 77.4 L 108.8 77.4 " fill="none" stroke="#DCDDE0" stroke-width="1.00" stroke-dasharray="2.0, 2.0" transform="matrix(1.00, 0.00, 0.00, -1.00, 202.0, 679.0)"></path></g></g></g></g><g><clipPath id="clip-4475"><path d="M 203.5 677.5 L 310.8 677.5 L 310.8 525.6 L 203.5 525.6 Z M 203.5 677.5 "></path></clipPath><g clip-path="url(#clip-4475)"><g><clipPath id="clip-4476"><path d="M 203.5 582.2 L 310.8 582.2 L 310.8 583.2 L 203.5 583.2 Z M 203.5 582.2 "></path></clipPath><g clip-path="url(#clip-4476)"><path d="M 1.5 96.3 L 108.8 96.3 " fill="none" stroke="#DCDDE0" stroke-width="1.00" stroke-dasharray="2.0, 2.0" transform="matrix(1.00, 0.00, 0.00, -1.00, 202.0, 679.0)"></path></g></g></g></g><g><clipPath id="clip-4477"><path d="M 203.5 677.5 L 310.8 677.5 L 310.8 525.6 L 203.5 525.6 Z M 203.5 677.5 "></path></clipPath><g clip-path="url(#clip-4477)"><g><clipPath id="clip-4478"><path d="M 203.5 563.3 L 310.8 563.3 L 310.8 564.3 L 203.5 564.3 Z M 203.5 563.3 "></path></clipPath><g clip-path="url(#clip-4478)"><path d="M 1.5 115.2 L 108.8 115.2 " fill="none" stroke="#DCDDE0" stroke-width="1.00" stroke-dasharray="2.0, 2.0" transform="matrix(1.00, 0.00, 0.00, -1.00, 202.0, 679.0)"></path></g></g></g></g><g><clipPath id="clip-4479"><path d="M 203.5 677.5 L 310.8 677.5 L 310.8 525.6 L 203.5 525.6 Z M 203.5 677.5 "></path></clipPath><g clip-path="url(#clip-4479)"><g><clipPath id="clip-4480"><path d="M 203.5 544.5 L 310.8 544.5 L 310.8 545.5 L 203.5 545.5 Z M 203.5 544.5 "></path></clipPath><g clip-path="url(#clip-4480)"><path d="M 1.5 134.0 L 108.8 134.0 " fill="none" stroke="#DCDDE0" stroke-width="1.00" stroke-dasharray="2.0, 2.0" transform="matrix(1.00, 0.00, 0.00, -1.00, 202.0, 679.0)"></path></g></g></g></g><g><clipPath id="clip-4481"><path d="M 203.5 677.5 L 310.8 677.5 L 310.8 525.6 L 203.5 525.6 Z M 203.5 677.5 "></path></clipPath><g clip-path="url(#clip-4481)"><path d="M 2.0 1.5 L 2.0 153.4 " fill="none" stroke="#FEFFFE" stroke-width="1.00" transform="matrix(1.00, 0.00, 0.00, -1.00, 202.0, 679.0)"></path><path d="M 108.3 1.5 L 108.3 153.4 " fill="none" stroke="#FEFFFF" stroke-width="1.00" transform="matrix(1.00, 0.00, 0.00, -1.00, 202.0, 679.0)"></path><path d="M 1.5 2.0 L 108.8 2.0 " fill="none" stroke="#FEFFFE" stroke-width="1.00" transform="matrix(1.00, 0.00, 0.00, -1.00, 202.0, 679.0)"></path><path d="M 1.5 152.9 L 108.8 152.9 " fill="none" stroke="#FEFFFE" stroke-width="1.00" transform="matrix(1.00, 0.00, 0.00, -1.00, 202.0, 679.0)"></path></g></g><g><clipPath id="clip-4482"><path d="M 200.5 518.5 L 307.8 518.5 L 307.8 366.6 L 200.5 366.6 Z M 200.5 518.5 "></path></clipPath><g clip-path="url(#clip-4482)"><g><clipPath id="clip-4483"><path d="M 221.8 366.6 L 222.8 366.6 L 222.8 518.5 L 221.8 518.5 Z M 221.8 366.6 "></path></clipPath><g clip-path="url(#clip-4483)"><path d="M 23.3 1.5 L 23.3 153.4 " fill="none" stroke="#DCDDE0" stroke-width="1.00" stroke-dasharray="2.0, 2.0" transform="matrix(1.00, 0.00, 0.00, -1.00, 199.0, 520.0)"></path></g></g></g></g><g><clipPath id="clip-4484"><path d="M 200.5 518.5 L 307.8 518.5 L 307.8 366.6 L 200.5 366.6 Z M 200.5 518.5 "></path></clipPath><g clip-path="url(#clip-4484)"><g><clipPath id="clip-4485"><path d="M 243.0 366.6 L 244.0 366.6 L 244.0 518.5 L 243.0 518.5 Z M 243.0 366.6 "></path></clipPath><g clip-path="url(#clip-4485)"><path d="M 44.5 1.5 L 44.5 153.4 " fill="none" stroke="#DCDDE0" stroke-width="1.00" stroke-dasharray="2.0, 2.0" transform="matrix(1.00, 0.00, 0.00, -1.00, 199.0, 520.0)"></path></g></g></g></g><g><clipPath id="clip-4486"><path d="M 200.5 518.5 L 307.8 518.5 L 307.8 366.6 L 200.5 366.6 Z M 200.5 518.5 "></path></clipPath><g clip-path="url(#clip-4486)"><g><clipPath id="clip-4487"><path d="M 264.3 366.6 L 265.3 366.6 L 265.3 518.5 L 264.3 518.5 Z M 264.3 366.6 "></path></clipPath><g clip-path="url(#clip-4487)"><path d="M 65.8 1.5 L 65.8 153.4 " fill="none" stroke="#DCDDE0" stroke-width="1.00" stroke-dasharray="2.0, 2.0" transform="matrix(1.00, 0.00, 0.00, -1.00, 199.0, 520.0)"></path></g></g></g></g><g><clipPath id="clip-4488"><path d="M 200.5 518.5 L 307.8 518.5 L 307.8 366.6 L 200.5 366.6 Z M 200.5 518.5 "></path></clipPath><g clip-path="url(#clip-4488)"><g><clipPath id="clip-4489"><path d="M 285.6 366.6 L 286.6 366.6 L 286.6 518.5 L 285.6 518.5 Z M 285.6 366.6 "></path></clipPath><g clip-path="url(#clip-4489)"><path d="M 87.1 1.5 L 87.1 153.4 " fill="none" stroke="#DCDDE0" stroke-width="1.00" stroke-dasharray="2.0, 2.0" transform="matrix(1.00, 0.00, 0.00, -1.00, 199.0, 520.0)"></path></g></g></g></g><g><clipPath id="clip-4490"><path d="M 200.5 518.5 L 307.8 518.5 L 307.8 366.6 L 200.5 366.6 Z M 200.5 518.5 "></path></clipPath><g clip-path="url(#clip-4490)"><g><clipPath id="clip-4491"><path d="M 200.5 498.6 L 307.8 498.6 L 307.8 499.6 L 200.5 499.6 Z M 200.5 498.6 "></path></clipPath><g clip-path="url(#clip-4491)"><path d="M 1.5 20.9 L 108.8 20.9 " fill="none" stroke="#DCDDE0" stroke-width="1.00" stroke-dasharray="2.0, 2.0" transform="matrix(1.00, 0.00, 0.00, -1.00, 199.0, 520.0)"></path></g></g></g></g><g><clipPath id="clip-4492"><path d="M 200.5 518.5 L 307.8 518.5 L 307.8 366.6 L 200.5 366.6 Z M 200.5 518.5 "></path></clipPath><g clip-path="url(#clip-4492)"><g><clipPath id="clip-4493"><path d="M 200.5 479.8 L 307.8 479.8 L 307.8 480.8 L 200.5 480.8 Z M 200.5 479.8 "></path></clipPath><g clip-path="url(#clip-4493)"><path d="M 1.5 39.7 L 108.8 39.7 " fill="none" stroke="#DCDDE0" stroke-width="1.00" stroke-dasharray="2.0, 2.0" transform="matrix(1.00, 0.00, 0.00, -1.00, 199.0, 520.0)"></path></g></g></g></g><g><clipPath id="clip-4494"><path d="M 200.5 518.5 L 307.8 518.5 L 307.8 366.6 L 200.5 366.6 Z M 200.5 518.5 "></path></clipPath><g clip-path="url(#clip-4494)"><g><clipPath id="clip-4495"><path d="M 200.5 460.9 L 307.8 460.9 L 307.8 461.9 L 200.5 461.9 Z M 200.5 460.9 "></path></clipPath><g clip-path="url(#clip-4495)"><path d="M 1.5 58.6 L 108.8 58.6 " fill="none" stroke="#DCDDE0" stroke-width="1.00" stroke-dasharray="2.0, 2.0" transform="matrix(1.00, 0.00, 0.00, -1.00, 199.0, 520.0)"></path></g></g></g></g><g><clipPath id="clip-4496"><path d="M 200.5 518.5 L 307.8 518.5 L 307.8 366.6 L 200.5 366.6 Z M 200.5 518.5 "></path></clipPath><g clip-path="url(#clip-4496)"><g><clipPath id="clip-4497"><path d="M 200.5 442.1 L 307.8 442.1 L 307.8 443.1 L 200.5 443.1 Z M 200.5 442.1 "></path></clipPath><g clip-path="url(#clip-4497)"><path d="M 1.5 77.4 L 108.8 77.4 " fill="none" stroke="#DCDDE0" stroke-width="1.00" stroke-dasharray="2.0, 2.0" transform="matrix(1.00, 0.00, 0.00, -1.00, 199.0, 520.0)"></path></g></g></g></g><g><clipPath id="clip-4498"><path d="M 200.5 518.5 L 307.8 518.5 L 307.8 366.6 L 200.5 366.6 Z M 200.5 518.5 "></path></clipPath><g clip-path="url(#clip-4498)"><g><clipPath id="clip-4499"><path d="M 200.5 423.2 L 307.8 423.2 L 307.8 424.2 L 200.5 424.2 Z M 200.5 423.2 "></path></clipPath><g clip-path="url(#clip-4499)"><path d="M 1.5 96.3 L 108.8 96.3 " fill="none" stroke="#DCDDE0" stroke-width="1.00" stroke-dasharray="2.0, 2.0" transform="matrix(1.00, 0.00, 0.00, -1.00, 199.0, 520.0)"></path></g></g></g></g><g><clipPath id="clip-4500"><path d="M 200.5 518.5 L 307.8 518.5 L 307.8 366.6 L 200.5 366.6 Z M 200.5 518.5 "></path></clipPath><g clip-path="url(#clip-4500)"><g><clipPath id="clip-4501"><path d="M 200.5 404.3 L 307.8 404.3 L 307.8 405.3 L 200.5 405.3 Z M 200.5 404.3 "></path></clipPath><g clip-path="url(#clip-4501)"><path d="M 1.5 115.2 L 108.8 115.2 " fill="none" stroke="#DCDDE0" stroke-width="1.00" stroke-dasharray="2.0, 2.0" transform="matrix(1.00, 0.00, 0.00, -1.00, 199.0, 520.0)"></path></g></g></g></g><g><clipPath id="clip-4502"><path d="M 200.5 518.5 L 307.8 518.5 L 307.8 366.6 L 200.5 366.6 Z M 200.5 518.5 "></path></clipPath><g clip-path="url(#clip-4502)"><g><clipPath id="clip-4503"><path d="M 200.5 385.5 L 307.8 385.5 L 307.8 386.5 L 200.5 386.5 Z M 200.5 385.5 "></path></clipPath><g clip-path="url(#clip-4503)"><path d="M 1.5 134.0 L 108.8 134.0 " fill="none" stroke="#DCDDE0" stroke-width="1.00" stroke-dasharray="2.0, 2.0" transform="matrix(1.00, 0.00, 0.00, -1.00, 199.0, 520.0)"></path></g></g></g></g><g><clipPath id="clip-4504"><path d="M 200.5 518.5 L 307.8 518.5 L 307.8 366.6 L 200.5 366.6 Z M 200.5 518.5 "></path></clipPath><g clip-path="url(#clip-4504)"><path d="M 2.0 1.5 L 2.0 153.4 " fill="none" stroke="#FEFFFE" stroke-width="1.00" transform="matrix(1.00, 0.00, 0.00, -1.00, 199.0, 520.0)"></path><path d="M 108.3 1.5 L 108.3 153.4 " fill="none" stroke="#FEFFFF" stroke-width="1.00" transform="matrix(1.00, 0.00, 0.00, -1.00, 199.0, 520.0)"></path><path d="M 1.5 2.0 L 108.8 2.0 " fill="none" stroke="#FEFFFE" stroke-width="1.00" transform="matrix(1.00, 0.00, 0.00, -1.00, 199.0, 520.0)"></path><path d="M 1.5 152.9 L 108.8 152.9 " fill="none" stroke="#FEFFFE" stroke-width="1.00" transform="matrix(1.00, 0.00, 0.00, -1.00, 199.0, 520.0)"></path></g></g><g><clipPath id="clip-4505"><path d="M 319.5 600.5 L 426.8 600.5 L 426.8 448.6 L 319.5 448.6 Z M 319.5 600.5 "></path></clipPath><g clip-path="url(#clip-4505)"><g><clipPath id="clip-4506"><path d="M 340.8 448.6 L 341.8 448.6 L 341.8 600.5 L 340.8 600.5 Z M 340.8 448.6 "></path></clipPath><g clip-path="url(#clip-4506)"><path d="M 23.3 1.5 L 23.3 153.4 " fill="none" stroke="#DCDDE0" stroke-width="1.00" stroke-dasharray="2.0, 2.0" transform="matrix(1.00, 0.00, 0.00, -1.00, 318.0, 602.0)"></path></g></g></g></g><g><clipPath id="clip-4507"><path d="M 319.5 600.5 L 426.8 600.5 L 426.8 448.6 L 319.5 448.6 Z M 319.5 600.5 "></path></clipPath><g clip-path="url(#clip-4507)"><g><clipPath id="clip-4508"><path d="M 362.0 448.6 L 363.0 448.6 L 363.0 600.5 L 362.0 600.5 Z M 362.0 448.6 "></path></clipPath><g clip-path="url(#clip-4508)"><path d="M 44.5 1.5 L 44.5 153.4 " fill="none" stroke="#DCDDE0" stroke-width="1.00" stroke-dasharray="2.0, 2.0" transform="matrix(1.00, 0.00, 0.00, -1.00, 318.0, 602.0)"></path></g></g></g></g><g><clipPath id="clip-4509"><path d="M 319.5 600.5 L 426.8 600.5 L 426.8 448.6 L 319.5 448.6 Z M 319.5 600.5 "></path></clipPath><g clip-path="url(#clip-4509)"><g><clipPath id="clip-4510"><path d="M 383.3 448.6 L 384.3 448.6 L 384.3 600.5 L 383.3 600.5 Z M 383.3 448.6 "></path></clipPath><g clip-path="url(#clip-4510)"><path d="M 65.8 1.5 L 65.8 153.4 " fill="none" stroke="#DCDDE0" stroke-width="1.00" stroke-dasharray="2.0, 2.0" transform="matrix(1.00, 0.00, 0.00, -1.00, 318.0, 602.0)"></path></g></g></g></g><g><clipPath id="clip-4511"><path d="M 319.5 600.5 L 426.8 600.5 L 426.8 448.6 L 319.5 448.6 Z M 319.5 600.5 "></path></clipPath><g clip-path="url(#clip-4511)"><g><clipPath id="clip-4512"><path d="M 404.6 448.6 L 405.6 448.6 L 405.6 600.5 L 404.6 600.5 Z M 404.6 448.6 "></path></clipPath><g clip-path="url(#clip-4512)"><path d="M 87.1 1.5 L 87.1 153.4 " fill="none" stroke="#DCDDE0" stroke-width="1.00" stroke-dasharray="2.0, 2.0" transform="matrix(1.00, 0.00, 0.00, -1.00, 318.0, 602.0)"></path></g></g></g></g><g><clipPath id="clip-4513"><path d="M 319.5 600.5 L 426.8 600.5 L 426.8 448.6 L 319.5 448.6 Z M 319.5 600.5 "></path></clipPath><g clip-path="url(#clip-4513)"><g><clipPath id="clip-4514"><path d="M 319.5 580.6 L 426.8 580.6 L 426.8 581.6 L 319.5 581.6 Z M 319.5 580.6 "></path></clipPath><g clip-path="url(#clip-4514)"><path d="M 1.5 20.9 L 108.8 20.9 " fill="none" stroke="#DCDDE0" stroke-width="1.00" stroke-dasharray="2.0, 2.0" transform="matrix(1.00, 0.00, 0.00, -1.00, 318.0, 602.0)"></path></g></g></g></g><g><clipPath id="clip-4515"><path d="M 319.5 600.5 L 426.8 600.5 L 426.8 448.6 L 319.5 448.6 Z M 319.5 600.5 "></path></clipPath><g clip-path="url(#clip-4515)"><g><clipPath id="clip-4516"><path d="M 319.5 561.8 L 426.8 561.8 L 426.8 562.8 L 319.5 562.8 Z M 319.5 561.8 "></path></clipPath><g clip-path="url(#clip-4516)"><path d="M 1.5 39.7 L 108.8 39.7 " fill="none" stroke="#DCDDE0" stroke-width="1.00" stroke-dasharray="2.0, 2.0" transform="matrix(1.00, 0.00, 0.00, -1.00, 318.0, 602.0)"></path></g></g></g></g><g><clipPath id="clip-4517"><path d="M 319.5 600.5 L 426.8 600.5 L 426.8 448.6 L 319.5 448.6 Z M 319.5 600.5 "></path></clipPath><g clip-path="url(#clip-4517)"><g><clipPath id="clip-4518"><path d="M 319.5 542.9 L 426.8 542.9 L 426.8 543.9 L 319.5 543.9 Z M 319.5 542.9 "></path></clipPath><g clip-path="url(#clip-4518)"><path d="M 1.5 58.6 L 108.8 58.6 " fill="none" stroke="#DCDDE0" stroke-width="1.00" stroke-dasharray="2.0, 2.0" transform="matrix(1.00, 0.00, 0.00, -1.00, 318.0, 602.0)"></path></g></g></g></g><g><clipPath id="clip-4519"><path d="M 319.5 600.5 L 426.8 600.5 L 426.8 448.6 L 319.5 448.6 Z M 319.5 600.5 "></path></clipPath><g clip-path="url(#clip-4519)"><g><clipPath id="clip-4520"><path d="M 319.5 524.1 L 426.8 524.1 L 426.8 525.1 L 319.5 525.1 Z M 319.5 524.1 "></path></clipPath><g clip-path="url(#clip-4520)"><path d="M 1.5 77.4 L 108.8 77.4 " fill="none" stroke="#DCDDE0" stroke-width="1.00" stroke-dasharray="2.0, 2.0" transform="matrix(1.00, 0.00, 0.00, -1.00, 318.0, 602.0)"></path></g></g></g></g><g><clipPath id="clip-4521"><path d="M 319.5 600.5 L 426.8 600.5 L 426.8 448.6 L 319.5 448.6 Z M 319.5 600.5 "></path></clipPath><g clip-path="url(#clip-4521)"><g><clipPath id="clip-4522"><path d="M 319.5 505.2 L 426.8 505.2 L 426.8 506.2 L 319.5 506.2 Z M 319.5 505.2 "></path></clipPath><g clip-path="url(#clip-4522)"><path d="M 1.5 96.3 L 108.8 96.3 " fill="none" stroke="#DCDDE0" stroke-width="1.00" stroke-dasharray="2.0, 2.0" transform="matrix(1.00, 0.00, 0.00, -1.00, 318.0, 602.0)"></path></g></g></g></g><g><clipPath id="clip-4523"><path d="M 319.5 600.5 L 426.8 600.5 L 426.8 448.6 L 319.5 448.6 Z M 319.5 600.5 "></path></clipPath><g clip-path="url(#clip-4523)"><g><clipPath id="clip-4524"><path d="M 319.5 486.3 L 426.8 486.3 L 426.8 487.3 L 319.5 487.3 Z M 319.5 486.3 "></path></clipPath><g clip-path="url(#clip-4524)"><path d="M 1.5 115.2 L 108.8 115.2 " fill="none" stroke="#DCDDE0" stroke-width="1.00" stroke-dasharray="2.0, 2.0" transform="matrix(1.00, 0.00, 0.00, -1.00, 318.0, 602.0)"></path></g></g></g></g><g><clipPath id="clip-4525"><path d="M 319.5 600.5 L 426.8 600.5 L 426.8 448.6 L 319.5 448.6 Z M 319.5 600.5 "></path></clipPath><g clip-path="url(#clip-4525)"><g><clipPath id="clip-4526"><path d="M 319.5 467.5 L 426.8 467.5 L 426.8 468.5 L 319.5 468.5 Z M 319.5 467.5 "></path></clipPath><g clip-path="url(#clip-4526)"><path d="M 1.5 134.0 L 108.8 134.0 " fill="none" stroke="#DCDDE0" stroke-width="1.00" stroke-dasharray="2.0, 2.0" transform="matrix(1.00, 0.00, 0.00, -1.00, 318.0, 602.0)"></path></g></g></g></g><g><clipPath id="clip-4527"><path d="M 319.5 600.5 L 426.8 600.5 L 426.8 448.6 L 319.5 448.6 Z M 319.5 600.5 "></path></clipPath><g clip-path="url(#clip-4527)"><path d="M 2.0 1.5 L 2.0 153.4 " fill="none" stroke="#FEFFFE" stroke-width="1.00" transform="matrix(1.00, 0.00, 0.00, -1.00, 318.0, 602.0)"></path><path d="M 108.3 1.5 L 108.3 153.4 " fill="none" stroke="#FEFFFF" stroke-width="1.00" transform="matrix(1.00, 0.00, 0.00, -1.00, 318.0, 602.0)"></path><path d="M 1.5 2.0 L 108.8 2.0 " fill="none" stroke="#FEFFFE" stroke-width="1.00" transform="matrix(1.00, 0.00, 0.00, -1.00, 318.0, 602.0)"></path><path d="M 1.5 152.9 L 108.8 152.9 " fill="none" stroke="#FEFFFE" stroke-width="1.00" transform="matrix(1.00, 0.00, 0.00, -1.00, 318.0, 602.0)"></path></g></g><image xlink:href="../../95A99818-43CC-4338-A2DB-6C5BB45DAE27/assets/2DB46BB52E56BEC32DB1E38355FA3BAE.png" width="117.00" height="154.00" transform="matrix(1.00, 0.00, -0.00, -0.99, 81.0, 523.0)"></image><g><clipPath id="clip-4528"><path d="M 83.5 522.5 L 190.8 522.5 L 190.8 370.6 L 83.5 370.6 Z M 83.5 522.5 "></path></clipPath><g clip-path="url(#clip-4528)"><g><clipPath id="clip-4529"><path d="M 104.8 370.6 L 105.8 370.6 L 105.8 522.5 L 104.8 522.5 Z M 104.8 370.6 "></path></clipPath><g clip-path="url(#clip-4529)"><path d="M 23.3 1.5 L 23.3 153.4 " fill="none" stroke="#DCDDE0" stroke-width="1.00" stroke-dasharray="2.0, 2.0" transform="matrix(1.00, 0.00, 0.00, -1.00, 82.0, 524.0)"></path></g></g></g></g><g><clipPath id="clip-4530"><path d="M 83.5 522.5 L 190.8 522.5 L 190.8 370.6 L 83.5 370.6 Z M 83.5 522.5 "></path></clipPath><g clip-path="url(#clip-4530)"><g><clipPath id="clip-4531"><path d="M 126.0 370.6 L 127.0 370.6 L 127.0 522.5 L 126.0 522.5 Z M 126.0 370.6 "></path></clipPath><g clip-path="url(#clip-4531)"><path d="M 44.5 1.5 L 44.5 153.4 " fill="none" stroke="#DCDDE0" stroke-width="1.00" stroke-dasharray="2.0, 2.0" transform="matrix(1.00, 0.00, 0.00, -1.00, 82.0, 524.0)"></path></g></g></g></g><g><clipPath id="clip-4532"><path d="M 83.5 522.5 L 190.8 522.5 L 190.8 370.6 L 83.5 370.6 Z M 83.5 522.5 "></path></clipPath><g clip-path="url(#clip-4532)"><g><clipPath id="clip-4533"><path d="M 147.3 370.6 L 148.3 370.6 L 148.3 522.5 L 147.3 522.5 Z M 147.3 370.6 "></path></clipPath><g clip-path="url(#clip-4533)"><path d="M 65.8 1.5 L 65.8 153.4 " fill="none" stroke="#DCDDE0" stroke-width="1.00" stroke-dasharray="2.0, 2.0" transform="matrix(1.00, 0.00, 0.00, -1.00, 82.0, 524.0)"></path></g></g></g></g><g><clipPath id="clip-4534"><path d="M 83.5 522.5 L 190.8 522.5 L 190.8 370.6 L 83.5 370.6 Z M 83.5 522.5 "></path></clipPath><g clip-path="url(#clip-4534)"><g><clipPath id="clip-4535"><path d="M 168.6 370.6 L 169.6 370.6 L 169.6 522.5 L 168.6 522.5 Z M 168.6 370.6 "></path></clipPath><g clip-path="url(#clip-4535)"><path d="M 87.1 1.5 L 87.1 153.4 " fill="none" stroke="#DCDDE0" stroke-width="1.00" stroke-dasharray="2.0, 2.0" transform="matrix(1.00, 0.00, 0.00, -1.00, 82.0, 524.0)"></path></g></g></g></g><g><clipPath id="clip-4536"><path d="M 83.5 522.5 L 190.8 522.5 L 190.8 370.6 L 83.5 370.6 Z M 83.5 522.5 "></path></clipPath><g clip-path="url(#clip-4536)"><g><clipPath id="clip-4537"><path d="M 83.5 502.6 L 190.8 502.6 L 190.8 503.6 L 83.5 503.6 Z M 83.5 502.6 "></path></clipPath><g clip-path="url(#clip-4537)"><path d="M 1.5 20.9 L 108.8 20.9 " fill="none" stroke="#DCDDE0" stroke-width="1.00" stroke-dasharray="2.0, 2.0" transform="matrix(1.00, 0.00, 0.00, -1.00, 82.0, 524.0)"></path></g></g></g></g><g><clipPath id="clip-4538"><path d="M 83.5 522.5 L 190.8 522.5 L 190.8 370.6 L 83.5 370.6 Z M 83.5 522.5 "></path></clipPath><g clip-path="url(#clip-4538)"><g><clipPath id="clip-4539"><path d="M 83.5 483.8 L 190.8 483.8 L 190.8 484.8 L 83.5 484.8 Z M 83.5 483.8 "></path></clipPath><g clip-path="url(#clip-4539)"><path d="M 1.5 39.7 L 108.8 39.7 " fill="none" stroke="#DCDDE0" stroke-width="1.00" stroke-dasharray="2.0, 2.0" transform="matrix(1.00, 0.00, 0.00, -1.00, 82.0, 524.0)"></path></g></g></g></g><g><clipPath id="clip-4540"><path d="M 83.5 522.5 L 190.8 522.5 L 190.8 370.6 L 83.5 370.6 Z M 83.5 522.5 "></path></clipPath><g clip-path="url(#clip-4540)"><g><clipPath id="clip-4541"><path d="M 83.5 464.9 L 190.8 464.9 L 190.8 465.9 L 83.5 465.9 Z M 83.5 464.9 "></path></clipPath><g clip-path="url(#clip-4541)"><path d="M 1.5 58.6 L 108.8 58.6 " fill="none" stroke="#DCDDE0" stroke-width="1.00" stroke-dasharray="2.0, 2.0" transform="matrix(1.00, 0.00, 0.00, -1.00, 82.0, 524.0)"></path></g></g></g></g><g><clipPath id="clip-4542"><path d="M 83.5 522.5 L 190.8 522.5 L 190.8 370.6 L 83.5 370.6 Z M 83.5 522.5 "></path></clipPath><g clip-path="url(#clip-4542)"><g><clipPath id="clip-4543"><path d="M 83.5 446.1 L 190.8 446.1 L 190.8 447.1 L 83.5 447.1 Z M 83.5 446.1 "></path></clipPath><g clip-path="url(#clip-4543)"><path d="M 1.5 77.4 L 108.8 77.4 " fill="none" stroke="#DCDDE0" stroke-width="1.00" stroke-dasharray="2.0, 2.0" transform="matrix(1.00, 0.00, 0.00, -1.00, 82.0, 524.0)"></path></g></g></g></g><g><clipPath id="clip-4544"><path d="M 83.5 522.5 L 190.8 522.5 L 190.8 370.6 L 83.5 370.6 Z M 83.5 522.5 "></path></clipPath><g clip-path="url(#clip-4544)"><g><clipPath id="clip-4545"><path d="M 83.5 427.2 L 190.8 427.2 L 190.8 428.2 L 83.5 428.2 Z M 83.5 427.2 "></path></clipPath><g clip-path="url(#clip-4545)"><path d="M 1.5 96.3 L 108.8 96.3 " fill="none" stroke="#DCDDE0" stroke-width="1.00" stroke-dasharray="2.0, 2.0" transform="matrix(1.00, 0.00, 0.00, -1.00, 82.0, 524.0)"></path></g></g></g></g><g><clipPath id="clip-4546"><path d="M 83.5 522.5 L 190.8 522.5 L 190.8 370.6 L 83.5 370.6 Z M 83.5 522.5 "></path></clipPath><g clip-path="url(#clip-4546)"><g><clipPath id="clip-4547"><path d="M 83.5 408.3 L 190.8 408.3 L 190.8 409.3 L 83.5 409.3 Z M 83.5 408.3 "></path></clipPath><g clip-path="url(#clip-4547)"><path d="M 1.5 115.2 L 108.8 115.2 " fill="none" stroke="#DCDDE0" stroke-width="1.00" stroke-dasharray="2.0, 2.0" transform="matrix(1.00, 0.00, 0.00, -1.00, 82.0, 524.0)"></path></g></g></g></g><g><clipPath id="clip-4548"><path d="M 83.5 522.5 L 190.8 522.5 L 190.8 370.6 L 83.5 370.6 Z M 83.5 522.5 "></path></clipPath><g clip-path="url(#clip-4548)"><g><clipPath id="clip-4549"><path d="M 83.5 389.5 L 190.8 389.5 L 190.8 390.5 L 83.5 390.5 Z M 83.5 389.5 "></path></clipPath><g clip-path="url(#clip-4549)"><path d="M 1.5 134.0 L 108.8 134.0 " fill="none" stroke="#DCDDE0" stroke-width="1.00" stroke-dasharray="2.0, 2.0" transform="matrix(1.00, 0.00, 0.00, -1.00, 82.0, 524.0)"></path></g></g></g></g><g><clipPath id="clip-4550"><path d="M 83.5 522.5 L 190.8 522.5 L 190.8 370.6 L 83.5 370.6 Z M 83.5 522.5 "></path></clipPath><g clip-path="url(#clip-4550)"><path d="M 2.0 1.5 L 2.0 153.4 " fill="none" stroke="#FEFFFE" stroke-width="1.00" transform="matrix(1.00, 0.00, 0.00, -1.00, 82.0, 524.0)"></path><path d="M 108.3 1.5 L 108.3 153.4 " fill="none" stroke="#FEFFFF" stroke-width="1.00" transform="matrix(1.00, 0.00, 0.00, -1.00, 82.0, 524.0)"></path><path d="M 1.5 2.0 L 108.8 2.0 " fill="none" stroke="#FEFFFE" stroke-width="1.00" transform="matrix(1.00, 0.00, 0.00, -1.00, 82.0, 524.0)"></path><path d="M 1.5 152.9 L 108.8 152.9 " fill="none" stroke="#FEFFFE" stroke-width="1.00" transform="matrix(1.00, 0.00, 0.00, -1.00, 82.0, 524.0)"></path></g></g><image xlink:href="../../95A99818-43CC-4338-A2DB-6C5BB45DAE27/assets/2DB46BB52E56BEC32DB1E38355FA3BAE.png" width="117.00" height="154.00" transform="matrix(1.00, 0.00, -0.00, -0.99, 508.0, 229.0)"></image><g><clipPath id="clip-4551"><path d="M 509.5 228.5 L 616.8 228.5 L 616.8 76.6 L 509.5 76.6 Z M 509.5 228.5 "></path></clipPath><g clip-path="url(#clip-4551)"><g><clipPath id="clip-4552"><path d="M 530.8 76.6 L 531.8 76.6 L 531.8 228.5 L 530.8 228.5 Z M 530.8 76.6 "></path></clipPath><g clip-path="url(#clip-4552)"><path d="M 23.3 1.5 L 23.3 153.4 " fill="none" stroke="#DCDDE0" stroke-width="1.00" stroke-dasharray="2.0, 2.0" transform="matrix(1.00, 0.00, 0.00, -1.00, 508.0, 230.0)"></path></g></g></g></g><g><clipPath id="clip-4553"><path d="M 509.5 228.5 L 616.8 228.5 L 616.8 76.6 L 509.5 76.6 Z M 509.5 228.5 "></path></clipPath><g clip-path="url(#clip-4553)"><g><clipPath id="clip-4554"><path d="M 552.0 76.6 L 553.0 76.6 L 553.0 228.5 L 552.0 228.5 Z M 552.0 76.6 "></path></clipPath><g clip-path="url(#clip-4554)"><path d="M 44.5 1.5 L 44.5 153.4 " fill="none" stroke="#DCDDE0" stroke-width="1.00" stroke-dasharray="2.0, 2.0" transform="matrix(1.00, 0.00, 0.00, -1.00, 508.0, 230.0)"></path></g></g></g></g><g><clipPath id="clip-4555"><path d="M 509.5 228.5 L 616.8 228.5 L 616.8 76.6 L 509.5 76.6 Z M 509.5 228.5 "></path></clipPath><g clip-path="url(#clip-4555)"><g><clipPath id="clip-4556"><path d="M 573.3 76.6 L 574.3 76.6 L 574.3 228.5 L 573.3 228.5 Z M 573.3 76.6 "></path></clipPath><g clip-path="url(#clip-4556)"><path d="M 65.8 1.5 L 65.8 153.4 " fill="none" stroke="#DCDDE0" stroke-width="1.00" stroke-dasharray="2.0, 2.0" transform="matrix(1.00, 0.00, 0.00, -1.00, 508.0, 230.0)"></path></g></g></g></g><g><clipPath id="clip-4557"><path d="M 509.5 228.5 L 616.8 228.5 L 616.8 76.6 L 509.5 76.6 Z M 509.5 228.5 "></path></clipPath><g clip-path="url(#clip-4557)"><g><clipPath id="clip-4558"><path d="M 594.6 76.6 L 595.6 76.6 L 595.6 228.5 L 594.6 228.5 Z M 594.6 76.6 "></path></clipPath><g clip-path="url(#clip-4558)"><path d="M 87.1 1.5 L 87.1 153.4 " fill="none" stroke="#DCDDE0" stroke-width="1.00" stroke-dasharray="2.0, 2.0" transform="matrix(1.00, 0.00, 0.00, -1.00, 508.0, 230.0)"></path></g></g></g></g><g><clipPath id="clip-4559"><path d="M 509.5 228.5 L 616.8 228.5 L 616.8 76.6 L 509.5 76.6 Z M 509.5 228.5 "></path></clipPath><g clip-path="url(#clip-4559)"><g><clipPath id="clip-4560"><path d="M 509.5 208.6 L 616.8 208.6 L 616.8 209.6 L 509.5 209.6 Z M 509.5 208.6 "></path></clipPath><g clip-path="url(#clip-4560)"><path d="M 1.5 20.9 L 108.8 20.9 " fill="none" stroke="#DCDDE0" stroke-width="1.00" stroke-dasharray="2.0, 2.0" transform="matrix(1.00, 0.00, 0.00, -1.00, 508.0, 230.0)"></path></g></g></g></g><g><clipPath id="clip-4561"><path d="M 509.5 228.5 L 616.8 228.5 L 616.8 76.6 L 509.5 76.6 Z M 509.5 228.5 "></path></clipPath><g clip-path="url(#clip-4561)"><g><clipPath id="clip-4562"><path d="M 509.5 189.8 L 616.8 189.8 L 616.8 190.8 L 509.5 190.8 Z M 509.5 189.8 "></path></clipPath><g clip-path="url(#clip-4562)"><path d="M 1.5 39.7 L 108.8 39.7 " fill="none" stroke="#DCDDE0" stroke-width="1.00" stroke-dasharray="2.0, 2.0" transform="matrix(1.00, 0.00, 0.00, -1.00, 508.0, 230.0)"></path></g></g></g></g><g><clipPath id="clip-4563"><path d="M 509.5 228.5 L 616.8 228.5 L 616.8 76.6 L 509.5 76.6 Z M 509.5 228.5 "></path></clipPath><g clip-path="url(#clip-4563)"><g><clipPath id="clip-4564"><path d="M 509.5 170.9 L 616.8 170.9 L 616.8 171.9 L 509.5 171.9 Z M 509.5 170.9 "></path></clipPath><g clip-path="url(#clip-4564)"><path d="M 1.5 58.6 L 108.8 58.6 " fill="none" stroke="#DCDDE0" stroke-width="1.00" stroke-dasharray="2.0, 2.0" transform="matrix(1.00, 0.00, 0.00, -1.00, 508.0, 230.0)"></path></g></g></g></g><g><clipPath id="clip-4565"><path d="M 509.5 228.5 L 616.8 228.5 L 616.8 76.6 L 509.5 76.6 Z M 509.5 228.5 "></path></clipPath><g clip-path="url(#clip-4565)"><g><clipPath id="clip-4566"><path d="M 509.5 152.1 L 616.8 152.1 L 616.8 153.1 L 509.5 153.1 Z M 509.5 152.1 "></path></clipPath><g clip-path="url(#clip-4566)"><path d="M 1.5 77.4 L 108.8 77.4 " fill="none" stroke="#DCDDE0" stroke-width="1.00" stroke-dasharray="2.0, 2.0" transform="matrix(1.00, 0.00, 0.00, -1.00, 508.0, 230.0)"></path></g></g></g></g><g><clipPath id="clip-4567"><path d="M 509.5 228.5 L 616.8 228.5 L 616.8 76.6 L 509.5 76.6 Z M 509.5 228.5 "></path></clipPath><g clip-path="url(#clip-4567)"><g><clipPath id="clip-4568"><path d="M 509.5 133.2 L 616.8 133.2 L 616.8 134.2 L 509.5 134.2 Z M 509.5 133.2 "></path></clipPath><g clip-path="url(#clip-4568)"><path d="M 1.5 96.3 L 108.8 96.3 " fill="none" stroke="#DCDDE0" stroke-width="1.00" stroke-dasharray="2.0, 2.0" transform="matrix(1.00, 0.00, 0.00, -1.00, 508.0, 230.0)"></path></g></g></g></g><g><clipPath id="clip-4569"><path d="M 509.5 228.5 L 616.8 228.5 L 616.8 76.6 L 509.5 76.6 Z M 509.5 228.5 "></path></clipPath><g clip-path="url(#clip-4569)"><g><clipPath id="clip-4570"><path d="M 509.5 114.3 L 616.8 114.3 L 616.8 115.3 L 509.5 115.3 Z M 509.5 114.3 "></path></clipPath><g clip-path="url(#clip-4570)"><path d="M 1.5 115.2 L 108.8 115.2 " fill="none" stroke="#DCDDE0" stroke-width="1.00" stroke-dasharray="2.0, 2.0" transform="matrix(1.00, 0.00, 0.00, -1.00, 508.0, 230.0)"></path></g></g></g></g><g><clipPath id="clip-4571"><path d="M 509.5 228.5 L 616.8 228.5 L 616.8 76.6 L 509.5 76.6 Z M 509.5 228.5 "></path></clipPath><g clip-path="url(#clip-4571)"><g><clipPath id="clip-4572"><path d="M 509.5 95.5 L 616.8 95.5 L 616.8 96.5 L 509.5 96.5 Z M 509.5 95.5 "></path></clipPath><g clip-path="url(#clip-4572)"><path d="M 1.5 134.0 L 108.8 134.0 " fill="none" stroke="#DCDDE0" stroke-width="1.00" stroke-dasharray="2.0, 2.0" transform="matrix(1.00, 0.00, 0.00, -1.00, 508.0, 230.0)"></path></g></g></g></g><g><clipPath id="clip-4573"><path d="M 509.5 228.5 L 616.8 228.5 L 616.8 76.6 L 509.5 76.6 Z M 509.5 228.5 "></path></clipPath><g clip-path="url(#clip-4573)"><path d="M 2.0 1.5 L 2.0 153.4 " fill="none" stroke="#FEFFFE" stroke-width="1.00" transform="matrix(1.00, 0.00, 0.00, -1.00, 508.0, 230.0)"></path><path d="M 108.3 1.5 L 108.3 153.4 " fill="none" stroke="#FEFFFF" stroke-width="1.00" transform="matrix(1.00, 0.00, 0.00, -1.00, 508.0, 230.0)"></path><path d="M 1.5 2.0 L 108.8 2.0 " fill="none" stroke="#FEFFFE" stroke-width="1.00" transform="matrix(1.00, 0.00, 0.00, -1.00, 508.0, 230.0)"></path><path d="M 1.5 152.9 L 108.8 152.9 " fill="none" stroke="#FEFFFE" stroke-width="1.00" transform="matrix(1.00, 0.00, 0.00, -1.00, 508.0, 230.0)"></path></g></g><text xml:space="preserve" font-family="Helvetica-Bold" font-weight="bold" font-size="36.0" fill="#000000" transform="matrix(1.00, 0.00, -0.00, -1.00, 369.0, 720.0)">R</text><text xml:space="preserve" font-family="Helvetica-Bold" font-weight="bold" font-size="36.0" fill="#000000" transform="matrix(1.00, 0.00, -0.00, -1.00, 395.0, 720.0)">e</text><text xml:space="preserve" font-family="Helvetica-Bold" font-weight="bold" font-size="36.0" fill="#000000" transform="matrix(1.00, 0.00, -0.00, -1.00, 415.0, 720.0)">p</text><text xml:space="preserve" font-family="Helvetica-Bold" font-weight="bold" font-size="36.0" fill="#000000" transform="matrix(1.00, 0.00, -0.00, -1.00, 437.0, 720.0)">l</text><text xml:space="preserve" font-family="Helvetica-Bold" font-weight="bold" font-size="36.0" fill="#000000" transform="matrix(1.00, 0.00, -0.00, -1.00, 447.0, 720.0)">i</text><text xml:space="preserve" font-family="Helvetica-Bold" font-weight="bold" font-size="36.0" fill="#000000" transform="matrix(1.00, 0.00, -0.00, -1.00, 457.0, 720.0)">c</text><text xml:space="preserve" font-family="Helvetica-Bold" font-weight="bold" font-size="36.0" fill="#000000" transform="matrix(1.00, 0.00, -0.00, -1.00, 477.0, 720.0)">a</text><text xml:space="preserve" font-family="Helvetica-Bold" font-weight="bold" font-size="36.0" fill="#000000" transform="matrix(1.00, 0.00, -0.00, -1.00, 497.1, 720.0)">t</text><text xml:space="preserve" font-family="Helvetica-Bold" font-weight="bold" font-size="36.0" fill="#000000" transform="matrix(1.00, 0.00, -0.00, -1.00, 509.1, 720.0)">i</text><text xml:space="preserve" font-family="Helvetica-Bold" font-weight="bold" font-size="36.0" fill="#000000" transform="matrix(1.00, 0.00, -0.00, -1.00, 519.0, 720.0)">n</text><text xml:space="preserve" font-family="Helvetica-Bold" font-weight="bold" font-size="36.0" fill="#000000" transform="matrix(1.00, 0.00, -0.00, -1.00, 541.0, 720.0)">g</text><text xml:space="preserve" font-family="Helvetica-Bold" font-weight="bold" font-size="36.0" fill="#000000" transform="matrix(1.00, 0.00, -0.00, -1.00, 563.0, 720.0)"> </text><text xml:space="preserve" font-family="Helvetica-Bold" font-weight="bold" font-size="36.0" fill="#000000" transform="matrix(1.00, 0.00, -0.00, -1.00, 573.0, 720.0)">F</text><text xml:space="preserve" font-family="Helvetica-Bold" font-weight="bold" font-size="36.0" fill="#000000" transform="matrix(1.00, 0.00, -0.00, -1.00, 595.0, 720.0)">i</text><text xml:space="preserve" font-family="Helvetica-Bold" font-weight="bold" font-size="36.0" fill="#000000" transform="matrix(1.00, 0.00, -0.00, -1.00, 605.0, 720.0)">l</text><text xml:space="preserve" font-family="Helvetica-Bold" font-weight="bold" font-size="36.0" fill="#000000" transform="matrix(1.00, 0.00, -0.00, -1.00, 615.0, 720.0)">e</text><text xml:space="preserve" font-family="Helvetica-Bold" font-weight="bold" font-size="36.0" fill="#000000" transform="matrix(1.00, 0.00, -0.00, -1.00, 635.0, 720.0)">s</text><text xml:space="preserve" font-family="Helvetica-Bold" font-weight="bold" font-size="36.0" fill="#000000" transform="matrix(1.00, 0.00, -0.00, -1.00, 386.0, 677.0)">w</text><text xml:space="preserve" font-family="Helvetica-Bold" font-weight="bold" font-size="36.0" fill="#000000" transform="matrix(1.00, 0.00, -0.00, -1.00, 414.0, 677.0)">i</text><text xml:space="preserve" font-family="Helvetica-Bold" font-weight="bold" font-size="36.0" fill="#000000" transform="matrix(1.00, 0.00, -0.00, -1.00, 424.0, 677.0)">t</text><text xml:space="preserve" font-family="Helvetica-Bold" font-weight="bold" font-size="36.0" fill="#000000" transform="matrix(1.00, 0.00, -0.00, -1.00, 436.0, 677.0)">h</text><text xml:space="preserve" font-family="Helvetica-Bold" font-weight="bold" font-size="36.0" fill="#000000" transform="matrix(1.00, 0.00, -0.00, -1.00, 458.0, 677.0)"> </text><text xml:space="preserve" font-family="Helvetica-Bold" font-weight="bold" font-size="36.0" fill="#000000" transform="matrix(1.00, 0.00, -0.00, -1.00, 468.0, 677.0)">b</text><text xml:space="preserve" font-family="Helvetica-Bold" font-weight="bold" font-size="36.0" fill="#000000" transform="matrix(1.00, 0.00, -0.00, -1.00, 489.9, 677.0)">i</text><text xml:space="preserve" font-family="Helvetica-Bold" font-weight="bold" font-size="36.0" fill="#000000" transform="matrix(1.00, 0.00, -0.00, -1.00, 499.9, 677.0)">t</text><text xml:space="preserve" font-family="Helvetica-Bold" font-weight="bold" font-size="36.0" fill="#000000" transform="matrix(1.00, 0.00, -0.00, -1.00, 511.9, 677.0)"> </text><text xml:space="preserve" font-family="Helvetica-Bold" font-weight="bold" font-size="36.0" fill="#000000" transform="matrix(1.00, 0.00, -0.00, -1.00, 521.9, 677.0)">t</text><text xml:space="preserve" font-family="Helvetica-Bold" font-weight="bold" font-size="36.0" fill="#000000" transform="matrix(1.00, 0.00, -0.00, -1.00, 533.9, 677.0)">o</text><text xml:space="preserve" font-family="Helvetica-Bold" font-weight="bold" font-size="36.0" fill="#000000" transform="matrix(1.00, 0.00, -0.00, -1.00, 555.9, 677.0)">r</text><text xml:space="preserve" font-family="Helvetica-Bold" font-weight="bold" font-size="36.0" fill="#000000" transform="matrix(1.00, 0.00, -0.00, -1.00, 569.9, 677.0)">r</text><text xml:space="preserve" font-family="Helvetica-Bold" font-weight="bold" font-size="36.0" fill="#000000" transform="matrix(1.00, 0.00, -0.00, -1.00, 583.9, 677.0)">e</text><text xml:space="preserve" font-family="Helvetica-Bold" font-weight="bold" font-size="36.0" fill="#000000" transform="matrix(1.00, 0.00, -0.00, -1.00, 604.0, 677.0)">n</text><text xml:space="preserve" font-family="Helvetica-Bold" font-weight="bold" font-size="36.0" fill="#000000" transform="matrix(1.00, 0.00, -0.00, -1.00, 625.9, 677.0)">t</text></g></svg>