<?xml version="1.0" encoding="UTF-8" standalone="no"?><svg xmlns="http://www.w3.org/2000/svg" xmlns:xlink="http://www.w3.org/1999/xlink" clip-rule="evenodd" stroke-miterlimit="4.00" viewBox="0 0 1024 768"><desc>SVG generated by Keynote</desc><defs></defs><g transform="matrix(1.00, 0.00, -0.00, -1.00, 0.0, 768.0)"><path d="M 0.0 768.0 L 1024.0 768.0 L 1024.0 0.0 L 0.0 0.0 Z M 0.0 768.0 " fill="#FEFFFF"></path><image xlink:href="DE599FB648E859053D93BEE811B8135A.png" width="106.00" height="142.00" transform="matrix(1.01, 0.00, -0.00, -0.99, 318.0, 595.0)"></image><image xlink:href="6DDDFD7471AE2F61D9519FA871F099FC.png" width="110.00" height="143.00" transform="matrix(1.00, 0.00, -0.00, -0.99, 199.0, 518.0)"></image><image xlink:href="C25E84DBDF47A5CBDC766300E8243A38.png" width="114.00" height="143.00" transform="matrix(1.00, 0.00, -0.00, -1.00, 197.0, 673.0)"></image><image xlink:href="E9A5801B89102159FF8070049E7B703D.png" width="110.00" height="143.00" transform="matrix(1.00, 0.00, -0.00, -1.00, 85.0, 673.0)"></image><g><clipPath id="clip-4810"><path d="M 88.5 679.5 L 195.8 679.5 L 195.8 527.6 L 88.5 527.6 Z M 88.5 679.5 "></path></clipPath><g clip-path="url(#clip-4810)"><g><clipPath id="clip-4811"><path d="M 109.8 527.6 L 110.8 527.6 L 110.8 679.5 L 109.8 679.5 Z M 109.8 527.6 "></path></clipPath><g clip-path="url(#clip-4811)"><path d="M 23.3 1.5 L 23.3 153.4 " fill="none" stroke="#DCDDE0" stroke-width="1.00" stroke-dasharray="2.0, 2.0" transform="matrix(1.00, 0.00, 0.00, -1.00, 87.0, 681.0)"></path></g></g></g></g><g><clipPath id="clip-4812"><path d="M 88.5 679.5 L 195.8 679.5 L 195.8 527.6 L 88.5 527.6 Z M 88.5 679.5 "></path></clipPath><g clip-path="url(#clip-4812)"><g><clipPath id="clip-4813"><path d="M 131.0 527.6 L 132.0 527.6 L 132.0 679.5 L 131.0 679.5 Z M 131.0 527.6 "></path></clipPath><g clip-path="url(#clip-4813)"><path d="M 44.5 1.5 L 44.5 153.4 " fill="none" stroke="#DCDDE0" stroke-width="1.00" stroke-dasharray="2.0, 2.0" transform="matrix(1.00, 0.00, 0.00, -1.00, 87.0, 681.0)"></path></g></g></g></g><g><clipPath id="clip-4814"><path d="M 88.5 679.5 L 195.8 679.5 L 195.8 527.6 L 88.5 527.6 Z M 88.5 679.5 "></path></clipPath><g clip-path="url(#clip-4814)"><g><clipPath id="clip-4815"><path d="M 152.3 527.6 L 153.3 527.6 L 153.3 679.5 L 152.3 679.5 Z M 152.3 527.6 "></path></clipPath><g clip-path="url(#clip-4815)"><path d="M 65.8 1.5 L 65.8 153.4 " fill="none" stroke="#DCDDE0" stroke-width="1.00" stroke-dasharray="2.0, 2.0" transform="matrix(1.00, 0.00, 0.00, -1.00, 87.0, 681.0)"></path></g></g></g></g><g><clipPath id="clip-4816"><path d="M 88.5 679.5 L 195.8 679.5 L 195.8 527.6 L 88.5 527.6 Z M 88.5 679.5 "></path></clipPath><g clip-path="url(#clip-4816)"><g><clipPath id="clip-4817"><path d="M 173.6 527.6 L 174.6 527.6 L 174.6 679.5 L 173.6 679.5 Z M 173.6 527.6 "></path></clipPath><g clip-path="url(#clip-4817)"><path d="M 87.1 1.5 L 87.1 153.4 " fill="none" stroke="#DCDDE0" stroke-width="1.00" stroke-dasharray="2.0, 2.0" transform="matrix(1.00, 0.00, 0.00, -1.00, 87.0, 681.0)"></path></g></g></g></g><g><clipPath id="clip-4818"><path d="M 88.5 679.5 L 195.8 679.5 L 195.8 527.6 L 88.5 527.6 Z M 88.5 679.5 "></path></clipPath><g clip-path="url(#clip-4818)"><g><clipPath id="clip-4819"><path d="M 88.5 659.6 L 195.8 659.6 L 195.8 660.6 L 88.5 660.6 Z M 88.5 659.6 "></path></clipPath><g clip-path="url(#clip-4819)"><path d="M 1.5 20.9 L 108.8 20.9 " fill="none" stroke="#DCDDE0" stroke-width="1.00" stroke-dasharray="2.0, 2.0" transform="matrix(1.00, 0.00, 0.00, -1.00, 87.0, 681.0)"></path></g></g></g></g><g><clipPath id="clip-4820"><path d="M 88.5 679.5 L 195.8 679.5 L 195.8 527.6 L 88.5 527.6 Z M 88.5 679.5 "></path></clipPath><g clip-path="url(#clip-4820)"><g><clipPath id="clip-4821"><path d="M 88.5 640.8 L 195.8 640.8 L 195.8 641.8 L 88.5 641.8 Z M 88.5 640.8 "></path></clipPath><g clip-path="url(#clip-4821)"><path d="M 1.5 39.7 L 108.8 39.7 " fill="none" stroke="#DCDDE0" stroke-width="1.00" stroke-dasharray="2.0, 2.0" transform="matrix(1.00, 0.00, 0.00, -1.00, 87.0, 681.0)"></path></g></g></g></g><g><clipPath id="clip-4822"><path d="M 88.5 679.5 L 195.8 679.5 L 195.8 527.6 L 88.5 527.6 Z M 88.5 679.5 "></path></clipPath><g clip-path="url(#clip-4822)"><g><clipPath id="clip-4823"><path d="M 88.5 621.9 L 195.8 621.9 L 195.8 622.9 L 88.5 622.9 Z M 88.5 621.9 "></path></clipPath><g clip-path="url(#clip-4823)"><path d="M 1.5 58.6 L 108.8 58.6 " fill="none" stroke="#DCDDE0" stroke-width="1.00" stroke-dasharray="2.0, 2.0" transform="matrix(1.00, 0.00, 0.00, -1.00, 87.0, 681.0)"></path></g></g></g></g><g><clipPath id="clip-4824"><path d="M 88.5 679.5 L 195.8 679.5 L 195.8 527.6 L 88.5 527.6 Z M 88.5 679.5 "></path></clipPath><g clip-path="url(#clip-4824)"><g><clipPath id="clip-4825"><path d="M 88.5 603.1 L 195.8 603.1 L 195.8 604.1 L 88.5 604.1 Z M 88.5 603.1 "></path></clipPath><g clip-path="url(#clip-4825)"><path d="M 1.5 77.4 L 108.8 77.4 " fill="none" stroke="#DCDDE0" stroke-width="1.00" stroke-dasharray="2.0, 2.0" transform="matrix(1.00, 0.00, 0.00, -1.00, 87.0, 681.0)"></path></g></g></g></g><g><clipPath id="clip-4826"><path d="M 88.5 679.5 L 195.8 679.5 L 195.8 527.6 L 88.5 527.6 Z M 88.5 679.5 "></path></clipPath><g clip-path="url(#clip-4826)"><g><clipPath id="clip-4827"><path d="M 88.5 584.2 L 195.8 584.2 L 195.8 585.2 L 88.5 585.2 Z M 88.5 584.2 "></path></clipPath><g clip-path="url(#clip-4827)"><path d="M 1.5 96.3 L 108.8 96.3 " fill="none" stroke="#DCDDE0" stroke-width="1.00" stroke-dasharray="2.0, 2.0" transform="matrix(1.00, 0.00, 0.00, -1.00, 87.0, 681.0)"></path></g></g></g></g><g><clipPath id="clip-4828"><path d="M 88.5 679.5 L 195.8 679.5 L 195.8 527.6 L 88.5 527.6 Z M 88.5 679.5 "></path></clipPath><g clip-path="url(#clip-4828)"><g><clipPath id="clip-4829"><path d="M 88.5 565.3 L 195.8 565.3 L 195.8 566.3 L 88.5 566.3 Z M 88.5 565.3 "></path></clipPath><g clip-path="url(#clip-4829)"><path d="M 1.5 115.2 L 108.8 115.2 " fill="none" stroke="#DCDDE0" stroke-width="1.00" stroke-dasharray="2.0, 2.0" transform="matrix(1.00, 0.00, 0.00, -1.00, 87.0, 681.0)"></path></g></g></g></g><g><clipPath id="clip-4830"><path d="M 88.5 679.5 L 195.8 679.5 L 195.8 527.6 L 88.5 527.6 Z M 88.5 679.5 "></path></clipPath><g clip-path="url(#clip-4830)"><g><clipPath id="clip-4831"><path d="M 88.5 546.5 L 195.8 546.5 L 195.8 547.5 L 88.5 547.5 Z M 88.5 546.5 "></path></clipPath><g clip-path="url(#clip-4831)"><path d="M 1.5 134.0 L 108.8 134.0 " fill="none" stroke="#DCDDE0" stroke-width="1.00" stroke-dasharray="2.0, 2.0" transform="matrix(1.00, 0.00, 0.00, -1.00, 87.0, 681.0)"></path></g></g></g></g><g><clipPath id="clip-4832"><path d="M 88.5 679.5 L 195.8 679.5 L 195.8 527.6 L 88.5 527.6 Z M 88.5 679.5 "></path></clipPath><g clip-path="url(#clip-4832)"><path d="M 2.0 1.5 L 2.0 153.4 " fill="none" stroke="#FEFFFE" stroke-width="1.00" transform="matrix(1.00, 0.00, 0.00, -1.00, 87.0, 681.0)"></path><path d="M 108.3 1.5 L 108.3 153.4 " fill="none" stroke="#FEFFFF" stroke-width="1.00" transform="matrix(1.00, 0.00, 0.00, -1.00, 87.0, 681.0)"></path><path d="M 1.5 2.0 L 108.8 2.0 " fill="none" stroke="#FEFFFE" stroke-width="1.00" transform="matrix(1.00, 0.00, 0.00, -1.00, 87.0, 681.0)"></path><path d="M 1.5 152.9 L 108.8 152.9 " fill="none" stroke="#FEFFFE" stroke-width="1.00" transform="matrix(1.00, 0.00, 0.00, -1.00, 87.0, 681.0)"></path></g></g><g><clipPath id="clip-4833"><path d="M 203.5 679.5 L 310.8 679.5 L 310.8 527.6 L 203.5 527.6 Z M 203.5 679.5 "></path></clipPath><g clip-path="url(#clip-4833)"><g><clipPath id="clip-4834"><path d="M 224.8 527.6 L 225.8 527.6 L 225.8 679.5 L 224.8 679.5 Z M 224.8 527.6 "></path></clipPath><g clip-path="url(#clip-4834)"><path d="M 23.3 1.5 L 23.3 153.4 " fill="none" stroke="#DCDDE0" stroke-width="1.00" stroke-dasharray="2.0, 2.0" transform="matrix(1.00, 0.00, 0.00, -1.00, 202.0, 681.0)"></path></g></g></g></g><g><clipPath id="clip-4835"><path d="M 203.5 679.5 L 310.8 679.5 L 310.8 527.6 L 203.5 527.6 Z M 203.5 679.5 "></path></clipPath><g clip-path="url(#clip-4835)"><g><clipPath id="clip-4836"><path d="M 246.0 527.6 L 247.0 527.6 L 247.0 679.5 L 246.0 679.5 Z M 246.0 527.6 "></path></clipPath><g clip-path="url(#clip-4836)"><path d="M 44.5 1.5 L 44.5 153.4 " fill="none" stroke="#DCDDE0" stroke-width="1.00" stroke-dasharray="2.0, 2.0" transform="matrix(1.00, 0.00, 0.00, -1.00, 202.0, 681.0)"></path></g></g></g></g><g><clipPath id="clip-4837"><path d="M 203.5 679.5 L 310.8 679.5 L 310.8 527.6 L 203.5 527.6 Z M 203.5 679.5 "></path></clipPath><g clip-path="url(#clip-4837)"><g><clipPath id="clip-4838"><path d="M 267.3 527.6 L 268.3 527.6 L 268.3 679.5 L 267.3 679.5 Z M 267.3 527.6 "></path></clipPath><g clip-path="url(#clip-4838)"><path d="M 65.8 1.5 L 65.8 153.4 " fill="none" stroke="#DCDDE0" stroke-width="1.00" stroke-dasharray="2.0, 2.0" transform="matrix(1.00, 0.00, 0.00, -1.00, 202.0, 681.0)"></path></g></g></g></g><g><clipPath id="clip-4839"><path d="M 203.5 679.5 L 310.8 679.5 L 310.8 527.6 L 203.5 527.6 Z M 203.5 679.5 "></path></clipPath><g clip-path="url(#clip-4839)"><g><clipPath id="clip-4840"><path d="M 288.6 527.6 L 289.6 527.6 L 289.6 679.5 L 288.6 679.5 Z M 288.6 527.6 "></path></clipPath><g clip-path="url(#clip-4840)"><path d="M 87.1 1.5 L 87.1 153.4 " fill="none" stroke="#DCDDE0" stroke-width="1.00" stroke-dasharray="2.0, 2.0" transform="matrix(1.00, 0.00, 0.00, -1.00, 202.0, 681.0)"></path></g></g></g></g><g><clipPath id="clip-4841"><path d="M 203.5 679.5 L 310.8 679.5 L 310.8 527.6 L 203.5 527.6 Z M 203.5 679.5 "></path></clipPath><g clip-path="url(#clip-4841)"><g><clipPath id="clip-4842"><path d="M 203.5 659.6 L 310.8 659.6 L 310.8 660.6 L 203.5 660.6 Z M 203.5 659.6 "></path></clipPath><g clip-path="url(#clip-4842)"><path d="M 1.5 20.9 L 108.8 20.9 " fill="none" stroke="#DCDDE0" stroke-width="1.00" stroke-dasharray="2.0, 2.0" transform="matrix(1.00, 0.00, 0.00, -1.00, 202.0, 681.0)"></path></g></g></g></g><g><clipPath id="clip-4843"><path d="M 203.5 679.5 L 310.8 679.5 L 310.8 527.6 L 203.5 527.6 Z M 203.5 679.5 "></path></clipPath><g clip-path="url(#clip-4843)"><g><clipPath id="clip-4844"><path d="M 203.5 640.8 L 310.8 640.8 L 310.8 641.8 L 203.5 641.8 Z M 203.5 640.8 "></path></clipPath><g clip-path="url(#clip-4844)"><path d="M 1.5 39.7 L 108.8 39.7 " fill="none" stroke="#DCDDE0" stroke-width="1.00" stroke-dasharray="2.0, 2.0" transform="matrix(1.00, 0.00, 0.00, -1.00, 202.0, 681.0)"></path></g></g></g></g><g><clipPath id="clip-4845"><path d="M 203.5 679.5 L 310.8 679.5 L 310.8 527.6 L 203.5 527.6 Z M 203.5 679.5 "></path></clipPath><g clip-path="url(#clip-4845)"><g><clipPath id="clip-4846"><path d="M 203.5 621.9 L 310.8 621.9 L 310.8 622.9 L 203.5 622.9 Z M 203.5 621.9 "></path></clipPath><g clip-path="url(#clip-4846)"><path d="M 1.5 58.6 L 108.8 58.6 " fill="none" stroke="#DCDDE0" stroke-width="1.00" stroke-dasharray="2.0, 2.0" transform="matrix(1.00, 0.00, 0.00, -1.00, 202.0, 681.0)"></path></g></g></g></g><g><clipPath id="clip-4847"><path d="M 203.5 679.5 L 310.8 679.5 L 310.8 527.6 L 203.5 527.6 Z M 203.5 679.5 "></path></clipPath><g clip-path="url(#clip-4847)"><g><clipPath id="clip-4848"><path d="M 203.5 603.1 L 310.8 603.1 L 310.8 604.1 L 203.5 604.1 Z M 203.5 603.1 "></path></clipPath><g clip-path="url(#clip-4848)"><path d="M 1.5 77.4 L 108.8 77.4 " fill="none" stroke="#DCDDE0" stroke-width="1.00" stroke-dasharray="2.0, 2.0" transform="matrix(1.00, 0.00, 0.00, -1.00, 202.0, 681.0)"></path></g></g></g></g><g><clipPath id="clip-4849"><path d="M 203.5 679.5 L 310.8 679.5 L 310.8 527.6 L 203.5 527.6 Z M 203.5 679.5 "></path></clipPath><g clip-path="url(#clip-4849)"><g><clipPath id="clip-4850"><path d="M 203.5 584.2 L 310.8 584.2 L 310.8 585.2 L 203.5 585.2 Z M 203.5 584.2 "></path></clipPath><g clip-path="url(#clip-4850)"><path d="M 1.5 96.3 L 108.8 96.3 " fill="none" stroke="#DCDDE0" stroke-width="1.00" stroke-dasharray="2.0, 2.0" transform="matrix(1.00, 0.00, 0.00, -1.00, 202.0, 681.0)"></path></g></g></g></g><g><clipPath id="clip-4851"><path d="M 203.5 679.5 L 310.8 679.5 L 310.8 527.6 L 203.5 527.6 Z M 203.5 679.5 "></path></clipPath><g clip-path="url(#clip-4851)"><g><clipPath id="clip-4852"><path d="M 203.5 565.3 L 310.8 565.3 L 310.8 566.3 L 203.5 566.3 Z M 203.5 565.3 "></path></clipPath><g clip-path="url(#clip-4852)"><path d="M 1.5 115.2 L 108.8 115.2 " fill="none" stroke="#DCDDE0" stroke-width="1.00" stroke-dasharray="2.0, 2.0" transform="matrix(1.00, 0.00, 0.00, -1.00, 202.0, 681.0)"></path></g></g></g></g><g><clipPath id="clip-4853"><path d="M 203.5 679.5 L 310.8 679.5 L 310.8 527.6 L 203.5 527.6 Z M 203.5 679.5 "></path></clipPath><g clip-path="url(#clip-4853)"><g><clipPath id="clip-4854"><path d="M 203.5 546.5 L 310.8 546.5 L 310.8 547.5 L 203.5 547.5 Z M 203.5 546.5 "></path></clipPath><g clip-path="url(#clip-4854)"><path d="M 1.5 134.0 L 108.8 134.0 " fill="none" stroke="#DCDDE0" stroke-width="1.00" stroke-dasharray="2.0, 2.0" transform="matrix(1.00, 0.00, 0.00, -1.00, 202.0, 681.0)"></path></g></g></g></g><g><clipPath id="clip-4855"><path d="M 203.5 679.5 L 310.8 679.5 L 310.8 527.6 L 203.5 527.6 Z M 203.5 679.5 "></path></clipPath><g clip-path="url(#clip-4855)"><path d="M 2.0 1.5 L 2.0 153.4 " fill="none" stroke="#FEFFFE" stroke-width="1.00" transform="matrix(1.00, 0.00, 0.00, -1.00, 202.0, 681.0)"></path><path d="M 108.3 1.5 L 108.3 153.4 " fill="none" stroke="#FEFFFF" stroke-width="1.00" transform="matrix(1.00, 0.00, 0.00, -1.00, 202.0, 681.0)"></path><path d="M 1.5 2.0 L 108.8 2.0 " fill="none" stroke="#FEFFFE" stroke-width="1.00" transform="matrix(1.00, 0.00, 0.00, -1.00, 202.0, 681.0)"></path><path d="M 1.5 152.9 L 108.8 152.9 " fill="none" stroke="#FEFFFE" stroke-width="1.00" transform="matrix(1.00, 0.00, 0.00, -1.00, 202.0, 681.0)"></path></g></g><g><clipPath id="clip-4856"><path d="M 318.5 602.5 L 425.8 602.5 L 425.8 450.6 L 318.5 450.6 Z M 318.5 602.5 "></path></clipPath><g clip-path="url(#clip-4856)"><g><clipPath id="clip-4857"><path d="M 339.8 450.6 L 340.8 450.6 L 340.8 602.5 L 339.8 602.5 Z M 339.8 450.6 "></path></clipPath><g clip-path="url(#clip-4857)"><path d="M 23.3 1.5 L 23.3 153.4 " fill="none" stroke="#DCDDE0" stroke-width="1.00" stroke-dasharray="2.0, 2.0" transform="matrix(1.00, 0.00, 0.00, -1.00, 317.0, 604.0)"></path></g></g></g></g><g><clipPath id="clip-4858"><path d="M 318.5 602.5 L 425.8 602.5 L 425.8 450.6 L 318.5 450.6 Z M 318.5 602.5 "></path></clipPath><g clip-path="url(#clip-4858)"><g><clipPath id="clip-4859"><path d="M 361.0 450.6 L 362.0 450.6 L 362.0 602.5 L 361.0 602.5 Z M 361.0 450.6 "></path></clipPath><g clip-path="url(#clip-4859)"><path d="M 44.5 1.5 L 44.5 153.4 " fill="none" stroke="#DCDDE0" stroke-width="1.00" stroke-dasharray="2.0, 2.0" transform="matrix(1.00, 0.00, 0.00, -1.00, 317.0, 604.0)"></path></g></g></g></g><g><clipPath id="clip-4860"><path d="M 318.5 602.5 L 425.8 602.5 L 425.8 450.6 L 318.5 450.6 Z M 318.5 602.5 "></path></clipPath><g clip-path="url(#clip-4860)"><g><clipPath id="clip-4861"><path d="M 382.3 450.6 L 383.3 450.6 L 383.3 602.5 L 382.3 602.5 Z M 382.3 450.6 "></path></clipPath><g clip-path="url(#clip-4861)"><path d="M 65.8 1.5 L 65.8 153.4 " fill="none" stroke="#DCDDE0" stroke-width="1.00" stroke-dasharray="2.0, 2.0" transform="matrix(1.00, 0.00, 0.00, -1.00, 317.0, 604.0)"></path></g></g></g></g><g><clipPath id="clip-4862"><path d="M 318.5 602.5 L 425.8 602.5 L 425.8 450.6 L 318.5 450.6 Z M 318.5 602.5 "></path></clipPath><g clip-path="url(#clip-4862)"><g><clipPath id="clip-4863"><path d="M 403.6 450.6 L 404.6 450.6 L 404.6 602.5 L 403.6 602.5 Z M 403.6 450.6 "></path></clipPath><g clip-path="url(#clip-4863)"><path d="M 87.1 1.5 L 87.1 153.4 " fill="none" stroke="#DCDDE0" stroke-width="1.00" stroke-dasharray="2.0, 2.0" transform="matrix(1.00, 0.00, 0.00, -1.00, 317.0, 604.0)"></path></g></g></g></g><g><clipPath id="clip-4864"><path d="M 318.5 602.5 L 425.8 602.5 L 425.8 450.6 L 318.5 450.6 Z M 318.5 602.5 "></path></clipPath><g clip-path="url(#clip-4864)"><g><clipPath id="clip-4865"><path d="M 318.5 582.6 L 425.8 582.6 L 425.8 583.6 L 318.5 583.6 Z M 318.5 582.6 "></path></clipPath><g clip-path="url(#clip-4865)"><path d="M 1.5 20.9 L 108.8 20.9 " fill="none" stroke="#DCDDE0" stroke-width="1.00" stroke-dasharray="2.0, 2.0" transform="matrix(1.00, 0.00, 0.00, -1.00, 317.0, 604.0)"></path></g></g></g></g><g><clipPath id="clip-4866"><path d="M 318.5 602.5 L 425.8 602.5 L 425.8 450.6 L 318.5 450.6 Z M 318.5 602.5 "></path></clipPath><g clip-path="url(#clip-4866)"><g><clipPath id="clip-4867"><path d="M 318.5 563.8 L 425.8 563.8 L 425.8 564.8 L 318.5 564.8 Z M 318.5 563.8 "></path></clipPath><g clip-path="url(#clip-4867)"><path d="M 1.5 39.7 L 108.8 39.7 " fill="none" stroke="#DCDDE0" stroke-width="1.00" stroke-dasharray="2.0, 2.0" transform="matrix(1.00, 0.00, 0.00, -1.00, 317.0, 604.0)"></path></g></g></g></g><g><clipPath id="clip-4868"><path d="M 318.5 602.5 L 425.8 602.5 L 425.8 450.6 L 318.5 450.6 Z M 318.5 602.5 "></path></clipPath><g clip-path="url(#clip-4868)"><g><clipPath id="clip-4869"><path d="M 318.5 544.9 L 425.8 544.9 L 425.8 545.9 L 318.5 545.9 Z M 318.5 544.9 "></path></clipPath><g clip-path="url(#clip-4869)"><path d="M 1.5 58.6 L 108.8 58.6 " fill="none" stroke="#DCDDE0" stroke-width="1.00" stroke-dasharray="2.0, 2.0" transform="matrix(1.00, 0.00, 0.00, -1.00, 317.0, 604.0)"></path></g></g></g></g><g><clipPath id="clip-4870"><path d="M 318.5 602.5 L 425.8 602.5 L 425.8 450.6 L 318.5 450.6 Z M 318.5 602.5 "></path></clipPath><g clip-path="url(#clip-4870)"><g><clipPath id="clip-4871"><path d="M 318.5 526.1 L 425.8 526.1 L 425.8 527.1 L 318.5 527.1 Z M 318.5 526.1 "></path></clipPath><g clip-path="url(#clip-4871)"><path d="M 1.5 77.4 L 108.8 77.4 " fill="none" stroke="#DCDDE0" stroke-width="1.00" stroke-dasharray="2.0, 2.0" transform="matrix(1.00, 0.00, 0.00, -1.00, 317.0, 604.0)"></path></g></g></g></g><g><clipPath id="clip-4872"><path d="M 318.5 602.5 L 425.8 602.5 L 425.8 450.6 L 318.5 450.6 Z M 318.5 602.5 "></path></clipPath><g clip-path="url(#clip-4872)"><g><clipPath id="clip-4873"><path d="M 318.5 507.2 L 425.8 507.2 L 425.8 508.2 L 318.5 508.2 Z M 318.5 507.2 "></path></clipPath><g clip-path="url(#clip-4873)"><path d="M 1.5 96.3 L 108.8 96.3 " fill="none" stroke="#DCDDE0" stroke-width="1.00" stroke-dasharray="2.0, 2.0" transform="matrix(1.00, 0.00, 0.00, -1.00, 317.0, 604.0)"></path></g></g></g></g><g><clipPath id="clip-4874"><path d="M 318.5 602.5 L 425.8 602.5 L 425.8 450.6 L 318.5 450.6 Z M 318.5 602.5 "></path></clipPath><g clip-path="url(#clip-4874)"><g><clipPath id="clip-4875"><path d="M 318.5 488.3 L 425.8 488.3 L 425.8 489.3 L 318.5 489.3 Z M 318.5 488.3 "></path></clipPath><g clip-path="url(#clip-4875)"><path d="M 1.5 115.2 L 108.8 115.2 " fill="none" stroke="#DCDDE0" stroke-width="1.00" stroke-dasharray="2.0, 2.0" transform="matrix(1.00, 0.00, 0.00, -1.00, 317.0, 604.0)"></path></g></g></g></g><g><clipPath id="clip-4876"><path d="M 318.5 602.5 L 425.8 602.5 L 425.8 450.6 L 318.5 450.6 Z M 318.5 602.5 "></path></clipPath><g clip-path="url(#clip-4876)"><g><clipPath id="clip-4877"><path d="M 318.5 469.5 L 425.8 469.5 L 425.8 470.5 L 318.5 470.5 Z M 318.5 469.5 "></path></clipPath><g clip-path="url(#clip-4877)"><path d="M 1.5 134.0 L 108.8 134.0 " fill="none" stroke="#DCDDE0" stroke-width="1.00" stroke-dasharray="2.0, 2.0" transform="matrix(1.00, 0.00, 0.00, -1.00, 317.0, 604.0)"></path></g></g></g></g><g><clipPath id="clip-4878"><path d="M 318.5 602.5 L 425.8 602.5 L 425.8 450.6 L 318.5 450.6 Z M 318.5 602.5 "></path></clipPath><g clip-path="url(#clip-4878)"><path d="M 2.0 1.5 L 2.0 153.4 " fill="none" stroke="#FEFFFE" stroke-width="1.00" transform="matrix(1.00, 0.00, 0.00, -1.00, 317.0, 604.0)"></path><path d="M 108.3 1.5 L 108.3 153.4 " fill="none" stroke="#FEFFFF" stroke-width="1.00" transform="matrix(1.00, 0.00, 0.00, -1.00, 317.0, 604.0)"></path><path d="M 1.5 2.0 L 108.8 2.0 " fill="none" stroke="#FEFFFE" stroke-width="1.00" transform="matrix(1.00, 0.00, 0.00, -1.00, 317.0, 604.0)"></path><path d="M 1.5 152.9 L 108.8 152.9 " fill="none" stroke="#FEFFFE" stroke-width="1.00" transform="matrix(1.00, 0.00, 0.00, -1.00, 317.0, 604.0)"></path></g></g><image xlink:href="4A6B6C8D4C91A06F9CBC8E13E0115942.png" width="20.00" height="18.00" transform="matrix(0.95, 0.00, -0.00, -1.00, 244.0, 463.0)"></image><image xlink:href="../../6B36CA58-D728-4E4F-BA38-35BDF62CD86E/assets/4A6B6C8D4C91A06F9CBC8E13E0115942.png" width="20.00" height="18.00" transform="matrix(0.95, 0.00, -0.00, -1.00, 223.0, 444.0)"></image><g><clipPath id="clip-4879"><path d="M 199.5 520.5 L 306.8 520.5 L 306.8 368.6 L 199.5 368.6 Z M 199.5 520.5 "></path></clipPath><g clip-path="url(#clip-4879)"><g><clipPath id="clip-4880"><path d="M 220.8 445.6 L 221.8 445.6 L 221.8 520.5 L 220.8 520.5 Z M 220.8 445.6 "></path></clipPath><g clip-path="url(#clip-4880)"><path d="M 23.3 1.5 L 23.3 76.4 " fill="none" stroke="#DCDDE0" stroke-width="1.00" stroke-dasharray="2.0, 2.0" transform="matrix(1.00, 0.00, 0.00, -1.00, 198.0, 522.0)"></path></g></g></g></g><g><clipPath id="clip-4881"><path d="M 199.5 520.5 L 306.8 520.5 L 306.8 368.6 L 199.5 368.6 Z M 199.5 520.5 "></path></clipPath><g clip-path="url(#clip-4881)"><g><clipPath id="clip-4882"><path d="M 220.3 424.7 L 222.3 424.7 L 222.3 445.6 L 220.3 445.6 Z M 220.3 424.7 "></path></clipPath><g clip-path="url(#clip-4882)"><path d="M 23.3 1.5 L 23.3 97.3 " fill="none" stroke="#000000" stroke-width="2.00" stroke-dasharray="4.0, 4.0" transform="matrix(1.00, 0.00, 0.00, -1.00, 198.0, 522.0)"></path></g></g></g></g><g><clipPath id="clip-4883"><path d="M 199.5 520.5 L 306.8 520.5 L 306.8 368.6 L 199.5 368.6 Z M 199.5 520.5 "></path></clipPath><g clip-path="url(#clip-4883)"><g><clipPath id="clip-4884"><path d="M 220.8 368.6 L 221.8 368.6 L 221.8 424.7 L 220.8 424.7 Z M 220.8 368.6 "></path></clipPath><g clip-path="url(#clip-4884)"><path d="M 23.3 1.5 L 23.3 153.4 " fill="none" stroke="#DCDDE0" stroke-width="1.00" stroke-dasharray="2.0, 2.0" transform="matrix(1.00, 0.00, 0.00, -1.00, 198.0, 522.0)"></path></g></g></g></g><g><clipPath id="clip-4885"><path d="M 199.5 520.5 L 306.8 520.5 L 306.8 368.6 L 199.5 368.6 Z M 199.5 520.5 "></path></clipPath><g clip-path="url(#clip-4885)"><g><clipPath id="clip-4886"><path d="M 242.0 464.4 L 243.0 464.4 L 243.0 520.5 L 242.0 520.5 Z M 242.0 464.4 "></path></clipPath><g clip-path="url(#clip-4886)"><path d="M 44.5 1.5 L 44.5 57.6 " fill="none" stroke="#DCDDE0" stroke-width="1.00" stroke-dasharray="2.0, 2.0" transform="matrix(1.00, 0.00, 0.00, -1.00, 198.0, 522.0)"></path></g></g></g></g><g><clipPath id="clip-4887"><path d="M 199.5 520.5 L 306.8 520.5 L 306.8 368.6 L 199.5 368.6 Z M 199.5 520.5 "></path></clipPath><g clip-path="url(#clip-4887)"><g><clipPath id="clip-4888"><path d="M 241.5 444.6 L 243.5 444.6 L 243.5 464.4 L 241.5 464.4 Z M 241.5 444.6 "></path></clipPath><g clip-path="url(#clip-4888)"><path d="M 44.5 1.5 L 44.5 77.4 " fill="none" stroke="#000000" stroke-width="2.00" stroke-dasharray="4.0, 4.0" transform="matrix(1.00, 0.00, 0.00, -1.00, 198.0, 522.0)"></path></g></g></g></g><g><clipPath id="clip-4889"><path d="M 199.5 520.5 L 306.8 520.5 L 306.8 368.6 L 199.5 368.6 Z M 199.5 520.5 "></path></clipPath><g clip-path="url(#clip-4889)"><g><clipPath id="clip-4890"><path d="M 241.5 424.7 L 243.5 424.7 L 243.5 444.6 L 241.5 444.6 Z M 241.5 424.7 "></path></clipPath><g clip-path="url(#clip-4890)"><path d="M 44.5 1.5 L 44.5 97.3 " fill="none" stroke="#000000" stroke-width="2.00" stroke-dasharray="4.0, 4.0" transform="matrix(1.00, 0.00, 0.00, -1.00, 198.0, 522.0)"></path></g></g></g></g><g><clipPath id="clip-4891"><path d="M 199.5 520.5 L 306.8 520.5 L 306.8 368.6 L 199.5 368.6 Z M 199.5 520.5 "></path></clipPath><g clip-path="url(#clip-4891)"><g><clipPath id="clip-4892"><path d="M 242.0 368.6 L 243.0 368.6 L 243.0 424.7 L 242.0 424.7 Z M 242.0 368.6 "></path></clipPath><g clip-path="url(#clip-4892)"><path d="M 44.5 1.5 L 44.5 153.4 " fill="none" stroke="#DCDDE0" stroke-width="1.00" stroke-dasharray="2.0, 2.0" transform="matrix(1.00, 0.00, 0.00, -1.00, 198.0, 522.0)"></path></g></g></g></g><g><clipPath id="clip-4893"><path d="M 199.5 520.5 L 306.8 520.5 L 306.8 368.6 L 199.5 368.6 Z M 199.5 520.5 "></path></clipPath><g clip-path="url(#clip-4893)"><g><clipPath id="clip-4894"><path d="M 263.3 464.4 L 264.3 464.4 L 264.3 520.5 L 263.3 520.5 Z M 263.3 464.4 "></path></clipPath><g clip-path="url(#clip-4894)"><path d="M 65.8 1.5 L 65.8 57.6 " fill="none" stroke="#DCDDE0" stroke-width="1.00" stroke-dasharray="2.0, 2.0" transform="matrix(1.00, 0.00, 0.00, -1.00, 198.0, 522.0)"></path></g></g></g></g><g><clipPath id="clip-4895"><path d="M 199.5 520.5 L 306.8 520.5 L 306.8 368.6 L 199.5 368.6 Z M 199.5 520.5 "></path></clipPath><g clip-path="url(#clip-4895)"><g><clipPath id="clip-4896"><path d="M 262.8 443.6 L 264.8 443.6 L 264.8 464.4 L 262.8 464.4 Z M 262.8 443.6 "></path></clipPath><g clip-path="url(#clip-4896)"><path d="M 65.8 1.5 L 65.8 78.4 " fill="none" stroke="#000000" stroke-width="2.00" stroke-dasharray="4.0, 4.0" transform="matrix(1.00, 0.00, 0.00, -1.00, 198.0, 522.0)"></path></g></g></g></g><g><clipPath id="clip-4897"><path d="M 199.5 520.5 L 306.8 520.5 L 306.8 368.6 L 199.5 368.6 Z M 199.5 520.5 "></path></clipPath><g clip-path="url(#clip-4897)"><g><clipPath id="clip-4898"><path d="M 263.3 368.6 L 264.3 368.6 L 264.3 443.6 L 263.3 443.6 Z M 263.3 368.6 "></path></clipPath><g clip-path="url(#clip-4898)"><path d="M 65.8 1.5 L 65.8 153.4 " fill="none" stroke="#DCDDE0" stroke-width="1.00" stroke-dasharray="2.0, 2.0" transform="matrix(1.00, 0.00, 0.00, -1.00, 198.0, 522.0)"></path></g></g></g></g><g><clipPath id="clip-4899"><path d="M 199.5 520.5 L 306.8 520.5 L 306.8 368.6 L 199.5 368.6 Z M 199.5 520.5 "></path></clipPath><g clip-path="url(#clip-4899)"><g><clipPath id="clip-4900"><path d="M 284.6 368.6 L 285.6 368.6 L 285.6 520.5 L 284.6 520.5 Z M 284.6 368.6 "></path></clipPath><g clip-path="url(#clip-4900)"><path d="M 87.1 1.5 L 87.1 153.4 " fill="none" stroke="#DCDDE0" stroke-width="1.00" stroke-dasharray="2.0, 2.0" transform="matrix(1.00, 0.00, 0.00, -1.00, 198.0, 522.0)"></path></g></g></g></g><g><clipPath id="clip-4901"><path d="M 199.5 520.5 L 306.8 520.5 L 306.8 368.6 L 199.5 368.6 Z M 199.5 520.5 "></path></clipPath><g clip-path="url(#clip-4901)"><g><clipPath id="clip-4902"><path d="M 199.5 500.6 L 306.8 500.6 L 306.8 501.6 L 199.5 501.6 Z M 199.5 500.6 "></path></clipPath><g clip-path="url(#clip-4902)"><path d="M 1.5 20.9 L 108.8 20.9 " fill="none" stroke="#DCDDE0" stroke-width="1.00" stroke-dasharray="2.0, 2.0" transform="matrix(1.00, 0.00, 0.00, -1.00, 198.0, 522.0)"></path></g></g></g></g><g><clipPath id="clip-4903"><path d="M 199.5 520.5 L 306.8 520.5 L 306.8 368.6 L 199.5 368.6 Z M 199.5 520.5 "></path></clipPath><g clip-path="url(#clip-4903)"><g><clipPath id="clip-4904"><path d="M 199.5 481.8 L 306.8 481.8 L 306.8 482.8 L 199.5 482.8 Z M 199.5 481.8 "></path></clipPath><g clip-path="url(#clip-4904)"><path d="M 1.5 39.7 L 108.8 39.7 " fill="none" stroke="#DCDDE0" stroke-width="1.00" stroke-dasharray="2.0, 2.0" transform="matrix(1.00, 0.00, 0.00, -1.00, 198.0, 522.0)"></path></g></g></g></g><g><clipPath id="clip-4905"><path d="M 199.5 520.5 L 306.8 520.5 L 306.8 368.6 L 199.5 368.6 Z M 199.5 520.5 "></path></clipPath><g clip-path="url(#clip-4905)"><g><clipPath id="clip-4906"><path d="M 199.5 462.9 L 241.5 462.9 L 241.5 463.9 L 199.5 463.9 Z M 199.5 462.9 "></path></clipPath><g clip-path="url(#clip-4906)"><path d="M 1.5 58.6 L 43.5 58.6 " fill="none" stroke="#DCDDE0" stroke-width="1.00" stroke-dasharray="2.0, 2.0" transform="matrix(1.00, 0.00, 0.00, -1.00, 198.0, 522.0)"></path></g></g></g></g><g><clipPath id="clip-4907"><path d="M 199.5 520.5 L 306.8 520.5 L 306.8 368.6 L 199.5 368.6 Z M 199.5 520.5 "></path></clipPath><g clip-path="url(#clip-4907)"><g><clipPath id="clip-4908"><path d="M 241.5 462.4 L 264.8 462.4 L 264.8 464.4 L 241.5 464.4 Z M 241.5 462.4 "></path></clipPath><g clip-path="url(#clip-4908)"><path d="M 1.5 58.6 L 66.8 58.6 " fill="none" stroke="#000000" stroke-width="2.00" stroke-dasharray="4.0, 4.0" transform="matrix(1.00, 0.00, 0.00, -1.00, 198.0, 522.0)"></path></g></g></g></g><g><clipPath id="clip-4909"><path d="M 199.5 520.5 L 306.8 520.5 L 306.8 368.6 L 199.5 368.6 Z M 199.5 520.5 "></path></clipPath><g clip-path="url(#clip-4909)"><g><clipPath id="clip-4910"><path d="M 264.8 462.9 L 306.8 462.9 L 306.8 463.9 L 264.8 463.9 Z M 264.8 462.9 "></path></clipPath><g clip-path="url(#clip-4910)"><path d="M 1.5 58.6 L 108.8 58.6 " fill="none" stroke="#DCDDE0" stroke-width="1.00" stroke-dasharray="2.0, 2.0" transform="matrix(1.00, 0.00, 0.00, -1.00, 198.0, 522.0)"></path></g></g></g></g><g><clipPath id="clip-4911"><path d="M 199.5 520.5 L 306.8 520.5 L 306.8 368.6 L 199.5 368.6 Z M 199.5 520.5 "></path></clipPath><g clip-path="url(#clip-4911)"><g><clipPath id="clip-4912"><path d="M 199.5 444.1 L 220.3 444.1 L 220.3 445.1 L 199.5 445.1 Z M 199.5 444.1 "></path></clipPath><g clip-path="url(#clip-4912)"><path d="M 1.5 77.4 L 22.3 77.4 " fill="none" stroke="#DCDDE0" stroke-width="1.00" stroke-dasharray="2.0, 2.0" transform="matrix(1.00, 0.00, 0.00, -1.00, 198.0, 522.0)"></path></g></g></g></g><g><clipPath id="clip-4913"><path d="M 199.5 520.5 L 306.8 520.5 L 306.8 368.6 L 199.5 368.6 Z M 199.5 520.5 "></path></clipPath><g clip-path="url(#clip-4913)"><g><clipPath id="clip-4914"><path d="M 220.3 443.6 L 242.5 443.6 L 242.5 445.6 L 220.3 445.6 Z M 220.3 443.6 "></path></clipPath><g clip-path="url(#clip-4914)"><path d="M 1.5 77.4 L 44.5 77.4 " fill="none" stroke="#000000" stroke-width="2.00" stroke-dasharray="4.0, 4.0" transform="matrix(1.00, 0.00, 0.00, -1.00, 198.0, 522.0)"></path></g></g></g></g><g><clipPath id="clip-4915"><path d="M 199.5 520.5 L 306.8 520.5 L 306.8 368.6 L 199.5 368.6 Z M 199.5 520.5 "></path></clipPath><g clip-path="url(#clip-4915)"><g><clipPath id="clip-4916"><path d="M 242.5 443.6 L 264.8 443.6 L 264.8 445.6 L 242.5 445.6 Z M 242.5 443.6 "></path></clipPath><g clip-path="url(#clip-4916)"><path d="M 1.5 77.4 L 66.8 77.4 " fill="none" stroke="#000000" stroke-width="2.00" stroke-dasharray="4.0, 4.0" transform="matrix(1.00, 0.00, 0.00, -1.00, 198.0, 522.0)"></path></g></g></g></g><g><clipPath id="clip-4917"><path d="M 199.5 520.5 L 306.8 520.5 L 306.8 368.6 L 199.5 368.6 Z M 199.5 520.5 "></path></clipPath><g clip-path="url(#clip-4917)"><g><clipPath id="clip-4918"><path d="M 264.8 444.1 L 306.8 444.1 L 306.8 445.1 L 264.8 445.1 Z M 264.8 444.1 "></path></clipPath><g clip-path="url(#clip-4918)"><path d="M 1.5 77.4 L 108.8 77.4 " fill="none" stroke="#DCDDE0" stroke-width="1.00" stroke-dasharray="2.0, 2.0" transform="matrix(1.00, 0.00, 0.00, -1.00, 198.0, 522.0)"></path></g></g></g></g><g><clipPath id="clip-4919"><path d="M 199.5 520.5 L 306.8 520.5 L 306.8 368.6 L 199.5 368.6 Z M 199.5 520.5 "></path></clipPath><g clip-path="url(#clip-4919)"><g><clipPath id="clip-4920"><path d="M 199.5 425.2 L 220.3 425.2 L 220.3 426.2 L 199.5 426.2 Z M 199.5 425.2 "></path></clipPath><g clip-path="url(#clip-4920)"><path d="M 1.5 96.3 L 22.3 96.3 " fill="none" stroke="#DCDDE0" stroke-width="1.00" stroke-dasharray="2.0, 2.0" transform="matrix(1.00, 0.00, 0.00, -1.00, 198.0, 522.0)"></path></g></g></g></g><g><clipPath id="clip-4921"><path d="M 199.5 520.5 L 306.8 520.5 L 306.8 368.6 L 199.5 368.6 Z M 199.5 520.5 "></path></clipPath><g clip-path="url(#clip-4921)"><g><clipPath id="clip-4922"><path d="M 220.3 424.7 L 243.5 424.7 L 243.5 426.7 L 220.3 426.7 Z M 220.3 424.7 "></path></clipPath><g clip-path="url(#clip-4922)"><path d="M 1.5 96.3 L 45.5 96.3 " fill="none" stroke="#000000" stroke-width="2.00" stroke-dasharray="4.0, 4.0" transform="matrix(1.00, 0.00, 0.00, -1.00, 198.0, 522.0)"></path></g></g></g></g><g><clipPath id="clip-4923"><path d="M 199.5 520.5 L 306.8 520.5 L 306.8 368.6 L 199.5 368.6 Z M 199.5 520.5 "></path></clipPath><g clip-path="url(#clip-4923)"><g><clipPath id="clip-4924"><path d="M 243.5 425.2 L 306.8 425.2 L 306.8 426.2 L 243.5 426.2 Z M 243.5 425.2 "></path></clipPath><g clip-path="url(#clip-4924)"><path d="M 1.5 96.3 L 108.8 96.3 " fill="none" stroke="#DCDDE0" stroke-width="1.00" stroke-dasharray="2.0, 2.0" transform="matrix(1.00, 0.00, 0.00, -1.00, 198.0, 522.0)"></path></g></g></g></g><g><clipPath id="clip-4925"><path d="M 199.5 520.5 L 306.8 520.5 L 306.8 368.6 L 199.5 368.6 Z M 199.5 520.5 "></path></clipPath><g clip-path="url(#clip-4925)"><g><clipPath id="clip-4926"><path d="M 199.5 406.3 L 306.8 406.3 L 306.8 407.3 L 199.5 407.3 Z M 199.5 406.3 "></path></clipPath><g clip-path="url(#clip-4926)"><path d="M 1.5 115.2 L 108.8 115.2 " fill="none" stroke="#DCDDE0" stroke-width="1.00" stroke-dasharray="2.0, 2.0" transform="matrix(1.00, 0.00, 0.00, -1.00, 198.0, 522.0)"></path></g></g></g></g><g><clipPath id="clip-4927"><path d="M 199.5 520.5 L 306.8 520.5 L 306.8 368.6 L 199.5 368.6 Z M 199.5 520.5 "></path></clipPath><g clip-path="url(#clip-4927)"><g><clipPath id="clip-4928"><path d="M 199.5 387.5 L 306.8 387.5 L 306.8 388.5 L 199.5 388.5 Z M 199.5 387.5 "></path></clipPath><g clip-path="url(#clip-4928)"><path d="M 1.5 134.0 L 108.8 134.0 " fill="none" stroke="#DCDDE0" stroke-width="1.00" stroke-dasharray="2.0, 2.0" transform="matrix(1.00, 0.00, 0.00, -1.00, 198.0, 522.0)"></path></g></g></g></g><g><clipPath id="clip-4929"><path d="M 199.5 520.5 L 306.8 520.5 L 306.8 368.6 L 199.5 368.6 Z M 199.5 520.5 "></path></clipPath><g clip-path="url(#clip-4929)"><path d="M 2.0 1.5 L 2.0 153.4 " fill="none" stroke="#FEFFFE" stroke-width="1.00" transform="matrix(1.00, 0.00, 0.00, -1.00, 198.0, 522.0)"></path><path d="M 108.3 1.5 L 108.3 153.4 " fill="none" stroke="#FEFFFF" stroke-width="1.00" transform="matrix(1.00, 0.00, 0.00, -1.00, 198.0, 522.0)"></path><path d="M 1.5 2.0 L 108.8 2.0 " fill="none" stroke="#FEFFFE" stroke-width="1.00" transform="matrix(1.00, 0.00, 0.00, -1.00, 198.0, 522.0)"></path><path d="M 1.5 152.9 L 108.8 152.9 " fill="none" stroke="#FEFFFE" stroke-width="1.00" transform="matrix(1.00, 0.00, 0.00, -1.00, 198.0, 522.0)"></path></g></g><image xlink:href="2DB46BB52E56BEC32DB1E38355FA3BAE.png" width="117.00" height="154.00" transform="matrix(1.00, 0.00, -0.00, -0.99, 81.0, 523.0)"></image><g><clipPath id="clip-4930"><path d="M 83.5 522.5 L 190.8 522.5 L 190.8 370.6 L 83.5 370.6 Z M 83.5 522.5 "></path></clipPath><g clip-path="url(#clip-4930)"><g><clipPath id="clip-4931"><path d="M 104.8 370.6 L 105.8 370.6 L 105.8 522.5 L 104.8 522.5 Z M 104.8 370.6 "></path></clipPath><g clip-path="url(#clip-4931)"><path d="M 23.3 1.5 L 23.3 153.4 " fill="none" stroke="#DCDDE0" stroke-width="1.00" stroke-dasharray="2.0, 2.0" transform="matrix(1.00, 0.00, 0.00, -1.00, 82.0, 524.0)"></path></g></g></g></g><g><clipPath id="clip-4932"><path d="M 83.5 522.5 L 190.8 522.5 L 190.8 370.6 L 83.5 370.6 Z M 83.5 522.5 "></path></clipPath><g clip-path="url(#clip-4932)"><g><clipPath id="clip-4933"><path d="M 126.0 370.6 L 127.0 370.6 L 127.0 522.5 L 126.0 522.5 Z M 126.0 370.6 "></path></clipPath><g clip-path="url(#clip-4933)"><path d="M 44.5 1.5 L 44.5 153.4 " fill="none" stroke="#DCDDE0" stroke-width="1.00" stroke-dasharray="2.0, 2.0" transform="matrix(1.00, 0.00, 0.00, -1.00, 82.0, 524.0)"></path></g></g></g></g><g><clipPath id="clip-4934"><path d="M 83.5 522.5 L 190.8 522.5 L 190.8 370.6 L 83.5 370.6 Z M 83.5 522.5 "></path></clipPath><g clip-path="url(#clip-4934)"><g><clipPath id="clip-4935"><path d="M 147.3 370.6 L 148.3 370.6 L 148.3 522.5 L 147.3 522.5 Z M 147.3 370.6 "></path></clipPath><g clip-path="url(#clip-4935)"><path d="M 65.8 1.5 L 65.8 153.4 " fill="none" stroke="#DCDDE0" stroke-width="1.00" stroke-dasharray="2.0, 2.0" transform="matrix(1.00, 0.00, 0.00, -1.00, 82.0, 524.0)"></path></g></g></g></g><g><clipPath id="clip-4936"><path d="M 83.5 522.5 L 190.8 522.5 L 190.8 370.6 L 83.5 370.6 Z M 83.5 522.5 "></path></clipPath><g clip-path="url(#clip-4936)"><g><clipPath id="clip-4937"><path d="M 168.6 370.6 L 169.6 370.6 L 169.6 522.5 L 168.6 522.5 Z M 168.6 370.6 "></path></clipPath><g clip-path="url(#clip-4937)"><path d="M 87.1 1.5 L 87.1 153.4 " fill="none" stroke="#DCDDE0" stroke-width="1.00" stroke-dasharray="2.0, 2.0" transform="matrix(1.00, 0.00, 0.00, -1.00, 82.0, 524.0)"></path></g></g></g></g><g><clipPath id="clip-4938"><path d="M 83.5 522.5 L 190.8 522.5 L 190.8 370.6 L 83.5 370.6 Z M 83.5 522.5 "></path></clipPath><g clip-path="url(#clip-4938)"><g><clipPath id="clip-4939"><path d="M 83.5 502.6 L 190.8 502.6 L 190.8 503.6 L 83.5 503.6 Z M 83.5 502.6 "></path></clipPath><g clip-path="url(#clip-4939)"><path d="M 1.5 20.9 L 108.8 20.9 " fill="none" stroke="#DCDDE0" stroke-width="1.00" stroke-dasharray="2.0, 2.0" transform="matrix(1.00, 0.00, 0.00, -1.00, 82.0, 524.0)"></path></g></g></g></g><g><clipPath id="clip-4940"><path d="M 83.5 522.5 L 190.8 522.5 L 190.8 370.6 L 83.5 370.6 Z M 83.5 522.5 "></path></clipPath><g clip-path="url(#clip-4940)"><g><clipPath id="clip-4941"><path d="M 83.5 483.8 L 190.8 483.8 L 190.8 484.8 L 83.5 484.8 Z M 83.5 483.8 "></path></clipPath><g clip-path="url(#clip-4941)"><path d="M 1.5 39.7 L 108.8 39.7 " fill="none" stroke="#DCDDE0" stroke-width="1.00" stroke-dasharray="2.0, 2.0" transform="matrix(1.00, 0.00, 0.00, -1.00, 82.0, 524.0)"></path></g></g></g></g><g><clipPath id="clip-4942"><path d="M 83.5 522.5 L 190.8 522.5 L 190.8 370.6 L 83.5 370.6 Z M 83.5 522.5 "></path></clipPath><g clip-path="url(#clip-4942)"><g><clipPath id="clip-4943"><path d="M 83.5 464.9 L 190.8 464.9 L 190.8 465.9 L 83.5 465.9 Z M 83.5 464.9 "></path></clipPath><g clip-path="url(#clip-4943)"><path d="M 1.5 58.6 L 108.8 58.6 " fill="none" stroke="#DCDDE0" stroke-width="1.00" stroke-dasharray="2.0, 2.0" transform="matrix(1.00, 0.00, 0.00, -1.00, 82.0, 524.0)"></path></g></g></g></g><g><clipPath id="clip-4944"><path d="M 83.5 522.5 L 190.8 522.5 L 190.8 370.6 L 83.5 370.6 Z M 83.5 522.5 "></path></clipPath><g clip-path="url(#clip-4944)"><g><clipPath id="clip-4945"><path d="M 83.5 446.1 L 190.8 446.1 L 190.8 447.1 L 83.5 447.1 Z M 83.5 446.1 "></path></clipPath><g clip-path="url(#clip-4945)"><path d="M 1.5 77.4 L 108.8 77.4 " fill="none" stroke="#DCDDE0" stroke-width="1.00" stroke-dasharray="2.0, 2.0" transform="matrix(1.00, 0.00, 0.00, -1.00, 82.0, 524.0)"></path></g></g></g></g><g><clipPath id="clip-4946"><path d="M 83.5 522.5 L 190.8 522.5 L 190.8 370.6 L 83.5 370.6 Z M 83.5 522.5 "></path></clipPath><g clip-path="url(#clip-4946)"><g><clipPath id="clip-4947"><path d="M 83.5 427.2 L 190.8 427.2 L 190.8 428.2 L 83.5 428.2 Z M 83.5 427.2 "></path></clipPath><g clip-path="url(#clip-4947)"><path d="M 1.5 96.3 L 108.8 96.3 " fill="none" stroke="#DCDDE0" stroke-width="1.00" stroke-dasharray="2.0, 2.0" transform="matrix(1.00, 0.00, 0.00, -1.00, 82.0, 524.0)"></path></g></g></g></g><g><clipPath id="clip-4948"><path d="M 83.5 522.5 L 190.8 522.5 L 190.8 370.6 L 83.5 370.6 Z M 83.5 522.5 "></path></clipPath><g clip-path="url(#clip-4948)"><g><clipPath id="clip-4949"><path d="M 83.5 408.3 L 190.8 408.3 L 190.8 409.3 L 83.5 409.3 Z M 83.5 408.3 "></path></clipPath><g clip-path="url(#clip-4949)"><path d="M 1.5 115.2 L 108.8 115.2 " fill="none" stroke="#DCDDE0" stroke-width="1.00" stroke-dasharray="2.0, 2.0" transform="matrix(1.00, 0.00, 0.00, -1.00, 82.0, 524.0)"></path></g></g></g></g><g><clipPath id="clip-4950"><path d="M 83.5 522.5 L 190.8 522.5 L 190.8 370.6 L 83.5 370.6 Z M 83.5 522.5 "></path></clipPath><g clip-path="url(#clip-4950)"><g><clipPath id="clip-4951"><path d="M 83.5 389.5 L 190.8 389.5 L 190.8 390.5 L 83.5 390.5 Z M 83.5 389.5 "></path></clipPath><g clip-path="url(#clip-4951)"><path d="M 1.5 134.0 L 108.8 134.0 " fill="none" stroke="#DCDDE0" stroke-width="1.00" stroke-dasharray="2.0, 2.0" transform="matrix(1.00, 0.00, 0.00, -1.00, 82.0, 524.0)"></path></g></g></g></g><g><clipPath id="clip-4952"><path d="M 83.5 522.5 L 190.8 522.5 L 190.8 370.6 L 83.5 370.6 Z M 83.5 522.5 "></path></clipPath><g clip-path="url(#clip-4952)"><path d="M 2.0 1.5 L 2.0 153.4 " fill="none" stroke="#FEFFFE" stroke-width="1.00" transform="matrix(1.00, 0.00, 0.00, -1.00, 82.0, 524.0)"></path><path d="M 108.3 1.5 L 108.3 153.4 " fill="none" stroke="#FEFFFF" stroke-width="1.00" transform="matrix(1.00, 0.00, 0.00, -1.00, 82.0, 524.0)"></path><path d="M 1.5 2.0 L 108.8 2.0 " fill="none" stroke="#FEFFFE" stroke-width="1.00" transform="matrix(1.00, 0.00, 0.00, -1.00, 82.0, 524.0)"></path><path d="M 1.5 152.9 L 108.8 152.9 " fill="none" stroke="#FEFFFE" stroke-width="1.00" transform="matrix(1.00, 0.00, 0.00, -1.00, 82.0, 524.0)"></path></g></g><g><clipPath id="clip-4953"><path d="M 745.2 158.7 L 851.6 158.7 L 851.6 300.1 L 745.2 300.1 Z M 745.2 158.7 "></path></clipPath><g clip-path="url(#clip-4953)"><image xlink:href="../../6B36CA58-D728-4E4F-BA38-35BDF62CD86E/assets/DE599FB648E859053D93BEE811B8135A.png" width="106.00" height="142.00" transform="matrix(1.01, 0.00, -0.00, -0.99, 745.0, 300.0)"></image></g></g><g><clipPath id="clip-4954"><path d="M 626.2 80.7 L 736.3 80.7 L 736.3 223.2 L 626.2 223.2 Z M 626.2 80.7 "></path></clipPath><g clip-path="url(#clip-4954)"><image xlink:href="../../6B36CA58-D728-4E4F-BA38-35BDF62CD86E/assets/6DDDFD7471AE2F61D9519FA871F099FC.png" width="110.00" height="143.00" transform="matrix(1.00, 0.00, -0.00, -0.99, 626.0, 223.0)"></image></g></g><g><clipPath id="clip-4955"><path d="M 624.0 235.4 L 738.5 235.4 L 738.5 377.9 L 624.0 377.9 Z M 624.0 235.4 "></path></clipPath><g clip-path="url(#clip-4955)"><image xlink:href="../../6B36CA58-D728-4E4F-BA38-35BDF62CD86E/assets/C25E84DBDF47A5CBDC766300E8243A38.png" width="114.00" height="143.00" transform="matrix(1.00, 0.00, -0.00, -1.00, 624.0, 378.0)"></image></g></g><g><clipPath id="clip-4956"><path d="M 511.5 80.5 L 622.1 80.5 L 622.1 223.0 L 511.5 223.0 Z M 511.5 80.5 "></path></clipPath><g clip-path="url(#clip-4956)"><image xlink:href="59A8EE0BAA3ED35E8A5C4EB851036F88.png" width="111.00" height="143.00" transform="matrix(1.00, 0.00, -0.00, -1.00, 511.0, 223.0)"></image></g></g><g><clipPath id="clip-4957"><path d="M 512.0 235.4 L 621.6 235.4 L 621.6 377.9 L 512.0 377.9 Z M 512.0 235.4 "></path></clipPath><g clip-path="url(#clip-4957)"><image xlink:href="../../6B36CA58-D728-4E4F-BA38-35BDF62CD86E/assets/E9A5801B89102159FF8070049E7B703D.png" width="110.00" height="143.00" transform="matrix(1.00, 0.00, -0.00, -1.00, 512.0, 378.0)"></image></g></g><g><clipPath id="clip-4958"><path d="M 516.5 384.5 L 623.8 384.5 L 623.8 232.6 L 516.5 232.6 Z M 516.5 384.5 "></path></clipPath><g clip-path="url(#clip-4958)"><g><clipPath id="clip-4959"><path d="M 537.8 232.6 L 538.8 232.6 L 538.8 384.5 L 537.8 384.5 Z M 537.8 232.6 "></path></clipPath><g clip-path="url(#clip-4959)"><path d="M 23.3 1.5 L 23.3 153.4 " fill="none" stroke="#DCDDE0" stroke-width="1.00" stroke-dasharray="2.0, 2.0" transform="matrix(1.00, 0.00, 0.00, -1.00, 515.0, 386.0)"></path></g></g></g></g><g><clipPath id="clip-4960"><path d="M 516.5 384.5 L 623.8 384.5 L 623.8 232.6 L 516.5 232.6 Z M 516.5 384.5 "></path></clipPath><g clip-path="url(#clip-4960)"><g><clipPath id="clip-4961"><path d="M 559.0 232.6 L 560.0 232.6 L 560.0 384.5 L 559.0 384.5 Z M 559.0 232.6 "></path></clipPath><g clip-path="url(#clip-4961)"><path d="M 44.5 1.5 L 44.5 153.4 " fill="none" stroke="#DCDDE0" stroke-width="1.00" stroke-dasharray="2.0, 2.0" transform="matrix(1.00, 0.00, 0.00, -1.00, 515.0, 386.0)"></path></g></g></g></g><g><clipPath id="clip-4962"><path d="M 516.5 384.5 L 623.8 384.5 L 623.8 232.6 L 516.5 232.6 Z M 516.5 384.5 "></path></clipPath><g clip-path="url(#clip-4962)"><g><clipPath id="clip-4963"><path d="M 580.3 232.6 L 581.3 232.6 L 581.3 384.5 L 580.3 384.5 Z M 580.3 232.6 "></path></clipPath><g clip-path="url(#clip-4963)"><path d="M 65.8 1.5 L 65.8 153.4 " fill="none" stroke="#DCDDE0" stroke-width="1.00" stroke-dasharray="2.0, 2.0" transform="matrix(1.00, 0.00, 0.00, -1.00, 515.0, 386.0)"></path></g></g></g></g><g><clipPath id="clip-4964"><path d="M 516.5 384.5 L 623.8 384.5 L 623.8 232.6 L 516.5 232.6 Z M 516.5 384.5 "></path></clipPath><g clip-path="url(#clip-4964)"><g><clipPath id="clip-4965"><path d="M 601.6 232.6 L 602.6 232.6 L 602.6 384.5 L 601.6 384.5 Z M 601.6 232.6 "></path></clipPath><g clip-path="url(#clip-4965)"><path d="M 87.1 1.5 L 87.1 153.4 " fill="none" stroke="#DCDDE0" stroke-width="1.00" stroke-dasharray="2.0, 2.0" transform="matrix(1.00, 0.00, 0.00, -1.00, 515.0, 386.0)"></path></g></g></g></g><g><clipPath id="clip-4966"><path d="M 516.5 384.5 L 623.8 384.5 L 623.8 232.6 L 516.5 232.6 Z M 516.5 384.5 "></path></clipPath><g clip-path="url(#clip-4966)"><g><clipPath id="clip-4967"><path d="M 516.5 364.6 L 623.8 364.6 L 623.8 365.6 L 516.5 365.6 Z M 516.5 364.6 "></path></clipPath><g clip-path="url(#clip-4967)"><path d="M 1.5 20.9 L 108.8 20.9 " fill="none" stroke="#DCDDE0" stroke-width="1.00" stroke-dasharray="2.0, 2.0" transform="matrix(1.00, 0.00, 0.00, -1.00, 515.0, 386.0)"></path></g></g></g></g><g><clipPath id="clip-4968"><path d="M 516.5 384.5 L 623.8 384.5 L 623.8 232.6 L 516.5 232.6 Z M 516.5 384.5 "></path></clipPath><g clip-path="url(#clip-4968)"><g><clipPath id="clip-4969"><path d="M 516.5 345.8 L 623.8 345.8 L 623.8 346.8 L 516.5 346.8 Z M 516.5 345.8 "></path></clipPath><g clip-path="url(#clip-4969)"><path d="M 1.5 39.7 L 108.8 39.7 " fill="none" stroke="#DCDDE0" stroke-width="1.00" stroke-dasharray="2.0, 2.0" transform="matrix(1.00, 0.00, 0.00, -1.00, 515.0, 386.0)"></path></g></g></g></g><g><clipPath id="clip-4970"><path d="M 516.5 384.5 L 623.8 384.5 L 623.8 232.6 L 516.5 232.6 Z M 516.5 384.5 "></path></clipPath><g clip-path="url(#clip-4970)"><g><clipPath id="clip-4971"><path d="M 516.5 326.9 L 623.8 326.9 L 623.8 327.9 L 516.5 327.9 Z M 516.5 326.9 "></path></clipPath><g clip-path="url(#clip-4971)"><path d="M 1.5 58.6 L 108.8 58.6 " fill="none" stroke="#DCDDE0" stroke-width="1.00" stroke-dasharray="2.0, 2.0" transform="matrix(1.00, 0.00, 0.00, -1.00, 515.0, 386.0)"></path></g></g></g></g><g><clipPath id="clip-4972"><path d="M 516.5 384.5 L 623.8 384.5 L 623.8 232.6 L 516.5 232.6 Z M 516.5 384.5 "></path></clipPath><g clip-path="url(#clip-4972)"><g><clipPath id="clip-4973"><path d="M 516.5 308.1 L 623.8 308.1 L 623.8 309.1 L 516.5 309.1 Z M 516.5 308.1 "></path></clipPath><g clip-path="url(#clip-4973)"><path d="M 1.5 77.4 L 108.8 77.4 " fill="none" stroke="#DCDDE0" stroke-width="1.00" stroke-dasharray="2.0, 2.0" transform="matrix(1.00, 0.00, 0.00, -1.00, 515.0, 386.0)"></path></g></g></g></g><g><clipPath id="clip-4974"><path d="M 516.5 384.5 L 623.8 384.5 L 623.8 232.6 L 516.5 232.6 Z M 516.5 384.5 "></path></clipPath><g clip-path="url(#clip-4974)"><g><clipPath id="clip-4975"><path d="M 516.5 289.2 L 623.8 289.2 L 623.8 290.2 L 516.5 290.2 Z M 516.5 289.2 "></path></clipPath><g clip-path="url(#clip-4975)"><path d="M 1.5 96.3 L 108.8 96.3 " fill="none" stroke="#DCDDE0" stroke-width="1.00" stroke-dasharray="2.0, 2.0" transform="matrix(1.00, 0.00, 0.00, -1.00, 515.0, 386.0)"></path></g></g></g></g><g><clipPath id="clip-4976"><path d="M 516.5 384.5 L 623.8 384.5 L 623.8 232.6 L 516.5 232.6 Z M 516.5 384.5 "></path></clipPath><g clip-path="url(#clip-4976)"><g><clipPath id="clip-4977"><path d="M 516.5 270.3 L 623.8 270.3 L 623.8 271.3 L 516.5 271.3 Z M 516.5 270.3 "></path></clipPath><g clip-path="url(#clip-4977)"><path d="M 1.5 115.2 L 108.8 115.2 " fill="none" stroke="#DCDDE0" stroke-width="1.00" stroke-dasharray="2.0, 2.0" transform="matrix(1.00, 0.00, 0.00, -1.00, 515.0, 386.0)"></path></g></g></g></g><g><clipPath id="clip-4978"><path d="M 516.5 384.5 L 623.8 384.5 L 623.8 232.6 L 516.5 232.6 Z M 516.5 384.5 "></path></clipPath><g clip-path="url(#clip-4978)"><g><clipPath id="clip-4979"><path d="M 516.5 251.5 L 623.8 251.5 L 623.8 252.5 L 516.5 252.5 Z M 516.5 251.5 "></path></clipPath><g clip-path="url(#clip-4979)"><path d="M 1.5 134.0 L 108.8 134.0 " fill="none" stroke="#DCDDE0" stroke-width="1.00" stroke-dasharray="2.0, 2.0" transform="matrix(1.00, 0.00, 0.00, -1.00, 515.0, 386.0)"></path></g></g></g></g><g><clipPath id="clip-4980"><path d="M 516.5 384.5 L 623.8 384.5 L 623.8 232.6 L 516.5 232.6 Z M 516.5 384.5 "></path></clipPath><g clip-path="url(#clip-4980)"><path d="M 2.0 1.5 L 2.0 153.4 " fill="none" stroke="#FEFFFE" stroke-width="1.00" transform="matrix(1.00, 0.00, 0.00, -1.00, 515.0, 386.0)"></path><path d="M 108.3 1.5 L 108.3 153.4 " fill="none" stroke="#FEFFFF" stroke-width="1.00" transform="matrix(1.00, 0.00, 0.00, -1.00, 515.0, 386.0)"></path><path d="M 1.5 2.0 L 108.8 2.0 " fill="none" stroke="#FEFFFE" stroke-width="1.00" transform="matrix(1.00, 0.00, 0.00, -1.00, 515.0, 386.0)"></path><path d="M 1.5 152.9 L 108.8 152.9 " fill="none" stroke="#FEFFFE" stroke-width="1.00" transform="matrix(1.00, 0.00, 0.00, -1.00, 515.0, 386.0)"></path></g></g><g><clipPath id="clip-4981"><path d="M 630.5 384.5 L 737.8 384.5 L 737.8 232.6 L 630.5 232.6 Z M 630.5 384.5 "></path></clipPath><g clip-path="url(#clip-4981)"><g><clipPath id="clip-4982"><path d="M 651.8 232.6 L 652.8 232.6 L 652.8 384.5 L 651.8 384.5 Z M 651.8 232.6 "></path></clipPath><g clip-path="url(#clip-4982)"><path d="M 23.3 1.5 L 23.3 153.4 " fill="none" stroke="#DCDDE0" stroke-width="1.00" stroke-dasharray="2.0, 2.0" transform="matrix(1.00, 0.00, 0.00, -1.00, 629.0, 386.0)"></path></g></g></g></g><g><clipPath id="clip-4983"><path d="M 630.5 384.5 L 737.8 384.5 L 737.8 232.6 L 630.5 232.6 Z M 630.5 384.5 "></path></clipPath><g clip-path="url(#clip-4983)"><g><clipPath id="clip-4984"><path d="M 673.0 232.6 L 674.0 232.6 L 674.0 384.5 L 673.0 384.5 Z M 673.0 232.6 "></path></clipPath><g clip-path="url(#clip-4984)"><path d="M 44.5 1.5 L 44.5 153.4 " fill="none" stroke="#DCDDE0" stroke-width="1.00" stroke-dasharray="2.0, 2.0" transform="matrix(1.00, 0.00, 0.00, -1.00, 629.0, 386.0)"></path></g></g></g></g><g><clipPath id="clip-4985"><path d="M 630.5 384.5 L 737.8 384.5 L 737.8 232.6 L 630.5 232.6 Z M 630.5 384.5 "></path></clipPath><g clip-path="url(#clip-4985)"><g><clipPath id="clip-4986"><path d="M 694.3 232.6 L 695.3 232.6 L 695.3 384.5 L 694.3 384.5 Z M 694.3 232.6 "></path></clipPath><g clip-path="url(#clip-4986)"><path d="M 65.8 1.5 L 65.8 153.4 " fill="none" stroke="#DCDDE0" stroke-width="1.00" stroke-dasharray="2.0, 2.0" transform="matrix(1.00, 0.00, 0.00, -1.00, 629.0, 386.0)"></path></g></g></g></g><g><clipPath id="clip-4987"><path d="M 630.5 384.5 L 737.8 384.5 L 737.8 232.6 L 630.5 232.6 Z M 630.5 384.5 "></path></clipPath><g clip-path="url(#clip-4987)"><g><clipPath id="clip-4988"><path d="M 715.6 232.6 L 716.6 232.6 L 716.6 384.5 L 715.6 384.5 Z M 715.6 232.6 "></path></clipPath><g clip-path="url(#clip-4988)"><path d="M 87.1 1.5 L 87.1 153.4 " fill="none" stroke="#DCDDE0" stroke-width="1.00" stroke-dasharray="2.0, 2.0" transform="matrix(1.00, 0.00, 0.00, -1.00, 629.0, 386.0)"></path></g></g></g></g><g><clipPath id="clip-4989"><path d="M 630.5 384.5 L 737.8 384.5 L 737.8 232.6 L 630.5 232.6 Z M 630.5 384.5 "></path></clipPath><g clip-path="url(#clip-4989)"><g><clipPath id="clip-4990"><path d="M 630.5 364.6 L 737.8 364.6 L 737.8 365.6 L 630.5 365.6 Z M 630.5 364.6 "></path></clipPath><g clip-path="url(#clip-4990)"><path d="M 1.5 20.9 L 108.8 20.9 " fill="none" stroke="#DCDDE0" stroke-width="1.00" stroke-dasharray="2.0, 2.0" transform="matrix(1.00, 0.00, 0.00, -1.00, 629.0, 386.0)"></path></g></g></g></g><g><clipPath id="clip-4991"><path d="M 630.5 384.5 L 737.8 384.5 L 737.8 232.6 L 630.5 232.6 Z M 630.5 384.5 "></path></clipPath><g clip-path="url(#clip-4991)"><g><clipPath id="clip-4992"><path d="M 630.5 345.8 L 737.8 345.8 L 737.8 346.8 L 630.5 346.8 Z M 630.5 345.8 "></path></clipPath><g clip-path="url(#clip-4992)"><path d="M 1.5 39.7 L 108.8 39.7 " fill="none" stroke="#DCDDE0" stroke-width="1.00" stroke-dasharray="2.0, 2.0" transform="matrix(1.00, 0.00, 0.00, -1.00, 629.0, 386.0)"></path></g></g></g></g><g><clipPath id="clip-4993"><path d="M 630.5 384.5 L 737.8 384.5 L 737.8 232.6 L 630.5 232.6 Z M 630.5 384.5 "></path></clipPath><g clip-path="url(#clip-4993)"><g><clipPath id="clip-4994"><path d="M 630.5 326.9 L 737.8 326.9 L 737.8 327.9 L 630.5 327.9 Z M 630.5 326.9 "></path></clipPath><g clip-path="url(#clip-4994)"><path d="M 1.5 58.6 L 108.8 58.6 " fill="none" stroke="#DCDDE0" stroke-width="1.00" stroke-dasharray="2.0, 2.0" transform="matrix(1.00, 0.00, 0.00, -1.00, 629.0, 386.0)"></path></g></g></g></g><g><clipPath id="clip-4995"><path d="M 630.5 384.5 L 737.8 384.5 L 737.8 232.6 L 630.5 232.6 Z M 630.5 384.5 "></path></clipPath><g clip-path="url(#clip-4995)"><g><clipPath id="clip-4996"><path d="M 630.5 308.1 L 737.8 308.1 L 737.8 309.1 L 630.5 309.1 Z M 630.5 308.1 "></path></clipPath><g clip-path="url(#clip-4996)"><path d="M 1.5 77.4 L 108.8 77.4 " fill="none" stroke="#DCDDE0" stroke-width="1.00" stroke-dasharray="2.0, 2.0" transform="matrix(1.00, 0.00, 0.00, -1.00, 629.0, 386.0)"></path></g></g></g></g><g><clipPath id="clip-4997"><path d="M 630.5 384.5 L 737.8 384.5 L 737.8 232.6 L 630.5 232.6 Z M 630.5 384.5 "></path></clipPath><g clip-path="url(#clip-4997)"><g><clipPath id="clip-4998"><path d="M 630.5 289.2 L 737.8 289.2 L 737.8 290.2 L 630.5 290.2 Z M 630.5 289.2 "></path></clipPath><g clip-path="url(#clip-4998)"><path d="M 1.5 96.3 L 108.8 96.3 " fill="none" stroke="#DCDDE0" stroke-width="1.00" stroke-dasharray="2.0, 2.0" transform="matrix(1.00, 0.00, 0.00, -1.00, 629.0, 386.0)"></path></g></g></g></g><g><clipPath id="clip-4999"><path d="M 630.5 384.5 L 737.8 384.5 L 737.8 232.6 L 630.5 232.6 Z M 630.5 384.5 "></path></clipPath><g clip-path="url(#clip-4999)"><g><clipPath id="clip-5000"><path d="M 630.5 270.3 L 737.8 270.3 L 737.8 271.3 L 630.5 271.3 Z M 630.5 270.3 "></path></clipPath><g clip-path="url(#clip-5000)"><path d="M 1.5 115.2 L 108.8 115.2 " fill="none" stroke="#DCDDE0" stroke-width="1.00" stroke-dasharray="2.0, 2.0" transform="matrix(1.00, 0.00, 0.00, -1.00, 629.0, 386.0)"></path></g></g></g></g><g><clipPath id="clip-5001"><path d="M 630.5 384.5 L 737.8 384.5 L 737.8 232.6 L 630.5 232.6 Z M 630.5 384.5 "></path></clipPath><g clip-path="url(#clip-5001)"><g><clipPath id="clip-5002"><path d="M 630.5 251.5 L 737.8 251.5 L 737.8 252.5 L 630.5 252.5 Z M 630.5 251.5 "></path></clipPath><g clip-path="url(#clip-5002)"><path d="M 1.5 134.0 L 108.8 134.0 " fill="none" stroke="#DCDDE0" stroke-width="1.00" stroke-dasharray="2.0, 2.0" transform="matrix(1.00, 0.00, 0.00, -1.00, 629.0, 386.0)"></path></g></g></g></g><g><clipPath id="clip-5003"><path d="M 630.5 384.5 L 737.8 384.5 L 737.8 232.6 L 630.5 232.6 Z M 630.5 384.5 "></path></clipPath><g clip-path="url(#clip-5003)"><path d="M 2.0 1.5 L 2.0 153.4 " fill="none" stroke="#FEFFFE" stroke-width="1.00" transform="matrix(1.00, 0.00, 0.00, -1.00, 629.0, 386.0)"></path><path d="M 108.3 1.5 L 108.3 153.4 " fill="none" stroke="#FEFFFF" stroke-width="1.00" transform="matrix(1.00, 0.00, 0.00, -1.00, 629.0, 386.0)"></path><path d="M 1.5 2.0 L 108.8 2.0 " fill="none" stroke="#FEFFFE" stroke-width="1.00" transform="matrix(1.00, 0.00, 0.00, -1.00, 629.0, 386.0)"></path><path d="M 1.5 152.9 L 108.8 152.9 " fill="none" stroke="#FEFFFE" stroke-width="1.00" transform="matrix(1.00, 0.00, 0.00, -1.00, 629.0, 386.0)"></path></g></g><g><clipPath id="clip-5004"><path d="M 627.5 225.5 L 734.8 225.5 L 734.8 73.6 L 627.5 73.6 Z M 627.5 225.5 "></path></clipPath><g clip-path="url(#clip-5004)"><g><clipPath id="clip-5005"><path d="M 648.8 73.6 L 649.8 73.6 L 649.8 225.5 L 648.8 225.5 Z M 648.8 73.6 "></path></clipPath><g clip-path="url(#clip-5005)"><path d="M 23.3 1.5 L 23.3 153.4 " fill="none" stroke="#DCDDE0" stroke-width="1.00" stroke-dasharray="2.0, 2.0" transform="matrix(1.00, 0.00, 0.00, -1.00, 626.0, 227.0)"></path></g></g></g></g><g><clipPath id="clip-5006"><path d="M 627.5 225.5 L 734.8 225.5 L 734.8 73.6 L 627.5 73.6 Z M 627.5 225.5 "></path></clipPath><g clip-path="url(#clip-5006)"><g><clipPath id="clip-5007"><path d="M 670.0 73.6 L 671.0 73.6 L 671.0 225.5 L 670.0 225.5 Z M 670.0 73.6 "></path></clipPath><g clip-path="url(#clip-5007)"><path d="M 44.5 1.5 L 44.5 153.4 " fill="none" stroke="#DCDDE0" stroke-width="1.00" stroke-dasharray="2.0, 2.0" transform="matrix(1.00, 0.00, 0.00, -1.00, 626.0, 227.0)"></path></g></g></g></g><g><clipPath id="clip-5008"><path d="M 627.5 225.5 L 734.8 225.5 L 734.8 73.6 L 627.5 73.6 Z M 627.5 225.5 "></path></clipPath><g clip-path="url(#clip-5008)"><g><clipPath id="clip-5009"><path d="M 691.3 73.6 L 692.3 73.6 L 692.3 225.5 L 691.3 225.5 Z M 691.3 73.6 "></path></clipPath><g clip-path="url(#clip-5009)"><path d="M 65.8 1.5 L 65.8 153.4 " fill="none" stroke="#DCDDE0" stroke-width="1.00" stroke-dasharray="2.0, 2.0" transform="matrix(1.00, 0.00, 0.00, -1.00, 626.0, 227.0)"></path></g></g></g></g><g><clipPath id="clip-5010"><path d="M 627.5 225.5 L 734.8 225.5 L 734.8 73.6 L 627.5 73.6 Z M 627.5 225.5 "></path></clipPath><g clip-path="url(#clip-5010)"><g><clipPath id="clip-5011"><path d="M 712.6 73.6 L 713.6 73.6 L 713.6 225.5 L 712.6 225.5 Z M 712.6 73.6 "></path></clipPath><g clip-path="url(#clip-5011)"><path d="M 87.1 1.5 L 87.1 153.4 " fill="none" stroke="#DCDDE0" stroke-width="1.00" stroke-dasharray="2.0, 2.0" transform="matrix(1.00, 0.00, 0.00, -1.00, 626.0, 227.0)"></path></g></g></g></g><g><clipPath id="clip-5012"><path d="M 627.5 225.5 L 734.8 225.5 L 734.8 73.6 L 627.5 73.6 Z M 627.5 225.5 "></path></clipPath><g clip-path="url(#clip-5012)"><g><clipPath id="clip-5013"><path d="M 627.5 205.6 L 734.8 205.6 L 734.8 206.6 L 627.5 206.6 Z M 627.5 205.6 "></path></clipPath><g clip-path="url(#clip-5013)"><path d="M 1.5 20.9 L 108.8 20.9 " fill="none" stroke="#DCDDE0" stroke-width="1.00" stroke-dasharray="2.0, 2.0" transform="matrix(1.00, 0.00, 0.00, -1.00, 626.0, 227.0)"></path></g></g></g></g><g><clipPath id="clip-5014"><path d="M 627.5 225.5 L 734.8 225.5 L 734.8 73.6 L 627.5 73.6 Z M 627.5 225.5 "></path></clipPath><g clip-path="url(#clip-5014)"><g><clipPath id="clip-5015"><path d="M 627.5 186.8 L 734.8 186.8 L 734.8 187.8 L 627.5 187.8 Z M 627.5 186.8 "></path></clipPath><g clip-path="url(#clip-5015)"><path d="M 1.5 39.7 L 108.8 39.7 " fill="none" stroke="#DCDDE0" stroke-width="1.00" stroke-dasharray="2.0, 2.0" transform="matrix(1.00, 0.00, 0.00, -1.00, 626.0, 227.0)"></path></g></g></g></g><g><clipPath id="clip-5016"><path d="M 627.5 225.5 L 734.8 225.5 L 734.8 73.6 L 627.5 73.6 Z M 627.5 225.5 "></path></clipPath><g clip-path="url(#clip-5016)"><g><clipPath id="clip-5017"><path d="M 627.5 167.9 L 734.8 167.9 L 734.8 168.9 L 627.5 168.9 Z M 627.5 167.9 "></path></clipPath><g clip-path="url(#clip-5017)"><path d="M 1.5 58.6 L 108.8 58.6 " fill="none" stroke="#DCDDE0" stroke-width="1.00" stroke-dasharray="2.0, 2.0" transform="matrix(1.00, 0.00, 0.00, -1.00, 626.0, 227.0)"></path></g></g></g></g><g><clipPath id="clip-5018"><path d="M 627.5 225.5 L 734.8 225.5 L 734.8 73.6 L 627.5 73.6 Z M 627.5 225.5 "></path></clipPath><g clip-path="url(#clip-5018)"><g><clipPath id="clip-5019"><path d="M 627.5 149.1 L 734.8 149.1 L 734.8 150.1 L 627.5 150.1 Z M 627.5 149.1 "></path></clipPath><g clip-path="url(#clip-5019)"><path d="M 1.5 77.4 L 108.8 77.4 " fill="none" stroke="#DCDDE0" stroke-width="1.00" stroke-dasharray="2.0, 2.0" transform="matrix(1.00, 0.00, 0.00, -1.00, 626.0, 227.0)"></path></g></g></g></g><g><clipPath id="clip-5020"><path d="M 627.5 225.5 L 734.8 225.5 L 734.8 73.6 L 627.5 73.6 Z M 627.5 225.5 "></path></clipPath><g clip-path="url(#clip-5020)"><g><clipPath id="clip-5021"><path d="M 627.5 130.2 L 734.8 130.2 L 734.8 131.2 L 627.5 131.2 Z M 627.5 130.2 "></path></clipPath><g clip-path="url(#clip-5021)"><path d="M 1.5 96.3 L 108.8 96.3 " fill="none" stroke="#DCDDE0" stroke-width="1.00" stroke-dasharray="2.0, 2.0" transform="matrix(1.00, 0.00, 0.00, -1.00, 626.0, 227.0)"></path></g></g></g></g><g><clipPath id="clip-5022"><path d="M 627.5 225.5 L 734.8 225.5 L 734.8 73.6 L 627.5 73.6 Z M 627.5 225.5 "></path></clipPath><g clip-path="url(#clip-5022)"><g><clipPath id="clip-5023"><path d="M 627.5 111.3 L 734.8 111.3 L 734.8 112.3 L 627.5 112.3 Z M 627.5 111.3 "></path></clipPath><g clip-path="url(#clip-5023)"><path d="M 1.5 115.2 L 108.8 115.2 " fill="none" stroke="#DCDDE0" stroke-width="1.00" stroke-dasharray="2.0, 2.0" transform="matrix(1.00, 0.00, 0.00, -1.00, 626.0, 227.0)"></path></g></g></g></g><g><clipPath id="clip-5024"><path d="M 627.5 225.5 L 734.8 225.5 L 734.8 73.6 L 627.5 73.6 Z M 627.5 225.5 "></path></clipPath><g clip-path="url(#clip-5024)"><g><clipPath id="clip-5025"><path d="M 627.5 92.5 L 734.8 92.5 L 734.8 93.5 L 627.5 93.5 Z M 627.5 92.5 "></path></clipPath><g clip-path="url(#clip-5025)"><path d="M 1.5 134.0 L 108.8 134.0 " fill="none" stroke="#DCDDE0" stroke-width="1.00" stroke-dasharray="2.0, 2.0" transform="matrix(1.00, 0.00, 0.00, -1.00, 626.0, 227.0)"></path></g></g></g></g><g><clipPath id="clip-5026"><path d="M 627.5 225.5 L 734.8 225.5 L 734.8 73.6 L 627.5 73.6 Z M 627.5 225.5 "></path></clipPath><g clip-path="url(#clip-5026)"><path d="M 2.0 1.5 L 2.0 153.4 " fill="none" stroke="#FEFFFE" stroke-width="1.00" transform="matrix(1.00, 0.00, 0.00, -1.00, 626.0, 227.0)"></path><path d="M 108.3 1.5 L 108.3 153.4 " fill="none" stroke="#FEFFFF" stroke-width="1.00" transform="matrix(1.00, 0.00, 0.00, -1.00, 626.0, 227.0)"></path><path d="M 1.5 2.0 L 108.8 2.0 " fill="none" stroke="#FEFFFE" stroke-width="1.00" transform="matrix(1.00, 0.00, 0.00, -1.00, 626.0, 227.0)"></path><path d="M 1.5 152.9 L 108.8 152.9 " fill="none" stroke="#FEFFFE" stroke-width="1.00" transform="matrix(1.00, 0.00, 0.00, -1.00, 626.0, 227.0)"></path></g></g><g><clipPath id="clip-5027"><path d="M 746.5 307.5 L 853.8 307.5 L 853.8 155.6 L 746.5 155.6 Z M 746.5 307.5 "></path></clipPath><g clip-path="url(#clip-5027)"><g><clipPath id="clip-5028"><path d="M 767.8 155.6 L 768.8 155.6 L 768.8 307.5 L 767.8 307.5 Z M 767.8 155.6 "></path></clipPath><g clip-path="url(#clip-5028)"><path d="M 23.3 1.5 L 23.3 153.4 " fill="none" stroke="#DCDDE0" stroke-width="1.00" stroke-dasharray="2.0, 2.0" transform="matrix(1.00, 0.00, 0.00, -1.00, 745.0, 309.0)"></path></g></g></g></g><g><clipPath id="clip-5029"><path d="M 746.5 307.5 L 853.8 307.5 L 853.8 155.6 L 746.5 155.6 Z M 746.5 307.5 "></path></clipPath><g clip-path="url(#clip-5029)"><g><clipPath id="clip-5030"><path d="M 789.0 155.6 L 790.0 155.6 L 790.0 307.5 L 789.0 307.5 Z M 789.0 155.6 "></path></clipPath><g clip-path="url(#clip-5030)"><path d="M 44.5 1.5 L 44.5 153.4 " fill="none" stroke="#DCDDE0" stroke-width="1.00" stroke-dasharray="2.0, 2.0" transform="matrix(1.00, 0.00, 0.00, -1.00, 745.0, 309.0)"></path></g></g></g></g><g><clipPath id="clip-5031"><path d="M 746.5 307.5 L 853.8 307.5 L 853.8 155.6 L 746.5 155.6 Z M 746.5 307.5 "></path></clipPath><g clip-path="url(#clip-5031)"><g><clipPath id="clip-5032"><path d="M 810.3 155.6 L 811.3 155.6 L 811.3 307.5 L 810.3 307.5 Z M 810.3 155.6 "></path></clipPath><g clip-path="url(#clip-5032)"><path d="M 65.8 1.5 L 65.8 153.4 " fill="none" stroke="#DCDDE0" stroke-width="1.00" stroke-dasharray="2.0, 2.0" transform="matrix(1.00, 0.00, 0.00, -1.00, 745.0, 309.0)"></path></g></g></g></g><g><clipPath id="clip-5033"><path d="M 746.5 307.5 L 853.8 307.5 L 853.8 155.6 L 746.5 155.6 Z M 746.5 307.5 "></path></clipPath><g clip-path="url(#clip-5033)"><g><clipPath id="clip-5034"><path d="M 831.6 155.6 L 832.6 155.6 L 832.6 307.5 L 831.6 307.5 Z M 831.6 155.6 "></path></clipPath><g clip-path="url(#clip-5034)"><path d="M 87.1 1.5 L 87.1 153.4 " fill="none" stroke="#DCDDE0" stroke-width="1.00" stroke-dasharray="2.0, 2.0" transform="matrix(1.00, 0.00, 0.00, -1.00, 745.0, 309.0)"></path></g></g></g></g><g><clipPath id="clip-5035"><path d="M 746.5 307.5 L 853.8 307.5 L 853.8 155.6 L 746.5 155.6 Z M 746.5 307.5 "></path></clipPath><g clip-path="url(#clip-5035)"><g><clipPath id="clip-5036"><path d="M 746.5 287.6 L 853.8 287.6 L 853.8 288.6 L 746.5 288.6 Z M 746.5 287.6 "></path></clipPath><g clip-path="url(#clip-5036)"><path d="M 1.5 20.9 L 108.8 20.9 " fill="none" stroke="#DCDDE0" stroke-width="1.00" stroke-dasharray="2.0, 2.0" transform="matrix(1.00, 0.00, 0.00, -1.00, 745.0, 309.0)"></path></g></g></g></g><g><clipPath id="clip-5037"><path d="M 746.5 307.5 L 853.8 307.5 L 853.8 155.6 L 746.5 155.6 Z M 746.5 307.5 "></path></clipPath><g clip-path="url(#clip-5037)"><g><clipPath id="clip-5038"><path d="M 746.5 268.8 L 853.8 268.8 L 853.8 269.8 L 746.5 269.8 Z M 746.5 268.8 "></path></clipPath><g clip-path="url(#clip-5038)"><path d="M 1.5 39.7 L 108.8 39.7 " fill="none" stroke="#DCDDE0" stroke-width="1.00" stroke-dasharray="2.0, 2.0" transform="matrix(1.00, 0.00, 0.00, -1.00, 745.0, 309.0)"></path></g></g></g></g><g><clipPath id="clip-5039"><path d="M 746.5 307.5 L 853.8 307.5 L 853.8 155.6 L 746.5 155.6 Z M 746.5 307.5 "></path></clipPath><g clip-path="url(#clip-5039)"><g><clipPath id="clip-5040"><path d="M 746.5 249.9 L 853.8 249.9 L 853.8 250.9 L 746.5 250.9 Z M 746.5 249.9 "></path></clipPath><g clip-path="url(#clip-5040)"><path d="M 1.5 58.6 L 108.8 58.6 " fill="none" stroke="#DCDDE0" stroke-width="1.00" stroke-dasharray="2.0, 2.0" transform="matrix(1.00, 0.00, 0.00, -1.00, 745.0, 309.0)"></path></g></g></g></g><g><clipPath id="clip-5041"><path d="M 746.5 307.5 L 853.8 307.5 L 853.8 155.6 L 746.5 155.6 Z M 746.5 307.5 "></path></clipPath><g clip-path="url(#clip-5041)"><g><clipPath id="clip-5042"><path d="M 746.5 231.1 L 853.8 231.1 L 853.8 232.1 L 746.5 232.1 Z M 746.5 231.1 "></path></clipPath><g clip-path="url(#clip-5042)"><path d="M 1.5 77.4 L 108.8 77.4 " fill="none" stroke="#DCDDE0" stroke-width="1.00" stroke-dasharray="2.0, 2.0" transform="matrix(1.00, 0.00, 0.00, -1.00, 745.0, 309.0)"></path></g></g></g></g><g><clipPath id="clip-5043"><path d="M 746.5 307.5 L 853.8 307.5 L 853.8 155.6 L 746.5 155.6 Z M 746.5 307.5 "></path></clipPath><g clip-path="url(#clip-5043)"><g><clipPath id="clip-5044"><path d="M 746.5 212.2 L 853.8 212.2 L 853.8 213.2 L 746.5 213.2 Z M 746.5 212.2 "></path></clipPath><g clip-path="url(#clip-5044)"><path d="M 1.5 96.3 L 108.8 96.3 " fill="none" stroke="#DCDDE0" stroke-width="1.00" stroke-dasharray="2.0, 2.0" transform="matrix(1.00, 0.00, 0.00, -1.00, 745.0, 309.0)"></path></g></g></g></g><g><clipPath id="clip-5045"><path d="M 746.5 307.5 L 853.8 307.5 L 853.8 155.6 L 746.5 155.6 Z M 746.5 307.5 "></path></clipPath><g clip-path="url(#clip-5045)"><g><clipPath id="clip-5046"><path d="M 746.5 193.3 L 853.8 193.3 L 853.8 194.3 L 746.5 194.3 Z M 746.5 193.3 "></path></clipPath><g clip-path="url(#clip-5046)"><path d="M 1.5 115.2 L 108.8 115.2 " fill="none" stroke="#DCDDE0" stroke-width="1.00" stroke-dasharray="2.0, 2.0" transform="matrix(1.00, 0.00, 0.00, -1.00, 745.0, 309.0)"></path></g></g></g></g><g><clipPath id="clip-5047"><path d="M 746.5 307.5 L 853.8 307.5 L 853.8 155.6 L 746.5 155.6 Z M 746.5 307.5 "></path></clipPath><g clip-path="url(#clip-5047)"><g><clipPath id="clip-5048"><path d="M 746.5 174.5 L 853.8 174.5 L 853.8 175.5 L 746.5 175.5 Z M 746.5 174.5 "></path></clipPath><g clip-path="url(#clip-5048)"><path d="M 1.5 134.0 L 108.8 134.0 " fill="none" stroke="#DCDDE0" stroke-width="1.00" stroke-dasharray="2.0, 2.0" transform="matrix(1.00, 0.00, 0.00, -1.00, 745.0, 309.0)"></path></g></g></g></g><g><clipPath id="clip-5049"><path d="M 746.5 307.5 L 853.8 307.5 L 853.8 155.6 L 746.5 155.6 Z M 746.5 307.5 "></path></clipPath><g clip-path="url(#clip-5049)"><path d="M 2.0 1.5 L 2.0 153.4 " fill="none" stroke="#FEFFFE" stroke-width="1.00" transform="matrix(1.00, 0.00, 0.00, -1.00, 745.0, 309.0)"></path><path d="M 108.3 1.5 L 108.3 153.4 " fill="none" stroke="#FEFFFF" stroke-width="1.00" transform="matrix(1.00, 0.00, 0.00, -1.00, 745.0, 309.0)"></path><path d="M 1.5 2.0 L 108.8 2.0 " fill="none" stroke="#FEFFFE" stroke-width="1.00" transform="matrix(1.00, 0.00, 0.00, -1.00, 745.0, 309.0)"></path><path d="M 1.5 152.9 L 108.8 152.9 " fill="none" stroke="#FEFFFE" stroke-width="1.00" transform="matrix(1.00, 0.00, 0.00, -1.00, 745.0, 309.0)"></path></g></g><image xlink:href="../../6B36CA58-D728-4E4F-BA38-35BDF62CD86E/assets/2DB46BB52E56BEC32DB1E38355FA3BAE.png" width="117.00" height="154.00" transform="matrix(1.00, 0.00, -0.00, -0.99, 508.0, 229.0)"></image><g><clipPath id="clip-5050"><path d="M 509.5 228.5 L 616.8 228.5 L 616.8 76.6 L 509.5 76.6 Z M 509.5 228.5 "></path></clipPath><g clip-path="url(#clip-5050)"><g><clipPath id="clip-5051"><path d="M 530.8 76.6 L 531.8 76.6 L 531.8 228.5 L 530.8 228.5 Z M 530.8 76.6 "></path></clipPath><g clip-path="url(#clip-5051)"><path d="M 23.3 1.5 L 23.3 153.4 " fill="none" stroke="#DCDDE0" stroke-width="1.00" stroke-dasharray="2.0, 2.0" transform="matrix(1.00, 0.00, 0.00, -1.00, 508.0, 230.0)"></path></g></g></g></g><g><clipPath id="clip-5052"><path d="M 509.5 228.5 L 616.8 228.5 L 616.8 76.6 L 509.5 76.6 Z M 509.5 228.5 "></path></clipPath><g clip-path="url(#clip-5052)"><g><clipPath id="clip-5053"><path d="M 552.0 76.6 L 553.0 76.6 L 553.0 228.5 L 552.0 228.5 Z M 552.0 76.6 "></path></clipPath><g clip-path="url(#clip-5053)"><path d="M 44.5 1.5 L 44.5 153.4 " fill="none" stroke="#DCDDE0" stroke-width="1.00" stroke-dasharray="2.0, 2.0" transform="matrix(1.00, 0.00, 0.00, -1.00, 508.0, 230.0)"></path></g></g></g></g><g><clipPath id="clip-5054"><path d="M 509.5 228.5 L 616.8 228.5 L 616.8 76.6 L 509.5 76.6 Z M 509.5 228.5 "></path></clipPath><g clip-path="url(#clip-5054)"><g><clipPath id="clip-5055"><path d="M 573.3 76.6 L 574.3 76.6 L 574.3 228.5 L 573.3 228.5 Z M 573.3 76.6 "></path></clipPath><g clip-path="url(#clip-5055)"><path d="M 65.8 1.5 L 65.8 153.4 " fill="none" stroke="#DCDDE0" stroke-width="1.00" stroke-dasharray="2.0, 2.0" transform="matrix(1.00, 0.00, 0.00, -1.00, 508.0, 230.0)"></path></g></g></g></g><g><clipPath id="clip-5056"><path d="M 509.5 228.5 L 616.8 228.5 L 616.8 76.6 L 509.5 76.6 Z M 509.5 228.5 "></path></clipPath><g clip-path="url(#clip-5056)"><g><clipPath id="clip-5057"><path d="M 594.6 76.6 L 595.6 76.6 L 595.6 228.5 L 594.6 228.5 Z M 594.6 76.6 "></path></clipPath><g clip-path="url(#clip-5057)"><path d="M 87.1 1.5 L 87.1 153.4 " fill="none" stroke="#DCDDE0" stroke-width="1.00" stroke-dasharray="2.0, 2.0" transform="matrix(1.00, 0.00, 0.00, -1.00, 508.0, 230.0)"></path></g></g></g></g><g><clipPath id="clip-5058"><path d="M 509.5 228.5 L 616.8 228.5 L 616.8 76.6 L 509.5 76.6 Z M 509.5 228.5 "></path></clipPath><g clip-path="url(#clip-5058)"><g><clipPath id="clip-5059"><path d="M 509.5 208.6 L 616.8 208.6 L 616.8 209.6 L 509.5 209.6 Z M 509.5 208.6 "></path></clipPath><g clip-path="url(#clip-5059)"><path d="M 1.5 20.9 L 108.8 20.9 " fill="none" stroke="#DCDDE0" stroke-width="1.00" stroke-dasharray="2.0, 2.0" transform="matrix(1.00, 0.00, 0.00, -1.00, 508.0, 230.0)"></path></g></g></g></g><g><clipPath id="clip-5060"><path d="M 509.5 228.5 L 616.8 228.5 L 616.8 76.6 L 509.5 76.6 Z M 509.5 228.5 "></path></clipPath><g clip-path="url(#clip-5060)"><g><clipPath id="clip-5061"><path d="M 509.5 189.8 L 616.8 189.8 L 616.8 190.8 L 509.5 190.8 Z M 509.5 189.8 "></path></clipPath><g clip-path="url(#clip-5061)"><path d="M 1.5 39.7 L 108.8 39.7 " fill="none" stroke="#DCDDE0" stroke-width="1.00" stroke-dasharray="2.0, 2.0" transform="matrix(1.00, 0.00, 0.00, -1.00, 508.0, 230.0)"></path></g></g></g></g><g><clipPath id="clip-5062"><path d="M 509.5 228.5 L 616.8 228.5 L 616.8 76.6 L 509.5 76.6 Z M 509.5 228.5 "></path></clipPath><g clip-path="url(#clip-5062)"><g><clipPath id="clip-5063"><path d="M 509.5 170.9 L 616.8 170.9 L 616.8 171.9 L 509.5 171.9 Z M 509.5 170.9 "></path></clipPath><g clip-path="url(#clip-5063)"><path d="M 1.5 58.6 L 108.8 58.6 " fill="none" stroke="#DCDDE0" stroke-width="1.00" stroke-dasharray="2.0, 2.0" transform="matrix(1.00, 0.00, 0.00, -1.00, 508.0, 230.0)"></path></g></g></g></g><g><clipPath id="clip-5064"><path d="M 509.5 228.5 L 616.8 228.5 L 616.8 76.6 L 509.5 76.6 Z M 509.5 228.5 "></path></clipPath><g clip-path="url(#clip-5064)"><g><clipPath id="clip-5065"><path d="M 509.5 152.1 L 616.8 152.1 L 616.8 153.1 L 509.5 153.1 Z M 509.5 152.1 "></path></clipPath><g clip-path="url(#clip-5065)"><path d="M 1.5 77.4 L 108.8 77.4 " fill="none" stroke="#DCDDE0" stroke-width="1.00" stroke-dasharray="2.0, 2.0" transform="matrix(1.00, 0.00, 0.00, -1.00, 508.0, 230.0)"></path></g></g></g></g><g><clipPath id="clip-5066"><path d="M 509.5 228.5 L 616.8 228.5 L 616.8 76.6 L 509.5 76.6 Z M 509.5 228.5 "></path></clipPath><g clip-path="url(#clip-5066)"><g><clipPath id="clip-5067"><path d="M 509.5 133.2 L 616.8 133.2 L 616.8 134.2 L 509.5 134.2 Z M 509.5 133.2 "></path></clipPath><g clip-path="url(#clip-5067)"><path d="M 1.5 96.3 L 108.8 96.3 " fill="none" stroke="#DCDDE0" stroke-width="1.00" stroke-dasharray="2.0, 2.0" transform="matrix(1.00, 0.00, 0.00, -1.00, 508.0, 230.0)"></path></g></g></g></g><g><clipPath id="clip-5068"><path d="M 509.5 228.5 L 616.8 228.5 L 616.8 76.6 L 509.5 76.6 Z M 509.5 228.5 "></path></clipPath><g clip-path="url(#clip-5068)"><g><clipPath id="clip-5069"><path d="M 509.5 114.3 L 616.8 114.3 L 616.8 115.3 L 509.5 115.3 Z M 509.5 114.3 "></path></clipPath><g clip-path="url(#clip-5069)"><path d="M 1.5 115.2 L 108.8 115.2 " fill="none" stroke="#DCDDE0" stroke-width="1.00" stroke-dasharray="2.0, 2.0" transform="matrix(1.00, 0.00, 0.00, -1.00, 508.0, 230.0)"></path></g></g></g></g><g><clipPath id="clip-5070"><path d="M 509.5 228.5 L 616.8 228.5 L 616.8 76.6 L 509.5 76.6 Z M 509.5 228.5 "></path></clipPath><g clip-path="url(#clip-5070)"><g><clipPath id="clip-5071"><path d="M 509.5 95.5 L 616.8 95.5 L 616.8 96.5 L 509.5 96.5 Z M 509.5 95.5 "></path></clipPath><g clip-path="url(#clip-5071)"><path d="M 1.5 134.0 L 108.8 134.0 " fill="none" stroke="#DCDDE0" stroke-width="1.00" stroke-dasharray="2.0, 2.0" transform="matrix(1.00, 0.00, 0.00, -1.00, 508.0, 230.0)"></path></g></g></g></g><g><clipPath id="clip-5072"><path d="M 509.5 228.5 L 616.8 228.5 L 616.8 76.6 L 509.5 76.6 Z M 509.5 228.5 "></path></clipPath><g clip-path="url(#clip-5072)"><path d="M 2.0 1.5 L 2.0 153.4 " fill="none" stroke="#FEFFFE" stroke-width="1.00" transform="matrix(1.00, 0.00, 0.00, -1.00, 508.0, 230.0)"></path><path d="M 108.3 1.5 L 108.3 153.4 " fill="none" stroke="#FEFFFF" stroke-width="1.00" transform="matrix(1.00, 0.00, 0.00, -1.00, 508.0, 230.0)"></path><path d="M 1.5 2.0 L 108.8 2.0 " fill="none" stroke="#FEFFFE" stroke-width="1.00" transform="matrix(1.00, 0.00, 0.00, -1.00, 508.0, 230.0)"></path><path d="M 1.5 152.9 L 108.8 152.9 " fill="none" stroke="#FEFFFE" stroke-width="1.00" transform="matrix(1.00, 0.00, 0.00, -1.00, 508.0, 230.0)"></path></g></g><text xml:space="preserve" font-family="Helvetica-Light" font-size="36.0" fill="#000000" transform="matrix(1.00, 0.00, -0.00, -1.00, 667.0, 564.0)">A</text><text xml:space="preserve" font-family="Helvetica-Light" font-size="36.0" fill="#000000" transform="matrix(1.00, 0.00, -0.00, -1.00, 691.0, 564.0)"> </text><text xml:space="preserve" font-family="Helvetica-Light" font-size="36.0" fill="#000000" transform="matrix(1.00, 0.00, -0.00, -1.00, 701.0, 564.0)">C</text><text xml:space="preserve" font-family="Helvetica-Light" font-size="36.0" fill="#000000" transform="matrix(1.00, 0.00, -0.00, -1.00, 727.0, 564.0)">h</text><text xml:space="preserve" font-family="Helvetica-Light" font-size="36.0" fill="#000000" transform="matrix(1.00, 0.00, -0.00, -1.00, 747.0, 564.0)">a</text><text xml:space="preserve" font-family="Helvetica-Light" font-size="36.0" fill="#000000" transform="matrix(1.00, 0.00, -0.00, -1.00, 767.0, 564.0)">n</text><text xml:space="preserve" font-family="Helvetica-Light" font-size="36.0" fill="#000000" transform="matrix(1.00, 0.00, -0.00, -1.00, 787.1, 564.0)">g</text><text xml:space="preserve" font-family="Helvetica-Light" font-size="36.0" fill="#000000" transform="matrix(1.00, 0.00, -0.00, -1.00, 809.1, 564.0)">e</text><text xml:space="preserve" font-family="Helvetica-Light" font-size="36.0" fill="#000000" transform="matrix(1.00, 0.00, -0.00, -1.00, 829.1, 564.0)">!</text><path d="M 651.3 575.5 C 653.1 576.0 655.5 576.4 656.5 573.9 C 657.6 571.4 656.3 568.9 653.7 568.1 C 651.1 567.3 651.4 569.0 645.3 567.1 C 643.1 566.5 641.5 571.1 643.8 571.8 C 649.3 573.4 648.1 574.5 651.3 575.5 C 651.3 575.5 651.3 575.5 651.3 575.5 Z M 296.6 461.3 C 293.4 460.4 291.8 461.2 291.0 463.7 C 290.1 466.3 291.5 468.0 294.4 468.8 C 297.2 469.7 297.5 468.2 302.1 469.7 C 304.7 470.4 305.6 465.6 303.6 465.0 C 298.6 463.5 299.7 462.3 296.6 461.3 C 296.6 461.3 296.6 461.3 296.6 461.3 Z M 643.7 571.8 C 645.7 572.4 647.2 567.7 644.8 566.9 C 642.2 566.2 636.5 565.4 635.1 564.9 C 633.6 564.3 629.9 562.2 628.7 561.9 C 627.4 561.5 620.9 561.0 618.4 559.9 C 615.9 558.7 615.1 558.7 613.3 558.1 C 611.5 557.6 608.5 557.0 606.8 556.6 C 605.0 556.2 603.8 554.5 601.5 554.2 C 599.2 553.8 598.1 553.0 596.5 552.5 C 594.1 551.8 592.8 556.5 595.1 557.2 C 597.4 557.9 598.8 558.6 600.7 559.1 C 602.6 559.6 604.4 559.6 606.1 560.6 C 607.7 561.6 611.4 562.1 613.6 562.5 C 615.9 562.8 618.2 563.7 619.9 564.4 C 623.2 565.8 631.6 567.4 632.7 568.1 C 633.8 568.9 637.6 569.6 639.0 570.0 C 640.3 570.4 640.9 570.9 643.7 571.8 C 643.7 571.8 643.7 571.8 643.7 571.8 Z M 547.9 538.0 C 545.6 537.3 543.8 541.9 546.5 542.7 C 549.2 543.5 554.2 544.5 555.6 545.0 C 557.0 545.6 562.9 547.6 564.2 548.0 C 565.5 548.4 570.2 549.1 572.7 550.2 C 575.2 551.4 578.0 551.4 579.7 552.1 C 581.8 553.1 583.1 553.2 584.9 553.6 C 586.6 554.0 589.0 555.7 590.5 555.8 C 592.1 555.8 592.8 556.5 594.8 557.1 C 596.8 557.7 598.2 553.0 596.3 552.5 C 594.4 551.9 592.7 551.5 590.8 551.0 C 588.9 550.6 586.6 549.9 584.5 549.3 C 582.6 548.8 580.0 547.4 577.8 547.0 C 575.5 546.7 572.3 545.9 571.1 545.5 C 569.5 545.1 566.1 544.0 564.6 543.8 C 562.7 543.6 559.6 542.1 558.6 541.4 C 557.5 540.6 556.5 540.9 554.0 540.1 C 552.5 539.6 550.2 538.7 547.9 538.0 C 547.9 538.0 547.9 538.0 547.9 538.0 Z M 547.2 537.8 C 544.6 537.0 540.1 536.4 539.1 536.0 C 538.1 535.7 534.7 534.3 533.0 533.9 C 531.3 533.5 530.6 533.7 527.8 533.0 C 524.3 532.1 522.2 531.0 522.0 530.8 C 521.6 530.5 520.0 529.6 517.7 529.0 C 514.5 528.3 513.7 527.5 512.2 527.3 C 509.7 527.2 509.6 526.6 507.7 526.1 C 505.9 525.7 504.8 525.1 503.3 525.0 C 501.6 524.8 500.6 523.8 499.1 523.4 C 496.8 522.7 495.6 527.5 497.8 528.1 C 499.1 528.5 500.5 528.4 501.8 528.8 C 503.2 529.2 504.4 529.7 505.8 530.3 C 507.1 530.9 510.0 531.4 512.2 532.2 C 514.5 533.0 518.1 534.4 520.8 535.1 C 523.4 535.8 525.3 535.1 530.5 537.5 C 532.1 538.2 535.6 539.0 537.0 539.4 C 539.4 540.2 544.0 541.9 546.0 542.5 C 548.5 543.3 549.8 538.6 547.2 537.8 C 547.2 537.8 547.2 537.8 547.2 537.8 Z M 450.4 508.8 C 448.1 508.2 446.3 512.7 449.0 513.5 C 451.7 514.3 456.7 515.4 458.1 515.9 C 459.5 516.4 465.4 518.5 466.7 518.9 C 468.0 519.2 472.7 519.9 475.2 521.1 C 477.7 522.3 480.5 522.2 482.2 523.0 C 484.4 523.9 485.6 524.0 487.4 524.4 C 489.1 524.9 491.5 526.6 493.0 526.6 C 494.6 526.7 495.3 527.4 497.3 528.0 C 499.3 528.6 500.7 523.9 498.8 523.3 C 496.9 522.8 495.2 522.3 493.3 521.9 C 491.4 521.4 489.1 520.8 487.0 520.2 C 485.1 519.6 482.5 518.2 480.3 517.9 C 478.0 517.5 474.8 516.7 473.6 516.4 C 472.0 516.0 468.7 514.8 467.1 514.7 C 465.2 514.4 462.1 513.0 461.1 512.2 C 460.0 511.5 459.0 511.8 456.5 510.9 C 455.0 510.4 452.7 509.5 450.4 508.8 C 450.4 508.8 450.4 508.8 450.4 508.8 Z M 449.7 508.6 C 447.1 507.9 442.6 507.2 441.6 506.9 C 440.6 506.6 437.2 505.2 435.5 504.8 C 433.8 504.4 433.1 504.6 430.3 503.9 C 426.8 503.0 424.7 501.8 424.5 501.7 C 424.1 501.4 422.6 500.4 420.2 499.9 C 417.0 499.1 416.2 498.4 414.7 498.2 C 412.2 498.0 412.1 497.4 410.3 497.0 C 408.4 496.5 407.3 496.0 405.8 495.8 C 404.1 495.6 403.1 494.7 401.6 494.3 C 399.3 493.6 398.1 498.3 400.3 499.0 C 401.6 499.4 403.0 499.2 404.4 499.7 C 405.7 500.1 406.9 500.5 408.3 501.1 C 409.6 501.8 412.5 502.3 414.7 503.1 C 417.0 503.9 420.6 505.2 423.3 505.9 C 425.9 506.6 427.8 506.0 433.0 508.3 C 434.6 509.1 438.1 509.9 439.5 510.3 C 441.9 511.0 446.5 512.8 448.6 513.4 C 451.0 514.1 452.3 509.4 449.7 508.6 C 449.7 508.6 449.7 508.6 449.7 508.6 Z M 352.9 479.7 C 350.7 479.0 348.8 483.6 351.5 484.4 C 354.2 485.2 359.2 486.2 360.6 486.7 C 362.0 487.3 367.9 489.3 369.2 489.7 C 370.5 490.1 375.2 490.8 377.7 491.9 C 380.2 493.1 383.0 493.1 384.7 493.9 C 386.9 494.8 388.1 494.9 389.9 495.3 C 391.6 495.7 394.0 497.4 395.5 497.5 C 397.1 497.5 397.8 498.2 399.8 498.8 C 401.8 499.4 403.2 494.8 401.3 494.2 C 399.4 493.6 397.7 493.2 395.8 492.7 C 393.9 492.3 391.6 491.7 389.5 491.0 C 387.6 490.5 385.0 489.1 382.8 488.7 C 380.5 488.4 377.4 487.6 376.1 487.2 C 374.5 486.8 371.2 485.7 369.6 485.5 C 367.7 485.3 364.6 483.8 363.6 483.1 C 362.5 482.3 361.5 482.7 359.0 481.8 C 357.5 481.3 355.2 480.4 352.9 479.7 C 352.9 479.7 352.9 479.7 352.9 479.7 Z M 351.2 484.3 C 353.2 484.9 354.7 480.2 352.3 479.5 C 349.8 478.8 344.0 478.0 342.6 477.4 C 341.2 476.9 337.4 474.8 336.2 474.4 C 334.9 474.1 328.4 473.6 325.9 472.4 C 323.4 471.3 322.6 471.2 320.8 470.7 C 319.0 470.2 316.0 469.6 314.3 469.2 C 312.5 468.8 311.4 467.1 309.0 466.7 C 306.7 466.4 305.6 465.6 304.1 465.1 C 301.6 464.4 300.3 469.1 302.6 469.8 C 304.9 470.4 306.3 471.2 308.2 471.7 C 310.2 472.1 311.9 472.1 313.6 473.2 C 315.2 474.2 318.9 474.7 321.1 475.0 C 323.4 475.4 325.7 476.2 327.4 477.0 C 330.7 478.4 339.2 479.9 340.2 480.7 C 341.3 481.4 345.1 482.2 346.5 482.6 C 347.8 483.0 348.4 483.5 351.2 484.3 C 351.2 484.3 351.2 484.3 351.2 484.3 Z M 292.8 468.3 C 292.8 468.3 292.8 468.2 292.9 467.8 C 293.0 467.7 293.0 467.6 293.1 467.5 C 293.1 467.3 293.1 467.2 293.2 467.0 C 293.3 466.8 293.3 466.6 293.4 466.3 C 293.4 466.2 293.5 466.0 293.5 465.9 C 293.6 465.8 293.6 465.6 293.7 465.5 C 293.7 465.3 293.8 465.1 293.8 465.0 C 293.8 464.8 293.9 464.7 293.9 464.5 C 294.0 464.4 294.0 464.2 294.1 464.1 C 294.1 463.9 294.2 463.8 294.2 463.7 C 294.2 463.5 294.3 463.4 294.3 463.3 C 294.4 463.1 294.4 463.0 294.4 462.9 C 294.5 462.6 294.6 462.4 294.6 462.2 C 294.7 462.0 294.7 461.8 294.8 461.6 C 294.8 461.5 294.9 461.3 294.9 461.2 C 295.0 461.0 295.0 460.9 295.0 460.9 C 295.0 460.9 295.0 461.0 295.0 461.1 C 294.9 461.2 294.9 461.4 294.8 461.6 C 294.8 461.8 294.7 461.9 294.7 462.1 C 294.6 462.2 294.6 462.3 294.6 462.3 C 294.6 462.3 294.6 462.4 294.5 462.5 C 294.5 462.6 294.4 462.8 294.4 463.0 C 294.4 463.1 294.3 463.2 294.3 463.4 C 294.2 463.5 294.2 463.6 294.2 463.8 C 294.1 463.9 294.1 464.0 294.0 464.2 C 294.0 464.3 293.9 464.5 293.9 464.6 C 293.9 464.8 293.8 464.9 293.8 465.1 C 293.7 465.2 293.7 465.4 293.6 465.5 C 293.6 465.6 293.6 465.8 293.5 465.9 C 293.5 466.0 293.5 466.1 293.4 466.2 C 293.4 466.5 293.3 466.6 293.3 466.8 C 293.2 466.9 293.2 467.0 293.2 467.0 C 293.2 467.0 293.1 467.3 293.0 467.6 C 292.9 468.0 292.8 468.3 292.8 468.3 C 292.8 468.3 292.8 468.3 292.8 468.3 C 292.8 468.3 292.8 468.3 292.8 468.3 Z M 295.0 460.9 C 295.0 460.9 295.0 461.0 295.0 461.1 C 294.9 461.2 294.9 461.3 294.9 461.4 C 294.8 461.5 294.8 461.6 294.8 461.8 C 294.7 461.9 294.7 462.1 294.6 462.3 C 294.5 462.5 294.5 462.7 294.4 462.9 C 294.4 463.1 294.3 463.2 294.3 463.3 C 294.3 463.4 294.2 463.6 294.2 463.7 C 294.1 463.8 294.1 464.0 294.1 464.1 C 294.0 464.3 294.0 464.4 293.9 464.6 C 293.9 464.7 293.8 464.9 293.8 465.0 C 293.7 465.2 293.7 465.3 293.7 465.5 C 293.6 465.6 293.6 465.7 293.5 465.9 C 293.5 466.0 293.5 466.1 293.4 466.3 C 293.3 466.5 293.3 466.7 293.2 466.9 C 293.2 467.1 293.1 467.3 293.1 467.4 C 293.0 467.6 293.0 467.7 292.9 467.8 C 292.9 468.0 292.9 468.0 292.9 468.1 C 292.8 468.3 292.8 468.4 292.8 468.4 C 292.8 468.4 292.8 468.3 292.9 468.1 C 292.9 468.0 292.9 467.8 293.0 467.7 C 293.1 467.3 293.2 467.0 293.2 467.0 C 293.2 467.0 293.2 466.9 293.3 466.8 C 293.3 466.7 293.3 466.5 293.4 466.3 C 293.4 466.2 293.5 466.0 293.5 465.9 C 293.6 465.8 293.6 465.7 293.6 465.5 C 293.7 465.4 293.7 465.2 293.8 465.1 C 293.8 464.9 293.9 464.8 293.9 464.7 C 293.9 464.5 294.0 464.4 294.0 464.2 C 294.1 464.1 294.1 463.9 294.2 463.8 C 294.2 463.7 294.2 463.5 294.3 463.4 C 294.3 463.3 294.3 463.1 294.4 463.0 C 294.4 462.8 294.5 462.6 294.5 462.5 C 294.6 462.4 294.6 462.3 294.6 462.3 C 294.6 462.3 294.6 462.2 294.7 462.1 C 294.7 461.9 294.8 461.8 294.8 461.6 C 294.9 461.4 294.9 461.2 295.0 461.1 C 295.0 461.0 295.0 460.9 295.0 460.9 C 295.0 460.9 295.0 460.9 295.0 460.9 C 295.0 460.9 295.0 460.9 295.0 460.9 Z M 295.0 460.9 " fill="#BD5A0C"></path><path d="M 280.1 459.6 C 279.0 461.9 279.4 462.0 280.2 462.6 C 280.9 463.3 281.0 463.3 282.1 463.7 C 283.2 464.0 282.7 464.8 283.2 465.4 C 283.8 465.9 284.7 467.8 285.6 468.0 C 286.5 468.3 286.7 469.9 287.6 470.3 C 288.5 470.7 288.8 471.5 289.3 472.3 C 289.7 473.2 290.8 473.6 291.0 474.4 C 291.2 475.2 292.0 477.1 292.8 477.6 C 293.6 478.0 295.5 477.2 295.4 475.9 C 295.3 474.6 295.2 474.2 295.8 473.4 C 296.4 472.6 296.3 472.1 296.7 470.9 C 297.1 469.8 297.7 468.5 297.8 468.0 C 298.0 467.5 299.1 467.4 299.1 465.4 C 299.1 463.5 299.2 464.1 299.4 462.3 C 299.8 460.4 299.4 460.2 299.9 459.3 C 300.4 458.4 300.2 457.3 301.1 456.1 C 301.9 454.9 302.1 453.4 301.3 452.8 C 300.5 452.3 299.3 452.7 298.0 453.6 C 296.6 454.4 295.5 455.2 294.1 455.5 C 292.6 455.7 291.3 455.8 290.2 456.4 C 289.1 457.1 285.0 458.4 284.1 458.7 C 283.2 459.0 280.9 458.3 280.1 459.6 Z M 280.1 459.6 " fill="#BD5A0C"></path><text xml:space="preserve" font-family="Helvetica-Bold" font-weight="bold" font-size="36.0" fill="#000000" transform="matrix(1.00, 0.00, -0.00, -1.00, 334.0, 699.0)">R</text><text xml:space="preserve" font-family="Helvetica-Bold" font-weight="bold" font-size="36.0" fill="#000000" transform="matrix(1.00, 0.00, -0.00, -1.00, 360.0, 699.0)">e</text><text xml:space="preserve" font-family="Helvetica-Bold" font-weight="bold" font-size="36.0" fill="#000000" transform="matrix(1.00, 0.00, -0.00, -1.00, 380.0, 699.0)">p</text><text xml:space="preserve" font-family="Helvetica-Bold" font-weight="bold" font-size="36.0" fill="#000000" transform="matrix(1.00, 0.00, -0.00, -1.00, 402.0, 699.0)">l</text><text xml:space="preserve" font-family="Helvetica-Bold" font-weight="bold" font-size="36.0" fill="#000000" transform="matrix(1.00, 0.00, -0.00, -1.00, 412.0, 699.0)">i</text><text xml:space="preserve" font-family="Helvetica-Bold" font-weight="bold" font-size="36.0" fill="#000000" transform="matrix(1.00, 0.00, -0.00, -1.00, 422.0, 699.0)">c</text><text xml:space="preserve" font-family="Helvetica-Bold" font-weight="bold" font-size="36.0" fill="#000000" transform="matrix(1.00, 0.00, -0.00, -1.00, 442.0, 699.0)">a</text><text xml:space="preserve" font-family="Helvetica-Bold" font-weight="bold" font-size="36.0" fill="#000000" transform="matrix(1.00, 0.00, -0.00, -1.00, 462.1, 699.0)">t</text><text xml:space="preserve" font-family="Helvetica-Bold" font-weight="bold" font-size="36.0" fill="#000000" transform="matrix(1.00, 0.00, -0.00, -1.00, 474.1, 699.0)">i</text><text xml:space="preserve" font-family="Helvetica-Bold" font-weight="bold" font-size="36.0" fill="#000000" transform="matrix(1.00, 0.00, -0.00, -1.00, 484.0, 699.0)">n</text><text xml:space="preserve" font-family="Helvetica-Bold" font-weight="bold" font-size="36.0" fill="#000000" transform="matrix(1.00, 0.00, -0.00, -1.00, 506.0, 699.0)">g</text><text xml:space="preserve" font-family="Helvetica-Bold" font-weight="bold" font-size="36.0" fill="#000000" transform="matrix(1.00, 0.00, -0.00, -1.00, 528.0, 699.0)"> </text><text xml:space="preserve" font-family="Helvetica-Bold" font-weight="bold" font-size="36.0" fill="#000000" transform="matrix(1.00, 0.00, -0.00, -1.00, 538.0, 699.0)">C</text><text xml:space="preserve" font-family="Helvetica-Bold" font-weight="bold" font-size="36.0" fill="#000000" transform="matrix(1.00, 0.00, -0.00, -1.00, 564.0, 699.0)">h</text><text xml:space="preserve" font-family="Helvetica-Bold" font-weight="bold" font-size="36.0" fill="#000000" transform="matrix(1.00, 0.00, -0.00, -1.00, 586.0, 699.0)">a</text><text xml:space="preserve" font-family="Helvetica-Bold" font-weight="bold" font-size="36.0" fill="#000000" transform="matrix(1.00, 0.00, -0.00, -1.00, 606.0, 699.0)">n</text><text xml:space="preserve" font-family="Helvetica-Bold" font-weight="bold" font-size="36.0" fill="#000000" transform="matrix(1.00, 0.00, -0.00, -1.00, 628.0, 699.0)">g</text><text xml:space="preserve" font-family="Helvetica-Bold" font-weight="bold" font-size="36.0" fill="#000000" transform="matrix(1.00, 0.00, -0.00, -1.00, 650.0, 699.0)">e</text><text xml:space="preserve" font-family="Helvetica-Bold" font-weight="bold" font-size="36.0" fill="#000000" transform="matrix(1.00, 0.00, -0.00, -1.00, 670.0, 699.0)">s</text><text xml:space="preserve" font-family="Helvetica-Light" font-size="36.0" fill="#000000" transform="matrix(1.00, 0.00, -0.00, -1.00, 317.0, 647.0)">(</text><text xml:space="preserve" font-family="Helvetica-Light" font-size="36.0" fill="#000000" transform="matrix(1.00, 0.00, -0.00, -1.00, 329.0, 647.0)">B</text><text xml:space="preserve" font-family="Helvetica-Light" font-size="36.0" fill="#000000" transform="matrix(1.00, 0.00, -0.00, -1.00, 353.0, 647.0)">i</text><text xml:space="preserve" font-family="Helvetica-Light" font-size="36.0" fill="#000000" transform="matrix(1.00, 0.00, -0.00, -1.00, 361.0, 647.0)">t</text><text xml:space="preserve" font-family="Helvetica-Light" font-size="36.0" fill="#000000" transform="matrix(1.00, 0.00, -0.00, -1.00, 371.0, 647.0)"> </text><text xml:space="preserve" font-family="Helvetica-Light" font-size="36.0" fill="#000000" transform="matrix(1.00, 0.00, -0.00, -1.00, 381.0, 647.0)">t</text><text xml:space="preserve" font-family="Helvetica-Light" font-size="36.0" fill="#000000" transform="matrix(1.00, 0.00, -0.00, -1.00, 391.0, 647.0)">o</text><text xml:space="preserve" font-family="Helvetica-Light" font-size="36.0" fill="#000000" transform="matrix(1.00, 0.00, -0.00, -1.00, 411.0, 647.0)">r</text><text xml:space="preserve" font-family="Helvetica-Light" font-size="36.0" fill="#000000" transform="matrix(1.00, 0.00, -0.00, -1.00, 423.0, 647.0)">r</text><text xml:space="preserve" font-family="Helvetica-Light" font-size="36.0" fill="#000000" transform="matrix(1.00, 0.00, -0.00, -1.00, 434.4, 647.0)">e</text><text xml:space="preserve" font-family="Helvetica-Light" font-size="36.0" fill="#000000" transform="matrix(1.00, 0.00, -0.00, -1.00, 454.4, 647.0)">n</text><text xml:space="preserve" font-family="Helvetica-Light" font-size="36.0" fill="#000000" transform="matrix(1.00, 0.00, -0.00, -1.00, 474.4, 647.0)">t</text><text xml:space="preserve" font-family="Helvetica-Light" font-size="36.0" fill="#000000" transform="matrix(1.00, 0.00, -0.00, -1.00, 484.4, 647.0)"> </text><text xml:space="preserve" font-family="Helvetica-Light" font-size="36.0" fill="#000000" transform="matrix(1.00, 0.00, -0.00, -1.00, 494.4, 647.0)">c</text><text xml:space="preserve" font-family="Helvetica-Light" font-size="36.0" fill="#000000" transform="matrix(1.00, 0.00, -0.00, -1.00, 514.4, 647.0)">a</text><text xml:space="preserve" font-family="Helvetica-Light" font-size="36.0" fill="#000000" transform="matrix(1.00, 0.00, -0.00, -1.00, 534.4, 647.0)">n</text><text xml:space="preserve" font-family="Helvetica-Light" font-size="36.0" fill="#000000" transform="matrix(1.00, 0.00, -0.00, -1.00, 554.5, 647.0)"></text><text xml:space="preserve" font-family="Helvetica-Light" font-size="36.0" fill="#000000" transform="matrix(1.00, 0.00, -0.00, -1.00, 561.8, 647.0)">t</text><text xml:space="preserve" font-family="Helvetica-Light" font-size="36.0" fill="#000000" transform="matrix(1.00, 0.00, -0.00, -1.00, 571.8, 647.0)"> </text><text xml:space="preserve" font-family="Helvetica-Light" font-size="36.0" fill="#000000" transform="matrix(1.00, 0.00, -0.00, -1.00, 581.8, 647.0)">d</text><text xml:space="preserve" font-family="Helvetica-Light" font-size="36.0" fill="#000000" transform="matrix(1.00, 0.00, -0.00, -1.00, 603.8, 647.0)">o</text><text xml:space="preserve" font-family="Helvetica-Light" font-size="36.0" fill="#000000" transform="matrix(1.00, 0.00, -0.00, -1.00, 623.8, 647.0)"> </text><text xml:space="preserve" font-family="Helvetica-Light" font-size="36.0" fill="#000000" transform="matrix(1.00, 0.00, -0.00, -1.00, 633.8, 647.0)">t</text><text xml:space="preserve" font-family="Helvetica-Light" font-size="36.0" fill="#000000" transform="matrix(1.00, 0.00, -0.00, -1.00, 643.8, 647.0)">h</text><text xml:space="preserve" font-family="Helvetica-Light" font-size="36.0" fill="#000000" transform="matrix(1.00, 0.00, -0.00, -1.00, 663.9, 647.0)">i</text><text xml:space="preserve" font-family="Helvetica-Light" font-size="36.0" fill="#000000" transform="matrix(1.00, 0.00, -0.00, -1.00, 671.9, 647.0)">s</text><text xml:space="preserve" font-family="Helvetica-Light" font-size="36.0" fill="#000000" transform="matrix(1.00, 0.00, -0.00, -1.00, 689.9, 647.0)">.</text><text xml:space="preserve" font-family="Helvetica-Light" font-size="36.0" fill="#000000" transform="matrix(1.00, 0.00, -0.00, -1.00, 699.9, 647.0)">)</text></g></svg>