<?xml version="1.0" encoding="UTF-8" standalone="no"?><svg xmlns="http://www.w3.org/2000/svg" xmlns:xlink="http://www.w3.org/1999/xlink" clip-rule="evenodd" stroke-miterlimit="4.00" viewBox="0 0 1024 768"><desc>SVG generated by Keynote</desc><defs></defs><g transform="matrix(1.00, 0.00, -0.00, -1.00, 0.0, 768.0)"><path d="M 0.0 768.0 L 1024.0 768.0 L 1024.0 0.0 L 0.0 0.0 Z M 0.0 768.0 " fill="#FEFFFF"></path><image xlink:href="../../520DCE23-8738-41B8-8C88-1E40DCCD5D31/assets/5CFD9EE5E8C93CD56FFE2938363E0194.png" width="125.00" height="76.00" transform="matrix(1.00, 0.00, -0.00, -1.00, 107.9, 548.4)" opacity="0.50"></image><g><clipPath id="clip-1356"><path d="M 110.9 547.4 L 230.3 547.4 L 230.3 477.3 L 110.9 477.3 Z M 110.9 547.4 "></path></clipPath><g clip-path="url(#clip-1356)"><image xlink:href="../../5D17066C-F2D4-43E1-B102-79E70149F52B/assets/C64658A6708B486A1AF0D79460CDFD00.jpeg" width="327.00" height="327.00" transform="matrix(0.92, 0.00, -0.00, -0.92, 110.9, 547.4)"></image><path d="M 110.9 547.4 L 230.3 547.4 L 230.3 477.3 L 110.9 477.3 Z M 110.9 547.4 " fill="#178996"></path></g></g><g><clipPath id="clip-1357"><path d="M 108.9 477.3 L 232.3 477.3 L 232.3 547.4 L 108.9 547.4 Z M 108.9 477.3 "></path></clipPath><g clip-path="url(#clip-1357)"><text xml:space="preserve" font-family="Helvetica-Light" font-size="24.0" fill="#FEFFFE" transform="matrix(1.00, 0.00, -0.00, -1.00, 144.0, 503.0)">t</text><text xml:space="preserve" font-family="Helvetica-Light" font-size="24.0" fill="#FEFFFE" transform="matrix(1.00, 0.00, -0.00, -1.00, 150.7, 503.0)">a</text><text xml:space="preserve" font-family="Helvetica-Light" font-size="24.0" fill="#FEFFFE" transform="matrix(1.00, 0.00, -0.00, -1.00, 164.0, 503.0)">b</text><text xml:space="preserve" font-family="Helvetica-Light" font-size="24.0" fill="#FEFFFE" transform="matrix(1.00, 0.00, -0.00, -1.00, 178.7, 503.0)">l</text><text xml:space="preserve" font-family="Helvetica-Light" font-size="24.0" fill="#FEFFFE" transform="matrix(1.00, 0.00, -0.00, -1.00, 184.0, 503.0)">e</text></g></g><image xlink:href="../../F2F9526D-AD39-42AC-B60A-237E5C105763/assets/5F56E1511AB1945DF0F0C0CE28A6563B.png" width="157.00" height="43.00" transform="matrix(1.00, 0.00, -0.00, -1.00, 369.8, 530.1)" opacity="0.50"></image><path d="M 372.8 529.1 L 523.4 529.1 L 523.4 492.1 L 372.8 492.1 Z M 372.8 529.1 " fill="#164E86"></path><g><clipPath id="clip-1358"><path d="M 370.8 490.1 L 525.4 490.1 L 525.4 531.1 L 370.8 531.1 Z M 370.8 490.1 "></path></clipPath><g clip-path="url(#clip-1358)"><text xml:space="preserve" font-family="Helvetica-Light" font-size="24.0" fill="#FEFFFE" transform="matrix(1.00, 0.00, -0.00, -1.00, 391.0, 502.0)">n</text><text xml:space="preserve" font-family="Helvetica-Light" font-size="24.0" fill="#FEFFFE" transform="matrix(1.00, 0.00, -0.00, -1.00, 404.3, 502.0)">a</text><text xml:space="preserve" font-family="Helvetica-Light" font-size="24.0" fill="#FEFFFE" transform="matrix(1.00, 0.00, -0.00, -1.00, 417.7, 502.0)">m</text><text xml:space="preserve" font-family="Helvetica-Light" font-size="24.0" fill="#FEFFFE" transform="matrix(1.00, 0.00, -0.00, -1.00, 437.7, 502.0)">e</text><text xml:space="preserve" font-family="Helvetica-Light" font-size="24.0" fill="#FEFFFE" transform="matrix(1.00, 0.00, -0.00, -1.00, 451.0, 502.0)">,</text><text xml:space="preserve" font-family="Helvetica-Light" font-size="24.0" fill="#FEFFFE" transform="matrix(1.00, 0.00, -0.00, -1.00, 457.7, 502.0)"> </text><text xml:space="preserve" font-family="Helvetica-Light" font-size="24.0" fill="#FEFFFE" transform="matrix(1.00, 0.00, -0.00, -1.00, 464.4, 502.0)">a</text><text xml:space="preserve" font-family="Helvetica-Light" font-size="24.0" fill="#FEFFFE" transform="matrix(1.00, 0.00, -0.00, -1.00, 477.7, 502.0)">g</text><text xml:space="preserve" font-family="Helvetica-Light" font-size="24.0" fill="#FEFFFE" transform="matrix(1.00, 0.00, -0.00, -1.00, 492.4, 502.0)">e</text></g></g><path d="M 0.0 0.0 L 131.1 0.0 L 132.1 0.0 " fill="none" stroke="#85878C" stroke-width="2.00" transform="matrix(1.00, 0.00, 0.00, -1.00, 231.2, 511.4)"></path><path d="M 362.3 506.6 L 371.9 511.4 L 362.3 516.2 Z M 362.3 506.6 " fill="#85878C"></path><path d="M 250.8 531.9 L 345.2 531.9 L 345.2 494.9 L 250.8 494.9 Z M 250.8 531.9 " fill="#FEFFFF"></path><g><clipPath id="clip-1359"><path d="M 248.8 492.9 L 347.2 492.9 L 347.2 533.9 L 248.8 533.9 Z M 248.8 492.9 "></path></clipPath><g clip-path="url(#clip-1359)"><text xml:space="preserve" font-family="Helvetica-Light" font-size="24.0" fill="#52575F" transform="matrix(1.00, 0.00, -0.00, -1.00, 255.0, 504.0)">s</text><text xml:space="preserve" font-family="Helvetica-Light" font-size="24.0" fill="#52575F" transform="matrix(1.00, 0.00, -0.00, -1.00, 267.0, 504.0)">c</text><text xml:space="preserve" font-family="Helvetica-Light" font-size="24.0" fill="#52575F" transform="matrix(1.00, 0.00, -0.00, -1.00, 280.3, 504.0)">h</text><text xml:space="preserve" font-family="Helvetica-Light" font-size="24.0" fill="#52575F" transform="matrix(1.00, 0.00, -0.00, -1.00, 293.7, 504.0)">e</text><text xml:space="preserve" font-family="Helvetica-Light" font-size="24.0" fill="#52575F" transform="matrix(1.00, 0.00, -0.00, -1.00, 307.0, 504.0)">m</text><text xml:space="preserve" font-family="Helvetica-Light" font-size="24.0" fill="#52575F" transform="matrix(1.00, 0.00, -0.00, -1.00, 327.0, 504.0)">a</text></g></g><image xlink:href="../../520DCE23-8738-41B8-8C88-1E40DCCD5D31/assets/5CFD9EE5E8C93CD56FFE2938363E0194.png" width="125.00" height="76.00" transform="matrix(1.00, 0.00, -0.00, -1.00, 109.0, 378.7)" opacity="0.50"></image><g><clipPath id="clip-1360"><path d="M 112.0 377.7 L 231.3 377.7 L 231.3 307.6 L 112.0 307.6 Z M 112.0 377.7 "></path></clipPath><g clip-path="url(#clip-1360)"><image xlink:href="../../5D17066C-F2D4-43E1-B102-79E70149F52B/assets/C64658A6708B486A1AF0D79460CDFD00.jpeg" width="327.00" height="327.00" transform="matrix(0.92, 0.00, -0.00, -0.92, 112.0, 377.7)"></image><path d="M 112.0 377.7 L 231.3 377.7 L 231.3 307.6 L 112.0 307.6 Z M 112.0 377.7 " fill="#178996"></path></g></g><g><clipPath id="clip-1361"><path d="M 110.0 307.6 L 233.3 307.6 L 233.3 377.7 L 110.0 377.7 Z M 110.0 307.6 "></path></clipPath><g clip-path="url(#clip-1361)"><text xml:space="preserve" font-family="Helvetica-Light" font-size="24.0" fill="#FEFFFE" transform="matrix(1.00, 0.00, -0.00, -1.00, 145.0, 333.0)">t</text><text xml:space="preserve" font-family="Helvetica-Light" font-size="24.0" fill="#FEFFFE" transform="matrix(1.00, 0.00, -0.00, -1.00, 151.7, 333.0)">a</text><text xml:space="preserve" font-family="Helvetica-Light" font-size="24.0" fill="#FEFFFE" transform="matrix(1.00, 0.00, -0.00, -1.00, 165.0, 333.0)">b</text><text xml:space="preserve" font-family="Helvetica-Light" font-size="24.0" fill="#FEFFFE" transform="matrix(1.00, 0.00, -0.00, -1.00, 179.7, 333.0)">l</text><text xml:space="preserve" font-family="Helvetica-Light" font-size="24.0" fill="#FEFFFE" transform="matrix(1.00, 0.00, -0.00, -1.00, 185.0, 333.0)">e</text></g></g><image xlink:href="../../F2F9526D-AD39-42AC-B60A-237E5C105763/assets/5F56E1511AB1945DF0F0C0CE28A6563B.png" width="157.00" height="43.00" transform="matrix(1.00, 0.00, -0.00, -1.00, 368.4, 362.6)" opacity="0.50"></image><path d="M 371.4 361.6 L 522.0 361.6 L 522.0 324.6 L 371.4 324.6 Z M 371.4 361.6 " fill="#3B1E4D"></path><g><clipPath id="clip-1362"><path d="M 369.4 322.6 L 524.0 322.6 L 524.0 363.6 L 369.4 363.6 Z M 369.4 322.6 "></path></clipPath><g clip-path="url(#clip-1362)"><text xml:space="preserve" font-family="Helvetica-Light" font-size="24.0" fill="#FEFFFE" transform="matrix(1.00, 0.00, -0.00, -1.00, 415.0, 334.0)">J</text><text xml:space="preserve" font-family="Helvetica-Light" font-size="24.0" fill="#FEFFFE" transform="matrix(1.00, 0.00, -0.00, -1.00, 427.0, 334.0)">S</text><text xml:space="preserve" font-family="Helvetica-Light" font-size="24.0" fill="#FEFFFE" transform="matrix(1.00, 0.00, -0.00, -1.00, 441.7, 334.0)">O</text><text xml:space="preserve" font-family="Helvetica-Light" font-size="24.0" fill="#FEFFFE" transform="matrix(1.00, 0.00, -0.00, -1.00, 460.3, 334.0)">N</text></g></g><path d="M 0.0 0.0 L 131.1 0.0 L 132.1 0.0 " fill="none" stroke="#85878C" stroke-width="2.00" transform="matrix(1.00, 0.00, 0.00, -1.00, 229.7, 340.5)"></path><path d="M 360.8 335.7 L 370.4 340.5 L 360.8 345.3 Z M 360.8 335.7 " fill="#85878C"></path><path d="M 249.3 361.0 L 343.6 361.0 L 343.6 324.0 L 249.3 324.0 Z M 249.3 361.0 " fill="#FEFFFF"></path><g><clipPath id="clip-1363"><path d="M 247.3 322.0 L 345.6 322.0 L 345.6 363.0 L 247.3 363.0 Z M 247.3 322.0 "></path></clipPath><g clip-path="url(#clip-1363)"><text xml:space="preserve" font-family="Helvetica-Light" font-size="24.0" fill="#52575F" transform="matrix(1.00, 0.00, -0.00, -1.00, 254.0, 334.0)">s</text><text xml:space="preserve" font-family="Helvetica-Light" font-size="24.0" fill="#52575F" transform="matrix(1.00, 0.00, -0.00, -1.00, 266.0, 334.0)">c</text><text xml:space="preserve" font-family="Helvetica-Light" font-size="24.0" fill="#52575F" transform="matrix(1.00, 0.00, -0.00, -1.00, 279.3, 334.0)">h</text><text xml:space="preserve" font-family="Helvetica-Light" font-size="24.0" fill="#52575F" transform="matrix(1.00, 0.00, -0.00, -1.00, 292.7, 334.0)">e</text><text xml:space="preserve" font-family="Helvetica-Light" font-size="24.0" fill="#52575F" transform="matrix(1.00, 0.00, -0.00, -1.00, 306.0, 334.0)">m</text><text xml:space="preserve" font-family="Helvetica-Light" font-size="24.0" fill="#52575F" transform="matrix(1.00, 0.00, -0.00, -1.00, 326.0, 334.0)">a</text></g></g><text xml:space="preserve" font-family="Helvetica-Bold" font-weight="bold" font-size="36.0" fill="#000000" transform="matrix(1.00, 0.00, -0.00, -1.00, 206.0, 689.0)">S</text><text xml:space="preserve" font-family="Helvetica-Bold" font-weight="bold" font-size="36.0" fill="#000000" transform="matrix(1.00, 0.00, -0.00, -1.00, 230.0, 689.0)">c</text><text xml:space="preserve" font-family="Helvetica-Bold" font-weight="bold" font-size="36.0" fill="#000000" transform="matrix(1.00, 0.00, -0.00, -1.00, 250.0, 689.0)">h</text><text xml:space="preserve" font-family="Helvetica-Bold" font-weight="bold" font-size="36.0" fill="#000000" transform="matrix(1.00, 0.00, -0.00, -1.00, 272.0, 689.0)">e</text><text xml:space="preserve" font-family="Helvetica-Bold" font-weight="bold" font-size="36.0" fill="#000000" transform="matrix(1.00, 0.00, -0.00, -1.00, 292.1, 689.0)">m</text><text xml:space="preserve" font-family="Helvetica-Bold" font-weight="bold" font-size="36.0" fill="#000000" transform="matrix(1.00, 0.00, -0.00, -1.00, 324.1, 689.0)">a</text><text xml:space="preserve" font-family="Helvetica-Bold" font-weight="bold" font-size="36.0" fill="#000000" transform="matrix(1.00, 0.00, -0.00, -1.00, 344.1, 689.0)"> </text><text xml:space="preserve" font-family="Helvetica-Bold" font-weight="bold" font-size="36.0" fill="#000000" transform="matrix(1.00, 0.00, -0.00, -1.00, 354.1, 689.0)">c</text><text xml:space="preserve" font-family="Helvetica-Bold" font-weight="bold" font-size="36.0" fill="#000000" transform="matrix(1.00, 0.00, -0.00, -1.00, 374.1, 689.0)">a</text><text xml:space="preserve" font-family="Helvetica-Bold" font-weight="bold" font-size="36.0" fill="#000000" transform="matrix(1.00, 0.00, -0.00, -1.00, 394.1, 689.0)">n</text><text xml:space="preserve" font-family="Helvetica-Bold" font-weight="bold" font-size="36.0" fill="#000000" transform="matrix(1.00, 0.00, -0.00, -1.00, 416.1, 689.0)"> </text><text xml:space="preserve" font-family="Helvetica-Bold" font-weight="bold" font-size="36.0" fill="#000000" transform="matrix(1.00, 0.00, -0.00, -1.00, 426.1, 689.0)">(</text><text xml:space="preserve" font-family="Helvetica-Bold" font-weight="bold" font-size="36.0" fill="#000000" transform="matrix(1.00, 0.00, -0.00, -1.00, 438.1, 689.0)">i</text><text xml:space="preserve" font-family="Helvetica-Bold" font-weight="bold" font-size="36.0" fill="#000000" transform="matrix(1.00, 0.00, -0.00, -1.00, 448.1, 689.0)">n</text><text xml:space="preserve" font-family="Helvetica-Bold" font-weight="bold" font-size="36.0" fill="#000000" transform="matrix(1.00, 0.00, -0.00, -1.00, 470.1, 689.0)"> </text><text xml:space="preserve" font-family="Helvetica-Bold" font-weight="bold" font-size="36.0" fill="#000000" transform="matrix(1.00, 0.00, -0.00, -1.00, 480.1, 689.0)">t</text><text xml:space="preserve" font-family="Helvetica-Bold" font-weight="bold" font-size="36.0" fill="#000000" transform="matrix(1.00, 0.00, -0.00, -1.00, 492.1, 689.0)">h</text><text xml:space="preserve" font-family="Helvetica-Bold" font-weight="bold" font-size="36.0" fill="#000000" transform="matrix(1.00, 0.00, -0.00, -1.00, 514.1, 689.0)">e</text><text xml:space="preserve" font-family="Helvetica-Bold" font-weight="bold" font-size="36.0" fill="#000000" transform="matrix(1.00, 0.00, -0.00, -1.00, 534.1, 689.0)">o</text><text xml:space="preserve" font-family="Helvetica-Bold" font-weight="bold" font-size="36.0" fill="#000000" transform="matrix(1.00, 0.00, -0.00, -1.00, 556.1, 689.0)">r</text><text xml:space="preserve" font-family="Helvetica-Bold" font-weight="bold" font-size="36.0" fill="#000000" transform="matrix(1.00, 0.00, -0.00, -1.00, 570.1, 689.0)">y</text><text xml:space="preserve" font-family="Helvetica-Bold" font-weight="bold" font-size="36.0" fill="#000000" transform="matrix(1.00, 0.00, -0.00, -1.00, 590.1, 689.0)">)</text><text xml:space="preserve" font-family="Helvetica-Bold" font-weight="bold" font-size="36.0" fill="#000000" transform="matrix(1.00, 0.00, -0.00, -1.00, 602.1, 689.0)"> </text><text xml:space="preserve" font-family="Helvetica-Bold" font-weight="bold" font-size="36.0" fill="#000000" transform="matrix(1.00, 0.00, -0.00, -1.00, 612.1, 689.0)">b</text><text xml:space="preserve" font-family="Helvetica-Bold" font-weight="bold" font-size="36.0" fill="#000000" transform="matrix(1.00, 0.00, -0.00, -1.00, 634.1, 689.0)">e</text><text xml:space="preserve" font-family="Helvetica-Bold" font-weight="bold" font-size="36.0" fill="#000000" transform="matrix(1.00, 0.00, -0.00, -1.00, 654.1, 689.0)"> </text><text xml:space="preserve" font-family="Helvetica-Bold" font-weight="bold" font-size="36.0" fill="#000000" transform="matrix(1.00, 0.00, -0.00, -1.00, 662.8, 689.0)">A</text><text xml:space="preserve" font-family="Helvetica-Bold" font-weight="bold" font-size="36.0" fill="#000000" transform="matrix(1.00, 0.00, -0.00, -1.00, 688.8, 689.0)">n</text><text xml:space="preserve" font-family="Helvetica-Bold" font-weight="bold" font-size="36.0" fill="#000000" transform="matrix(1.00, 0.00, -0.00, -1.00, 710.8, 689.0)">y</text><text xml:space="preserve" font-family="Helvetica-Bold" font-weight="bold" font-size="36.0" fill="#000000" transform="matrix(1.00, 0.00, -0.00, -1.00, 730.8, 689.0)">t</text><text xml:space="preserve" font-family="Helvetica-Bold" font-weight="bold" font-size="36.0" fill="#000000" transform="matrix(1.00, 0.00, -0.00, -1.00, 742.8, 689.0)">h</text><text xml:space="preserve" font-family="Helvetica-Bold" font-weight="bold" font-size="36.0" fill="#000000" transform="matrix(1.00, 0.00, -0.00, -1.00, 764.8, 689.0)">i</text><text xml:space="preserve" font-family="Helvetica-Bold" font-weight="bold" font-size="36.0" fill="#000000" transform="matrix(1.00, 0.00, -0.00, -1.00, 774.8, 689.0)">n</text><text xml:space="preserve" font-family="Helvetica-Bold" font-weight="bold" font-size="36.0" fill="#000000" transform="matrix(1.00, 0.00, -0.00, -1.00, 796.8, 689.0)">g</text><text xml:space="preserve" font-family="Helvetica-Light" font-size="36.0" fill="#000000" transform="matrix(1.00, 0.00, -0.00, -1.00, 167.0, 641.0)">I</text><text xml:space="preserve" font-family="Helvetica-Light" font-size="36.0" fill="#000000" transform="matrix(1.00, 0.00, -0.00, -1.00, 177.0, 641.0)">t</text><text xml:space="preserve" font-family="Helvetica-Light" font-size="36.0" fill="#000000" transform="matrix(1.00, 0.00, -0.00, -1.00, 187.0, 641.0)">’</text><text xml:space="preserve" font-family="Helvetica-Light" font-size="36.0" fill="#000000" transform="matrix(1.00, 0.00, -0.00, -1.00, 192.3, 641.0)">s</text><text xml:space="preserve" font-family="Helvetica-Light" font-size="36.0" fill="#000000" transform="matrix(1.00, 0.00, -0.00, -1.00, 210.3, 641.0)"> </text><text xml:space="preserve" font-family="Helvetica-Light" font-size="36.0" fill="#000000" transform="matrix(1.00, 0.00, -0.00, -1.00, 220.4, 641.0)">u</text><text xml:space="preserve" font-family="Helvetica-Light" font-size="36.0" fill="#000000" transform="matrix(1.00, 0.00, -0.00, -1.00, 240.4, 641.0)">p</text><text xml:space="preserve" font-family="Helvetica-Light" font-size="36.0" fill="#000000" transform="matrix(1.00, 0.00, -0.00, -1.00, 262.4, 641.0)"> </text><text xml:space="preserve" font-family="Helvetica-Light" font-size="36.0" fill="#000000" transform="matrix(1.00, 0.00, -0.00, -1.00, 272.4, 641.0)">t</text><text xml:space="preserve" font-family="Helvetica-Light" font-size="36.0" fill="#000000" transform="matrix(1.00, 0.00, -0.00, -1.00, 282.4, 641.0)">o</text><text xml:space="preserve" font-family="Helvetica-Light" font-size="36.0" fill="#000000" transform="matrix(1.00, 0.00, -0.00, -1.00, 302.4, 641.0)"> </text><text xml:space="preserve" font-family="Helvetica-Light" font-size="36.0" fill="#000000" transform="matrix(1.00, 0.00, -0.00, -1.00, 312.4, 641.0)">y</text><text xml:space="preserve" font-family="Helvetica-Light" font-size="36.0" fill="#000000" transform="matrix(1.00, 0.00, -0.00, -1.00, 330.4, 641.0)">o</text><text xml:space="preserve" font-family="Helvetica-Light" font-size="36.0" fill="#000000" transform="matrix(1.00, 0.00, -0.00, -1.00, 350.4, 641.0)">u</text><text xml:space="preserve" font-family="Helvetica-Light" font-size="36.0" fill="#000000" transform="matrix(1.00, 0.00, -0.00, -1.00, 370.4, 641.0)"> </text><text xml:space="preserve" font-family="Helvetica-Light" font-size="36.0" fill="#000000" transform="matrix(1.00, 0.00, -0.00, -1.00, 380.4, 641.0)">t</text><text xml:space="preserve" font-family="Helvetica-Light" font-size="36.0" fill="#000000" transform="matrix(1.00, 0.00, -0.00, -1.00, 390.5, 641.0)">o</text><text xml:space="preserve" font-family="Helvetica-Light" font-size="36.0" fill="#000000" transform="matrix(1.00, 0.00, -0.00, -1.00, 410.5, 641.0)"> </text><text xml:space="preserve" font-family="Helvetica-Light" font-size="36.0" fill="#000000" transform="matrix(1.00, 0.00, -0.00, -1.00, 420.5, 641.0)">d</text><text xml:space="preserve" font-family="Helvetica-Light" font-size="36.0" fill="#000000" transform="matrix(1.00, 0.00, -0.00, -1.00, 442.5, 641.0)">e</text><text xml:space="preserve" font-family="Helvetica-Light" font-size="36.0" fill="#000000" transform="matrix(1.00, 0.00, -0.00, -1.00, 462.5, 641.0)">c</text><text xml:space="preserve" font-family="Helvetica-Light" font-size="36.0" fill="#000000" transform="matrix(1.00, 0.00, -0.00, -1.00, 482.5, 641.0)">l</text><text xml:space="preserve" font-family="Helvetica-Light" font-size="36.0" fill="#000000" transform="matrix(1.00, 0.00, -0.00, -1.00, 490.5, 641.0)">a</text><text xml:space="preserve" font-family="Helvetica-Light" font-size="36.0" fill="#000000" transform="matrix(1.00, 0.00, -0.00, -1.00, 510.5, 641.0)">r</text><text xml:space="preserve" font-family="Helvetica-Light" font-size="36.0" fill="#000000" transform="matrix(1.00, 0.00, -0.00, -1.00, 521.9, 641.0)">e</text><text xml:space="preserve" font-family="Helvetica-Light" font-size="36.0" fill="#000000" transform="matrix(1.00, 0.00, -0.00, -1.00, 541.9, 641.0)"> </text><text xml:space="preserve" font-family="Helvetica-Light" font-size="36.0" fill="#000000" transform="matrix(1.00, 0.00, -0.00, -1.00, 551.9, 641.0)">w</text><text xml:space="preserve" font-family="Helvetica-Light" font-size="36.0" fill="#000000" transform="matrix(1.00, 0.00, -0.00, -1.00, 577.9, 641.0)">h</text><text xml:space="preserve" font-family="Helvetica-Light" font-size="36.0" fill="#000000" transform="matrix(1.00, 0.00, -0.00, -1.00, 597.9, 641.0)">a</text><text xml:space="preserve" font-family="Helvetica-Light" font-size="36.0" fill="#000000" transform="matrix(1.00, 0.00, -0.00, -1.00, 617.9, 641.0)">t</text><text xml:space="preserve" font-family="Helvetica-Light" font-size="36.0" fill="#000000" transform="matrix(1.00, 0.00, -0.00, -1.00, 627.9, 641.0)">’</text><text xml:space="preserve" font-family="Helvetica-Light" font-size="36.0" fill="#000000" transform="matrix(1.00, 0.00, -0.00, -1.00, 633.2, 641.0)">s</text><text xml:space="preserve" font-family="Helvetica-Light" font-size="36.0" fill="#000000" transform="matrix(1.00, 0.00, -0.00, -1.00, 651.2, 641.0)"> </text><text xml:space="preserve" font-family="Helvetica-Light" font-size="36.0" fill="#000000" transform="matrix(1.00, 0.00, -0.00, -1.00, 661.2, 641.0)">i</text><text xml:space="preserve" font-family="Helvetica-Light" font-size="36.0" fill="#000000" transform="matrix(1.00, 0.00, -0.00, -1.00, 669.2, 641.0)">n</text><text xml:space="preserve" font-family="Helvetica-Light" font-size="36.0" fill="#000000" transform="matrix(1.00, 0.00, -0.00, -1.00, 689.3, 641.0)"> </text><text xml:space="preserve" font-family="Helvetica-Light" font-size="36.0" fill="#000000" transform="matrix(1.00, 0.00, -0.00, -1.00, 699.3, 641.0)">y</text><text xml:space="preserve" font-family="Helvetica-Light" font-size="36.0" fill="#000000" transform="matrix(1.00, 0.00, -0.00, -1.00, 717.3, 641.0)">o</text><text xml:space="preserve" font-family="Helvetica-Light" font-size="36.0" fill="#000000" transform="matrix(1.00, 0.00, -0.00, -1.00, 737.3, 641.0)">u</text><text xml:space="preserve" font-family="Helvetica-Light" font-size="36.0" fill="#000000" transform="matrix(1.00, 0.00, -0.00, -1.00, 757.3, 641.0)">r</text><text xml:space="preserve" font-family="Helvetica-Light" font-size="36.0" fill="#000000" transform="matrix(1.00, 0.00, -0.00, -1.00, 769.3, 641.0)"> </text><text xml:space="preserve" font-family="Helvetica-Light" font-size="36.0" fill="#000000" transform="matrix(1.00, 0.00, -0.00, -1.00, 779.3, 641.0)">D</text><text xml:space="preserve" font-family="Helvetica-Light" font-size="36.0" fill="#000000" transform="matrix(1.00, 0.00, -0.00, -1.00, 805.3, 641.0)">A</text><text xml:space="preserve" font-family="Helvetica-Light" font-size="36.0" fill="#000000" transform="matrix(1.00, 0.00, -0.00, -1.00, 829.3, 641.0)">G</text><text xml:space="preserve" font-family="Helvetica-Light" font-size="36.0" fill="#000000" transform="matrix(1.00, 0.00, -0.00, -1.00, 857.3, 641.0)"> </text><text xml:space="preserve" font-family="Helvetica-Light" font-size="36.0" fill="#000000" transform="matrix(1.00, 0.00, -0.00, -1.00, 306.0, 598.0)">a</text><text xml:space="preserve" font-family="Helvetica-Light" font-size="36.0" fill="#000000" transform="matrix(1.00, 0.00, -0.00, -1.00, 326.0, 598.0)">n</text><text xml:space="preserve" font-family="Helvetica-Light" font-size="36.0" fill="#000000" transform="matrix(1.00, 0.00, -0.00, -1.00, 346.0, 598.0)">d</text><text xml:space="preserve" font-family="Helvetica-Light" font-size="36.0" fill="#000000" transform="matrix(1.00, 0.00, -0.00, -1.00, 368.0, 598.0)"> </text><text xml:space="preserve" font-family="Helvetica-Light" font-size="36.0" fill="#000000" transform="matrix(1.00, 0.00, -0.00, -1.00, 378.0, 598.0)">k</text><text xml:space="preserve" font-family="Helvetica-Light" font-size="36.0" fill="#000000" transform="matrix(1.00, 0.00, -0.00, -1.00, 396.0, 598.0)">n</text><text xml:space="preserve" font-family="Helvetica-Light" font-size="36.0" fill="#000000" transform="matrix(1.00, 0.00, -0.00, -1.00, 416.1, 598.0)">o</text><text xml:space="preserve" font-family="Helvetica-Light" font-size="36.0" fill="#000000" transform="matrix(1.00, 0.00, -0.00, -1.00, 436.1, 598.0)">w</text><text xml:space="preserve" font-family="Helvetica-Light" font-size="36.0" fill="#000000" transform="matrix(1.00, 0.00, -0.00, -1.00, 462.1, 598.0)"> </text><text xml:space="preserve" font-family="Helvetica-Light" font-size="36.0" fill="#000000" transform="matrix(1.00, 0.00, -0.00, -1.00, 472.1, 598.0)">h</text><text xml:space="preserve" font-family="Helvetica-Light" font-size="36.0" fill="#000000" transform="matrix(1.00, 0.00, -0.00, -1.00, 492.1, 598.0)">o</text><text xml:space="preserve" font-family="Helvetica-Light" font-size="36.0" fill="#000000" transform="matrix(1.00, 0.00, -0.00, -1.00, 512.1, 598.0)">w</text><text xml:space="preserve" font-family="Helvetica-Light" font-size="36.0" fill="#000000" transform="matrix(1.00, 0.00, -0.00, -1.00, 538.1, 598.0)"> </text><text xml:space="preserve" font-family="Helvetica-Light" font-size="36.0" fill="#000000" transform="matrix(1.00, 0.00, -0.00, -1.00, 548.1, 598.0)">t</text><text xml:space="preserve" font-family="Helvetica-Light" font-size="36.0" fill="#000000" transform="matrix(1.00, 0.00, -0.00, -1.00, 558.1, 598.0)">o</text><text xml:space="preserve" font-family="Helvetica-Light" font-size="36.0" fill="#000000" transform="matrix(1.00, 0.00, -0.00, -1.00, 578.1, 598.0)"> </text><text xml:space="preserve" font-family="Helvetica-Light" font-size="36.0" fill="#000000" transform="matrix(1.00, 0.00, -0.00, -1.00, 588.1, 598.0)">p</text><text xml:space="preserve" font-family="Helvetica-Light" font-size="36.0" fill="#000000" transform="matrix(1.00, 0.00, -0.00, -1.00, 610.1, 598.0)">a</text><text xml:space="preserve" font-family="Helvetica-Light" font-size="36.0" fill="#000000" transform="matrix(1.00, 0.00, -0.00, -1.00, 630.1, 598.0)">r</text><text xml:space="preserve" font-family="Helvetica-Light" font-size="36.0" fill="#000000" transform="matrix(1.00, 0.00, -0.00, -1.00, 642.1, 598.0)">s</text><text xml:space="preserve" font-family="Helvetica-Light" font-size="36.0" fill="#000000" transform="matrix(1.00, 0.00, -0.00, -1.00, 660.1, 598.0)">e</text><text xml:space="preserve" font-family="Helvetica-Light" font-size="36.0" fill="#000000" transform="matrix(1.00, 0.00, -0.00, -1.00, 680.1, 598.0)"> </text><text xml:space="preserve" font-family="Helvetica-Light" font-size="36.0" fill="#000000" transform="matrix(1.00, 0.00, -0.00, -1.00, 690.2, 598.0)">i</text><text xml:space="preserve" font-family="Helvetica-Light" font-size="36.0" fill="#000000" transform="matrix(1.00, 0.00, -0.00, -1.00, 698.1, 598.0)">t</text><text xml:space="preserve" font-family="Helvetica-Light" font-size="36.0" fill="#000000" transform="matrix(1.00, 0.00, -0.00, -1.00, 708.2, 598.0)">.</text><image xlink:href="../../520DCE23-8738-41B8-8C88-1E40DCCD5D31/assets/5CFD9EE5E8C93CD56FFE2938363E0194.png" width="125.00" height="76.00" transform="matrix(1.00, 0.00, -0.00, -1.00, 497.6, 461.4)" opacity="0.50"></image><g><clipPath id="clip-1364"><path d="M 500.6 460.4 L 619.9 460.4 L 619.9 390.3 L 500.6 390.3 Z M 500.6 460.4 "></path></clipPath><g clip-path="url(#clip-1364)"><image xlink:href="../../5D17066C-F2D4-43E1-B102-79E70149F52B/assets/C64658A6708B486A1AF0D79460CDFD00.jpeg" width="327.00" height="327.00" transform="matrix(0.92, 0.00, -0.00, -0.92, 500.6, 460.4)"></image><path d="M 500.6 460.4 L 619.9 460.4 L 619.9 390.3 L 500.6 390.3 Z M 500.6 460.4 " fill="#178996"></path></g></g><g><clipPath id="clip-1365"><path d="M 498.6 390.3 L 621.9 390.3 L 621.9 460.4 L 498.6 460.4 Z M 498.6 390.3 "></path></clipPath><g clip-path="url(#clip-1365)"><text xml:space="preserve" font-family="Helvetica-Light" font-size="24.0" fill="#FEFFFE" transform="matrix(1.00, 0.00, -0.00, -1.00, 534.0, 416.0)">t</text><text xml:space="preserve" font-family="Helvetica-Light" font-size="24.0" fill="#FEFFFE" transform="matrix(1.00, 0.00, -0.00, -1.00, 540.7, 416.0)">a</text><text xml:space="preserve" font-family="Helvetica-Light" font-size="24.0" fill="#FEFFFE" transform="matrix(1.00, 0.00, -0.00, -1.00, 554.0, 416.0)">b</text><text xml:space="preserve" font-family="Helvetica-Light" font-size="24.0" fill="#FEFFFE" transform="matrix(1.00, 0.00, -0.00, -1.00, 568.7, 416.0)">l</text><text xml:space="preserve" font-family="Helvetica-Light" font-size="24.0" fill="#FEFFFE" transform="matrix(1.00, 0.00, -0.00, -1.00, 574.0, 416.0)">e</text></g></g><image xlink:href="../../F610A6C0-8828-40C9-89E8-693074FA2358/assets/9CF4DC18A2D8AAA19D8CC6E3AB143A6F.png" width="163.00" height="43.00" transform="matrix(1.00, 0.00, -0.00, -1.00, 759.5, 443.1)" opacity="0.50"></image><path d="M 762.5 442.1 L 919.5 442.1 L 919.5 405.1 L 762.5 405.1 Z M 762.5 442.1 " fill="#914507"></path><g><clipPath id="clip-1366"><path d="M 760.5 403.1 L 921.5 403.1 L 921.5 444.1 L 760.5 444.1 Z M 760.5 403.1 "></path></clipPath><g clip-path="url(#clip-1366)"><text xml:space="preserve" font-family="Helvetica-Light" font-size="24.0" fill="#FEFFFE" transform="matrix(1.00, 0.00, -0.00, -1.00, 770.0, 415.0)">X</text><text xml:space="preserve" font-family="Helvetica-Light" font-size="24.0" fill="#FEFFFE" transform="matrix(1.00, 0.00, -0.00, -1.00, 784.7, 415.0)">M</text><text xml:space="preserve" font-family="Helvetica-Light" font-size="24.0" fill="#FEFFFE" transform="matrix(1.00, 0.00, -0.00, -1.00, 804.7, 415.0)">L</text><text xml:space="preserve" font-family="Helvetica-Light" font-size="24.0" fill="#FEFFFE" transform="matrix(1.00, 0.00, -0.00, -1.00, 818.0, 415.0)"> </text><text xml:space="preserve" font-family="Helvetica-Light" font-size="24.0" fill="#FEFFFE" transform="matrix(1.00, 0.00, -0.00, -1.00, 824.7, 415.0)">S</text><text xml:space="preserve" font-family="Helvetica-Light" font-size="24.0" fill="#FEFFFE" transform="matrix(1.00, 0.00, -0.00, -1.00, 839.3, 415.0)">c</text><text xml:space="preserve" font-family="Helvetica-Light" font-size="24.0" fill="#FEFFFE" transform="matrix(1.00, 0.00, -0.00, -1.00, 852.7, 415.0)">h</text><text xml:space="preserve" font-family="Helvetica-Light" font-size="24.0" fill="#FEFFFE" transform="matrix(1.00, 0.00, -0.00, -1.00, 866.0, 415.0)">e</text><text xml:space="preserve" font-family="Helvetica-Light" font-size="24.0" fill="#FEFFFE" transform="matrix(1.00, 0.00, -0.00, -1.00, 879.4, 415.0)">m</text><text xml:space="preserve" font-family="Helvetica-Light" font-size="24.0" fill="#FEFFFE" transform="matrix(1.00, 0.00, -0.00, -1.00, 899.4, 415.0)">a</text></g></g><path d="M 0.0 0.0 L 131.1 0.0 L 132.1 0.0 " fill="none" stroke="#85878C" stroke-width="2.00" transform="matrix(1.00, 0.00, 0.00, -1.00, 620.8, 424.4)"></path><path d="M 751.9 419.6 L 761.5 424.4 L 751.9 429.2 Z M 751.9 419.6 " fill="#85878C"></path><path d="M 640.4 444.9 L 734.8 444.9 L 734.8 407.9 L 640.4 407.9 Z M 640.4 444.9 " fill="#FEFFFF"></path><g><clipPath id="clip-1367"><path d="M 638.4 405.9 L 736.8 405.9 L 736.8 446.9 L 638.4 446.9 Z M 638.4 405.9 "></path></clipPath><g clip-path="url(#clip-1367)"><text xml:space="preserve" font-family="Helvetica-Light" font-size="24.0" fill="#52575F" transform="matrix(1.00, 0.00, -0.00, -1.00, 645.0, 417.0)">s</text><text xml:space="preserve" font-family="Helvetica-Light" font-size="24.0" fill="#52575F" transform="matrix(1.00, 0.00, -0.00, -1.00, 657.0, 417.0)">c</text><text xml:space="preserve" font-family="Helvetica-Light" font-size="24.0" fill="#52575F" transform="matrix(1.00, 0.00, -0.00, -1.00, 670.3, 417.0)">h</text><text xml:space="preserve" font-family="Helvetica-Light" font-size="24.0" fill="#52575F" transform="matrix(1.00, 0.00, -0.00, -1.00, 683.7, 417.0)">e</text><text xml:space="preserve" font-family="Helvetica-Light" font-size="24.0" fill="#52575F" transform="matrix(1.00, 0.00, -0.00, -1.00, 697.0, 417.0)">m</text><text xml:space="preserve" font-family="Helvetica-Light" font-size="24.0" fill="#52575F" transform="matrix(1.00, 0.00, -0.00, -1.00, 717.0, 417.0)">a</text></g></g><image xlink:href="../../520DCE23-8738-41B8-8C88-1E40DCCD5D31/assets/5CFD9EE5E8C93CD56FFE2938363E0194.png" width="125.00" height="76.00" transform="matrix(1.00, 0.00, -0.00, -1.00, 498.6, 291.7)" opacity="0.50"></image><g><clipPath id="clip-1368"><path d="M 501.6 290.7 L 621.0 290.7 L 621.0 220.6 L 501.6 220.6 Z M 501.6 290.7 "></path></clipPath><g clip-path="url(#clip-1368)"><image xlink:href="../../5D17066C-F2D4-43E1-B102-79E70149F52B/assets/C64658A6708B486A1AF0D79460CDFD00.jpeg" width="327.00" height="327.00" transform="matrix(0.92, 0.00, -0.00, -0.92, 501.6, 290.7)"></image><path d="M 501.6 290.7 L 621.0 290.7 L 621.0 220.6 L 501.6 220.6 Z M 501.6 290.7 " fill="#178996"></path></g></g><g><clipPath id="clip-1369"><path d="M 499.6 220.6 L 623.0 220.6 L 623.0 290.7 L 499.6 290.7 Z M 499.6 220.6 "></path></clipPath><g clip-path="url(#clip-1369)"><text xml:space="preserve" font-family="Helvetica-Light" font-size="24.0" fill="#FEFFFE" transform="matrix(1.00, 0.00, -0.00, -1.00, 535.0, 246.0)">t</text><text xml:space="preserve" font-family="Helvetica-Light" font-size="24.0" fill="#FEFFFE" transform="matrix(1.00, 0.00, -0.00, -1.00, 541.7, 246.0)">a</text><text xml:space="preserve" font-family="Helvetica-Light" font-size="24.0" fill="#FEFFFE" transform="matrix(1.00, 0.00, -0.00, -1.00, 555.0, 246.0)">b</text><text xml:space="preserve" font-family="Helvetica-Light" font-size="24.0" fill="#FEFFFE" transform="matrix(1.00, 0.00, -0.00, -1.00, 569.7, 246.0)">l</text><text xml:space="preserve" font-family="Helvetica-Light" font-size="24.0" fill="#FEFFFE" transform="matrix(1.00, 0.00, -0.00, -1.00, 575.0, 246.0)">e</text></g></g><image xlink:href="../../F2F9526D-AD39-42AC-B60A-237E5C105763/assets/5F56E1511AB1945DF0F0C0CE28A6563B.png" width="157.00" height="43.00" transform="matrix(1.00, 0.00, -0.00, -1.00, 758.0, 275.6)" opacity="0.50"></image><path d="M 761.0 274.6 L 911.6 274.6 L 911.6 237.6 L 761.0 237.6 Z M 761.0 274.6 " fill="#52575F"></path><g><clipPath id="clip-1370"><path d="M 759.0 235.6 L 913.6 235.6 L 913.6 276.6 L 759.0 276.6 Z M 759.0 235.6 "></path></clipPath><g clip-path="url(#clip-1370)"><text xml:space="preserve" font-family="Helvetica-Light" font-size="24.0" fill="#FEFFFE" transform="matrix(1.00, 0.00, -0.00, -1.00, 783.0, 247.0)">R</text><text xml:space="preserve" font-family="Helvetica-Light" font-size="24.0" fill="#FEFFFE" transform="matrix(1.00, 0.00, -0.00, -1.00, 799.0, 247.0)">D</text><text xml:space="preserve" font-family="Helvetica-Light" font-size="24.0" fill="#FEFFFE" transform="matrix(1.00, 0.00, -0.00, -1.00, 816.3, 247.0)">F</text><text xml:space="preserve" font-family="Helvetica-Light" font-size="24.0" fill="#FEFFFE" transform="matrix(1.00, 0.00, -0.00, -1.00, 829.7, 247.0)">/</text><text xml:space="preserve" font-family="Helvetica-Light" font-size="24.0" fill="#FEFFFE" transform="matrix(1.00, 0.00, -0.00, -1.00, 836.4, 247.0)">O</text><text xml:space="preserve" font-family="Helvetica-Light" font-size="24.0" fill="#FEFFFE" transform="matrix(1.00, 0.00, -0.00, -1.00, 855.0, 247.0)">W</text><text xml:space="preserve" font-family="Helvetica-Light" font-size="24.0" fill="#FEFFFE" transform="matrix(1.00, 0.00, -0.00, -1.00, 876.4, 247.0)">L</text></g></g><path d="M 0.0 0.0 L 131.1 0.0 L 132.1 0.0 " fill="none" stroke="#85878C" stroke-width="2.00" transform="matrix(1.00, 0.00, 0.00, -1.00, 619.3, 253.5)"></path><path d="M 750.4 248.7 L 760.0 253.5 L 750.4 258.3 Z M 750.4 248.7 " fill="#85878C"></path><path d="M 638.9 274.0 L 733.3 274.0 L 733.3 237.0 L 638.9 237.0 Z M 638.9 274.0 " fill="#FEFFFF"></path><g><clipPath id="clip-1371"><path d="M 636.9 235.0 L 735.3 235.0 L 735.3 276.0 L 636.9 276.0 Z M 636.9 235.0 "></path></clipPath><g clip-path="url(#clip-1371)"><text xml:space="preserve" font-family="Helvetica-Light" font-size="24.0" fill="#52575F" transform="matrix(1.00, 0.00, -0.00, -1.00, 643.0, 247.0)">s</text><text xml:space="preserve" font-family="Helvetica-Light" font-size="24.0" fill="#52575F" transform="matrix(1.00, 0.00, -0.00, -1.00, 655.0, 247.0)">c</text><text xml:space="preserve" font-family="Helvetica-Light" font-size="24.0" fill="#52575F" transform="matrix(1.00, 0.00, -0.00, -1.00, 668.3, 247.0)">h</text><text xml:space="preserve" font-family="Helvetica-Light" font-size="24.0" fill="#52575F" transform="matrix(1.00, 0.00, -0.00, -1.00, 681.7, 247.0)">e</text><text xml:space="preserve" font-family="Helvetica-Light" font-size="24.0" fill="#52575F" transform="matrix(1.00, 0.00, -0.00, -1.00, 695.0, 247.0)">m</text><text xml:space="preserve" font-family="Helvetica-Light" font-size="24.0" fill="#52575F" transform="matrix(1.00, 0.00, -0.00, -1.00, 715.0, 247.0)">a</text></g></g><text xml:space="preserve" font-family="Helvetica-Light" font-size="36.0" fill="#000000" transform="matrix(1.00, 0.00, -0.00, -1.00, 469.0, 136.0)">e</text><text xml:space="preserve" font-family="Helvetica-Light" font-size="36.0" fill="#000000" transform="matrix(1.00, 0.00, -0.00, -1.00, 489.0, 136.0)">t</text><text xml:space="preserve" font-family="Helvetica-Light" font-size="36.0" fill="#000000" transform="matrix(1.00, 0.00, -0.00, -1.00, 499.0, 136.0)">c</text><text xml:space="preserve" font-family="Helvetica-Light" font-size="36.0" fill="#000000" transform="matrix(1.00, 0.00, -0.00, -1.00, 519.0, 136.0)">…</text></g></svg>