<?xml version="1.0" encoding="UTF-8" standalone="no"?><svg xmlns="http://www.w3.org/2000/svg" xmlns:xlink="http://www.w3.org/1999/xlink" clip-rule="evenodd" stroke-miterlimit="4.00" viewBox="0 0 1024 768"><desc>SVG generated by Keynote</desc><defs></defs><g transform="matrix(1.00, 0.00, -0.00, -1.00, 0.0, 768.0)"><path d="M 0.0 768.0 L 1024.0 768.0 L 1024.0 0.0 L 0.0 0.0 Z M 0.0 768.0 " fill="#FEFFFF"></path><path d="M 0.0 0.0 L 88.7 0.0 L 89.7 0.0 " fill="none" stroke="#85878C" stroke-width="2.00" transform="matrix(0.00, -1.00, -1.00, 0.00, 682.1, 316.3)"></path><path d="M 677.3 227.6 L 682.1 218.0 L 686.9 227.6 Z M 677.3 227.6 " fill="#85878C"></path><path d="M 0.0 0.0 L 168.1 0.0 L 169.1 0.0 " fill="none" stroke="#85878C" stroke-width="2.00" transform="matrix(0.79, -0.62, -0.62, -0.79, 530.8, 522.0)"></path><path d="M 660.3 414.7 L 670.8 412.6 L 666.2 422.3 Z M 660.3 414.7 " fill="#85878C"></path><path d="M 0.0 0.0 L 164.6 0.0 L 165.6 0.0 " fill="none" stroke="#85878C" stroke-width="2.00" transform="matrix(-0.78, -0.63, -0.63, 0.78, 468.9, 522.0)"></path><path d="M 337.8 422.4 L 333.3 412.6 L 343.8 414.9 Z M 337.8 422.4 " fill="#85878C"></path><path d="M 0.0 0.0 L 105.3 0.0 L 106.3 0.0 " fill="none" stroke="#85878C" stroke-width="2.00" transform="matrix(0.00, -1.00, -1.00, 0.00, 499.9, 525.1)"></path><path d="M 495.1 419.8 L 499.9 410.2 L 504.7 419.8 Z M 495.1 419.8 " fill="#85878C"></path><image xlink:href="../../DFE26AB8-8B89-4987-8CD4-6B00EAE87D97/assets/5CFD9EE5E8C93CD56FFE2938363E0194.png" width="125.00" height="76.00" transform="matrix(1.00, 0.00, -0.00, -1.00, 435.8, 589.7)" opacity="0.50"></image><g><clipPath id="clip-64"><path d="M 438.8 588.7 L 558.2 588.7 L 558.2 518.7 L 438.8 518.7 Z M 438.8 588.7 "></path></clipPath><g clip-path="url(#clip-64)"><image xlink:href="../../615F7CD4-E262-41F7-8138-806EC6AB1FAB/assets/D5BAA0E7A80E113D25EB92D00157B4C8.jpeg" width="300.00" height="300.00" transform="matrix(1.00, 0.00, -0.00, -1.00, 438.8, 588.7)"></image><path d="M 438.8 588.7 L 558.2 588.7 L 558.2 518.7 L 438.8 518.7 Z M 438.8 588.7 " fill="#178996"></path></g></g><g><clipPath id="clip-65"><path d="M 436.8 518.7 L 560.2 518.7 L 560.2 588.7 L 436.8 588.7 Z M 436.8 518.7 "></path></clipPath><g clip-path="url(#clip-65)"><text xml:space="preserve" font-family="Helvetica-Light" font-size="24.0" fill="#FEFFFE" transform="matrix(1.00, 0.00, -0.00, -1.00, 478.0, 544.0)">t</text><text xml:space="preserve" font-family="Helvetica-Light" font-size="24.0" fill="#FEFFFE" transform="matrix(1.00, 0.00, -0.00, -1.00, 484.7, 544.0)">r</text><text xml:space="preserve" font-family="Helvetica-Light" font-size="24.0" fill="#FEFFFE" transform="matrix(1.00, 0.00, -0.00, -1.00, 492.2, 544.0)">e</text><text xml:space="preserve" font-family="Helvetica-Light" font-size="24.0" fill="#FEFFFE" transform="matrix(1.00, 0.00, -0.00, -1.00, 505.6, 544.0)">e</text></g></g><image xlink:href="../../DFE26AB8-8B89-4987-8CD4-6B00EAE87D97/assets/ED5D73C7C7310588D1F26BBB630E3EFF.png" width="149.00" height="76.00" transform="matrix(1.00, 0.00, -0.00, -1.00, 429.3, 380.9)" opacity="0.50"></image><g><clipPath id="clip-66"><path d="M 432.3 379.9 L 575.6 379.9 L 575.6 309.9 L 432.3 309.9 Z M 432.3 379.9 "></path></clipPath><g clip-path="url(#clip-66)"><image xlink:href="../../615F7CD4-E262-41F7-8138-806EC6AB1FAB/assets/D5BAA0E7A80E113D25EB92D00157B4C8.jpeg" width="300.00" height="300.00" transform="matrix(1.00, 0.00, -0.00, -1.00, 432.3, 379.9)"></image><path d="M 432.3 379.9 L 575.6 379.9 L 575.6 309.9 L 432.3 309.9 Z M 432.3 379.9 " fill="#E1E0D8"></path></g></g><g><clipPath id="clip-67"><path d="M 430.3 309.9 L 577.6 309.9 L 577.6 379.9 L 430.3 379.9 Z M 430.3 309.9 "></path></clipPath><g clip-path="url(#clip-67)"><text xml:space="preserve" font-family="Helvetica-Light" font-size="24.0" fill="#52575F" transform="matrix(1.00, 0.00, -0.00, -1.00, 440.0, 335.0)">“</text><text xml:space="preserve" font-family="Helvetica-Light" font-size="24.0" fill="#52575F" transform="matrix(1.00, 0.00, -0.00, -1.00, 449.3, 335.0)">I</text><text xml:space="preserve" font-family="Helvetica-Light" font-size="24.0" fill="#52575F" transform="matrix(1.00, 0.00, -0.00, -1.00, 456.0, 335.0)"> </text><text xml:space="preserve" font-family="Helvetica-Light" font-size="24.0" fill="#52575F" transform="matrix(1.00, 0.00, -0.00, -1.00, 462.7, 335.0)">c</text><text xml:space="preserve" font-family="Helvetica-Light" font-size="24.0" fill="#52575F" transform="matrix(1.00, 0.00, -0.00, -1.00, 476.0, 335.0)">h</text><text xml:space="preserve" font-family="Helvetica-Light" font-size="24.0" fill="#52575F" transform="matrix(1.00, 0.00, -0.00, -1.00, 489.4, 335.0)">a</text><text xml:space="preserve" font-family="Helvetica-Light" font-size="24.0" fill="#52575F" transform="matrix(1.00, 0.00, -0.00, -1.00, 502.7, 335.0)">n</text><text xml:space="preserve" font-family="Helvetica-Light" font-size="24.0" fill="#52575F" transform="matrix(1.00, 0.00, -0.00, -1.00, 516.1, 335.0)">g</text><text xml:space="preserve" font-family="Helvetica-Light" font-size="24.0" fill="#52575F" transform="matrix(1.00, 0.00, -0.00, -1.00, 530.7, 335.0)">e</text><text xml:space="preserve" font-family="Helvetica-Light" font-size="24.0" fill="#52575F" transform="matrix(1.00, 0.00, -0.00, -1.00, 544.1, 335.0)">d</text><text xml:space="preserve" font-family="Helvetica-Light" font-size="24.0" fill="#52575F" transform="matrix(1.00, 0.00, -0.00, -1.00, 558.7, 335.0)">”</text></g></g><text xml:space="preserve" font-family="Helvetica-Light" font-size="15.0" fill="#52575F" transform="matrix(1.00, 0.00, -0.00, -1.00, 473.0, 391.0)">1</text><text xml:space="preserve" font-family="Helvetica-Light" font-size="15.0" fill="#52575F" transform="matrix(1.00, 0.00, -0.00, -1.00, 481.3, 391.0)">f</text><text xml:space="preserve" font-family="Helvetica-Light" font-size="15.0" fill="#52575F" transform="matrix(1.00, 0.00, -0.00, -1.00, 485.5, 391.0)">7</text><text xml:space="preserve" font-family="Helvetica-Light" font-size="15.0" fill="#52575F" transform="matrix(1.00, 0.00, -0.00, -1.00, 493.9, 391.0)">a</text><text xml:space="preserve" font-family="Helvetica-Light" font-size="15.0" fill="#52575F" transform="matrix(1.00, 0.00, -0.00, -1.00, 502.2, 391.0)">7</text><text xml:space="preserve" font-family="Helvetica-Light" font-size="15.0" fill="#52575F" transform="matrix(1.00, 0.00, -0.00, -1.00, 510.5, 391.0)">a</text><text xml:space="preserve" font-family="Helvetica-Light" font-size="15.0" fill="#52575F" transform="matrix(1.00, 0.00, -0.00, -1.00, 473.0, 599.0)">3</text><text xml:space="preserve" font-family="Helvetica-Light" font-size="15.0" fill="#52575F" transform="matrix(1.00, 0.00, -0.00, -1.00, 481.3, 599.0)">c</text><text xml:space="preserve" font-family="Helvetica-Light" font-size="15.0" fill="#52575F" transform="matrix(1.00, 0.00, -0.00, -1.00, 489.7, 599.0)">4</text><text xml:space="preserve" font-family="Helvetica-Light" font-size="15.0" fill="#52575F" transform="matrix(1.00, 0.00, -0.00, -1.00, 498.0, 599.0)">e</text><text xml:space="preserve" font-family="Helvetica-Light" font-size="15.0" fill="#52575F" transform="matrix(1.00, 0.00, -0.00, -1.00, 506.4, 599.0)">9</text><text xml:space="preserve" font-family="Helvetica-Light" font-size="15.0" fill="#52575F" transform="matrix(1.00, 0.00, -0.00, -1.00, 514.7, 599.0)">c</text><image xlink:href="../../DFE26AB8-8B89-4987-8CD4-6B00EAE87D97/assets/ED5D73C7C7310588D1F26BBB630E3EFF.png" width="149.00" height="76.00" transform="matrix(1.00, 0.00, -0.00, -1.00, 265.8, 381.4)" opacity="0.50"></image><g><clipPath id="clip-68"><path d="M 268.8 380.4 L 412.2 380.4 L 412.2 310.4 L 268.8 310.4 Z M 268.8 380.4 "></path></clipPath><g clip-path="url(#clip-68)"><image xlink:href="../../615F7CD4-E262-41F7-8138-806EC6AB1FAB/assets/D5BAA0E7A80E113D25EB92D00157B4C8.jpeg" width="300.00" height="300.00" transform="matrix(1.00, 0.00, -0.00, -1.00, 268.8, 380.4)"></image><path d="M 268.8 380.4 L 412.2 380.4 L 412.2 310.4 L 268.8 310.4 Z M 268.8 380.4 " fill="#E1E0D8"></path></g></g><g><clipPath id="clip-69"><path d="M 266.8 310.4 L 414.2 310.4 L 414.2 380.4 L 266.8 380.4 Z M 266.8 310.4 "></path></clipPath><g clip-path="url(#clip-69)"><text xml:space="preserve" font-family="Helvetica-Light" font-size="24.0" fill="#52575F" transform="matrix(1.00, 0.00, -0.00, -1.00, 287.0, 336.0)">“</text><text xml:space="preserve" font-family="Helvetica-Light" font-size="24.0" fill="#52575F" transform="matrix(1.00, 0.00, -0.00, -1.00, 296.3, 336.0)">I</text><text xml:space="preserve" font-family="Helvetica-Light" font-size="24.0" fill="#52575F" transform="matrix(1.00, 0.00, -0.00, -1.00, 303.0, 336.0)">’</text><text xml:space="preserve" font-family="Helvetica-Light" font-size="24.0" fill="#52575F" transform="matrix(1.00, 0.00, -0.00, -1.00, 308.3, 336.0)">m</text><text xml:space="preserve" font-family="Helvetica-Light" font-size="24.0" fill="#52575F" transform="matrix(1.00, 0.00, -0.00, -1.00, 328.3, 336.0)"> </text><text xml:space="preserve" font-family="Helvetica-Light" font-size="24.0" fill="#52575F" transform="matrix(1.00, 0.00, -0.00, -1.00, 335.0, 336.0)">n</text><text xml:space="preserve" font-family="Helvetica-Light" font-size="24.0" fill="#52575F" transform="matrix(1.00, 0.00, -0.00, -1.00, 348.3, 336.0)">e</text><text xml:space="preserve" font-family="Helvetica-Light" font-size="24.0" fill="#52575F" transform="matrix(1.00, 0.00, -0.00, -1.00, 361.7, 336.0)">w</text><text xml:space="preserve" font-family="Helvetica-Light" font-size="24.0" fill="#52575F" transform="matrix(1.00, 0.00, -0.00, -1.00, 377.7, 336.0)">.</text><text xml:space="preserve" font-family="Helvetica-Light" font-size="24.0" fill="#52575F" transform="matrix(1.00, 0.00, -0.00, -1.00, 384.4, 336.0)">”</text></g></g><text xml:space="preserve" font-family="Helvetica-Light" font-size="15.0" fill="#52575F" transform="matrix(1.00, 0.00, -0.00, -1.00, 309.0, 392.0)">f</text><text xml:space="preserve" font-family="Helvetica-Light" font-size="15.0" fill="#52575F" transform="matrix(1.00, 0.00, -0.00, -1.00, 313.2, 392.0)">a</text><text xml:space="preserve" font-family="Helvetica-Light" font-size="15.0" fill="#52575F" transform="matrix(1.00, 0.00, -0.00, -1.00, 321.5, 392.0)">4</text><text xml:space="preserve" font-family="Helvetica-Light" font-size="15.0" fill="#52575F" transform="matrix(1.00, 0.00, -0.00, -1.00, 329.9, 392.0)">9</text><text xml:space="preserve" font-family="Helvetica-Light" font-size="15.0" fill="#52575F" transform="matrix(1.00, 0.00, -0.00, -1.00, 338.2, 392.0)">b</text><text xml:space="preserve" font-family="Helvetica-Light" font-size="15.0" fill="#52575F" transform="matrix(1.00, 0.00, -0.00, -1.00, 347.4, 392.0)">0</text><image xlink:href="../../DFE26AB8-8B89-4987-8CD4-6B00EAE87D97/assets/88C405352D0AEF53C5548AA3E79A786D.png" width="175.00" height="76.00" transform="matrix(1.00, 0.00, -0.00, -1.00, 592.0, 191.6)" opacity="0.50"></image><g><clipPath id="clip-70"><path d="M 595.0 190.6 L 764.4 190.6 L 764.4 120.6 L 595.0 120.6 Z M 595.0 190.6 "></path></clipPath><g clip-path="url(#clip-70)"><image xlink:href="../../615F7CD4-E262-41F7-8138-806EC6AB1FAB/assets/D5BAA0E7A80E113D25EB92D00157B4C8.jpeg" width="300.00" height="300.00" transform="matrix(1.00, 0.00, -0.00, -1.00, 595.0, 190.6)"></image><path d="M 595.0 190.6 L 764.4 190.6 L 764.4 120.6 L 595.0 120.6 Z M 595.0 190.6 " fill="#E1E0D8"></path></g></g><g><clipPath id="clip-71"><path d="M 593.0 120.6 L 766.4 120.6 L 766.4 190.6 L 593.0 190.6 Z M 593.0 120.6 "></path></clipPath><g clip-path="url(#clip-71)"><text xml:space="preserve" font-family="Helvetica-Light" font-size="24.0" fill="#52575F" transform="matrix(1.00, 0.00, -0.00, -1.00, 604.0, 146.0)">“</text><text xml:space="preserve" font-family="Helvetica-Light" font-size="24.0" fill="#52575F" transform="matrix(1.00, 0.00, -0.00, -1.00, 613.3, 146.0)">C</text><text xml:space="preserve" font-family="Helvetica-Light" font-size="24.0" fill="#52575F" transform="matrix(1.00, 0.00, -0.00, -1.00, 630.7, 146.0)">h</text><text xml:space="preserve" font-family="Helvetica-Light" font-size="24.0" fill="#52575F" transform="matrix(1.00, 0.00, -0.00, -1.00, 644.0, 146.0)">a</text><text xml:space="preserve" font-family="Helvetica-Light" font-size="24.0" fill="#52575F" transform="matrix(1.00, 0.00, -0.00, -1.00, 657.4, 146.0)">n</text><text xml:space="preserve" font-family="Helvetica-Light" font-size="24.0" fill="#52575F" transform="matrix(1.00, 0.00, -0.00, -1.00, 670.7, 146.0)">g</text><text xml:space="preserve" font-family="Helvetica-Light" font-size="24.0" fill="#52575F" transform="matrix(1.00, 0.00, -0.00, -1.00, 685.4, 146.0)">e</text><text xml:space="preserve" font-family="Helvetica-Light" font-size="24.0" fill="#52575F" transform="matrix(1.00, 0.00, -0.00, -1.00, 698.7, 146.0)"> </text><text xml:space="preserve" font-family="Helvetica-Light" font-size="24.0" fill="#52575F" transform="matrix(1.00, 0.00, -0.00, -1.00, 705.4, 146.0)">m</text><text xml:space="preserve" font-family="Helvetica-Light" font-size="24.0" fill="#52575F" transform="matrix(1.00, 0.00, -0.00, -1.00, 725.4, 146.0)">e</text><text xml:space="preserve" font-family="Helvetica-Light" font-size="24.0" fill="#52575F" transform="matrix(1.00, 0.00, -0.00, -1.00, 738.7, 146.0)">!</text><text xml:space="preserve" font-family="Helvetica-Light" font-size="24.0" fill="#52575F" transform="matrix(1.00, 0.00, -0.00, -1.00, 746.7, 146.0)">”</text></g></g><text xml:space="preserve" font-family="Helvetica-Light" font-size="15.0" fill="#52575F" transform="matrix(1.00, 0.00, -0.00, -1.00, 657.0, 201.0)">8</text><text xml:space="preserve" font-family="Helvetica-Light" font-size="15.0" fill="#52575F" transform="matrix(1.00, 0.00, -0.00, -1.00, 665.3, 201.0)">3</text><text xml:space="preserve" font-family="Helvetica-Light" font-size="15.0" fill="#52575F" transform="matrix(1.00, 0.00, -0.00, -1.00, 673.7, 201.0)">b</text><text xml:space="preserve" font-family="Helvetica-Light" font-size="15.0" fill="#52575F" transform="matrix(1.00, 0.00, -0.00, -1.00, 682.8, 201.0)">a</text><text xml:space="preserve" font-family="Helvetica-Light" font-size="15.0" fill="#52575F" transform="matrix(1.00, 0.00, -0.00, -1.00, 691.2, 201.0)">a</text><text xml:space="preserve" font-family="Helvetica-Light" font-size="15.0" fill="#52575F" transform="matrix(1.00, 0.00, -0.00, -1.00, 699.5, 201.0)">e</text><image xlink:href="../../DFE26AB8-8B89-4987-8CD4-6B00EAE87D97/assets/5CFD9EE5E8C93CD56FFE2938363E0194.png" width="125.00" height="76.00" transform="matrix(1.00, 0.00, -0.00, -1.00, 617.9, 379.9)" opacity="0.50"></image><g><clipPath id="clip-72"><path d="M 620.9 378.9 L 740.3 378.9 L 740.3 308.9 L 620.9 308.9 Z M 620.9 378.9 "></path></clipPath><g clip-path="url(#clip-72)"><image xlink:href="../../615F7CD4-E262-41F7-8138-806EC6AB1FAB/assets/D5BAA0E7A80E113D25EB92D00157B4C8.jpeg" width="300.00" height="300.00" transform="matrix(1.00, 0.00, -0.00, -1.00, 620.9, 378.9)"></image><path d="M 620.9 378.9 L 740.3 378.9 L 740.3 308.9 L 620.9 308.9 Z M 620.9 378.9 " fill="#178996"></path></g></g><g><clipPath id="clip-73"><path d="M 618.9 308.9 L 742.3 308.9 L 742.3 378.9 L 618.9 378.9 Z M 618.9 308.9 "></path></clipPath><g clip-path="url(#clip-73)"><text xml:space="preserve" font-family="Helvetica-Light" font-size="24.0" fill="#FEFFFE" transform="matrix(1.00, 0.00, -0.00, -1.00, 660.0, 334.0)">t</text><text xml:space="preserve" font-family="Helvetica-Light" font-size="24.0" fill="#FEFFFE" transform="matrix(1.00, 0.00, -0.00, -1.00, 666.7, 334.0)">r</text><text xml:space="preserve" font-family="Helvetica-Light" font-size="24.0" fill="#FEFFFE" transform="matrix(1.00, 0.00, -0.00, -1.00, 674.2, 334.0)">e</text><text xml:space="preserve" font-family="Helvetica-Light" font-size="24.0" fill="#FEFFFE" transform="matrix(1.00, 0.00, -0.00, -1.00, 687.6, 334.0)">e</text></g></g><text xml:space="preserve" font-family="Helvetica-Light" font-size="15.0" fill="#52575F" transform="matrix(1.00, 0.00, -0.00, -1.00, 657.0, 391.0)">d</text><text xml:space="preserve" font-family="Helvetica-Light" font-size="15.0" fill="#52575F" transform="matrix(1.00, 0.00, -0.00, -1.00, 666.2, 391.0)">8</text><text xml:space="preserve" font-family="Helvetica-Light" font-size="15.0" fill="#52575F" transform="matrix(1.00, 0.00, -0.00, -1.00, 674.5, 391.0)">3</text><text xml:space="preserve" font-family="Helvetica-Light" font-size="15.0" fill="#52575F" transform="matrix(1.00, 0.00, -0.00, -1.00, 682.8, 391.0)">2</text><text xml:space="preserve" font-family="Helvetica-Light" font-size="15.0" fill="#52575F" transform="matrix(1.00, 0.00, -0.00, -1.00, 691.2, 391.0)">9</text><text xml:space="preserve" font-family="Helvetica-Light" font-size="15.0" fill="#52575F" transform="matrix(1.00, 0.00, -0.00, -1.00, 699.5, 391.0)">f</text><path d="M 347.5 486.2 L 431.2 486.2 L 431.2 449.2 L 347.5 449.2 Z M 347.5 486.2 " fill="#FEFFFF"></path><g><clipPath id="clip-74"><path d="M 345.5 447.2 L 433.2 447.2 L 433.2 488.2 L 345.5 488.2 Z M 345.5 447.2 "></path></clipPath><g clip-path="url(#clip-74)"><text xml:space="preserve" font-family="Helvetica-Light" font-size="24.0" fill="#52575F" transform="matrix(1.00, 0.00, -0.00, -1.00, 352.0, 459.0)">n</text><text xml:space="preserve" font-family="Helvetica-Light" font-size="24.0" fill="#52575F" transform="matrix(1.00, 0.00, -0.00, -1.00, 365.3, 459.0)">e</text><text xml:space="preserve" font-family="Helvetica-Light" font-size="24.0" fill="#52575F" transform="matrix(1.00, 0.00, -0.00, -1.00, 378.7, 459.0)">w</text><text xml:space="preserve" font-family="Helvetica-Light" font-size="24.0" fill="#52575F" transform="matrix(1.00, 0.00, -0.00, -1.00, 394.7, 459.0)">.</text><text xml:space="preserve" font-family="Helvetica-Light" font-size="24.0" fill="#52575F" transform="matrix(1.00, 0.00, -0.00, -1.00, 401.4, 459.0)">t</text><text xml:space="preserve" font-family="Helvetica-Light" font-size="24.0" fill="#52575F" transform="matrix(1.00, 0.00, -0.00, -1.00, 408.0, 459.0)">x</text><text xml:space="preserve" font-family="Helvetica-Light" font-size="24.0" fill="#52575F" transform="matrix(1.00, 0.00, -0.00, -1.00, 420.0, 459.0)">t</text></g></g><text xml:space="preserve" font-family="Helvetica-Bold" font-weight="bold" font-size="36.0" fill="#000000" transform="matrix(1.00, 0.00, -0.00, -1.00, 201.0, 689.0)">G</text><text xml:space="preserve" font-family="Helvetica-Bold" font-weight="bold" font-size="36.0" fill="#000000" transform="matrix(1.00, 0.00, -0.00, -1.00, 229.0, 689.0)">i</text><text xml:space="preserve" font-family="Helvetica-Bold" font-weight="bold" font-size="36.0" fill="#000000" transform="matrix(1.00, 0.00, -0.00, -1.00, 239.0, 689.0)">t</text><text xml:space="preserve" font-family="Helvetica-Bold" font-weight="bold" font-size="36.0" fill="#000000" transform="matrix(1.00, 0.00, -0.00, -1.00, 251.0, 689.0)"> </text><text xml:space="preserve" font-family="Helvetica-Bold" font-weight="bold" font-size="36.0" fill="#000000" transform="matrix(1.00, 0.00, -0.00, -1.00, 261.0, 689.0)">T</text><text xml:space="preserve" font-family="Helvetica-Bold" font-weight="bold" font-size="36.0" fill="#000000" transform="matrix(1.00, 0.00, -0.00, -1.00, 281.0, 689.0)">r</text><text xml:space="preserve" font-family="Helvetica-Bold" font-weight="bold" font-size="36.0" fill="#000000" transform="matrix(1.00, 0.00, -0.00, -1.00, 295.0, 689.0)">e</text><text xml:space="preserve" font-family="Helvetica-Bold" font-weight="bold" font-size="36.0" fill="#000000" transform="matrix(1.00, 0.00, -0.00, -1.00, 315.0, 689.0)">e</text><text xml:space="preserve" font-family="Helvetica-Bold" font-weight="bold" font-size="36.0" fill="#000000" transform="matrix(1.00, 0.00, -0.00, -1.00, 335.1, 689.0)">s</text><text xml:space="preserve" font-family="Helvetica-Bold" font-weight="bold" font-size="36.0" fill="#000000" transform="matrix(1.00, 0.00, -0.00, -1.00, 355.1, 689.0)">:</text><text xml:space="preserve" font-family="Helvetica-Bold" font-weight="bold" font-size="36.0" fill="#000000" transform="matrix(1.00, 0.00, -0.00, -1.00, 367.1, 689.0)"> </text><text xml:space="preserve" font-family="Helvetica-Bold" font-weight="bold" font-size="36.0" fill="#000000" transform="matrix(1.00, 0.00, -0.00, -1.00, 377.1, 689.0)">N</text><text xml:space="preserve" font-family="Helvetica-Bold" font-weight="bold" font-size="36.0" fill="#000000" transform="matrix(1.00, 0.00, -0.00, -1.00, 403.1, 689.0)">a</text><text xml:space="preserve" font-family="Helvetica-Bold" font-weight="bold" font-size="36.0" fill="#000000" transform="matrix(1.00, 0.00, -0.00, -1.00, 423.1, 689.0)">m</text><text xml:space="preserve" font-family="Helvetica-Bold" font-weight="bold" font-size="36.0" fill="#000000" transform="matrix(1.00, 0.00, -0.00, -1.00, 455.1, 689.0)">e</text><text xml:space="preserve" font-family="Helvetica-Bold" font-weight="bold" font-size="36.0" fill="#000000" transform="matrix(1.00, 0.00, -0.00, -1.00, 475.2, 689.0)">s</text><text xml:space="preserve" font-family="Helvetica-Bold" font-weight="bold" font-size="36.0" fill="#000000" transform="matrix(1.00, 0.00, -0.00, -1.00, 495.2, 689.0)"> </text><text xml:space="preserve" font-family="Helvetica-Bold" font-weight="bold" font-size="36.0" fill="#000000" transform="matrix(1.00, 0.00, -0.00, -1.00, 505.2, 689.0)">M</text><text xml:space="preserve" font-family="Helvetica-Bold" font-weight="bold" font-size="36.0" fill="#000000" transform="matrix(1.00, 0.00, -0.00, -1.00, 535.2, 689.0)">a</text><text xml:space="preserve" font-family="Helvetica-Bold" font-weight="bold" font-size="36.0" fill="#000000" transform="matrix(1.00, 0.00, -0.00, -1.00, 555.2, 689.0)">p</text><text xml:space="preserve" font-family="Helvetica-Bold" font-weight="bold" font-size="36.0" fill="#000000" transform="matrix(1.00, 0.00, -0.00, -1.00, 577.2, 689.0)">p</text><text xml:space="preserve" font-family="Helvetica-Bold" font-weight="bold" font-size="36.0" fill="#000000" transform="matrix(1.00, 0.00, -0.00, -1.00, 599.2, 689.0)">e</text><text xml:space="preserve" font-family="Helvetica-Bold" font-weight="bold" font-size="36.0" fill="#000000" transform="matrix(1.00, 0.00, -0.00, -1.00, 619.2, 689.0)">d</text><text xml:space="preserve" font-family="Helvetica-Bold" font-weight="bold" font-size="36.0" fill="#000000" transform="matrix(1.00, 0.00, -0.00, -1.00, 641.2, 689.0)"> </text><text xml:space="preserve" font-family="Helvetica-Bold" font-weight="bold" font-size="36.0" fill="#000000" transform="matrix(1.00, 0.00, -0.00, -1.00, 651.2, 689.0)">t</text><text xml:space="preserve" font-family="Helvetica-Bold" font-weight="bold" font-size="36.0" fill="#000000" transform="matrix(1.00, 0.00, -0.00, -1.00, 663.2, 689.0)">o</text><text xml:space="preserve" font-family="Helvetica-Bold" font-weight="bold" font-size="36.0" fill="#000000" transform="matrix(1.00, 0.00, -0.00, -1.00, 685.1, 689.0)"> </text><text xml:space="preserve" font-family="Helvetica-Bold" font-weight="bold" font-size="36.0" fill="#000000" transform="matrix(1.00, 0.00, -0.00, -1.00, 695.1, 689.0)">H</text><text xml:space="preserve" font-family="Helvetica-Bold" font-weight="bold" font-size="36.0" fill="#000000" transform="matrix(1.00, 0.00, -0.00, -1.00, 721.1, 689.0)">a</text><text xml:space="preserve" font-family="Helvetica-Bold" font-weight="bold" font-size="36.0" fill="#000000" transform="matrix(1.00, 0.00, -0.00, -1.00, 741.2, 689.0)">s</text><text xml:space="preserve" font-family="Helvetica-Bold" font-weight="bold" font-size="36.0" fill="#000000" transform="matrix(1.00, 0.00, -0.00, -1.00, 761.2, 689.0)">h</text><text xml:space="preserve" font-family="Helvetica-Bold" font-weight="bold" font-size="36.0" fill="#000000" transform="matrix(1.00, 0.00, -0.00, -1.00, 783.2, 689.0)">e</text><text xml:space="preserve" font-family="Helvetica-Bold" font-weight="bold" font-size="36.0" fill="#000000" transform="matrix(1.00, 0.00, -0.00, -1.00, 803.2, 689.0)">s</text><path d="M 580.5 486.2 L 629.5 486.2 L 629.5 449.2 L 580.5 449.2 Z M 580.5 486.2 " fill="#FEFFFF"></path><g><clipPath id="clip-75"><path d="M 578.5 447.2 L 631.5 447.2 L 631.5 488.2 L 578.5 488.2 Z M 578.5 447.2 "></path></clipPath><g clip-path="url(#clip-75)"><text xml:space="preserve" font-family="Helvetica-Light" font-size="24.0" fill="#52575F" transform="matrix(1.00, 0.00, -0.00, -1.00, 585.0, 459.0)">b</text><text xml:space="preserve" font-family="Helvetica-Light" font-size="24.0" fill="#52575F" transform="matrix(1.00, 0.00, -0.00, -1.00, 599.7, 459.0)">a</text><text xml:space="preserve" font-family="Helvetica-Light" font-size="24.0" fill="#52575F" transform="matrix(1.00, 0.00, -0.00, -1.00, 613.0, 459.0)">k</text></g></g><path d="M 464.1 486.2 L 543.8 486.2 L 543.8 449.2 L 464.1 449.2 Z M 464.1 486.2 " fill="#FEFFFF"></path><g><clipPath id="clip-76"><path d="M 462.1 447.2 L 545.8 447.2 L 545.8 488.2 L 462.1 488.2 Z M 462.1 447.2 "></path></clipPath><g clip-path="url(#clip-76)"><text xml:space="preserve" font-family="Helvetica-Light" font-size="24.0" fill="#52575F" transform="matrix(1.00, 0.00, -0.00, -1.00, 469.0, 459.0)">t</text><text xml:space="preserve" font-family="Helvetica-Light" font-size="24.0" fill="#52575F" transform="matrix(1.00, 0.00, -0.00, -1.00, 475.7, 459.0)">e</text><text xml:space="preserve" font-family="Helvetica-Light" font-size="24.0" fill="#52575F" transform="matrix(1.00, 0.00, -0.00, -1.00, 489.0, 459.0)">s</text><text xml:space="preserve" font-family="Helvetica-Light" font-size="24.0" fill="#52575F" transform="matrix(1.00, 0.00, -0.00, -1.00, 501.0, 459.0)">t</text><text xml:space="preserve" font-family="Helvetica-Light" font-size="24.0" fill="#52575F" transform="matrix(1.00, 0.00, -0.00, -1.00, 507.7, 459.0)">.</text><text xml:space="preserve" font-family="Helvetica-Light" font-size="24.0" fill="#52575F" transform="matrix(1.00, 0.00, -0.00, -1.00, 514.4, 459.0)">t</text><text xml:space="preserve" font-family="Helvetica-Light" font-size="24.0" fill="#52575F" transform="matrix(1.00, 0.00, -0.00, -1.00, 521.0, 459.0)">x</text><text xml:space="preserve" font-family="Helvetica-Light" font-size="24.0" fill="#52575F" transform="matrix(1.00, 0.00, -0.00, -1.00, 533.0, 459.0)">t</text></g></g><path d="M 643.7 289.1 L 723.4 289.1 L 723.4 252.1 L 643.7 252.1 Z M 643.7 289.1 " fill="#FEFFFF"></path><g><clipPath id="clip-77"><path d="M 641.7 250.1 L 725.4 250.1 L 725.4 291.1 L 641.7 291.1 Z M 641.7 250.1 "></path></clipPath><g clip-path="url(#clip-77)"><text xml:space="preserve" font-family="Helvetica-Light" font-size="24.0" fill="#52575F" transform="matrix(1.00, 0.00, -0.00, -1.00, 648.0, 262.0)">t</text><text xml:space="preserve" font-family="Helvetica-Light" font-size="24.0" fill="#52575F" transform="matrix(1.00, 0.00, -0.00, -1.00, 654.7, 262.0)">e</text><text xml:space="preserve" font-family="Helvetica-Light" font-size="24.0" fill="#52575F" transform="matrix(1.00, 0.00, -0.00, -1.00, 668.0, 262.0)">s</text><text xml:space="preserve" font-family="Helvetica-Light" font-size="24.0" fill="#52575F" transform="matrix(1.00, 0.00, -0.00, -1.00, 680.0, 262.0)">t</text><text xml:space="preserve" font-family="Helvetica-Light" font-size="24.0" fill="#52575F" transform="matrix(1.00, 0.00, -0.00, -1.00, 686.7, 262.0)">.</text><text xml:space="preserve" font-family="Helvetica-Light" font-size="24.0" fill="#52575F" transform="matrix(1.00, 0.00, -0.00, -1.00, 693.4, 262.0)">t</text><text xml:space="preserve" font-family="Helvetica-Light" font-size="24.0" fill="#52575F" transform="matrix(1.00, 0.00, -0.00, -1.00, 700.0, 262.0)">x</text><text xml:space="preserve" font-family="Helvetica-Light" font-size="24.0" fill="#52575F" transform="matrix(1.00, 0.00, -0.00, -1.00, 712.0, 262.0)">t</text></g></g><text xml:space="preserve" font-family="Helvetica-Light" font-size="36.0" fill="#000000" transform="matrix(1.00, 0.00, -0.00, -1.00, 86.0, 635.0)">G</text><text xml:space="preserve" font-family="Helvetica-Light" font-size="36.0" fill="#000000" transform="matrix(1.00, 0.00, -0.00, -1.00, 114.0, 635.0)">i</text><text xml:space="preserve" font-family="Helvetica-Light" font-size="36.0" fill="#000000" transform="matrix(1.00, 0.00, -0.00, -1.00, 122.0, 635.0)">t</text><text xml:space="preserve" font-family="Helvetica-Light" font-size="36.0" fill="#000000" transform="matrix(1.00, 0.00, -0.00, -1.00, 132.0, 635.0)"> </text><text xml:space="preserve" font-family="Helvetica-Light" font-size="36.0" fill="#000000" transform="matrix(1.00, 0.00, -0.00, -1.00, 142.0, 635.0)">t</text><text xml:space="preserve" font-family="Helvetica-Light" font-size="36.0" fill="#000000" transform="matrix(1.00, 0.00, -0.00, -1.00, 152.0, 635.0)">r</text><text xml:space="preserve" font-family="Helvetica-Light" font-size="36.0" fill="#000000" transform="matrix(1.00, 0.00, -0.00, -1.00, 163.4, 635.0)">e</text><text xml:space="preserve" font-family="Helvetica-Light" font-size="36.0" fill="#000000" transform="matrix(1.00, 0.00, -0.00, -1.00, 183.4, 635.0)">e</text><text xml:space="preserve" font-family="Helvetica-Light" font-size="36.0" fill="#000000" transform="matrix(1.00, 0.00, -0.00, -1.00, 203.4, 635.0)">s</text><text xml:space="preserve" font-family="Helvetica-Light" font-size="36.0" fill="#000000" transform="matrix(1.00, 0.00, -0.00, -1.00, 221.4, 635.0)"> </text><text xml:space="preserve" font-family="Helvetica-Light" font-size="36.0" fill="#000000" transform="matrix(1.00, 0.00, -0.00, -1.00, 231.4, 635.0)">l</text><text xml:space="preserve" font-family="Helvetica-Light" font-size="36.0" fill="#000000" transform="matrix(1.00, 0.00, -0.00, -1.00, 239.4, 635.0)">e</text><text xml:space="preserve" font-family="Helvetica-Light" font-size="36.0" fill="#000000" transform="matrix(1.00, 0.00, -0.00, -1.00, 259.4, 635.0)">t</text><text xml:space="preserve" font-family="Helvetica-Light" font-size="36.0" fill="#000000" transform="matrix(1.00, 0.00, -0.00, -1.00, 269.4, 635.0)"> </text><text xml:space="preserve" font-family="Helvetica-Light" font-size="36.0" fill="#000000" transform="matrix(1.00, 0.00, -0.00, -1.00, 279.4, 635.0)">y</text><text xml:space="preserve" font-family="Helvetica-Light" font-size="36.0" fill="#000000" transform="matrix(1.00, 0.00, -0.00, -1.00, 297.4, 635.0)">o</text><text xml:space="preserve" font-family="Helvetica-Light" font-size="36.0" fill="#000000" transform="matrix(1.00, 0.00, -0.00, -1.00, 317.4, 635.0)">u</text><text xml:space="preserve" font-family="Helvetica-Light" font-size="36.0" fill="#000000" transform="matrix(1.00, 0.00, -0.00, -1.00, 337.5, 635.0)"> </text><text xml:space="preserve" font-family="Helvetica-Light" font-size="36.0" fill="#000000" transform="matrix(1.00, 0.00, -0.00, -1.00, 347.5, 635.0)">a</text><text xml:space="preserve" font-family="Helvetica-Light" font-size="36.0" fill="#000000" transform="matrix(1.00, 0.00, -0.00, -1.00, 367.5, 635.0)">s</text><text xml:space="preserve" font-family="Helvetica-Light" font-size="36.0" fill="#000000" transform="matrix(1.00, 0.00, -0.00, -1.00, 385.5, 635.0)">s</text><text xml:space="preserve" font-family="Helvetica-Light" font-size="36.0" fill="#000000" transform="matrix(1.00, 0.00, -0.00, -1.00, 403.5, 635.0)">i</text><text xml:space="preserve" font-family="Helvetica-Light" font-size="36.0" fill="#000000" transform="matrix(1.00, 0.00, -0.00, -1.00, 411.5, 635.0)">g</text><text xml:space="preserve" font-family="Helvetica-Light" font-size="36.0" fill="#000000" transform="matrix(1.00, 0.00, -0.00, -1.00, 433.5, 635.0)">n</text><text xml:space="preserve" font-family="Helvetica-Light" font-size="36.0" fill="#000000" transform="matrix(1.00, 0.00, -0.00, -1.00, 453.5, 635.0)"> </text><text xml:space="preserve" font-family="Helvetica-Light" font-size="36.0" fill="#000000" transform="matrix(1.00, 0.00, -0.00, -1.00, 463.5, 635.0)">n</text><text xml:space="preserve" font-family="Helvetica-Light" font-size="36.0" fill="#000000" transform="matrix(1.00, 0.00, -0.00, -1.00, 483.5, 635.0)">a</text><text xml:space="preserve" font-family="Helvetica-Light" font-size="36.0" fill="#000000" transform="matrix(1.00, 0.00, -0.00, -1.00, 503.5, 635.0)">m</text><text xml:space="preserve" font-family="Helvetica-Light" font-size="36.0" fill="#000000" transform="matrix(1.00, 0.00, -0.00, -1.00, 533.5, 635.0)">e</text><text xml:space="preserve" font-family="Helvetica-Light" font-size="36.0" fill="#000000" transform="matrix(1.00, 0.00, -0.00, -1.00, 553.5, 635.0)">s</text><text xml:space="preserve" font-family="Helvetica-Light" font-size="36.0" fill="#000000" transform="matrix(1.00, 0.00, -0.00, -1.00, 571.5, 635.0)"> </text><text xml:space="preserve" font-family="Helvetica-Light" font-size="36.0" fill="#000000" transform="matrix(1.00, 0.00, -0.00, -1.00, 581.5, 635.0)">t</text><text xml:space="preserve" font-family="Helvetica-Light" font-size="36.0" fill="#000000" transform="matrix(1.00, 0.00, -0.00, -1.00, 591.5, 635.0)">o</text><text xml:space="preserve" font-family="Helvetica-Light" font-size="36.0" fill="#000000" transform="matrix(1.00, 0.00, -0.00, -1.00, 611.6, 635.0)"> </text><text xml:space="preserve" font-family="Helvetica-Light" font-size="36.0" fill="#000000" transform="matrix(1.00, 0.00, -0.00, -1.00, 621.6, 635.0)">t</text><text xml:space="preserve" font-family="Helvetica-Light" font-size="36.0" fill="#000000" transform="matrix(1.00, 0.00, -0.00, -1.00, 631.6, 635.0)">h</text><text xml:space="preserve" font-family="Helvetica-Light" font-size="36.0" fill="#000000" transform="matrix(1.00, 0.00, -0.00, -1.00, 651.6, 635.0)">o</text><text xml:space="preserve" font-family="Helvetica-Light" font-size="36.0" fill="#000000" transform="matrix(1.00, 0.00, -0.00, -1.00, 671.6, 635.0)">s</text><text xml:space="preserve" font-family="Helvetica-Light" font-size="36.0" fill="#000000" transform="matrix(1.00, 0.00, -0.00, -1.00, 689.6, 635.0)">e</text><text xml:space="preserve" font-family="Helvetica-Light" font-size="36.0" fill="#000000" transform="matrix(1.00, 0.00, -0.00, -1.00, 709.6, 635.0)"> </text><text xml:space="preserve" font-family="Helvetica-Light" font-size="36.0" fill="#000000" transform="matrix(1.00, 0.00, -0.00, -1.00, 719.6, 635.0)">S</text><text xml:space="preserve" font-family="Helvetica-Light" font-size="36.0" fill="#000000" transform="matrix(1.00, 0.00, -0.00, -1.00, 741.6, 635.0)">H</text><text xml:space="preserve" font-family="Helvetica-Light" font-size="36.0" fill="#000000" transform="matrix(1.00, 0.00, -0.00, -1.00, 767.6, 635.0)">A</text><text xml:space="preserve" font-family="Helvetica-Light" font-size="36.0" fill="#000000" transform="matrix(1.00, 0.00, -0.00, -1.00, 791.6, 635.0)">1</text><text xml:space="preserve" font-family="Helvetica-Light" font-size="36.0" fill="#000000" transform="matrix(1.00, 0.00, -0.00, -1.00, 811.7, 635.0)"> </text><text xml:space="preserve" font-family="Helvetica-Light" font-size="36.0" fill="#000000" transform="matrix(1.00, 0.00, -0.00, -1.00, 821.7, 635.0)">h</text><text xml:space="preserve" font-family="Helvetica-Light" font-size="36.0" fill="#000000" transform="matrix(1.00, 0.00, -0.00, -1.00, 841.7, 635.0)">a</text><text xml:space="preserve" font-family="Helvetica-Light" font-size="36.0" fill="#000000" transform="matrix(1.00, 0.00, -0.00, -1.00, 861.7, 635.0)">s</text><text xml:space="preserve" font-family="Helvetica-Light" font-size="36.0" fill="#000000" transform="matrix(1.00, 0.00, -0.00, -1.00, 879.7, 635.0)">h</text><text xml:space="preserve" font-family="Helvetica-Light" font-size="36.0" fill="#000000" transform="matrix(1.00, 0.00, -0.00, -1.00, 899.7, 635.0)">e</text><text xml:space="preserve" font-family="Helvetica-Light" font-size="36.0" fill="#000000" transform="matrix(1.00, 0.00, -0.00, -1.00, 919.7, 635.0)">s</text><text xml:space="preserve" font-family="Helvetica-Light" font-size="36.0" fill="#52575F" transform="matrix(1.00, 0.00, -0.00, -1.00, 302.0, 67.0)">F</text><text xml:space="preserve" font-family="Helvetica-Light" font-size="36.0" fill="#52575F" transform="matrix(1.00, 0.00, -0.00, -1.00, 322.0, 67.0)">i</text><text xml:space="preserve" font-family="Helvetica-Light" font-size="36.0" fill="#52575F" transform="matrix(1.00, 0.00, -0.00, -1.00, 330.0, 67.0)">g</text><text xml:space="preserve" font-family="Helvetica-Light" font-size="36.0" fill="#52575F" transform="matrix(1.00, 0.00, -0.00, -1.00, 352.0, 67.0)"> </text><text xml:space="preserve" font-family="Helvetica-Light" font-size="36.0" fill="#52575F" transform="matrix(1.00, 0.00, -0.00, -1.00, 362.0, 67.0)">1</text><text xml:space="preserve" font-family="Helvetica-Light" font-size="36.0" fill="#52575F" transform="matrix(1.00, 0.00, -0.00, -1.00, 382.0, 67.0)">0</text><text xml:space="preserve" font-family="Helvetica-Light" font-size="36.0" fill="#52575F" transform="matrix(1.00, 0.00, -0.00, -1.00, 402.0, 67.0)">.</text><text xml:space="preserve" font-family="Helvetica-Light" font-size="36.0" fill="#52575F" transform="matrix(1.00, 0.00, -0.00, -1.00, 412.1, 67.0)">2</text><text xml:space="preserve" font-family="Helvetica-Light" font-size="36.0" fill="#52575F" transform="matrix(1.00, 0.00, -0.00, -1.00, 432.1, 67.0)"> </text><text xml:space="preserve" font-family="Helvetica-Light" font-size="36.0" fill="#52575F" transform="matrix(1.00, 0.00, -0.00, -1.00, 442.1, 67.0)">f</text><text xml:space="preserve" font-family="Helvetica-Light" font-size="36.0" fill="#52575F" transform="matrix(1.00, 0.00, -0.00, -1.00, 452.1, 67.0)">r</text><text xml:space="preserve" font-family="Helvetica-Light" font-size="36.0" fill="#52575F" transform="matrix(1.00, 0.00, -0.00, -1.00, 463.4, 67.0)">o</text><text xml:space="preserve" font-family="Helvetica-Light" font-size="36.0" fill="#52575F" transform="matrix(1.00, 0.00, -0.00, -1.00, 483.4, 67.0)">m</text><text xml:space="preserve" font-family="Helvetica-Light" font-size="36.0" fill="#52575F" transform="matrix(1.00, 0.00, -0.00, -1.00, 513.4, 67.0)"> </text><text xml:space="preserve" font-family="Helvetica-Light" font-size="36.0" fill="#52575F" transform="matrix(1.00, 0.00, -0.00, -1.00, 523.4, 67.0)">t</text><text xml:space="preserve" font-family="Helvetica-Light" font-size="36.0" fill="#52575F" transform="matrix(1.00, 0.00, -0.00, -1.00, 533.4, 67.0)">h</text><text xml:space="preserve" font-family="Helvetica-Light" font-size="36.0" fill="#52575F" transform="matrix(1.00, 0.00, -0.00, -1.00, 553.5, 67.0)">e</text><text xml:space="preserve" font-family="Helvetica-Light" font-size="36.0" fill="#52575F" transform="matrix(1.00, 0.00, -0.00, -1.00, 573.5, 67.0)"> </text><text xml:space="preserve" font-family="Helvetica-Light" font-size="36.0" fill="#52575F" transform="matrix(1.00, 0.00, -0.00, -1.00, 583.5, 67.0)">G</text><text xml:space="preserve" font-family="Helvetica-Light" font-size="36.0" fill="#52575F" transform="matrix(1.00, 0.00, -0.00, -1.00, 611.5, 67.0)">i</text><text xml:space="preserve" font-family="Helvetica-Light" font-size="36.0" fill="#52575F" transform="matrix(1.00, 0.00, -0.00, -1.00, 619.5, 67.0)">t</text><text xml:space="preserve" font-family="Helvetica-Light" font-size="36.0" fill="#52575F" transform="matrix(1.00, 0.00, -0.00, -1.00, 629.5, 67.0)"> </text><text xml:space="preserve" font-family="Helvetica-Light" font-size="36.0" fill="#52575F" transform="matrix(1.00, 0.00, -0.00, -1.00, 639.5, 67.0)">B</text><text xml:space="preserve" font-family="Helvetica-Light" font-size="36.0" fill="#52575F" transform="matrix(1.00, 0.00, -0.00, -1.00, 663.5, 67.0)">o</text><text xml:space="preserve" font-family="Helvetica-Light" font-size="36.0" fill="#52575F" transform="matrix(1.00, 0.00, -0.00, -1.00, 683.5, 67.0)">o</text><text xml:space="preserve" font-family="Helvetica-Light" font-size="36.0" fill="#52575F" transform="matrix(1.00, 0.00, -0.00, -1.00, 703.5, 67.0)">k</text><g><clipPath id="clip-78"><path d="M 301.2 62.5 L 721.8 62.5 L 721.8 66.3 L 301.2 66.3 Z M 301.2 62.5 "></path></clipPath><g clip-path="url(#clip-78)"><path d="M 4.5 41.4 L 424.0 41.4 " fill="none" stroke="#52575F" stroke-width="1.80" stroke-miterlimit="0.00" transform="matrix(1.00, 0.00, 0.00, -1.00, 297.7, 105.8)"></path></g></g></g></svg>