<?xml version="1.0" encoding="UTF-8" standalone="no"?><svg xmlns="http://www.w3.org/2000/svg" xmlns:xlink="http://www.w3.org/1999/xlink" clip-rule="evenodd" stroke-miterlimit="4.00" viewBox="0 0 1024 768"><desc>SVG generated by Keynote</desc><defs></defs><g transform="matrix(1.00, 0.00, -0.00, -1.00, 0.0, 768.0)"><path d="M 0.0 768.0 L 1024.0 768.0 L 1024.0 0.0 L 0.0 0.0 Z M 0.0 768.0 " fill="#FEFFFF"></path><text xml:space="preserve" font-family="Arial-BoldMT" font-weight="bold" font-size="36.0" fill="#000000" transform="matrix(1.00, 0.00, -0.00, -1.00, 334.0, 719.0)">R</text><text xml:space="preserve" font-family="Arial-BoldMT" font-weight="bold" font-size="36.0" fill="#000000" transform="matrix(1.00, 0.00, -0.00, -1.00, 360.0, 719.0)">e</text><text xml:space="preserve" font-family="Arial-BoldMT" font-weight="bold" font-size="36.0" fill="#000000" transform="matrix(1.00, 0.00, -0.00, -1.00, 380.0, 719.0)">p</text><text xml:space="preserve" font-family="Arial-BoldMT" font-weight="bold" font-size="36.0" fill="#000000" transform="matrix(1.00, 0.00, -0.00, -1.00, 402.0, 719.0)">l</text><text xml:space="preserve" font-family="Arial-BoldMT" font-weight="bold" font-size="36.0" fill="#000000" transform="matrix(1.00, 0.00, -0.00, -1.00, 412.0, 719.0)">i</text><text xml:space="preserve" font-family="Arial-BoldMT" font-weight="bold" font-size="36.0" fill="#000000" transform="matrix(1.00, 0.00, -0.00, -1.00, 422.0, 719.0)">c</text><text xml:space="preserve" font-family="Arial-BoldMT" font-weight="bold" font-size="36.0" fill="#000000" transform="matrix(1.00, 0.00, -0.00, -1.00, 442.0, 719.0)">a</text><text xml:space="preserve" font-family="Arial-BoldMT" font-weight="bold" font-size="36.0" fill="#000000" transform="matrix(1.00, 0.00, -0.00, -1.00, 462.1, 719.0)">t</text><text xml:space="preserve" font-family="Arial-BoldMT" font-weight="bold" font-size="36.0" fill="#000000" transform="matrix(1.00, 0.00, -0.00, -1.00, 474.1, 719.0)">i</text><text xml:space="preserve" font-family="Arial-BoldMT" font-weight="bold" font-size="36.0" fill="#000000" transform="matrix(1.00, 0.00, -0.00, -1.00, 484.0, 719.0)">n</text><text xml:space="preserve" font-family="Arial-BoldMT" font-weight="bold" font-size="36.0" fill="#000000" transform="matrix(1.00, 0.00, -0.00, -1.00, 506.0, 719.0)">g</text><text xml:space="preserve" font-family="Arial-BoldMT" font-weight="bold" font-size="36.0" fill="#000000" transform="matrix(1.00, 0.00, -0.00, -1.00, 528.0, 719.0)"> </text><text xml:space="preserve" font-family="Arial-BoldMT" font-weight="bold" font-size="36.0" fill="#000000" transform="matrix(1.00, 0.00, -0.00, -1.00, 538.0, 719.0)">S</text><text xml:space="preserve" font-family="Arial-BoldMT" font-weight="bold" font-size="36.0" fill="#000000" transform="matrix(1.00, 0.00, -0.00, -1.00, 562.0, 719.0)">S</text><text xml:space="preserve" font-family="Arial-BoldMT" font-weight="bold" font-size="36.0" fill="#000000" transform="matrix(1.00, 0.00, -0.00, -1.00, 586.0, 719.0)">t</text><text xml:space="preserve" font-family="Arial-BoldMT" font-weight="bold" font-size="36.0" fill="#000000" transform="matrix(1.00, 0.00, -0.00, -1.00, 598.0, 719.0)">a</text><text xml:space="preserve" font-family="Arial-BoldMT" font-weight="bold" font-size="36.0" fill="#000000" transform="matrix(1.00, 0.00, -0.00, -1.00, 618.0, 719.0)">b</text><text xml:space="preserve" font-family="Arial-BoldMT" font-weight="bold" font-size="36.0" fill="#000000" transform="matrix(1.00, 0.00, -0.00, -1.00, 640.0, 719.0)">l</text><text xml:space="preserve" font-family="Arial-BoldMT" font-weight="bold" font-size="36.0" fill="#000000" transform="matrix(1.00, 0.00, -0.00, -1.00, 650.0, 719.0)">e</text><text xml:space="preserve" font-family="Arial-BoldMT" font-weight="bold" font-size="36.0" fill="#000000" transform="matrix(1.00, 0.00, -0.00, -1.00, 670.1, 719.0)">s</text><text xml:space="preserve" font-family="Arial-BoldMT" font-weight="bold" font-size="36.0" fill="#000000" transform="matrix(1.00, 0.00, -0.00, -1.00, 690.1, 719.0)"> </text><text xml:space="preserve" font-family="Arial-BoldMT" font-weight="bold" font-size="36.0" fill="#000000" transform="matrix(1.00, 0.00, -0.00, -1.00, 700.1, 719.0)"> </text><text xml:space="preserve" font-family="Arial-BoldMT" font-weight="bold" font-size="36.0" fill="#000000" transform="matrix(1.00, 0.00, -0.00, -1.00, 379.0, 677.0)">w</text><text xml:space="preserve" font-family="Arial-BoldMT" font-weight="bold" font-size="36.0" fill="#000000" transform="matrix(1.00, 0.00, -0.00, -1.00, 407.0, 677.0)">i</text><text xml:space="preserve" font-family="Arial-BoldMT" font-weight="bold" font-size="36.0" fill="#000000" transform="matrix(1.00, 0.00, -0.00, -1.00, 417.0, 677.0)">t</text><text xml:space="preserve" font-family="Arial-BoldMT" font-weight="bold" font-size="36.0" fill="#000000" transform="matrix(1.00, 0.00, -0.00, -1.00, 429.0, 677.0)">h</text><text xml:space="preserve" font-family="Arial-BoldMT" font-weight="bold" font-size="36.0" fill="#000000" transform="matrix(1.00, 0.00, -0.00, -1.00, 451.0, 677.0)"> </text><text xml:space="preserve" font-family="Arial-BoldMT" font-weight="bold" font-size="36.0" fill="#000000" transform="matrix(1.00, 0.00, -0.00, -1.00, 461.0, 677.0)">h</text><text xml:space="preserve" font-family="Arial-BoldMT" font-weight="bold" font-size="36.0" fill="#000000" transform="matrix(1.00, 0.00, -0.00, -1.00, 482.9, 677.0)">y</text><text xml:space="preserve" font-family="Arial-BoldMT" font-weight="bold" font-size="36.0" fill="#000000" transform="matrix(1.00, 0.00, -0.00, -1.00, 503.0, 677.0)">p</text><text xml:space="preserve" font-family="Arial-BoldMT" font-weight="bold" font-size="36.0" fill="#000000" transform="matrix(1.00, 0.00, -0.00, -1.00, 525.0, 677.0)">e</text><text xml:space="preserve" font-family="Arial-BoldMT" font-weight="bold" font-size="36.0" fill="#000000" transform="matrix(1.00, 0.00, -0.00, -1.00, 545.0, 677.0)">r</text><text xml:space="preserve" font-family="Arial-BoldMT" font-weight="bold" font-size="36.0" fill="#000000" transform="matrix(1.00, 0.00, -0.00, -1.00, 559.0, 677.0)">d</text><text xml:space="preserve" font-family="Arial-BoldMT" font-weight="bold" font-size="36.0" fill="#000000" transform="matrix(1.00, 0.00, -0.00, -1.00, 581.0, 677.0)">r</text><text xml:space="preserve" font-family="Arial-BoldMT" font-weight="bold" font-size="36.0" fill="#000000" transform="matrix(1.00, 0.00, -0.00, -1.00, 595.0, 677.0)">i</text><text xml:space="preserve" font-family="Arial-BoldMT" font-weight="bold" font-size="36.0" fill="#000000" transform="matrix(1.00, 0.00, -0.00, -1.00, 605.0, 677.0)">v</text><text xml:space="preserve" font-family="Arial-BoldMT" font-weight="bold" font-size="36.0" fill="#000000" transform="matrix(1.00, 0.00, -0.00, -1.00, 625.0, 677.0)">e</text><image xlink:href="../../32F68395-000B-4172-8AF1-04A22A554CF0/assets/8C169B4827B283ADA9B8913E8EB29CF7.png" width="159.00" height="210.00" transform="matrix(0.74, 0.00, -0.00, -0.73, 165.0, 516.0)"></image><text xml:space="preserve" font-family="Helvetica-Light" font-size="24.0" fill="#000000" transform="matrix(1.00, 0.00, -0.00, -1.00, 149.0, 268.0)">S</text><text xml:space="preserve" font-family="Helvetica-Light" font-size="24.0" fill="#000000" transform="matrix(1.00, 0.00, -0.00, -1.00, 163.7, 268.0)">S</text><text xml:space="preserve" font-family="Helvetica-Light" font-size="24.0" fill="#000000" transform="matrix(1.00, 0.00, -0.00, -1.00, 178.3, 268.0)">T</text><text xml:space="preserve" font-family="Helvetica-Light" font-size="24.0" fill="#000000" transform="matrix(1.00, 0.00, -0.00, -1.00, 189.0, 268.0)">a</text><text xml:space="preserve" font-family="Helvetica-Light" font-size="24.0" fill="#000000" transform="matrix(1.00, 0.00, -0.00, -1.00, 202.4, 268.0)">b</text><text xml:space="preserve" font-family="Helvetica-Light" font-size="24.0" fill="#000000" transform="matrix(1.00, 0.00, -0.00, -1.00, 217.0, 268.0)">l</text><text xml:space="preserve" font-family="Helvetica-Light" font-size="24.0" fill="#000000" transform="matrix(1.00, 0.00, -0.00, -1.00, 222.3, 268.0)">e</text><path d="M 0.0 0.0 L 198.9 0.0 L 198.9 168.0 L 0.0 168.0 Z M 0.0 0.0 " fill="none" stroke="#A6AAA8" stroke-width="2.00" transform="matrix(1.00, 0.00, 0.00, -1.00, 132.2, 299.5)"></path><path d="M 0.0 0.0 L 198.9 0.0 L 198.9 168.0 L 0.0 168.0 Z M 0.0 0.0 " fill="none" stroke="#A6AAA8" stroke-width="2.00" transform="matrix(1.00, 0.00, 0.00, -1.00, 709.1, 299.5)"></path><g><clipPath id="clip-38609"><path d="M 152.5 263.5 L 316.5 263.5 L 316.5 197.5 L 152.5 197.5 Z M 152.5 263.5 "></path></clipPath><g clip-path="url(#clip-38609)"><path d="M 153.0 253.7 L 165.5 253.7 L 165.5 244.3 L 153.0 244.3 Z M 153.0 253.7 " fill="#6FBF40"></path><path d="M 165.5 253.7 L 178.1 253.7 L 178.1 244.3 L 165.5 244.3 Z M 165.5 253.7 " fill="#6FBF40"></path><path d="M 178.1 253.7 L 190.6 253.7 L 190.6 244.3 L 178.1 244.3 Z M 178.1 253.7 " fill="#6FBF40"></path><path d="M 190.6 253.7 L 203.2 253.7 L 203.2 244.3 L 190.6 244.3 Z M 190.6 253.7 " fill="#6FBF40"></path><path d="M 203.2 253.7 L 215.7 253.7 L 215.7 244.3 L 203.2 244.3 Z M 203.2 253.7 " fill="#6FBF40"></path><path d="M 215.7 253.7 L 228.2 253.7 L 228.2 244.3 L 215.7 244.3 Z M 215.7 253.7 " fill="#6FBF40"></path><path d="M 228.2 253.7 L 240.8 253.7 L 240.8 244.3 L 228.2 244.3 Z M 228.2 253.7 " fill="#6FBF40"></path><path d="M 240.8 253.7 L 253.3 253.7 L 253.3 244.3 L 240.8 244.3 Z M 240.8 253.7 " fill="#6FBF40"></path><path d="M 253.3 253.7 L 265.9 253.7 L 265.9 244.3 L 253.3 244.3 Z M 253.3 253.7 " fill="#6FBF40"></path><path d="M 265.9 253.7 L 278.4 253.7 L 278.4 244.3 L 265.9 244.3 Z M 265.9 253.7 " fill="#6FBF40"></path><path d="M 278.4 253.7 L 290.9 253.7 L 290.9 244.3 L 278.4 244.3 Z M 278.4 253.7 " fill="#6FBF40"></path><path d="M 290.9 253.7 L 303.5 253.7 L 303.5 244.3 L 290.9 244.3 Z M 290.9 253.7 " fill="#6FBF40"></path><path d="M 303.5 253.7 L 316.0 253.7 L 316.0 244.3 L 303.5 244.3 Z M 303.5 253.7 " fill="#6FBF40"></path><path d="M 153.0 244.3 L 165.5 244.3 L 165.5 235.0 L 153.0 235.0 Z M 153.0 244.3 " fill="#6FBF40"></path><path d="M 165.5 244.3 L 178.1 244.3 L 178.1 235.0 L 165.5 235.0 Z M 165.5 244.3 " fill="#6FBF40"></path><path d="M 178.1 244.3 L 190.6 244.3 L 190.6 235.0 L 178.1 235.0 Z M 178.1 244.3 " fill="#6FBF40"></path><path d="M 190.6 244.3 L 203.2 244.3 L 203.2 235.0 L 190.6 235.0 Z M 190.6 244.3 " fill="#6FBF40"></path><path d="M 203.2 244.3 L 215.7 244.3 L 215.7 235.0 L 203.2 235.0 Z M 203.2 244.3 " fill="#6FBF40"></path><path d="M 215.7 244.3 L 228.2 244.3 L 228.2 235.0 L 215.7 235.0 Z M 215.7 244.3 " fill="#6FBF40"></path><path d="M 228.2 244.3 L 240.8 244.3 L 240.8 235.0 L 228.2 235.0 Z M 228.2 244.3 " fill="#6FBF40"></path><path d="M 240.8 244.3 L 253.3 244.3 L 253.3 235.0 L 240.8 235.0 Z M 240.8 244.3 " fill="#6FBF40"></path><path d="M 253.3 244.3 L 265.9 244.3 L 265.9 235.0 L 253.3 235.0 Z M 253.3 244.3 " fill="#6FBF40"></path><path d="M 265.9 244.3 L 278.4 244.3 L 278.4 235.0 L 265.9 235.0 Z M 265.9 244.3 " fill="#6FBF40"></path><path d="M 278.4 244.3 L 290.9 244.3 L 290.9 235.0 L 278.4 235.0 Z M 278.4 244.3 " fill="#6FBF40"></path><path d="M 290.9 244.3 L 303.5 244.3 L 303.5 235.0 L 290.9 235.0 Z M 290.9 244.3 " fill="#6FBF40"></path><path d="M 303.5 244.3 L 316.0 244.3 L 316.0 235.0 L 303.5 235.0 Z M 303.5 244.3 " fill="#6FBF40"></path><path d="M 153.0 235.0 L 165.5 235.0 L 165.5 225.7 L 153.0 225.7 Z M 153.0 235.0 " fill="#6FBF40"></path><path d="M 165.5 235.0 L 178.1 235.0 L 178.1 225.7 L 165.5 225.7 Z M 165.5 235.0 " fill="#6FBF40"></path><path d="M 178.1 235.0 L 190.6 235.0 L 190.6 225.7 L 178.1 225.7 Z M 178.1 235.0 " fill="#6FBF40"></path><path d="M 190.6 235.0 L 203.2 235.0 L 203.2 225.7 L 190.6 225.7 Z M 190.6 235.0 " fill="#6FBF40"></path><path d="M 203.2 235.0 L 215.7 235.0 L 215.7 225.7 L 203.2 225.7 Z M 203.2 235.0 " fill="#6FBF40"></path><path d="M 215.7 235.0 L 228.2 235.0 L 228.2 225.7 L 215.7 225.7 Z M 215.7 235.0 " fill="#6FBF40"></path><path d="M 228.2 235.0 L 240.8 235.0 L 240.8 225.7 L 228.2 225.7 Z M 228.2 235.0 " fill="#6FBF40"></path><path d="M 240.8 235.0 L 253.3 235.0 L 253.3 225.7 L 240.8 225.7 Z M 240.8 235.0 " fill="#6FBF40"></path><path d="M 253.3 235.0 L 265.9 235.0 L 265.9 225.7 L 253.3 225.7 Z M 253.3 235.0 " fill="#6FBF40"></path><path d="M 265.9 235.0 L 278.4 235.0 L 278.4 225.7 L 265.9 225.7 Z M 265.9 235.0 " fill="#6FBF40"></path><path d="M 278.4 235.0 L 290.9 235.0 L 290.9 225.7 L 278.4 225.7 Z M 278.4 235.0 " fill="#6FBF40"></path><path d="M 290.9 235.0 L 303.5 235.0 L 303.5 225.7 L 290.9 225.7 Z M 290.9 235.0 " fill="#6FBF40"></path><path d="M 303.5 235.0 L 316.0 235.0 L 316.0 225.7 L 303.5 225.7 Z M 303.5 235.0 " fill="#6FBF40"></path><path d="M 153.0 225.7 L 165.5 225.7 L 165.5 216.4 L 153.0 216.4 Z M 153.0 225.7 " fill="#6FBF40"></path><path d="M 165.5 225.7 L 178.1 225.7 L 178.1 216.4 L 165.5 216.4 Z M 165.5 225.7 " fill="#6FBF40"></path><path d="M 178.1 225.7 L 190.6 225.7 L 190.6 216.4 L 178.1 216.4 Z M 178.1 225.7 " fill="#6FBF40"></path><path d="M 190.6 225.7 L 203.2 225.7 L 203.2 216.4 L 190.6 216.4 Z M 190.6 225.7 " fill="#6FBF40"></path><path d="M 203.2 225.7 L 215.7 225.7 L 215.7 216.4 L 203.2 216.4 Z M 203.2 225.7 " fill="#6FBF40"></path><path d="M 215.7 225.7 L 228.2 225.7 L 228.2 216.4 L 215.7 216.4 Z M 215.7 225.7 " fill="#6FBF40"></path><path d="M 228.2 225.7 L 240.8 225.7 L 240.8 216.4 L 228.2 216.4 Z M 228.2 225.7 " fill="#6FBF40"></path><path d="M 240.8 225.7 L 253.3 225.7 L 253.3 216.4 L 240.8 216.4 Z M 240.8 225.7 " fill="#6FBF40"></path><path d="M 253.3 225.7 L 265.9 225.7 L 265.9 216.4 L 253.3 216.4 Z M 253.3 225.7 " fill="#6FBF40"></path><path d="M 265.9 225.7 L 278.4 225.7 L 278.4 216.4 L 265.9 216.4 Z M 265.9 225.7 " fill="#6FBF40"></path><path d="M 278.4 225.7 L 290.9 225.7 L 290.9 216.4 L 278.4 216.4 Z M 278.4 225.7 " fill="#6FBF40"></path><path d="M 290.9 225.7 L 303.5 225.7 L 303.5 216.4 L 290.9 216.4 Z M 290.9 225.7 " fill="#6FBF40"></path><path d="M 303.5 225.7 L 316.0 225.7 L 316.0 216.4 L 303.5 216.4 Z M 303.5 225.7 " fill="#6FBF40"></path><path d="M 153.0 216.4 L 165.5 216.4 L 165.5 207.2 L 153.0 207.2 Z M 153.0 216.4 " fill="#6FBF40"></path><path d="M 165.5 216.4 L 178.1 216.4 L 178.1 207.2 L 165.5 207.2 Z M 165.5 216.4 " fill="#6FBF40"></path><path d="M 178.1 216.4 L 190.6 216.4 L 190.6 207.2 L 178.1 207.2 Z M 178.1 216.4 " fill="#6FBF40"></path><path d="M 190.6 216.4 L 203.2 216.4 L 203.2 207.2 L 190.6 207.2 Z M 190.6 216.4 " fill="#6FBF40"></path><path d="M 203.2 216.4 L 215.7 216.4 L 215.7 207.2 L 203.2 207.2 Z M 203.2 216.4 " fill="#6FBF40"></path><path d="M 215.7 216.4 L 228.2 216.4 L 228.2 207.2 L 215.7 207.2 Z M 215.7 216.4 " fill="#6FBF40"></path><path d="M 228.2 216.4 L 240.8 216.4 L 240.8 207.2 L 228.2 207.2 Z M 228.2 216.4 " fill="#6FBF40"></path><path d="M 240.8 216.4 L 253.3 216.4 L 253.3 207.2 L 240.8 207.2 Z M 240.8 216.4 " fill="#6FBF40"></path><path d="M 253.3 216.4 L 265.9 216.4 L 265.9 207.2 L 253.3 207.2 Z M 253.3 216.4 " fill="#6FBF40"></path><path d="M 265.9 216.4 L 278.4 216.4 L 278.4 207.2 L 265.9 207.2 Z M 265.9 216.4 " fill="#6FBF40"></path><path d="M 278.4 216.4 L 290.9 216.4 L 290.9 207.2 L 278.4 207.2 Z M 278.4 216.4 " fill="#6FBF40"></path><path d="M 290.9 216.4 L 303.5 216.4 L 303.5 207.2 L 290.9 207.2 Z M 290.9 216.4 " fill="#6FBF40"></path><path d="M 303.5 216.4 L 316.0 216.4 L 316.0 207.2 L 303.5 207.2 Z M 303.5 216.4 " fill="#6FBF40"></path><path d="M 153.0 207.2 L 165.5 207.2 L 165.5 198.0 L 153.0 198.0 Z M 153.0 207.2 " fill="#6FBF40"></path><path d="M 165.5 207.2 L 178.1 207.2 L 178.1 198.0 L 165.5 198.0 Z M 165.5 207.2 " fill="#6FBF40"></path><path d="M 178.1 207.2 L 190.6 207.2 L 190.6 198.0 L 178.1 198.0 Z M 178.1 207.2 " fill="#6FBF40"></path><path d="M 190.6 207.2 L 203.2 207.2 L 203.2 198.0 L 190.6 198.0 Z M 190.6 207.2 " fill="#6FBF40"></path><path d="M 203.2 207.2 L 215.7 207.2 L 215.7 198.0 L 203.2 198.0 Z M 203.2 207.2 " fill="#6FBF40"></path><path d="M 215.7 207.2 L 228.2 207.2 L 228.2 198.0 L 215.7 198.0 Z M 215.7 207.2 " fill="#6FBF40"></path><path d="M 228.2 207.2 L 240.8 207.2 L 240.8 198.0 L 228.2 198.0 Z M 228.2 207.2 " fill="#6FBF40"></path><path d="M 240.8 207.2 L 253.3 207.2 L 253.3 198.0 L 240.8 198.0 Z M 240.8 207.2 " fill="#6FBF40"></path><path d="M 253.3 207.2 L 265.9 207.2 L 265.9 198.0 L 253.3 198.0 Z M 253.3 207.2 " fill="#6FBF40"></path><path d="M 265.9 207.2 L 278.4 207.2 L 278.4 198.0 L 265.9 198.0 Z M 265.9 207.2 " fill="#6FBF40"></path><path d="M 278.4 207.2 L 290.9 207.2 L 290.9 198.0 L 278.4 198.0 Z M 278.4 207.2 " fill="#6FBF40"></path><path d="M 290.9 207.2 L 303.5 207.2 L 303.5 198.0 L 290.9 198.0 Z M 290.9 207.2 " fill="#6FBF40"></path><path d="M 303.5 207.2 L 316.0 207.2 L 316.0 198.0 L 303.5 198.0 Z M 303.5 207.2 " fill="#6FBF40"></path></g></g><g><clipPath id="clip-38610"><path d="M 152.5 263.5 L 316.5 263.5 L 316.5 197.5 L 152.5 197.5 Z M 152.5 263.5 "></path></clipPath><g clip-path="url(#clip-38610)"><g><clipPath id="clip-38611"><path d="M 152.5 253.2 L 316.5 253.2 L 316.5 254.2 L 152.5 254.2 Z M 152.5 253.2 "></path></clipPath><g clip-path="url(#clip-38611)"><path d="M 1.5 11.3 L 165.5 11.3 " fill="none" stroke="#52575F" stroke-width="1.00" stroke-dasharray="2.0, 2.0" transform="matrix(1.00, 0.00, 0.00, -1.00, 151.0, 265.0)"></path></g></g></g></g><g><clipPath id="clip-38612"><path d="M 152.5 263.5 L 316.5 263.5 L 316.5 197.5 L 152.5 197.5 Z M 152.5 263.5 "></path></clipPath><g clip-path="url(#clip-38612)"><path d="M 1.5 20.7 L 165.5 20.7 " fill="none" stroke="#52575F" stroke-width="1.00" transform="matrix(1.00, 0.00, 0.00, -1.00, 151.0, 265.0)"></path><path d="M 1.5 30.0 L 165.5 30.0 " fill="none" stroke="#52575F" stroke-width="1.00" transform="matrix(1.00, 0.00, 0.00, -1.00, 151.0, 265.0)"></path><path d="M 1.5 39.3 L 165.5 39.3 " fill="none" stroke="#52575F" stroke-width="1.00" transform="matrix(1.00, 0.00, 0.00, -1.00, 151.0, 265.0)"></path><path d="M 1.5 48.6 L 165.5 48.6 " fill="none" stroke="#52575F" stroke-width="1.00" transform="matrix(1.00, 0.00, 0.00, -1.00, 151.0, 265.0)"></path><path d="M 1.5 57.8 L 165.5 57.8 " fill="none" stroke="#52575F" stroke-width="1.00" transform="matrix(1.00, 0.00, 0.00, -1.00, 151.0, 265.0)"></path><path d="M 2.0 1.5 L 2.0 67.5 " fill="none" stroke="#FEFFFE" stroke-width="1.00" transform="matrix(1.00, 0.00, 0.00, -1.00, 151.0, 265.0)"></path><path d="M 165.0 1.5 L 165.0 67.5 " fill="none" stroke="#FEFFFF" stroke-width="1.00" transform="matrix(1.00, 0.00, 0.00, -1.00, 151.0, 265.0)"></path><path d="M 1.5 2.0 L 165.5 2.0 " fill="none" stroke="#FEFFFE" stroke-width="1.00" transform="matrix(1.00, 0.00, 0.00, -1.00, 151.0, 265.0)"></path></g></g><g><clipPath id="clip-38613"><path d="M 152.5 263.5 L 316.5 263.5 L 316.5 197.5 L 152.5 197.5 Z M 152.5 263.5 "></path></clipPath><g clip-path="url(#clip-38613)"><g><clipPath id="clip-38614"><path d="M 152.5 197.5 L 316.5 197.5 L 316.5 198.5 L 152.5 198.5 Z M 152.5 197.5 "></path></clipPath><g clip-path="url(#clip-38614)"><path d="M 1.5 67.0 L 165.5 67.0 " fill="none" stroke="#52575F" stroke-width="1.00" stroke-dasharray="2.0, 2.0" transform="matrix(1.00, 0.00, 0.00, -1.00, 151.0, 265.0)"></path></g></g></g></g><text xml:space="preserve" font-family="Helvetica-Light" font-size="13.0" fill="#000000" transform="matrix(1.00, 0.00, -0.00, -1.00, 141.0, 247.0)">+</text><text xml:space="preserve" font-family="Helvetica-Light" font-size="13.0" fill="#000000" transform="matrix(1.00, 0.00, -0.00, -1.00, 141.0, 237.0)">+</text><text xml:space="preserve" font-family="Helvetica-Light" font-size="13.0" fill="#000000" transform="matrix(1.00, 0.00, -0.00, -1.00, 141.0, 220.0)">+</text><text xml:space="preserve" font-family="Helvetica-Light" font-size="13.0" fill="#000000" transform="matrix(1.00, 0.00, -0.00, -1.00, 141.0, 210.0)">+</text><text xml:space="preserve" font-family="Helvetica-Light" font-size="13.0" fill="#000000" transform="matrix(1.00, 0.00, -0.00, -1.00, 141.0, 201.0)">+</text><text xml:space="preserve" font-family="Helvetica-Light" font-size="13.0" fill="#000000" transform="matrix(1.00, 0.00, -0.00, -1.00, 141.0, 228.0)">+</text><path d="M 11.7 0.0 L 13.2 0.0 L 61.3 0.0 " fill="none" stroke="#A37511" stroke-width="3.00" stroke-linecap="round" stroke-dasharray="0.0, 9.0" transform="matrix(0.00, 1.00, 1.00, 0.00, 223.3, 304.0)"></path><path d="M 216.7 317.2 L 223.3 304.0 L 229.9 317.2 Z M 216.7 317.2 " fill="#A37511"></path></g></svg>