<?xml version="1.0" encoding="UTF-8" standalone="no"?><svg xmlns="http://www.w3.org/2000/svg" xmlns:xlink="http://www.w3.org/1999/xlink" clip-rule="evenodd" stroke-miterlimit="4.00" viewBox="0 0 1024 768"><desc>SVG generated by Keynote</desc><defs></defs><g transform="matrix(1.00, 0.00, -0.00, -1.00, 0.0, 768.0)"><path d="M 0.0 768.0 L 1024.0 768.0 L 1024.0 0.0 L 0.0 0.0 Z M 0.0 768.0 " fill="#FEFFFF"></path><g><clipPath id="clip-39307"><path d="M 169.5 469.4 C 189.0 461.2 189.0 448.0 169.5 439.9 C 150.0 431.8 118.3 431.8 98.8 439.9 C 79.3 448.0 79.3 461.2 98.8 469.4 C 118.3 477.5 150.0 477.5 169.5 469.4 Z M 169.5 469.4 "></path></clipPath><g clip-path="url(#clip-39307)"><g><clipPath id="clip-39308"><path d="M 83.1 432.8 L 185.1 432.8 L 185.1 476.5 L 83.1 476.5 Z M 83.1 432.8 "></path></clipPath><g clip-path="url(#clip-39308)"><image xlink:href="../../E032F876-E8E9-4C42-AF2C-93ED8E896D6C/assets/AFF4D1F361AD28AA82012E14045EB299.jpeg" width="128.00" height="128.00" transform="matrix(1.00, 0.00, -0.00, -1.00, 84.1, 475.5)"></image><path d="M 84.1 475.5 L 184.1 475.5 L 184.1 433.8 L 84.1 433.8 Z M 84.1 475.5 " fill="#1093A4" fill-opacity="0.85"></path></g></g></g></g><g><clipPath id="clip-39309"><path d="M 84.1 552.6 L 184.1 552.6 L 184.1 452.6 L 84.1 452.6 Z M 84.1 552.6 "></path></clipPath><g clip-path="url(#clip-39309)"><g><clipPath id="clip-39310"><path d="M 83.1 451.6 L 185.1 451.6 L 185.1 553.6 L 83.1 553.6 Z M 83.1 451.6 "></path></clipPath><g clip-path="url(#clip-39310)"><image xlink:href="../../E032F876-E8E9-4C42-AF2C-93ED8E896D6C/assets/AFF4D1F361AD28AA82012E14045EB299.jpeg" width="128.00" height="128.00" transform="matrix(1.00, 0.00, -0.00, -1.00, 84.1, 552.6)"></image><path d="M 84.1 552.6 L 184.1 552.6 L 184.1 452.6 L 84.1 452.6 Z M 84.1 552.6 " fill="#1093A4" fill-opacity="0.85"></path></g></g></g></g><g><clipPath id="clip-39311"><path d="M 169.5 563.0 C 189.0 554.8 189.0 541.6 169.5 533.5 C 150.0 525.3 118.3 525.3 98.8 533.5 C 79.3 541.6 79.3 554.8 98.8 563.0 C 118.3 571.1 150.0 571.1 169.5 563.0 Z M 169.5 563.0 "></path></clipPath><g clip-path="url(#clip-39311)"><g><clipPath id="clip-39312"><path d="M 82.6 525.9 L 185.6 525.9 L 185.6 570.6 L 82.6 570.6 Z M 82.6 525.9 "></path></clipPath><g clip-path="url(#clip-39312)"><image xlink:href="../../E032F876-E8E9-4C42-AF2C-93ED8E896D6C/assets/AFF4D1F361AD28AA82012E14045EB299.jpeg" width="128.00" height="128.00" transform="matrix(1.00, 0.00, -0.00, -1.00, 84.1, 569.1)"></image><path d="M 84.1 569.1 L 184.1 569.1 L 184.1 527.4 L 84.1 527.4 Z M 84.1 569.1 " fill="#1093A4" fill-opacity="0.85"></path></g></g></g></g><g><clipPath id="clip-39313"><path d="M 82.6 525.9 L 185.6 525.9 L 185.6 570.6 L 82.6 570.6 Z M 82.6 525.9 "></path></clipPath><g clip-path="url(#clip-39313)"><path d="M 85.4 6.1 C 104.9 14.2 104.9 27.4 85.4 35.6 C 65.8 43.7 34.2 43.7 14.6 35.6 C -4.9 27.4 -4.9 14.2 14.6 6.1 C 34.2 -2.0 65.8 -2.0 85.4 6.1 Z M 85.4 6.1 " fill="none" stroke="#A6AAA8" stroke-width="1.00" transform="matrix(1.00, 0.00, 0.00, -1.00, 84.1, 569.1)"></path></g></g><g><clipPath id="clip-39314"><path d="M 78.2 446.5 L 188.3 446.5 L 188.3 568.8 L 78.2 568.8 Z M 78.2 446.5 "></path></clipPath><g clip-path="url(#clip-39314)"><image xlink:href="../../E032F876-E8E9-4C42-AF2C-93ED8E896D6C/assets/18EBC3A74E6F7292DBD243080D117D0A.png" width="110.00" height="123.00" transform="matrix(1.00, 0.00, -0.00, -1.00, 78.0, 569.0)"></image></g></g><g><clipPath id="clip-39315"><path d="M 280.0 568.0 L 397.0 568.0 L 397.0 415.0 L 280.0 415.0 Z M 280.0 568.0 "></path></clipPath><g clip-path="url(#clip-39315)"><g><clipPath id="clip-39316"><path d="M 288.5 415.0 L 289.5 415.0 L 289.5 568.0 L 288.5 568.0 Z M 288.5 415.0 "></path></clipPath><g clip-path="url(#clip-39316)"><path d="M 10.0 1.0 L 10.0 154.0 " fill="none" stroke="#52575F" stroke-width="1.00" stroke-dasharray="2.0, 2.0" transform="matrix(1.00, 0.00, 0.00, -1.00, 279.0, 569.0)"></path></g></g></g></g><g><clipPath id="clip-39317"><path d="M 280.0 568.0 L 397.0 568.0 L 397.0 415.0 L 280.0 415.0 Z M 280.0 568.0 "></path></clipPath><g clip-path="url(#clip-39317)"><g><clipPath id="clip-39318"><path d="M 297.5 415.0 L 298.5 415.0 L 298.5 568.0 L 297.5 568.0 Z M 297.5 415.0 "></path></clipPath><g clip-path="url(#clip-39318)"><path d="M 19.0 1.0 L 19.0 154.0 " fill="none" stroke="#52575F" stroke-width="1.00" stroke-dasharray="2.0, 2.0" transform="matrix(1.00, 0.00, 0.00, -1.00, 279.0, 569.0)"></path></g></g></g></g><g><clipPath id="clip-39319"><path d="M 280.0 568.0 L 397.0 568.0 L 397.0 415.0 L 280.0 415.0 Z M 280.0 568.0 "></path></clipPath><g clip-path="url(#clip-39319)"><g><clipPath id="clip-39320"><path d="M 306.5 415.0 L 307.5 415.0 L 307.5 568.0 L 306.5 568.0 Z M 306.5 415.0 "></path></clipPath><g clip-path="url(#clip-39320)"><path d="M 28.0 1.0 L 28.0 154.0 " fill="none" stroke="#52575F" stroke-width="1.00" stroke-dasharray="2.0, 2.0" transform="matrix(1.00, 0.00, 0.00, -1.00, 279.0, 569.0)"></path></g></g></g></g><g><clipPath id="clip-39321"><path d="M 280.0 568.0 L 397.0 568.0 L 397.0 415.0 L 280.0 415.0 Z M 280.0 568.0 "></path></clipPath><g clip-path="url(#clip-39321)"><g><clipPath id="clip-39322"><path d="M 315.5 415.0 L 316.5 415.0 L 316.5 568.0 L 315.5 568.0 Z M 315.5 415.0 "></path></clipPath><g clip-path="url(#clip-39322)"><path d="M 37.0 1.0 L 37.0 154.0 " fill="none" stroke="#52575F" stroke-width="1.00" stroke-dasharray="2.0, 2.0" transform="matrix(1.00, 0.00, 0.00, -1.00, 279.0, 569.0)"></path></g></g></g></g><g><clipPath id="clip-39323"><path d="M 280.0 568.0 L 397.0 568.0 L 397.0 415.0 L 280.0 415.0 Z M 280.0 568.0 "></path></clipPath><g clip-path="url(#clip-39323)"><g><clipPath id="clip-39324"><path d="M 324.5 415.0 L 325.5 415.0 L 325.5 568.0 L 324.5 568.0 Z M 324.5 415.0 "></path></clipPath><g clip-path="url(#clip-39324)"><path d="M 46.0 1.0 L 46.0 154.0 " fill="none" stroke="#52575F" stroke-width="1.00" stroke-dasharray="2.0, 2.0" transform="matrix(1.00, 0.00, 0.00, -1.00, 279.0, 569.0)"></path></g></g></g></g><g><clipPath id="clip-39325"><path d="M 280.0 568.0 L 397.0 568.0 L 397.0 415.0 L 280.0 415.0 Z M 280.0 568.0 "></path></clipPath><g clip-path="url(#clip-39325)"><g><clipPath id="clip-39326"><path d="M 333.5 415.0 L 334.5 415.0 L 334.5 568.0 L 333.5 568.0 Z M 333.5 415.0 "></path></clipPath><g clip-path="url(#clip-39326)"><path d="M 55.0 1.0 L 55.0 154.0 " fill="none" stroke="#52575F" stroke-width="1.00" stroke-dasharray="2.0, 2.0" transform="matrix(1.00, 0.00, 0.00, -1.00, 279.0, 569.0)"></path></g></g></g></g><g><clipPath id="clip-39327"><path d="M 280.0 568.0 L 397.0 568.0 L 397.0 415.0 L 280.0 415.0 Z M 280.0 568.0 "></path></clipPath><g clip-path="url(#clip-39327)"><g><clipPath id="clip-39328"><path d="M 342.5 415.0 L 343.5 415.0 L 343.5 568.0 L 342.5 568.0 Z M 342.5 415.0 "></path></clipPath><g clip-path="url(#clip-39328)"><path d="M 64.0 1.0 L 64.0 154.0 " fill="none" stroke="#52575F" stroke-width="1.00" stroke-dasharray="2.0, 2.0" transform="matrix(1.00, 0.00, 0.00, -1.00, 279.0, 569.0)"></path></g></g></g></g><g><clipPath id="clip-39329"><path d="M 280.0 568.0 L 397.0 568.0 L 397.0 415.0 L 280.0 415.0 Z M 280.0 568.0 "></path></clipPath><g clip-path="url(#clip-39329)"><g><clipPath id="clip-39330"><path d="M 351.5 415.0 L 352.5 415.0 L 352.5 568.0 L 351.5 568.0 Z M 351.5 415.0 "></path></clipPath><g clip-path="url(#clip-39330)"><path d="M 73.0 1.0 L 73.0 154.0 " fill="none" stroke="#52575F" stroke-width="1.00" stroke-dasharray="2.0, 2.0" transform="matrix(1.00, 0.00, 0.00, -1.00, 279.0, 569.0)"></path></g></g></g></g><g><clipPath id="clip-39331"><path d="M 280.0 568.0 L 397.0 568.0 L 397.0 415.0 L 280.0 415.0 Z M 280.0 568.0 "></path></clipPath><g clip-path="url(#clip-39331)"><g><clipPath id="clip-39332"><path d="M 360.5 415.0 L 361.5 415.0 L 361.5 568.0 L 360.5 568.0 Z M 360.5 415.0 "></path></clipPath><g clip-path="url(#clip-39332)"><path d="M 82.0 1.0 L 82.0 154.0 " fill="none" stroke="#52575F" stroke-width="1.00" stroke-dasharray="2.0, 2.0" transform="matrix(1.00, 0.00, 0.00, -1.00, 279.0, 569.0)"></path></g></g></g></g><g><clipPath id="clip-39333"><path d="M 280.0 568.0 L 397.0 568.0 L 397.0 415.0 L 280.0 415.0 Z M 280.0 568.0 "></path></clipPath><g clip-path="url(#clip-39333)"><g><clipPath id="clip-39334"><path d="M 369.5 415.0 L 370.5 415.0 L 370.5 568.0 L 369.5 568.0 Z M 369.5 415.0 "></path></clipPath><g clip-path="url(#clip-39334)"><path d="M 91.0 1.0 L 91.0 154.0 " fill="none" stroke="#52575F" stroke-width="1.00" stroke-dasharray="2.0, 2.0" transform="matrix(1.00, 0.00, 0.00, -1.00, 279.0, 569.0)"></path></g></g></g></g><g><clipPath id="clip-39335"><path d="M 280.0 568.0 L 397.0 568.0 L 397.0 415.0 L 280.0 415.0 Z M 280.0 568.0 "></path></clipPath><g clip-path="url(#clip-39335)"><g><clipPath id="clip-39336"><path d="M 378.5 415.0 L 379.5 415.0 L 379.5 568.0 L 378.5 568.0 Z M 378.5 415.0 "></path></clipPath><g clip-path="url(#clip-39336)"><path d="M 100.0 1.0 L 100.0 154.0 " fill="none" stroke="#52575F" stroke-width="1.00" stroke-dasharray="2.0, 2.0" transform="matrix(1.00, 0.00, 0.00, -1.00, 279.0, 569.0)"></path></g></g></g></g><g><clipPath id="clip-39337"><path d="M 280.0 568.0 L 397.0 568.0 L 397.0 415.0 L 280.0 415.0 Z M 280.0 568.0 "></path></clipPath><g clip-path="url(#clip-39337)"><g><clipPath id="clip-39338"><path d="M 387.5 415.0 L 388.5 415.0 L 388.5 568.0 L 387.5 568.0 Z M 387.5 415.0 "></path></clipPath><g clip-path="url(#clip-39338)"><path d="M 109.0 1.0 L 109.0 154.0 " fill="none" stroke="#52575F" stroke-width="1.00" stroke-dasharray="2.0, 2.0" transform="matrix(1.00, 0.00, 0.00, -1.00, 279.0, 569.0)"></path></g></g></g></g><g><clipPath id="clip-39339"><path d="M 280.0 568.0 L 397.0 568.0 L 397.0 415.0 L 280.0 415.0 Z M 280.0 568.0 "></path></clipPath><g clip-path="url(#clip-39339)"><g><clipPath id="clip-39340"><path d="M 280.0 558.5 L 397.0 558.5 L 397.0 559.5 L 280.0 559.5 Z M 280.0 558.5 "></path></clipPath><g clip-path="url(#clip-39340)"><path d="M 1.0 10.0 L 118.0 10.0 " fill="none" stroke="#52575F" stroke-width="1.00" stroke-dasharray="2.0, 2.0" transform="matrix(1.00, 0.00, 0.00, -1.00, 279.0, 569.0)"></path></g></g></g></g><g><clipPath id="clip-39341"><path d="M 280.0 568.0 L 397.0 568.0 L 397.0 415.0 L 280.0 415.0 Z M 280.0 568.0 "></path></clipPath><g clip-path="url(#clip-39341)"><g><clipPath id="clip-39342"><path d="M 280.0 549.5 L 397.0 549.5 L 397.0 550.5 L 280.0 550.5 Z M 280.0 549.5 "></path></clipPath><g clip-path="url(#clip-39342)"><path d="M 1.0 19.0 L 118.0 19.0 " fill="none" stroke="#52575F" stroke-width="1.00" stroke-dasharray="2.0, 2.0" transform="matrix(1.00, 0.00, 0.00, -1.00, 279.0, 569.0)"></path></g></g></g></g><g><clipPath id="clip-39343"><path d="M 280.0 568.0 L 397.0 568.0 L 397.0 415.0 L 280.0 415.0 Z M 280.0 568.0 "></path></clipPath><g clip-path="url(#clip-39343)"><g><clipPath id="clip-39344"><path d="M 280.0 540.5 L 397.0 540.5 L 397.0 541.5 L 280.0 541.5 Z M 280.0 540.5 "></path></clipPath><g clip-path="url(#clip-39344)"><path d="M 1.0 28.0 L 118.0 28.0 " fill="none" stroke="#52575F" stroke-width="1.00" stroke-dasharray="2.0, 2.0" transform="matrix(1.00, 0.00, 0.00, -1.00, 279.0, 569.0)"></path></g></g></g></g><g><clipPath id="clip-39345"><path d="M 280.0 568.0 L 397.0 568.0 L 397.0 415.0 L 280.0 415.0 Z M 280.0 568.0 "></path></clipPath><g clip-path="url(#clip-39345)"><g><clipPath id="clip-39346"><path d="M 280.0 531.5 L 397.0 531.5 L 397.0 532.5 L 280.0 532.5 Z M 280.0 531.5 "></path></clipPath><g clip-path="url(#clip-39346)"><path d="M 1.0 37.0 L 118.0 37.0 " fill="none" stroke="#52575F" stroke-width="1.00" stroke-dasharray="2.0, 2.0" transform="matrix(1.00, 0.00, 0.00, -1.00, 279.0, 569.0)"></path></g></g></g></g><g><clipPath id="clip-39347"><path d="M 280.0 568.0 L 397.0 568.0 L 397.0 415.0 L 280.0 415.0 Z M 280.0 568.0 "></path></clipPath><g clip-path="url(#clip-39347)"><g><clipPath id="clip-39348"><path d="M 280.0 522.5 L 397.0 522.5 L 397.0 523.5 L 280.0 523.5 Z M 280.0 522.5 "></path></clipPath><g clip-path="url(#clip-39348)"><path d="M 1.0 46.0 L 118.0 46.0 " fill="none" stroke="#52575F" stroke-width="1.00" stroke-dasharray="2.0, 2.0" transform="matrix(1.00, 0.00, 0.00, -1.00, 279.0, 569.0)"></path></g></g></g></g><g><clipPath id="clip-39349"><path d="M 280.0 568.0 L 397.0 568.0 L 397.0 415.0 L 280.0 415.0 Z M 280.0 568.0 "></path></clipPath><g clip-path="url(#clip-39349)"><g><clipPath id="clip-39350"><path d="M 280.0 513.5 L 397.0 513.5 L 397.0 514.5 L 280.0 514.5 Z M 280.0 513.5 "></path></clipPath><g clip-path="url(#clip-39350)"><path d="M 1.0 55.0 L 118.0 55.0 " fill="none" stroke="#52575F" stroke-width="1.00" stroke-dasharray="2.0, 2.0" transform="matrix(1.00, 0.00, 0.00, -1.00, 279.0, 569.0)"></path></g></g></g></g><g><clipPath id="clip-39351"><path d="M 280.0 568.0 L 397.0 568.0 L 397.0 415.0 L 280.0 415.0 Z M 280.0 568.0 "></path></clipPath><g clip-path="url(#clip-39351)"><g><clipPath id="clip-39352"><path d="M 280.0 504.5 L 397.0 504.5 L 397.0 505.5 L 280.0 505.5 Z M 280.0 504.5 "></path></clipPath><g clip-path="url(#clip-39352)"><path d="M 1.0 64.0 L 118.0 64.0 " fill="none" stroke="#52575F" stroke-width="1.00" stroke-dasharray="2.0, 2.0" transform="matrix(1.00, 0.00, 0.00, -1.00, 279.0, 569.0)"></path></g></g></g></g><g><clipPath id="clip-39353"><path d="M 280.0 568.0 L 397.0 568.0 L 397.0 415.0 L 280.0 415.0 Z M 280.0 568.0 "></path></clipPath><g clip-path="url(#clip-39353)"><g><clipPath id="clip-39354"><path d="M 280.0 495.5 L 397.0 495.5 L 397.0 496.5 L 280.0 496.5 Z M 280.0 495.5 "></path></clipPath><g clip-path="url(#clip-39354)"><path d="M 1.0 73.0 L 118.0 73.0 " fill="none" stroke="#52575F" stroke-width="1.00" stroke-dasharray="2.0, 2.0" transform="matrix(1.00, 0.00, 0.00, -1.00, 279.0, 569.0)"></path></g></g></g></g><g><clipPath id="clip-39355"><path d="M 280.0 568.0 L 397.0 568.0 L 397.0 415.0 L 280.0 415.0 Z M 280.0 568.0 "></path></clipPath><g clip-path="url(#clip-39355)"><g><clipPath id="clip-39356"><path d="M 280.0 486.5 L 397.0 486.5 L 397.0 487.5 L 280.0 487.5 Z M 280.0 486.5 "></path></clipPath><g clip-path="url(#clip-39356)"><path d="M 1.0 82.0 L 118.0 82.0 " fill="none" stroke="#52575F" stroke-width="1.00" stroke-dasharray="2.0, 2.0" transform="matrix(1.00, 0.00, 0.00, -1.00, 279.0, 569.0)"></path></g></g></g></g><g><clipPath id="clip-39357"><path d="M 280.0 568.0 L 397.0 568.0 L 397.0 415.0 L 280.0 415.0 Z M 280.0 568.0 "></path></clipPath><g clip-path="url(#clip-39357)"><g><clipPath id="clip-39358"><path d="M 280.0 477.5 L 397.0 477.5 L 397.0 478.5 L 280.0 478.5 Z M 280.0 477.5 "></path></clipPath><g clip-path="url(#clip-39358)"><path d="M 1.0 91.0 L 118.0 91.0 " fill="none" stroke="#52575F" stroke-width="1.00" stroke-dasharray="2.0, 2.0" transform="matrix(1.00, 0.00, 0.00, -1.00, 279.0, 569.0)"></path></g></g></g></g><g><clipPath id="clip-39359"><path d="M 280.0 568.0 L 397.0 568.0 L 397.0 415.0 L 280.0 415.0 Z M 280.0 568.0 "></path></clipPath><g clip-path="url(#clip-39359)"><g><clipPath id="clip-39360"><path d="M 280.0 468.5 L 397.0 468.5 L 397.0 469.5 L 280.0 469.5 Z M 280.0 468.5 "></path></clipPath><g clip-path="url(#clip-39360)"><path d="M 1.0 100.0 L 118.0 100.0 " fill="none" stroke="#52575F" stroke-width="1.00" stroke-dasharray="2.0, 2.0" transform="matrix(1.00, 0.00, 0.00, -1.00, 279.0, 569.0)"></path></g></g></g></g><g><clipPath id="clip-39361"><path d="M 280.0 568.0 L 397.0 568.0 L 397.0 415.0 L 280.0 415.0 Z M 280.0 568.0 "></path></clipPath><g clip-path="url(#clip-39361)"><g><clipPath id="clip-39362"><path d="M 280.0 459.5 L 397.0 459.5 L 397.0 460.5 L 280.0 460.5 Z M 280.0 459.5 "></path></clipPath><g clip-path="url(#clip-39362)"><path d="M 1.0 109.0 L 118.0 109.0 " fill="none" stroke="#52575F" stroke-width="1.00" stroke-dasharray="2.0, 2.0" transform="matrix(1.00, 0.00, 0.00, -1.00, 279.0, 569.0)"></path></g></g></g></g><g><clipPath id="clip-39363"><path d="M 280.0 568.0 L 397.0 568.0 L 397.0 415.0 L 280.0 415.0 Z M 280.0 568.0 "></path></clipPath><g clip-path="url(#clip-39363)"><g><clipPath id="clip-39364"><path d="M 280.0 450.5 L 397.0 450.5 L 397.0 451.5 L 280.0 451.5 Z M 280.0 450.5 "></path></clipPath><g clip-path="url(#clip-39364)"><path d="M 1.0 118.0 L 118.0 118.0 " fill="none" stroke="#52575F" stroke-width="1.00" stroke-dasharray="2.0, 2.0" transform="matrix(1.00, 0.00, 0.00, -1.00, 279.0, 569.0)"></path></g></g></g></g><g><clipPath id="clip-39365"><path d="M 280.0 568.0 L 397.0 568.0 L 397.0 415.0 L 280.0 415.0 Z M 280.0 568.0 "></path></clipPath><g clip-path="url(#clip-39365)"><g><clipPath id="clip-39366"><path d="M 280.0 441.5 L 397.0 441.5 L 397.0 442.5 L 280.0 442.5 Z M 280.0 441.5 "></path></clipPath><g clip-path="url(#clip-39366)"><path d="M 1.0 127.0 L 118.0 127.0 " fill="none" stroke="#52575F" stroke-width="1.00" stroke-dasharray="2.0, 2.0" transform="matrix(1.00, 0.00, 0.00, -1.00, 279.0, 569.0)"></path></g></g></g></g><g><clipPath id="clip-39367"><path d="M 280.0 568.0 L 397.0 568.0 L 397.0 415.0 L 280.0 415.0 Z M 280.0 568.0 "></path></clipPath><g clip-path="url(#clip-39367)"><g><clipPath id="clip-39368"><path d="M 280.0 432.5 L 397.0 432.5 L 397.0 433.5 L 280.0 433.5 Z M 280.0 432.5 "></path></clipPath><g clip-path="url(#clip-39368)"><path d="M 1.0 136.0 L 118.0 136.0 " fill="none" stroke="#52575F" stroke-width="1.00" stroke-dasharray="2.0, 2.0" transform="matrix(1.00, 0.00, 0.00, -1.00, 279.0, 569.0)"></path></g></g></g></g><g><clipPath id="clip-39369"><path d="M 280.0 568.0 L 397.0 568.0 L 397.0 415.0 L 280.0 415.0 Z M 280.0 568.0 "></path></clipPath><g clip-path="url(#clip-39369)"><g><clipPath id="clip-39370"><path d="M 280.0 423.5 L 397.0 423.5 L 397.0 424.5 L 280.0 424.5 Z M 280.0 423.5 "></path></clipPath><g clip-path="url(#clip-39370)"><path d="M 1.0 145.0 L 118.0 145.0 " fill="none" stroke="#52575F" stroke-width="1.00" stroke-dasharray="2.0, 2.0" transform="matrix(1.00, 0.00, 0.00, -1.00, 279.0, 569.0)"></path></g></g></g></g><image xlink:href="../../E032F876-E8E9-4C42-AF2C-93ED8E896D6C/assets/15EE3C20513621AFF0785F295453E611.png" width="12.00" height="11.00" transform="matrix(1.00, 0.00, -0.00, -1.00, 313.0, 469.0)"></image><image xlink:href="../../E032F876-E8E9-4C42-AF2C-93ED8E896D6C/assets/D59024D7C3C0809BAD52C011AF8FF8AD.png" width="12.00" height="10.00" transform="matrix(1.00, 0.00, -0.00, -1.10, 313.0, 479.0)"></image><image xlink:href="../../E032F876-E8E9-4C42-AF2C-93ED8E896D6C/assets/7BF868126371516F35EE24CF67107A29.png" width="12.00" height="11.00" transform="matrix(0.92, 0.00, -0.00, -1.00, 324.0, 479.0)"></image><image xlink:href="../../E032F876-E8E9-4C42-AF2C-93ED8E896D6C/assets/7BF868126371516F35EE24CF67107A29.png" width="12.00" height="11.00" transform="matrix(1.00, 0.00, -0.00, -1.00, 313.0, 489.0)"></image><image xlink:href="../../E032F876-E8E9-4C42-AF2C-93ED8E896D6C/assets/D59024D7C3C0809BAD52C011AF8FF8AD.png" width="12.00" height="10.00" transform="matrix(1.00, 0.00, -0.00, -1.10, 323.0, 469.0)"></image><image xlink:href="../../E032F876-E8E9-4C42-AF2C-93ED8E896D6C/assets/D59024D7C3C0809BAD52C011AF8FF8AD.png" width="12.00" height="10.00" transform="matrix(1.00, 0.00, -0.00, -1.10, 358.0, 448.0)"></image><image xlink:href="../../E032F876-E8E9-4C42-AF2C-93ED8E896D6C/assets/7BF868126371516F35EE24CF67107A29.png" width="12.00" height="11.00" transform="matrix(0.92, 0.00, -0.00, -1.00, 286.0, 448.0)"></image><image xlink:href="../../E032F876-E8E9-4C42-AF2C-93ED8E896D6C/assets/7BF868126371516F35EE24CF67107A29.png" width="12.00" height="11.00" transform="matrix(0.92, 0.00, -0.00, -1.00, 297.0, 448.0)"></image><g><clipPath id="clip-39371"><path d="M 365.7 148.4 C 385.2 140.3 385.2 127.1 365.7 118.9 C 346.1 110.8 314.5 110.8 295.0 118.9 C 275.4 127.1 275.4 140.3 295.0 148.4 C 314.5 156.5 346.1 156.5 365.7 148.4 Z M 365.7 148.4 "></path></clipPath><g clip-path="url(#clip-39371)"><g><clipPath id="clip-39372"><path d="M 279.3 111.8 L 381.3 111.8 L 381.3 155.5 L 279.3 155.5 Z M 279.3 111.8 "></path></clipPath><g clip-path="url(#clip-39372)"><image xlink:href="../../E032F876-E8E9-4C42-AF2C-93ED8E896D6C/assets/AFF4D1F361AD28AA82012E14045EB299.jpeg" width="128.00" height="128.00" transform="matrix(1.00, 0.00, -0.00, -1.00, 280.3, 154.5)"></image><path d="M 280.3 154.5 L 380.3 154.5 L 380.3 112.8 L 280.3 112.8 Z M 280.3 154.5 " fill="#1093A4" fill-opacity="0.85"></path></g></g></g></g><g><clipPath id="clip-39373"><path d="M 280.3 231.7 L 380.3 231.7 L 380.3 131.7 L 280.3 131.7 Z M 280.3 231.7 "></path></clipPath><g clip-path="url(#clip-39373)"><g><clipPath id="clip-39374"><path d="M 279.3 130.7 L 381.3 130.7 L 381.3 232.7 L 279.3 232.7 Z M 279.3 130.7 "></path></clipPath><g clip-path="url(#clip-39374)"><image xlink:href="../../E032F876-E8E9-4C42-AF2C-93ED8E896D6C/assets/AFF4D1F361AD28AA82012E14045EB299.jpeg" width="128.00" height="128.00" transform="matrix(1.00, 0.00, -0.00, -1.00, 280.3, 231.7)"></image><path d="M 280.3 231.7 L 380.3 231.7 L 380.3 131.7 L 280.3 131.7 Z M 280.3 231.7 " fill="#1093A4" fill-opacity="0.85"></path></g></g></g></g><g><clipPath id="clip-39375"><path d="M 365.7 242.0 C 385.2 233.9 385.2 220.7 365.7 212.5 C 346.1 204.4 314.5 204.4 295.0 212.5 C 275.4 220.7 275.4 233.9 295.0 242.0 C 314.5 250.1 346.1 250.1 365.7 242.0 Z M 365.7 242.0 "></path></clipPath><g clip-path="url(#clip-39375)"><g><clipPath id="clip-39376"><path d="M 278.8 204.9 L 381.8 204.9 L 381.8 249.6 L 278.8 249.6 Z M 278.8 204.9 "></path></clipPath><g clip-path="url(#clip-39376)"><image xlink:href="../../E032F876-E8E9-4C42-AF2C-93ED8E896D6C/assets/AFF4D1F361AD28AA82012E14045EB299.jpeg" width="128.00" height="128.00" transform="matrix(1.00, 0.00, -0.00, -1.00, 280.3, 248.1)"></image><path d="M 280.3 248.1 L 380.3 248.1 L 380.3 206.4 L 280.3 206.4 Z M 280.3 248.1 " fill="#1093A4" fill-opacity="0.85"></path></g></g></g></g><g><clipPath id="clip-39377"><path d="M 278.8 204.9 L 381.8 204.9 L 381.8 249.6 L 278.8 249.6 Z M 278.8 204.9 "></path></clipPath><g clip-path="url(#clip-39377)"><path d="M 85.4 6.1 C 104.9 14.2 104.9 27.4 85.4 35.6 C 65.8 43.7 34.2 43.7 14.6 35.6 C -4.9 27.4 -4.9 14.2 14.6 6.1 C 34.2 -2.0 65.8 -2.0 85.4 6.1 Z M 85.4 6.1 " fill="none" stroke="#A6AAA8" stroke-width="1.00" transform="matrix(1.00, 0.00, 0.00, -1.00, 280.3, 248.1)"></path></g></g><g><clipPath id="clip-39378"><path d="M 274.4 125.5 L 384.5 125.5 L 384.5 247.8 L 274.4 247.8 Z M 274.4 125.5 "></path></clipPath><g clip-path="url(#clip-39378)"><image xlink:href="../../E032F876-E8E9-4C42-AF2C-93ED8E896D6C/assets/18EBC3A74E6F7292DBD243080D117D0A.png" width="110.00" height="123.00" transform="matrix(1.01, 0.00, -0.00, -1.00, 274.0, 248.0)"></image></g></g><g><clipPath id="clip-39379"><path d="M 768.8 148.4 C 788.3 140.3 788.3 127.1 768.8 118.9 C 749.3 110.8 717.6 110.8 698.1 118.9 C 678.6 127.1 678.6 140.3 698.1 148.4 C 717.6 156.5 749.3 156.5 768.8 148.4 Z M 768.8 148.4 "></path></clipPath><g clip-path="url(#clip-39379)"><g><clipPath id="clip-39380"><path d="M 682.4 111.8 L 784.4 111.8 L 784.4 155.5 L 682.4 155.5 Z M 682.4 111.8 "></path></clipPath><g clip-path="url(#clip-39380)"><image xlink:href="../../E032F876-E8E9-4C42-AF2C-93ED8E896D6C/assets/AFF4D1F361AD28AA82012E14045EB299.jpeg" width="128.00" height="128.00" transform="matrix(1.00, 0.00, -0.00, -1.00, 683.4, 154.5)"></image><path d="M 683.4 154.5 L 783.4 154.5 L 783.4 112.8 L 683.4 112.8 Z M 683.4 154.5 " fill="#1093A4" fill-opacity="0.85"></path></g></g></g></g><g><clipPath id="clip-39381"><path d="M 683.4 231.7 L 783.4 231.7 L 783.4 131.7 L 683.4 131.7 Z M 683.4 231.7 "></path></clipPath><g clip-path="url(#clip-39381)"><g><clipPath id="clip-39382"><path d="M 682.4 130.7 L 784.4 130.7 L 784.4 232.7 L 682.4 232.7 Z M 682.4 130.7 "></path></clipPath><g clip-path="url(#clip-39382)"><image xlink:href="../../E032F876-E8E9-4C42-AF2C-93ED8E896D6C/assets/AFF4D1F361AD28AA82012E14045EB299.jpeg" width="128.00" height="128.00" transform="matrix(1.00, 0.00, -0.00, -1.00, 683.4, 231.7)"></image><path d="M 683.4 231.7 L 783.4 231.7 L 783.4 131.7 L 683.4 131.7 Z M 683.4 231.7 " fill="#1093A4" fill-opacity="0.85"></path></g></g></g></g><g><clipPath id="clip-39383"><path d="M 768.8 242.0 C 788.3 233.9 788.3 220.7 768.8 212.5 C 749.3 204.4 717.6 204.4 698.1 212.5 C 678.6 220.7 678.6 233.9 698.1 242.0 C 717.6 250.1 749.3 250.1 768.8 242.0 Z M 768.8 242.0 "></path></clipPath><g clip-path="url(#clip-39383)"><g><clipPath id="clip-39384"><path d="M 681.9 204.9 L 784.9 204.9 L 784.9 249.6 L 681.9 249.6 Z M 681.9 204.9 "></path></clipPath><g clip-path="url(#clip-39384)"><image xlink:href="../../E032F876-E8E9-4C42-AF2C-93ED8E896D6C/assets/AFF4D1F361AD28AA82012E14045EB299.jpeg" width="128.00" height="128.00" transform="matrix(1.00, 0.00, -0.00, -1.00, 683.4, 248.1)"></image><path d="M 683.4 248.1 L 783.4 248.1 L 783.4 206.4 L 683.4 206.4 Z M 683.4 248.1 " fill="#1093A4" fill-opacity="0.85"></path></g></g></g></g><g><clipPath id="clip-39385"><path d="M 681.9 204.9 L 784.9 204.9 L 784.9 249.6 L 681.9 249.6 Z M 681.9 204.9 "></path></clipPath><g clip-path="url(#clip-39385)"><path d="M 85.4 6.1 C 104.9 14.2 104.9 27.4 85.4 35.6 C 65.8 43.7 34.2 43.7 14.6 35.6 C -4.9 27.4 -4.9 14.2 14.6 6.1 C 34.2 -2.0 65.8 -2.0 85.4 6.1 Z M 85.4 6.1 " fill="none" stroke="#A6AAA8" stroke-width="1.00" transform="matrix(1.00, 0.00, 0.00, -1.00, 683.4, 248.1)"></path></g></g><g><clipPath id="clip-39386"><path d="M 677.5 125.5 L 787.6 125.5 L 787.6 247.8 L 677.5 247.8 Z M 677.5 125.5 "></path></clipPath><g clip-path="url(#clip-39386)"><image xlink:href="../../E032F876-E8E9-4C42-AF2C-93ED8E896D6C/assets/18EBC3A74E6F7292DBD243080D117D0A.png" width="110.00" height="123.00" transform="matrix(1.00, 0.00, -0.00, -1.00, 678.0, 248.0)"></image></g></g><path d="M 0.0 11.4 C 31.0 -1.6 61.5 -3.5 91.5 5.8 L 92.4 6.1 " fill="none" stroke="#000000" stroke-width="2.00" transform="matrix(1.00, 0.00, 0.00, -1.00, 178.2, 539.1)"></path><path d="M 268.1 528.8 L 278.8 530.2 L 271.3 537.8 Z M 268.1 528.8 " fill="#000000"></path><text xml:space="preserve" font-family="Helvetica-Bold" font-weight="bold" font-size="36.0" fill="#000000" transform="matrix(1.00, 0.00, -0.00, -1.00, 371.0, 697.0)">R</text><text xml:space="preserve" font-family="Helvetica-Bold" font-weight="bold" font-size="36.0" fill="#000000" transform="matrix(1.00, 0.00, -0.00, -1.00, 397.0, 697.0)">e</text><text xml:space="preserve" font-family="Helvetica-Bold" font-weight="bold" font-size="36.0" fill="#000000" transform="matrix(1.00, 0.00, -0.00, -1.00, 417.0, 697.0)">p</text><text xml:space="preserve" font-family="Helvetica-Bold" font-weight="bold" font-size="36.0" fill="#000000" transform="matrix(1.00, 0.00, -0.00, -1.00, 439.0, 697.0)">l</text><text xml:space="preserve" font-family="Helvetica-Bold" font-weight="bold" font-size="36.0" fill="#000000" transform="matrix(1.00, 0.00, -0.00, -1.00, 449.0, 697.0)">i</text><text xml:space="preserve" font-family="Helvetica-Bold" font-weight="bold" font-size="36.0" fill="#000000" transform="matrix(1.00, 0.00, -0.00, -1.00, 459.0, 697.0)">c</text><text xml:space="preserve" font-family="Helvetica-Bold" font-weight="bold" font-size="36.0" fill="#000000" transform="matrix(1.00, 0.00, -0.00, -1.00, 479.0, 697.0)">a</text><text xml:space="preserve" font-family="Helvetica-Bold" font-weight="bold" font-size="36.0" fill="#000000" transform="matrix(1.00, 0.00, -0.00, -1.00, 499.1, 697.0)">t</text><text xml:space="preserve" font-family="Helvetica-Bold" font-weight="bold" font-size="36.0" fill="#000000" transform="matrix(1.00, 0.00, -0.00, -1.00, 511.1, 697.0)">i</text><text xml:space="preserve" font-family="Helvetica-Bold" font-weight="bold" font-size="36.0" fill="#000000" transform="matrix(1.00, 0.00, -0.00, -1.00, 521.0, 697.0)">n</text><text xml:space="preserve" font-family="Helvetica-Bold" font-weight="bold" font-size="36.0" fill="#000000" transform="matrix(1.00, 0.00, -0.00, -1.00, 543.0, 697.0)">g</text><text xml:space="preserve" font-family="Helvetica-Bold" font-weight="bold" font-size="36.0" fill="#000000" transform="matrix(1.00, 0.00, -0.00, -1.00, 565.0, 697.0)"> </text><text xml:space="preserve" font-family="Helvetica-Bold" font-weight="bold" font-size="36.0" fill="#000000" transform="matrix(1.00, 0.00, -0.00, -1.00, 575.0, 697.0)">D</text><text xml:space="preserve" font-family="Helvetica-Bold" font-weight="bold" font-size="36.0" fill="#000000" transform="matrix(1.00, 0.00, -0.00, -1.00, 601.0, 697.0)">a</text><text xml:space="preserve" font-family="Helvetica-Bold" font-weight="bold" font-size="36.0" fill="#000000" transform="matrix(1.00, 0.00, -0.00, -1.00, 621.1, 697.0)">t</text><text xml:space="preserve" font-family="Helvetica-Bold" font-weight="bold" font-size="36.0" fill="#000000" transform="matrix(1.00, 0.00, -0.00, -1.00, 633.1, 697.0)">a</text><text xml:space="preserve" font-family="Helvetica-Light" font-size="36.0" fill="#000000" transform="matrix(1.00, 0.00, -0.00, -1.00, 191.0, 643.0)">D</text><text xml:space="preserve" font-family="Helvetica-Light" font-size="36.0" fill="#000000" transform="matrix(1.00, 0.00, -0.00, -1.00, 217.0, 643.0)">a</text><text xml:space="preserve" font-family="Helvetica-Light" font-size="36.0" fill="#000000" transform="matrix(1.00, 0.00, -0.00, -1.00, 237.0, 643.0)">t</text><text xml:space="preserve" font-family="Helvetica-Light" font-size="36.0" fill="#000000" transform="matrix(1.00, 0.00, -0.00, -1.00, 247.0, 643.0)">a</text><text xml:space="preserve" font-family="Helvetica-Light" font-size="36.0" fill="#000000" transform="matrix(1.00, 0.00, -0.00, -1.00, 267.0, 643.0)">b</text><text xml:space="preserve" font-family="Helvetica-Light" font-size="36.0" fill="#000000" transform="matrix(1.00, 0.00, -0.00, -1.00, 289.0, 643.0)">a</text><text xml:space="preserve" font-family="Helvetica-Light" font-size="36.0" fill="#000000" transform="matrix(1.00, 0.00, -0.00, -1.00, 309.0, 643.0)">s</text><text xml:space="preserve" font-family="Helvetica-Light" font-size="36.0" fill="#000000" transform="matrix(1.00, 0.00, -0.00, -1.00, 327.0, 643.0)">e</text><text xml:space="preserve" font-family="Helvetica-Light" font-size="36.0" fill="#000000" transform="matrix(1.00, 0.00, -0.00, -1.00, 347.1, 643.0)"> </text><text xml:space="preserve" font-family="Helvetica-Light" font-size="36.0" fill="#000000" transform="matrix(1.00, 0.00, -0.00, -1.00, 357.1, 643.0)">R</text><text xml:space="preserve" font-family="Helvetica-Light" font-size="36.0" fill="#000000" transform="matrix(1.00, 0.00, -0.00, -1.00, 381.1, 643.0)">e</text><text xml:space="preserve" font-family="Helvetica-Light" font-size="36.0" fill="#000000" transform="matrix(1.00, 0.00, -0.00, -1.00, 401.1, 643.0)">p</text><text xml:space="preserve" font-family="Helvetica-Light" font-size="36.0" fill="#000000" transform="matrix(1.00, 0.00, -0.00, -1.00, 423.1, 643.0)">l</text><text xml:space="preserve" font-family="Helvetica-Light" font-size="36.0" fill="#000000" transform="matrix(1.00, 0.00, -0.00, -1.00, 431.1, 643.0)">i</text><text xml:space="preserve" font-family="Helvetica-Light" font-size="36.0" fill="#000000" transform="matrix(1.00, 0.00, -0.00, -1.00, 439.1, 643.0)">c</text><text xml:space="preserve" font-family="Helvetica-Light" font-size="36.0" fill="#000000" transform="matrix(1.00, 0.00, -0.00, -1.00, 459.1, 643.0)">a</text><text xml:space="preserve" font-family="Helvetica-Light" font-size="36.0" fill="#000000" transform="matrix(1.00, 0.00, -0.00, -1.00, 479.1, 643.0)">t</text><text xml:space="preserve" font-family="Helvetica-Light" font-size="36.0" fill="#000000" transform="matrix(1.00, 0.00, -0.00, -1.00, 489.1, 643.0)">i</text><text xml:space="preserve" font-family="Helvetica-Light" font-size="36.0" fill="#000000" transform="matrix(1.00, 0.00, -0.00, -1.00, 497.1, 643.0)">o</text><text xml:space="preserve" font-family="Helvetica-Light" font-size="36.0" fill="#000000" transform="matrix(1.00, 0.00, -0.00, -1.00, 517.1, 643.0)">n</text><text xml:space="preserve" font-family="Helvetica-Light" font-size="36.0" fill="#000000" transform="matrix(1.00, 0.00, -0.00, -1.00, 537.1, 643.0)"> </text><text xml:space="preserve" font-family="Helvetica-Light" font-size="36.0" fill="#000000" transform="matrix(1.00, 0.00, -0.00, -1.00, 547.1, 643.0)">g</text><text xml:space="preserve" font-family="Helvetica-Light" font-size="36.0" fill="#000000" transform="matrix(1.00, 0.00, -0.00, -1.00, 569.1, 643.0)">e</text><text xml:space="preserve" font-family="Helvetica-Light" font-size="36.0" fill="#000000" transform="matrix(1.00, 0.00, -0.00, -1.00, 589.2, 643.0)">t</text><text xml:space="preserve" font-family="Helvetica-Light" font-size="36.0" fill="#000000" transform="matrix(1.00, 0.00, -0.00, -1.00, 599.2, 643.0)">s</text><text xml:space="preserve" font-family="Helvetica-Light" font-size="36.0" fill="#000000" transform="matrix(1.00, 0.00, -0.00, -1.00, 617.2, 643.0)"> </text><text xml:space="preserve" font-family="Helvetica-Light" font-size="36.0" fill="#000000" transform="matrix(1.00, 0.00, -0.00, -1.00, 627.2, 643.0)">C</text><text xml:space="preserve" font-family="Helvetica-Light" font-size="36.0" fill="#000000" transform="matrix(1.00, 0.00, -0.00, -1.00, 653.2, 643.0)">o</text><text xml:space="preserve" font-family="Helvetica-Light" font-size="36.0" fill="#000000" transform="matrix(1.00, 0.00, -0.00, -1.00, 673.2, 643.0)">m</text><text xml:space="preserve" font-family="Helvetica-Light" font-size="36.0" fill="#000000" transform="matrix(1.00, 0.00, -0.00, -1.00, 703.2, 643.0)">p</text><text xml:space="preserve" font-family="Helvetica-Light" font-size="36.0" fill="#000000" transform="matrix(1.00, 0.00, -0.00, -1.00, 725.2, 643.0)">l</text><text xml:space="preserve" font-family="Helvetica-Light" font-size="36.0" fill="#000000" transform="matrix(1.00, 0.00, -0.00, -1.00, 733.2, 643.0)">i</text><text xml:space="preserve" font-family="Helvetica-Light" font-size="36.0" fill="#000000" transform="matrix(1.00, 0.00, -0.00, -1.00, 741.2, 643.0)">c</text><text xml:space="preserve" font-family="Helvetica-Light" font-size="36.0" fill="#000000" transform="matrix(1.00, 0.00, -0.00, -1.00, 761.2, 643.0)">a</text><text xml:space="preserve" font-family="Helvetica-Light" font-size="36.0" fill="#000000" transform="matrix(1.00, 0.00, -0.00, -1.00, 781.2, 643.0)">t</text><text xml:space="preserve" font-family="Helvetica-Light" font-size="36.0" fill="#000000" transform="matrix(1.00, 0.00, -0.00, -1.00, 791.2, 643.0)">e</text><text xml:space="preserve" font-family="Helvetica-Light" font-size="36.0" fill="#000000" transform="matrix(1.00, 0.00, -0.00, -1.00, 811.2, 643.0)">d</text><g><clipPath id="clip-39387"><path d="M 567.2 148.4 C 586.8 140.3 586.8 127.1 567.2 118.9 C 547.7 110.8 516.0 110.8 496.5 118.9 C 477.0 127.1 477.0 140.3 496.5 148.4 C 516.0 156.5 547.7 156.5 567.2 148.4 Z M 567.2 148.4 "></path></clipPath><g clip-path="url(#clip-39387)"><g><clipPath id="clip-39388"><path d="M 480.9 111.8 L 582.9 111.8 L 582.9 155.5 L 480.9 155.5 Z M 480.9 111.8 "></path></clipPath><g clip-path="url(#clip-39388)"><image xlink:href="../../E032F876-E8E9-4C42-AF2C-93ED8E896D6C/assets/AFF4D1F361AD28AA82012E14045EB299.jpeg" width="128.00" height="128.00" transform="matrix(1.00, 0.00, -0.00, -1.00, 481.9, 154.5)"></image><path d="M 481.9 154.5 L 581.9 154.5 L 581.9 112.8 L 481.9 112.8 Z M 481.9 154.5 " fill="#1093A4" fill-opacity="0.85"></path></g></g></g></g><g><clipPath id="clip-39389"><path d="M 481.9 231.7 L 581.9 231.7 L 581.9 131.7 L 481.9 131.7 Z M 481.9 231.7 "></path></clipPath><g clip-path="url(#clip-39389)"><g><clipPath id="clip-39390"><path d="M 480.9 130.7 L 582.9 130.7 L 582.9 232.7 L 480.9 232.7 Z M 480.9 130.7 "></path></clipPath><g clip-path="url(#clip-39390)"><image xlink:href="../../E032F876-E8E9-4C42-AF2C-93ED8E896D6C/assets/AFF4D1F361AD28AA82012E14045EB299.jpeg" width="128.00" height="128.00" transform="matrix(1.00, 0.00, -0.00, -1.00, 481.9, 231.7)"></image><path d="M 481.9 231.7 L 581.9 231.7 L 581.9 131.7 L 481.9 131.7 Z M 481.9 231.7 " fill="#1093A4" fill-opacity="0.85"></path></g></g></g></g><g><clipPath id="clip-39391"><path d="M 567.2 242.0 C 586.8 233.9 586.8 220.7 567.2 212.5 C 547.7 204.4 516.0 204.4 496.5 212.5 C 477.0 220.7 477.0 233.9 496.5 242.0 C 516.0 250.1 547.7 250.1 567.2 242.0 Z M 567.2 242.0 "></path></clipPath><g clip-path="url(#clip-39391)"><g><clipPath id="clip-39392"><path d="M 480.4 204.9 L 583.4 204.9 L 583.4 249.6 L 480.4 249.6 Z M 480.4 204.9 "></path></clipPath><g clip-path="url(#clip-39392)"><image xlink:href="../../E032F876-E8E9-4C42-AF2C-93ED8E896D6C/assets/AFF4D1F361AD28AA82012E14045EB299.jpeg" width="128.00" height="128.00" transform="matrix(1.00, 0.00, -0.00, -1.00, 481.9, 248.1)"></image><path d="M 481.9 248.1 L 581.9 248.1 L 581.9 206.4 L 481.9 206.4 Z M 481.9 248.1 " fill="#1093A4" fill-opacity="0.85"></path></g></g></g></g><g><clipPath id="clip-39393"><path d="M 480.4 204.9 L 583.4 204.9 L 583.4 249.6 L 480.4 249.6 Z M 480.4 204.9 "></path></clipPath><g clip-path="url(#clip-39393)"><path d="M 85.4 6.1 C 104.9 14.2 104.9 27.4 85.4 35.6 C 65.8 43.7 34.2 43.7 14.6 35.6 C -4.9 27.4 -4.9 14.2 14.6 6.1 C 34.2 -2.0 65.8 -2.0 85.4 6.1 Z M 85.4 6.1 " fill="none" stroke="#A6AAA8" stroke-width="1.00" transform="matrix(1.00, 0.00, 0.00, -1.00, 481.9, 248.1)"></path></g></g><g><clipPath id="clip-39394"><path d="M 476.0 125.5 L 586.1 125.5 L 586.1 247.8 L 476.0 247.8 Z M 476.0 125.5 "></path></clipPath><g clip-path="url(#clip-39394)"><image xlink:href="../../E032F876-E8E9-4C42-AF2C-93ED8E896D6C/assets/18EBC3A74E6F7292DBD243080D117D0A.png" width="110.00" height="123.00" transform="matrix(1.00, 0.00, -0.00, -1.00, 476.0, 248.0)"></image></g></g><path d="M 8.8 156.3 L 8.5 154.9 C -4.1 102.9 -2.7 51.2 12.8 0.0 " fill="none" stroke="#000000" stroke-width="3.00" stroke-linecap="round" stroke-dasharray="0.0, 9.0" transform="matrix(1.00, 0.00, 0.00, -1.00, 291.3, 414.3)"></path><path d="M 293.4 257.7 L 303.2 246.6 L 306.2 261.1 Z M 293.4 257.7 " fill="#000000"></path><path d="M 0.0 0.0 C 56.0 51.0 94.8 112.6 116.6 184.7 L 117.0 186.2 " fill="none" stroke="#000000" stroke-width="3.00" stroke-linecap="round" stroke-dasharray="0.0, 9.0" transform="matrix(1.00, 0.00, 0.00, -1.00, 397.8, 445.8)"></path><path d="M 508.0 259.2 L 518.0 248.3 L 520.7 262.8 Z M 508.0 259.2 " fill="#000000"></path><path d="M 0.0 0.0 C 112.0 49.8 206.4 122.0 283.1 216.5 L 284.1 217.7 " fill="none" stroke="#000000" stroke-width="3.00" stroke-linecap="round" stroke-dasharray="0.0, 9.0" transform="matrix(1.00, 0.00, 0.00, -1.00, 397.8, 468.0)"></path><path d="M 675.8 247.4 L 689.2 241.2 L 686.1 255.6 Z M 675.8 247.4 " fill="#000000"></path><g><clipPath id="clip-39395"><path d="M 487.5 593.5 L 605.5 593.5 L 605.5 439.5 L 487.5 439.5 Z M 487.5 593.5 "></path></clipPath><g clip-path="url(#clip-39395)"><g><clipPath id="clip-39396"><path d="M 496.5 439.5 L 497.5 439.5 L 497.5 593.5 L 496.5 593.5 Z M 496.5 439.5 "></path></clipPath><g clip-path="url(#clip-39396)"><path d="M 11.0 1.5 L 11.0 155.5 " fill="none" stroke="#52575F" stroke-width="1.00" stroke-dasharray="2.0, 2.0" transform="matrix(1.00, 0.00, 0.00, -1.00, 486.0, 595.0)"></path></g></g></g></g><g><clipPath id="clip-39397"><path d="M 487.5 593.5 L 605.5 593.5 L 605.5 439.5 L 487.5 439.5 Z M 487.5 593.5 "></path></clipPath><g clip-path="url(#clip-39397)"><g><clipPath id="clip-39398"><path d="M 505.5 439.5 L 506.5 439.5 L 506.5 593.5 L 505.5 593.5 Z M 505.5 439.5 "></path></clipPath><g clip-path="url(#clip-39398)"><path d="M 20.0 1.5 L 20.0 155.5 " fill="none" stroke="#52575F" stroke-width="1.00" stroke-dasharray="2.0, 2.0" transform="matrix(1.00, 0.00, 0.00, -1.00, 486.0, 595.0)"></path></g></g></g></g><g><clipPath id="clip-39399"><path d="M 487.5 593.5 L 605.5 593.5 L 605.5 439.5 L 487.5 439.5 Z M 487.5 593.5 "></path></clipPath><g clip-path="url(#clip-39399)"><g><clipPath id="clip-39400"><path d="M 514.5 439.5 L 515.5 439.5 L 515.5 593.5 L 514.5 593.5 Z M 514.5 439.5 "></path></clipPath><g clip-path="url(#clip-39400)"><path d="M 29.0 1.5 L 29.0 155.5 " fill="none" stroke="#52575F" stroke-width="1.00" stroke-dasharray="2.0, 2.0" transform="matrix(1.00, 0.00, 0.00, -1.00, 486.0, 595.0)"></path></g></g></g></g><g><clipPath id="clip-39401"><path d="M 487.5 593.5 L 605.5 593.5 L 605.5 439.5 L 487.5 439.5 Z M 487.5 593.5 "></path></clipPath><g clip-path="url(#clip-39401)"><g><clipPath id="clip-39402"><path d="M 523.5 439.5 L 524.5 439.5 L 524.5 593.5 L 523.5 593.5 Z M 523.5 439.5 "></path></clipPath><g clip-path="url(#clip-39402)"><path d="M 38.0 1.5 L 38.0 155.5 " fill="none" stroke="#52575F" stroke-width="1.00" stroke-dasharray="2.0, 2.0" transform="matrix(1.00, 0.00, 0.00, -1.00, 486.0, 595.0)"></path></g></g></g></g><g><clipPath id="clip-39403"><path d="M 487.5 593.5 L 605.5 593.5 L 605.5 439.5 L 487.5 439.5 Z M 487.5 593.5 "></path></clipPath><g clip-path="url(#clip-39403)"><g><clipPath id="clip-39404"><path d="M 532.5 439.5 L 533.5 439.5 L 533.5 593.5 L 532.5 593.5 Z M 532.5 439.5 "></path></clipPath><g clip-path="url(#clip-39404)"><path d="M 47.0 1.5 L 47.0 155.5 " fill="none" stroke="#52575F" stroke-width="1.00" stroke-dasharray="2.0, 2.0" transform="matrix(1.00, 0.00, 0.00, -1.00, 486.0, 595.0)"></path></g></g></g></g><g><clipPath id="clip-39405"><path d="M 487.5 593.5 L 605.5 593.5 L 605.5 439.5 L 487.5 439.5 Z M 487.5 593.5 "></path></clipPath><g clip-path="url(#clip-39405)"><g><clipPath id="clip-39406"><path d="M 541.5 439.5 L 542.5 439.5 L 542.5 593.5 L 541.5 593.5 Z M 541.5 439.5 "></path></clipPath><g clip-path="url(#clip-39406)"><path d="M 56.0 1.5 L 56.0 155.5 " fill="none" stroke="#52575F" stroke-width="1.00" stroke-dasharray="2.0, 2.0" transform="matrix(1.00, 0.00, 0.00, -1.00, 486.0, 595.0)"></path></g></g></g></g><g><clipPath id="clip-39407"><path d="M 487.5 593.5 L 605.5 593.5 L 605.5 439.5 L 487.5 439.5 Z M 487.5 593.5 "></path></clipPath><g clip-path="url(#clip-39407)"><g><clipPath id="clip-39408"><path d="M 550.5 439.5 L 551.5 439.5 L 551.5 593.5 L 550.5 593.5 Z M 550.5 439.5 "></path></clipPath><g clip-path="url(#clip-39408)"><path d="M 65.0 1.5 L 65.0 155.5 " fill="none" stroke="#52575F" stroke-width="1.00" stroke-dasharray="2.0, 2.0" transform="matrix(1.00, 0.00, 0.00, -1.00, 486.0, 595.0)"></path></g></g></g></g><g><clipPath id="clip-39409"><path d="M 487.5 593.5 L 605.5 593.5 L 605.5 439.5 L 487.5 439.5 Z M 487.5 593.5 "></path></clipPath><g clip-path="url(#clip-39409)"><g><clipPath id="clip-39410"><path d="M 559.5 439.5 L 560.5 439.5 L 560.5 593.5 L 559.5 593.5 Z M 559.5 439.5 "></path></clipPath><g clip-path="url(#clip-39410)"><path d="M 74.0 1.5 L 74.0 155.5 " fill="none" stroke="#52575F" stroke-width="1.00" stroke-dasharray="2.0, 2.0" transform="matrix(1.00, 0.00, 0.00, -1.00, 486.0, 595.0)"></path></g></g></g></g><g><clipPath id="clip-39411"><path d="M 487.5 593.5 L 605.5 593.5 L 605.5 439.5 L 487.5 439.5 Z M 487.5 593.5 "></path></clipPath><g clip-path="url(#clip-39411)"><g><clipPath id="clip-39412"><path d="M 568.5 439.5 L 569.5 439.5 L 569.5 593.5 L 568.5 593.5 Z M 568.5 439.5 "></path></clipPath><g clip-path="url(#clip-39412)"><path d="M 83.0 1.5 L 83.0 155.5 " fill="none" stroke="#52575F" stroke-width="1.00" stroke-dasharray="2.0, 2.0" transform="matrix(1.00, 0.00, 0.00, -1.00, 486.0, 595.0)"></path></g></g></g></g><g><clipPath id="clip-39413"><path d="M 487.5 593.5 L 605.5 593.5 L 605.5 439.5 L 487.5 439.5 Z M 487.5 593.5 "></path></clipPath><g clip-path="url(#clip-39413)"><g><clipPath id="clip-39414"><path d="M 577.5 439.5 L 578.5 439.5 L 578.5 593.5 L 577.5 593.5 Z M 577.5 439.5 "></path></clipPath><g clip-path="url(#clip-39414)"><path d="M 92.0 1.5 L 92.0 155.5 " fill="none" stroke="#52575F" stroke-width="1.00" stroke-dasharray="2.0, 2.0" transform="matrix(1.00, 0.00, 0.00, -1.00, 486.0, 595.0)"></path></g></g></g></g><g><clipPath id="clip-39415"><path d="M 487.5 593.5 L 605.5 593.5 L 605.5 439.5 L 487.5 439.5 Z M 487.5 593.5 "></path></clipPath><g clip-path="url(#clip-39415)"><g><clipPath id="clip-39416"><path d="M 586.5 439.5 L 587.5 439.5 L 587.5 593.5 L 586.5 593.5 Z M 586.5 439.5 "></path></clipPath><g clip-path="url(#clip-39416)"><path d="M 101.0 1.5 L 101.0 155.5 " fill="none" stroke="#52575F" stroke-width="1.00" stroke-dasharray="2.0, 2.0" transform="matrix(1.00, 0.00, 0.00, -1.00, 486.0, 595.0)"></path></g></g></g></g><g><clipPath id="clip-39417"><path d="M 487.5 593.5 L 605.5 593.5 L 605.5 439.5 L 487.5 439.5 Z M 487.5 593.5 "></path></clipPath><g clip-path="url(#clip-39417)"><g><clipPath id="clip-39418"><path d="M 595.5 439.5 L 596.5 439.5 L 596.5 593.5 L 595.5 593.5 Z M 595.5 439.5 "></path></clipPath><g clip-path="url(#clip-39418)"><path d="M 110.0 1.5 L 110.0 155.5 " fill="none" stroke="#52575F" stroke-width="1.00" stroke-dasharray="2.0, 2.0" transform="matrix(1.00, 0.00, 0.00, -1.00, 486.0, 595.0)"></path></g></g></g></g><g><clipPath id="clip-39419"><path d="M 487.5 593.5 L 605.5 593.5 L 605.5 439.5 L 487.5 439.5 Z M 487.5 593.5 "></path></clipPath><g clip-path="url(#clip-39419)"><g><clipPath id="clip-39420"><path d="M 487.5 583.5 L 605.5 583.5 L 605.5 584.5 L 487.5 584.5 Z M 487.5 583.5 "></path></clipPath><g clip-path="url(#clip-39420)"><path d="M 1.5 11.0 L 119.5 11.0 " fill="none" stroke="#52575F" stroke-width="1.00" stroke-dasharray="2.0, 2.0" transform="matrix(1.00, 0.00, 0.00, -1.00, 486.0, 595.0)"></path></g></g></g></g><g><clipPath id="clip-39421"><path d="M 487.5 593.5 L 605.5 593.5 L 605.5 439.5 L 487.5 439.5 Z M 487.5 593.5 "></path></clipPath><g clip-path="url(#clip-39421)"><g><clipPath id="clip-39422"><path d="M 487.5 574.5 L 605.5 574.5 L 605.5 575.5 L 487.5 575.5 Z M 487.5 574.5 "></path></clipPath><g clip-path="url(#clip-39422)"><path d="M 1.5 20.0 L 119.5 20.0 " fill="none" stroke="#52575F" stroke-width="1.00" stroke-dasharray="2.0, 2.0" transform="matrix(1.00, 0.00, 0.00, -1.00, 486.0, 595.0)"></path></g></g></g></g><g><clipPath id="clip-39423"><path d="M 487.5 593.5 L 605.5 593.5 L 605.5 439.5 L 487.5 439.5 Z M 487.5 593.5 "></path></clipPath><g clip-path="url(#clip-39423)"><g><clipPath id="clip-39424"><path d="M 487.5 565.5 L 605.5 565.5 L 605.5 566.5 L 487.5 566.5 Z M 487.5 565.5 "></path></clipPath><g clip-path="url(#clip-39424)"><path d="M 1.5 29.0 L 119.5 29.0 " fill="none" stroke="#52575F" stroke-width="1.00" stroke-dasharray="2.0, 2.0" transform="matrix(1.00, 0.00, 0.00, -1.00, 486.0, 595.0)"></path></g></g></g></g><g><clipPath id="clip-39425"><path d="M 487.5 593.5 L 605.5 593.5 L 605.5 439.5 L 487.5 439.5 Z M 487.5 593.5 "></path></clipPath><g clip-path="url(#clip-39425)"><g><clipPath id="clip-39426"><path d="M 487.5 556.5 L 605.5 556.5 L 605.5 557.5 L 487.5 557.5 Z M 487.5 556.5 "></path></clipPath><g clip-path="url(#clip-39426)"><path d="M 1.5 38.0 L 119.5 38.0 " fill="none" stroke="#52575F" stroke-width="1.00" stroke-dasharray="2.0, 2.0" transform="matrix(1.00, 0.00, 0.00, -1.00, 486.0, 595.0)"></path></g></g></g></g><g><clipPath id="clip-39427"><path d="M 487.5 593.5 L 605.5 593.5 L 605.5 439.5 L 487.5 439.5 Z M 487.5 593.5 "></path></clipPath><g clip-path="url(#clip-39427)"><g><clipPath id="clip-39428"><path d="M 487.5 547.5 L 605.5 547.5 L 605.5 548.5 L 487.5 548.5 Z M 487.5 547.5 "></path></clipPath><g clip-path="url(#clip-39428)"><path d="M 1.5 47.0 L 119.5 47.0 " fill="none" stroke="#52575F" stroke-width="1.00" stroke-dasharray="2.0, 2.0" transform="matrix(1.00, 0.00, 0.00, -1.00, 486.0, 595.0)"></path></g></g></g></g><g><clipPath id="clip-39429"><path d="M 487.5 593.5 L 605.5 593.5 L 605.5 439.5 L 487.5 439.5 Z M 487.5 593.5 "></path></clipPath><g clip-path="url(#clip-39429)"><g><clipPath id="clip-39430"><path d="M 487.5 538.5 L 605.5 538.5 L 605.5 539.5 L 487.5 539.5 Z M 487.5 538.5 "></path></clipPath><g clip-path="url(#clip-39430)"><path d="M 1.5 56.0 L 119.5 56.0 " fill="none" stroke="#52575F" stroke-width="1.00" stroke-dasharray="2.0, 2.0" transform="matrix(1.00, 0.00, 0.00, -1.00, 486.0, 595.0)"></path></g></g></g></g><g><clipPath id="clip-39431"><path d="M 487.5 593.5 L 605.5 593.5 L 605.5 439.5 L 487.5 439.5 Z M 487.5 593.5 "></path></clipPath><g clip-path="url(#clip-39431)"><g><clipPath id="clip-39432"><path d="M 487.5 529.5 L 605.5 529.5 L 605.5 530.5 L 487.5 530.5 Z M 487.5 529.5 "></path></clipPath><g clip-path="url(#clip-39432)"><path d="M 1.5 65.0 L 119.5 65.0 " fill="none" stroke="#52575F" stroke-width="1.00" stroke-dasharray="2.0, 2.0" transform="matrix(1.00, 0.00, 0.00, -1.00, 486.0, 595.0)"></path></g></g></g></g><g><clipPath id="clip-39433"><path d="M 487.5 593.5 L 605.5 593.5 L 605.5 439.5 L 487.5 439.5 Z M 487.5 593.5 "></path></clipPath><g clip-path="url(#clip-39433)"><g><clipPath id="clip-39434"><path d="M 487.5 520.5 L 605.5 520.5 L 605.5 521.5 L 487.5 521.5 Z M 487.5 520.5 "></path></clipPath><g clip-path="url(#clip-39434)"><path d="M 1.5 74.0 L 119.5 74.0 " fill="none" stroke="#52575F" stroke-width="1.00" stroke-dasharray="2.0, 2.0" transform="matrix(1.00, 0.00, 0.00, -1.00, 486.0, 595.0)"></path></g></g></g></g><g><clipPath id="clip-39435"><path d="M 487.5 593.5 L 605.5 593.5 L 605.5 439.5 L 487.5 439.5 Z M 487.5 593.5 "></path></clipPath><g clip-path="url(#clip-39435)"><g><clipPath id="clip-39436"><path d="M 487.5 511.5 L 605.5 511.5 L 605.5 512.5 L 487.5 512.5 Z M 487.5 511.5 "></path></clipPath><g clip-path="url(#clip-39436)"><path d="M 1.5 83.0 L 119.5 83.0 " fill="none" stroke="#52575F" stroke-width="1.00" stroke-dasharray="2.0, 2.0" transform="matrix(1.00, 0.00, 0.00, -1.00, 486.0, 595.0)"></path></g></g></g></g><g><clipPath id="clip-39437"><path d="M 487.5 593.5 L 605.5 593.5 L 605.5 439.5 L 487.5 439.5 Z M 487.5 593.5 "></path></clipPath><g clip-path="url(#clip-39437)"><g><clipPath id="clip-39438"><path d="M 487.5 502.5 L 605.5 502.5 L 605.5 503.5 L 487.5 503.5 Z M 487.5 502.5 "></path></clipPath><g clip-path="url(#clip-39438)"><path d="M 1.5 92.0 L 119.5 92.0 " fill="none" stroke="#52575F" stroke-width="1.00" stroke-dasharray="2.0, 2.0" transform="matrix(1.00, 0.00, 0.00, -1.00, 486.0, 595.0)"></path></g></g></g></g><g><clipPath id="clip-39439"><path d="M 487.5 593.5 L 605.5 593.5 L 605.5 439.5 L 487.5 439.5 Z M 487.5 593.5 "></path></clipPath><g clip-path="url(#clip-39439)"><g><clipPath id="clip-39440"><path d="M 487.5 493.5 L 605.5 493.5 L 605.5 494.5 L 487.5 494.5 Z M 487.5 493.5 "></path></clipPath><g clip-path="url(#clip-39440)"><path d="M 1.5 101.0 L 119.5 101.0 " fill="none" stroke="#52575F" stroke-width="1.00" stroke-dasharray="2.0, 2.0" transform="matrix(1.00, 0.00, 0.00, -1.00, 486.0, 595.0)"></path></g></g></g></g><g><clipPath id="clip-39441"><path d="M 487.5 593.5 L 605.5 593.5 L 605.5 439.5 L 487.5 439.5 Z M 487.5 593.5 "></path></clipPath><g clip-path="url(#clip-39441)"><g><clipPath id="clip-39442"><path d="M 487.5 484.5 L 605.5 484.5 L 605.5 485.5 L 487.5 485.5 Z M 487.5 484.5 "></path></clipPath><g clip-path="url(#clip-39442)"><path d="M 1.5 110.0 L 119.5 110.0 " fill="none" stroke="#52575F" stroke-width="1.00" stroke-dasharray="2.0, 2.0" transform="matrix(1.00, 0.00, 0.00, -1.00, 486.0, 595.0)"></path></g></g></g></g><g><clipPath id="clip-39443"><path d="M 487.5 593.5 L 605.5 593.5 L 605.5 439.5 L 487.5 439.5 Z M 487.5 593.5 "></path></clipPath><g clip-path="url(#clip-39443)"><g><clipPath id="clip-39444"><path d="M 487.5 475.5 L 605.5 475.5 L 605.5 476.5 L 487.5 476.5 Z M 487.5 475.5 "></path></clipPath><g clip-path="url(#clip-39444)"><path d="M 1.5 119.0 L 119.5 119.0 " fill="none" stroke="#52575F" stroke-width="1.00" stroke-dasharray="2.0, 2.0" transform="matrix(1.00, 0.00, 0.00, -1.00, 486.0, 595.0)"></path></g></g></g></g><g><clipPath id="clip-39445"><path d="M 487.5 593.5 L 605.5 593.5 L 605.5 439.5 L 487.5 439.5 Z M 487.5 593.5 "></path></clipPath><g clip-path="url(#clip-39445)"><g><clipPath id="clip-39446"><path d="M 487.5 466.5 L 605.5 466.5 L 605.5 467.5 L 487.5 467.5 Z M 487.5 466.5 "></path></clipPath><g clip-path="url(#clip-39446)"><path d="M 1.5 128.0 L 119.5 128.0 " fill="none" stroke="#52575F" stroke-width="1.00" stroke-dasharray="2.0, 2.0" transform="matrix(1.00, 0.00, 0.00, -1.00, 486.0, 595.0)"></path></g></g></g></g><g><clipPath id="clip-39447"><path d="M 487.5 593.5 L 605.5 593.5 L 605.5 439.5 L 487.5 439.5 Z M 487.5 593.5 "></path></clipPath><g clip-path="url(#clip-39447)"><g><clipPath id="clip-39448"><path d="M 487.5 457.5 L 605.5 457.5 L 605.5 458.5 L 487.5 458.5 Z M 487.5 457.5 "></path></clipPath><g clip-path="url(#clip-39448)"><path d="M 1.5 137.0 L 119.5 137.0 " fill="none" stroke="#52575F" stroke-width="1.00" stroke-dasharray="2.0, 2.0" transform="matrix(1.00, 0.00, 0.00, -1.00, 486.0, 595.0)"></path></g></g></g></g><g><clipPath id="clip-39449"><path d="M 487.5 593.5 L 605.5 593.5 L 605.5 439.5 L 487.5 439.5 Z M 487.5 593.5 "></path></clipPath><g clip-path="url(#clip-39449)"><g><clipPath id="clip-39450"><path d="M 487.5 448.5 L 605.5 448.5 L 605.5 449.5 L 487.5 449.5 Z M 487.5 448.5 "></path></clipPath><g clip-path="url(#clip-39450)"><path d="M 1.5 146.0 L 119.5 146.0 " fill="none" stroke="#52575F" stroke-width="1.00" stroke-dasharray="2.0, 2.0" transform="matrix(1.00, 0.00, 0.00, -1.00, 486.0, 595.0)"></path></g></g></g></g><g><clipPath id="clip-39451"><path d="M 487.5 593.5 L 605.5 593.5 L 605.5 439.5 L 487.5 439.5 Z M 487.5 593.5 "></path></clipPath><g clip-path="url(#clip-39451)"><path d="M 2.0 1.5 L 2.0 155.5 " fill="none" stroke="#FEFFFE" stroke-width="1.00" transform="matrix(1.00, 0.00, 0.00, -1.00, 486.0, 595.0)"></path><path d="M 119.0 1.5 L 119.0 155.5 " fill="none" stroke="#FEFFFF" stroke-width="1.00" transform="matrix(1.00, 0.00, 0.00, -1.00, 486.0, 595.0)"></path><path d="M 1.5 2.0 L 119.5 2.0 " fill="none" stroke="#FEFFFE" stroke-width="1.00" transform="matrix(1.00, 0.00, 0.00, -1.00, 486.0, 595.0)"></path><path d="M 1.5 155.0 L 119.5 155.0 " fill="none" stroke="#FEFFFE" stroke-width="1.00" transform="matrix(1.00, 0.00, 0.00, -1.00, 486.0, 595.0)"></path></g></g><path d="M 22.7 184.8 L 22.1 183.4 C -6.9 117.1 -7.4 56.0 20.8 0.0 " fill="none" stroke="#000000" stroke-width="3.00" stroke-linecap="round" stroke-dasharray="0.0, 9.0" transform="matrix(1.00, 0.00, 0.00, -1.00, 465.5, 438.9)"></path><path d="M 481.6 252.7 L 493.1 243.5 L 493.6 258.2 Z M 481.6 252.7 " fill="#000000"></path><path d="M 2.0 210.8 L 2.3 209.3 C 16.1 144.6 69.8 74.8 163.5 0.0 " fill="none" stroke="#000000" stroke-width="3.00" stroke-linecap="round" stroke-dasharray="0.0, 9.0" transform="matrix(1.00, 0.00, 0.00, -1.00, 322.8, 470.9)"></path><path d="M 318.5 262.7 L 322.8 248.6 L 331.5 260.5 Z M 318.5 262.7 " fill="#000000"></path><path d="M 0.0 56.2 C 98.8 -9.7 198.6 -17.6 299.5 32.4 L 300.4 32.8 " fill="none" stroke="#000000" stroke-width="2.00" transform="matrix(1.00, 0.00, 0.00, -1.00, 178.2, 591.7)"></path><path d="M 475.5 555.0 L 486.3 554.9 L 479.9 563.5 Z M 475.5 555.0 " fill="#000000"></path><image xlink:href="../../E032F876-E8E9-4C42-AF2C-93ED8E896D6C/assets/15EE3C20513621AFF0785F295453E611.png" width="12.00" height="11.00" transform="matrix(1.00, 0.00, -0.00, -0.91, 563.0, 464.0)"></image><image xlink:href="../../E032F876-E8E9-4C42-AF2C-93ED8E896D6C/assets/7BF868126371516F35EE24CF67107A29.png" width="12.00" height="11.00" transform="matrix(1.00, 0.00, -0.00, -1.00, 522.0, 495.0)"></image><image xlink:href="../../E032F876-E8E9-4C42-AF2C-93ED8E896D6C/assets/D59024D7C3C0809BAD52C011AF8FF8AD.png" width="12.00" height="10.00" transform="matrix(1.00, 0.00, -0.00, -1.00, 506.0, 464.0)"></image><image xlink:href="../../E032F876-E8E9-4C42-AF2C-93ED8E896D6C/assets/D59024D7C3C0809BAD52C011AF8FF8AD.png" width="12.00" height="10.00" transform="matrix(0.92, 0.00, -0.00, -1.00, 515.0, 464.0)"></image><image xlink:href="../../E032F876-E8E9-4C42-AF2C-93ED8E896D6C/assets/D59024D7C3C0809BAD52C011AF8FF8AD.png" width="12.00" height="10.00" transform="matrix(1.00, 0.00, -0.00, -1.10, 522.0, 515.0)"></image><image xlink:href="../../E032F876-E8E9-4C42-AF2C-93ED8E896D6C/assets/D59024D7C3C0809BAD52C011AF8FF8AD.png" width="12.00" height="10.00" transform="matrix(1.00, 0.00, -0.00, -1.10, 532.0, 505.0)"></image><image xlink:href="../../E032F876-E8E9-4C42-AF2C-93ED8E896D6C/assets/15EE3C20513621AFF0785F295453E611.png" width="12.00" height="11.00" transform="matrix(1.00, 0.00, -0.00, -1.00, 522.0, 505.0)"></image><image xlink:href="../../E032F876-E8E9-4C42-AF2C-93ED8E896D6C/assets/15EE3C20513621AFF0785F295453E611.png" width="12.00" height="11.00" transform="matrix(1.00, 0.00, -0.00, -1.00, 532.0, 495.0)"></image><text xml:space="preserve" font-family="Helvetica-Bold" font-weight="bold" font-size="36.0" fill="#C82505" transform="matrix(1.00, 0.00, -0.00, -1.00, 301.0, 278.0)">?</text><text xml:space="preserve" font-family="Helvetica-Bold" font-weight="bold" font-size="36.0" fill="#C82505" transform="matrix(1.00, 0.00, -0.00, -1.00, 486.0, 262.0)">?</text><text xml:space="preserve" font-family="Helvetica-Bold" font-weight="bold" font-size="36.0" fill="#C82505" transform="matrix(1.00, 0.00, -0.00, -1.00, 688.0, 262.0)">?</text></g></svg>