<?xml version="1.0" encoding="UTF-8" standalone="no"?><svg xmlns="http://www.w3.org/2000/svg" xmlns:xlink="http://www.w3.org/1999/xlink" clip-rule="evenodd" stroke-miterlimit="4.00" viewBox="0 0 1024 768"><desc>SVG generated by Keynote</desc><defs></defs><g transform="matrix(1.00, 0.00, -0.00, -1.00, 0.0, 768.0)"><path d="M 0.0 768.0 L 1024.0 768.0 L 1024.0 0.0 L 0.0 0.0 Z M 0.0 768.0 " fill="#FEFFFF"></path><g><clipPath id="clip-1751"><path d="M 195.0 567.0 L 313.0 567.0 L 313.0 414.0 L 195.0 414.0 Z M 195.4 567.3 "></path></clipPath><g clip-path="url(#clip-1751)"><image xlink:href="../../95A99818-43CC-4338-A2DB-6C5BB45DAE27/assets/2DB46BB52E56BEC32DB1E38355FA3BAE.png" width="117.00" height="154.00" transform="matrix(1.01, 0.00, -0.00, -0.99, 195.0, 567.0)"></image></g></g><text xml:space="preserve" font-family="Helvetica-Bold" font-weight="bold" font-size="36.0" fill="#000000" transform="matrix(1.00, 0.00, -0.00, -1.00, 369.0, 720.0)">R</text><text xml:space="preserve" font-family="Helvetica-Bold" font-weight="bold" font-size="36.0" fill="#000000" transform="matrix(1.00, 0.00, -0.00, -1.00, 395.0, 720.0)">e</text><text xml:space="preserve" font-family="Helvetica-Bold" font-weight="bold" font-size="36.0" fill="#000000" transform="matrix(1.00, 0.00, -0.00, -1.00, 415.0, 720.0)">p</text><text xml:space="preserve" font-family="Helvetica-Bold" font-weight="bold" font-size="36.0" fill="#000000" transform="matrix(1.00, 0.00, -0.00, -1.00, 437.0, 720.0)">l</text><text xml:space="preserve" font-family="Helvetica-Bold" font-weight="bold" font-size="36.0" fill="#000000" transform="matrix(1.00, 0.00, -0.00, -1.00, 447.0, 720.0)">i</text><text xml:space="preserve" font-family="Helvetica-Bold" font-weight="bold" font-size="36.0" fill="#000000" transform="matrix(1.00, 0.00, -0.00, -1.00, 457.0, 720.0)">c</text><text xml:space="preserve" font-family="Helvetica-Bold" font-weight="bold" font-size="36.0" fill="#000000" transform="matrix(1.00, 0.00, -0.00, -1.00, 477.0, 720.0)">a</text><text xml:space="preserve" font-family="Helvetica-Bold" font-weight="bold" font-size="36.0" fill="#000000" transform="matrix(1.00, 0.00, -0.00, -1.00, 497.1, 720.0)">t</text><text xml:space="preserve" font-family="Helvetica-Bold" font-weight="bold" font-size="36.0" fill="#000000" transform="matrix(1.00, 0.00, -0.00, -1.00, 509.1, 720.0)">i</text><text xml:space="preserve" font-family="Helvetica-Bold" font-weight="bold" font-size="36.0" fill="#000000" transform="matrix(1.00, 0.00, -0.00, -1.00, 519.0, 720.0)">n</text><text xml:space="preserve" font-family="Helvetica-Bold" font-weight="bold" font-size="36.0" fill="#000000" transform="matrix(1.00, 0.00, -0.00, -1.00, 541.0, 720.0)">g</text><text xml:space="preserve" font-family="Helvetica-Bold" font-weight="bold" font-size="36.0" fill="#000000" transform="matrix(1.00, 0.00, -0.00, -1.00, 563.0, 720.0)"> </text><text xml:space="preserve" font-family="Helvetica-Bold" font-weight="bold" font-size="36.0" fill="#000000" transform="matrix(1.00, 0.00, -0.00, -1.00, 573.0, 720.0)">F</text><text xml:space="preserve" font-family="Helvetica-Bold" font-weight="bold" font-size="36.0" fill="#000000" transform="matrix(1.00, 0.00, -0.00, -1.00, 595.0, 720.0)">i</text><text xml:space="preserve" font-family="Helvetica-Bold" font-weight="bold" font-size="36.0" fill="#000000" transform="matrix(1.00, 0.00, -0.00, -1.00, 605.0, 720.0)">l</text><text xml:space="preserve" font-family="Helvetica-Bold" font-weight="bold" font-size="36.0" fill="#000000" transform="matrix(1.00, 0.00, -0.00, -1.00, 615.0, 720.0)">e</text><text xml:space="preserve" font-family="Helvetica-Bold" font-weight="bold" font-size="36.0" fill="#000000" transform="matrix(1.00, 0.00, -0.00, -1.00, 635.0, 720.0)">s</text><text xml:space="preserve" font-family="Helvetica-Bold" font-weight="bold" font-size="36.0" fill="#000000" transform="matrix(1.00, 0.00, -0.00, -1.00, 386.0, 677.0)">w</text><text xml:space="preserve" font-family="Helvetica-Bold" font-weight="bold" font-size="36.0" fill="#000000" transform="matrix(1.00, 0.00, -0.00, -1.00, 414.0, 677.0)">i</text><text xml:space="preserve" font-family="Helvetica-Bold" font-weight="bold" font-size="36.0" fill="#000000" transform="matrix(1.00, 0.00, -0.00, -1.00, 424.0, 677.0)">t</text><text xml:space="preserve" font-family="Helvetica-Bold" font-weight="bold" font-size="36.0" fill="#000000" transform="matrix(1.00, 0.00, -0.00, -1.00, 436.0, 677.0)">h</text><text xml:space="preserve" font-family="Helvetica-Bold" font-weight="bold" font-size="36.0" fill="#000000" transform="matrix(1.00, 0.00, -0.00, -1.00, 458.0, 677.0)"> </text><text xml:space="preserve" font-family="Helvetica-Bold" font-weight="bold" font-size="36.0" fill="#000000" transform="matrix(1.00, 0.00, -0.00, -1.00, 468.0, 677.0)">b</text><text xml:space="preserve" font-family="Helvetica-Bold" font-weight="bold" font-size="36.0" fill="#000000" transform="matrix(1.00, 0.00, -0.00, -1.00, 489.9, 677.0)">i</text><text xml:space="preserve" font-family="Helvetica-Bold" font-weight="bold" font-size="36.0" fill="#000000" transform="matrix(1.00, 0.00, -0.00, -1.00, 499.9, 677.0)">t</text><text xml:space="preserve" font-family="Helvetica-Bold" font-weight="bold" font-size="36.0" fill="#000000" transform="matrix(1.00, 0.00, -0.00, -1.00, 511.9, 677.0)"> </text><text xml:space="preserve" font-family="Helvetica-Bold" font-weight="bold" font-size="36.0" fill="#000000" transform="matrix(1.00, 0.00, -0.00, -1.00, 521.9, 677.0)">t</text><text xml:space="preserve" font-family="Helvetica-Bold" font-weight="bold" font-size="36.0" fill="#000000" transform="matrix(1.00, 0.00, -0.00, -1.00, 533.9, 677.0)">o</text><text xml:space="preserve" font-family="Helvetica-Bold" font-weight="bold" font-size="36.0" fill="#000000" transform="matrix(1.00, 0.00, -0.00, -1.00, 555.9, 677.0)">r</text><text xml:space="preserve" font-family="Helvetica-Bold" font-weight="bold" font-size="36.0" fill="#000000" transform="matrix(1.00, 0.00, -0.00, -1.00, 569.9, 677.0)">r</text><text xml:space="preserve" font-family="Helvetica-Bold" font-weight="bold" font-size="36.0" fill="#000000" transform="matrix(1.00, 0.00, -0.00, -1.00, 583.9, 677.0)">e</text><text xml:space="preserve" font-family="Helvetica-Bold" font-weight="bold" font-size="36.0" fill="#000000" transform="matrix(1.00, 0.00, -0.00, -1.00, 604.0, 677.0)">n</text><text xml:space="preserve" font-family="Helvetica-Bold" font-weight="bold" font-size="36.0" fill="#000000" transform="matrix(1.00, 0.00, -0.00, -1.00, 625.9, 677.0)">t</text><path d="M 0.0 0.0 L 119.6 0.0 L 119.6 157.1 L 0.0 157.1 Z M 0.0 0.0 " fill="none" stroke="#A6AAA8" stroke-width="2.00" transform="matrix(1.00, 0.00, 0.00, -1.00, 194.1, 569.4)"></path><path d="M 0.0 0.0 L 119.6 0.0 L 119.6 157.1 L 0.0 157.1 Z M 0.0 0.0 " fill="none" stroke="#A6AAA8" stroke-width="2.00" transform="matrix(1.00, 0.00, 0.00, -1.00, 549.3, 407.8)"></path><path d="M 0.0 1.5 C 138.3 -6.6 227.8 18.8 268.7 77.6 L 269.5 78.9 " fill="none" stroke="#000000" stroke-width="3.00" stroke-linecap="round" stroke-dasharray="0.0, 9.0" transform="matrix(1.00, 0.00, 0.00, -1.00, 314.8, 497.6)"></path><path d="M 577.9 416.5 L 590.4 408.8 L 589.1 423.5 Z M 577.9 416.5 " fill="#000000"></path><g><clipPath id="clip-1752"><path d="M 200.5 566.5 L 307.8 566.5 L 307.8 414.6 L 200.5 414.6 Z M 200.5 566.5 "></path></clipPath><g clip-path="url(#clip-1752)"><g><clipPath id="clip-1753"><path d="M 221.8 414.6 L 222.8 414.6 L 222.8 566.5 L 221.8 566.5 Z M 221.8 414.6 "></path></clipPath><g clip-path="url(#clip-1753)"><path d="M 23.3 1.5 L 23.3 153.4 " fill="none" stroke="#DCDDE0" stroke-width="1.00" stroke-dasharray="2.0, 2.0" transform="matrix(1.00, 0.00, 0.00, -1.00, 199.0, 568.0)"></path></g></g></g></g><g><clipPath id="clip-1754"><path d="M 200.5 566.5 L 307.8 566.5 L 307.8 414.6 L 200.5 414.6 Z M 200.5 566.5 "></path></clipPath><g clip-path="url(#clip-1754)"><g><clipPath id="clip-1755"><path d="M 243.0 414.6 L 244.0 414.6 L 244.0 566.5 L 243.0 566.5 Z M 243.0 414.6 "></path></clipPath><g clip-path="url(#clip-1755)"><path d="M 44.5 1.5 L 44.5 153.4 " fill="none" stroke="#DCDDE0" stroke-width="1.00" stroke-dasharray="2.0, 2.0" transform="matrix(1.00, 0.00, 0.00, -1.00, 199.0, 568.0)"></path></g></g></g></g><g><clipPath id="clip-1756"><path d="M 200.5 566.5 L 307.8 566.5 L 307.8 414.6 L 200.5 414.6 Z M 200.5 566.5 "></path></clipPath><g clip-path="url(#clip-1756)"><g><clipPath id="clip-1757"><path d="M 264.3 414.6 L 265.3 414.6 L 265.3 566.5 L 264.3 566.5 Z M 264.3 414.6 "></path></clipPath><g clip-path="url(#clip-1757)"><path d="M 65.8 1.5 L 65.8 153.4 " fill="none" stroke="#DCDDE0" stroke-width="1.00" stroke-dasharray="2.0, 2.0" transform="matrix(1.00, 0.00, 0.00, -1.00, 199.0, 568.0)"></path></g></g></g></g><g><clipPath id="clip-1758"><path d="M 200.5 566.5 L 307.8 566.5 L 307.8 414.6 L 200.5 414.6 Z M 200.5 566.5 "></path></clipPath><g clip-path="url(#clip-1758)"><g><clipPath id="clip-1759"><path d="M 285.6 414.6 L 286.6 414.6 L 286.6 566.5 L 285.6 566.5 Z M 285.6 414.6 "></path></clipPath><g clip-path="url(#clip-1759)"><path d="M 87.1 1.5 L 87.1 153.4 " fill="none" stroke="#DCDDE0" stroke-width="1.00" stroke-dasharray="2.0, 2.0" transform="matrix(1.00, 0.00, 0.00, -1.00, 199.0, 568.0)"></path></g></g></g></g><g><clipPath id="clip-1760"><path d="M 200.5 566.5 L 307.8 566.5 L 307.8 414.6 L 200.5 414.6 Z M 200.5 566.5 "></path></clipPath><g clip-path="url(#clip-1760)"><g><clipPath id="clip-1761"><path d="M 200.5 546.6 L 307.8 546.6 L 307.8 547.6 L 200.5 547.6 Z M 200.5 546.6 "></path></clipPath><g clip-path="url(#clip-1761)"><path d="M 1.5 20.9 L 108.8 20.9 " fill="none" stroke="#DCDDE0" stroke-width="1.00" stroke-dasharray="2.0, 2.0" transform="matrix(1.00, 0.00, 0.00, -1.00, 199.0, 568.0)"></path></g></g></g></g><g><clipPath id="clip-1762"><path d="M 200.5 566.5 L 307.8 566.5 L 307.8 414.6 L 200.5 414.6 Z M 200.5 566.5 "></path></clipPath><g clip-path="url(#clip-1762)"><g><clipPath id="clip-1763"><path d="M 200.5 527.8 L 307.8 527.8 L 307.8 528.8 L 200.5 528.8 Z M 200.5 527.8 "></path></clipPath><g clip-path="url(#clip-1763)"><path d="M 1.5 39.7 L 108.8 39.7 " fill="none" stroke="#DCDDE0" stroke-width="1.00" stroke-dasharray="2.0, 2.0" transform="matrix(1.00, 0.00, 0.00, -1.00, 199.0, 568.0)"></path></g></g></g></g><g><clipPath id="clip-1764"><path d="M 200.5 566.5 L 307.8 566.5 L 307.8 414.6 L 200.5 414.6 Z M 200.5 566.5 "></path></clipPath><g clip-path="url(#clip-1764)"><g><clipPath id="clip-1765"><path d="M 200.5 508.9 L 307.8 508.9 L 307.8 509.9 L 200.5 509.9 Z M 200.5 508.9 "></path></clipPath><g clip-path="url(#clip-1765)"><path d="M 1.5 58.6 L 108.8 58.6 " fill="none" stroke="#DCDDE0" stroke-width="1.00" stroke-dasharray="2.0, 2.0" transform="matrix(1.00, 0.00, 0.00, -1.00, 199.0, 568.0)"></path></g></g></g></g><g><clipPath id="clip-1766"><path d="M 200.5 566.5 L 307.8 566.5 L 307.8 414.6 L 200.5 414.6 Z M 200.5 566.5 "></path></clipPath><g clip-path="url(#clip-1766)"><g><clipPath id="clip-1767"><path d="M 200.5 490.1 L 307.8 490.1 L 307.8 491.1 L 200.5 491.1 Z M 200.5 490.1 "></path></clipPath><g clip-path="url(#clip-1767)"><path d="M 1.5 77.4 L 108.8 77.4 " fill="none" stroke="#DCDDE0" stroke-width="1.00" stroke-dasharray="2.0, 2.0" transform="matrix(1.00, 0.00, 0.00, -1.00, 199.0, 568.0)"></path></g></g></g></g><g><clipPath id="clip-1768"><path d="M 200.5 566.5 L 307.8 566.5 L 307.8 414.6 L 200.5 414.6 Z M 200.5 566.5 "></path></clipPath><g clip-path="url(#clip-1768)"><g><clipPath id="clip-1769"><path d="M 200.5 471.2 L 307.8 471.2 L 307.8 472.2 L 200.5 472.2 Z M 200.5 471.2 "></path></clipPath><g clip-path="url(#clip-1769)"><path d="M 1.5 96.3 L 108.8 96.3 " fill="none" stroke="#DCDDE0" stroke-width="1.00" stroke-dasharray="2.0, 2.0" transform="matrix(1.00, 0.00, 0.00, -1.00, 199.0, 568.0)"></path></g></g></g></g><g><clipPath id="clip-1770"><path d="M 200.5 566.5 L 307.8 566.5 L 307.8 414.6 L 200.5 414.6 Z M 200.5 566.5 "></path></clipPath><g clip-path="url(#clip-1770)"><g><clipPath id="clip-1771"><path d="M 200.5 452.3 L 307.8 452.3 L 307.8 453.3 L 200.5 453.3 Z M 200.5 452.3 "></path></clipPath><g clip-path="url(#clip-1771)"><path d="M 1.5 115.2 L 108.8 115.2 " fill="none" stroke="#DCDDE0" stroke-width="1.00" stroke-dasharray="2.0, 2.0" transform="matrix(1.00, 0.00, 0.00, -1.00, 199.0, 568.0)"></path></g></g></g></g><g><clipPath id="clip-1772"><path d="M 200.5 566.5 L 307.8 566.5 L 307.8 414.6 L 200.5 414.6 Z M 200.5 566.5 "></path></clipPath><g clip-path="url(#clip-1772)"><g><clipPath id="clip-1773"><path d="M 200.5 433.5 L 307.8 433.5 L 307.8 434.5 L 200.5 434.5 Z M 200.5 433.5 "></path></clipPath><g clip-path="url(#clip-1773)"><path d="M 1.5 134.0 L 108.8 134.0 " fill="none" stroke="#DCDDE0" stroke-width="1.00" stroke-dasharray="2.0, 2.0" transform="matrix(1.00, 0.00, 0.00, -1.00, 199.0, 568.0)"></path></g></g></g></g><g><clipPath id="clip-1774"><path d="M 200.5 566.5 L 307.8 566.5 L 307.8 414.6 L 200.5 414.6 Z M 200.5 566.5 "></path></clipPath><g clip-path="url(#clip-1774)"><path d="M 2.0 1.5 L 2.0 153.4 " fill="none" stroke="#FEFFFE" stroke-width="1.00" transform="matrix(1.00, 0.00, 0.00, -1.00, 199.0, 568.0)"></path><path d="M 108.3 1.5 L 108.3 153.4 " fill="none" stroke="#FEFFFF" stroke-width="1.00" transform="matrix(1.00, 0.00, 0.00, -1.00, 199.0, 568.0)"></path><path d="M 1.5 2.0 L 108.8 2.0 " fill="none" stroke="#FEFFFE" stroke-width="1.00" transform="matrix(1.00, 0.00, 0.00, -1.00, 199.0, 568.0)"></path><path d="M 1.5 152.9 L 108.8 152.9 " fill="none" stroke="#FEFFFE" stroke-width="1.00" transform="matrix(1.00, 0.00, 0.00, -1.00, 199.0, 568.0)"></path></g></g><image xlink:href="56135C9205F52C56B96E6D5B6B5C977A.png" width="22.00" height="20.00" transform="matrix(0.95, 0.00, -0.00, -1.00, 489.0, 482.0)"></image><image xlink:href="../../7FF1498D-CB27-4344-AB65-99EE17602934/assets/56135C9205F52C56B96E6D5B6B5C977A.png" width="22.00" height="20.00" transform="matrix(0.95, 0.00, -0.00, -1.00, 425.0, 520.0)"></image><text xml:space="preserve" font-family="Helvetica-Light" font-size="36.0" fill="#000000" transform="matrix(1.00, 0.00, -0.00, -1.00, 160.0, 628.0)">T</text><text xml:space="preserve" font-family="Helvetica-Light" font-size="36.0" fill="#000000" transform="matrix(1.00, 0.00, -0.00, -1.00, 180.0, 628.0)">h</text><text xml:space="preserve" font-family="Helvetica-Light" font-size="36.0" fill="#000000" transform="matrix(1.00, 0.00, -0.00, -1.00, 200.0, 628.0)">e</text><text xml:space="preserve" font-family="Helvetica-Light" font-size="36.0" fill="#000000" transform="matrix(1.00, 0.00, -0.00, -1.00, 220.0, 628.0)"> </text><text xml:space="preserve" font-family="Helvetica-Light" font-size="36.0" fill="#000000" transform="matrix(1.00, 0.00, -0.00, -1.00, 230.1, 628.0)">b</text><text xml:space="preserve" font-family="Helvetica-Light" font-size="36.0" fill="#000000" transform="matrix(1.00, 0.00, -0.00, -1.00, 252.1, 628.0)">i</text><text xml:space="preserve" font-family="Helvetica-Light" font-size="36.0" fill="#000000" transform="matrix(1.00, 0.00, -0.00, -1.00, 260.0, 628.0)">t</text><text xml:space="preserve" font-family="Helvetica-Light" font-size="36.0" fill="#000000" transform="matrix(1.00, 0.00, -0.00, -1.00, 270.1, 628.0)"> </text><text xml:space="preserve" font-family="Helvetica-Light" font-size="36.0" fill="#000000" transform="matrix(1.00, 0.00, -0.00, -1.00, 280.1, 628.0)">t</text><text xml:space="preserve" font-family="Helvetica-Light" font-size="36.0" fill="#000000" transform="matrix(1.00, 0.00, -0.00, -1.00, 290.1, 628.0)">o</text><text xml:space="preserve" font-family="Helvetica-Light" font-size="36.0" fill="#000000" transform="matrix(1.00, 0.00, -0.00, -1.00, 310.1, 628.0)">r</text><text xml:space="preserve" font-family="Helvetica-Light" font-size="36.0" fill="#000000" transform="matrix(1.00, 0.00, -0.00, -1.00, 322.1, 628.0)">r</text><text xml:space="preserve" font-family="Helvetica-Light" font-size="36.0" fill="#000000" transform="matrix(1.00, 0.00, -0.00, -1.00, 333.4, 628.0)">e</text><text xml:space="preserve" font-family="Helvetica-Light" font-size="36.0" fill="#000000" transform="matrix(1.00, 0.00, -0.00, -1.00, 353.4, 628.0)">n</text><text xml:space="preserve" font-family="Helvetica-Light" font-size="36.0" fill="#000000" transform="matrix(1.00, 0.00, -0.00, -1.00, 373.4, 628.0)">t</text><text xml:space="preserve" font-family="Helvetica-Light" font-size="36.0" fill="#000000" transform="matrix(1.00, 0.00, -0.00, -1.00, 383.5, 628.0)"> </text><text xml:space="preserve" font-family="Helvetica-Light" font-size="36.0" fill="#000000" transform="matrix(1.00, 0.00, -0.00, -1.00, 393.5, 628.0)">p</text><text xml:space="preserve" font-family="Helvetica-Light" font-size="36.0" fill="#000000" transform="matrix(1.00, 0.00, -0.00, -1.00, 415.5, 628.0)">r</text><text xml:space="preserve" font-family="Helvetica-Light" font-size="36.0" fill="#000000" transform="matrix(1.00, 0.00, -0.00, -1.00, 426.8, 628.0)">o</text><text xml:space="preserve" font-family="Helvetica-Light" font-size="36.0" fill="#000000" transform="matrix(1.00, 0.00, -0.00, -1.00, 446.8, 628.0)">t</text><text xml:space="preserve" font-family="Helvetica-Light" font-size="36.0" fill="#000000" transform="matrix(1.00, 0.00, -0.00, -1.00, 456.8, 628.0)">o</text><text xml:space="preserve" font-family="Helvetica-Light" font-size="36.0" fill="#000000" transform="matrix(1.00, 0.00, -0.00, -1.00, 476.8, 628.0)">c</text><text xml:space="preserve" font-family="Helvetica-Light" font-size="36.0" fill="#000000" transform="matrix(1.00, 0.00, -0.00, -1.00, 496.9, 628.0)">o</text><text xml:space="preserve" font-family="Helvetica-Light" font-size="36.0" fill="#000000" transform="matrix(1.00, 0.00, -0.00, -1.00, 516.9, 628.0)">l</text><text xml:space="preserve" font-family="Helvetica-Light" font-size="36.0" fill="#000000" transform="matrix(1.00, 0.00, -0.00, -1.00, 524.9, 628.0)"> </text><text xml:space="preserve" font-family="Helvetica-Light" font-size="36.0" fill="#000000" transform="matrix(1.00, 0.00, -0.00, -1.00, 534.9, 628.0)">l</text><text xml:space="preserve" font-family="Helvetica-Light" font-size="36.0" fill="#000000" transform="matrix(1.00, 0.00, -0.00, -1.00, 542.9, 628.0)">e</text><text xml:space="preserve" font-family="Helvetica-Light" font-size="36.0" fill="#000000" transform="matrix(1.00, 0.00, -0.00, -1.00, 562.9, 628.0)">t</text><text xml:space="preserve" font-family="Helvetica-Light" font-size="36.0" fill="#000000" transform="matrix(1.00, 0.00, -0.00, -1.00, 572.9, 628.0)">s</text><text xml:space="preserve" font-family="Helvetica-Light" font-size="36.0" fill="#000000" transform="matrix(1.00, 0.00, -0.00, -1.00, 590.9, 628.0)"> </text><text xml:space="preserve" font-family="Helvetica-Light" font-size="36.0" fill="#000000" transform="matrix(1.00, 0.00, -0.00, -1.00, 600.9, 628.0)">y</text><text xml:space="preserve" font-family="Helvetica-Light" font-size="36.0" fill="#000000" transform="matrix(1.00, 0.00, -0.00, -1.00, 618.9, 628.0)">o</text><text xml:space="preserve" font-family="Helvetica-Light" font-size="36.0" fill="#000000" transform="matrix(1.00, 0.00, -0.00, -1.00, 638.9, 628.0)">u</text><text xml:space="preserve" font-family="Helvetica-Light" font-size="36.0" fill="#000000" transform="matrix(1.00, 0.00, -0.00, -1.00, 658.9, 628.0)"> </text><text xml:space="preserve" font-family="Helvetica-Light" font-size="36.0" fill="#000000" transform="matrix(1.00, 0.00, -0.00, -1.00, 668.9, 628.0)">p</text><text xml:space="preserve" font-family="Helvetica-Light" font-size="36.0" fill="#000000" transform="matrix(1.00, 0.00, -0.00, -1.00, 690.9, 628.0)">a</text><text xml:space="preserve" font-family="Helvetica-Light" font-size="36.0" fill="#000000" transform="matrix(1.00, 0.00, -0.00, -1.00, 710.9, 628.0)">s</text><text xml:space="preserve" font-family="Helvetica-Light" font-size="36.0" fill="#000000" transform="matrix(1.00, 0.00, -0.00, -1.00, 728.9, 628.0)">s</text><text xml:space="preserve" font-family="Helvetica-Light" font-size="36.0" fill="#000000" transform="matrix(1.00, 0.00, -0.00, -1.00, 746.9, 628.0)"> </text><text xml:space="preserve" font-family="Helvetica-Light" font-size="36.0" fill="#000000" transform="matrix(1.00, 0.00, -0.00, -1.00, 757.0, 628.0)">p</text><text xml:space="preserve" font-family="Helvetica-Light" font-size="36.0" fill="#000000" transform="matrix(1.00, 0.00, -0.00, -1.00, 778.9, 628.0)">i</text><text xml:space="preserve" font-family="Helvetica-Light" font-size="36.0" fill="#000000" transform="matrix(1.00, 0.00, -0.00, -1.00, 786.9, 628.0)">e</text><text xml:space="preserve" font-family="Helvetica-Light" font-size="36.0" fill="#000000" transform="matrix(1.00, 0.00, -0.00, -1.00, 807.0, 628.0)">c</text><text xml:space="preserve" font-family="Helvetica-Light" font-size="36.0" fill="#000000" transform="matrix(1.00, 0.00, -0.00, -1.00, 827.0, 628.0)">e</text><text xml:space="preserve" font-family="Helvetica-Light" font-size="36.0" fill="#000000" transform="matrix(1.00, 0.00, -0.00, -1.00, 847.0, 628.0)">s</text></g></svg>